<svg version="1.1" xmlns="http://www.w3.org/2000/svg" style="display: block;" viewBox="0 0 2048 2048" width="1024" height="1024">
<path transform="translate(0,0)" fill="rgb(254,254,254)" d="M 0 0 L 2048 0 L 2048 2048 L 0 2048 L 0 0 z"/>
<path transform="translate(0,0)" fill="rgb(35,31,32)" d="M 1456.83 1183.45 L 1460.45 1184.97 C 1462.8 1187.9 1463.87 1190.86 1464.32 1194.62 C 1464.86 1199.18 1464.68 1205.4 1461.77 1209.1 C 1458.05 1207.21 1456.48 1205.43 1455.17 1201.45 C 1453.16 1195.34 1454.02 1189.11 1456.83 1183.45 z"/>
<path transform="translate(0,0)" fill="rgb(35,31,32)" d="M 1329.83 1250.94 C 1336.96 1251.34 1344.44 1251.55 1350.57 1255.51 C 1352.28 1258.4 1351.92 1259 1351.6 1262.24 C 1344.69 1262.04 1334.59 1262.9 1329.31 1257.84 C 1328.53 1254.73 1328.95 1253.93 1329.83 1250.94 z"/>
<path transform="translate(0,0)" fill="rgb(35,31,32)" d="M 1567.42 1179.47 C 1569.27 1179.63 1571.56 1179.77 1573.23 1180.62 C 1575.57 1181.82 1577.2 1184.39 1577.92 1186.86 C 1579.47 1192.2 1577.58 1197.92 1574.95 1202.54 C 1574.26 1202.66 1573.17 1202.88 1572.49 1202.8 C 1570.56 1202.57 1569.44 1201.54 1568.34 1200.05 C 1564.47 1194.81 1566.27 1185.46 1567.42 1179.47 z"/>
<path transform="translate(0,0)" fill="rgb(35,31,32)" d="M 1531.74 1167.25 C 1533.25 1167.91 1534.56 1168.74 1535.96 1169.6 C 1537.91 1172.67 1539.3 1175.76 1539.82 1179.41 C 1540.69 1185.44 1540.18 1189.68 1536.62 1194.61 C 1535.07 1194.01 1533.3 1193.41 1531.92 1192.47 C 1528.94 1190.42 1527.56 1185.16 1527.35 1181.72 C 1527.02 1176.24 1527.94 1171.24 1531.74 1167.25 z"/>
<path transform="translate(0,0)" fill="rgb(35,31,32)" d="M 1668.48 1242.09 C 1669.53 1241.95 1670.58 1241.79 1671.64 1241.72 C 1674.49 1241.53 1676.94 1241.97 1679.18 1243.85 C 1679.85 1246.27 1679.93 1246.75 1678.55 1249.09 C 1675.44 1254.38 1669.93 1255.59 1664.42 1256.87 C 1664.26 1256.88 1664.09 1256.89 1663.93 1256.9 C 1661.58 1257.11 1659.06 1257.48 1656.7 1257.33 C 1654.29 1257.18 1653.07 1256.39 1651.64 1254.59 L 1652.09 1252.26 C 1656.9 1246.54 1661.69 1244.68 1668.48 1242.09 z"/>
<path transform="translate(0,0)" fill="rgb(35,31,32)" d="M 1346.93 765.503 L 1350 766.05 L 1350.92 767.53 C 1349.07 772.785 1341.8 779.428 1338.58 784.673 C 1334 792.151 1330.7 799.609 1326.98 807.476 L 1323.23 805.642 C 1321.83 803.6 1321.41 802.71 1321.95 800.203 C 1324.48 788.37 1337.38 772.612 1346.93 765.503 z"/>
<path transform="translate(0,0)" fill="rgb(35,31,32)" d="M 1654.66 1174.52 C 1655.11 1174.55 1655.57 1174.53 1656.01 1174.6 C 1658.55 1175.02 1658.93 1175.33 1660.34 1177.3 C 1660.11 1183.19 1641.01 1203.18 1635.9 1209.64 C 1634.38 1209.78 1633.33 1209.39 1631.88 1208.99 C 1630.87 1207.88 1629.94 1207.55 1630.14 1205.92 C 1631.37 1196.3 1647.47 1180.33 1654.66 1174.52 z"/>
<path transform="translate(0,0)" fill="rgb(35,31,32)" d="M 1418.69 1160.36 C 1419.23 1160.44 1421.21 1160.71 1421.65 1160.93 C 1423.14 1161.69 1423.22 1162.18 1423.8 1163.57 C 1427.01 1171.21 1428.41 1205.1 1425.19 1212.32 C 1424.64 1212.18 1424.08 1212.09 1423.55 1211.9 C 1422.01 1211.35 1420.99 1210.88 1420.22 1209.43 C 1416.62 1202.63 1416.34 1167.56 1418.69 1160.36 z"/>
<path transform="translate(0,0)" fill="rgb(35,31,32)" d="M 1570.29 1219.95 C 1572.69 1220.24 1575.1 1220.75 1577.45 1221.27 C 1590.31 1224.14 1604.44 1232.68 1611.46 1244.06 C 1614.36 1248.77 1615.5 1251.97 1614.25 1257.4 C 1605.82 1253.67 1599.35 1241.32 1591.63 1235.67 C 1586.19 1231.7 1576.36 1230.62 1571.88 1226.06 C 1569.67 1223.82 1570.12 1222.88 1570.29 1219.95 z"/>
<path transform="translate(0,0)" fill="rgb(35,31,32)" d="M 605.39 156.411 C 607.137 156.547 608.648 156.935 610.33 157.419 C 617.77 164.182 617.063 178.607 620.478 187.871 C 620.606 188.219 620.743 188.564 620.875 188.91 C 626.524 186.053 632.991 182.08 639.424 181.96 C 642.195 181.908 643.361 181.809 645.373 183.778 L 644.771 186.349 C 638.962 193.427 631.101 195.767 622.894 199.097 C 625.207 206.148 631.961 215.481 630.024 222.877 C 627.68 225.174 626.711 225.086 623.571 225.725 C 617.757 219.02 616.372 210.808 614.35 202.421 C 608.28 205.035 602.645 209.468 596.515 211.696 C 593.478 212.8 589.247 213.463 586.205 212.14 C 584.996 210.797 585.385 210.524 585.412 208.792 C 589.95 199.57 602.161 196.504 611.111 193.199 C 608.52 183.777 601.992 166.088 605.39 156.411 z"/>
<path transform="translate(0,0)" fill="rgb(35,31,32)" d="M 1067.51 509.624 C 1068.46 509.862 1070.23 510.164 1071.11 510.706 C 1073.51 512.172 1073.49 512.832 1073.88 515.386 C 1069.76 524.453 1057.4 531.29 1049.01 535.923 C 1052.39 541.341 1067.22 544.663 1072.51 550.829 C 1074.45 553.083 1074.53 554.355 1074.48 557.234 C 1072.83 559.507 1072.92 559.56 1070.22 560.219 C 1062.18 558.135 1051.81 549.295 1044.6 544.635 C 1041.45 550.3 1038.43 556.652 1034.63 561.878 C 1032.01 565.475 1029.93 567.597 1025.44 568.27 C 1022.99 566.812 1022.62 566.465 1021.22 563.987 C 1021.26 560.638 1024.22 557.596 1026.17 554.979 C 1029.28 550.076 1032.14 544.984 1035.07 539.97 C 1034.82 539.887 1034.56 539.8 1034.31 539.721 L 1033.03 539.333 C 1028.2 537.832 1024 537.475 1019.04 537.029 C 1013.63 536.543 1009.04 535.212 1005.46 530.984 L 1005.69 529.176 C 1011.16 526.321 1023.75 530.549 1029.83 531.882 C 1026.93 528.694 1022.39 524.675 1020.58 520.797 C 1019.21 517.845 1018.7 515.466 1019.93 512.438 L 1022.34 511.947 C 1031.11 515.274 1037.41 524.811 1043.33 531.792 C 1052.2 525.258 1058.24 515.585 1067.51 509.624 z"/>
<path transform="translate(0,0)" fill="rgb(35,31,32)" d="M 1388.2 699.432 C 1391.67 699.615 1393.1 699.824 1395.4 702.358 C 1396.56 709.253 1388.58 714.857 1385.68 720.797 C 1380.99 730.413 1377.74 740.578 1374.36 750.705 C 1388.11 752.429 1402.17 750.327 1415.58 752.157 C 1418.3 752.528 1418.92 753.088 1420.54 755.242 C 1420.74 757.754 1421.23 757.478 1419.48 759.553 C 1404.26 763.575 1388.14 761.89 1373.02 758.333 C 1371.8 778.549 1373.87 798.279 1373.19 818.321 C 1370.33 817.963 1368.44 818.114 1366.33 815.774 C 1359.96 808.725 1363.7 767.438 1364.45 756.99 C 1353.53 755.066 1340.68 753.896 1330.43 749.841 C 1327.4 748.643 1325.73 747.481 1324.35 744.536 L 1325.18 742.775 C 1326.84 741.882 1327.83 741.426 1329.76 741.475 C 1336.31 741.642 1356.59 747.869 1364.73 749.596 C 1370.01 731.993 1375.41 713.205 1388.2 699.432 z"/>
<path transform="translate(0,0)" fill="rgb(35,31,32)" d="M 310.01 231.494 C 310.234 231.803 310.504 232.084 310.683 232.422 C 316.12 242.731 302.603 288.799 298.836 301.413 C 306.153 296.838 313.566 292.316 320.675 287.426 C 328.005 282.384 342.304 268.395 350.107 266.901 C 352.84 266.377 353.397 266.792 355.654 268.107 L 355.96 270.009 C 352.016 277.36 330.726 291.239 322.989 295.974 C 315.488 300.565 305.578 304.69 299.342 310.858 C 297.517 312.663 295.716 315.476 296.442 318.148 C 297.561 322.27 302.1 326.763 304.631 330.197 C 311.187 339.093 336.296 370.503 336.18 379.378 C 334.851 380.443 335.164 380.684 333.704 380.484 C 324.21 379.183 300.902 337.992 293.326 328.612 L 292.491 327.599 C 286.451 344.875 279.29 362.808 277.168 381.056 C 276.722 384.651 276.401 388.408 275.589 391.938 C 274.684 395.871 272.043 400.175 268.693 402.413 C 262.54 394.469 274.007 354.1 277.363 344.526 C 278.512 341.249 285.021 328.04 284.949 325.5 C 284.923 324.597 284.428 323.769 284.168 322.904 C 280.297 320.692 237.666 359.278 221.507 359.313 L 220.431 356.47 C 222.937 351.097 243.196 340.953 249.129 336.774 C 259.476 329.486 269.659 321.297 279.595 313.44 C 273.557 306.799 254.854 289.695 253.126 281.766 L 254.322 280.691 C 266.45 281.922 277.565 300.373 286.457 308.195 L 287.756 307.635 C 297.904 294.052 303.407 250.61 309.666 232.452 C 309.777 232.131 309.895 231.814 310.01 231.494 z"/>
<path transform="translate(0,0)" fill="rgb(35,31,32)" d="M 212.292 1007.05 C 219.348 1006.74 224.892 1006.4 231.292 1009.91 C 238.551 1013.88 243.094 1020.55 245.321 1028.42 C 248.604 1040.02 246.593 1051.7 240.492 1062 C 233.618 1073.6 223.937 1080.81 211.11 1084.36 C 204.555 1085.47 197.841 1085.26 191.546 1083.03 C 185.651 1080.94 180.83 1077.02 178.243 1071.25 C 173.841 1061.43 175.688 1049.11 179.452 1039.35 C 185.773 1022.96 196.648 1013.95 212.292 1007.05 z"/>
<path transform="translate(0,0)" fill="rgb(254,254,254)" d="M 216.602 1019.95 C 218.698 1020.04 220.804 1020.18 222.749 1021.02 C 226.843 1022.8 230.76 1026.04 232.388 1030.29 C 234.816 1036.62 233.699 1045.26 231.102 1051.37 C 226.647 1061.84 218.927 1067.73 208.768 1071.94 C 206.125 1072.07 202.925 1072.43 200.375 1071.68 C 197.173 1070.74 193.688 1067.43 192.259 1064.42 C 189.244 1058.09 190.607 1048.5 193.148 1042.24 C 197.551 1031.37 206.191 1024.51 216.602 1019.95 z"/>
<path transform="translate(0,0)" fill="rgb(35,31,32)" d="M 895.853 212.271 C 901.824 211.925 907.291 212.68 912.463 215.877 C 918.428 219.565 922.001 225.659 923.408 232.435 C 926.749 248.526 921.37 268.77 912.266 282.237 C 904.117 294.29 892.684 302.045 878.388 304.887 C 871.487 305.169 866.286 304.067 860.46 300.103 C 853.981 295.695 850.675 288.401 849.556 280.838 C 847.144 264.545 854.008 246.234 863.615 233.241 C 871.845 222.111 881.931 214.453 895.853 212.271 z"/>
<path transform="translate(0,0)" fill="rgb(254,254,254)" d="M 891.211 223.124 C 895.159 222.854 899.797 222.43 903.467 224.221 C 907.273 226.078 909.932 229.905 911.083 233.894 C 914.437 245.522 910.17 262.874 904.533 273.351 C 898.777 284.048 891.298 290.783 879.677 294.232 C 876 293.602 872.111 292.952 868.766 291.211 C 862.9 288.156 861.209 281.882 859.153 276.112 C 859.971 271.011 860.677 265.755 861.993 260.756 C 866.427 243.923 876.275 231.78 891.211 223.124 z"/>
<path transform="translate(0,0)" fill="rgb(35,31,32)" d="M 1800.75 918.095 C 1808.6 917.789 1815.51 917.995 1822.88 921.111 C 1832.06 924.991 1839.02 932.469 1842.71 941.684 C 1847.55 953.803 1846.22 967.304 1841.27 979.153 C 1834.37 995.646 1821.1 1006.67 1804.78 1013.11 C 1796.42 1015.83 1785.42 1016.61 1777.4 1012.53 C 1769.7 1008.62 1765 1000.83 1762.68 992.765 C 1757.98 976.521 1761.33 955.896 1769.58 941.273 C 1776.85 928.389 1786.89 922.107 1800.75 918.095 z"/>
<path transform="translate(0,0)" fill="rgb(254,254,254)" d="M 1806.17 931.08 C 1810.54 930.844 1814.65 930.567 1818.83 932.092 C 1824.66 934.219 1829.36 938.004 1831.95 943.714 C 1835.93 952.484 1835.45 963.095 1831.95 971.927 C 1826.46 985.801 1815.57 995.45 1802 1000.99 C 1796.89 1002.79 1790.47 1004.15 1785.2 1002.29 C 1781.43 1000.96 1778.64 998.274 1777.01 994.644 C 1772.32 984.187 1775.29 968.75 1779.44 958.396 C 1784.79 945.032 1793.06 936.678 1806.17 931.08 z"/>
<path transform="translate(0,0)" fill="rgb(35,31,32)" d="M 1223.94 269.202 C 1237.56 267.596 1246.87 274.948 1259.62 277.656 C 1266.39 279.094 1273.74 278.305 1280.64 278.817 C 1284.97 279.138 1288.81 279.387 1291.83 282.867 C 1292.09 284.601 1291.95 285.463 1291.23 287.114 C 1288.41 293.523 1256.96 331.776 1251.24 335.368 C 1240.04 342.406 1225.84 346.322 1213.42 350.779 A 2093.56 2093.56 0 0 1 1144.97 374.09 C 1129.17 379.099 1113.2 383.355 1097.72 389.359 C 1088.37 392.806 1076.48 398.562 1066.51 398.122 C 1062.04 397.925 1058.32 395.974 1055.43 392.587 C 1047.5 383.278 1035.03 348.065 1036.12 335.565 C 1037.57 333.241 1038.46 332.3 1041.15 331.461 C 1046.33 329.847 1052.13 329.316 1057.44 328.013 C 1065.21 326.105 1072.88 323.464 1080.45 320.871 C 1107.4 311.644 1133.7 300.212 1160.38 290.192 C 1181.25 282.358 1202.64 275.738 1223.94 269.202 z"/>
<path transform="translate(0,0)" fill="rgb(254,254,254)" d="M 1052.92 337.06 L 1053.74 337.374 C 1054.42 338.086 1054.82 338.411 1055.25 339.415 C 1057.54 344.786 1057.98 351.984 1059.73 357.708 C 1062.14 365.636 1065.94 373.092 1068.41 381.048 C 1069.13 383.353 1069.53 385.516 1069.77 387.919 C 1068 390.217 1065.96 390.122 1063.23 390.83 C 1063.05 390.578 1062.85 390.331 1062.68 390.075 C 1062.38 389.648 1062.09 389.212 1061.8 388.783 C 1054.48 378.087 1046.29 353.752 1045.76 340.672 C 1047.95 337.95 1049.62 338.001 1052.92 337.06 z"/>
<path transform="translate(0,0)" fill="rgb(254,254,254)" d="M 1226.9 276.174 C 1237.61 274.82 1248.11 281.391 1258.4 283.9 C 1266.39 285.846 1273.62 286.041 1281.81 285.722 C 1274.65 294.848 1267.21 304.097 1259.16 312.45 C 1256.67 304.595 1253.29 290.859 1246.18 285.901 C 1239.93 292.99 1255.73 312.455 1251.72 322.234 C 1248.67 329.695 1237.12 332.062 1230.26 334.518 A 2843.17 2843.17 0 0 0 1178.52 352.312 C 1171.74 334.263 1168.06 315.882 1160.07 298.118 C 1181.76 289.721 1204.48 282.401 1226.9 276.174 z"/>
<path transform="translate(0,0)" fill="rgb(254,254,254)" d="M 1153.94 299.972 C 1158.99 305.201 1167.01 345.196 1170.67 355.257 C 1152.49 360.901 1134.08 366.191 1116.09 372.409 C 1108.77 374.942 1086.04 386.065 1080.05 385.028 C 1072.23 368.5 1066.26 351.499 1060.04 334.329 C 1092.22 325.129 1123.03 312.705 1153.94 299.972 z"/>
<path transform="translate(0,0)" fill="rgb(35,31,32)" d="M 1317.23 141.149 C 1328.3 142.801 1337.16 145.525 1344.03 155.052 C 1346.94 159.082 1349.01 163.729 1350.84 168.332 C 1357.87 171.303 1363.4 174.677 1369.31 179.495 C 1381.63 189.541 1390.72 201.794 1402.16 212.56 C 1416.83 226.356 1434.01 238.31 1447.58 253.067 C 1482.89 229.578 1548.41 219.028 1590.79 218.578 C 1611.36 218.359 1633.51 220.575 1653.71 224.728 C 1707.56 235.8 1760.84 286.658 1793.51 329.089 C 1808.24 348.219 1821.08 369.694 1836.82 387.86 C 1848.1 388.594 1854.35 392.858 1861.79 401.287 C 1869.99 410.583 1875.83 421.214 1882.97 431.236 C 1891.46 443.149 1902.61 453.806 1908.01 467.642 C 1910.4 473.798 1910.41 480.266 1909.93 486.748 C 1906.19 537.087 1902.54 601.19 1861.21 636.304 C 1840.65 653.767 1818.53 658.482 1792.38 656.157 C 1774.59 654.577 1760.27 651.144 1748.26 636.722 C 1729.61 614.312 1721.24 580.006 1715.39 551.948 C 1698.9 545.275 1680.95 540.726 1663.18 539.301 C 1652.12 538.414 1640.86 538.541 1629.87 536.886 C 1608.59 533.678 1588.02 525.265 1569.6 514.27 C 1554.3 537.633 1540.09 567.448 1546.24 596.094 C 1550.17 614.376 1560.47 628.32 1573.46 641.332 C 1590.91 658.819 1610.85 672.577 1629.19 688.883 C 1676.34 730.782 1674.29 780.688 1659.46 838.004 C 1650.05 874.366 1638.94 911.333 1618.67 943.305 C 1606.13 963.079 1588.57 981.586 1571.81 997.942 L 1577.38 1005.16 C 1582.86 1012.2 1583.8 1020.36 1582.54 1029.1 A 45.145 45.145 0 0 1 1563.71 1059.8 C 1554.37 1066.2 1541.96 1069.5 1530.73 1067.22 C 1520.52 1065.16 1514.12 1059.36 1507.56 1051.79 C 1435.7 1110.01 1287.46 1162.16 1195.38 1152.65 L 1193.52 1152.46 L 1204.14 1226.2 C 1206.24 1240.54 1211.14 1258.3 1209.48 1272.6 C 1234.36 1285.15 1259.72 1293.89 1285.41 1304.32 C 1313.4 1315.68 1341.87 1328.94 1370.87 1337.36 C 1376.21 1334.24 1384.68 1330.66 1388.87 1326.34 C 1382.18 1322.04 1380.37 1316.33 1378.76 1308.88 C 1375.07 1291.81 1376.2 1268.34 1386.17 1253.37 C 1391.22 1245.79 1405.36 1233.2 1414.83 1231.78 C 1416.12 1231.59 1417.92 1231.97 1419.15 1232.15 L 1420.27 1233.52 C 1418.49 1237.82 1413.19 1240.77 1409.51 1243.4 C 1404.4 1247.05 1398.43 1250.82 1394.49 1255.81 C 1380.79 1273.17 1387.84 1305.71 1390.26 1325.64 C 1401.5 1320.82 1412.38 1315.2 1423.31 1309.74 C 1418.91 1288.51 1424.59 1286.76 1429.12 1268.91 C 1429.26 1268.37 1429.38 1267.82 1429.51 1267.27 C 1433.05 1254.94 1442.46 1246.77 1453.3 1240.68 C 1472.85 1229.67 1504.51 1217.12 1527.2 1223.46 C 1528.87 1223.93 1529.65 1223.87 1530.59 1225.42 C 1523.47 1231.65 1504.81 1230.14 1495.41 1232.58 C 1483.93 1235.56 1472.07 1239.46 1461.54 1244.98 C 1449.04 1251.54 1443.93 1259.16 1433.69 1267.71 C 1429.02 1278.56 1430.85 1293.77 1431.19 1305.35 C 1434.68 1304.04 1441.64 1302.42 1443.67 1299.32 C 1445.01 1294.4 1443.59 1290 1444.14 1285.12 C 1445.29 1274.85 1462.92 1262.89 1471.35 1258.14 C 1483 1251.57 1493.38 1248.02 1506.68 1251.75 C 1511.35 1253.06 1515.03 1255.51 1517.36 1259.85 C 1518.23 1261.46 1518.63 1263.13 1519.07 1264.9 L 1518.35 1266.43 C 1523.3 1266.79 1527.93 1264.96 1532.76 1265.33 C 1548.89 1266.54 1565.4 1279.89 1576.52 1290.65 C 1584.17 1286.94 1593.63 1282.38 1602.26 1285.67 C 1603.19 1286.03 1603.52 1286.34 1604.24 1286.89 L 1612.11 1280.62 C 1624.66 1281.06 1637.22 1281.64 1649.61 1283.81 C 1659.55 1285.54 1723.73 1303.78 1728.88 1309.12 C 1731.1 1311.43 1731.58 1314.23 1731.34 1317.31 C 1731 1321.61 1729.35 1325.72 1729.12 1329.98 C 1728.9 1333.94 1730.36 1339.12 1729.29 1342.87 C 1728.71 1344.88 1728.14 1345.8 1726.53 1347.16 C 1720.42 1352.36 1690.81 1366.53 1681.82 1370.79 C 1683.07 1377.72 1686.3 1384.92 1688.57 1391.62 C 1692.17 1402.32 1695.4 1413.31 1697.62 1424.38 C 1702.49 1448.67 1708.47 1477.04 1710.42 1501.54 C 1713.25 1537.06 1710.18 1572.8 1710.04 1608.34 C 1727.49 1613.53 1748.31 1620.42 1761.69 1633.38 C 1766.68 1638.21 1769.86 1643.89 1771.48 1650.63 C 1774.85 1664.71 1773.2 1724.09 1773.18 1741.89 C 1755.71 1763.07 1732.58 1778.96 1707.29 1789.28 C 1660.03 1808.56 1628.11 1813.47 1577.4 1811.77 C 1568.77 1811.48 1556.13 1812.55 1548.18 1808.76 C 1530.35 1800.25 1515.33 1729.71 1508.11 1710.55 C 1510.84 1695.2 1519.11 1686.81 1528.63 1675.25 C 1517.76 1666.82 1506.09 1659.83 1495.36 1650.95 C 1452.64 1615.57 1421.06 1572.66 1415.7 1515.96 C 1409.84 1521.6 1398.06 1534.32 1390.52 1536.45 C 1380.88 1539.18 1358.03 1522.42 1348.41 1517.54 C 1336.79 1524.66 1324.45 1530.68 1312.64 1537.49 C 1298.12 1545.86 1284.11 1555.16 1269.68 1563.7 C 1254.74 1572.54 1239.42 1580.7 1224.66 1589.83 C 1189.35 1611.66 1155.92 1636.22 1120.43 1657.71 C 1105.23 1666.92 1089.49 1675.77 1073.82 1684.13 C 1063.62 1689.57 1052.58 1694.37 1042.94 1700.74 C 1029.32 1709.75 1016.48 1720.02 1002.88 1729.13 C 980.132 1744.36 956.316 1757.88 933.47 1772.86 C 909.353 1788.68 886.483 1806.69 862.419 1822.74 C 841.966 1836.37 820.249 1848.27 799.339 1861.2 C 778.636 1874.01 757.941 1891.13 735.326 1900.08 C 716.222 1888.36 696.945 1878.21 676.485 1869.02 C 663.665 1863.26 650.363 1858.38 637.905 1851.86 C 605.96 1835.12 575.051 1816.47 543.254 1799.48 C 534.464 1794.78 525.305 1790.88 516.405 1786.41 C 505.383 1780.88 494.829 1774.79 483.522 1769.8 C 481.801 1757.84 481.27 1745.85 481.337 1733.77 C 488.846 1727.51 497.757 1723.36 505.19 1716.75 C 488.76 1720.61 480.154 1717.53 465.32 1710.46 C 441.758 1733.98 353.644 1792.64 321.176 1806.59 C 309.988 1811.39 298.118 1814.06 286.082 1815.64 C 248.779 1820.55 211.974 1817.75 181.349 1794.02 C 158.094 1776 138.748 1743.1 135.4 1713.75 C 130.201 1668.17 149.104 1602.6 168.328 1561.45 C 179.681 1537.14 195.138 1511.62 211.838 1490.61 C 241.679 1453.08 289.608 1408.13 334.026 1390.1 C 345.258 1385.53 356.057 1383.35 368.065 1381.92 C 366.476 1368.05 365.083 1354.29 362.622 1340.53 C 357.499 1311.88 350.355 1283.56 345.501 1254.87 C 343.486 1242.97 342.887 1230.82 341.506 1218.83 C 338.734 1194.78 335.664 1170.69 332.446 1146.7 C 329.415 1124.09 320.411 1096.01 325.876 1073.61 C 334.332 1038.94 373.381 1023.36 401.713 1009.07 A 788.433 788.433 0 0 0 443.41 986.275 C 438.015 979.558 431.338 973.791 424.99 968.001 C 417.067 960.775 409.175 953.129 400.53 946.77 C 386.159 936.199 369.44 927.577 354.255 918.132 C 308.799 889.861 237.751 846.196 220.628 793.398 C 211.708 765.891 215.325 728.619 228.537 703.034 A 128.663 128.663 0 0 1 261.499 661.772 C 298.677 631.37 366.312 611.889 412.75 601.105 C 426.258 597.968 442.17 597.906 455.132 593.511 C 455.647 593.337 456.156 593.149 456.668 592.968 C 454.106 585.799 453.151 577.784 452.254 570.255 C 448.417 538.058 452.829 507.235 466.844 477.956 C 483.703 442.737 506.563 422.559 538.705 401.931 C 552.5 393.078 566.194 384.961 581.787 379.629 C 594.473 375.291 607.477 372.783 620.685 370.677 C 632.105 368.856 643.744 366.957 655.34 367.225 C 679.189 367.776 706.781 378.999 727.946 389.517 C 768.352 409.596 801.465 447.02 815.885 489.791 A 183.002 183.002 0 0 1 805.336 631.034 C 793.413 654.858 780.258 674.301 759.722 691.671 C 767.501 708.701 778.758 727.766 771.724 747.091 C 768.801 755.123 761.803 762.309 754.025 765.805 C 744.044 770.29 730.494 772.616 720.177 768.429 C 695.376 758.364 694.546 719.61 673.348 718.995 C 671.354 718.937 668.297 718.931 666.43 719.726 C 664.729 720.451 664.405 720.847 663.921 722.545 C 660.604 734.172 665.076 747.338 652.427 755.37 C 646.048 759.42 636.788 759.656 629.652 757.855 C 622.733 756.108 617.692 751.903 614.081 745.826 C 611.332 741.198 607.76 731.007 602.153 729.366 C 592.626 726.579 579.953 726.131 569.64 723.699 C 538.255 716.297 505.99 693.956 487.442 667.669 C 473.604 648.057 462.497 622.963 457.651 599.453 C 401.445 612.745 317.845 630.335 272.44 665.465 C 260.54 674.672 250.417 686.506 242.491 699.261 A 112.991 112.991 0 0 0 228.759 785.48 C 233.307 804.598 244.436 821.62 257.76 835.821 C 273.737 852.85 294.266 865.964 313.278 879.417 C 340.459 898.651 367.502 917.59 396.052 934.794 A 371.75 371.75 0 0 0 403.391 939.103 C 414.679 938.631 432.508 934.616 441.573 942.938 C 446.073 947.069 449.644 952.384 453.669 956.973 C 458.173 962.108 463.168 966.893 468.002 971.718 C 504.427 948.673 546.148 932.064 586.036 915.929 C 602.932 909.093 620.264 902.782 636.623 894.743 C 655.074 885.676 673.065 875.469 691.226 865.829 L 779.557 819.845 C 800.082 809.003 820.223 797.431 841.004 787.074 C 875.23 770.016 911.041 757.527 945.718 741.599 C 978.79 726.408 1009.82 707.945 1044.42 695.924 C 1063.15 689.417 1083.12 687.364 1102.64 691.626 C 1113.35 693.964 1122.73 698.781 1128.54 708.404 C 1140.17 727.679 1139.94 791.81 1147.09 817.493 C 1149.2 825.06 1160.85 826.556 1165.41 833.581 C 1169.59 840.018 1180.22 904.053 1178.35 910.415 C 1176.41 917.009 1167.33 921.883 1161.88 925.24 C 1164.42 946.692 1166.02 968.248 1168.55 989.703 A 2983.95 2983.95 0 0 0 1185.94 1108.11 C 1213.21 1115.32 1243.01 1116.86 1271.07 1116.44 C 1341.54 1115.38 1384.87 1103.81 1447.34 1071.99 C 1460.94 1065.06 1474.85 1058.37 1488.01 1050.65 C 1493.03 1047.7 1498.1 1044.56 1502.55 1040.8 C 1497.79 1027.78 1494.85 1015.85 1500.84 1002.47 C 1505.47 992.125 1514.73 983.37 1525.42 979.528 C 1536.64 975.495 1547.46 977.62 1557.87 982.821 A 124.33 124.33 0 0 1 1560.41 984.134 C 1568.58 974.135 1575.17 962.308 1582.01 951.354 C 1596.85 927.575 1612.09 903.581 1623.8 878.067 C 1631.32 861.698 1637.06 844.58 1643.26 827.684 C 1651.47 805.31 1660.11 783.255 1657.57 758.986 C 1654.21 726.866 1635.72 705.819 1611.47 686.373 C 1581.34 662.2 1540.49 633.868 1535.98 592.13 C 1532.83 562.987 1546.32 533.737 1562.45 510.412 C 1562.14 510.141 1561.83 509.865 1561.51 509.598 C 1552.62 502.104 1542.05 496.67 1532.53 490.015 C 1512.97 476.348 1488.2 454.529 1485.29 429.146 C 1484.2 419.695 1487.14 410.384 1493.15 403.024 C 1495.76 399.82 1498.81 396.937 1501.93 394.238 C 1495.79 390.157 1490.58 384.628 1485.29 379.525 C 1481.19 384.073 1476.45 388.985 1474.4 394.854 C 1466.48 417.467 1474.04 479.892 1434.09 481.772 C 1429.1 482.007 1424.57 480.705 1419.95 478.967 C 1401.98 507.041 1376.81 526.36 1353.67 549.625 C 1340.84 562.529 1330.12 577.084 1317.95 590.552 C 1298.48 612.105 1272.84 628.957 1246.66 641.374 C 1240.77 644.17 1233.85 649.603 1227.71 651.011 C 1225.84 651.44 1224.02 651.382 1222.43 650.265 C 1218.94 647.819 1218.12 643.5 1217.67 639.517 C 1216.19 626.573 1221.43 595.71 1225.18 582.912 C 1252.16 557.955 1276.03 530.341 1300.86 503.347 C 1325.59 476.467 1353.43 449.689 1373 418.645 C 1373.3 375.701 1379.45 338.973 1411.23 307.152 C 1394.33 291.668 1376.3 276.756 1360.45 260.225 C 1343.96 243.035 1329.1 224.266 1312.58 207.008 C 1307.09 201.271 1298.54 199.287 1293.63 193.127 C 1289.69 188.185 1287.89 181.703 1287.7 175.445 C 1287.43 166.612 1291.02 158.733 1297.34 152.644 C 1303.12 147.061 1309.79 143.849 1317.23 141.149 z"/>
<path transform="translate(0,0)" fill="rgb(254,254,254)" d="M 663.815 1493.36 C 669.698 1495.2 670.764 1505.97 674.032 1511.35 C 671.071 1510.24 666.282 1507.53 664.639 1504.73 C 662.284 1500.72 662.963 1497.68 663.815 1493.36 z"/>
<path transform="translate(0,0)" fill="rgb(254,254,254)" d="M 1226.42 619.541 C 1229.79 621.638 1232.86 623.566 1235.7 626.356 C 1236.68 629.153 1236.56 629.113 1235.49 631.903 C 1233.97 632.48 1232.21 633.306 1230.62 633.57 C 1227.97 634.012 1227.46 633.839 1225.48 632.345 C 1224.27 628.378 1225.72 623.565 1226.42 619.541 z"/>
<path transform="translate(0,0)" fill="rgb(254,254,254)" d="M 1527.65 356.593 C 1529.11 357.827 1528.56 356.987 1528.84 359.36 C 1528.26 360.099 1527.28 361.28 1526.88 362.074 C 1526.59 362.663 1526.47 363.324 1526.25 363.941 C 1524.93 367.531 1520.06 372.417 1516.6 373.991 C 1514.12 375.118 1512.71 376.874 1510.93 378.894 L 1510.07 379.887 L 1507.48 379.489 L 1507.18 378.135 C 1512.51 370.231 1520.92 363.339 1527.65 356.593 z"/>
<path transform="translate(0,0)" fill="rgb(254,254,254)" d="M 703.602 1294.65 C 705.981 1297.14 705.818 1306.52 705.871 1310.23 C 705.992 1318.64 705.144 1324.19 699.096 1330.25 C 698.458 1329.72 697.794 1328.67 697.277 1328 C 696.005 1318.01 699.75 1303.92 703.602 1294.65 z"/>
<path transform="translate(0,0)" fill="rgb(254,254,254)" d="M 1808.75 589.574 L 1811.51 590.512 C 1823.33 602.993 1827.62 615.954 1831.53 632.387 C 1820.21 624.371 1817.92 607.515 1811.73 596.059 C 1810.57 593.901 1809.64 591.862 1808.75 589.574 z"/>
<path transform="translate(0,0)" fill="rgb(254,254,254)" d="M 848.146 1511.85 L 849.122 1512.32 C 850.213 1518.42 851.713 1524.63 852.266 1530.79 C 852.501 1533.4 853.127 1536.06 851.441 1538.14 L 848.311 1535.8 C 843.67 1531.18 839.703 1526.15 835.661 1521.01 C 839.754 1517.87 843.977 1514.89 848.146 1511.85 z"/>
<path transform="translate(0,0)" fill="rgb(254,254,254)" d="M 1488.52 1415.84 C 1489.12 1416.6 1489.6 1417.45 1489.97 1418.35 C 1491.94 1423.2 1491.56 1430.09 1489.36 1434.78 L 1486.9 1435.38 C 1484.88 1436.99 1484.08 1438.4 1482.99 1440.67 L 1482.6 1441.48 L 1481.89 1440.89 C 1480.42 1435.79 1476.55 1430 1476.85 1424.72 C 1478.95 1421.12 1485.09 1418.51 1488.52 1415.84 z"/>
<path transform="translate(0,0)" fill="rgb(254,254,254)" d="M 1537.69 987.887 C 1541.39 987.968 1544.65 988.316 1548.05 989.779 C 1548.81 990.828 1549.64 991.282 1549.28 992.665 C 1548.1 997.202 1541.52 1000.23 1537.75 1002.47 C 1534.8 1002.84 1530.74 1003.01 1528.02 1001.65 C 1526.68 1000.98 1526.81 1000.16 1526.4 998.854 C 1528.52 993.011 1532.64 990.843 1537.69 987.887 z"/>
<path transform="translate(0,0)" fill="rgb(254,254,254)" d="M 1569.83 1017.97 C 1569.96 1018.23 1570.11 1018.49 1570.2 1018.76 C 1571.67 1023.2 1569 1030.59 1566.59 1034.35 C 1562.6 1040.57 1558.79 1043.46 1551.65 1044.95 C 1550.49 1043.26 1550.24 1042.02 1549.91 1040.02 C 1552.6 1030.31 1562.32 1023.94 1569.83 1017.97 z"/>
<path transform="translate(0,0)" fill="rgb(254,254,254)" d="M 1549.31 1757.52 C 1556.6 1763.38 1561.81 1779.03 1566.37 1787.47 C 1568.39 1791.22 1571.18 1794.75 1573.49 1798.35 C 1574.45 1799.84 1574.34 1799.07 1573.99 1800.65 L 1567.83 1800.93 L 1551.51 1799.56 L 1562.66 1796.35 C 1557.85 1783.6 1552.65 1770.74 1549.31 1757.52 z"/>
<path transform="translate(0,0)" fill="rgb(254,254,254)" d="M 721.061 1371.17 C 721.882 1374.89 720.495 1379.25 719.647 1382.93 C 718.832 1386.47 718.125 1393.72 719.799 1396.96 C 721.035 1396.01 721.914 1394.07 722.75 1392.74 L 723.636 1393.19 C 726.222 1406.47 718.852 1424.81 711.645 1435.86 C 716.651 1420.95 713.129 1405.22 716.893 1389.13 C 718.882 1383.57 719.551 1376.97 721.061 1371.17 z"/>
<path transform="translate(0,0)" fill="rgb(254,254,254)" d="M 1228.84 599.207 C 1236.7 602.554 1244.99 607.492 1250.02 614.547 C 1252.92 618.615 1255.09 624.066 1254.18 628.918 L 1251.08 628.514 C 1244.03 620.749 1236.44 615.514 1227.4 610.244 L 1228.84 599.207 z"/>
<path transform="translate(0,0)" fill="rgb(254,254,254)" d="M 1891.76 484.611 C 1892.06 484.812 1892.38 484.983 1892.66 485.215 C 1897.33 489.109 1899.42 494.577 1899.95 500.487 C 1900.47 506.352 1899.53 512.781 1895.65 517.309 C 1894.15 516.806 1892.72 516.178 1891.25 515.567 C 1886.21 509.061 1887 497.919 1886.54 489.957 L 1891.76 484.611 z"/>
<path transform="translate(0,0)" fill="rgb(254,254,254)" d="M 1493.67 1473.94 L 1494.74 1475.94 C 1494.7 1485.1 1495.16 1508.16 1490.63 1515.51 L 1488.3 1514.47 C 1485.1 1503.99 1484.15 1492.15 1482.76 1481.28 C 1486.2 1478.59 1490.01 1476.31 1493.67 1473.94 z"/>
<path transform="translate(0,0)" fill="rgb(254,254,254)" d="M 1573.43 1741.84 C 1582 1744.1 1603.96 1792.19 1616.24 1799.58 C 1616.64 1799.82 1617.09 1799.97 1617.51 1800.19 C 1618.43 1800.66 1619.33 1801.18 1620.25 1801.68 C 1615.64 1802.05 1611.01 1802.13 1606.4 1802.3 C 1599.7 1785.57 1576.18 1755.63 1573.43 1741.84 z"/>
<path transform="translate(0,0)" fill="rgb(254,254,254)" d="M 1022.04 812.035 C 1023.7 812.338 1025.4 812.632 1027.01 813.158 C 1029.95 814.126 1032.37 816.509 1033.68 819.283 C 1035.09 822.278 1035.24 825.446 1033.96 828.529 C 1032.16 832.862 1029.83 834.651 1025.53 836.283 C 1024.35 836.156 1023.17 836.076 1022.03 835.721 C 1019.13 834.822 1016.23 832.164 1014.7 829.558 A 12.2304 12.2304 0 0 1 1013.66 819.776 C 1015.03 815.356 1018.15 813.864 1022.04 812.035 z"/>
<path transform="translate(0,0)" fill="rgb(254,254,254)" d="M 975.616 832.732 C 976.72 832.664 977.883 832.54 978.984 832.728 C 981.586 833.172 983.563 834.832 984.985 836.966 C 986.911 839.853 986.692 844.193 985.976 847.412 C 984.778 852.795 982.632 855.61 978.11 858.645 C 974.14 858.079 970.745 856.375 968.274 853.167 C 966.197 850.471 965.658 847.382 966.247 844.075 C 967.378 837.724 970.581 836.055 975.616 832.732 z"/>
<path transform="translate(0,0)" fill="rgb(254,254,254)" d="M 1721.44 1698.59 C 1723.45 1698.58 1725.24 1698.58 1727.2 1699.07 C 1735.93 1701.26 1746.05 1716.26 1750.04 1724.04 C 1753.17 1730.15 1754.42 1733.47 1752.31 1740.1 L 1750.69 1740.6 C 1742.68 1735.63 1727.3 1707.91 1721.44 1698.59 z"/>
<path transform="translate(0,0)" fill="rgb(254,254,254)" d="M 1460.13 1291.47 C 1463.13 1282.7 1467.05 1275.87 1473.93 1269.54 C 1497.19 1248.16 1505.76 1267.03 1514.61 1266.85 C 1515.11 1266.84 1515.6 1266.77 1516.1 1266.73 L 1516.4 1267.64 L 1514.94 1268.95 C 1511.87 1269.12 1510.05 1269.78 1507.3 1271.17 L 1506.39 1271.64 C 1503.99 1268.14 1501.84 1264.06 1498.03 1261.99 C 1491.26 1260.96 1485.1 1263.96 1479.67 1267.83 C 1477.31 1269.51 1474.08 1271.83 1473.35 1274.81 C 1473.28 1275.14 1473.29 1275.48 1473.26 1275.81 C 1475.4 1277.13 1477 1276.77 1479.38 1276.27 C 1484.13 1275.27 1490.76 1268.58 1495.02 1270.95 C 1496.98 1272.04 1497.93 1273.33 1499.34 1275.02 C 1486.27 1278.84 1472.72 1286.06 1460.13 1291.47 z"/>
<path transform="translate(0,0)" fill="rgb(254,254,254)" d="M 1775.9 587.638 C 1782.09 591.559 1784.23 600.785 1790.99 604.99 L 1793.01 604.488 C 1793.35 602.752 1793.59 601.937 1794.47 600.343 L 1796.61 605.593 L 1796.03 606.927 C 1792.42 608.44 1791.32 607.103 1788.01 607.377 C 1784.95 607.629 1783.52 610.136 1781.59 612.219 C 1782.83 614.003 1783 614.391 1783.22 616.544 L 1781.58 617.61 C 1778.42 617.798 1775.88 617.816 1772.98 616.37 C 1769.6 614.678 1766.86 611.986 1765.83 608.273 C 1763.28 599.084 1771.87 595.371 1775.51 588.409 C 1775.65 588.154 1775.77 587.895 1775.9 587.638 z"/>
<path transform="translate(0,0)" fill="rgb(254,254,254)" d="M 1135.16 871.652 C 1138.19 871.647 1141.04 871.606 1143.61 873.512 C 1148.49 877.12 1148.54 885.491 1149.2 890.984 C 1146.04 894.369 1142.94 897.106 1139.14 899.761 C 1137.05 900.063 1135.82 899.958 1133.78 899.38 C 1128.7 894.735 1127.49 888.698 1125.57 882.32 C 1128.44 878.258 1131.58 875.04 1135.16 871.652 z"/>
<path transform="translate(0,0)" fill="rgb(254,254,254)" d="M 1689.37 1333.64 C 1698.88 1328.66 1708.24 1322.74 1718.12 1318.57 C 1718.22 1326.01 1719.54 1335.74 1717.46 1342.84 C 1715.45 1344.57 1715.48 1344.74 1712.86 1344.79 C 1708.4 1340.82 1709.28 1331.66 1705.05 1329.03 C 1702.55 1331.42 1701.78 1336.1 1701.31 1339.45 C 1698.82 1337.25 1697.72 1335.81 1694.43 1335.08 C 1692.62 1336.91 1692.38 1338.44 1692.28 1341.02 C 1692.23 1342.43 1692.47 1343.92 1692.63 1345.32 C 1690.43 1343.37 1688.81 1341.55 1685.75 1341.23 C 1683.26 1343.79 1683.1 1346.95 1681.96 1350.31 C 1679.27 1349.05 1677.71 1347.81 1674.72 1348.19 C 1673.47 1350.36 1673.7 1350.59 1673.69 1352.95 C 1671.65 1352.08 1669.42 1348.26 1668 1346.4 C 1674.69 1341.41 1682.72 1338.66 1689.37 1333.64 z"/>
<path transform="translate(0,0)" fill="rgb(254,254,254)" d="M 1822.08 444.542 C 1822.59 444.794 1823.13 445.002 1823.61 445.298 C 1831.21 449.934 1855.76 533.725 1857.46 545.052 L 1856.44 545.348 C 1852.58 535.625 1818.16 450.356 1818.4 448.437 C 1818.6 446.895 1820.93 445.522 1822.08 444.542 z"/>
<path transform="translate(0,0)" fill="rgb(254,254,254)" d="M 1711.06 1638.34 C 1716.24 1639.53 1722.76 1641.14 1727.12 1644.17 C 1729.85 1646.07 1731.58 1648.58 1732.13 1651.9 C 1733.32 1659.16 1726.32 1668.4 1722.52 1674.21 C 1719.32 1678.65 1715.43 1682.08 1711.39 1685.71 C 1710.28 1669.86 1710.64 1654.21 1711.06 1638.34 z"/>
<path transform="translate(0,0)" fill="rgb(254,254,254)" d="M 1446.92 276.92 C 1450.82 276.743 1453.95 278.582 1456.78 281.084 C 1458.3 284.187 1458.56 286.395 1457.66 289.685 C 1454.7 300.512 1444.72 309.651 1435.15 314.912 C 1431.91 313.525 1427.72 311.255 1425.72 308.268 C 1424.29 306.124 1424.26 303.42 1424.88 301.01 C 1427.37 291.306 1438.64 282.065 1446.92 276.92 z"/>
<path transform="translate(0,0)" fill="rgb(254,254,254)" d="M 1816.82 510.608 A 15.1901 15.1901 0 0 1 1820.29 513.69 C 1834.81 531.121 1861.74 596.695 1859.14 620.078 C 1857.78 620.044 1856.47 619.804 1855.13 619.603 C 1851.85 613.549 1850 605.902 1847.66 599.37 A 2834.81 2834.81 0 0 1 1832.61 557.057 C 1827.97 543.886 1821.87 530.819 1817.84 517.498 C 1817.16 515.258 1816.9 512.938 1816.82 510.608 z"/>
<path transform="translate(0,0)" fill="rgb(254,254,254)" d="M 1089.8 772.842 C 1090.29 773.107 1090.69 773.295 1091.12 773.722 C 1095.58 778.16 1096.37 797.04 1097.29 803.341 C 1089.58 809.733 1080.14 814.646 1071.6 819.868 C 1068.5 808.901 1066.19 797.431 1063.93 786.256 C 1072.92 782.808 1081.38 777.504 1089.8 772.842 z"/>
<path transform="translate(0,0)" fill="rgb(254,254,254)" d="M 1550.87 356.496 A 465.2 465.2 0 0 1 1565.93 370.547 A 711.482 711.482 0 0 0 1564.23 408.585 C 1559.84 404.326 1555.31 400.591 1550.42 396.907 C 1541.65 391.717 1532.25 389.865 1522.26 388.785 C 1532.98 380.576 1547.23 370.14 1550.87 356.496 z"/>
<path transform="translate(0,0)" fill="rgb(254,254,254)" d="M 1348.63 181.988 C 1359.51 186.428 1369.82 195.291 1379.4 202.064 C 1371.01 211.74 1360.3 220.043 1349.73 227.182 L 1347.55 227.729 C 1338.79 224.98 1327.56 211.013 1321.37 204.222 C 1333.17 197.392 1342.7 195.32 1348.63 181.988 z"/>
<path transform="translate(0,0)" fill="rgb(254,254,254)" d="M 1832.64 403.334 C 1833.44 403.426 1834.81 403.559 1835.55 403.762 C 1839.72 404.909 1842.46 411.311 1844.26 415.006 C 1861.73 450.961 1872.17 490.341 1881.51 529.04 C 1883.72 538.166 1887.06 548.273 1887.38 557.641 C 1887.59 563.841 1884.96 570.029 1882.98 575.815 C 1882.25 577.531 1881.96 577.999 1880.56 579.374 C 1878.37 572.732 1878.56 564.317 1877.3 557.323 C 1874.44 541.374 1870.83 525.481 1867.49 509.625 C 1859.73 472.856 1846.73 438.046 1832.64 403.334 z"/>
<path transform="translate(0,0)" fill="rgb(254,254,254)" d="M 1610.19 1289.51 C 1619.71 1290.52 1629.45 1291.06 1638.85 1292.86 C 1655.13 1295.99 1670.94 1301.22 1687.07 1304.95 C 1697.37 1307.34 1708.03 1308.54 1717.88 1312.49 C 1707.13 1312.97 1679.53 1325.8 1672.23 1333.88 C 1671.81 1334.35 1671.39 1334.83 1671.02 1335.34 C 1668.46 1336.39 1666.53 1338.5 1664.5 1340.33 C 1647.03 1322.1 1631.02 1305.25 1610 1291.04 L 1610.19 1289.51 z"/>
<path transform="translate(0,0)" fill="rgb(254,254,254)" d="M 1695.1 1718.61 C 1706.8 1724.95 1717.65 1753.4 1725.5 1765.03 C 1733.25 1760.62 1747.06 1753.09 1751.53 1745.25 C 1751.83 1744.73 1752.06 1744.18 1752.38 1743.68 C 1753.92 1741.24 1754.17 1740.99 1756.82 1740.33 L 1757.49 1741.45 C 1750.22 1753.14 1735.27 1763.77 1723.64 1770.62 C 1707.69 1780.04 1649.64 1803.31 1633.47 1799.25 C 1634.16 1797.58 1636.95 1796.68 1638.56 1795.82 L 1639.02 1794.02 C 1636.29 1784.7 1614.73 1751.21 1607.29 1742.17 L 1606.4 1741.11 C 1610.38 1741.81 1614.31 1742.16 1618.33 1742.48 A 863.048 863.048 0 0 1 1635.24 1768.31 C 1639.45 1775.15 1643.49 1783.56 1648.66 1789.64 C 1650.45 1791.75 1651 1791.56 1653.58 1791.63 C 1655.97 1788.87 1655.26 1785.02 1655.76 1781.4 L 1656.86 1780.79 C 1659.67 1781.83 1659.66 1783.44 1660.87 1786.04 C 1663.92 1787.84 1666.47 1786.66 1669.94 1786.53 L 1671.57 1789.48 C 1675.27 1789.88 1685.19 1782.89 1688.78 1780.75 C 1686.07 1778.66 1683.42 1776.79 1681.39 1774 C 1680.8 1770.88 1680.89 1770.88 1682.39 1768.07 C 1681.92 1764.41 1677.32 1765.79 1675.25 1763.29 C 1667.92 1754.48 1661.99 1743.91 1655.52 1734.39 C 1658.4 1733.93 1662.03 1733.02 1664.91 1733.37 C 1672.69 1734.3 1692.97 1767.38 1699.14 1774.86 L 1699.98 1775.86 C 1707.13 1773.53 1713.55 1770.54 1720.16 1766.99 C 1712.93 1752.88 1697.26 1733.72 1695.1 1718.61 z"/>
<path transform="translate(0,0)" fill="rgb(254,254,254)" d="M 1732.97 1624.11 C 1743.01 1626.61 1750.94 1632.8 1759.2 1638.7 A 2371.78 2371.78 0 0 1 1762.3 1666.34 C 1761.22 1665.28 1760.09 1664.07 1758.85 1663.21 C 1756.46 1661.57 1754.59 1661.01 1751.71 1661.5 C 1741.81 1663.17 1732.29 1680.88 1726.91 1688.76 C 1716.74 1703.64 1685.09 1717.18 1668.1 1723.74 C 1647.71 1731.6 1593.26 1736.18 1570.66 1734.28 C 1557.21 1733.15 1540.72 1729.67 1528.28 1724.25 C 1524.51 1721.74 1521.86 1719.32 1519.97 1715.09 C 1518.72 1712.31 1518.8 1710.92 1519.88 1708.26 C 1524.22 1705 1526.31 1707.85 1530.41 1710.61 C 1557.31 1728.68 1592.83 1728.42 1624.01 1724.52 C 1660.49 1719.95 1708.14 1708.52 1731.69 1677.87 C 1740.44 1666.49 1747.72 1653.38 1745.89 1638.63 C 1741.5 1634.41 1735.5 1629.63 1732.97 1624.11 z"/>
<path transform="translate(0,0)" fill="rgb(254,254,254)" d="M 1423.3 321.694 C 1429.98 324.857 1436.14 332.771 1440.76 338.456 C 1416.25 351.407 1402.91 386.105 1403.34 412.663 C 1403.53 424.102 1406.74 435.708 1405.63 447.133 C 1404.75 456.104 1401.65 462.789 1396.9 470.223 C 1395.13 472.292 1392.66 474.929 1389.93 475.691 C 1387.49 476.371 1386.84 475.924 1384.82 474.785 C 1384.1 473.457 1383.71 472.332 1383.6 470.814 C 1382.56 456.934 1385.77 441.191 1387.31 427.373 C 1389.93 403.817 1389.37 376.09 1399.32 354.208 C 1405.06 341.595 1414.08 331.806 1423.3 321.694 z"/>
<path transform="translate(0,0)" fill="rgb(254,254,254)" d="M 1383.64 209.631 C 1403.2 229.835 1424.56 248.097 1445.06 267.316 C 1435.18 274.9 1426.2 281.37 1420.04 292.511 L 1419.02 294.353 C 1412.03 291.571 1370.56 243.134 1361.44 232.71 C 1369.28 225.32 1376.47 217.662 1383.64 209.631 z"/>
<path transform="translate(0,0)" fill="rgb(254,254,254)" d="M 1233.54 1420.03 C 1263.43 1429.76 1291.39 1443.48 1320.01 1456.24 C 1338.88 1464.65 1358.5 1471.39 1375.7 1483.07 C 1382.13 1479.95 1408.72 1463.81 1413.1 1464.22 C 1413.87 1466.16 1413.7 1467.09 1413.35 1469.05 C 1412.75 1472.43 1413.49 1475.33 1414.23 1478.62 L 1413.42 1480.16 C 1411.27 1479.99 1409.25 1479.69 1407.13 1479.26 L 1405.72 1480.29 C 1406.23 1482.44 1407.04 1483.74 1408.28 1485.55 L 1408.21 1487.61 C 1400.96 1493.3 1392.83 1493.63 1388.25 1502.68 C 1386.36 1502.29 1384.56 1501.81 1382.7 1501.28 C 1370.1 1500.52 1355.56 1489.61 1344.11 1484.07 C 1322.91 1473.8 1301.25 1464.47 1280.09 1454.15 C 1265.68 1447.11 1250.94 1437.99 1235.93 1432.58 C 1235.01 1428.4 1234.15 1424.26 1233.54 1420.03 z"/>
<path transform="translate(0,0)" fill="rgb(82,68,67)" d="M 1382.7 1501.28 C 1382.63 1501.01 1382.59 1500.73 1382.49 1500.47 C 1381.34 1497.4 1378.66 1496.81 1378.38 1493.34 C 1379.97 1491.48 1381.23 1489.76 1383.56 1488.8 C 1385.72 1489.99 1386.31 1491.09 1386.94 1493.5 C 1387.7 1496.41 1388 1499.69 1388.25 1502.68 C 1386.36 1502.29 1384.56 1501.81 1382.7 1501.28 z"/>
<path transform="translate(0,0)" fill="rgb(254,254,254)" d="M 1470.87 296.347 C 1485.49 308.049 1499.76 320.147 1514.3 331.95 C 1519.93 336.525 1526.81 340.308 1531.8 345.477 L 1531.22 347.1 C 1528.48 347.66 1526.34 348.015 1524.31 350.112 C 1516.53 358.152 1508.24 365.542 1500.66 373.827 C 1499.79 374.762 1498.96 375.303 1497.9 376.003 C 1489.29 371.078 1478.54 358.651 1470.83 351.591 C 1461.78 343.306 1452.33 335.613 1442.63 328.109 C 1444.63 327.163 1446.64 326.205 1448.56 325.097 C 1459.16 318.983 1467.75 308.098 1470.87 296.347 z"/>
<path transform="translate(0,0)" fill="rgb(254,254,254)" d="M 1450.74 349.685 C 1456.98 350.899 1465.78 361.442 1470.23 365.836 C 1463.75 376.661 1458.12 387.33 1454.82 399.591 C 1449.33 420.017 1451.54 448.169 1435.75 464.004 C 1432.69 465.677 1430.21 467.278 1426.66 467.416 C 1424.85 466.755 1423.94 466.292 1422.64 464.793 C 1420.66 462.527 1420.15 459.001 1420.11 456.109 C 1420.02 449.361 1422.19 442.519 1422.61 435.737 C 1423.36 423.533 1422.87 411.323 1424.33 399.144 C 1426.85 378.094 1433.97 363.015 1450.74 349.685 z"/>
<path transform="translate(0,0)" fill="rgb(254,254,254)" d="M 684.283 1276.68 C 689.221 1277.66 694.231 1279.23 699.114 1280.5 C 695.209 1297.3 687.402 1311.39 679.929 1326.76 C 672.894 1341.23 666.092 1355.67 660.044 1370.59 C 656.856 1378.45 644.117 1418.41 641.947 1421.56 C 641.509 1422.19 640.672 1422.42 640.035 1422.86 L 636.388 1422.13 C 630.573 1417.87 624.911 1413.36 619.192 1408.97 L 619.638 1407.21 C 622.143 1397.46 625.751 1387.85 629.71 1378.6 C 639.168 1356.51 650.831 1334.83 661.76 1313.41 C 667.097 1302.95 672.345 1290.03 679.352 1280.7 C 680.655 1278.96 682.441 1277.77 684.283 1276.68 z"/>
<path transform="translate(0,0)" fill="rgb(254,254,254)" d="M 577.455 452.321 C 587.217 452.715 594.617 455.195 601.534 462.438 C 611.401 472.77 617.785 493.328 617.147 507.512 C 616.729 516.79 613.268 526.954 606.048 533.14 C 599.21 538.999 589.386 540.633 580.637 539.974 C 572.082 539.331 567.009 535.811 561.669 529.329 A 65.919 65.919 0 0 1 552.612 480.849 C 554.798 470.283 559.268 463.165 568.188 457.165 C 571.796 457.939 575.964 458.602 579.282 460.242 C 585.429 463.278 594.566 472.839 601.376 472.131 L 601.605 470.516 C 596.379 459.853 587.473 457.142 577.455 452.321 z"/>
<path transform="translate(0,0)" fill="rgb(254,254,254)" d="M 1290.94 525.569 C 1292.1 526.149 1291.72 525.815 1292.55 526.774 C 1306.85 543.316 1317.63 546.821 1334.06 559.078 C 1315.08 583.617 1295.98 602.753 1269.98 619.651 L 1262.54 623.809 C 1254.11 604.409 1247.56 600.778 1229.49 591.719 C 1247.82 568.218 1271.1 547.93 1290.94 525.569 z"/>
<path transform="translate(0,0)" fill="rgb(254,254,254)" d="M 1371.47 434.795 C 1373.97 437.431 1370.52 471.187 1371.5 478.005 C 1372.04 481.757 1373.45 484.987 1376.75 487.073 C 1381.59 490.127 1390.53 488.829 1395.65 487.301 C 1403.05 485.095 1407.81 480.541 1411.39 473.841 C 1412.12 472.468 1411.55 473.01 1412.98 472.31 L 1413.42 474.677 C 1407.62 490.949 1363.31 528.704 1349.22 542.639 L 1339.15 553.655 C 1323.28 543.779 1308.73 534.753 1295.86 520.978 C 1308.84 503.795 1325.53 488.732 1339.92 472.682 C 1350.9 460.443 1360.26 446.847 1371.47 434.795 z"/>
<path transform="translate(0,0)" fill="rgb(254,254,254)" d="M 942.01 1451.09 L 942.678 1452.04 C 939.611 1467.1 941.106 1483.73 940.148 1499.1 C 939.399 1511.11 936.041 1524.82 937.424 1536.72 C 937.755 1539.58 937.896 1541.2 940.16 1543.03 C 942.642 1543.02 943.081 1542.75 945.254 1541.5 C 948.73 1535.52 947.348 1509.59 948.005 1501.23 C 957.742 1502.82 970.79 1506.15 976.823 1514.56 C 979.695 1518.56 980.535 1523.27 979.664 1528.09 C 977.52 1539.93 967.27 1549.57 957.708 1556.09 C 946.138 1563.98 931.003 1572.79 917.135 1575.72 C 896.806 1580 841.728 1572.09 820.282 1567.94 C 816.098 1566.98 812.012 1565.63 807.911 1564.37 C 814.121 1559.48 820.958 1555.74 826.136 1549.63 C 822.508 1546.75 818.743 1544.02 815.049 1541.22 C 810.144 1548.31 803.798 1553.53 797.099 1558.83 L 792.504 1546.63 C 803.676 1536.76 818.244 1527.95 831.72 1521.75 A 75.844 75.844 0 0 0 836.769 1532.32 C 839.38 1536.83 850.639 1555.85 856.058 1556.56 C 864.809 1557.71 889.83 1541.35 898.349 1535.99 C 902.261 1533.53 909.136 1529.56 911.258 1525.36 C 914.387 1519.16 911.475 1483.69 914.528 1472.15 C 916.88 1463.26 934.391 1455.59 942.01 1451.09 z"/>
<path transform="translate(0,0)" fill="rgb(254,254,254)" d="M 504.699 1253.1 C 510.959 1252.81 516.495 1252.97 522.149 1255.95 C 537.6 1264.08 548.54 1286.18 553.744 1302.16 C 559.273 1319.14 558.953 1336.72 550.736 1352.79 C 543.87 1366.21 533.145 1374.31 519.056 1378.79 C 512.192 1380.29 505.519 1380.09 498.971 1377.37 C 485.309 1371.68 475.941 1356.22 470.851 1342.87 C 463.343 1323.18 465.377 1300.55 474.108 1281.57 C 480.659 1267.32 490.031 1258.58 504.699 1253.1 z"/>
<path transform="translate(0,0)" fill="rgb(35,31,32)" d="M 510.312 1275.07 C 511.153 1275.03 511.994 1274.98 512.835 1274.99 C 519.494 1275.08 525.111 1277.3 529.617 1282.26 C 537.189 1290.61 538.726 1303.46 538.277 1314.33 C 537.744 1327.24 534.964 1341.56 525.062 1350.55 C 516.406 1352.33 512.475 1353.1 506.312 1359.91 L 503.004 1352.48 C 502.578 1351.37 502.121 1350.29 501.67 1349.19 C 497.269 1338.49 483.414 1328.32 482.491 1316.69 C 482.32 1314.53 482.075 1315.32 483.244 1313.86 C 488.001 1315.55 491.075 1320.64 495.183 1323.5 C 496.993 1324.76 497.022 1324.97 499.252 1324.5 C 500.966 1320.13 492.626 1301.06 497.669 1287.69 C 500.249 1280.85 503.844 1278.07 510.312 1275.07 z"/>
<path transform="translate(0,0)" fill="rgb(254,254,254)" d="M 510.387 1282.15 A 132.803 132.803 0 0 1 513.995 1282.58 C 519.166 1283.26 522.222 1284.53 525.348 1288.87 C 532.76 1299.17 531.7 1313.4 529.404 1325.24 C 528.484 1329.98 527.097 1339.46 523.028 1342.23 C 522.314 1338.76 522.315 1337.02 519.947 1334.31 C 517.277 1333.33 515.883 1333.34 513.202 1333.87 L 503.55 1335.74 L 508.546 1324.93 C 508.666 1322.1 508.749 1320.11 510.146 1317.54 C 514.241 1318.73 515.963 1325.28 519.438 1327.99 C 521.661 1329.73 522.385 1329.63 524.969 1329.33 L 525.735 1327.59 C 523.932 1321.76 520.654 1316.28 516.918 1311.47 C 514.574 1308.45 512.616 1306.15 508.721 1305.67 L 506.855 1307.62 C 506.466 1309.56 506.095 1311.09 505.173 1312.84 L 503.331 1311.99 C 501.584 1308.7 501.657 1306.26 502.006 1302.68 C 502.81 1294.43 503.717 1287.7 510.387 1282.15 z"/>
<path transform="translate(0,0)" fill="rgb(254,254,254)" d="M 1523.8 1277.2 C 1525.61 1276.88 1527.36 1276.8 1529.2 1276.85 C 1546.26 1277.36 1557.5 1287.54 1568.59 1299.14 C 1559.67 1295.27 1550.71 1291.31 1540.93 1290.28 C 1531.46 1289.28 1521.02 1291.42 1513.58 1297.63 C 1506.41 1303.63 1504.36 1310.2 1503.46 1319.05 C 1497.14 1318.87 1491.05 1318.79 1484.86 1320.33 C 1477.4 1322.19 1469.4 1325.41 1465.43 1332.43 C 1457.24 1346.9 1473.33 1365.48 1478.93 1378.45 C 1483.01 1387.92 1485.67 1397.55 1488.12 1407.55 C 1481.46 1410.01 1476.16 1412.6 1470.81 1417.35 C 1470.18 1416.63 1469.56 1415.92 1468.91 1415.22 C 1461.13 1406.92 1450.6 1397.44 1438.55 1397.46 C 1433.16 1397.47 1428.25 1399.78 1424.47 1403.58 C 1412.21 1415.88 1413.76 1436.67 1413.62 1452.7 C 1399.75 1458.48 1386.88 1465.66 1373.28 1471.88 C 1367.38 1470.05 1361.94 1467.4 1356.38 1464.75 C 1321.48 1449.41 1288.38 1430 1253.47 1414.87 C 1276.84 1402.92 1298.9 1387.54 1321.86 1374.66 A 2797.45 2797.45 0 0 1 1450.99 1307.95 C 1472.95 1297.21 1500.28 1282.93 1523.8 1277.2 z"/>
<path transform="translate(0,0)" fill="rgb(254,254,254)" d="M 1581.56 229.421 C 1599.87 227.653 1620.98 229.74 1639.01 232.745 C 1722.19 246.602 1777.67 319.641 1823.31 384.345 C 1826.56 388.949 1829.14 392.495 1828.13 398.398 C 1826.96 405.28 1823.59 412.008 1821.16 418.551 C 1816.47 431.21 1811.87 443.927 1808.56 457.024 C 1799.69 492.115 1796.31 528.269 1790.2 563.893 C 1762.23 549.095 1734.03 535.934 1703.17 528.327 C 1616.75 507.021 1578.04 521.539 1514.22 443.635 C 1509.68 437.873 1503.09 430.862 1502.27 423.322 C 1501.89 419.755 1502.86 416.527 1505.14 413.758 C 1509.65 408.275 1517.66 405.805 1524.49 405.235 C 1544.14 403.594 1556.43 420.596 1570.19 431.706 C 1575.29 435.817 1583.63 442.195 1590.72 440.385 C 1593.39 439.703 1593.67 438.405 1594.7 436.161 C 1594.38 426.687 1587.81 422.869 1583.66 415.143 C 1575.15 399.33 1581.99 375.918 1586.96 360.071 C 1584.93 357.145 1582.74 354.56 1580 352.263 C 1562.21 337.332 1541.44 323.151 1517.31 325.658 C 1510.07 315.833 1502.69 309.148 1492.93 301.842 C 1504.77 298.612 1537.03 294.563 1545.11 290.251 C 1547.9 288.759 1549.31 287.276 1550.27 284.289 L 1549.2 282.381 C 1530.76 270.669 1500.58 288.044 1480.92 288.648 C 1472.05 288.921 1463.05 275.351 1456.67 269.594 C 1475.7 262.624 1497.12 258.133 1517.29 256.949 C 1537.23 255.778 1573.94 256.473 1589.8 270.545 C 1589.33 272.271 1589.2 273.249 1589.54 275.011 C 1593.9 280.97 1601.58 290.941 1609.1 292.357 C 1611.54 290.93 1611.7 290.711 1612.95 288.162 C 1612.86 281.784 1607.2 272.567 1603.68 267.252 C 1591.18 248.401 1567.34 246.314 1547.07 241.846 C 1543.58 241.077 1540.45 240.249 1538.43 237.097 L 1539.12 235.859 A 350.983 350.983 0 0 1 1581.56 229.421 z"/>
<path transform="translate(0,0)" fill="rgb(35,31,32)" d="M 1638.19 260.784 C 1639.09 260.79 1639.99 260.784 1640.89 260.858 C 1647.75 261.43 1655.54 267.128 1659.69 272.402 C 1662.4 275.856 1663.16 277.687 1662.55 282.077 C 1661.29 282.171 1660.28 282.288 1658.99 282.185 C 1653.09 281.719 1643.36 272.805 1639.69 268.275 C 1637.46 265.517 1637.88 264.06 1638.19 260.784 z"/>
<path transform="translate(0,0)" fill="rgb(254,254,254)" d="M 642.358 379.358 C 670.129 375.529 705.45 386.44 729.109 400.583 C 765.602 422.399 796.631 459.451 806.87 501.256 C 817.542 544.83 812.62 593.489 789.13 632.179 C 776.208 628.898 761.997 624.946 748.693 624.067 C 730.456 594.592 715.322 606.56 697.279 590.104 C 688.124 581.754 686.095 571.062 679.231 561.513 C 679.065 561.282 678.891 561.058 678.721 560.831 L 683 549.311 C 687.879 552.459 692.98 555.815 698.253 558.253 C 704.999 561.372 716.136 565.184 723.279 562.548 C 725.114 560.514 725.005 560.124 725.336 557.36 C 722.852 551.465 704.354 551.657 697.731 548.404 C 693.829 546.487 690.517 543.013 687.367 540.063 C 686.492 534.677 685.529 529.153 684.001 523.909 C 681.305 514.662 675.368 505.931 666.62 501.523 C 654.763 495.55 642.681 499.045 630.845 502.791 C 629.704 494.684 627.744 486.191 625.047 478.456 C 620.074 464.196 611.152 452.678 597.114 446.358 C 588.215 442.352 578.628 441.882 569.54 445.576 C 558.995 449.862 549.567 459.034 545.27 469.594 C 538.505 486.218 539.788 511.562 547.057 527.729 C 551.433 537.461 558.792 545.45 568.996 549.061 C 581.41 553.455 596.967 551.493 608.618 545.614 C 624.035 537.834 625.859 527.072 630.768 512.004 C 641.604 511.927 654.089 505.998 663.98 512.535 C 668.726 515.672 671.14 520.754 672.218 526.19 C 674.572 538.058 671.59 547.823 665.219 557.64 C 671.032 572.996 679.71 590.938 691.817 602.156 C 704.962 611.154 722.52 609.7 732.9 623.087 C 743.748 637.079 744.309 658.289 744.957 675.221 C 745.185 681.189 745.005 688.248 746.9 693.941 C 752.021 709.331 765.995 721.037 763.227 739.173 C 762.145 746.259 757.462 751.647 751.72 755.604 C 744.768 760.396 735.616 761.414 727.485 759.565 C 708.197 755.18 706.712 735.851 697.421 721.715 C 692.734 714.584 686.324 708.81 677.658 707.417 C 671.999 706.507 656.761 708.494 652.448 712.351 C 649.067 715.375 650.396 728.156 650.173 732.819 C 649.96 737.266 649.104 743.01 645.182 745.805 C 642.145 747.97 638.273 747.718 634.794 747.166 C 628.915 746.232 624.096 741.875 620.932 736.98 C 610.772 721.265 619.298 705.165 614.241 688.479 C 610.372 675.714 597.179 663.311 598.458 649.951 C 599.869 635.212 611.857 624.872 614.626 610.577 C 617.746 594.465 607.585 571.984 598.117 559.248 C 596.434 556.985 595.295 556.465 592.592 556.1 L 591.215 557.874 C 590.265 569.081 601.968 592.604 605.553 604.829 C 595.805 594.412 584.001 586.537 571.384 579.997 C 571.116 580.035 570.847 580.07 570.579 580.111 C 561.068 581.557 551.578 584.639 542.41 587.539 C 518.001 595.259 498.229 603.645 482.571 624.792 C 473.273 608.386 469.671 589.085 466.718 570.638 C 460.152 529.625 469.959 489.948 494.534 456.424 C 514.738 428.861 557.693 400.586 590.137 390.058 C 607.098 384.555 624.782 382.006 642.358 379.358 z"/>
<path transform="translate(0,0)" fill="rgb(35,31,32)" d="M 636.81 522.051 C 638.925 521.834 641.5 521.522 643.575 522.015 C 645.828 522.551 647.682 524.726 648.46 526.818 C 649.362 529.242 648.817 531.802 647.741 534.058 C 646.178 537.336 644.236 538.214 641.01 539.543 C 640.493 539.58 639.977 539.636 639.458 539.654 C 635.723 539.78 634.014 539.124 631.298 536.591 C 630.548 534.936 629.978 533.703 630.212 531.82 C 630.755 527.439 633.626 524.751 636.81 522.051 z"/>
<path transform="translate(0,0)" fill="rgb(35,31,32)" d="M 733.1 723.023 C 735.513 722.821 737.971 722.61 740.387 722.886 C 743.713 723.266 746.266 724.943 748.207 727.627 C 750.063 730.193 750.544 733.308 749.804 736.354 C 748.474 741.832 744.733 744.427 740.106 747.106 C 738.275 747.251 736.405 747.414 734.576 747.118 C 730.908 746.524 727.297 744.024 725.276 740.92 A 11.2479 11.2479 0 0 1 723.919 731.619 C 725.323 726.797 728.925 725.102 733.1 723.023 z"/>
<path transform="translate(0,0)" fill="rgb(254,254,254)" d="M 734.45 728.939 C 737.939 729.168 740.828 729.464 743.303 732.04 C 742.613 735.408 741.212 736.208 738.833 738.612 L 735.525 738.876 C 732.81 737.564 732.567 737.632 731.258 734.959 C 731.691 731.65 732.292 731.341 734.45 728.939 z"/>
<path transform="translate(0,0)" fill="rgb(35,31,32)" d="M 722.982 656.873 C 724.214 656.904 725.449 656.926 726.679 657.019 C 730.517 657.308 734.073 659.669 736.356 662.706 C 739.36 666.701 740.085 671.692 739.431 676.552 C 738.475 683.648 735.331 687.707 729.793 691.963 C 727.751 692.083 725.648 692.294 723.634 691.789 C 720.43 690.985 717.798 688.654 715.997 685.963 C 712.599 680.887 712.115 674.4 713.541 668.576 C 714.969 662.746 717.965 659.862 722.982 656.873 z"/>
<path transform="translate(0,0)" fill="rgb(254,254,254)" d="M 726.22 666.5 C 728.13 667.576 729.361 668.803 729.958 671.006 C 731.054 675.053 729.629 678.967 727.94 682.596 L 725.664 680.626 C 723.715 675.349 724.426 671.726 726.22 666.5 z"/>
<path transform="translate(0,0)" fill="rgb(35,31,32)" d="M 653.312 627.213 C 656.433 627.216 659.915 627.302 662.847 628.457 A 13.5105 13.5105 0 0 1 670.609 636.314 C 672.232 640.74 671.496 645.541 669.369 649.66 C 666.423 655.366 661.712 658.044 655.805 659.964 C 652.842 659.999 649.506 659.915 646.809 658.567 C 642.276 656.303 638.577 651.659 637.293 646.779 A 16.4066 16.4066 0 0 1 639.412 633.479 C 642.604 628.707 648.148 628.212 653.312 627.213 z"/>
<path transform="translate(0,0)" fill="rgb(254,254,254)" d="M 647.809 638.872 C 651.369 638.875 654.252 638.592 657.337 640.676 C 658.58 643.734 658.236 644.4 657.635 647.545 C 654.148 648.223 653.182 648.18 650.177 646.484 C 648.521 643.822 648.163 641.892 647.809 638.872 z"/>
<path transform="translate(0,0)" fill="rgb(254,254,254)" d="M 1592.94 1295.19 C 1596.12 1295.26 1599.13 1295.8 1602.01 1297.19 C 1614.91 1303.41 1626.92 1315.34 1636.64 1325.63 C 1652.82 1342.77 1665.52 1360.97 1674.57 1382.81 C 1688.29 1415.92 1691.76 1453.51 1695.74 1488.78 C 1697.48 1504.16 1699.69 1519.72 1700.33 1535.19 C 1701.64 1566.37 1700.77 1597.52 1701.38 1628.7 C 1701.78 1649.3 1697.07 1672.85 1704.08 1692.4 C 1693.03 1698.49 1680.98 1700.17 1668.78 1702.73 C 1633.94 1710.05 1600.54 1715.64 1564.78 1712.81 C 1560.47 1696.75 1557.89 1681.07 1554.83 1664.79 C 1550.97 1644.28 1533.44 1644.07 1517.14 1632.64 C 1479.66 1606.36 1438.09 1551.07 1430.2 1504.96 C 1427.39 1488.49 1421.71 1426.19 1431.57 1413.58 C 1433.3 1411.36 1435.68 1409.87 1438.53 1409.59 C 1443.9 1409.06 1449.63 1412.33 1453.7 1415.51 C 1459.2 1419.81 1463.68 1425.69 1466.11 1432.25 C 1471.18 1445.95 1470.79 1480.65 1472.55 1497.53 A 88.8569 88.8569 0 0 0 1476.35 1513.31 C 1478.43 1519.45 1482.06 1526.66 1488.34 1529.41 C 1491.94 1530.98 1495.73 1530.88 1499.3 1529.31 C 1505.33 1526.66 1509.13 1520.68 1511.43 1514.76 C 1524.8 1480.3 1507.9 1411.56 1493.38 1377.92 C 1488.54 1366.71 1479.93 1357.04 1475.54 1345.8 C 1474.83 1343.98 1474.63 1342.28 1475.65 1340.57 C 1479.41 1334.24 1488.82 1332.2 1495.53 1330.74 C 1543.79 1346.7 1557.79 1388.94 1569.66 1434.31 C 1571.14 1439.97 1572.68 1450.58 1577.57 1454.28 C 1579.88 1456.02 1580.64 1455.71 1583.35 1455.42 C 1585.42 1453.94 1586.16 1452.91 1586.79 1450.41 C 1590.36 1436.34 1568.41 1379.49 1561.15 1365.91 C 1556.85 1357.87 1551.23 1350.06 1545.07 1343.33 C 1538.47 1336.11 1516.69 1322.16 1514.69 1318.66 C 1513.9 1317.28 1513.92 1316.69 1514.49 1315.16 C 1516.07 1310.86 1522.61 1306.31 1526.53 1304.38 C 1534.61 1300.4 1543.19 1300.66 1551.54 1303.67 C 1587.33 1316.58 1608.51 1359.65 1617.36 1394.31 C 1620.27 1405.72 1621.19 1420.56 1626.43 1430.89 C 1627.91 1433.82 1629.12 1434.58 1632.21 1435.48 C 1633.75 1435.03 1634.67 1435.14 1635.61 1433.71 C 1637.89 1430.25 1637.25 1425.22 1636.64 1421.34 C 1634.72 1409.2 1631.38 1397.19 1628.21 1385.34 C 1618.52 1349.19 1607.31 1325.8 1576.64 1303.41 C 1581.92 1299.11 1586.22 1296.61 1592.94 1295.19 z"/>
<path transform="translate(0,0)" fill="rgb(254,254,254)" d="M 368.434 1409.41 C 370.687 1409.14 369.644 1408.87 371.525 1410.34 C 373.997 1425.88 375.39 1440.97 376.139 1456.68 C 376.925 1473.17 381.243 1488.33 384.365 1504.43 C 387.077 1518.41 388.977 1532.55 391.673 1546.54 C 394.696 1562.23 398.592 1577.74 401.833 1593.38 C 406.794 1617.32 409.706 1641.96 415.327 1665.72 C 416.243 1669.59 417.342 1673.89 419.483 1677.26 C 426.126 1687.72 446.887 1696.39 457.383 1705.94 C 453.289 1710.44 448.464 1714.3 443.717 1718.09 C 411.705 1743.59 337.263 1794.89 299.138 1805.04 C 278.876 1810.44 256.933 1810.12 236.262 1807.71 C 218.007 1803.97 202.226 1798.5 187.455 1786.77 C 165.074 1769.01 148.208 1738.38 145.003 1710.02 C 138.308 1650.79 174.519 1557.72 211.345 1511.33 C 249.39 1463.4 305.946 1416.51 368.434 1409.41 z"/>
<path transform="translate(0,0)" fill="rgb(254,254,254)" d="M 1209.02 1282.28 C 1229.58 1294.14 1252.88 1301.09 1274.92 1309.62 C 1288.33 1314.81 1301.32 1321.04 1314.66 1326.39 C 1329.52 1332.35 1344.78 1337.44 1359.76 1343.11 C 1338.15 1352.55 1317.42 1366.16 1296.77 1377.68 C 1276.73 1388.87 1255.96 1398.89 1236.1 1410.32 C 1233.23 1411.97 1230.17 1413.48 1228.18 1416.19 C 1227.28 1421.47 1230.32 1426.5 1229.72 1431.02 C 1228.82 1437.92 1224.76 1442.05 1226.97 1449.68 C 1227.89 1452.84 1229.9 1456.01 1232.54 1458 C 1238.98 1462.88 1248.38 1465.44 1255.59 1469.37 C 1264.58 1474.27 1272.47 1481.12 1281.46 1486.03 C 1292.66 1492.14 1304.94 1496.39 1316.33 1502.28 C 1305.22 1508.1 1293.98 1513.85 1283.28 1520.4 C 1272.98 1526.72 1263.05 1533.69 1252.54 1539.67 C 1233.4 1550.58 1213.37 1560.07 1194.6 1571.64 C 1171.47 1585.92 1149.59 1602.13 1126.12 1615.92 C 1104.04 1628.89 1080.77 1639.67 1058.71 1652.76 C 1025.92 1672.22 994.201 1693.13 961.916 1713.36 C 939.909 1727.16 917.159 1739.95 895.565 1754.37 C 871.501 1770.45 848.523 1787.77 824.756 1804.18 C 796.875 1823.43 766.464 1839.54 740.455 1861.43 C 720.87 1844.1 686.211 1831.1 662.42 1818.5 C 647.367 1810.79 632.868 1802.02 618.069 1793.84 C 578.996 1772.24 537.971 1750.19 496.019 1734.9 C 503.838 1728.41 516.906 1723.07 522.42 1714.62 C 522.118 1713.17 521.894 1711.81 521.716 1710.33 C 534.519 1701 550.527 1694.74 564.085 1686.12 C 581.146 1675.28 596.96 1662.37 614.252 1651.91 C 671.18 1617.48 730.708 1586.25 784.917 1547.58 C 781.816 1559.78 774.835 1578.35 780.79 1590.12 C 783.951 1596.36 791.354 1599.18 797.643 1601.15 C 839.146 1614.14 881.387 1613.26 923.177 1602.49 C 935.505 1599.31 947.717 1595.72 959.016 1589.74 C 974.6 1581.49 986.179 1569.84 991.412 1552.64 C 994.778 1541.57 996.004 1528.46 990.068 1518.09 C 981.29 1502.76 965.86 1495.09 949.603 1490.29 C 949.699 1476.91 951.226 1460.46 946.593 1447.8 A 3623.31 3623.31 0 0 1 1155.13 1326.82 C 1172.89 1317.07 1189.53 1303.54 1207.83 1295.21 C 1207.99 1290.89 1208.56 1286.58 1209.02 1282.28 z"/>
<path transform="translate(0,0)" fill="rgb(254,254,254)" d="M 1106.64 709.405 C 1112.66 709.744 1116.45 711.172 1121.72 714.147 C 1129.25 728.869 1128.08 746.119 1130.53 762.077 C 1133.69 782.688 1137.16 803.507 1141.41 823.924 C 1128.77 831.249 1116.09 838.905 1104.2 847.393 C 1099.28 850.899 1094.93 853.931 1094.01 860.266 C 1091.54 877.398 1100.04 913.283 1109.68 927.541 C 1113.28 932.864 1119.83 934.302 1123.43 938.915 C 1127.16 959.036 1125.86 980.997 1127.88 1001.52 L 1144.78 1160.56 C 1146.22 1173.57 1147.55 1186.63 1149.47 1199.6 C 1151.48 1213.23 1158.15 1235.38 1155.97 1248.41 C 1151.73 1252.51 1108.74 1273.66 1099.38 1279.26 C 1065.15 1299.75 1034.15 1326.5 998.696 1344.94 C 995.544 1328.77 990.882 1313 987.069 1296.99 L 965.143 1201.13 C 954.052 1151.72 944.999 1098.73 936.311 1048.78 C 933.149 1030.59 918.006 930.291 908.955 922.76 C 907.897 921.88 906.824 922.298 905.554 922.37 L 904.261 923.895 C 903.869 932.448 909.298 942.868 911.278 951.295 C 913.921 962.54 915.932 973.968 918.064 985.32 C 931.151 1055.01 942.059 1125.16 956.341 1194.63 A 3577.64 3577.64 0 0 0 992.875 1348.79 C 966.321 1364.53 938.764 1378.35 912.022 1393.73 L 831.331 1440.11 C 819.065 1447.27 807.274 1455.15 794.849 1462.06 C 779.549 1410.65 762.755 1359.69 747.898 1308.15 C 742.344 1288.88 732.954 1240.5 724.814 1225.75 C 723.499 1223.36 721.066 1221.8 718.432 1221.3 C 697.753 1217.38 596.838 1289.58 576.158 1305.18 C 573.992 1305.23 572.074 1305.45 569.953 1305.89 C 567.09 1308.52 565.697 1313.29 564.178 1316.84 C 561.743 1308.94 559.433 1300.92 556.447 1293.2 C 550.437 1277.68 537.617 1255.03 521.78 1248.5 C 513.227 1244.97 503.998 1245.2 495.533 1248.86 C 481.943 1254.73 471.654 1268.84 466.172 1282.21 C 457.933 1302.31 456.147 1326.11 464.657 1346.36 C 470.728 1360.82 482.314 1379.55 497.599 1385.32 C 509.675 1389.87 521.531 1386.37 532.829 1381.62 C 532.99 1387.97 533.215 1396.48 537.349 1401.7 C 538.806 1403.53 539.32 1403.44 541.5 1403.68 C 544.259 1401.95 546.56 1399.81 547.177 1396.45 C 548.314 1390.27 541.663 1386.93 539.646 1381.97 C 537.878 1377.63 542.684 1374.43 545.425 1371.81 C 557.971 1359.82 561.857 1344.24 565.652 1327.92 C 569.735 1340.52 573.236 1353.34 577.625 1365.84 C 584.952 1386.69 593.27 1406.8 598.657 1428.31 C 602.321 1442.94 604.237 1457.88 607.255 1472.64 C 610.099 1486.55 613.946 1500.31 617.224 1514.14 C 620.484 1527.89 623.237 1541.72 629.172 1554.63 C 601.058 1571.67 571.748 1586.34 543.227 1602.63 C 529.739 1610.33 517.409 1619.86 503.925 1627.54 C 491.887 1602.85 491.776 1582.06 485.968 1556.06 C 480.137 1529.96 472.438 1504.02 467.595 1477.72 C 456.779 1418.99 450.379 1359.24 441.027 1300.27 C 437.761 1279.66 432.817 1259.3 428.978 1238.8 C 424.866 1216.84 405.096 1122.37 415.996 1107.98 C 424.037 1097.37 493.995 1065.88 509.931 1057.89 C 534.981 1045.33 560.161 1032.61 584.462 1018.66 C 613.888 1001.77 642.405 983.52 672.698 968.121 C 712.114 948.085 752.822 930.321 792.668 911.119 C 827.009 894.569 860.633 877.248 895.419 861.555 C 905.38 857.062 917.896 849.673 928.73 848.065 C 934.111 851.873 933.705 876.078 939.406 884.658 C 941.633 888.01 945.094 890.483 949.161 890.981 C 957.988 892.063 1045.85 843.293 1060.19 835.697 C 1076.38 827.119 1093.11 820.986 1107.88 809.7 C 1111.59 799.568 1105.72 776.212 1102.26 765.958 C 1101.14 762.669 1099.89 760.509 1096.52 759.049 C 1088.62 755.623 1074.36 762.524 1067.09 765.663 C 1031.91 780.861 999.157 802.377 965.048 819.876 C 956.922 824.046 948.439 827.456 940.321 831.615 C 930.302 836.749 920.812 842.701 910.589 847.49 C 878.619 862.467 846.292 876.09 814.586 891.775 C 765.238 916.458 714.795 939.076 665.729 964.271 C 635.817 979.631 608.14 998.601 578.592 1014.47 C 555.466 1026.89 532.21 1039.35 508.735 1051.09 C 483.213 1063.87 457.426 1075.84 432.188 1089.21 C 421.872 1094.68 410.123 1099.71 406.711 1111.86 C 400.927 1132.45 411.988 1200.1 416.814 1223.48 C 422.182 1249.49 429.527 1274.73 433.749 1301.02 C 437.293 1323.08 437.001 1345.62 440.6 1367.71 C 443.303 1384.3 447.202 1400.7 450.076 1417.26 C 454.194 1441 457.275 1465.05 462.213 1488.64 C 466.965 1511.34 473.691 1533.64 478.462 1556.33 C 483.252 1579.13 483.06 1606.68 495.374 1626.98 C 497.609 1630.66 500.882 1634.67 505.472 1635.18 C 507.047 1635.35 507.867 1635.13 509.401 1634.77 C 512.366 1634.06 557.077 1603.95 566.027 1598.73 C 583.127 1588.77 600.702 1579.66 617.974 1570 L 733.629 1506.16 A 2572.93 2572.93 0 0 0 845.066 1443.38 C 864.566 1431.86 883.614 1419.39 903.235 1408.12 C 936.407 1389.08 971.057 1372.72 1003.74 1352.76 C 1037.35 1332.25 1068.88 1308.18 1102.42 1287.63 C 1113.11 1281.08 1124.62 1275.17 1135.85 1269.6 C 1144.12 1265.5 1156.34 1261.85 1162.89 1255.47 C 1165.64 1252.8 1164.17 1241.26 1163.66 1237.28 L 1142.13 1059.24 C 1137.5 1017.84 1132.34 977.553 1132.06 935.811 L 1154.31 927.878 A 3167.76 3167.76 0 0 0 1171.92 1068.87 C 1174.39 1085.64 1177.77 1102.23 1180.51 1118.95 C 1184.33 1142.32 1187.35 1165.99 1190.55 1189.47 C 1194.94 1221.68 1203.41 1254.39 1201.98 1287 C 1151.14 1320.78 1098.04 1350.77 1045.4 1381.64 C 1015.74 1399.04 986.869 1417.65 957.039 1434.86 C 948.219 1439.94 938.926 1443.84 930.034 1448.71 C 918.802 1454.86 907.822 1461.66 896.848 1468.26 C 871.824 1483.32 847.41 1499.39 822.578 1514.76 C 807.17 1524.3 791.261 1533.04 776 1542.8 C 747.63 1560.94 720.442 1580.86 691.907 1598.77 C 664.036 1616.27 635.025 1631.59 606.957 1648.68 C 579.336 1665.49 526.386 1703.82 495.803 1708.71 C 489.989 1709.64 485.622 1708.87 480.946 1705.14 C 474.261 1699.82 469.676 1691.07 466.558 1683.2 C 460.52 1667.96 457.82 1650.89 454.218 1634.92 C 449.643 1614.62 444.344 1594.14 441.436 1573.53 C 438.712 1554.23 437.924 1534.98 436.132 1515.61 C 434.899 1502.29 432.525 1489.06 430.867 1475.79 C 428.882 1459.91 427.52 1443.95 425.186 1428.11 C 422.042 1406.78 417.16 1386 413.456 1364.81 C 407.545 1331 402.384 1296.65 397.633 1262.67 C 393.832 1235.48 392.144 1208.3 389.574 1181.02 C 385.791 1140.89 373.697 1101.26 400.608 1065.92 C 424.361 1034.73 550.525 974.002 590.431 953.389 C 621.73 937.222 652.389 919.752 683.788 903.726 C 720.354 885.064 758.208 867.789 795.425 850.414 C 826.485 835.914 858.609 823.689 889.449 808.791 C 939.295 784.713 988.026 759.042 1038.36 735.862 C 1060.01 725.893 1082.82 712.515 1106.64 709.405 z"/>
<path transform="translate(0,0)" fill="rgb(35,31,32)" d="M 1066.63 1156.95 L 1071.63 1157.65 L 1072.69 1159.35 C 1069.35 1165.31 1014.37 1198.04 1003.77 1206.2 L 1002.65 1207.07 C 1001.8 1207.48 1000.84 1207.31 999.909 1207.31 L 998.105 1205.42 L 998.185 1202.8 C 1004.7 1193.88 1054.13 1164.16 1066.63 1156.95 z"/>
<path transform="translate(0,0)" fill="rgb(35,31,32)" d="M 859.565 1272.8 C 861.102 1274.65 860.78 1275.2 860.989 1277.51 C 854.746 1293.54 794.839 1318.78 777.128 1328.19 C 776.105 1326.54 775.561 1325.35 775.18 1323.44 C 777.782 1318.31 828.225 1293.98 837.472 1288.39 C 845.213 1283.71 852.387 1278.29 859.565 1272.8 z"/>
<path transform="translate(0,0)" fill="rgb(35,31,32)" d="M 1068.49 924.767 C 1069.68 925.108 1070.26 925.671 1071.21 926.434 L 1071.38 928.615 C 1068.09 933.472 983.129 979.714 973.219 984.106 L 971.876 983.765 C 970.091 982.066 970.04 981.934 969.574 979.51 C 969.979 978.869 970.21 978.077 970.788 977.585 C 974.964 974.025 986.39 969.866 991.697 966.958 C 1017.33 952.913 1041.96 937.144 1068.49 924.767 z"/>
<path transform="translate(0,0)" fill="rgb(35,31,32)" d="M 1097.4 988.759 C 1099.12 989.35 1099 989.608 1100.02 991.01 L 1099.52 993.502 C 1088.87 1005.47 1019.35 1036.93 1001.38 1045.13 C 1000.39 1045.06 1000.89 1045.17 999.703 1044.63 C 998.173 1043.94 998.326 1043.06 997.765 1041.56 C 998.089 1040.81 998.184 1039.91 998.738 1039.31 C 1002.33 1035.42 1038.85 1019.81 1046.51 1015.99 C 1063.69 1007.45 1079.81 996.365 1097.4 988.759 z"/>
<path transform="translate(0,0)" fill="rgb(35,31,32)" d="M 1089.09 1111.83 C 1090.77 1112.29 1090.18 1111.98 1091.59 1112.96 C 1092.98 1113.93 1092.68 1114.3 1092.99 1115.87 C 1090.74 1119.05 1055.27 1136.96 1048.06 1141.53 C 1028.63 1153.87 1012.31 1170.48 992.55 1182.32 C 990.38 1181.5 991.069 1182.01 989.462 1180.49 C 987.992 1179.1 988.382 1178.98 988.29 1177.1 C 992.251 1171.83 1002.16 1167.15 1007.69 1163.21 C 1034.06 1144.39 1058.22 1123.39 1089.09 1111.83 z"/>
<path transform="translate(0,0)" fill="rgb(35,31,32)" d="M 1081.72 948.987 C 1082.19 948.929 1082.65 948.847 1083.12 948.811 C 1086.35 948.557 1088.39 949.076 1090.82 951.201 L 1090.53 953.422 C 1082 958.962 1070.39 961.758 1061.16 966.477 A 748.844 748.844 0 0 0 988.492 1008.88 C 986.174 1010.15 984.816 1010.76 982.113 1011.01 L 980.989 1009.55 C 981.108 1009.12 981.183 1008.69 981.346 1008.28 C 986.202 996.071 1065.68 956.076 1081.72 948.987 z"/>
<path transform="translate(0,0)" fill="rgb(35,31,32)" d="M 1061.13 897.949 C 1063.02 897.922 1063.97 898.085 1065.66 898.952 L 1065.84 900.739 C 1061.03 905.842 970.812 946.228 957.58 951.159 C 955.661 950.312 953.725 949.67 952.443 947.918 C 951.52 946.655 951.952 946.822 952.399 945.016 C 960.634 940.288 971.452 937.785 980.287 933.785 C 1007.26 921.575 1033.21 908.12 1061.13 897.949 z"/>
<path transform="translate(0,0)" fill="rgb(35,31,32)" d="M 885.777 1305.77 C 886.312 1305.86 886.864 1305.89 887.383 1306.05 C 889.646 1306.76 889.911 1307.29 890.65 1309.32 C 887.986 1315.69 843.716 1340.22 834.603 1344.76 C 819.844 1352.11 804.273 1358.09 789.308 1365.09 C 787.606 1364.73 788.406 1365.03 786.553 1363.93 C 784.611 1362.78 785.079 1362.96 784.599 1360.98 C 787.625 1356.64 833.408 1336.54 842.603 1331.57 C 857.348 1323.6 871.539 1314.6 885.777 1305.77 z"/>
<path transform="translate(0,0)" fill="rgb(35,31,32)" d="M 1043.25 1209.52 L 1046.82 1210.54 C 1047.55 1211.39 1047.86 1211.63 1048.26 1212.84 C 1048.58 1213.83 1051.48 1233.24 1051.38 1233.73 C 1051.24 1234.44 1050.68 1234.99 1050.33 1235.62 C 1039.03 1238.72 1030 1249.94 1020.18 1256.4 L 1017.05 1254.97 C 1014.38 1251.35 1012.75 1244.45 1012.86 1239.92 C 1013.22 1225.93 1033.47 1218.43 1043.25 1209.52 z"/>
<path transform="translate(0,0)" fill="rgb(254,254,254)" d="M 1039.73 1221.95 C 1041.05 1223.36 1041 1224.68 1041.43 1226.53 C 1039.89 1233.54 1027.74 1241.34 1022.28 1246.09 C 1021.01 1244.78 1021.08 1243.27 1020.7 1241.51 C 1022.51 1232.95 1032.93 1226.49 1039.73 1221.95 z"/>
<path transform="translate(0,0)" fill="rgb(35,31,32)" d="M 1091.46 1076.78 C 1094.14 1077.15 1094.04 1077.06 1095.77 1079.13 C 1095.11 1081.73 1093.97 1082.65 1091.74 1084.14 C 1081.96 1090.66 1070.52 1095.86 1060.21 1101.58 C 1041.2 1112.12 1022.95 1123.65 1004.36 1134.87 C 994.809 1140.64 984.561 1145.55 975.517 1152.09 C 973.114 1151.2 972.668 1151.09 971.113 1149.09 L 971.589 1146.67 C 977.517 1139.66 990.817 1134.53 998.921 1129.72 C 1029.66 1111.44 1059.41 1092.83 1091.46 1076.78 z"/>
<path transform="translate(0,0)" fill="rgb(35,31,32)" d="M 882.33 1354.8 C 887.983 1358.85 885.354 1366.59 888.002 1371.98 C 888.891 1373.78 889.383 1375.13 889.721 1377.16 C 886.309 1384.76 857.141 1398.69 849.016 1403.18 L 847.952 1402.98 C 843.559 1399.06 843.171 1389.68 842.187 1384.02 C 856.038 1375.13 869.531 1365.14 882.33 1354.8 z"/>
<path transform="translate(0,0)" fill="rgb(254,254,254)" d="M 877.612 1368.74 C 877.839 1368.91 878.119 1369.04 878.293 1369.27 C 878.993 1370.2 879.424 1371.39 879.219 1372.54 C 877.981 1379.47 858.595 1388.44 852.517 1392.29 L 851.479 1390.67 C 853.419 1384.89 872.059 1373.11 877.612 1368.74 z"/>
<path transform="translate(0,0)" fill="rgb(35,31,32)" d="M 951.358 1318.67 C 957.204 1328.51 958.13 1338.08 957.998 1349.23 C 956.786 1349.71 955.598 1350.21 954.398 1350.72 C 943.848 1355.18 934.683 1363.31 924.498 1368.75 C 919.125 1360.98 919.019 1351.54 917.988 1342.42 C 928.908 1334.17 940.785 1327.4 951.358 1318.67 z"/>
<path transform="translate(0,0)" fill="rgb(254,254,254)" d="M 945.7 1336.77 C 946.476 1336.91 947.363 1337.46 948.081 1337.8 L 948.291 1339.48 C 943.956 1346.73 936.34 1350.95 929.456 1355.5 C 928.456 1354.05 927.925 1352.52 927.26 1350.9 C 929.223 1344.74 940.224 1340.5 945.7 1336.77 z"/>
<path transform="translate(0,0)" fill="rgb(35,31,32)" d="M 931.067 1245.58 L 932.899 1246.56 C 933.714 1247.84 934.698 1248.59 934.392 1250.2 C 930.571 1270.18 807.79 1332.97 786.22 1349.2 L 784.902 1349.77 C 782.999 1348.2 783.453 1347.8 783.114 1345.46 C 786.746 1335.12 840.621 1307.98 852.153 1301.31 C 868.325 1291.97 884.92 1282.4 900.376 1271.95 C 911.691 1264.29 921.342 1255.09 931.067 1245.58 z"/>
<path transform="translate(0,0)" fill="rgb(35,31,32)" d="M 587.602 1110.43 L 590.343 1111.92 C 595.031 1120.82 599.154 1146.04 602.248 1157.69 C 607.813 1178.65 614.206 1199.36 620.262 1220.19 C 630.127 1208.45 640.648 1196.36 649.043 1183.55 C 654.059 1185.53 658.755 1188.11 663.519 1190.62 C 664.399 1197.81 669.52 1218.36 666.285 1224.34 L 663.703 1224.35 C 659.694 1215.52 659.272 1198.69 654.196 1192.68 L 652.329 1192.57 C 640.954 1201.6 634.973 1216.29 625.356 1226.98 C 623.563 1228.97 621.899 1230.31 619.171 1230.4 C 611.569 1219.86 605.609 1192.86 601.825 1179.27 C 597.485 1163.68 585.883 1129.17 585.989 1115.05 C 586.002 1113.25 586.744 1111.95 587.602 1110.43 z"/>
<path transform="translate(0,0)" fill="rgb(35,31,32)" d="M 894.055 919.815 C 894.34 919.937 894.647 920.017 894.91 920.181 C 897.103 921.548 897.89 921.89 898.542 924.393 C 896.987 926.66 877.057 934.933 872.65 937.292 C 843.597 952.84 815.033 968.291 786.524 984.85 C 811.369 1002.13 835.336 1022.38 849.873 1049.47 C 851.356 1052.23 854.289 1058.38 852.784 1061.56 C 849.565 1068.36 799.667 1093.82 791.743 1097.17 C 784.682 1120.48 783.181 1142.46 787.549 1166.53 C 788.416 1171.3 790.096 1175.91 790.939 1180.65 C 791.446 1183.5 791.314 1184.5 789.741 1186.9 C 779.457 1183.89 770.206 1173.88 760.425 1169.09 C 739.477 1158.82 713.637 1155.92 690.786 1152.44 C 689.469 1143.89 687.667 1135.42 687.053 1126.78 C 684.535 1091.36 693 1054.89 702.063 1020.95 C 691.913 1030.16 682.43 1039.96 671.887 1048.77 C 654.831 1063.03 635.668 1075.06 616.554 1086.34 C 611.644 1089.23 604.614 1094.79 598.998 1095.21 C 596.823 1093.9 596.932 1094.05 596.29 1091.6 C 597.729 1089.09 644.288 1060.76 651.367 1055.86 C 657.897 1051.19 664.496 1046.43 670.466 1041.05 C 680.016 1032.46 700.626 1009.16 711.885 1005.06 C 713.813 1004.36 713.618 1004.66 715.332 1005.38 C 716.232 1007.46 715.914 1009.04 715.284 1011.15 C 713.778 1016.19 711.086 1021.01 709.152 1025.91 C 705.735 1034.58 703.162 1043.64 701.072 1052.71 C 694.414 1081.6 691.143 1112.94 696.729 1142.22 C 712.448 1128.55 731.165 1118.89 748.58 1107.67 C 747.244 1103.3 745.89 1098.93 744.745 1094.51 C 741.617 1082.44 739.762 1066.07 746.617 1055.06 C 749.121 1051.03 752.759 1047.84 757.495 1046.89 C 762.776 1045.83 768.205 1047.99 772.394 1051.12 C 784.874 1060.45 788.752 1075.46 791.124 1089.98 A 294.711 294.711 0 0 0 845.602 1057.51 C 830.73 1028.63 805.595 1003.18 776.939 987.748 C 772.217 985.206 761.262 982.854 758.19 979.56 C 758.608 976.919 759.536 975.839 761.494 974.103 C 765.262 970.766 792.518 951.966 795.037 952.266 C 795.6 953.746 796.111 954.277 795.686 955.902 C 793.541 964.107 776.055 972.634 769.057 977.018 C 773.068 978.924 777.241 980.564 781.326 982.31 C 792.559 967.948 873.498 928.103 894.055 919.815 z"/>
<path transform="translate(0,0)" fill="rgb(254,254,254)" d="M 777.134 1101.84 L 778.385 1102.05 L 779.511 1103.8 C 778.947 1106.73 778.97 1107.8 776.537 1109.77 C 773.706 1112.07 768.969 1111.02 765.55 1110.67 L 763.671 1109.69 L 764.096 1108.53 C 768.122 1105.49 772.52 1103.76 777.134 1101.84 z"/>
<path transform="translate(0,0)" fill="rgb(254,254,254)" d="M 749.438 1068.68 C 754.068 1073.03 766.522 1091.06 768.371 1096.98 L 766.753 1098.88 C 764.817 1099.78 761.939 1101.43 759.821 1101.8 C 757.491 1102.21 755.037 1101.08 753.5 1099.33 C 747.698 1092.74 749.212 1077.02 749.438 1068.68 z"/>
<path transform="translate(0,0)" fill="rgb(254,254,254)" d="M 754.803 1054.89 C 759.479 1054.48 763.349 1054.5 767.414 1057.18 C 774.968 1062.16 780.566 1071.32 782.107 1080.16 C 782.984 1085.19 783.781 1089.74 780.666 1094.04 C 780.26 1093.93 779.84 1093.86 779.448 1093.7 C 770.606 1090.23 757.341 1068.76 754.194 1060.11 C 753.246 1057.51 753.647 1057.27 754.803 1054.89 z"/>
<path transform="translate(0,0)" fill="rgb(254,254,254)" d="M 750.204 1114.68 C 760.858 1118.84 768.431 1119.21 779.569 1117.51 C 778.153 1136.98 778.404 1154.64 781.637 1174 C 772.509 1167.78 763.473 1163.05 753.185 1159 C 736.427 1152.44 718.284 1149.67 700.525 1147.11 C 717.411 1136.81 733.769 1125.68 750.204 1114.68 z"/>
</svg>