<svg version="1.1" xmlns="http://www.w3.org/2000/svg" style="display: block;" viewBox="0 0 2048 2048" width="1024" height="1024">
<defs>
	<linearGradient id="Gradient1" gradientUnits="userSpaceOnUse" x1="1036.85" y1="1677.58" x2="1846.6" y2="249.678">
		<stop class="stop0" offset="0" stop-opacity="1" stop-color="rgb(174,179,144)"/>
		<stop class="stop1" offset="1" stop-opacity="1" stop-color="rgb(209,228,236)"/>
	</linearGradient>
	<linearGradient id="Gradient2" gradientUnits="userSpaceOnUse" x1="1612.01" y1="1065.3" x2="1639.71" y2="1268">
		<stop class="stop0" offset="0" stop-opacity="1" stop-color="rgb(233,229,212)"/>
		<stop class="stop1" offset="1" stop-opacity="1" stop-color="rgb(213,226,231)"/>
	</linearGradient>
	<linearGradient id="Gradient3" gradientUnits="userSpaceOnUse" x1="703.379" y1="1895.19" x2="715.798" y2="1567.39">
		<stop class="stop0" offset="0" stop-opacity="1" stop-color="rgb(218,214,185)"/>
		<stop class="stop1" offset="1" stop-opacity="1" stop-color="rgb(255,254,255)"/>
	</linearGradient>
</defs>
<path transform="translate(0,0)" fill="rgb(248,246,238)" d="M 0 0 L 2048 0 L 2048 2048 L 0 2048 L 0 0 z"/>
<path transform="translate(0,0)" fill="url(#Gradient1)" d="M 1099.76 283.35 C 1109.3 270.665 1121.61 260.072 1133.83 250.027 C 1207.39 189.583 1309.79 161.166 1402.41 147.98 C 1538.19 128.65 1687.87 141.456 1800.79 226.15 C 1869.87 277.958 1913.51 363.977 1925.34 448.741 C 1940.23 555.417 1928.4 664.748 1914.72 770.91 L 1895.47 920.638 A 4507.86 4507.86 0 0 0 1881.59 1028.96 C 1879.72 1044.28 1877.15 1059.64 1875.77 1074.99 C 1874.66 1087.25 1874.55 1099.56 1873.43 1111.84 C 1866.44 1188.55 1858.42 1265.16 1853.78 1342.06 A 2809.09 2809.09 0 0 0 1849.84 1425.15 C 1848.78 1454.29 1848.5 1483.18 1842.46 1511.86 C 1830.31 1569.49 1806.82 1614.38 1771.46 1661.06 C 1707.92 1744.93 1619.68 1800.62 1514.9 1814.88 C 1388.49 1832.08 1248.07 1792.09 1146.79 1715.2 C 1119.77 1694.68 1096.08 1669.34 1071.09 1646.41 C 1011.31 1591.56 947.95 1545.91 864.173 1539.85 C 847.349 1538.63 830.192 1538.51 813.44 1540.72 C 807.296 1541.53 800.213 1542.14 794.298 1543.87 C 795.941 1522.92 799.456 1501.93 801.523 1480.98 A 1220.7 1220.7 0 0 0 806.751 1380.96 C 807.366 1338.28 804.648 1295.58 801.349 1253.05 C 800.113 1237.12 797.562 1221.06 796.965 1205.12 C 796.635 1196.34 799.13 1187.66 800.203 1178.98 C 801.12 1171.58 800.953 1164.02 800.932 1156.57 C 863.99 1144.18 915.211 1107.52 951.241 1054.89 C 950.039 1089.14 951.4 1123.86 951.244 1158.17 C 951.095 1190.87 949.256 1224.65 951.13 1257.22 C 951.333 1260.73 951.307 1262.84 953.403 1265.77 C 956.454 1267.49 958.959 1268.16 962.4 1268.78 C 1017.26 1278.53 1072.6 1285.36 1127.54 1294.54 A 5283.88 5283.88 0 0 0 1207.73 1307.56 C 1221.77 1309.86 1236.77 1313.48 1250.94 1314.16 C 1263.66 1314.76 1281.88 1308.75 1294.84 1306.27 C 1296.49 1221.65 1294.87 1136.8 1294.65 1052.17 A 6297.39 6297.39 0 0 1 1294.96 972.106 C 1295.07 958.063 1296.15 943.117 1294.8 929.143 A 17.3076 17.3076 0 0 0 1289.91 918.622 C 1286.22 914.889 1277.38 913.802 1272.24 913.289 C 1240.72 910.148 1205.51 912.111 1173.59 912.137 A 17087.2 17087.2 0 0 0 978.602 913.119 A 940.02 940.02 0 0 0 980.36 891.821 C 1054 889.852 1127.75 890.499 1201.42 889.353 C 1226.53 888.962 1252.4 890.608 1277.39 888.571 C 1281.68 888.221 1287.09 888.106 1290.13 884.778 C 1293.68 880.891 1294.73 874.328 1295.13 869.298 C 1295.93 859.269 1295.28 848.681 1295.26 838.582 C 1295.22 822.875 1295.53 807.154 1295.69 791.446 A 13781.5 13781.5 0 0 0 1296.99 621.348 L 1297.19 532.114 C 1297.22 517.715 1298.63 501.759 1296.82 487.572 C 1296.6 485.828 1296.3 484.366 1294.86 483.254 C 1288.31 478.194 1261.73 474.684 1252.69 475.113 C 1228.24 476.274 1201 483.605 1176.77 488.36 A 6094.32 6094.32 0 0 1 1054.17 511.502 C 1054.07 511.213 1053.97 510.926 1053.89 510.634 C 1037.75 453.504 1050.88 376.496 1075.98 323.621 C 1082.69 309.492 1092.03 296.9 1099.76 283.35 z"/>
<path transform="translate(0,0)" fill="rgb(255,255,250)" d="M 1096.05 1500.79 C 1097.45 1500.85 1099.16 1500.82 1100.5 1501.21 C 1102.82 1501.88 1104.6 1503.64 1105.6 1505.82 C 1106.59 1507.99 1106.4 1510.36 1105.67 1512.56 C 1104.44 1516.28 1102.31 1517.77 1098.98 1519.58 C 1096.07 1519.18 1093.19 1518.14 1091.15 1515.93 C 1089.44 1514.07 1088.72 1511.74 1089.15 1509.24 C 1089.87 1505.01 1092.75 1502.99 1096.05 1500.79 z"/>
<path transform="translate(0,0)" fill="rgb(255,255,250)" d="M 1153.83 1466.96 C 1158.79 1466.84 1162.94 1467.03 1166.7 1470.72 C 1169.09 1473.08 1170.37 1476.11 1170.19 1479.47 C 1169.9 1484.83 1167.11 1487.8 1163.29 1491.2 C 1161.07 1491.29 1158.67 1491.42 1156.47 1490.98 C 1153.23 1490.33 1150.05 1487.77 1148.26 1485.05 C 1146.41 1482.24 1145.92 1479.08 1146.68 1475.82 C 1147.73 1471.28 1150.16 1469.43 1153.83 1466.96 z"/>
<path transform="translate(0,0)" fill="rgb(255,255,250)" d="M 1633.39 1487.09 C 1638.38 1486.81 1643.19 1486.67 1647.96 1488.4 A 28.8295 28.8295 0 0 1 1664.49 1503.96 A 27.7288 27.7288 0 0 1 1664.65 1526.29 C 1661.06 1534.54 1654.24 1539.71 1646.04 1542.87 C 1640.74 1543.3 1635.82 1543.69 1630.73 1541.87 A 27.4137 27.4137 0 0 1 1614.64 1526.61 C 1611.6 1519.41 1611.45 1510.89 1614.46 1503.66 C 1618.15 1494.81 1624.86 1490.47 1633.39 1487.09 z"/>
<path transform="translate(0,0)" fill="rgb(177,209,218)" d="M 1633.9 1495.04 C 1636.95 1494.9 1640.14 1494.65 1643.14 1495.34 C 1648.41 1496.53 1653.39 1500.28 1656.19 1504.88 A 18.773 18.773 0 0 1 1658.28 1519.99 C 1656.22 1527.13 1651.14 1530.83 1644.86 1534.12 C 1641.87 1534.26 1638.8 1534.47 1635.86 1533.83 A 20.05 20.05 0 0 1 1623.25 1524.92 A 19.2867 19.2867 0 0 1 1621.09 1509.53 C 1623.03 1502.53 1627.76 1498.42 1633.9 1495.04 z"/>
<path transform="translate(0,0)" fill="rgb(255,255,250)" d="M 1339.25 231.4 C 1347.68 231.303 1354.51 232.321 1361.78 237.058 C 1371.9 243.653 1378.99 255.564 1381.1 267.344 C 1383.27 279.452 1379.43 292.404 1372.05 302.108 C 1364.29 312.32 1354.74 316.607 1342.37 318.127 C 1332.54 318.196 1323.12 316.204 1315.1 310.239 C 1305.64 303.216 1299.53 291.593 1297.89 280.043 A 41.0398 41.0398 0 0 1 1306.52 248.153 C 1314.96 237.699 1326.17 232.762 1339.25 231.4 z"/>
<path transform="translate(0,0)" fill="rgb(183,213,220)" d="M 1331.07 241.145 C 1337.8 240.601 1344.15 240.38 1350.57 242.809 A 35.051 35.051 0 0 1 1370.47 261.952 A 31.1846 31.1846 0 0 1 1370.23 287.183 C 1365.82 297.054 1357.41 303.485 1347.43 307.082 C 1341.14 308.521 1334.74 308.434 1328.58 306.413 A 31.7458 31.7458 0 0 1 1309.69 289.608 A 35.3377 35.3377 0 0 1 1308.8 262.207 C 1312.99 251.201 1320.83 245.8 1331.07 241.145 z"/>
<path transform="translate(0,0)" fill="rgb(61,62,60)" d="M 1330.84 913.449 L 1649.73 917.059 C 1688.75 917.38 1727.88 919.543 1766.88 918.428 C 1768.4 936.184 1767.26 954.951 1767.27 972.811 L 1767.21 1076.29 L 1767.36 1367.09 C 1767.35 1368.87 1766.99 1370.06 1766.36 1371.69 C 1763.67 1374.04 1762.2 1374.06 1758.76 1374.78 C 1747.63 1377.69 1735.34 1382.01 1723.87 1382.81 C 1710.56 1383.74 1694.59 1378.67 1681.48 1376.24 L 1616.57 1364.44 L 1446.51 1333.03 C 1413.84 1327.11 1380.69 1322.22 1348.21 1315.5 C 1343.78 1314.58 1339.26 1313.34 1335.25 1311.23 C 1334.29 1310.73 1332.59 1309.82 1331.93 1308.95 C 1329.25 1305.38 1329.52 1293.3 1329.34 1288.86 C 1328.35 1263.73 1328.85 1238.44 1328.86 1213.3 L 1328.89 1091.63 L 1329.02 977.648 C 1329.05 958.435 1328.3 938.88 1329.14 919.706 C 1329.27 916.75 1328.84 915.608 1330.84 913.449 z"/>
<path transform="translate(0,0)" fill="rgb(255,255,250)" d="M 1339.28 923.791 L 1719.07 929.029 L 1719.04 962.087 C 1664.11 961.738 1609.02 958.71 1554.07 957.57 C 1482.68 956.088 1410.92 956.192 1339.69 950.927 L 1339.28 923.791 z"/>
<path transform="translate(0,0)" fill="rgb(255,255,250)" d="M 1728.85 929.054 C 1738.21 929.029 1747.52 928.984 1756.86 929.679 C 1758.23 967.208 1756.98 1005.23 1756.86 1042.8 A 21514.5 21514.5 0 0 0 1756.37 1261.28 C 1756.38 1273.11 1757.3 1359.12 1756.34 1361.26 C 1755.06 1364.12 1752.48 1364.2 1749.75 1365.09 C 1742.23 1366.76 1734.78 1368.81 1727.31 1370.7 L 1728.85 929.054 z"/>
<path transform="translate(0,0)" fill="rgb(255,255,250)" d="M 1339.98 1269.68 C 1367.53 1271.19 1395.86 1277.32 1423.17 1281.63 L 1556.38 1302.27 A 6377.4 6377.4 0 0 0 1649.02 1316.57 C 1671.85 1319.86 1695 1322.09 1717.38 1327.81 C 1717.61 1342.33 1717.33 1356.9 1717.29 1371.42 C 1693.01 1367.72 1668.73 1362.36 1644.53 1358 L 1484.15 1328.85 C 1436.58 1320 1388.33 1313.43 1340.97 1303.62 C 1340.1 1292.33 1340.11 1281 1339.98 1269.68 z"/>
<path transform="translate(0,0)" fill="rgb(248,246,238)" d="M 1339.7 960.964 C 1355.72 960.921 1372.02 962.798 1388.04 963.688 C 1412.91 965.071 1437.91 965.776 1462.82 966.511 C 1548.13 969.029 1633.5 969.81 1718.78 972.98 L 1717.79 1314.65 C 1709.55 1315.88 1662.27 1307.1 1651.42 1305.54 L 1446.06 1274.56 C 1410.87 1269.13 1375.4 1262.1 1340.01 1258.5 L 1339.7 960.964 z"/>
<path transform="translate(0,0)" fill="rgb(254,229,167)" d="M 1559.9 1020.21 A 2259.62 2259.62 0 0 0 1628.18 1023.85 C 1642.39 1024.38 1659.31 1023.25 1673.12 1026.12 C 1679 1027.33 1685.08 1030.03 1689.06 1034.65 C 1697.73 1044.71 1693.33 1070.91 1693.05 1083.83 C 1689.93 1084.06 1686.56 1083.52 1684.32 1086.07 L 1682.05 1087.39 C 1666.07 1087.32 1582.94 1081.19 1572.02 1077.21 C 1571.28 1073.15 1564.07 1073.21 1560.92 1065.05 C 1560.91 1050.22 1561.54 1034.96 1559.9 1020.21 z"/>
<path transform="translate(0,0)" fill="rgb(61,62,60)" d="M 1572.02 1077.21 C 1573 1076.44 1573.86 1075.48 1574.98 1074.92 C 1577.23 1073.78 1666.22 1081.95 1676.44 1083.2 C 1679.66 1083.59 1682.09 1083.52 1684.32 1086.07 L 1682.05 1087.39 C 1666.07 1087.32 1582.94 1081.19 1572.02 1077.21 z"/>
<path transform="translate(0,0)" fill="url(#Gradient2)" d="M 1560.92 1065.05 C 1564.07 1073.21 1571.28 1073.15 1572.02 1077.21 C 1582.94 1081.19 1666.07 1087.32 1682.05 1087.39 L 1684.32 1086.07 C 1686.56 1083.52 1689.93 1084.06 1693.05 1083.83 L 1693.06 1178.15 C 1693 1198.08 1693.72 1218.75 1691.21 1238.53 C 1690.48 1244.22 1689.56 1250.9 1685.86 1255.48 C 1681.23 1261.22 1673.61 1265.76 1666.24 1266.51 C 1656.61 1267.5 1588.87 1258.79 1577.95 1256.2 C 1572.87 1254.99 1566.38 1253.05 1562.48 1249.39 C 1559.11 1246.24 1558.97 1240.09 1558.71 1235.71 C 1557.82 1220.55 1559.27 1204.67 1559.53 1189.46 C 1560.26 1148.04 1561.93 1106.44 1560.92 1065.05 z"/>
<path transform="translate(0,0)" fill="rgb(61,62,60)" d="M 1573.62 1141.25 C 1585.78 1140.8 1599.15 1143.13 1611.35 1144.25 C 1631.18 1146.07 1651.34 1147.27 1671.06 1149.98 C 1674.92 1150.51 1675.78 1150.51 1678.2 1153.66 C 1677.14 1153.81 1677.07 1153.84 1675.82 1153.89 C 1665.04 1154.36 1580.89 1147 1576.55 1143.94 C 1575.46 1143.18 1574.59 1142.15 1573.62 1141.25 z"/>
<path transform="translate(0,0)" fill="rgb(61,62,60)" d="M 1571.77 1095.06 C 1587.34 1096.71 1674.75 1102.39 1681.42 1105.87 L 1681.69 1108.48 C 1672.34 1109.11 1576.54 1101.09 1572.46 1098.63 L 1571.77 1095.06 z"/>
<path transform="translate(0,0)" fill="rgb(61,62,60)" d="M 1572.73 1117.1 C 1582.41 1115.91 1593.78 1117.99 1603.53 1118.8 A 4440.85 4440.85 0 0 1 1657.99 1123.57 C 1665.02 1124.27 1675.11 1124 1679.75 1129.68 C 1672.77 1130.21 1579.25 1122.52 1575.34 1121.09 C 1573.71 1120.49 1573.42 1118.6 1572.73 1117.1 z"/>
<path transform="translate(0,0)" fill="rgb(254,229,167)" d="M 1391.32 1010.15 C 1408.61 1009.43 1427.51 1012.26 1444.91 1013.32 A 2008.94 2008.94 0 0 0 1535.41 1016.98 C 1538.46 1050.32 1539.72 1083.34 1539.71 1116.82 L 1539.23 1180.78 C 1539.23 1196.21 1540.68 1213.53 1537.91 1228.72 C 1537.24 1232.39 1536.13 1235.78 1533.32 1238.37 C 1528.49 1242.83 1522.47 1242.88 1516.32 1242.82 C 1492.02 1240.51 1395.89 1231.54 1380.39 1224.02 C 1375.71 1221.74 1372.29 1217.04 1370.8 1212.12 C 1366.19 1196.94 1371.61 1173.15 1371.34 1156.82 L 1369.76 1079.7 C 1369.51 1067.46 1368.47 1054.95 1369.09 1042.75 C 1369.4 1036.7 1370.12 1029.26 1373.03 1023.9 C 1376.85 1016.86 1383.87 1012.45 1391.32 1010.15 z"/>
<path transform="translate(0,0)" fill="rgb(61,62,60)" d="M 1442.99 1201.34 C 1452.13 1200.01 1513.58 1206.52 1521.42 1210.11 L 1522.4 1212.82 C 1511.11 1213.2 1499.18 1210.51 1487.96 1209.04 C 1475.09 1207.35 1462.08 1206.18 1449.26 1204.18 C 1446.05 1203.68 1444.92 1203.97 1442.99 1201.34 z"/>
<path transform="translate(0,0)" fill="rgb(248,246,238)" d="M 1486.37 1050.2 C 1491.24 1049.71 1496.24 1049.5 1500.98 1050.93 C 1509.16 1053.39 1516.29 1058.99 1520.23 1066.61 C 1524.08 1074.05 1524.43 1082.62 1521.5 1090.43 C 1518.14 1099.39 1511.29 1104.94 1502.75 1108.66 C 1496.46 1110.15 1490.69 1109.99 1484.45 1108.14 A 27.4055 27.4055 0 0 1 1467.68 1093.9 C 1463.97 1086.36 1463.45 1076.82 1466.35 1068.93 C 1469.98 1059.07 1477.27 1054.31 1486.37 1050.2 z"/>
<path transform="translate(0,0)" fill="rgb(61,62,60)" d="M 1717.12 357.383 C 1726.92 357.13 1755.83 361.092 1763.31 366.158 C 1765.69 367.775 1766.29 369.26 1766.8 372.009 C 1769.25 385.194 1768.09 399.993 1768.12 413.415 L 1768.17 481.192 L 1767.94 729.747 C 1767.93 744.302 1769.29 875.217 1766.01 880.021 C 1741.21 888.616 1693.9 885.894 1666.77 885.928 A 6611.91 6611.91 0 0 0 1589.91 886.3 L 1379.42 888.852 C 1367.04 888.875 1344.1 891.82 1333.61 884.196 C 1330.34 881.823 1329.73 879.475 1329.09 875.689 C 1326.45 860.076 1328 842.933 1327.95 827.075 L 1327.68 733.66 L 1327 569.817 C 1326.75 532.56 1325.81 494.889 1327.01 457.65 C 1327.18 452.353 1326.98 441.287 1330.14 437.111 C 1334.31 431.606 1343.21 429.226 1349.75 427.62 C 1363.2 424.316 1377.25 422.41 1390.89 419.906 C 1421.53 414.283 1452.33 409.031 1482.86 402.864 L 1635.53 373.012 C 1662.53 367.745 1689.85 360.842 1717.12 357.383 z"/>
<path transform="translate(0,0)" fill="rgb(255,255,250)" d="M 1477.18 543.304 C 1475.1 542.042 1473.75 541.376 1472.52 539.193 C 1474.55 535.482 1480.17 533.837 1483.75 531.401 A 178.303 178.303 0 0 0 1504.87 514.39 C 1523.96 496.2 1539.93 472.365 1553.03 449.604 C 1552.58 477.235 1544.36 516.381 1523.42 536.097 C 1515.9 543.178 1505.28 547.893 1494.82 547.335 C 1488.53 547 1483.16 544.97 1477.18 543.304 z"/>
<path transform="translate(0,0)" fill="rgb(255,255,250)" d="M 1715.26 369.35 C 1716.2 369.154 1717.14 369.406 1718.07 369.532 C 1721.17 377.901 1719.02 398.771 1718.91 408.493 A 11931.7 11931.7 0 0 1 1476.36 450.867 C 1431.42 458.302 1385.61 467.701 1340.23 471.411 L 1338.23 471.554 C 1337.71 470.867 1337.47 470.638 1337.2 469.71 C 1335.3 463.239 1334.89 449.311 1339.12 443.583 C 1341.39 440.526 1345.04 438.571 1348.67 437.668 C 1356.33 435.764 1364.7 434.962 1372.51 433.615 A 1718.46 1718.46 0 0 0 1428.33 423.425 A 8585.55 8585.55 0 0 1 1715.26 369.35 z"/>
<path transform="translate(0,0)" fill="rgb(255,255,250)" d="M 1729.49 369.702 A 528.947 528.947 0 0 1 1757.23 374.017 C 1759.19 478.468 1757.64 583.219 1757.64 687.706 L 1757.72 808.156 C 1757.75 829.2 1758.78 850.695 1757.52 871.68 C 1748.22 874.132 1738.27 874.55 1728.71 875.071 L 1729 528.113 C 1729.14 475.368 1728.14 422.418 1729.49 369.702 z"/>
<path transform="translate(0,0)" fill="rgb(248,246,238)" d="M 1559.12 444.277 A 5127.45 5127.45 0 0 1 1658.56 427.007 C 1678.69 423.537 1698.76 419.218 1719.01 416.527 L 1718.45 875.28 L 1452.17 877.364 C 1420.03 877.683 1387.56 879.576 1355.46 878.973 C 1351.67 878.902 1344.94 879.38 1342.08 876.67 C 1334.85 869.812 1337.46 847.41 1337.51 837.642 C 1369.87 835.361 1402.57 835.601 1435 834.787 L 1591.36 831.002 C 1623.73 830.512 1656.92 831.102 1689.18 828.914 C 1691.74 828.74 1693.77 828.283 1695.56 826.323 C 1696.2 823.635 1696.18 823.362 1695.24 820.762 C 1694.46 820.284 1693.78 819.59 1692.91 819.327 C 1687.31 817.641 1609.66 820.931 1595.63 821.436 C 1587.31 821.736 1574.71 823.902 1566.74 821.719 C 1550.83 817.361 1564.2 785.609 1562.96 774.142 C 1562.48 769.607 1546.23 728.157 1543.56 723.773 L 1543.1 724.984 C 1548.12 739.958 1554.46 756.777 1556.17 772.508 C 1558.04 789.679 1548.54 805.242 1556.36 821.754 L 1556.94 822.969 L 1444.96 826.341 C 1409.29 827.281 1373.54 827.685 1337.93 830.131 L 1337.26 712.097 C 1348.05 711.623 1358.74 710.671 1369.4 712.924 C 1400.86 719.568 1425.99 752.313 1438.07 780.264 C 1440.36 785.557 1444.52 799.205 1449.6 802.034 C 1454.79 786.723 1428.38 757.124 1426.16 746.044 C 1426.63 745.118 1426.81 744.587 1427.66 743.824 C 1430.54 741.224 1436.06 739.865 1439.72 738.665 C 1458.89 732.369 1475.96 730.259 1496 729.926 C 1510.13 739.561 1524.15 754.697 1529.46 771.302 C 1531.27 776.976 1531.2 783.028 1534 788.36 L 1535.29 788.421 C 1535.97 787.347 1536.68 786.295 1537.08 785.073 C 1539.29 778.277 1535.31 767.148 1532.56 760.704 C 1527.32 748.48 1513.07 729.313 1500.34 724.539 C 1481.27 717.388 1444.33 727.363 1426.35 735.805 C 1436.67 712.805 1451.17 690.858 1457.53 666.418 C 1453.96 657.292 1447.98 648.775 1441.12 641.804 C 1437.63 638.254 1417.42 623.769 1416.69 621.829 C 1414.88 617.022 1417.14 609.432 1416.95 604.116 C 1416.53 592.51 1414.65 579.693 1411.82 568.456 C 1407.53 551.378 1398.64 539.476 1383.51 530.483 C 1374.53 525.149 1357.88 517.38 1347.42 520.091 L 1346.68 522.826 C 1347.04 523.482 1348.24 524.755 1348.87 525.132 C 1351.26 526.563 1356.69 526.86 1359.52 527.51 C 1370.28 529.981 1382.05 535.318 1390.06 542.99 C 1407.64 559.835 1409.09 594.458 1409.95 617.329 C 1395.62 609.799 1381.89 602.767 1365.26 603.044 C 1359.23 603.145 1348.74 603.816 1344.46 608.181 L 1345.02 609.905 C 1349.18 612.221 1364.47 609.684 1371.06 610.455 C 1378.42 611.317 1385.59 613.489 1392.4 616.38 C 1413.85 625.49 1442.23 645.435 1451.08 667.654 C 1442.59 691.649 1429.33 714.463 1419.55 738.113 A 198.617 198.617 0 0 0 1404.91 723.841 C 1384.48 706.186 1363.61 703.268 1337.6 705.166 C 1336.71 676.884 1337.7 648.309 1337.7 619.995 L 1337.03 481.341 C 1361.66 479.811 1386.79 473.931 1411.18 470.019 C 1456.72 462.714 1502.47 455.959 1547.69 446.873 C 1546.48 451.88 1543 456.85 1540.36 461.284 C 1525.22 486.719 1503.3 513.037 1477.87 528.716 C 1459.78 539.866 1437.36 543.363 1416.76 547.425 C 1416.26 549.706 1416.12 549.924 1417.02 552.046 C 1426.35 556.224 1454.94 545.774 1464.53 542.167 A 48.7913 48.7913 0 0 0 1466.79 541.267 C 1470.12 544.461 1473.1 547.34 1477.16 549.624 C 1484.05 554.297 1493.95 555.653 1502.08 554.904 C 1514.85 553.727 1525.15 545.474 1533.07 535.936 C 1552.54 512.488 1561.69 474.213 1559.12 444.277 z"/>
<path transform="translate(0,0)" fill="rgb(61,62,60)" d="M 1645.74 613.114 C 1651.99 612.632 1656.96 612.488 1662.78 615.091 C 1674.05 620.132 1687.19 638.068 1690.81 649.67 C 1691.76 652.728 1691.91 656.102 1690.37 658.965 C 1683.2 657.465 1672.57 626.7 1658.52 621.116 C 1650.49 617.924 1643.35 620.672 1635.88 623.724 C 1625.28 629.455 1615.3 635.65 1606.68 644.161 C 1601.22 649.558 1597.1 662.573 1589.97 664.647 L 1588.96 663.381 C 1588.71 661.3 1588.79 659.735 1589.74 657.817 C 1600.75 635.683 1622.9 620.659 1645.74 613.114 z"/>
<path transform="translate(0,0)" fill="rgb(61,62,60)" d="M 1678.24 485.406 C 1679.64 485.241 1681.63 484.837 1683 485.101 C 1685.47 485.577 1686.1 486.289 1687.44 488.162 C 1686.32 490.389 1685.5 490.875 1683.13 491.448 C 1662.78 496.356 1643.6 495.306 1623.16 504.318 C 1592.28 517.928 1611.65 543.717 1601.86 567.046 C 1595.8 581.471 1582.09 586.178 1568.88 591.888 C 1572.76 597.092 1576.16 602.998 1578.77 608.936 C 1589.74 633.913 1585.21 656.246 1575.52 680.637 C 1589.2 698.234 1590.82 706.444 1614.04 712.37 C 1620.71 714.073 1627.53 715.51 1633.8 718.452 C 1650.81 726.436 1650.88 757.47 1658.92 773.801 C 1663.2 782.492 1673.34 789.235 1676.34 798.034 L 1675.53 798.853 C 1673.77 799.168 1672.31 799.503 1670.57 798.793 C 1666.5 797.13 1663.51 792.611 1661.04 789.151 C 1651.27 775.459 1646.88 763.127 1642.68 746.997 C 1641.34 741.861 1640.36 735.574 1638.03 730.814 C 1635.17 724.939 1627.49 723.194 1621.75 721.515 C 1593.43 715.834 1588.11 709.827 1570.96 687.948 C 1569.2 690.361 1567.43 692.792 1565.5 695.074 C 1554.45 708.144 1535.24 718.102 1518.11 718.929 C 1505.93 719.517 1491.82 713.528 1482.96 705.421 C 1468.68 692.351 1462.21 671.349 1461.66 652.46 C 1461.01 630.023 1468.66 605.885 1484.32 589.463 C 1495.45 577.795 1510.96 570.002 1527.26 569.869 C 1542.72 569.742 1555.04 576.513 1565.59 587.271 C 1572.88 583.73 1580.84 580.281 1587.04 574.957 C 1608.67 556.353 1589.12 529.208 1603.93 509.732 C 1617.04 492.499 1657.58 487.65 1678.24 485.406 z"/>
<path transform="translate(0,0)" fill="rgb(255,255,250)" d="M 1523.48 580.298 C 1532.47 579.915 1541.21 581.118 1549.04 585.829 C 1561.86 593.542 1569.82 608.785 1573.19 622.994 A 76.6968 76.6968 0 0 1 1563.48 681.931 C 1553.83 697.272 1540.56 704.886 1523.22 708.949 C 1512 709.605 1502.17 707.411 1493.02 700.477 C 1480.71 691.143 1474.03 676.872 1472.01 661.833 C 1469.25 641.3 1473.29 618.407 1486.09 601.71 C 1495.63 589.275 1507.96 582.336 1523.48 580.298 z"/>
<path transform="translate(0,0)" fill="rgb(61,62,60)" d="M 1524.17 606.208 C 1530.43 605.814 1536.27 606.927 1541.92 609.733 C 1550.83 614.159 1557.24 622.621 1560.35 631.944 C 1564.38 644.024 1562.48 657.315 1556.44 668.408 C 1551.14 678.169 1543.5 684.083 1532.92 687.158 C 1524.65 688.147 1517.58 687.667 1510.22 683.362 C 1501.65 678.35 1495.78 669.3 1493.32 659.817 C 1490.19 647.749 1491.95 632.204 1498.79 621.654 C 1504.84 612.305 1513.58 608.231 1524.17 606.208 z"/>
<path transform="translate(0,0)" fill="rgb(177,209,218)" d="M 1540.28 638.645 C 1543.54 637.744 1546.93 635.299 1550.04 636.63 C 1552.49 642.876 1551.15 652.544 1548.74 658.696 C 1546.15 665.33 1541.32 671.133 1534.66 673.937 A 21.7744 21.7744 0 0 1 1517.19 673.854 C 1511.5 671.291 1507.35 666.322 1505.17 660.548 C 1501.93 651.947 1501.82 641.354 1505.96 633.048 C 1509.4 626.147 1515.52 619.988 1523.05 617.784 C 1528.75 616.117 1533.15 616.841 1538.2 619.749 C 1542.54 623.376 1545.71 626.941 1548.76 631.7 C 1545.95 633.465 1541.5 635.438 1540.28 638.645 z"/>
<path transform="translate(0,0)" fill="rgb(61,62,60)" d="M 1537.6 644.19 C 1540.07 644.892 1541.21 645.772 1543.09 647.5 C 1543.96 650.748 1543.6 651.407 1542.67 654.528 C 1540.39 654.707 1539.57 654.536 1537.62 653.34 C 1536.05 650.303 1537.03 647.385 1537.6 644.19 z"/>
<path transform="translate(0,0)" fill="rgb(61,62,60)" d="M 1512.77 637.686 C 1514.82 639.497 1516.58 641.228 1518.33 643.327 C 1518.56 646.687 1517.45 647.684 1515.77 650.532 L 1515.11 650.663 C 1513.83 650.175 1512.89 650.15 1512.15 648.904 C 1510.05 645.394 1511.68 641.253 1512.77 637.686 z"/>
<path transform="translate(0,0)" fill="rgb(61,62,60)" d="M 1527.52 656.468 C 1529.84 658.219 1531.4 659.342 1532.57 662.123 C 1532.39 665.752 1530.36 667.567 1528.1 670.163 C 1525.66 669.158 1524.85 668.54 1523.41 666.312 C 1523.34 662.587 1525.67 659.555 1527.52 656.468 z"/>
<path transform="translate(0,0)" fill="rgb(61,62,60)" d="M 1536.17 625.12 C 1536.97 629.485 1538.16 633.831 1537.32 638.25 C 1534.46 639.712 1533.12 640.939 1529.88 640.553 L 1528.1 638.034 C 1527.71 635.007 1528.06 632.382 1529.41 629.591 C 1530.98 626.357 1533.03 626.198 1536.17 625.12 z"/>
<path transform="translate(0,0)" fill="rgb(61,62,60)" d="M 552.922 1578.38 C 454.137 1575.11 383 1563.01 298.463 1508.6 C 210.134 1451.75 135.808 1353 113.474 1249.55 C 97.9886 1177.83 110.107 1111.95 129.917 1042.71 C 134.222 1027.66 139.297 1012.84 143.486 997.76 C 156.493 950.93 166.828 904.466 170.252 855.853 C 173.427 810.785 169.147 765.955 166.159 721.024 C 161.45 650.197 157.74 579.824 166.01 509.09 C 170.873 467.493 180.31 425.653 203.501 390.117 C 218.949 366.447 238.083 346.889 262.844 333.017 C 294.413 315.331 331.384 305.9 365.667 295.063 A 1178.97 1178.97 0 0 0 439.889 268.854 C 473.319 256.083 504.716 239.635 537.167 224.695 C 586.871 201.812 639.186 182.493 692.827 171.262 C 722.281 165.096 751.407 162.702 781.464 162.808 C 862.95 163.098 924.472 183.279 996.321 220.622 C 1018.94 232.377 1041.06 244.465 1062.7 257.953 C 1075.42 265.876 1087.23 275.148 1099.76 283.35 C 1092.03 296.9 1082.69 309.492 1075.98 323.621 C 1050.88 376.496 1037.75 453.504 1053.89 510.634 C 1053.97 510.926 1054.07 511.213 1054.17 511.502 A 6094.32 6094.32 0 0 0 1176.77 488.36 C 1201 483.605 1228.24 476.274 1252.69 475.113 C 1261.73 474.684 1288.31 478.194 1294.86 483.254 C 1296.3 484.366 1296.6 485.828 1296.82 487.572 C 1298.63 501.759 1297.22 517.715 1297.19 532.114 L 1296.99 621.348 A 13781.5 13781.5 0 0 1 1295.69 791.446 C 1295.53 807.154 1295.22 822.875 1295.26 838.582 C 1295.28 848.681 1295.93 859.269 1295.13 869.298 C 1294.73 874.328 1293.68 880.891 1290.13 884.778 C 1287.09 888.106 1281.68 888.221 1277.39 888.571 C 1252.4 890.608 1226.53 888.962 1201.42 889.353 C 1127.75 890.499 1054 889.852 980.36 891.821 A 940.02 940.02 0 0 1 978.602 913.119 A 17087.2 17087.2 0 0 1 1173.59 912.137 C 1205.51 912.111 1240.72 910.148 1272.24 913.289 C 1277.38 913.802 1286.22 914.889 1289.91 918.622 A 17.3076 17.3076 0 0 1 1294.8 929.143 C 1296.15 943.117 1295.07 958.063 1294.96 972.106 A 6297.39 6297.39 0 0 0 1294.65 1052.17 C 1294.87 1136.8 1296.49 1221.65 1294.84 1306.27 C 1281.88 1308.75 1263.66 1314.76 1250.94 1314.16 C 1236.77 1313.48 1221.77 1309.86 1207.73 1307.56 A 5283.88 5283.88 0 0 1 1127.54 1294.54 C 1072.6 1285.36 1017.26 1278.53 962.4 1268.78 C 958.959 1268.16 956.454 1267.49 953.403 1265.77 C 951.307 1262.84 951.333 1260.73 951.13 1257.22 C 949.256 1224.65 951.095 1190.87 951.244 1158.17 C 951.4 1123.86 950.039 1089.14 951.241 1054.89 C 915.211 1107.52 863.99 1144.18 800.932 1156.57 C 800.953 1164.02 801.12 1171.58 800.203 1178.98 C 799.13 1187.66 796.635 1196.34 796.965 1205.12 C 797.562 1221.06 800.113 1237.12 801.349 1253.05 C 804.648 1295.58 807.366 1338.28 806.751 1380.96 A 1220.7 1220.7 0 0 1 801.523 1480.98 C 799.456 1501.93 795.941 1522.92 794.298 1543.87 A 6082.95 6082.95 0 0 0 785.945 1631.56 C 783.886 1654 781.286 1676.7 780.844 1699.23 C 780.756 1703.75 780.083 1709.65 781.309 1713.99 C 783.175 1720.59 787.572 1725.49 787.25 1732.75 C 786.919 1740.2 782.524 1748.97 779.867 1755.9 C 788.07 1758.91 796.32 1762.42 804.717 1764.84 C 817.744 1768.59 832.767 1768.23 844.138 1776.24 C 852.441 1773.44 858.741 1775.65 866.828 1778.45 C 886.32 1785.18 913.899 1797.68 923.027 1817.67 C 925.982 1824.15 926.002 1831.08 923.257 1837.62 C 915.79 1855.42 893.14 1865.26 876.303 1871.72 C 787.922 1905.6 610.737 1905.5 523.55 1866.5 C 509.954 1860.42 494.277 1851.76 488.981 1836.89 C 486.165 1828.99 486.993 1820.44 490.867 1813.05 C 504.757 1786.57 555.706 1769.44 583.067 1761.37 C 585.338 1747.03 586.04 1736.43 582.729 1722.12 A 64.5345 64.5345 0 0 1 578.622 1718.77 C 574.827 1715.47 570.793 1711.73 569.149 1706.81 C 565.546 1696.05 566.023 1682.48 564.54 1671.17 C 560.495 1640.31 555.264 1609.43 552.922 1578.38 z"/>
<path transform="translate(0,0)" fill="rgb(254,229,167)" d="M 652.432 1760.83 L 653.048 1760.05 C 652.751 1755.95 652.5 1751.05 653.112 1747.01 C 653.495 1744.48 654.077 1743.47 656.107 1742 C 656.283 1742.44 656.526 1742.85 656.636 1743.31 C 656.773 1743.87 656.773 1744.47 656.841 1745.04 C 659.153 1745.59 657.974 1745.21 660.359 1746.26 C 660.694 1748.93 661.287 1751.43 661.962 1754.03 C 660.722 1757.06 660.373 1759.22 657.696 1761.18 C 655.994 1761.08 654.097 1761.14 652.432 1760.83 z"/>
<path transform="translate(0,0)" fill="rgb(255,255,250)" d="M 686.926 1767.78 C 687.337 1770.31 687.471 1771.68 686.049 1773.91 C 681.054 1781.76 665.859 1785.42 657.372 1787.78 L 657.31 1785.97 C 659.675 1781.91 680.884 1772.29 686.926 1767.78 z"/>
<path transform="translate(0,0)" fill="rgb(248,246,238)" d="M 645.973 1715.48 C 646.512 1715.63 647.049 1715.79 647.59 1715.93 C 649.611 1716.46 651.759 1716.85 653.684 1717.68 C 656.292 1718.81 659.311 1722.91 659.738 1725.75 C 660.325 1729.65 659.053 1734.09 656.592 1737.09 C 652.662 1736.36 649.838 1735.26 646.682 1732.74 C 644.028 1730.62 642.211 1728.09 641.983 1724.6 C 641.733 1720.77 643.641 1718.29 645.973 1715.48 z"/>
<path transform="translate(0,0)" fill="rgb(248,246,238)" d="M 815.212 1774.35 C 824.275 1776.04 834.723 1776.57 840.459 1784.74 A 56.6878 56.6878 0 0 1 841.81 1786.77 C 839.713 1786.89 837.579 1787.18 835.499 1787.47 C 827.567 1788.58 818.916 1787.1 810.82 1787.15 C 811.464 1782.45 811.633 1777.8 815.212 1774.35 z"/>
<path transform="translate(0,0)" fill="rgb(255,255,250)" d="M 712.507 1843.71 C 722.095 1845.87 731.692 1847.61 741.526 1848.06 C 747.519 1848.33 763.221 1845.79 767.351 1848.28 L 766.497 1850.37 C 764.396 1851.08 762.305 1851.7 760.153 1852.24 C 749.781 1854.86 724.381 1858.38 715.326 1851.33 C 712.459 1849.09 712.904 1847.04 712.507 1843.71 z"/>
<path transform="translate(0,0)" fill="rgb(255,255,250)" d="M 846.544 1816.87 L 846.847 1818.68 C 846.401 1820.23 846.028 1821.64 844.898 1822.85 C 835.708 1832.72 790.474 1846.86 776.357 1846.63 L 775.6 1844.55 C 778.69 1839.79 821.023 1830.07 829.925 1826.51 C 836.198 1824 841.213 1820.96 846.544 1816.87 z"/>
<path transform="translate(0,0)" fill="rgb(248,246,238)" d="M 648.485 1799.1 C 648.341 1802.38 646.603 1806.07 644.558 1808.62 C 640.298 1813.93 631.769 1815.37 625.423 1815.87 C 611.917 1816.94 593.765 1816.28 583.095 1807.12 C 583.08 1806.81 583.049 1806.51 583.052 1806.2 C 583.073 1803.94 582.825 1802.18 584.515 1800.63 C 591.063 1804.45 596.977 1806.45 604.439 1807.73 C 620.197 1810.43 635.211 1808.4 648.485 1799.1 z"/>
<path transform="translate(0,0)" fill="rgb(255,255,250)" d="M 299.115 1107.26 C 303.008 1106.88 306.505 1107.51 310.304 1108.26 C 341.191 1114.36 371.902 1122.33 402.616 1129.34 C 409.169 1130.83 425.256 1132.99 430.516 1135.26 C 433.352 1136.49 433.269 1137.27 434.183 1140.01 C 419.766 1139.56 403.291 1134.09 389.213 1130.91 C 363.177 1125.04 337.001 1119.69 311.176 1112.92 C 306.911 1111.8 301.424 1111.2 299.115 1107.26 z"/>
<path transform="translate(0,0)" fill="rgb(255,255,250)" d="M 1262.04 923.067 C 1263.17 923.048 1264.31 923.021 1265.44 923.042 C 1271.1 923.148 1277.96 923.314 1281.8 928.158 C 1286.48 934.062 1284.4 947.062 1284.14 954.375 L 1261.86 952.604 L 1262.04 923.067 z"/>
<path transform="translate(0,0)" fill="rgb(183,213,220)" d="M 574.633 1696.48 C 597.396 1704.33 603.978 1704.21 627.669 1699.14 C 632.065 1698.2 637.185 1696.58 641.653 1697.24 L 642.959 1699.02 C 642.884 1702.14 642.119 1703.87 640.701 1706.54 A 69.6389 69.6389 0 0 1 635.773 1709.29 C 619.648 1717.27 598.045 1717.06 581.484 1711.21 C 578.854 1706.35 576.413 1701.73 574.633 1696.48 z"/>
<path transform="translate(0,0)" fill="rgb(248,246,238)" d="M 629.422 1722.45 L 630.446 1722.56 C 630.571 1722.86 630.738 1723.15 630.821 1723.46 C 631.988 1727.82 627.025 1748.56 624.41 1752.2 C 623.43 1753.57 622.699 1754.4 621.021 1754.64 C 616.058 1755.36 610.326 1750.14 606.442 1747.45 L 596.927 1742.75 C 595.553 1736.97 594.837 1730.88 593.897 1725.01 C 605.942 1725.21 617.509 1724.01 629.422 1722.45 z"/>
<path transform="translate(0,0)" fill="rgb(255,255,250)" d="M 1263.03 839.456 C 1270.45 838.966 1277.98 839.102 1285.43 839.006 C 1285.42 848.459 1287.52 870.43 1283.3 877.929 C 1276.24 878.833 1269.17 878.7 1262.06 878.691 C 1261.94 868.198 1259.99 848.975 1263.03 839.456 z"/>
<path transform="translate(0,0)" fill="rgb(255,255,250)" d="M 429.323 489.116 C 430.544 489.303 430.763 489.879 431.611 490.731 C 431.746 492.547 431.917 493.624 431.061 495.31 C 430.291 496.826 428.684 497.775 427.12 498.334 C 416.416 502.16 401.419 503.58 390.038 506.243 C 356.211 514.159 322.206 522.104 288.804 531.669 C 287.302 530.837 286.975 530.237 286.023 528.855 C 286.169 528.45 286.237 528.007 286.461 527.639 C 287.778 525.472 290.241 524.827 292.537 524.107 C 307.501 519.41 323.507 516.319 338.762 512.583 A 2233.64 2233.64 0 0 0 429.323 489.116 z"/>
<path transform="translate(0,0)" fill="rgb(183,213,220)" d="M 777.057 1726.98 L 777.904 1728.1 C 777.988 1731.9 777.8 1735.12 776.119 1738.6 C 771.947 1747.25 762.701 1753.41 753.871 1756.48 C 740.377 1761.18 723.554 1761.43 710.665 1755.02 C 709.658 1749.37 709.228 1743.64 708.702 1737.94 C 718.001 1741.91 727.236 1744.82 737.482 1744.54 C 753.109 1744.12 766.263 1738.29 777.057 1726.98 z"/>
<path transform="translate(0,0)" fill="rgb(248,246,238)" d="M 759.33 1762.83 L 761.2 1763.21 C 761.909 1764.37 761.989 1764.37 762.454 1765.89 C 764.717 1773.3 762.329 1790.22 758.264 1796.64 C 756.591 1799.28 754.271 1801.28 751.037 1801.63 C 744.189 1802.38 738.396 1796.53 733.781 1792.28 A 231.113 231.113 0 0 1 726.335 1784.33 C 723.22 1780.79 719.07 1776.47 719.41 1771.46 C 724.022 1766.5 738.468 1769.29 745.457 1768.01 C 750.47 1767.09 754.804 1765.05 759.33 1762.83 z"/>
<path transform="translate(0,0)" fill="rgb(157,175,131)" d="M 694.282 791.416 C 695.656 791.179 696 791.043 697.446 791.126 C 702.552 791.418 706.236 795.963 709.695 799.293 C 669.062 809.388 628.456 812.177 586.753 809.833 L 573.402 808.26 C 578.15 804.113 582.775 799.703 588.215 796.471 C 624.145 800.886 658.595 795.705 694.282 791.416 z"/>
<path transform="translate(0,0)" fill="rgb(254,229,167)" d="M 525.432 1132.55 L 526.401 1132.66 C 528.841 1141.58 524.676 1167.38 525.498 1179.06 C 526.286 1190.28 531.873 1199.52 533.696 1210.41 C 535.557 1221.52 534.245 1233.28 534.939 1244.53 C 535.555 1254.51 538.402 1263.1 540.501 1272.71 C 541.014 1275.06 541.384 1276.29 540.081 1278.42 L 538.02 1278.5 C 534.318 1276.99 533.178 1275.2 531.062 1271.89 C 516.404 1244.05 524.599 1225.68 518.952 1197.41 C 514.695 1176.1 507.188 1155.46 502.867 1134.01 C 510.387 1133.69 517.919 1133.05 525.432 1132.55 z"/>
<path transform="translate(0,0)" fill="rgb(248,246,238)" d="M 589.937 1792.62 C 589.976 1784.5 588.764 1756.45 593.442 1751.17 C 606.066 1751 616.421 1775.81 632.777 1759.64 C 636.812 1755.65 639.065 1750.39 638.922 1744.76 C 638.908 1744.23 638.878 1743.69 638.865 1743.16 C 638.83 1741.7 639.005 1740.8 639.568 1739.45 C 641.376 1738.65 641.797 1738.96 643.595 1739.65 C 645.724 1740.48 647.026 1742.04 647.94 1744.08 C 650.444 1749.69 647.05 1756.1 652.432 1760.83 C 654.097 1761.14 655.994 1761.08 657.696 1761.18 C 660.373 1759.22 660.722 1757.06 661.962 1754.03 C 663.653 1751.15 664.331 1748.61 665.207 1745.4 C 665.71 1743.56 665.431 1744.28 666.488 1742.61 L 667.932 1743.5 C 668.121 1745.8 668.262 1748.09 668.349 1750.41 L 669.078 1750.94 C 670.25 1748.82 670.592 1747.15 671.025 1744.8 C 673.509 1745.04 674.803 1746.59 676.407 1748.49 C 678.441 1750.89 682.038 1755.62 681.348 1758.97 C 680.64 1762.41 678.069 1764.38 675.165 1766.04 C 668.877 1769.63 661.047 1771.17 655.141 1775.3 C 650.693 1778.41 647.576 1784.33 643.996 1788.41 C 633.645 1800.2 614.166 1801.36 600.017 1796.97 A 55.9455 55.9455 0 0 1 589.937 1792.62 z"/>
<path transform="translate(0,0)" fill="rgb(254,229,167)" d="M 654.68 1567.57 C 656.468 1529.37 661.563 1491.99 666.494 1454.11 C 668.801 1436.38 669.957 1417.75 673.972 1400.37 C 679.263 1432.49 683.005 1463.9 683.745 1496.5 C 684.256 1519 683.17 1541.59 682.953 1564.09 C 673.611 1565.63 664.167 1567.45 654.68 1567.57 z"/>
<path transform="translate(0,0)" fill="rgb(157,175,131)" d="M 905.968 881.189 C 908.825 881.065 911.642 881.298 914.48 881.616 C 932.28 883.611 948.151 896.464 958.894 910.053 C 964.205 916.772 967.755 923.793 966.435 932.554 C 963.597 951.399 946.884 971.245 932.279 982.578 C 928.522 984.932 924.635 987.093 920.796 989.311 C 926.544 976.283 931.68 962.424 929.427 947.922 C 925.671 923.745 902.111 905.663 883.708 892.116 C 890.653 886.593 897.362 883.203 905.968 881.189 z"/>
<path transform="translate(0,0)" fill="rgb(248,246,238)" d="M 714.058 1785.95 C 726.535 1797.26 735.314 1807.17 752.205 1811.52 C 759.964 1809.15 765.02 1806.28 769.03 1799.03 C 770.503 1796.98 771.117 1795.31 773.551 1794.41 C 796.994 1792.44 819.264 1795.15 842.582 1795.87 C 845.487 1797.44 846.401 1798.72 848.164 1801.39 C 847.994 1804.43 847.007 1806 844.668 1807.98 C 827.993 1822.15 797.937 1825.1 777.642 1831.85 C 776.11 1833.4 774.324 1834.52 772.388 1835.51 C 758.165 1842.78 728.115 1839.31 713.477 1834.37 C 711.156 1817.97 709.406 1802.03 714.058 1785.95 z"/>
<path transform="translate(0,0)" fill="rgb(254,229,167)" d="M 709.163 679.032 C 713.571 683.691 717.308 707.564 717.797 714.991 C 719.079 734.442 714.725 755.01 701.739 770.015 C 701.642 763.177 702.02 756.379 701.483 749.547 L 699.912 748.273 C 697.075 748.524 696.862 748.653 694.645 750.456 C 690.242 759.797 693.147 772.98 694.51 782.818 C 670.062 784.168 645.79 787.956 621.25 788.994 C 613.333 789.296 605.383 789.009 597.463 788.86 C 604.299 781.948 609.682 775.419 614.289 766.815 C 672.502 768.464 665.481 703.453 687.733 690.772 C 695.26 690.172 694.166 697.074 699.531 699.054 L 701.298 697.726 C 703.257 694.075 701.357 689.15 701.931 684.93 C 703.514 681.711 706.155 680.658 709.163 679.032 z"/>
<path transform="translate(0,0)" fill="rgb(61,62,60)" d="M 686.116 698.531 C 690.193 702.76 688.096 720.359 688.072 726.424 C 690.439 730.196 693.874 732.405 696.206 735.937 C 697.396 737.738 697.111 736.796 696.63 739.199 L 693.094 741.553 C 690.164 740.912 687.174 740.436 684.819 738.436 C 680.508 734.775 679.324 726.814 679.227 721.541 C 679.083 713.69 680.502 704.295 686.116 698.531 z"/>
<path transform="translate(0,0)" fill="rgb(254,229,167)" d="M 986.374 726.835 C 990.602 731.905 995.586 737.113 998.602 743.021 C 998.826 743.458 999.024 743.907 999.241 744.347 C 1001.86 749.659 1002.3 755.186 1002.98 760.989 C 1003.5 787.853 999.857 809.709 987.421 833.758 C 984.269 839.853 979.352 845.043 977.356 851.716 C 971.677 870.712 972.659 893.461 970.174 913.221 C 958.888 896.983 949.262 885.027 931.143 876.314 C 933.517 869.616 936.171 863.213 939.442 856.898 C 943.594 848.882 950.873 839.316 952.505 830.497 C 954.347 820.546 946.719 812.834 945.632 803.311 C 944.356 792.125 953.025 760.061 961.686 753.766 C 963.184 756.41 962.461 760.115 961.71 762.898 C 960.021 769.152 955.7 778.275 959.458 784.405 C 960.307 785.789 961.473 786.599 963.091 786.969 C 967.942 788.075 974.401 783.818 977.779 780.766 C 982.162 776.806 987.531 771.784 990.604 766.742 C 989.486 753.352 988.26 740.143 986.374 726.835 z"/>
<path transform="translate(0,0)" fill="rgb(255,255,250)" d="M 976.782 921.061 C 1006.86 924.344 1046.1 922.824 1076.83 922.824 A 13938.8 13938.8 0 0 1 1251.57 922.791 C 1251.52 931.563 1252.85 942.521 1250.73 950.942 L 1249.01 951.733 C 1220.18 950.515 1191.18 950.963 1162.32 950.869 C 1098.72 950.662 1034.72 950.94 971.23 947.053 C 973.671 938.525 975.149 929.77 976.782 921.061 z"/>
<path transform="translate(0,0)" fill="rgb(248,246,238)" d="M 1261.47 962.092 L 1284.95 963.351 C 1284.9 992.151 1286.41 1291.32 1284.48 1295.85 C 1283.82 1297.42 1282.3 1297.34 1280.81 1297.81 L 1260.91 1301.86 C 1260.11 1188.61 1262.52 1075.34 1261.47 962.092 z"/>
<path transform="translate(0,0)" fill="rgb(255,255,250)" d="M 1262.02 487.09 C 1270.67 488.235 1279.37 489.154 1287.77 491.631 C 1286.31 536.067 1287.09 580.692 1286.91 625.161 L 1285.61 828.845 L 1262.57 829.438 C 1261.88 792.937 1262.48 756.326 1262.34 719.81 L 1262.02 487.09 z"/>
<path transform="translate(0,0)" fill="rgb(255,255,250)" d="M 1241.72 487.358 C 1244.93 486.663 1248.7 486.81 1252.01 486.614 L 1251.86 514.841 C 1222.74 522.91 1188.79 526.654 1158.82 531.935 C 1098.96 542.481 1039.25 553.23 979.219 562.832 L 969.056 564.599 C 969.031 555.919 968.792 547.204 969.826 538.571 C 983.954 533.821 999.313 531.041 1013.9 528.008 C 1048.17 520.886 1082.74 515.509 1117.23 509.625 C 1158.76 502.54 1200.05 493.519 1241.72 487.358 z"/>
<path transform="translate(0,0)" fill="rgb(255,255,250)" d="M 1246.74 839.47 L 1250 839.515 L 1251.24 840.809 C 1253.78 852.287 1252 866.622 1251.68 878.429 C 1164.01 879.716 1075.81 877.426 988.243 882.466 C 985.548 882.679 985.053 883.284 982.781 881.63 C 980.128 871.72 984.911 857.112 988.205 847.642 C 1020.47 847.818 1052.93 846.037 1085.18 845.048 A 11036.3 11036.3 0 0 0 1246.74 839.47 z"/>
<path transform="translate(0,0)" fill="rgb(255,255,250)" d="M 960.822 1223.3 L 1250.79 1263.32 L 1250.91 1304.05 L 1092 1278.28 C 1048.37 1271.57 1004.47 1265.83 960.975 1258.3 A 646.752 646.752 0 0 1 960.822 1223.3 z"/>
<path transform="translate(0,0)" fill="rgb(157,175,131)" d="M 778.219 824.849 C 779.719 825.423 780.057 825.506 781.396 826.171 C 794.321 832.595 822.989 856.977 836.04 866.889 C 856.997 882.806 880.359 897.443 899.479 915.439 C 907.009 922.526 915.63 931.004 918.763 941.061 C 922.824 954.1 920.912 969.189 914.409 981.184 C 910.955 987.555 905.957 993.209 898.763 995.18 C 882.088 999.748 860.609 987.105 846.376 979.519 C 835.111 973.636 775.833 939.585 769.072 939.676 C 767.632 941.39 767.679 941.714 767.432 943.97 C 771.064 951.709 784.546 955.322 791.645 960.029 C 794.094 961.653 796.446 963.087 797.076 966.068 C 794.196 967.734 791.219 967.493 787.932 967.052 C 776.111 965.465 766.035 960.349 759.155 950.488 C 744.484 929.459 744.816 898.798 749.652 874.727 C 753.525 855.448 761.268 836.053 778.219 824.849 z"/>
<path transform="translate(0,0)" fill="rgb(254,229,167)" d="M 808.396 969.615 C 831.387 980.628 863.784 1004.33 889.1 1005.57 C 914.086 1006.8 934.556 992.884 951.972 976.721 C 951.935 1002.6 952.957 1029.1 951.241 1054.89 C 915.211 1107.52 863.99 1144.18 800.932 1156.57 C 801.162 1096.74 797.999 1036.89 797.913 977.025 L 808.396 969.615 z"/>
<path transform="translate(0,0)" fill="rgb(255,255,250)" d="M 441.415 484.804 A 982.595 982.595 0 0 0 477.442 488.093 L 476.596 968.251 C 476.422 985.25 476.662 1002.71 474.388 1019.57 C 471.667 1039.75 465.919 1060.28 466.416 1080.71 C 466.753 1094.55 469.71 1112.7 479.374 1123.25 A 1059.36 1059.36 0 0 1 478.846 1137.63 C 466.783 1138.92 454.52 1139.21 442.516 1140.76 A 15838.3 15838.3 0 0 0 442.2 922.827 C 442.141 903.707 444.378 827.853 440.067 814.885 C 433.915 810.277 307.069 820.227 290.064 821.461 C 290.054 818.431 289.475 815.984 288.679 813.1 C 315.861 812.134 343.199 808.989 370.347 807.002 C 393.416 805.314 418.364 805.213 441.018 800.781 A 20477 20477 0 0 1 441.415 484.804 z"/>
<path transform="translate(0,0)" fill="rgb(255,255,250)" d="M 969.131 573.658 C 1000.06 565.839 1032.8 562.16 1064.3 557.051 C 1125.92 547.057 1191.22 536.922 1252.03 523.465 L 1251.83 829.728 L 1083.41 836.023 C 1053.9 837.079 1023.75 839.328 994.257 838.587 C 998.405 829.308 1002.22 820.127 1005.54 810.508 C 1018.81 812.598 1062.29 808.194 1078.28 807.345 L 1149.28 803.695 C 1163.49 803.014 1178.01 802.882 1192.14 801.247 C 1199.65 800.377 1210 799.364 1214.88 793.139 C 1218.37 788.673 1221.22 783.393 1222.09 777.714 C 1223.93 765.611 1223.26 752.377 1223.28 740.147 L 1223.09 677.105 C 1223.02 646.672 1225.44 604.421 1221.94 575.494 C 1220.62 574.135 1219.18 573.406 1217.38 572.819 C 1211.6 570.93 1203.8 572.724 1197.8 573.471 C 1155.23 578.76 1113.54 588.186 1070.78 592.68 C 1057.45 594.081 1019.26 595.628 1008.97 601.602 C 1003.52 604.763 1000.89 610.966 999.456 616.825 C 994.718 636.207 998.313 682.084 998.507 704.059 C 998.565 710.699 999.292 720.179 997.212 726.403 C 997.055 726.872 996.874 727.334 996.705 727.8 C 992.653 722.652 990.933 718.895 984.024 718.064 C 982.479 715.748 981.701 713.712 980.797 711.07 C 979.18 706.343 978.377 704.28 973.71 702.077 C 973.203 701.838 972.684 701.624 972.174 701.393 C 970.361 700.574 971.172 701.031 969.447 699.72 C 967.487 686.016 968.804 670.843 968.843 656.989 L 969.131 573.658 z"/>
<path transform="translate(0,0)" fill="url(#Gradient3)" d="M 654.68 1567.57 C 664.167 1567.45 673.611 1565.63 682.953 1564.09 C 682.981 1598.31 684.531 1632.14 688.937 1666.1 C 691.653 1687.02 695.873 1707.66 698.858 1728.52 C 700.094 1737.15 697.996 1756.74 704.418 1762.6 C 705.626 1763.71 707.451 1764.48 708.883 1765.27 C 709.312 1765.51 709.735 1765.75 710.163 1765.99 C 710.42 1766.13 710.679 1766.27 710.938 1766.41 C 701.553 1799.49 699.308 1821.75 705.617 1856.47 C 723.843 1865.85 743.131 1864.65 762.752 1860.75 C 765.944 1860.11 767.526 1859.11 770.169 1857.27 C 776.608 1852.77 787.249 1852.9 794.894 1851.4 C 813.731 1847.7 839.685 1839.87 853.985 1826.48 C 858.723 1813.62 859.511 1802.29 853.61 1789.49 C 851.215 1784.3 848.34 1780.11 844.138 1776.24 C 852.441 1773.44 858.741 1775.65 866.828 1778.45 C 886.32 1785.18 913.899 1797.68 923.027 1817.67 C 925.982 1824.15 926.002 1831.08 923.257 1837.62 C 915.79 1855.42 893.14 1865.26 876.303 1871.72 C 787.922 1905.6 610.737 1905.5 523.55 1866.5 C 509.954 1860.42 494.277 1851.76 488.981 1836.89 C 486.165 1828.99 486.993 1820.44 490.867 1813.05 C 504.757 1786.57 555.706 1769.44 583.067 1761.37 C 582.163 1770.2 583.278 1781.59 580.447 1789.92 C 579.17 1793.68 575.644 1796.45 574.422 1800.22 C 573.382 1803.43 573.957 1806.81 575.462 1809.77 C 578.941 1816.61 586.411 1820.56 593.515 1822.58 C 607.17 1826.46 630.126 1827.94 642.509 1820.48 C 650.953 1815.39 655.273 1807.73 657.706 1798.42 C 667.608 1793.88 680.251 1791.05 688.533 1783.74 C 692.531 1780.22 694.843 1775.68 695.012 1770.32 C 695.148 1765.99 693.894 1761.65 692.363 1757.64 C 684.12 1736.08 667.37 1737.78 665.613 1734.15 C 663.336 1729.46 668.493 1718.24 661.959 1712.39 C 659.904 1710.55 657.927 1710.26 655.335 1710.18 C 653.283 1710.13 651.236 1710 649.186 1709.91 L 648.562 1709.03 C 649.022 1707.09 649.429 1705.11 649.936 1703.18 C 652.683 1692.7 649.808 1680.85 650.097 1669.94 A 1885.86 1885.86 0 0 1 654.68 1567.57 z"/>
<path transform="translate(0,0)" fill="rgb(255,255,250)" d="M 429.373 507.271 L 430.2 507.426 C 433.056 512.501 431.406 760.248 431.25 791.872 C 384.516 797.201 337.131 799.309 290.251 803.794 L 289.528 803.342 C 288.642 801.967 288.371 801.103 288.312 799.455 C 287.12 765.945 288.211 731.982 288.163 698.427 L 287.142 541.669 A 4286.88 4286.88 0 0 1 429.373 507.271 z"/>
<path transform="translate(0,0)" fill="rgb(177,209,218)" d="M 305.913 656.994 A 121.896 121.896 0 0 0 312.72 670.12 C 315.515 674.709 318.924 680.227 324.438 681.524 C 326.704 680.847 326.987 680.382 328.596 678.598 L 328.189 676.899 L 325.433 675.388 L 325.708 673.613 C 329.161 670.673 330.691 668.173 332.452 664.015 C 333.199 665.761 333.661 666.854 333.854 668.768 C 332.481 671.868 333.948 675.017 333.241 678.415 C 336.216 679.213 338.292 677.91 341.018 678.24 C 344.988 678.722 367.753 693.053 370.192 696.436 C 370.475 696.828 370.774 697.208 371.055 697.602 C 371.224 697.839 371.379 698.086 371.541 698.327 C 373.087 690.117 373.582 684.316 379.326 677.911 C 380.294 683.028 380.842 689.593 384.291 693.675 L 384.34 693.268 L 384.914 694.075 C 387.772 698.013 391.968 703.724 396.7 705.001 L 398.417 704.868 C 400.533 708.286 403.075 714.201 406.753 715.774 L 411.047 713.572 C 413.528 715.089 414.547 716.772 415.132 719.66 C 417.814 732.907 413.835 748.17 415.733 761.834 C 395.657 763.61 375.527 764.76 355.448 766.58 C 339.345 768.039 323.276 770.201 307.144 771.24 C 307.106 733.426 308.83 694.681 305.913 656.994 z"/>
<path transform="translate(0,0)" fill="rgb(248,246,238)" d="M 308.071 555.452 C 325.29 550.043 343.386 547.797 360.999 544.016 C 379.172 540.114 397.801 534.295 416.253 532.277 A 6530.4 6530.4 0 0 1 416.263 719.241 C 415.983 732.628 418.311 748.856 415.733 761.834 C 413.835 748.17 417.814 732.907 415.132 719.66 C 414.547 716.772 413.528 715.089 411.047 713.572 L 406.753 715.774 C 403.075 714.201 400.533 708.286 398.417 704.868 L 396.7 705.001 C 391.968 703.724 387.772 698.013 384.914 694.075 L 384.34 693.268 L 384.291 693.675 C 380.842 689.593 380.294 683.028 379.326 677.911 C 373.582 684.316 373.087 690.117 371.541 698.327 C 371.379 698.086 371.224 697.839 371.055 697.602 C 370.774 697.208 370.475 696.828 370.192 696.436 C 367.753 693.053 344.988 678.722 341.018 678.24 C 338.292 677.91 336.216 679.213 333.241 678.415 C 333.948 675.017 332.481 671.868 333.854 668.768 C 333.661 666.854 333.199 665.761 332.452 664.015 C 335.06 662.16 335.952 658.967 336.466 655.933 C 336.957 653.04 337.134 650.588 336.487 647.73 L 334.982 646.364 C 329.225 647.603 326.822 659.985 320.519 656.146 C 313.695 643.914 323.047 622.594 316.457 613.929 C 313.565 613.192 309.06 614.048 307.195 612.023 C 307.279 593.158 308.429 574.32 308.071 555.452 z"/>
<path transform="translate(0,0)" fill="rgb(255,255,250)" d="M 376.91 667.06 C 380.311 664.6 383.499 661.879 386.947 659.471 C 388.42 661.483 388.42 661.291 390.9 661.753 C 394.942 664.162 397.419 669.303 398.331 673.963 C 399.014 677.45 398.017 679.701 396.103 682.53 C 394.145 685.423 390.569 688.233 390.431 691.838 C 391.741 696.4 394.043 701.055 396.7 705.001 C 391.968 703.724 387.772 698.013 384.914 694.075 L 384.34 693.268 L 384.291 693.675 C 380.842 689.593 380.294 683.028 379.326 677.911 C 373.582 684.316 373.087 690.117 371.541 698.327 C 371.379 698.086 371.224 697.839 371.055 697.602 C 370.774 697.208 370.475 696.828 370.192 696.436 C 367.753 693.053 344.988 678.722 341.018 678.24 C 338.292 677.91 336.216 679.213 333.241 678.415 C 333.948 675.017 332.481 671.868 333.854 668.768 C 335.993 668.899 338.265 668.627 340.413 668.527 L 341.812 672.884 L 343.237 673.265 C 344.2 671.469 344.534 670.753 346.283 669.68 C 348.318 668.431 351.092 667.223 353.477 667.732 C 350.947 671.545 346.536 671.033 344.438 674.994 C 345.89 683.812 364.032 687.158 369.92 692.841 C 370.212 693.123 370.447 693.457 370.711 693.766 C 371.376 692.08 371.186 692.848 371.441 691.077 C 372.584 683.118 375.297 678.782 381.179 673.371 C 382.541 675.936 381.735 678.318 381.906 681.16 C 382.107 684.481 383.009 684.966 385.545 687.013 C 386.526 691.445 386.797 694.074 390.776 696.777 C 390.58 695.858 390.403 694.935 390.181 694.022 C 389.842 692.627 389.127 690.96 389.159 689.518 C 389.244 685.763 392.808 682.492 394.968 679.671 C 396.7 677.407 397.732 675.302 396.962 672.359 C 396.017 668.747 393.482 665.79 390.49 663.725 C 378.247 661.273 375.981 679.083 365.394 680.372 C 363.406 680.614 362.03 680.097 360.445 678.959 C 358.312 677.428 356.608 672.383 356.803 669.741 C 356.837 669.275 356.99 668.825 357.083 668.367 L 359.796 674.001 L 361.218 677.894 C 363.442 679.354 363.406 679.391 366.041 679.096 C 370.724 676.139 373.682 671.466 376.91 667.06 z"/>
<path transform="translate(0,0)" fill="rgb(61,62,60)" d="M 374.78 646.553 C 376.444 641.416 379.753 619.949 382.78 617.966 C 385.925 624.48 378.431 636.606 386.455 640.914 C 388.51 642.017 389.531 641.856 391.521 641.145 L 391.861 639.594 C 389.856 637.191 389.748 637.154 389.635 634.044 C 391.837 628.575 400.24 622.411 404.47 617.731 L 405.094 618.491 C 404.207 621.569 400.151 627.05 401.055 629.428 L 402.761 629.332 C 405.827 624.986 406.312 618.966 409.689 615.18 L 411.019 616.449 L 410.83 618.16 C 409.918 627.032 414.117 636.444 406.507 643.262 C 406.142 643.589 405.741 643.873 405.358 644.179 C 403.006 643.419 404.092 644.032 402.153 642.245 C 402.128 642.791 402.116 643.337 402.078 643.882 C 401.812 647.653 400.637 649.372 397.786 651.792 C 397.062 652.406 396.274 652.942 395.516 653.515 C 393.427 655.094 392.94 655.915 392.082 658.433 C 391.869 659.058 391.625 659.673 391.404 660.295 L 390.9 661.753 C 388.42 661.291 388.42 661.483 386.947 659.471 C 383.499 661.879 380.311 664.6 376.91 667.06 C 373.682 671.466 370.724 676.139 366.041 679.096 C 363.406 679.391 363.442 679.354 361.218 677.894 L 359.796 674.001 L 357.083 668.367 C 357.407 666.591 357.354 664.281 358.747 663.046 C 362.995 659.282 373.31 661.816 378.595 662.373 C 379.825 658.791 380.448 656.788 378.576 653.172 C 377.897 651.86 377.094 650.615 376.356 649.338 L 374.78 646.553 z"/>
<path transform="translate(0,0)" fill="rgb(255,255,250)" d="M 388.71 555.545 C 389.061 555.507 389.41 555.457 389.761 555.431 C 396.172 554.95 401.008 555.594 406.001 559.932 C 409.856 563.281 412.487 568.129 412.768 573.268 C 412.987 577.277 411.678 580.999 408.822 583.846 C 403.989 588.664 396.945 588.324 390.58 588.513 C 383.489 584.495 382.525 581.215 377.668 575.363 C 375.811 573.125 374.841 572.568 371.994 572.312 C 361.782 576.334 354.041 591.137 349.673 600.639 C 353.228 601.853 357.244 602.744 359.801 605.627 C 360.345 609.182 361.887 618.782 360.056 621.302 L 356.489 619.092 L 354.004 620.11 C 352.347 622.07 351.57 623.001 351.316 625.59 C 352.994 628.085 354.793 628.254 357.553 629.323 C 356.228 631.426 352.63 632.443 350.362 633.526 C 349.109 632.124 348.16 631.104 347.783 629.179 C 346.93 624.819 349.748 622.013 351.939 618.665 C 353.27 616.63 354.382 615.613 353.869 613.105 C 351.726 611.89 351.247 611.465 348.708 612.204 C 332.472 616.931 350.146 634.997 346.563 643.625 C 344.071 644.958 342.095 644.683 339.389 644.507 C 335.403 641.481 333.624 636.097 332.982 631.318 C 330.642 613.89 341.27 589.42 351.907 575.865 C 361.516 563.62 373.529 557.635 388.71 555.545 z"/>
<path transform="translate(0,0)" fill="rgb(248,246,238)" d="M 389.21 565.624 C 391.308 565.919 393.538 566.171 395.562 566.806 C 398.668 567.781 401.951 571.026 402.89 574.137 C 404.106 578.166 402.711 580.904 400.7 584.251 C 397.394 579.397 393.811 577.219 389.652 573.447 C 387.666 571.646 386.689 570.844 386.624 568.137 L 389.21 565.624 z"/>
<path transform="translate(0,0)" fill="rgb(255,255,250)" d="M 429.76 823.375 L 430.679 823.781 C 431.022 824.331 431.492 824.819 431.708 825.43 C 432.813 828.55 431.725 880.577 431.723 889.991 L 431.963 1126.37 C 394.292 1118.78 357.179 1108.69 319.397 1101.45 L 292.632 1096.18 C 291.316 1067.33 291.975 1038.33 291.742 1009.45 L 291.03 831.08 C 308.246 830.827 325.619 829.2 342.813 828.15 A 4945.08 4945.08 0 0 1 429.76 823.375 z"/>
<path transform="translate(0,0)" fill="rgb(157,175,131)" d="M 368.657 973.426 L 370.391 972.442 L 371.112 973.241 C 371.572 977.759 371.252 986.179 374.412 989.247 C 374.862 993.482 375.245 997.709 376.057 1001.89 C 378.053 998.647 378.374 994.391 379.107 990.661 L 418.998 990.912 L 418.559 1109.62 C 382.367 1102.62 345.716 1097.32 309.952 1088.3 C 309.555 1058.89 311.108 1029.16 309.838 999.832 C 317.682 996.338 324.687 993.572 333.327 993.029 C 337.01 992.798 340.469 992.323 344.109 991.706 C 345.725 991.235 347.702 991.741 349.372 991.932 L 351.453 991.248 A 261.004 261.004 0 0 1 352.489 986.008 C 355.265 991.99 355.598 999.824 356.21 1006.37 C 358.038 1008.53 359.834 1010.46 361.86 1012.42 C 365.404 1015.85 364.976 1021.72 367.673 1026.09 L 368.791 1026.01 C 369.164 1022.93 368.435 1020.24 367.77 1017.26 L 368.621 1016.63 C 371.102 1018.57 372.772 1020.61 375.947 1020.93 C 377.848 1018.45 377.77 1016.3 377.393 1013.25 C 377.152 1011.3 377.163 1009.01 375.945 1007.45 C 372.516 1007.82 372.572 1007.82 369.71 1005.89 C 367.228 1005.93 366.718 1009.17 364.152 1010.36 L 361.476 1009.35 C 360.618 1008.12 359.915 1007.02 359.697 1005.49 C 358.616 997.928 361.706 989.39 366.441 983.581 L 366.98 984.321 C 367.44 980.662 367.974 977.05 368.657 973.426 z"/>
<path transform="translate(0,0)" fill="rgb(61,62,60)" d="M 374.412 989.247 C 374.862 993.482 375.245 997.709 376.057 1001.89 L 375.049 1005.14 C 373.028 1004.3 371.538 1003.25 370.397 1001.3 C 368.706 998.415 369.378 997.345 370.192 994.312 C 371.713 993.267 372.553 992.396 373.489 990.829 C 373.802 990.305 374.105 989.774 374.412 989.247 z"/>
<path transform="translate(0,0)" fill="rgb(177,209,218)" d="M 308.108 859.006 C 325.526 859.198 343.038 857.84 360.456 857.317 A 2505.63 2505.63 0 0 1 419.273 856.818 L 418.998 990.912 L 379.107 990.661 C 378.374 994.391 378.053 998.647 376.057 1001.89 C 375.245 997.709 374.862 993.482 374.412 989.247 C 371.252 986.179 371.572 977.759 371.112 973.241 L 370.391 972.442 L 368.657 973.426 C 367.974 977.05 367.44 980.662 366.98 984.321 L 366.441 983.581 C 361.706 989.39 358.616 997.928 359.697 1005.49 C 359.915 1007.02 360.618 1008.12 361.476 1009.35 L 364.152 1010.36 C 366.718 1009.17 367.228 1005.93 369.71 1005.89 C 372.572 1007.82 372.516 1007.82 375.945 1007.45 C 377.163 1009.01 377.152 1011.3 377.393 1013.25 C 377.77 1016.3 377.848 1018.45 375.947 1020.93 C 372.772 1020.61 371.102 1018.57 368.621 1016.63 L 367.77 1017.26 C 368.435 1020.24 369.164 1022.93 368.791 1026.01 L 367.673 1026.09 C 364.976 1021.72 365.404 1015.85 361.86 1012.42 C 359.834 1010.46 358.038 1008.53 356.21 1006.37 C 355.598 999.824 355.265 991.99 352.489 986.008 A 261.004 261.004 0 0 0 351.453 991.248 L 349.372 991.932 C 347.702 991.741 345.725 991.235 344.109 991.706 C 340.469 992.323 337.01 992.798 333.327 993.029 C 324.687 993.572 317.682 996.338 309.838 999.832 C 308.818 982.12 309.198 964.235 309.041 946.494 L 308.108 859.006 z"/>
<path transform="translate(0,0)" fill="rgb(255,255,250)" d="M 375.468 868.372 C 378.859 868.014 382.048 867.527 385.434 868.193 C 387.428 870.424 387.161 871.607 387.483 874.524 C 384.161 874.767 381.8 874.716 378.591 873.779 C 376.531 871.978 376.096 871.024 375.468 868.372 z"/>
<path transform="translate(0,0)" fill="rgb(61,62,60)" d="M 353.873 955.284 C 355.937 951.339 357.977 947.393 360.225 943.549 L 361.665 943.391 C 364.254 947.601 365.759 957.78 370.991 959.014 C 371.816 959.209 372.347 959.225 373.163 959.29 L 375.518 959.823 C 377.936 964.491 377.378 970.585 376.003 975.499 L 374.445 977.01 C 372.751 975.926 372.118 974.966 371.112 973.241 L 370.391 972.442 L 368.657 973.426 C 368.607 971.002 368.254 970.931 367.019 968.98 C 366.793 965.351 369.187 963.979 371.516 961.305 C 371.06 961.338 370.599 961.324 370.149 961.403 C 366.979 961.961 365.613 964.148 363.844 966.539 C 363.602 966.866 363.368 967.198 363.13 967.528 L 362.4 966.565 C 363.069 965.564 363.845 964.509 364.324 963.393 C 365.095 961.596 365.806 959.793 365.054 957.954 L 362.495 958.529 C 361.154 960.05 360.262 960.983 358.54 962.109 C 357.478 960.222 356.438 958.508 355.091 956.806 L 353.873 955.284 z"/>
<path transform="translate(0,0)" fill="rgb(61,62,60)" d="M 337.607 982.49 C 337.189 980.426 336.77 979.081 337.346 977.019 C 338.796 971.831 338.705 966.678 340.523 961.491 L 341.93 961.074 L 343.428 963.506 L 345.189 962.579 C 347.366 958.378 347.512 956.997 351.983 955.219 C 355.387 960.483 353.494 966.531 352.47 972.324 L 356.103 973.12 C 356.552 978.803 355.201 983.955 356.246 989.685 L 357.388 989.748 C 357.947 983.718 358.853 978.777 360.97 973.079 L 366.441 983.581 C 361.706 989.39 358.616 997.928 359.697 1005.49 C 359.915 1007.02 360.618 1008.12 361.476 1009.35 L 364.152 1010.36 C 366.718 1009.17 367.228 1005.93 369.71 1005.89 C 372.572 1007.82 372.516 1007.82 375.945 1007.45 C 377.163 1009.01 377.152 1011.3 377.393 1013.25 C 377.77 1016.3 377.848 1018.45 375.947 1020.93 C 372.772 1020.61 371.102 1018.57 368.621 1016.63 L 367.77 1017.26 C 368.435 1020.24 369.164 1022.93 368.791 1026.01 L 367.673 1026.09 C 364.976 1021.72 365.404 1015.85 361.86 1012.42 C 359.834 1010.46 358.038 1008.53 356.21 1006.37 C 355.598 999.824 355.265 991.99 352.489 986.008 A 261.004 261.004 0 0 0 351.453 991.248 L 349.372 991.932 C 348.704 984.753 351.956 979.582 351.872 972.789 L 349.301 975.39 C 347.537 974.649 347.5 975.068 346.724 973.155 C 345.736 970.718 345.043 968.179 344.31 965.657 C 342.348 967.382 338.268 979.469 337.607 982.49 z"/>
<path transform="translate(0,0)" fill="rgb(177,209,218)" d="M 996.705 727.8 C 996.874 727.334 997.055 726.872 997.212 726.403 C 999.292 720.179 998.565 710.699 998.507 704.059 C 998.313 682.084 994.718 636.207 999.456 616.825 C 1000.89 610.966 1003.52 604.763 1008.97 601.602 C 1019.26 595.628 1057.45 594.081 1070.78 592.68 C 1113.54 588.186 1155.23 578.76 1197.8 573.471 C 1203.8 572.724 1211.6 570.93 1217.38 572.819 C 1219.18 573.406 1220.62 574.135 1221.94 575.494 C 1225.44 604.421 1223.02 646.672 1223.09 677.105 L 1223.28 740.147 C 1223.26 752.377 1223.93 765.611 1222.09 777.714 C 1221.22 783.393 1218.37 788.673 1214.88 793.139 C 1210 799.364 1199.65 800.377 1192.14 801.247 C 1178.01 802.882 1163.49 803.014 1149.28 803.695 L 1078.28 807.345 C 1062.29 808.194 1018.81 812.598 1005.54 810.508 C 1006.72 807.597 1007.49 804.676 1008.13 801.608 C 1014.14 772.989 1012.8 752.336 996.705 727.8 z"/>
<path transform="translate(0,0)" fill="rgb(130,126,86)" d="M 1118.97 628.494 C 1128.38 647 1135.22 683.188 1141.52 704.566 C 1148.85 683.304 1153.82 660.547 1162.13 639.754 C 1176.72 674.778 1187.92 711.447 1198.92 747.716 C 1171.38 751.301 1143.72 754.204 1116.14 757.402 C 1090.95 760.063 1065.51 762.866 1040.21 764.165 C 1044.02 744.392 1050.22 724.794 1054.75 705.136 C 1058.1 690.585 1059.66 674.307 1064.7 660.357 C 1074.73 680.624 1080.73 702.788 1091.24 723.009 C 1100.04 691.353 1109.64 659.994 1118.97 628.494 z"/>
<path transform="translate(0,0)" fill="rgb(255,255,250)" d="M 487.008 516.929 C 511.253 519.984 535.912 521.101 560.256 523.4 L 651.563 532.895 C 692.008 536.834 732.756 540.214 773.027 545.654 L 772.779 813.747 C 756.594 811.222 734.248 806.995 719.228 800.464 C 717.573 797.657 715.918 794.651 713.889 792.097 C 711.093 788.578 706.723 786.099 704.615 782.057 C 703.303 779.542 703.679 778.151 704.336 775.51 C 706.987 772.083 711.117 770.877 714.997 769.222 C 733.899 722.929 725.023 713.377 718.495 667.272 C 725.19 663.429 731.588 659.339 737.17 653.956 C 743.715 647.644 749.353 639.268 749.109 629.814 C 749.025 626.531 748.047 624.821 745.736 622.6 C 736.071 620.012 724.274 623.704 714.591 625.492 C 709.021 622.521 704.047 619.291 699.205 615.242 C 677.082 603.674 647.958 605.86 624.708 613.135 C 608.208 618.299 594.228 627.266 586.035 643.079 C 576.841 660.825 575.788 684.245 582.204 703.054 C 588.972 722.898 617.542 738.438 606.728 762.429 C 599.701 778.018 573.656 799.113 559.051 807.112 C 550.823 811.618 541.708 814.652 532.931 817.911 C 529.345 819.478 526.014 821.374 522.782 823.572 C 502.919 837.078 494.45 862.281 491.713 885.125 C 490.499 895.253 490.319 906.012 488.278 915.971 L 487.904 917.731 C 484.293 872.804 486.878 824.913 486.888 779.695 L 487.008 516.929 z"/>
<path transform="translate(0,0)" fill="rgb(254,229,167)" d="M 532.931 817.911 L 532.245 667.287 C 532.014 638.518 530.075 603.074 532.07 574.962 C 532.33 571.299 532.458 567.771 535.22 565.004 C 539.019 561.197 544.621 560.98 549.696 561.087 C 578.947 561.702 608.315 565.422 637.486 567.598 C 652.999 568.756 670.449 568.09 685.62 571.119 C 689.3 571.853 692.855 573.297 695.412 576.14 C 703.205 584.804 699.772 604.391 699.205 615.242 C 677.082 603.674 647.958 605.86 624.708 613.135 C 608.208 618.299 594.228 627.266 586.035 643.079 C 576.841 660.825 575.788 684.245 582.204 703.054 C 588.972 722.898 617.542 738.438 606.728 762.429 C 599.701 778.018 573.656 799.113 559.051 807.112 C 550.823 811.618 541.708 814.652 532.931 817.911 z"/>
<path transform="translate(0,0)" fill="rgb(255,255,250)" d="M 965.978 956.923 C 1010.72 958.218 1055.17 960.692 1099.99 961.051 C 1150.26 961.453 1200.74 959.74 1250.96 961.789 L 1250.84 1171.82 L 1250.75 1224.05 C 1250.75 1232.72 1251.79 1242.99 1250.19 1251.42 L 1248.18 1252.58 A 9905.48 9905.48 0 0 0 960.787 1213.47 C 960.076 1165.81 961.023 1118.02 961.027 1070.34 C 961.03 1040.1 959.19 1006.91 961.567 977.114 C 962.14 969.936 963.548 963.688 965.978 956.923 z"/>
<path transform="translate(0,0)" fill="rgb(88,133,135)" d="M 995.702 989.126 C 1014.12 987.538 1033.49 989.392 1051.98 990.082 L 1133.68 992.482 C 1150.92 992.931 1185.5 991.004 1200.24 993.961 C 1206.74 995.266 1212.07 998.145 1215.61 1003.88 A 34.431 34.431 0 0 1 1220.76 1018.8 C 1222.43 1034.61 1221.35 1051.29 1221.55 1067.21 C 1221.83 1090.26 1224.79 1178.77 1219.6 1197.14 C 1217.81 1203.48 1212.84 1206.52 1207.37 1209.5 C 1201.59 1211.04 1196.36 1211.15 1190.46 1210.58 C 1176.81 1209.26 1163.14 1206.23 1149.59 1203.99 C 1133.57 1201.34 1117.33 1199.23 1101.21 1197.23 C 1070.61 1193.44 1038.69 1193.16 1008.5 1186.98 C 1000.32 1185.31 992.046 1182.43 987.423 1175.01 C 984.775 1170.77 983.567 1166.18 983.128 1161.24 C 982.253 1151.36 982.87 1141.02 982.945 1131.1 L 983.488 1074.31 C 983.644 1058.39 981.573 1014.99 985.177 1001.75 C 986.932 995.296 989.944 992.194 995.702 989.126 z"/>
<path transform="translate(0,0)" fill="rgb(248,246,238)" d="M 1030.12 1081.84 C 1031.45 1083.03 1030.88 1082.32 1031.82 1084.28 C 1035.64 1092.26 1041.97 1100.87 1043.57 1109.55 C 1042.23 1109.38 1040.99 1109.02 1039.69 1108.67 C 1033.79 1103.03 1030.93 1089.75 1030.12 1081.84 z"/>
<path transform="translate(0,0)" fill="rgb(255,255,250)" d="M 1044.41 1084.54 C 1057.74 1088.49 1072.32 1087.74 1086.12 1088.36 L 1086.68 1089.41 L 1083.8 1091.4 C 1072.84 1088.55 1059.62 1089.45 1048.21 1088.94 C 1057.13 1113.83 1066.44 1133.82 1090.49 1146.92 A 333.481 333.481 0 0 1 1089.77 1141.05 C 1089.37 1137.81 1089.55 1135.95 1090.61 1132.88 L 1091.93 1132.93 C 1093.63 1136.75 1093.37 1140.15 1093.27 1144.24 C 1094.03 1149.42 1093.22 1155.59 1094.87 1160.55 C 1095.71 1163.07 1096.76 1163.94 1098.96 1165.25 C 1100.66 1163.34 1100.13 1160.92 1100.62 1158.45 C 1101.05 1156.29 1100.71 1156.32 1102.66 1155.05 C 1102.9 1155.26 1103.17 1155.45 1103.38 1155.69 C 1105.48 1158.16 1105.92 1163.33 1105.29 1166.42 C 1104.83 1168.69 1103.84 1170.47 1101.73 1171.59 C 1099.58 1172.73 1097.37 1172.12 1095.25 1171.44 C 1090.51 1166.63 1090.98 1160.91 1090.65 1154.56 C 1067.33 1140.94 1055.84 1123.84 1044.65 1099.61 L 1044.52 1100.22 C 1043.99 1099.27 1043.38 1098.27 1043.04 1097.24 C 1041.71 1093.12 1042.22 1088.17 1044.41 1084.54 z"/>
<path transform="translate(0,0)" fill="rgb(248,246,238)" d="M 1091.73 1023.66 C 1091.76 1017.53 1091.52 1012.42 1093.97 1006.7 L 1096.09 1006.45 C 1097.96 1009.06 1098.93 1012.45 1098.97 1015.65 L 1099.14 1024.54 C 1098.62 1026.96 1098.7 1028.81 1096.44 1030.31 C 1095.99 1030.61 1095.46 1030.8 1094.97 1031.04 A 32.0736 32.0736 0 0 0 1081.07 1033.45 C 1063.73 1040.59 1052.54 1059.16 1045.97 1075.79 C 1056.52 1076.65 1067.02 1077.07 1077.59 1077.39 C 1078.15 1074.48 1078.69 1070.47 1080.47 1068.01 C 1081.93 1066 1083.23 1066.27 1085.42 1066.27 C 1088.29 1069 1085.19 1070.56 1086.64 1073.67 C 1087.93 1070.65 1089.45 1067.55 1090.33 1064.39 C 1090.42 1064.05 1090.49 1063.71 1090.57 1063.36 L 1091.74 1065.64 C 1091.66 1065.93 1091.53 1066.21 1091.49 1066.51 C 1090.71 1073.15 1089.79 1074.8 1084.79 1079.74 C 1074.36 1080.2 1042.03 1081.82 1033.89 1077.79 L 1033.44 1076.15 C 1035.29 1073.71 1037.24 1073.4 1040.04 1072.66 A 331.259 331.259 0 0 1 1045.38 1062.62 C 1056.5 1042.54 1069.43 1030.06 1091.73 1023.66 z"/>
<path transform="translate(0,0)" fill="rgb(248,246,238)" d="M 1103.83 1029.78 C 1103.95 1023.95 1102.79 1010.81 1105.93 1006.34 C 1108.4 1007.99 1109.59 1010.82 1110.07 1013.7 C 1110.81 1018.11 1109.97 1022.96 1110.11 1027.46 C 1125.15 1030.87 1134.75 1041.38 1142.6 1053.98 C 1147.61 1062.03 1152.68 1071.58 1153.2 1081.19 L 1152.68 1082.29 C 1151.4 1082.56 1151.89 1082.66 1150.46 1081.74 C 1144.03 1077.56 1134.48 1040.9 1114.95 1042.15 C 1111.52 1044.34 1110.57 1046.02 1109.73 1049.99 C 1108.11 1057.58 1108.57 1075.78 1104.77 1081.31 C 1103.96 1072.96 1108.45 1048.13 1103.92 1042.65 C 1100.37 1042.62 1098.97 1044.32 1096.3 1046.55 C 1095.96 1044.49 1095.91 1042.63 1095.96 1040.55 L 1095.1 1040.44 L 1092.15 1045.76 C 1091.4 1042.89 1091.35 1039.75 1092.8 1037.08 C 1093.71 1035.4 1095.42 1034.73 1097.22 1034.39 C 1097.58 1034.32 1097.94 1034.28 1098.3 1034.23 L 1095.75 1033.37 L 1094.97 1031.04 C 1095.46 1030.8 1095.99 1030.61 1096.44 1030.31 C 1098.7 1028.81 1098.62 1026.96 1099.14 1024.54 L 1100.43 1028.28 L 1103.83 1029.78 z"/>
<path transform="translate(0,0)" fill="rgb(88,114,115)" d="M 1099.14 1024.54 L 1100.43 1028.28 L 1103.83 1029.78 C 1107.71 1031.14 1111.8 1032.23 1115.17 1034.64 L 1114.79 1035.75 C 1108.79 1036.87 1104.12 1035.84 1098.3 1034.23 L 1095.75 1033.37 L 1094.97 1031.04 C 1095.46 1030.8 1095.99 1030.61 1096.44 1030.31 C 1098.7 1028.81 1098.62 1026.96 1099.14 1024.54 z"/>
<path transform="translate(0,0)" fill="rgb(248,246,238)" d="M 1113.72 1087.93 C 1122.27 1088.76 1130.76 1089.49 1139.16 1091.29 C 1132.02 1091.7 1124.91 1091.6 1117.76 1091.5 C 1115.16 1108.22 1108.74 1124.28 1105.52 1141.02 L 1119.84 1140.83 C 1131.15 1134.18 1137.6 1127.57 1141.21 1114.48 C 1143.09 1107.68 1141.86 1095.71 1147.68 1091.41 L 1148.99 1092.06 C 1150.42 1100.88 1145.58 1114.95 1143.65 1123.89 C 1145.5 1120.22 1147.31 1116.6 1148.25 1112.58 C 1149.32 1108 1148.96 1093.92 1153.22 1092.14 C 1155.4 1093.51 1156.7 1094.22 1157.53 1096.89 C 1160.08 1105.1 1148.73 1126.31 1143.73 1132.76 C 1140.98 1136.31 1137.34 1139.67 1133.48 1141.93 L 1132.13 1141.52 L 1131.38 1139.54 C 1126.47 1142.48 1122.04 1146.41 1116.81 1148.69 C 1115.17 1149.59 1113.52 1150.51 1111.84 1151.34 C 1108.85 1152.82 1106.2 1154.17 1102.85 1153.08 C 1101.1 1151.18 1101.21 1151.02 1100.99 1148.41 C 1102.51 1134.56 1108.84 1100.72 1113.72 1087.93 z"/>
<path transform="translate(0,0)" fill="rgb(177,209,218)" d="M 785.857 1206.88 L 786.54 1207.51 C 790.601 1218.86 791.312 1246.08 792.425 1259.44 C 796.402 1307.13 798.518 1355.46 796.796 1403.3 C 793.897 1483.84 783.011 1564.56 775.497 1644.8 C 774.018 1660.58 773.348 1708.63 769.6 1719.95 C 768.05 1724.63 763.001 1728.23 758.73 1730.27 C 743.951 1737.32 723.633 1736.55 708.469 1731.23 C 700.394 1685.82 693.942 1640.19 693.058 1594 C 692.272 1552.88 695.319 1511.34 692.657 1470.33 C 689.262 1418.05 677.392 1363.11 666.922 1311.69 C 680.635 1313.44 722.965 1315.38 733.322 1306.2 C 735.331 1304.43 734.986 1303.32 734.87 1300.91 C 733.315 1299.14 732.51 1298.7 730.068 1298.88 C 706.879 1300.63 685.32 1307.42 661.82 1300.35 C 643.041 1294.7 635.666 1283.52 629.992 1265.86 C 629 1262.77 628.092 1258.04 626.143 1255.41 C 624.417 1253.08 622.913 1253.34 620.294 1253.13 C 618.583 1254.32 618.136 1254.47 617.814 1256.69 C 616.364 1266.7 630.476 1293.26 638.289 1299.5 C 643.2 1303.42 654.518 1307.27 657.381 1311.24 C 660.239 1330.17 666.639 1351.52 666.983 1370.4 C 667.25 1385.08 664.377 1400.34 662.441 1414.87 C 658.606 1443.65 653.971 1472.35 650.707 1501.19 C 643.739 1562.77 641.911 1624.41 640.278 1686.31 C 618.144 1695.35 599.745 1696.09 577.305 1688.34 C 571.238 1639.8 561.804 1592.51 561.272 1543.31 C 561.02 1519.93 565.914 1496.99 566.866 1473.7 C 568.238 1440.16 566.76 1406.55 564.786 1373.07 C 563.025 1343.18 561.069 1313.09 555.889 1283.56 A 108.729 108.729 0 0 0 567.982 1292.21 C 577.58 1298.1 594.115 1305.32 605.582 1302.55 C 607.236 1300.51 607.103 1300.49 607.037 1297.83 C 606.445 1297.02 606.042 1296.02 605.261 1295.38 C 598.483 1289.82 573.623 1289.78 555.883 1273.16 C 540.141 1258.41 543.338 1232.26 542.97 1212.58 C 561.278 1223.4 578.714 1231.05 599.562 1235.66 C 659.031 1248.79 734.283 1239.81 785.857 1206.88 z"/>
<path transform="translate(0,0)" fill="rgb(61,62,60)" d="M 635.966 1470.71 C 636.258 1470.76 636.561 1470.75 636.841 1470.84 C 639.573 1471.75 639.727 1472.54 641.008 1474.97 C 640.903 1476.55 641.099 1477.59 640.163 1478.95 C 634.695 1486.92 618.318 1490.34 609.248 1491.84 L 606.605 1490.91 C 604.784 1488.68 604.58 1488.21 604.109 1485.37 C 607.605 1480.36 618.803 1480.67 624.557 1478.61 C 628.583 1477.17 632.629 1473.36 635.966 1470.71 z"/>
<path transform="translate(0,0)" fill="rgb(61,62,60)" d="M 760.205 1484.52 C 760.692 1484.73 761.211 1484.88 761.667 1485.15 C 763.946 1486.52 765.203 1488.51 765.907 1490.93 C 765.192 1493.01 764.217 1494.2 762.65 1495.69 C 751.207 1506.58 735.033 1511.15 719.652 1511.09 C 718.651 1510.7 717.16 1510.25 716.271 1509.58 C 714.381 1508.17 713.314 1506.91 712.841 1504.61 C 717.757 1499.77 726.946 1501.45 733.336 1501.25 C 744.41 1500.89 753.003 1491.97 760.205 1484.52 z"/>
<path transform="translate(0,0)" fill="rgb(157,175,131)" d="M 707.327 810.407 C 723.206 809.15 751.007 817.703 766.92 821.298 C 751.755 835.517 744.104 854.073 740.171 874.239 C 735.104 900.214 735.991 933.83 751.839 956.271 C 761.005 969.251 773.961 974.16 788.99 976.721 C 788.622 1047.88 793.789 1119.32 790.574 1190.42 C 767.29 1212.8 730.978 1222.68 699.972 1227.87 C 656.179 1235.19 586.154 1233.07 549.262 1205.74 C 542.015 1200.37 538.128 1194.47 536.545 1185.6 C 531.979 1160.03 538.585 1127.02 539.147 1101.01 C 539.829 1069.48 534.79 1037.83 529.984 1006.78 A 5515.27 5515.27 0 0 1 520.609 943.609 C 519.498 935.438 519.415 926.998 517.955 918.906 C 517.528 916.545 516.909 914.551 515.232 912.778 C 514.094 911.575 513.48 911.889 511.96 911.786 L 509.872 913.757 C 505.528 924.882 520.627 1004.33 522.954 1021.46 C 525.203 1038.01 527.301 1054.61 529.038 1071.24 C 521.092 1069.59 511.157 1063.97 503.383 1064.54 C 501.384 1066.3 501.07 1066.53 500.329 1069.05 C 500.794 1070.27 500.785 1070.47 501.677 1071.64 C 506.036 1077.32 522.884 1079.6 529.875 1080.48 C 530.146 1093.16 530.857 1106.22 528.683 1118.75 C 514.563 1123.3 502.705 1123.49 488.545 1118.78 A 103.268 103.268 0 0 1 486.983 1116.52 C 474.337 1097.57 474.535 1076.49 478.942 1054.99 C 482.487 1056.71 485.705 1057.99 489.69 1058.18 C 492.399 1058.32 493.834 1058.54 495.836 1056.62 C 495.139 1050.79 485.059 1045.77 480.702 1041.71 L 479.721 1040.79 C 485.367 1014.4 491.66 988.887 495.426 962.061 C 500.452 926.259 493.365 869.493 516.528 840.728 C 525.119 830.059 548.251 818.564 561.679 816.34 C 573.361 814.405 606.715 820.202 622.665 819.825 C 651.482 819.145 678.846 813.23 707.327 810.407 z"/>
<path transform="translate(0,0)" fill="rgb(254,229,167)" d="M 552.922 1578.38 C 454.137 1575.11 383 1563.01 298.463 1508.6 C 210.134 1451.75 135.808 1353 113.474 1249.55 C 97.9886 1177.83 110.107 1111.95 129.917 1042.71 C 134.222 1027.66 139.297 1012.84 143.486 997.76 C 156.493 950.93 166.828 904.466 170.252 855.853 C 173.427 810.785 169.147 765.955 166.159 721.024 C 161.45 650.197 157.74 579.824 166.01 509.09 C 170.873 467.493 180.31 425.653 203.501 390.117 C 218.949 366.447 238.083 346.889 262.844 333.017 C 294.413 315.331 331.384 305.9 365.667 295.063 A 1178.97 1178.97 0 0 0 439.889 268.854 C 473.319 256.083 504.716 239.635 537.167 224.695 C 586.871 201.812 639.186 182.493 692.827 171.262 C 722.281 165.096 751.407 162.702 781.464 162.808 C 862.95 163.098 924.472 183.279 996.321 220.622 C 1018.94 232.377 1041.06 244.465 1062.7 257.953 C 1075.42 265.876 1087.23 275.148 1099.76 283.35 C 1092.03 296.9 1082.69 309.492 1075.98 323.621 C 1050.88 376.496 1037.75 453.504 1053.89 510.634 C 1053.97 510.926 1054.07 511.213 1054.17 511.502 C 1036.33 515.755 1017.94 518.437 999.891 521.737 C 991.282 523.311 981.935 524.352 973.724 527.474 C 969.729 528.992 965.174 531.43 962.956 535.259 C 960.934 538.748 960.156 542.955 959.715 546.91 C 958.118 561.236 959.162 576.83 959.119 591.294 C 959.007 629.463 960.269 667.995 958.893 706.123 C 958.529 716.224 957.006 726.421 955.295 736.372 C 950.282 765.522 929.075 783.527 939.357 815.844 C 940.563 819.634 941.99 823.414 943.512 827.088 C 937.028 842.49 929.675 857.499 923.238 872.915 C 908.734 870.857 894.329 872.536 882.232 881.603 A 209.465 209.465 0 0 0 876.279 886.32 L 833.564 853.319 C 817 840.265 800.83 826.158 782.227 816.048 A 18357 18357 0 0 0 782.13 629.495 L 782.049 576.061 C 782.023 564.378 783.001 551.548 780.513 540.102 C 777.351 537.452 771.38 536.505 767.29 535.829 C 754.83 533.773 742.06 533.017 729.501 531.618 A 6162.67 6162.67 0 0 0 642.728 522.363 A 7926.82 7926.82 0 0 0 538.196 512.398 C 521.206 510.848 504.059 508.582 487.03 507.707 C 487.174 499.916 488.988 487.856 484.439 481.309 C 476.284 477.113 449.534 475.234 440.134 476.641 C 428.287 478.415 416.244 483.41 404.505 486.209 A 3528.3 3528.3 0 0 0 276.86 518.713 C 278.837 545.596 277.898 572.939 277.914 599.896 L 277.872 732.205 C 277.807 754.88 275.944 778.892 277.941 801.371 C 278.222 804.529 278.616 808.058 281.321 810.157 C 283.315 811.704 286.29 812.377 288.679 813.1 C 289.475 815.984 290.054 818.431 290.064 821.461 C 287.031 822.068 283.646 822.218 281.489 824.634 C 278.992 843.229 280.753 864.273 280.697 883.116 L 280.787 1009.5 L 280.907 1070.32 C 280.886 1078.96 279.7 1089.61 280.929 1098.02 C 281.172 1099.68 281.633 1100.6 282.655 1101.88 C 284.581 1104.3 287.082 1105.87 289.675 1107.48 L 288.826 1109.05 C 288.006 1110.61 287.657 1111.81 287.47 1113.57 C 289.616 1116.11 291.333 1116.58 294.515 1117.64 C 318.894 1125.78 350.492 1131.37 375.879 1137.09 C 395.254 1141.46 417.818 1148.38 437.482 1150 C 452.896 1151.27 471.77 1147.81 487.188 1145.8 C 487.493 1140.17 487.826 1134.57 488.397 1128.96 L 490.135 1129.18 C 493.62 1133.74 510.529 1200.14 511.721 1208.72 C 513.249 1219.72 511.575 1230.62 512.461 1241.62 C 513.403 1253.32 520.951 1286.78 534.752 1288.8 C 537.864 1289.25 540.704 1288.42 543.7 1287.68 C 545.479 1287.25 544.691 1287.35 546.442 1287.37 C 555.093 1315.08 559.313 1436.87 557.796 1469.9 C 557.079 1485.52 553.63 1500.74 552.29 1516.27 C 550.512 1536.88 551.641 1557.78 552.922 1578.38 z"/>
<path transform="translate(0,0)" fill="rgb(255,255,250)" d="M 901.628 292.211 C 905.676 292.171 909.632 292.573 913.434 294.072 A 25.8508 25.8508 0 0 1 928.048 308.65 A 27.1084 27.1084 0 0 1 927.579 329.346 C 924.099 337.326 918.318 341.229 910.525 344.471 C 906.006 344.463 901.47 344.107 896.956 343.868 C 889.056 339.271 883.341 333.29 880.926 324.239 C 879.144 317.559 879.802 310.126 883.455 304.178 C 887.766 297.156 893.92 294.228 901.628 292.211 z"/>
<path transform="translate(0,0)" fill="rgb(254,229,167)" d="M 899.731 301.119 C 902.424 301.06 905.297 300.902 907.938 301.497 C 912.488 302.523 916.706 305.492 919.106 309.498 C 921.5 313.495 921.898 318.318 920.667 322.766 C 918.859 329.3 914.685 332.303 909.074 335.575 C 906.627 335.771 904.138 335.954 901.729 335.356 C 897.079 334.2 893.071 331.35 890.617 327.213 A 17.9701 17.9701 0 0 1 889.041 312.559 C 890.863 306.885 894.7 303.898 899.731 301.119 z"/>
<path transform="translate(0,0)" fill="rgb(255,255,250)" d="M 406.603 1387.09 C 413.44 1386.54 419.115 1386.38 425.324 1389.73 A 29.7632 29.7632 0 0 1 439.723 1407.54 A 32.3478 32.3478 0 0 1 437.062 1432.56 C 432.45 1440.82 425.591 1444.55 416.757 1447.01 C 411.184 1447.3 405.629 1447.4 400.413 1445.13 C 392.839 1441.84 387.029 1435.93 384.018 1428.22 C 380.969 1420.4 381.157 1411.73 384.876 1404.18 C 389.377 1395.05 397.242 1390.22 406.603 1387.09 z"/>
<path transform="translate(0,0)" fill="rgb(254,229,167)" d="M 408.507 1397.11 C 412.392 1396.71 415.804 1396.6 419.377 1398.4 C 424.125 1400.79 427.548 1405.03 429.163 1410.06 A 22.9082 22.9082 0 0 1 427.592 1427.86 C 424.711 1433.23 420.631 1435.35 415.031 1437.16 C 412.113 1437.13 409.175 1437.11 406.349 1436.29 C 401.15 1434.8 396.326 1431.2 393.844 1426.34 A 18.5068 18.5068 0 0 1 392.785 1412.19 C 395.464 1403.94 401.144 1400.61 408.507 1397.11 z"/>
</svg>