<svg version="1.1" xmlns="http://www.w3.org/2000/svg" style="display: block;" viewBox="0 0 2048 2048" width="1024" height="1024">
<path transform="translate(0,0)" fill="rgb(254,254,254)" d="M 0 0 L 2048 0 L 2048 2048 L 0 2048 L 0 0 z"/>
<path transform="translate(0,0)" fill="rgb(35,31,32)" d="M 1743.13 677.462 L 1745.68 679.113 C 1750.06 687.661 1750.77 704.995 1750.5 714.747 C 1748.8 714.954 1749.77 714.967 1747.63 714.445 C 1743.09 705.011 1742.77 687.927 1743.13 677.462 z"/>
<path transform="translate(0,0)" fill="rgb(35,31,32)" d="M 325.084 1056.62 C 321.329 1056.92 316.781 1055.76 312.94 1055.56 A 303.151 303.151 0 0 0 285.805 1055.33 C 265.556 1056.16 243.785 1058.71 224.312 1064.39 C 216.456 1066.69 209.03 1070.39 201.109 1072.41 L 200.135 1071.61 C 200.666 1068.89 202.906 1066.86 205.106 1065.32 C 227.885 1049.4 302.934 1047.55 329.687 1052.47 C 339.62 1053.95 348.428 1056.26 357.669 1060.22 C 346.727 1059.57 335.979 1057.58 325.084 1056.62 z"/>
<path transform="translate(0,0)" fill="rgb(35,31,32)" d="M 1270.77 1399.19 C 1275.35 1398.64 1297.19 1395.7 1300.45 1398.27 C 1298.9 1400.43 1298.71 1400.7 1295.94 1401.22 C 1289.63 1402.41 1282.84 1401.79 1276.45 1402.47 C 1276.08 1402.54 1275.71 1402.62 1275.34 1402.68 C 1259.45 1404.93 1242.53 1405.01 1226.48 1406.09 L 1136.31 1412.61 C 1100.79 1415.16 1065.54 1420.86 1029.98 1422.64 C 1025.65 1422.85 1019.69 1423.74 1016.07 1420.93 L 1015.91 1419.09 C 1016.11 1418.86 1016.29 1418.59 1016.53 1418.38 C 1020.43 1415.03 1059.17 1414 1066.63 1413.32 C 1115.26 1408.92 1163.55 1403.98 1212.34 1401.11 C 1231.31 1399.99 1251.89 1397.41 1270.77 1399.19 z"/>
<path transform="translate(0,0)" fill="rgb(35,31,32)" d="M 1650.93 1574.46 C 1657.99 1574.03 1667.64 1572.11 1673.93 1575.69 C 1675.32 1578.24 1675.12 1578.34 1674.59 1581.23 C 1672.35 1583.58 1669.32 1583.79 1666.22 1583.86 C 1613.45 1584.95 1561.21 1589.98 1508.52 1592.4 A 5882.24 5882.24 0 0 0 1171 1615 C 1140.1 1618.09 1109.06 1620.57 1078.3 1624.9 C 1068.36 1625.41 1058.47 1625.86 1048.52 1625.92 C 1059.8 1623.26 1071.59 1621.88 1083.04 1620.09 C 1113.95 1615.28 1145.02 1611.78 1176.04 1607.79 C 1259.9 1597.01 1344.92 1587.69 1429.33 1583.04 C 1472.87 1580.65 1516.49 1581.26 1560.05 1579.46 C 1590.38 1578.21 1620.56 1575.29 1650.93 1574.46 z"/>
<path transform="translate(0,0)" fill="rgb(35,31,32)" d="M 1730.48 641.228 L 1729.71 640.767 C 1725.78 644.996 1724.16 652.001 1720.89 656.966 L 1719.47 656.667 C 1719.35 656.405 1719.19 656.156 1719.12 655.88 C 1717.32 649.546 1727.17 634.52 1730.34 628.788 C 1730.19 627.599 1730.08 626.509 1730.49 625.343 C 1731.24 623.211 1733.23 621.43 1735.37 620.816 C 1736.93 620.371 1736.52 620.611 1738.13 621.581 C 1738.94 624.095 1738.3 625.93 1737.67 628.384 C 1740.57 632.733 1748.32 641.918 1747.46 647.074 C 1745.12 646.89 1744.04 646.031 1742.56 644.237 C 1739.97 641.105 1738.22 637.657 1735.3 634.741 C 1735.09 636.677 1735.21 639.044 1734.13 640.677 L 1734.1 655.76 C 1736.75 674.445 1736.3 693.462 1739.34 712.167 L 1740.3 718.452 C 1742.68 719.844 1744.47 720.23 1747.13 720.726 L 1748.23 720.066 L 1748.59 717.901 C 1751.16 718.815 1752.18 722.146 1756.41 723.953 C 1771.62 730.44 1859.24 762.512 1863.24 773.804 C 1866.61 783.321 1852.75 851.582 1850.39 866.648 C 1846.84 889.276 1843.67 911.668 1841.54 934.484 C 1840.02 950.741 1839.34 967.074 1837.75 983.32 C 1836.18 999.274 1833.5 1015.07 1831.82 1031 C 1829.66 1051.37 1829.57 1072.85 1825.51 1092.9 C 1817.68 1095.84 1810.14 1098.89 1803.01 1103.32 C 1787.8 1096.94 1648.83 1009.89 1644.2 1001.39 C 1642.98 986.58 1648.67 965.707 1650.37 950.434 C 1652.36 932.517 1652.1 914.173 1653.02 896.172 C 1653.62 884.356 1655.23 872.714 1656.16 860.949 C 1656.28 859.43 1655.94 858.298 1655.35 856.923 C 1653.98 856.243 1653.48 856.042 1651.9 855.916 C 1642.47 857.839 1631.75 857.872 1622.1 858.709 A 4025.88 4025.88 0 0 0 1562.31 864.229 C 1514.89 869.134 1468.35 877.024 1421.64 886.257 C 1419.03 885.382 1418.77 884.916 1416.99 882.766 L 1417.26 880.918 C 1422.49 877.429 1455.18 875.975 1464.2 874.867 C 1486.01 872.189 1507.73 868.46 1529.52 865.547 A 1988.93 1988.93 0 0 1 1595.43 858.445 C 1614.01 856.642 1632.95 854.3 1651.65 854.76 C 1652.89 854.514 1653.99 854.032 1655.17 853.581 C 1659.02 846.422 1659.29 833.434 1660.43 825.185 C 1663.81 798.604 1665.22 771.959 1667.55 745.29 L 1668.27 733.6 C 1668.05 730.078 1669.47 730.033 1669.88 727.37 C 1670.26 724.894 1665.2 722.834 1666.46 718.62 C 1667.27 715.915 1670.07 713.421 1672.47 712.137 C 1691.83 701.78 1716.27 712.834 1735.25 717.989 C 1732.18 701.5 1731.41 684.867 1730.37 668.157 C 1729.73 659.043 1729.32 650.322 1730.48 641.228 z"/>
<path transform="translate(0,0)" fill="rgb(254,254,254)" d="M 1791.13 840.928 C 1791.25 834.942 1790.37 822.424 1793.9 817.724 C 1796.75 819.123 1797.26 820.966 1798.84 823.668 C 1797.72 829.531 1796.7 835.438 1793.16 840.39 L 1791.13 840.928 z"/>
<path transform="translate(0,0)" fill="rgb(254,254,254)" d="M 1681.41 728.671 L 1679.64 727.426 C 1712.53 724.034 1773.4 755.64 1803.75 768.515 C 1814.09 772.903 1824.9 776.037 1835.3 780.225 A 4208.81 4208.81 0 0 1 1822.89 897.674 C 1819.61 923.151 1815.26 948.54 1812.11 974.016 C 1807.38 1012.3 1805.46 1051.7 1797.8 1089.52 C 1782.92 1084.38 1769.26 1073.47 1755.96 1065.14 C 1738.26 1054.05 1720.85 1042.64 1703.32 1031.28 C 1686.27 1020.22 1668.51 1009.27 1653.14 995.897 C 1654.82 979.14 1656.69 962.329 1657.62 945.513 C 1659.85 905.143 1660.12 864.409 1667.1 824.423 C 1670.2 798.056 1670.97 771.404 1672.69 744.914 C 1672.85 741.011 1673.1 737.152 1672.66 733.259 L 1673.57 729.083 L 1675.33 728.046 L 1680.28 729.472 C 1691.17 739.004 1757.32 766.204 1772.93 771.634 C 1786.9 779.212 1804.52 784.972 1815.99 796.316 C 1815.19 810.129 1814.69 824.106 1812.1 837.728 C 1808.37 855.527 1807.83 873.373 1805.42 891.314 L 1788.44 1022.02 C 1786.61 1031.6 1784.83 1041.2 1782.62 1050.71 C 1777.99 1049.95 1769.76 1042.37 1765.46 1039.48 C 1754.5 1029.86 1740.83 1021.96 1728.8 1013.62 C 1738.63 1017.28 1763.7 1032.33 1770.01 1032.95 L 1771.78 1030.86 C 1772.49 1026.22 1774.86 1004.99 1772.63 1001.44 C 1766.82 992.199 1692.68 959.05 1679.11 955.719 C 1678.99 962.854 1680.13 974.293 1677.3 980.872 C 1674.16 967.19 1678.44 948.281 1679.64 934.053 L 1689.32 829.663 C 1690.67 815.94 1689.37 775.521 1692.17 767.226 C 1694.35 773.649 1694.37 781.552 1695.21 788.33 C 1717.68 806.023 1743.02 818.617 1768.09 832.049 C 1774.31 835.381 1780.17 839.285 1786.38 842.624 C 1789.3 844.018 1791.04 844.841 1794.33 844.365 C 1796.61 842.706 1798.22 841.207 1799.55 838.667 C 1802.32 833.356 1803.53 825.483 1801.98 819.701 C 1800.38 816.424 1799.13 813.017 1796.05 810.855 C 1793.98 810.366 1792.57 810.114 1790.43 810.018 C 1782.18 809.65 1717.16 756.272 1696.14 756.259 C 1693.9 758.877 1694.77 763.56 1692.13 764.783 C 1689.47 759.389 1689.78 752.246 1687.65 746.357 C 1684.91 761.568 1686.09 777.234 1684.72 792.602 C 1683.02 811.68 1679.32 830.539 1677.67 849.648 C 1675.36 876.263 1675.27 902.853 1673.62 929.499 C 1672.62 945.63 1668.55 967.673 1672.35 983.037 C 1674.62 985.996 1750.15 1036.34 1759.42 1041.54 C 1765.86 1045.97 1772.96 1051.68 1780.25 1054.62 L 1783.11 1057.15 L 1784.83 1056.67 C 1791.13 1048.35 1792.11 1034.13 1794.8 1024.06 C 1795.52 1011.14 1798.7 997.42 1800.18 984.429 C 1803.46 955.797 1807.97 927.535 1811.81 899.014 C 1814.64 877.967 1816.63 856.77 1819.41 835.69 C 1822.81 825.848 1826.07 804.108 1821.45 794.377 C 1814.5 779.753 1785.24 770.825 1770.72 765.246 C 1746.13 756.917 1722.28 746.331 1698.36 736.251 C 1692.66 733.846 1687.19 730.871 1681.41 728.671 z"/>
<path transform="translate(0,0)" fill="rgb(35,31,32)" d="M 308.348 873.2 C 330.804 814.658 353.59 756.248 374.44 697.098 C 376.115 692.346 382.34 670.197 384.333 667.71 C 384.736 667.208 386.944 666.203 387.289 666.059 C 393.47 663.477 423.516 668.008 431.939 668.516 C 469.497 670.778 507.075 671.102 544.587 674.688 C 568.65 676.989 592.686 680.594 616.673 683.615 C 630.813 685.395 645.177 686.393 659.243 688.555 C 670.874 690.343 682.346 693.324 693.982 694.957 C 703.549 696.3 714.58 694.509 723.344 699.192 C 725.022 700.089 726 700.822 726.912 702.542 C 725.779 713.408 719.165 724.384 715.26 734.582 C 711.541 744.293 708.268 754.297 705.296 764.259 C 689.923 815.786 677.207 868.022 663.018 919.871 C 658.181 937.545 654.016 955.859 648.309 973.243 C 647.178 976.689 645.94 979.879 643.582 982.679 C 635.994 985.058 577.041 967.382 565.601 964.44 C 522.697 953.408 480.027 941.644 436.942 931.289 L 352.988 911.033 C 340.792 908.177 313.31 904.104 303.401 898.643 C 301.473 897.581 300.762 896.5 300.477 894.226 C 299.965 890.142 302.572 884.498 303.909 880.651 C 299.204 873.524 271.76 823.114 269.999 821.919 L 269.297 824.039 C 269.502 830.808 268.243 836.161 264.982 842.105 L 265.009 841.726 L 262.884 842.685 L 264.204 843.029 C 261.441 837.455 263.883 825.725 263.871 819.067 C 263.971 816.599 264.069 815.458 265.538 813.438 L 265.106 812.168 C 263.384 812.846 262.618 813.309 261.206 814.411 C 260.375 810.551 258.009 799.03 260.64 795.781 C 261.064 795.258 261.615 794.851 262.103 794.386 C 263.588 794.452 264.151 794.234 265.392 795.111 C 270.202 798.514 280.501 801.12 281.238 807.611 C 281.425 809.254 281.226 810.289 280.038 811.36 C 278.848 812.433 277.803 812.993 276.377 813.675 C 280.158 830.453 297.381 859.67 308.348 873.2 z"/>
<path transform="translate(0,0)" fill="rgb(254,254,254)" d="M 391.745 672.918 C 402.131 672.837 412.752 674.617 423.106 675.519 L 483.779 680.543 C 501.815 682.152 519.975 681.878 538.002 683.612 C 558.871 685.62 579.679 688.739 600.496 691.251 C 620.075 693.613 639.819 695.257 659.289 698.405 C 668.601 699.911 677.308 702.945 686.474 704.801 C 691.193 705.757 696.039 705.774 700.777 706.571 C 705.003 707.281 708.804 707.685 711.414 711.336 C 709.815 720.123 706.497 728.87 703.875 737.406 A 3106.37 3106.37 0 0 0 689.733 784.566 C 677.847 826.121 667.738 868.121 656.621 909.883 C 654.196 918.993 641.71 968.044 637.772 972.662 L 635.695 972.803 A 4614.94 4614.94 0 0 0 520.599 942.589 A 5019.86 5019.86 0 0 1 374.786 905.631 C 357.772 900.979 334.919 896.766 319.789 888.097 C 318.143 887.153 314.121 884.898 313.827 882.908 C 313.116 878.109 316.046 871.233 317.633 866.728 C 333.094 822.835 351.811 779.935 368.269 736.393 C 374.727 719.306 383.251 686.768 391.745 672.918 z"/>
<path transform="translate(0,0)" fill="rgb(35,31,32)" d="M 396.323 742.234 C 397.25 742.644 397.909 742.825 398.643 743.517 C 400.572 745.333 401.341 748.736 401.46 751.291 C 401.828 759.178 397.311 764.228 392.212 769.474 L 390.14 769.806 L 389.413 768.57 C 390.284 759.681 393.644 750.723 396.323 742.234 z"/>
<path transform="translate(0,0)" fill="rgb(35,31,32)" d="M 377.439 795.808 L 378.345 796.945 C 377.424 803.124 376.129 808.955 374.228 814.911 C 372.162 821.382 353.654 871.446 352.133 873.346 C 351.511 874.124 350.363 874.261 349.478 874.719 L 348.035 873.096 C 346.426 867.928 373.542 806.471 377.439 795.808 z"/>
<path transform="translate(0,0)" fill="rgb(35,31,32)" d="M 416.455 696.779 C 420.333 696.75 423.777 697.06 427.552 697.99 C 433.977 699.572 443.352 701.612 446.475 708.261 A 8.98437 8.98437 0 0 1 446.596 715.462 C 443.514 722.948 435.275 726.844 428.265 729.679 C 425.196 731.223 421.61 732.223 418.37 733.407 C 413.429 730.704 408.959 728.187 404.709 724.441 C 403.619 721.647 402.728 718.741 401.765 715.898 C 405.177 706.317 408.009 702.279 416.455 696.779 z"/>
<path transform="translate(0,0)" fill="rgb(35,31,32)" d="M 589.163 885.098 C 594.091 884.755 598.678 884.471 603.352 886.43 C 608.255 888.486 612.147 892.8 614.026 897.729 C 616.373 903.884 615.964 911.589 613.294 917.578 C 610.345 924.194 606.815 927.024 600.237 929.66 C 596.679 929.969 593.082 930.171 589.537 929.579 C 584.499 928.738 579.586 925.904 576.806 921.548 C 573.73 916.726 573.38 910.739 574.556 905.265 C 576.634 895.599 581.11 890.329 589.163 885.098 z"/>
<path transform="translate(0,0)" fill="rgb(254,254,254)" d="M 590.583 894.003 C 593.415 894.094 596.85 894.056 599.615 894.662 C 602.323 895.257 606.149 898.942 607.609 901.277 C 608.704 903.029 608.779 903.163 608.323 905.232 L 605.89 906.168 C 600.079 902.607 596.228 899.641 589.194 900.822 C 586.987 902.514 584.906 905.033 584.829 907.98 C 584.776 910.031 585.78 911.933 587.077 913.447 C 590.135 917.018 593.26 917.528 597.72 917.811 C 600.066 915.503 600.932 914.144 604.173 913.343 L 605.509 914.334 C 605.491 916.277 605.149 917.373 604.03 918.929 C 601.855 921.954 598.596 924.167 594.808 924.417 C 591.378 924.644 587.214 923.122 584.784 920.676 C 582.871 918.751 582.011 916.013 581.995 913.35 C 581.956 906.901 586.135 898.535 590.583 894.003 z"/>
<path transform="translate(0,0)" fill="rgb(35,31,32)" d="M 416.974 772.269 C 419.558 765.011 421.654 751.875 426.879 746.399 C 435.354 737.52 467.808 741.343 480.246 740.356 L 481.071 740.282 C 505.682 742.321 530.704 740.772 555.299 742.691 C 539.584 785.536 529.682 829.669 515.918 873.032 C 499.526 872.771 483.738 868.606 467.608 868.416 C 467.354 868.413 467.103 868.37 466.85 868.347 C 441.8 866.657 421.317 868.238 396.999 867.974 C 394.419 867.946 392.604 868.123 390.452 866.667 L 391.436 864.327 C 396.402 851.127 399.795 828.893 403.423 814.253 C 406.935 800.082 412.259 786.092 416.974 772.269 z"/>
<path transform="translate(0,0)" fill="rgb(254,254,254)" d="M 451.746 861.02 C 455.642 858.942 459.521 857.809 463.732 856.587 L 463.134 862.485 L 462.328 863.228 C 458.954 863.803 455.402 863.164 452.076 862.555 L 451.746 861.02 z"/>
<path transform="translate(0,0)" fill="rgb(254,254,254)" d="M 480.845 856.473 C 484.284 857.839 484.568 859.256 486.483 862.335 C 484.758 863.278 485.264 863.269 483.693 863.398 C 479.294 863.758 474.888 864.521 470.536 863.543 L 470.162 862.201 C 473.159 859.173 476.962 858.016 480.845 856.473 z"/>
<path transform="translate(0,0)" fill="rgb(254,254,254)" d="M 429.902 750.78 C 438.988 747.083 447.294 744.633 457.199 744.918 C 455.395 746.473 454.058 747.383 451.863 748.374 C 446.333 750.872 440.319 755.502 434.567 757.027 C 430.655 757.728 428.953 760.688 425.321 761.786 C 425.75 758.033 428.24 754.148 429.902 750.78 z"/>
<path transform="translate(0,0)" fill="rgb(179,178,178)" d="M 490.507 767.518 C 489.863 770.017 489.812 770.162 487.386 771.429 C 486.037 772.133 484.451 772.612 483.018 773.136 L 481.506 772.321 L 481.47 770.069 C 482.918 769.922 484.328 769.75 485.767 769.528 L 484.998 767.877 L 482.141 767.872 L 481.322 766.071 C 482.501 765.686 483.505 765.423 484.748 765.354 C 491.207 764.997 503.65 758.835 509.301 755.148 C 512.858 752.828 515.938 749.074 519.674 747.196 C 521.479 746.289 522.317 746.444 524.224 746.691 C 525.843 749.458 525.48 750.947 524.731 754.04 C 512.044 757.425 500.045 766.582 487.63 771.556 C 491.436 769.046 507.764 760.32 509.304 757.631 C 502.918 758.815 495.978 763.979 490.507 767.518 z"/>
<path transform="translate(0,0)" fill="rgb(179,178,178)" d="M 522.717 833.868 C 521.898 837.281 520.709 840.61 519.614 843.943 C 518.675 848.19 517.961 850.692 513.906 853.011 C 511.278 854.514 507.017 854.811 504.081 854.557 C 500.213 854.955 490.459 858.139 487.555 860.904 C 487.123 861.315 486.84 861.858 486.483 862.335 C 484.568 859.256 484.284 857.839 480.845 856.473 L 482.062 855.935 L 482.474 853.179 C 476.465 856.272 469.623 860.686 463.134 862.485 L 463.732 856.587 C 470.052 854.066 476.323 851.76 482.821 849.731 C 495.601 843.984 508.885 836.453 522.717 833.868 z"/>
<path transform="translate(0,0)" fill="rgb(254,254,254)" d="M 504.542 848.984 L 506.514 849.354 C 507.634 848.237 508.844 847.292 510.146 846.397 C 513.21 844.289 515.875 843.217 519.614 843.943 C 518.675 848.19 517.961 850.692 513.906 853.011 C 511.278 854.514 507.017 854.811 504.081 854.557 L 504.542 848.984 z"/>
<path transform="translate(0,0)" fill="rgb(179,178,178)" d="M 457.199 744.918 C 459.839 744.394 458.01 744.402 459.808 745.033 C 466.175 747.267 474.29 743.806 481.406 746.066 L 481.958 747.466 L 486.65 746.572 C 486.369 748.844 484.238 750.385 482.711 752.065 C 485.889 752.002 488.149 752.004 491.038 750.443 A 151.057 151.057 0 0 0 493.631 746.896 C 500.946 745.287 509.817 745.541 517.25 746.358 C 506.227 751.196 496.74 758.767 486.048 764.259 C 490.193 760.375 494.633 756.846 499.043 753.27 A 567.683 567.683 0 0 1 481.779 762.627 C 477.303 765.858 459.734 775.872 457.404 778.648 L 457.33 776.953 L 454.048 779.732 C 456.054 774.555 463.516 771.891 467.563 768.496 C 467.804 767.32 467.58 766.539 467.368 765.373 C 465.44 764.085 464.99 763.867 462.555 764.227 C 459.144 764.73 453.233 766.573 451.081 769.193 C 440.238 772.626 431.445 780.323 420 782.041 L 418.901 781.19 C 418.213 778.333 420.221 775.252 421.365 772.676 C 424.172 763.572 429.478 767.127 434.131 761.465 C 435.133 760.246 434.619 758.509 434.567 757.027 C 440.319 755.502 446.333 750.872 451.863 748.374 C 454.058 747.383 455.395 746.473 457.199 744.918 z"/>
<path transform="translate(0,0)" fill="rgb(254,254,254)" d="M 524.731 754.04 C 525.143 753.758 525.565 753.49 525.966 753.194 C 527.499 752.062 528.348 751.014 529.45 749.496 C 535.5 746.644 539.537 747.013 546.101 747.999 C 547.77 751.081 547.088 754.295 546.085 757.564 C 545.372 759.888 543.894 763.62 541.655 764.836 C 540.013 765.727 539.135 765.714 537.364 765.882 C 533.246 766.275 529.603 767.518 525.864 769.268 C 516.89 773.468 508.552 779.098 499.719 783.619 C 487.571 789.837 438.363 811.248 431.348 819.336 C 433.438 820.171 435.581 820.596 437.772 821.072 C 441.357 808.594 479.856 798.561 490.834 793.067 C 503.91 786.523 516.452 777.823 528.652 769.766 C 518.142 781.518 503.587 785.911 492.234 796.341 C 501.893 793.434 515.539 782.995 526.085 778.279 C 533.52 777.064 538.352 770.763 544.269 766.614 C 543.506 771.784 525.023 828.487 522.523 831.214 C 520.084 831.658 519.625 832.135 517.282 831.092 C 497.869 840.739 475.998 852.776 454.673 857.351 L 450.932 859.974 C 445.054 864.396 442.715 858.605 437.552 863.377 L 435.615 862.918 L 434.429 860.564 C 430.142 861.764 427.087 863.67 422.521 862.87 L 421.228 861.863 L 423.785 858.153 C 420.48 858.534 421.099 861.115 418.889 861.896 C 413.506 863.797 401.107 861.634 393.858 864.178 C 395.322 858.084 396.157 852.986 400.616 848.258 C 400.852 848.008 401.095 847.765 401.334 847.518 C 400.201 844.946 399.12 842.205 399.886 839.372 C 401.612 832.978 404.335 837.664 407.89 835.662 C 407.918 835.384 407.939 835.106 407.973 834.829 C 408.045 834.249 408.132 833.67 408.211 833.091 L 406.129 831.689 L 408.895 831.521 L 408.167 831.314 C 406.139 832.046 405.112 832.493 402.922 832.374 C 402.762 831.218 402.63 830.692 402.77 829.435 C 403.12 826.307 404.576 824.744 406.774 822.745 C 405.421 821.407 405.908 822.137 405.207 820.628 C 412.388 814.488 421.685 810.501 429.501 805.007 L 422.012 806.756 C 420.015 810.4 410.511 814.398 406.807 816.491 L 414.597 793.307 C 415.849 789.1 416.598 785.027 420 782.041 C 431.445 780.323 440.238 772.626 451.081 769.193 C 453.233 766.573 459.144 764.73 462.555 764.227 C 464.99 763.867 465.44 764.085 467.368 765.373 C 467.58 766.539 467.804 767.32 467.563 768.496 C 462.446 770.289 457.242 771.959 452.209 773.972 C 447.759 775.54 438.237 780.162 435.865 784.15 L 436.163 785.057 C 441.623 781.9 446.974 778.405 452.529 775.439 L 450.823 774.207 L 453.754 774.83 C 450.322 781.466 438.461 782.708 436.133 790.507 L 439.563 790.507 C 439.854 789.909 440.097 789.285 440.435 788.712 C 441.884 786.258 454.247 784.179 457.83 782.72 C 462.703 780.734 462.234 775.902 469.922 773.591 L 470.308 774.032 L 465.952 777.912 C 467.675 778.524 469.33 777.499 470.915 776.688 C 473.598 775.315 476.55 772.784 479.537 772.734 L 480.879 774.049 C 475.913 781.591 440.085 794.625 430.165 804.459 C 441.294 800.286 452.379 792.518 463.022 787.013 C 483.176 776.589 506.768 767.99 524.731 754.04 z"/>
<path transform="translate(0,0)" fill="rgb(179,178,178)" d="M 488.837 798.507 C 489.519 800.61 489.583 802.215 488.973 804.365 C 488.866 804.741 488.726 805.106 488.603 805.477 C 499.737 797.124 512.558 790.141 524.364 782.693 C 526.284 785.678 529.474 786.554 529.934 788.368 C 528.656 789.228 527.391 790.072 526.168 791.011 C 526.959 793.187 527.71 794.033 529.204 795.746 C 529.353 798.014 529.729 797.207 528.455 798.715 C 524.387 803.529 516.501 807.654 511.202 811.296 L 511.846 812.268 C 515.333 812.645 517.565 812.428 520.446 814.5 C 519.536 816.94 518.536 817.807 516.757 819.591 C 517.099 823.413 517.614 827.256 517.282 831.092 C 497.869 840.739 475.998 852.776 454.673 857.351 C 452.779 856.656 452.272 856.888 451.195 855.09 L 454.315 851.344 L 455.566 852.356 C 463.002 854.551 492.316 828.516 503.188 824.534 C 507.858 822.823 512.819 819.788 516.454 816.383 L 515.832 815.16 C 511.088 813.75 507.902 815.462 503.601 817.667 C 501.919 818.529 501.592 817.99 499.837 817.493 C 496.876 817.605 459.146 841.683 452.816 845.156 C 448.051 847.771 442.4 849.153 437.938 851.968 C 435.776 853.331 433.68 853.627 431.207 854.059 L 429.863 853.523 C 432.516 848.294 444.142 840.625 449.545 838.298 C 450.94 837.697 450.411 837.959 451.552 836.487 C 450.941 835.144 451.342 835.348 449.829 834.885 C 446.165 833.765 442.488 835.085 439.324 836.984 C 434.741 839.734 430.085 842.143 425.562 845.049 C 426.191 843.9 426.724 842.694 427.288 841.512 L 425.851 838.631 C 429.828 831.333 475.468 807.245 485.946 799.967 L 487.249 800.193 L 488.837 798.507 z"/>
<path transform="translate(0,0)" fill="rgb(35,31,32)" d="M 962.067 217.56 C 961.931 217.179 961.817 216.79 961.658 216.419 C 960.952 214.771 960.156 213.655 959.154 212.206 C 956.451 208.297 952.256 201.892 953.44 196.894 C 954.611 191.953 959.2 188.992 962.983 186.092 C 969.369 187.777 979.042 188.689 984.411 192.161 C 985.826 194.602 986.213 195.101 985.28 198.006 C 983.807 202.59 978.64 207.55 976.272 212.157 C 975.508 213.643 974.84 216.209 973.204 216.67 C 969.451 217.726 966.171 215.412 962.934 217.716 C 966.148 228.569 948.06 294.61 943.995 309.777 C 963.229 302.187 981.704 293.173 1000.54 284.677 C 1013.05 279.03 1025.82 273.968 1038.37 268.407 C 1034.48 265.318 1028.51 261.619 1025.59 257.722 C 1013.11 250.577 986.475 227.108 975.967 216.332 L 976.527 214.327 L 977.951 213.813 C 982.767 216.068 1013.31 241.248 1020.17 246.416 C 1029.16 250.819 1038.15 258.178 1046.11 264.244 C 1062.04 256.091 1134.07 218.296 1146.42 219.927 C 1158.03 228.589 1175.08 251.845 1179.25 265.912 C 1183.14 278.988 1180.88 308.495 1181.09 323.056 L 1181.9 435.619 C 1181.87 452.517 1182.46 469.626 1181.68 486.493 C 1181.47 491.07 1181.36 498.356 1179.16 502.35 C 1164.58 511.157 1143.49 513.11 1127.03 517.049 A 1633.3 1633.3 0 0 0 1080.5 529.336 C 1035.94 541.623 991.689 553.796 947.442 567.224 C 921.388 575.131 864.755 596.684 840.953 597.595 C 832.401 597.923 806.741 587.268 801.456 581.067 C 799.147 578.358 800.07 573.348 800.386 570.023 C 805.477 516.349 806.552 471.157 803.181 417.087 C 802.335 403.522 798.23 390.188 797.651 376.841 C 802.253 372.893 810.275 371.596 815.842 368.832 A 2546.84 2546.84 0 0 1 890.524 333.492 C 903.415 327.75 930.838 317.44 941.456 310.102 C 942.963 293.033 948.148 276.174 951.895 259.477 C 954.979 245.733 956.786 230.631 962.067 217.56 z"/>
<path transform="translate(0,0)" fill="rgb(254,254,254)" d="M 804.524 381.877 A 8567.64 8567.64 0 0 1 913.465 330.119 C 945.83 315.304 979.112 302.224 1011.68 287.752 C 1049.36 271.01 1087.42 252.297 1126.18 238.289 C 1128.97 237.279 1130.87 236.572 1133.83 236.972 C 1141.9 249.624 1138.81 433.586 1140.6 465.966 C 1135.78 474.08 1027.59 504.329 1009.02 510.025 C 960.499 524.904 911.917 541.002 863.932 557.565 C 854.656 560.767 845.143 563.875 836.031 567.512 C 828.233 570.625 820.174 575.508 812.013 577.375 C 810.603 577.698 809.42 577.606 808.024 577.303 C 807.572 575.64 807.204 575.764 807.983 574.457 C 814.302 563.86 1078.47 486.011 1110.63 474.918 C 1116.72 472.815 1134.95 468.565 1133.93 460.504 C 1133.38 456.178 1130.17 450.342 1126.15 448.328 C 1125.18 447.843 1124.37 447.778 1123.35 447.615 C 1122.51 450.554 1122.04 454.066 1119.66 456.149 L 1118.29 455.636 L 1118.89 442.607 C 1119 440.684 1118.53 439.346 1118.27 437.487 C 1118.16 436.639 1118.11 435.042 1118.08 434.127 C 1121.47 423.306 1119.87 400.108 1120.03 388.067 C 1120.39 361.687 1120.5 335.191 1121.35 308.828 C 1121.84 294.043 1124.39 278.708 1124.14 264.008 C 1124.1 261.777 1123.99 261.723 1122.47 260.209 C 1119.58 259.775 1117.41 260.232 1114.62 261.123 C 1105.73 263.966 1097.27 268.905 1088.44 272.215 A 2382.2 2382.2 0 0 0 967.725 321.368 C 958.326 325.595 949.238 330.565 940.141 335.402 L 940.125 336.352 L 939.262 336.476 L 939.487 335.768 L 938.914 336.318 C 948.849 335.055 968.287 323.282 978.25 318.968 C 992.568 312.768 1114.58 262.745 1118.7 263.001 C 1119.32 263.039 1119.87 263.383 1120.45 263.574 C 1121.33 279.869 1118.99 299.539 1118.48 316.246 L 1115.89 422.98 C 1115.01 434.588 1113.49 448.382 1115.73 459.843 C 1101.95 463.314 1088.77 468.191 1075.21 472.349 C 1065.86 475.217 1056.3 477.452 1047.01 480.498 C 1006.39 493.809 966.11 509.027 925.852 523.442 C 907.17 530.131 888.527 536.981 869.753 543.405 C 849.979 550.173 830.123 556.347 810.859 564.531 C 817.663 503.04 817.05 442.59 804.524 381.877 z"/>
<path transform="translate(0,0)" fill="rgb(35,31,32)" d="M 827.579 387.709 C 832.46 388.552 836.562 390.356 840.179 393.842 A 18.5366 18.5366 0 0 1 845.87 407.915 C 845.623 413.556 843.078 418.274 839.091 422.121 C 837.328 422.118 835.506 422.168 833.796 421.66 C 826.974 419.636 823.484 412.336 820.525 406.497 C 821.756 399.236 822.341 393.319 827.579 387.709 z"/>
<path transform="translate(0,0)" fill="rgb(35,31,32)" d="M 1041.48 417.164 C 1049.51 416.615 1056.5 417.189 1063.07 422.579 C 1067.38 426.112 1070.63 432.077 1070.8 437.701 C 1070.86 439.834 1070.28 441.839 1069.82 443.897 C 1069.49 445.381 1069.2 446.881 1068.89 448.368 C 1065.48 454.679 1061.47 460.287 1055.66 464.643 C 1050.19 468.752 1044.24 470.543 1037.44 469.629 C 1035.42 469.358 1033.78 469.199 1031.75 469.469 C 1031.1 469.556 1030.45 469.661 1029.81 469.758 C 1027.75 468.099 1028.98 465.138 1027.67 462.333 C 1023.24 452.818 1021.12 444.353 1025.04 434.244 C 1027.91 426.883 1034.24 420.248 1041.48 417.164 z"/>
<path transform="translate(0,0)" fill="rgb(254,254,254)" d="M 1063.23 449.517 C 1055.8 455.186 1056.93 456.996 1046.2 457.674 C 1041.8 457.953 1035.6 456.522 1032.53 453.083 C 1030.62 450.939 1029.89 448.603 1030.07 445.764 C 1030.39 440.518 1033.52 435.34 1037.45 431.977 C 1040.72 429.177 1043.32 428.38 1047.55 428.789 C 1047.57 429.142 1047.54 429.5 1047.61 429.846 C 1047.7 430.329 1047.89 430.789 1048.02 431.261 L 1046.74 430.687 C 1044.72 431.882 1042.52 433.076 1040.86 434.755 C 1039.28 436.346 1038.56 438.153 1038.92 440.396 C 1039.4 443.464 1041.67 445.733 1044.24 447.249 C 1046.92 448.836 1049.02 448.993 1051.97 448.23 C 1054.3 446.074 1055.41 444.469 1055.47 441.187 C 1055.57 436.323 1054.1 433.226 1050.88 429.682 C 1050.64 429.427 1050.4 429.177 1050.17 428.924 C 1052.16 428.155 1054.06 429.028 1056.12 429.476 C 1061.46 436.919 1064.29 439.889 1063.23 449.517 z"/>
<path transform="translate(0,0)" fill="rgb(35,31,32)" d="M 975.285 345.636 C 977.232 345.112 978.515 345.065 980.515 345.303 C 982.568 347.403 982.38 347.932 982.789 350.894 C 982.046 352.674 981.301 354.314 980.303 355.966 C 981.438 368.135 977.177 397.559 975.662 411.119 C 975.34 426.894 972.511 442.792 971.296 458.54 A 401.044 401.044 0 0 0 973.51 477.328 C 944.539 485.695 917.767 500.682 889.026 509.528 C 882.469 512.08 874.557 515.129 867.59 515.98 C 867.244 515.454 866.834 514.966 866.552 514.403 C 864.284 509.876 865.212 498.426 865.043 493.07 C 864.327 470.439 862.023 404.617 871.097 386.702 C 866.627 388.208 861.835 390.349 857.076 389.784 L 856.236 388.716 C 856.581 388.135 856.819 387.476 857.271 386.974 C 862.713 380.926 932.167 355.907 944.157 352.304 C 954.339 349.244 964.639 346.35 975.285 345.636 z"/>
<path transform="translate(0,0)" fill="rgb(179,178,178)" d="M 924.445 468.75 C 927.349 463.299 928.721 457.656 931.958 452.368 L 931.798 453.465 C 941.583 439.978 946.249 423.938 954.113 409.38 C 956.722 404.549 966.164 386.426 970.703 385.089 C 969.783 389.041 966.507 392.702 964.385 396.193 C 958.911 405.197 946.994 423.013 947.41 433.607 C 947.431 434.152 947.496 434.695 947.538 435.239 C 946.819 439.031 945.163 442.449 943.635 445.969 C 939.554 456.128 925.653 481.651 924.059 489.816 C 920.72 491.612 917.126 493.067 913.675 494.643 C 917.395 486.072 920.87 477.382 924.445 468.75 z"/>
<path transform="translate(0,0)" fill="rgb(254,254,254)" d="M 909.639 370.305 C 909.342 373.221 908.166 375.11 906.637 377.536 C 897.376 392.231 886.124 405.388 876.95 420.257 C 875.676 422.322 874.039 426.054 872.328 427.673 C 872.075 427.913 871.736 428.041 871.439 428.224 A 277.088 277.088 0 0 0 875.756 416.315 A 736.717 736.717 0 0 1 868.03 426.918 L 868.481 425.547 C 870.384 419.915 872.891 414.847 875.637 409.588 L 874.574 409.713 L 869.94 415.728 L 869.25 415.195 C 869.903 412.622 870.521 410.126 871.555 407.671 C 871.301 407.513 871.038 407.371 870.794 407.199 C 870.31 406.858 869.847 406.488 869.373 406.132 C 872.142 398.764 875.841 392.086 880.451 385.703 C 877.012 388.634 874.378 390.925 871.722 394.592 C 871.352 395.103 870.758 395.624 870.285 396.063 L 871.782 394.666 L 870.932 393.574 L 873.291 388.216 L 872.281 386.507 C 876.985 383.362 898.465 373.312 903.93 373.075 L 901.395 378.035 L 901.974 378.708 C 905.568 376.635 905.542 373.186 909.639 370.305 z"/>
<path transform="translate(0,0)" fill="rgb(254,254,254)" d="M 947.538 435.239 A 51.786 51.786 0 0 1 949.576 428.413 C 951.95 421.892 967.171 391.872 972.904 389.198 C 972.495 393.639 968.689 396.784 968.149 401.123 L 969.837 400.886 C 964.52 413.591 951.43 426.948 950.305 441.159 L 952.386 437.976 C 953.666 430.132 966.586 408.989 971.02 400.98 C 970.225 413.3 958.908 430.969 958.725 437.163 C 959.1 436.692 959.48 436.226 959.848 435.75 C 962.92 431.77 964.804 423.551 968.601 421.136 C 970.143 428.082 953.288 461.722 949.43 470.308 C 944.378 475.972 940.568 482.28 935.055 487.67 C 937.427 478.215 946.795 469.424 946.513 459.769 C 942.846 468.366 938.398 476.62 934.123 484.925 C 930.93 486.679 927.595 488.894 924.059 489.816 C 925.653 481.651 939.554 456.128 943.635 445.969 C 945.163 442.449 946.819 439.031 947.538 435.239 z"/>
<path transform="translate(0,0)" fill="rgb(254,254,254)" d="M 975.94 348.291 L 976.632 352.665 C 976.537 353.027 976.435 353.388 976.345 353.751 C 974.077 362.989 975.178 372.529 972.661 381.716 L 971.14 382.636 C 969.798 381.013 970.241 382.005 970.077 379.707 C 969.943 377.83 969.279 376.294 968.999 374.505 C 968.922 374.008 968.972 373.499 968.959 372.995 L 967.595 374.107 C 965.527 380.771 960.51 387.419 956.079 392.764 L 955.219 392.633 C 958.432 382.723 961.597 382.885 961.839 369.932 L 961.85 368.862 C 958.807 373.777 958.935 380.09 956.474 385.453 C 951.718 395.814 945.808 405.563 941.245 416.087 C 937.591 424.513 935.133 433.379 931.775 441.914 C 927.977 451.565 923.529 461.043 919.444 470.581 C 915.125 475.774 901.974 499.939 898.558 500.519 L 898.815 498.086 L 900.376 498.634 L 900.873 498.039 C 900.798 497.242 900.455 496.426 900.647 495.649 C 901.722 491.308 913.268 473.074 916.075 467.345 C 930.388 438.144 940.721 407.709 957.795 379.748 C 937.574 397.812 932.827 424.353 920.392 447.088 C 917.565 452.256 911.883 456.902 908.516 462.186 C 899.798 475.869 892.842 490.221 885.206 504.48 C 888.093 503.288 890.876 502.342 893.896 501.538 L 894.016 502.652 C 889.706 505.607 886.604 506.043 881.516 506.351 C 877.331 507.75 873.023 508.654 868.727 509.645 C 867.365 507.837 867.581 508.631 867.344 506.568 C 866.297 497.418 875.081 484.77 880.66 478.199 C 884.585 472.777 892.422 463.892 893.398 457.408 C 889.412 459.356 887.739 466.051 885.368 469.612 C 882.054 474.588 876.766 478.256 873.554 483.188 C 871.91 485.712 871.189 488.654 869.554 491.276 C 869.195 489.819 869.096 488.595 869.234 487.094 C 869.522 483.97 870.102 480.831 871.499 477.998 C 874.828 471.244 880.053 465.096 883.7 458.364 C 891.503 443.966 921.79 379.328 930.332 371.923 C 930.486 371.66 930.636 371.396 930.793 371.135 C 932.345 368.564 933.422 367.505 935.981 365.836 C 937.769 364.671 937.689 364.821 938.649 362.728 L 937.911 361.394 C 933.649 362.515 928.644 368.735 925.71 372.09 C 918.826 381.762 915.554 392.563 910.311 403.056 C 905.913 411.857 875.227 472.836 870.263 475.752 L 868.814 474.195 C 866.055 465.163 866.527 449.064 869.664 440.089 C 872.953 430.678 892.324 406.481 899.483 397.19 C 902.878 392.783 907.567 387.997 909.893 383.012 C 901.981 385.535 892.442 407.219 884.066 412.666 C 892 399.919 902.743 388.866 909.982 375.742 C 911.43 373.118 911.751 372.933 910.921 370.085 A 286.86 286.86 0 0 1 926.868 363.502 C 935.388 360.778 948.664 353.216 957.349 354.436 L 958.204 355.871 C 955.569 363.688 945.725 368.778 945.424 377.033 C 946.421 375.706 947.45 374.41 948.478 373.107 C 952.085 368.532 957.957 366.414 961.064 362.18 L 958.321 362.151 C 957.388 359.658 957.582 358.491 958.189 355.925 C 962.341 350.313 969.545 349.768 975.94 348.291 z"/>
<path transform="translate(0,0)" fill="rgb(77,74,76)" d="M 908.865 446.065 C 914.39 436.276 938.339 390.569 945.587 385.9 C 946.381 387.785 945.694 388.615 944.885 390.479 C 942.581 395.789 939.11 400.699 936.526 405.92 C 931.075 416.934 922.197 441.799 914.508 449.343 L 913.928 447.134 C 914.514 445.15 914.735 443.84 914.534 441.776 L 913.53 442.04 A 177.198 177.198 0 0 1 911.594 446.212 L 908.865 446.065 z"/>
<path transform="translate(0,0)" fill="rgb(35,31,32)" d="M 908.865 446.065 L 911.594 446.212 A 177.198 177.198 0 0 0 913.53 442.04 L 914.534 441.776 C 914.735 443.84 914.514 445.15 913.928 447.134 L 914.508 449.343 C 910.594 457.132 905.399 464.512 900.423 471.661 C 895.236 481.854 890.52 494.045 883.679 503.086 L 881.957 503.041 C 882.477 500.887 883.133 499.363 884.326 497.489 C 886.354 494.304 887.377 493.265 887.525 489.401 C 884.751 494.105 881.602 498.296 879.562 503.403 L 879.167 504.416 C 878.319 502.808 878.91 499.367 878.913 497.451 L 878.905 495.962 C 883.049 494.296 894.838 469.77 898.424 464.093 C 900.867 457.942 905.15 451.565 908.865 446.065 z"/>
<path transform="translate(0,0)" fill="rgb(35,31,32)" d="M 1535.77 189.271 C 1538.01 189.076 1541.1 188.565 1543.25 189.332 C 1547.76 190.938 1554.94 198.16 1555.76 203.089 C 1556.82 209.561 1548.73 210.548 1545.41 214.732 C 1545.25 217.853 1545.7 218.659 1547.09 221.476 C 1553.85 235.172 1563.55 248.347 1571.5 261.465 C 1578.27 272.641 1583.89 284.512 1589.67 296.223 A 6944.88 6944.88 0 0 1 1690 290.032 C 1713.79 288.521 1737.76 286.386 1761.58 285.886 C 1763.35 285.849 1760.12 286.651 1763.84 285.405 C 1769.26 287.76 1777.46 290.399 1780.01 296.31 C 1780.84 298.223 1780.8 299.944 1780.51 301.931 C 1776.15 331.64 1768.72 361.061 1763.23 390.596 C 1754.89 435.415 1747.93 481.152 1737.57 525.511 C 1735.89 532.727 1734.01 539.08 1730.7 545.729 C 1719.01 548.465 1705.63 548.501 1693.66 549.216 C 1651.39 551.741 1609.05 550.367 1566.75 552.094 C 1539.84 554.508 1512.51 554.776 1485.51 556.043 C 1451.09 557.659 1416.75 559.843 1382.3 561.118 C 1364.07 561.793 1343.68 566.022 1325.75 563.331 C 1323.81 561.771 1323.11 560.496 1322.44 558.075 C 1315.1 531.718 1337.97 399.912 1341.78 363.98 C 1342.69 355.364 1340.84 328.071 1344.11 322.463 C 1359.03 315.073 1418.25 313.104 1438.49 311.3 C 1458.16 309.547 1477.98 307.567 1497.53 304.744 C 1505.81 276.716 1515.92 249.432 1525.72 221.913 L 1522.75 217.056 C 1519.89 212.412 1518.2 208.782 1516.8 203.517 C 1518.22 201.183 1519.64 198.77 1521.28 196.581 C 1524.99 191.633 1529.93 190.254 1535.77 189.271 z"/>
<path transform="translate(0,0)" fill="rgb(254,254,254)" d="M 1532.54 225.292 C 1535.19 225.243 1537.76 225.297 1540.4 225.464 C 1553.81 240.366 1571.91 278.17 1580.26 296.879 C 1569.74 296.963 1559.34 298.072 1548.9 299.297 C 1534.85 301.209 1520.51 302.069 1506.38 303.393 C 1509.99 291.86 1512.46 279.969 1516.13 268.439 C 1520.78 253.839 1526.88 239.525 1532.54 225.292 z"/>
<path transform="translate(0,0)" fill="rgb(254,254,254)" d="M 1744 306.565 C 1747.46 307.222 1750.67 306.001 1754.36 307.123 C 1756.83 311.151 1745.94 341.09 1744.17 348.193 C 1739.48 366.976 1736.55 386.559 1732.84 405.575 C 1725 445.803 1717.45 485.672 1710.71 526.108 C 1673.52 525.334 1635.06 526.468 1597.9 528.795 C 1572.49 530.387 1547.2 533.004 1521.73 534.37 A 9512.89 9512.89 0 0 1 1426.55 539.488 C 1400.42 540.622 1373.7 540.954 1347.7 543.406 L 1333.02 545.019 C 1332.77 529.633 1335.15 513.946 1336.81 498.673 C 1338.58 482.434 1340.17 466.132 1342.64 449.984 C 1348.08 414.364 1354.97 379.029 1357.65 343.052 C 1369.87 342.173 1382.13 341.958 1394.32 340.674 C 1409.08 339.118 1423.74 336.454 1438.45 334.49 C 1474.56 329.67 1510.95 324.981 1547.24 321.795 C 1611.75 316.131 1680.33 316.283 1744 306.565 z"/>
<path transform="translate(0,0)" fill="rgb(35,31,32)" d="M 1623.43 448.124 L 1622.58 445.418 C 1623.28 443.076 1624.16 441.554 1625.87 439.843 C 1629.77 435.942 1636.05 433.305 1641.61 433.609 C 1645.33 433.812 1645.87 434.966 1648.05 437.617 C 1651.12 441.284 1654.13 445.971 1653.92 450.979 C 1653.78 454.162 1652.24 456.959 1649.75 458.89 C 1646.63 461.302 1642.35 462.205 1638.48 461.668 C 1633.56 460.984 1628.88 458.134 1626.15 453.965 C 1624.98 452.174 1624.2 450.111 1623.43 448.124 z"/>
<path transform="translate(0,0)" fill="rgb(77,74,76)" d="M 1623.43 448.124 L 1622.58 445.418 C 1623.28 443.076 1624.16 441.554 1625.87 439.843 C 1629.77 435.942 1636.05 433.305 1641.61 433.609 C 1645.33 433.812 1645.87 434.966 1648.05 437.617 L 1646.08 437.672 C 1643.88 437.715 1642.15 437.394 1640.03 436.863 C 1637.57 437.62 1637.26 437.213 1635.8 439.463 C 1634.4 441.612 1632.68 443.194 1630.78 444.88 L 1630.66 446.838 C 1632.36 447.018 1631.48 447.185 1633.17 445.901 L 1634.11 446.876 C 1633.36 449.845 1632.57 451.882 1631.01 454.518 L 1629.86 454.17 C 1629.74 452.505 1629.89 451.179 1630.21 449.543 C 1627.97 449.066 1625.69 448.477 1623.43 448.124 z"/>
<path transform="translate(0,0)" fill="rgb(35,31,32)" d="M 1672.22 447.217 L 1671.8 448.949 C 1669.16 460.049 1669.06 468.347 1658.33 475.176 C 1650.8 479.964 1641.22 481.089 1632.64 478.959 C 1624.71 476.992 1617.61 472.212 1613.37 465.16 C 1608.71 457.406 1608.25 448.842 1610.64 440.242 C 1613.43 430.213 1620.27 420.391 1629.63 415.508 C 1635.85 412.263 1643.97 411.188 1650.75 413.244 C 1653.16 413.975 1654.56 415.019 1656.27 416.887 C 1657.33 419.655 1657.69 420.743 1657.01 423.757 C 1655.02 425.775 1655 425.601 1652.14 425.795 C 1644.96 423.263 1644.41 414.028 1634.56 418.665 C 1626.25 422.582 1618.77 432.001 1615.96 440.652 C 1613.92 446.959 1614.28 453.973 1617.55 459.799 C 1621 465.915 1627.16 470.037 1633.91 471.658 C 1640.47 473.232 1648.02 472.349 1653.66 468.505 C 1658.8 465.006 1661.8 459.356 1662.84 453.328 C 1663.16 451.431 1663.21 449.567 1663.24 447.647 C 1662.87 444.09 1662.47 442.102 1664.38 439.022 L 1666.81 438.495 C 1667.73 438.95 1668.51 439.275 1669.33 439.957 C 1671.7 441.939 1671.92 444.381 1672.22 447.217 z"/>
<path transform="translate(0,0)" fill="rgb(35,31,32)" d="M 1721.92 331.517 L 1723.08 331.749 C 1725.08 335.953 1704.52 437.894 1702.11 448.241 C 1699.19 460.754 1692.06 480.408 1690.92 492.222 C 1690.65 495.053 1691.94 497.721 1692.07 500.5 C 1692.19 502.795 1691.17 504.606 1689.6 506.184 C 1687.34 506.454 1686.58 506.499 1684.62 507.775 C 1685.54 509.455 1685.2 508.614 1685.69 510.274 C 1672.5 514.626 1617.72 514.374 1599.48 515.311 C 1548.8 517.917 1498.15 522.185 1447.42 524.672 C 1427.64 525.642 1407.83 525.242 1388.04 525.635 C 1378.16 525.831 1368.32 526.716 1358.44 526.968 C 1358.59 526.364 1358.74 525.759 1358.9 525.157 C 1363.97 505.971 1363.59 483.761 1365.04 463.951 A 2671.72 2671.72 0 0 1 1371.69 391.551 C 1372.64 382.408 1372.31 370.598 1375.05 361.951 C 1377.33 360.534 1378.38 359.796 1379.5 357.319 C 1380.48 355.169 1381.47 353.511 1382.83 351.579 L 1384.09 351.931 C 1384.81 354.053 1384.79 356.169 1384.88 358.381 C 1383.34 359.732 1381.69 361.094 1380.32 362.612 C 1373.38 370.298 1363.88 503.989 1364.35 522.856 C 1369.04 524.248 1377 522.921 1382.17 522.98 C 1424.85 523.466 1466.62 521.322 1509.19 518.425 C 1541.14 516.65 1573.05 513.857 1604.98 512.228 C 1629.74 510.965 1654.51 511.033 1679.2 508.543 C 1681.5 506.57 1683.54 504.66 1684.91 501.918 C 1691.61 488.592 1694.22 472.384 1697.51 457.888 C 1706.74 417.23 1713.53 375.969 1720.84 334.923 C 1692.96 334.468 1665.45 336.736 1637.64 337.988 A 2936.19 2936.19 0 0 0 1487.49 347.722 C 1455.36 350.942 1423.16 355.592 1390.99 358.154 C 1388.25 358.372 1387.33 358.52 1385.24 356.691 L 1385.46 354.865 A 3990.78 3990.78 0 0 1 1721.92 331.517 z"/>
<path transform="translate(0,0)" fill="rgb(83,71,81)" d="M 1541.19 380.794 L 1547.9 387.175 C 1548.65 399.227 1550.67 413.363 1548.06 425.163 C 1547.93 444.414 1543.79 463.627 1543.86 482.763 C 1529.45 484.441 1515.33 487.711 1501.02 490.097 C 1486.68 492.49 1472.24 494.017 1457.91 496.343 C 1445.34 498.383 1422.47 505.367 1410.78 502.769 C 1409.22 497.647 1409.6 492.216 1409.89 486.918 C 1405.82 478.173 1408.49 399.455 1408.01 384.251 C 1433.2 385.335 1458.13 382.805 1483.24 381.575 C 1502.5 380.632 1521.91 380.914 1541.19 380.794 z"/>
<path transform="translate(0,0)" fill="rgb(254,254,254)" d="M 1490.15 385.564 L 1499.31 385.295 C 1482.27 394.524 1469.4 406.701 1454.35 418.602 C 1441.69 428.615 1427.76 438.481 1416.38 449.897 L 1415.24 451.056 L 1414.22 450.008 L 1412.94 448.823 C 1421.13 442.971 1428.36 435.772 1436.24 429.47 C 1452.48 416.494 1468.46 405.494 1482.97 390.268 C 1473.63 395.887 1466.32 404.115 1457.67 410.652 C 1452.83 414.313 1447.56 416.995 1442.82 420.913 C 1438.4 424.559 1432.9 431.746 1427.77 433.774 C 1431.35 422.159 1467.93 401.053 1477.74 391.801 C 1479.22 390.41 1480.51 389.756 1480.57 387.695 C 1472.19 391.638 1464.26 399.104 1456.51 404.391 C 1447.92 410.185 1440.16 417.133 1432.87 424.494 C 1427.56 429.859 1419.41 442.627 1413.51 445.497 L 1411.83 444.619 L 1411.16 441.508 C 1412.77 436.704 1417.02 434.369 1421.2 432.015 L 1422.44 431.331 C 1418.96 432.836 1414.28 435.453 1410.55 434.395 C 1409.63 429.166 1414.06 429.606 1415.21 425.494 C 1413.66 425.752 1412.26 425.875 1410.69 425.853 C 1411.66 423.309 1440.67 396.631 1445.14 391.577 L 1444.75 391.829 L 1444.6 390.862 C 1437.04 395.822 1431.33 403.659 1423.86 409.17 C 1424.46 404.377 1439.32 394.864 1439.59 388.892 C 1436.55 390.617 1434.4 392.079 1430.89 391.638 L 1429.77 390.013 L 1430.85 388.994 C 1437.05 387.537 1446.65 386.492 1452.9 387.674 C 1451.15 392.93 1438.62 400.789 1434.5 405.555 C 1437.79 404.575 1453.06 393.724 1454.9 390.654 C 1455.71 389.305 1456.45 388.007 1457.35 386.694 L 1458.93 386.925 C 1459.09 387.217 1459.29 387.492 1459.43 387.799 C 1460.76 390.841 1460.44 394.443 1459.31 397.466 C 1456.15 399.179 1453.71 400.72 1451.14 403.253 L 1451.85 403.937 C 1460.9 401.454 1470.82 393.163 1477.01 386.242 C 1481.35 386.416 1485.82 385.868 1490.15 385.564 z"/>
<path transform="translate(0,0)" fill="rgb(77,74,76)" d="M 1492.04 432.603 C 1498.21 428.216 1540.97 394.44 1544.01 394.675 C 1544.06 395.859 1544.1 396.998 1543.97 398.178 C 1543.18 405.104 1538.73 407.652 1533.75 411.705 L 1538.3 411.426 L 1538.83 412.744 C 1537.78 414.533 1536.8 416.261 1535.52 417.903 C 1538.11 416.332 1540.69 414.424 1543.67 413.747 L 1544.46 414.619 C 1541.16 420.569 1530.24 421.303 1528.98 428.831 L 1529.99 429.526 C 1534.73 425.728 1538.07 420.034 1544.57 420.725 C 1546.16 422.482 1545.55 421.438 1546.28 423.932 L 1548.06 425.163 C 1547.93 444.414 1543.79 463.627 1543.86 482.763 C 1529.45 484.441 1515.33 487.711 1501.02 490.097 C 1486.68 492.49 1472.24 494.017 1457.91 496.343 C 1445.34 498.383 1422.47 505.367 1410.78 502.769 C 1409.22 497.647 1409.6 492.216 1409.89 486.918 L 1410.83 486.702 L 1412.14 484.41 L 1412.05 483.313 C 1411.94 481.64 1411.57 479.089 1412.24 477.513 C 1412.99 475.726 1422.78 464.772 1424.77 462.49 L 1426.72 462.79 C 1428.41 464.757 1428.84 465.914 1429.32 468.451 C 1425.12 473.015 1420.65 477.867 1417.83 483.411 L 1419.01 481.217 C 1422.7 482.292 1431.18 467.995 1437.62 466.106 C 1439.46 466.645 1440.54 466.867 1442.49 466.654 C 1444.7 466.413 1443.48 466.059 1445.44 467.335 C 1443.85 471.327 1437.03 473.087 1434.55 476.931 C 1434.38 477.191 1434.27 477.486 1434.13 477.763 C 1446.66 472.903 1456.24 460.814 1466.24 452.183 C 1471.12 447.975 1476.47 444.252 1481.72 440.519 C 1485.04 437.471 1487.99 434.685 1492.04 432.603 z"/>
<path transform="translate(0,0)" fill="rgb(254,254,254)" d="M 1533.88 460.853 L 1534.02 463.425 C 1526.51 473.708 1518.86 482.755 1506.67 487.107 C 1506.49 486.42 1506.72 485.687 1506.79 484.981 C 1515.18 476.556 1524.33 467.934 1533.88 460.853 z"/>
<path transform="translate(0,0)" fill="rgb(179,178,178)" d="M 1492.04 432.603 C 1498.21 428.216 1540.97 394.44 1544.01 394.675 C 1544.06 395.859 1544.1 396.998 1543.97 398.178 C 1543.18 405.104 1538.73 407.652 1533.75 411.705 C 1525.11 421.841 1496.06 450.59 1484.62 455.496 C 1496.92 437.978 1525.92 422.2 1538.9 402.773 C 1529.72 407.531 1520.58 421.173 1509.86 427.09 C 1502.15 426.111 1499.28 431.831 1492.04 432.603 z"/>
<path transform="translate(0,0)" fill="rgb(254,254,254)" d="M 1492.04 432.603 C 1499.28 431.831 1502.15 426.111 1509.86 427.09 C 1502.31 433.132 1494.7 439.78 1486.22 444.466 C 1478.67 449.763 1471.15 454.842 1463.94 460.608 C 1449.85 471.868 1433.69 489.72 1416.05 495.012 C 1422.56 491.042 1429.09 486.755 1434.43 481.252 L 1434.13 477.763 C 1446.66 472.903 1456.24 460.814 1466.24 452.183 C 1471.12 447.975 1476.47 444.252 1481.72 440.519 C 1485.04 437.471 1487.99 434.685 1492.04 432.603 z"/>
<path transform="translate(0,0)" fill="rgb(35,31,32)" d="M 640.421 185.785 C 641.888 185.997 642.373 186.451 643.557 187.29 C 652.878 211.467 619.313 346.255 613.014 381.887 A 1073.83 1073.83 0 0 0 599.809 480.742 C 597.115 483.238 595.363 486.426 592.394 488.546 C 590.177 487.873 587.626 487.564 585.398 488.358 C 577.777 491.076 569.906 496.301 562.661 500.025 A 1932.44 1932.44 0 0 1 520.718 520.622 C 495.597 532.409 470.146 543.399 445.312 555.812 C 397.262 579.83 350.099 605.892 302.151 630.162 C 285.416 638.633 268.171 646.062 251.41 654.482 C 240.677 659.874 199.384 685.358 190.422 684.868 C 188.136 684.743 187.118 684.356 185.461 682.714 C 181.256 668.717 184.26 650.787 184.27 636.221 C 184.295 602.346 183.96 568.621 185.349 534.754 C 187.636 500.96 191.337 467.425 194.121 433.696 C 195.148 421.251 196.456 366.878 200.26 359.323 C 203.326 353.234 214.56 348.289 220.574 345.397 C 230.659 340.547 241.53 337.685 251.92 333.597 C 275.546 324.303 298.737 313.971 322.505 304.982 C 350.977 294.213 380.4 284.607 408.432 272.843 C 410.15 272.122 414.067 270.604 414.783 268.745 C 417.253 262.324 415.284 227.037 413.099 219.862 C 411.633 215.048 404.463 211.841 402.499 206.513 C 401.252 203.132 401.43 200.07 403.085 196.867 C 405.427 192.336 408.836 188.613 413.757 187.093 C 415.749 187.255 416.995 187.403 418.725 188.518 C 425.18 192.68 429.495 205.484 433.652 212.133 C 439.663 221.749 454.687 233.851 456.677 244.011 C 450.697 242.825 432.611 219.145 427.803 213.524 L 418.89 216.986 C 418.644 234.116 421.881 251.104 420.842 268.187 C 431.511 263.676 442.683 260.388 453.511 256.272 C 515.729 232.62 579.799 213.488 640.421 185.785 z"/>
<path transform="translate(0,0)" fill="rgb(254,254,254)" d="M 631.85 211.134 L 632.215 211.542 C 633.675 216.712 632.098 223.795 631.332 229.081 C 629.367 242.627 626.238 256.028 623.859 269.51 L 607.036 362.878 A 7678.61 7678.61 0 0 0 586.726 479.27 C 550.836 494.701 516.194 513.249 480.973 530.126 A 17899.7 17899.7 0 0 0 199.218 669.031 C 197.289 665.124 198.436 658.672 198.7 654.367 C 200.418 626.339 204.466 598.628 207.312 570.716 C 210.253 541.874 211.978 512.853 215.455 484.077 C 220.032 446.18 226.812 408.448 230.345 370.455 C 246.098 363.532 261.373 356.32 277.469 350.068 C 307.828 338.274 338.862 328.288 369.207 316.438 C 392.698 307.265 416.296 297.917 439.585 288.233 C 455.646 281.555 471.445 274.266 487.708 268.065 C 535.394 249.882 585.935 233.203 631.85 211.134 z"/>
<path transform="translate(0,0)" fill="rgb(35,31,32)" d="M 571.975 458.897 L 575.309 459.006 L 576.557 460.341 L 576.114 462.036 C 568.113 469.174 553.518 473.492 543.22 475.941 L 540.222 476.408 L 540.405 474.915 C 548.462 468.141 562.225 463.547 571.975 458.897 z"/>
<path transform="translate(0,0)" fill="rgb(35,31,32)" d="M 244.377 568.336 L 246.251 569.134 C 249.008 575.586 245.125 623.002 243.232 630.816 C 242.202 630.35 240.866 630.093 240.315 629.029 C 238.76 626.023 242.932 575.362 244.377 568.336 z"/>
<path transform="translate(0,0)" fill="rgb(35,31,32)" d="M 428.323 327.124 L 429.785 328.411 C 424.283 334.414 335.841 366.927 320.363 373.497 C 301.341 381.572 282.172 390.32 263.926 400.045 C 267.922 425.661 260.648 486.337 256.788 513.425 L 255.345 511.889 C 253.522 498.555 257.031 483.889 258.136 470.528 C 259.55 453.424 260.542 435.735 260.848 418.571 C 260.946 413.066 259.148 399.049 262.107 394.823 C 269.335 395.271 308.996 375.171 318.625 371.06 C 338.004 362.786 358.087 355.995 377.609 347.97 C 394.219 341.142 411.142 332.07 428.323 327.124 z"/>
<path transform="translate(0,0)" fill="rgb(35,31,32)" d="M 538.519 289.175 C 544.974 288.649 549.839 289.772 555.845 291.961 C 566.075 295.691 574.222 302.37 578.623 312.488 C 584.444 325.869 583.689 342.299 578.128 355.656 C 570.678 373.549 553.531 386.603 536.072 393.861 C 527.42 396.679 516.635 398.246 508.164 394.094 C 502.545 391.34 498.826 386.45 496.805 380.606 C 490.248 361.643 497.726 336.44 506.501 319.356 C 513.669 305.398 523.205 294.014 538.519 289.175 z"/>
<path transform="translate(0,0)" fill="rgb(254,254,254)" d="M 537.419 295.251 C 542.49 295.371 547.287 296.407 552.063 298.052 C 560.749 301.044 568.435 306.479 572.288 315.046 C 577.35 326.304 576.562 340.25 571.912 351.499 C 565.156 367.841 550.299 379.062 534.436 385.694 C 526.736 388.113 518.833 389.917 511.195 386.107 C 506.335 383.683 503.218 379.301 501.719 374.161 C 496.339 355.715 503.788 331.367 513.164 315.382 C 519.166 305.15 525.719 298.322 537.419 295.251 z"/>
<path transform="translate(0,0)" fill="rgb(35,31,32)" d="M 518.215 348.932 C 518.271 343.46 518.259 339.906 522.162 335.698 C 526.429 331.098 532.218 328.491 538.505 328.634 C 544.099 328.761 548.312 330.584 552.161 334.591 C 554.275 336.975 554.907 340.243 554.73 343.387 C 554.399 349.267 549.676 355.036 545.263 358.524 C 541.482 361.511 535.53 364.602 530.515 363.85 C 526.548 363.255 523.65 361.309 521.411 357.997 C 519.454 355.103 518.768 352.331 518.215 348.932 z"/>
<path transform="translate(0,0)" fill="rgb(254,254,254)" d="M 533.716 341.319 C 533.49 339.936 532.993 339.839 532.003 338.91 C 530.742 339.62 529.688 340.113 528.316 340.631 C 527.775 338.481 528.043 338.385 529.077 336.509 C 530.241 334.397 531.857 332.972 534.21 332.43 C 538.569 331.427 543.189 331.981 547.019 334.208 C 545.838 338.122 545.046 342.453 542.272 345.558 C 539.758 345.966 539.251 346.124 537.035 344.558 C 535.841 343.714 534.734 342.378 533.716 341.319 z"/>
<path transform="translate(0,0)" fill="rgb(35,31,32)" d="M 1572.81 1066.01 C 1574.55 1059.55 1575.93 1053.07 1582.24 1049.48 C 1585.68 1047.52 1589.44 1047.13 1593.21 1048.39 C 1598.62 1050.2 1602.97 1054.83 1605.22 1059.97 C 1605.75 1061.19 1606.19 1062.43 1606.63 1063.69 C 1620.8 1063.5 1715.28 1061.99 1720.37 1065.14 C 1721.11 1067.25 1721.19 1067.53 1720.7 1069.7 C 1719.14 1070.97 1717.92 1071.59 1715.97 1071.9 C 1707.41 1073.26 1697.45 1072.61 1688.73 1072.76 C 1666.48 1073.15 1644.24 1072.94 1622 1073.68 C 1617.51 1073.82 1608.94 1073.16 1604.92 1074.79 C 1602.88 1075.62 1600.14 1078.91 1598.57 1080.48 C 1616 1110.8 1626.84 1146.04 1639.64 1178.48 A 1552.88 1552.88 0 0 0 1703.97 1192.84 C 1719.28 1195.82 1734.91 1197.88 1750.08 1201.51 C 1768 1205.79 1785.47 1212.39 1803.09 1217.76 C 1815.18 1221.45 1828.18 1223.92 1839.99 1228.29 C 1842.5 1229.21 1845.01 1230.17 1846.67 1232.35 C 1845.76 1242.28 1841.23 1251.5 1840.57 1261.88 C 1839.01 1286.37 1841.58 1310.5 1841.83 1334.91 C 1842.3 1380.71 1840.59 1426.12 1843.2 1471.94 C 1845 1503.43 1850.47 1534.66 1852.43 1566.21 C 1853.05 1576.12 1858.49 1617.17 1850.72 1623.47 C 1847.77 1625.86 1843.1 1627.94 1839.22 1627.2 C 1828.41 1625.14 1809.01 1612.7 1798.6 1607.46 C 1778.73 1597.45 1758.47 1587.52 1737.88 1579.07 C 1720.71 1572.02 1703.18 1566.2 1685.81 1559.74 A 3368.77 3368.77 0 0 1 1626.96 1536.66 C 1595.03 1523.92 1563.98 1509.01 1531.81 1496.92 C 1491.07 1481.6 1448.95 1468.96 1408.84 1452 C 1405.71 1427.97 1405.01 1403.46 1402.99 1379.29 A 10794.4 10794.4 0 0 0 1384.99 1164.78 C 1403.68 1154 1422.71 1144.74 1442.54 1136.23 C 1453.48 1137.72 1463.95 1141.47 1474.68 1143.95 L 1543.31 1159.08 C 1554.87 1135.22 1566.47 1111.23 1579.49 1088.13 C 1580.77 1085.09 1581.65 1083.91 1581.16 1080.61 C 1579.16 1078.61 1577.23 1077.14 1574.88 1075.56 C 1541.22 1076.95 1507.51 1077.14 1473.86 1078.59 C 1429.61 1080.51 1384.92 1083.99 1340.74 1087.3 C 1325.37 1088.45 1309.79 1090.06 1294.5 1091.95 C 1288.44 1092.69 1282.28 1094.45 1276.22 1094.79 C 1273.79 1094.92 1271.93 1094.56 1269.71 1093.53 C 1268.46 1091.59 1268.05 1090.81 1268.9 1088.39 C 1269.17 1087.6 1269.92 1086.63 1270.41 1085.94 C 1278.78 1084 1288.36 1084.63 1296.96 1084.09 C 1314.49 1083.01 1332.03 1081.53 1349.54 1080.23 C 1383.62 1077.7 1417.5 1072.98 1451.62 1070.8 C 1492.03 1068.22 1532.43 1068.22 1572.81 1066.01 z"/>
<path transform="translate(0,0)" fill="rgb(254,254,254)" d="M 1774.33 1271.79 C 1774.97 1270.24 1775.21 1270.07 1776.47 1269.07 C 1779.09 1269.2 1779.36 1269.47 1781.51 1271.02 C 1780.56 1275.63 1780.15 1282.5 1777.58 1286.41 C 1775.11 1284.34 1774.71 1276.43 1774.43 1273.12 L 1774.33 1271.79 z"/>
<path transform="translate(0,0)" fill="rgb(254,254,254)" d="M 1583.68 1092.37 C 1585.97 1089.73 1588.66 1085.7 1592.26 1085.07 C 1599.58 1088.32 1612.17 1121.66 1615.63 1130.63 C 1621.54 1145.92 1628.53 1161.82 1633.13 1177.5 C 1619.47 1175.8 1556.82 1164.68 1548.26 1158.9 C 1554.72 1148.55 1559.53 1137.08 1565.06 1126.21 C 1570.89 1114.77 1577.53 1103.66 1583.68 1092.37 z"/>
<path transform="translate(0,0)" fill="rgb(254,254,254)" d="M 1398.87 1178.24 C 1434.66 1186.74 1471.02 1192.54 1507.05 1199.89 C 1519.96 1202.52 1532.66 1206.04 1545.53 1208.86 L 1642.28 1230.31 C 1682.95 1239.67 1734.78 1251.27 1772.5 1268.82 C 1769.26 1276.14 1771.21 1286.71 1774.14 1293.96 C 1775.22 1296.65 1776.73 1299.17 1778.12 1301.7 C 1783.32 1291.57 1784.21 1282.32 1783.71 1271.21 L 1784.51 1270.7 C 1791.65 1272.3 1799.07 1272.44 1806.07 1274.56 C 1807.75 1291.83 1807.4 1309.11 1807.97 1326.43 L 1810.83 1410.3 C 1808.23 1411.09 1804.74 1411.79 1803.05 1414.06 C 1801.73 1415.82 1801.4 1417.72 1801.61 1419.83 L 1803.53 1420.18 C 1806.98 1418.34 1808.94 1414.57 1811.09 1411.42 C 1814.09 1423 1817.5 1434.78 1819.19 1446.62 C 1821.27 1461.12 1820.99 1476.41 1821.96 1491.07 A 3031.3 3031.3 0 0 1 1827.94 1605.46 C 1765.67 1568.5 1695.83 1547.25 1628.6 1521.33 C 1588.87 1506.01 1550.45 1487.72 1510.85 1472.07 A 1464.29 1464.29 0 0 0 1463.33 1454.07 C 1450.57 1449.42 1434.79 1445.39 1423.53 1437.82 C 1416.88 1374.29 1409.07 1310.8 1403.83 1247.14 C 1401.95 1224.27 1399.31 1201.19 1398.87 1178.24 z"/>
<path transform="translate(0,0)" fill="rgb(35,31,32)" d="M 1440.32 1372.42 L 1442.23 1373.28 C 1446.57 1381.77 1445.38 1405.8 1444.86 1415.67 L 1443.07 1415.86 C 1439.73 1411.34 1439.74 1379.43 1440.32 1372.42 z"/>
<path transform="translate(0,0)" fill="rgb(35,31,32)" d="M 1449.94 1237.31 C 1452.16 1238.45 1452.31 1238 1453.29 1240.47 C 1441.61 1255.97 1440.63 1275.76 1440.01 1294.48 C 1438.09 1293.6 1436.16 1293.01 1435.4 1290.86 C 1430.64 1277.37 1443.18 1248.98 1449.94 1237.31 z"/>
<path transform="translate(0,0)" fill="rgb(35,31,32)" d="M 1459.33 1433.2 C 1468.94 1433.08 1488.04 1437.71 1498.05 1439.74 C 1505.14 1441.18 1523.38 1445.21 1527.38 1451.18 C 1526.18 1451.26 1525.6 1451.34 1524.46 1451.27 C 1517.53 1450.82 1509.34 1447.15 1502.41 1445.65 C 1490.52 1443.08 1477.36 1442.55 1466 1438.07 C 1463.06 1436.91 1461.41 1435.54 1459.33 1433.2 z"/>
<path transform="translate(0,0)" fill="rgb(35,31,32)" d="M 1743.87 1522.88 C 1750.87 1522.18 1793.27 1542.1 1800.85 1547.38 C 1803.9 1549.5 1803.92 1550.91 1804.63 1554.3 C 1787.14 1545.63 1762.09 1536.49 1746.69 1527.09 C 1744.31 1525.64 1744.43 1525.48 1743.87 1522.88 z"/>
<path transform="translate(0,0)" fill="rgb(35,31,32)" d="M 1581.77 1467.99 C 1590.1 1468.51 1653.71 1492.1 1661.53 1496.95 C 1663.97 1498.47 1663.79 1499.16 1664.42 1501.83 C 1653.56 1500.09 1588 1473.49 1581.77 1467.99 z"/>
<path transform="translate(0,0)" fill="rgb(35,31,32)" d="M 1800.69 1336.79 C 1802.34 1337.94 1802.69 1338.45 1803.71 1340.11 C 1803.79 1343.77 1803.93 1347.91 1802.56 1351.38 C 1801.63 1353.73 1800.78 1354.41 1798.48 1355.21 L 1796.2 1353.79 C 1795.54 1351.89 1795.03 1350.06 1793.85 1348.4 C 1793.01 1347.23 1792.37 1347.51 1791.05 1347.32 L 1790 1348.6 C 1789.32 1365.59 1793.25 1386.89 1800.03 1402.44 C 1799.36 1404 1799.19 1404.33 1797.84 1405.47 L 1796.16 1404.2 C 1788.55 1388.5 1785.72 1358.98 1787.02 1341.64 L 1788.88 1340.56 L 1791.9 1342.69 C 1792.03 1342.79 1792.16 1342.89 1792.28 1342.98 C 1795.78 1342.47 1798.27 1339.21 1800.69 1336.79 z"/>
<path transform="translate(0,0)" fill="rgb(35,31,32)" d="M 1475.91 1241.78 C 1473.46 1245.91 1473.51 1249.67 1469.61 1253.09 C 1461.07 1255.55 1465.5 1251.14 1460.04 1249.11 C 1458.74 1251.23 1457.92 1252.81 1455.78 1254.19 C 1453.98 1252.71 1452.94 1251.06 1452.58 1248.64 C 1452.02 1244.94 1456.14 1246.91 1457.41 1243.16 C 1460.05 1235.37 1456.74 1223.19 1463.23 1216.67 C 1464.37 1215.52 1464.89 1215.92 1466.35 1215.97 C 1470.78 1221.31 1469.56 1235.49 1470.19 1242.53 C 1472.09 1242.06 1474.23 1238.6 1475.55 1237.04 L 1477.08 1235.35 C 1479.81 1235.33 1479.87 1235.22 1481.98 1236.92 C 1484.92 1244.29 1487.21 1261.03 1483.67 1268.4 C 1483.48 1268.8 1483.26 1269.18 1483.05 1269.57 L 1481.96 1269.06 C 1480.98 1265.48 1480.17 1261.93 1479.5 1258.27 A 173.272 173.272 0 0 1 1477.15 1267.96 C 1473.98 1262.66 1475.91 1248.21 1475.91 1241.78 z"/>
<path transform="translate(0,0)" fill="rgb(35,31,32)" d="M 808.563 737.575 C 813.85 738.654 818.42 742.848 824.324 743.96 C 852.665 749.299 881.966 748.508 910.651 750.48 C 949.483 753.149 988.388 757.489 1027.11 761.569 C 1100.59 769.312 1173.36 782.021 1246.38 793.144 A 989.514 989.514 0 0 1 1280.7 798.697 C 1287.84 800.053 1296.15 802.777 1303.35 803.001 C 1307.55 803.131 1311.9 801.85 1316.06 801.354 C 1321.93 800.656 1324.52 801.382 1329.17 805.019 C 1330.36 807.15 1330.5 808.984 1330.41 811.373 C 1329.4 836.931 1311.07 892.169 1302.8 918.346 C 1292.15 952.017 1281.96 985.724 1270.53 1019.16 C 1258.17 1055.33 1244.55 1090.99 1231.71 1126.97 C 1229.04 1134.47 1218.88 1170.1 1214.35 1173.7 C 1209.42 1177.61 1178.2 1170.13 1170.67 1168.69 C 1171.16 1195.42 1178.44 1223.26 1185.38 1248.92 C 1189.42 1266.23 1190.9 1284.32 1195.57 1301.4 C 1192.65 1307.33 1189.59 1315.63 1182.78 1317.91 C 1172.76 1321.26 1157.81 1319.54 1147.17 1319.97 C 1135.51 1320.44 1123.9 1321.62 1112.23 1321.82 C 1062.63 1322.67 1012.79 1320.7 963.264 1323.49 C 951.607 1324.15 904.197 1332.33 897.365 1328.57 C 893.651 1301.92 887.351 1275.49 882.788 1248.94 L 857.889 1097 C 856.775 1097.08 855.68 1097.11 854.565 1097.16 C 845.338 1097.49 836.437 1095.26 827.346 1094.01 C 810.487 1091.7 793.656 1089.47 776.873 1086.61 C 773.777 1086.08 770.105 1085.68 767.41 1083.99 C 758.141 1078.19 751.93 1060.91 745.453 1051.98 C 741.955 1047.16 736.643 1044.26 733.067 1039.23 C 736.576 1024.79 738.638 1009.95 741.75 995.405 C 747.822 967.036 754.866 938.697 761.831 910.53 A 2788.52 2788.52 0 0 1 787.368 815.554 C 791.536 800.754 796.833 785.763 799.988 770.741 C 802.028 761.022 801.078 751.095 802.622 742.682 C 803.127 739.929 806.399 738.86 808.563 737.575 z"/>
<path transform="translate(0,0)" fill="rgb(254,254,254)" d="M 939.544 850.612 C 947.338 854.919 958.204 856.272 966.869 858.227 C 953.677 868.844 939.021 877.424 925.753 887.959 C 925.566 878.717 924.046 866.655 928.678 858.382 C 931.228 853.827 934.645 851.929 939.544 850.612 z"/>
<path transform="translate(0,0)" fill="rgb(254,254,254)" d="M 863.673 930.472 C 872.516 925.716 881.828 921.894 890.62 916.912 C 900.477 911.327 909.467 904.701 918.907 898.492 C 937.155 886.489 954.657 875.547 971.166 861.061 C 974.284 858.325 980.031 852.458 984.361 852.738 L 981.704 855.553 L 982.467 856.148 C 983.471 855.666 984.585 855.07 985.683 854.848 C 988.414 854.295 990.561 855.382 992.878 856.567 C 993.095 856.919 994.601 859.379 994.843 859.669 C 995.003 859.861 995.265 859.938 995.476 860.073 L 995.695 861.628 C 1005.49 864.402 1015.88 871.383 1024.87 876.21 C 1039.14 883.868 1053.39 891.398 1067.94 898.515 C 1075.51 902.333 1082.88 906.244 1091.1 908.492 C 1084.38 909.206 1078.51 909.752 1071.84 908.392 L 1072.48 909.299 C 1064.62 905.844 1037 917.519 1024.56 914.254 C 1018.45 919.422 915.131 922.554 900.431 923.175 C 908.832 917.187 918.219 912.065 926.055 905.382 C 925.09 904.844 922.162 907.149 921.189 907.735 C 904.003 918.093 883.624 927.261 863.673 930.472 z"/>
<path transform="translate(0,0)" fill="rgb(254,254,254)" d="M 851.664 1060.28 C 840.69 1059.35 764.99 1051.76 759.339 1048.53 C 755.335 1046.24 745.131 1039.39 744.281 1035.02 C 742.331 1024.99 750.522 999.651 753.148 988.165 C 761.065 953.543 768.154 919.012 777.124 884.616 C 785.176 853.741 794.89 823.428 803.387 792.7 C 805.772 784.073 809.88 758.363 814.118 753.002 C 822.808 749.445 837.113 755.429 846.666 755.996 C 872.33 757.519 898.108 758.084 923.713 760.567 C 951.217 763.235 978.529 767.964 1006.01 770.831 C 1050.03 775.422 1094.57 779.245 1138.32 786.06 L 1268.49 807.453 C 1282.47 809.828 1296.04 814.115 1310.13 815.965 L 1311.93 816.193 C 1307.25 839.254 1297.5 862.204 1290.37 884.661 C 1276.97 926.895 1264.02 969.798 1248.58 1011.32 C 1232.63 1054.22 1214.22 1096.05 1199.18 1139.32 C 1187.63 1135.4 1175.75 1130.77 1163.74 1128.64 C 1162.56 1121.03 1160.78 1113.5 1159.15 1105.98 C 1162.53 1105.1 1165.18 1104.56 1167.82 1102.19 C 1189.91 1052.78 1205.17 1000.86 1223.34 949.995 C 1236.92 911.993 1253.38 874.815 1265.96 836.517 C 1266.88 833.72 1267.5 832.091 1266.71 829.278 L 1264.46 828.178 C 1261.88 829.207 1260.79 831.148 1259.1 833.27 C 1251.09 833.752 1242.12 831.675 1234.04 830.973 C 1194.56 827.543 1155.79 820.086 1116.52 815.162 C 1074.98 809.952 1033.13 807.947 991.406 804.854 C 962.37 802.701 933.356 799.259 904.27 797.918 C 886.277 796.35 858.463 792.997 841.081 794.248 C 838.174 798.65 831.531 832.471 830.751 838.828 C 825.884 852.252 823.047 866.972 819.499 880.816 C 808.924 922.088 798.287 965.187 792.444 1007.41 C 792.042 1012.72 791.47 1017.98 791.935 1023.3 C 795.205 1028.03 798.862 1028.11 804.227 1029.07 C 817.185 1031.39 832.58 1034.56 845.67 1033.11 C 847.645 1032.61 847.48 1032.26 849.419 1033.25 C 852.553 1040.96 851.527 1052 851.664 1060.28 z"/>
<path transform="translate(0,0)" fill="rgb(254,254,254)" d="M 835.05 839.082 C 839.6 827.438 838.822 811.086 845.899 800.702 C 847.715 799.435 849.192 798.688 851.463 798.646 C 857.082 798.542 863.286 799.971 868.937 800.511 C 879.003 801.471 889.159 801.919 899.254 802.515 C 968.478 808.544 1037.96 812.397 1107.04 819.953 C 1136.3 823.154 1165.38 828.789 1194.59 832.64 C 1216.19 835.487 1238.24 835.78 1259.67 839.468 C 1249.53 868.489 1236.01 896.25 1225.57 925.126 A 5996.54 5996.54 0 0 0 1197.99 1004.11 C 1187.27 1035.43 1177.39 1068.96 1159.5 1097.01 C 1159.83 1074.19 1153.64 1048.8 1148.99 1026.48 A 3261.3 3261.3 0 0 1 1133.54 950.621 C 1131.89 941.488 1127.85 927.357 1127.98 918.538 C 1128.01 916.035 1130.03 913.342 1131.32 911.252 C 1128.61 908.013 1099.23 899.376 1092.45 896.746 C 1065.74 886.398 998.311 857.309 984.3 832.849 C 979.897 836.629 974.941 840.362 971.066 844.66 C 967.729 848.083 965.602 850.3 960.552 850.506 C 955.769 850.7 947.068 848.541 943.02 845.952 C 937.142 845.201 931.697 845.96 926.927 849.701 C 923.448 852.429 921.277 856.022 919.16 859.834 C 919.992 870.468 919.734 881.205 920.037 891.866 L 918.867 892.797 C 906.834 902.226 891.584 909.962 878.049 917.149 C 869.386 921.749 853.636 926.203 847.557 934.12 C 847.379 936.45 847.761 937.083 848.76 939.012 C 849.431 940.307 849.863 941.534 849.972 942.995 C 850.574 951.106 850.715 1024.88 849.772 1028.02 C 849.593 1028.61 849.183 1029.11 848.889 1029.66 L 845.387 1029.84 C 834.645 1025.52 809.226 1024.19 795.726 1021.31 C 795.914 1017.25 796.664 1013.14 797.214 1009.11 C 798.745 996.158 802.076 983.413 804.708 970.647 C 813.802 926.538 826.215 883.173 835.05 839.082 z"/>
<path transform="translate(0,0)" fill="rgb(77,74,76)" d="M 869.084 857.606 C 870.282 858.376 871.094 859.034 871.688 860.37 C 874.697 867.125 877.433 872.764 881.636 878.919 L 881.455 877.745 C 885.669 881.677 886.96 885.714 888.667 890.991 C 887.667 894.734 886.457 898.429 885.322 902.133 C 884.2 903.467 883.396 904.155 882.011 905.153 L 880.456 904.548 C 878.432 899.265 883.337 892.911 881.742 887.507 C 881.08 885.267 879.002 883.021 877.607 881.179 C 871.749 873.448 870.136 867.018 869.084 857.606 z"/>
<path transform="translate(0,0)" fill="rgb(35,31,32)" d="M 881.86 811.882 C 888.496 816.862 891.841 821.692 894.549 829.525 C 897.407 831.371 898.088 831.293 898.928 834.787 C 899.016 835.155 899.034 835.538 899.138 835.901 C 900.802 841.725 913.851 851.666 913.54 855.395 C 904.864 852.345 899.704 845.024 892.421 842.04 C 890.09 845.704 886.341 849.911 883.278 853.099 C 881.405 855.047 879.59 855.351 876.953 855.377 C 868.742 852.013 862.873 837.135 858.773 829.486 C 865.522 822.875 874.124 817.338 881.86 811.882 z"/>
<path transform="translate(0,0)" fill="rgb(254,254,254)" d="M 1104.64 921.426 C 1108.83 920.964 1113.29 921.127 1117.51 920.998 C 1125.51 951.632 1131.05 983.552 1136.9 1014.67 C 1145.98 1063.02 1148.62 1113.14 1154.05 1162.03 C 1155.93 1178.94 1157.75 1196.01 1160.06 1212.86 C 1162.86 1233.23 1166.21 1253.46 1167.06 1274.04 C 1167.29 1279.58 1168.03 1287.65 1164.57 1292.29 C 1162.96 1294.43 1160.82 1296.16 1158.29 1297.08 C 1150.27 1300.01 1138.85 1299.74 1130.18 1300.74 C 1110.42 1303 1090.72 1305.66 1070.85 1306.58 C 1037.34 1308.14 1003.54 1306.89 969.956 1308.07 C 952.386 1308.68 934.259 1310.4 916.777 1312.3 C 915.638 1312.15 915.373 1312.3 914.551 1311.65 C 904.56 1303.72 882.117 1174.21 878.032 1152.83 C 873.486 1129.02 867.348 1104.93 864.556 1080.86 C 859.128 1034.07 856.835 986.975 854.483 939.954 A 2001.96 2001.96 0 0 0 1000.12 929.81 C 1016.24 928.257 1032.26 925.77 1048.39 924.423 C 1067.08 922.862 1085.91 922.556 1104.64 921.426 z"/>
<path transform="translate(0,0)" fill="rgb(35,31,32)" d="M 1107.56 946.624 L 1108.94 946.315 C 1109.13 946.533 1109.35 946.726 1109.5 946.971 C 1111.18 949.62 1114.72 982.231 1113.74 985.853 C 1111.45 987.8 1111.09 987.439 1108.03 987.406 C 1097.06 977.714 1097.46 960.888 1095.17 947.26 C 1099.35 947.329 1103.4 947.004 1107.56 946.624 z"/>
<path transform="translate(0,0)" fill="rgb(254,254,254)" d="M 1101.98 952.703 C 1102.39 953.037 1103.06 953.552 1103.35 953.923 C 1107.27 958.82 1107.06 973.496 1106.73 979.619 C 1105.86 978.365 1105.01 977.139 1104.38 975.743 C 1101.7 969.869 1099.88 958.862 1101.98 952.703 z"/>
<path transform="translate(0,0)" fill="rgb(35,31,32)" d="M 362.948 1038.93 C 356.16 1035.58 352.14 1032.34 349.685 1024.83 C 347.903 1019.37 348.457 1012.9 351.334 1007.91 C 353.9 1003.47 358.327 1000.07 363.37 998.986 C 367.187 998.166 371.294 998.791 374.537 1001.03 C 380.545 1005.18 382.547 1012.55 383.903 1019.3 C 398.779 1025.13 414.24 1029.3 429.623 1033.54 C 440.811 1025.93 449.826 1014.68 461.126 1007.66 C 463.327 1006.29 463.642 1005.83 466.212 1006.4 C 467.27 1008.56 467.734 1010.03 469.929 1011.24 C 473.092 1011 475.672 1010.74 478.763 1011.71 C 486.066 1019.42 486.341 1036.96 490.502 1047.12 C 490.668 1047.53 490.848 1047.93 491.021 1048.33 C 494.792 1047.44 498.635 1046.78 502.44 1046.05 C 519.203 1042.47 537.333 1040.65 554.412 1039.3 C 574.065 1035.25 595.071 1033.72 615.019 1031.12 C 623.477 1029.99 652.702 1024.39 659.547 1028.3 C 655.21 1031.45 623.584 1034.32 615.733 1035.53 C 603.817 1037.76 591.796 1040.47 579.674 1041.22 C 565.255 1046.08 522.282 1050.68 506.381 1051.18 L 492.262 1053.37 C 496.956 1071.33 532.992 1196.94 540.992 1202.82 C 542.785 1202.58 544.591 1202.37 546.375 1202.07 C 557.072 1196.54 594.732 1194.26 607.998 1192.38 C 655.631 1185.63 703.105 1177.78 751.011 1173.06 C 776.518 1170.55 802.379 1169.38 827.983 1168.38 C 834.171 1168.14 843.494 1165.81 849.241 1167.42 C 845.114 1171.95 796.241 1173.76 786.971 1174.42 C 724.681 1178.89 662.843 1191.89 600.909 1199.68 C 584.602 1201.73 566.853 1205.52 550.479 1205.89 C 548.889 1205.93 548.63 1205.86 547.257 1205.68 L 542.223 1206.27 C 540.582 1208.53 540.803 1210.11 541.207 1212.78 C 544.264 1233.01 562.165 1253.13 548.695 1273.54 C 526.007 1307.91 501.194 1340.99 478.409 1375.36 C 458.454 1405.45 440.275 1436.97 421.908 1468.06 C 441.889 1465.45 461.644 1461.42 481.482 1457.93 L 588.408 1439.56 C 618.07 1434.69 648.055 1431.9 677.88 1428.24 A 2321.78 2321.78 0 0 1 743.532 1420.58 C 749.022 1420.05 754.583 1420.28 760.005 1419.74 C 762.937 1419.44 765.433 1418.74 767.881 1417.14 C 760.681 1417.3 754.153 1418.29 748.446 1413.02 C 746.009 1410.77 744.68 1407.74 744.702 1404.42 C 744.736 1399.33 747.668 1394.85 751.394 1391.61 C 756.693 1387 762.926 1385.8 769.573 1384.43 C 774.802 1388.38 781.739 1393.19 782.457 1400.28 C 782.872 1404.37 780.984 1408.53 778.285 1411.51 C 776.602 1413.37 774.671 1415.07 772.811 1416.75 L 773.338 1417.25 C 803.818 1414.54 834.577 1407.98 865.103 1406.88 C 841.724 1416.88 808.927 1419.15 783.546 1422.56 C 798.767 1440.98 812.885 1460.11 828.8 1477.99 C 846.791 1474.98 986.115 1453.85 993.921 1458.46 C 996.703 1465.39 996.476 1484.92 998.007 1494.02 C 1003.81 1528.55 1011.3 1562.87 1017.05 1597.41 C 1022.94 1632.79 1027.01 1667.76 1030.75 1703.36 C 1032.46 1719.63 1036.71 1735.65 1036.01 1752.09 C 1009.12 1758.68 981.874 1763.51 954.761 1769.05 C 928.685 1774.38 902.75 1780.41 876.653 1785.62 C 815.621 1797.83 753.809 1809.71 693.855 1826.53 C 657.056 1836.85 620.56 1846.93 584.072 1858.39 C 579.223 1859.92 557.658 1867.86 554.389 1866.86 C 540.82 1847.22 520.305 1734.8 514.278 1704.45 C 511.847 1692.21 508.62 1680.09 506.484 1667.8 C 504.021 1653.62 502.565 1639.29 500.001 1625.1 C 496.354 1604.92 490.629 1585.16 488.479 1564.68 C 487.989 1560 487.177 1550.63 490.62 1547.1 C 491.504 1546.19 493.059 1546.11 494.254 1546.34 C 497.304 1546.94 498.285 1549.13 499.953 1551.42 C 531.794 1539.96 566.083 1533.61 599.044 1526.1 C 634.765 1517.96 670.835 1508.92 706.879 1502.43 C 718.84 1477.94 729.762 1452.96 742.373 1428.79 C 721.076 1429.43 698.916 1433.69 677.709 1436.29 C 613.431 1444.18 549.713 1454.95 485.804 1465.35 C 463.243 1469.02 440.633 1474.39 417.853 1476.35 C 397.029 1506.64 374.394 1537.45 357.013 1569.81 C 345.93 1565.66 331.905 1563.01 320.137 1561.81 C 317.89 1563.2 316.063 1564.64 313.309 1564.58 C 311.364 1563.32 310.624 1563.03 309.782 1560.78 C 307.275 1554.06 306.708 1545.6 305.063 1538.54 C 302.051 1525.62 298.296 1512.84 295.149 1499.94 C 286.452 1464.28 277.559 1428.76 269.96 1392.84 C 265.506 1371.78 262.696 1350.1 257.377 1329.31 A 689.279 689.279 0 0 0 242.704 1280.96 C 238.362 1268.61 233.282 1256.52 230.231 1243.77 C 239.829 1227.6 253.702 1216.7 266.31 1203.15 C 296.05 1171.17 327.556 1139.41 355.197 1105.67 C 358.018 1083.42 359.421 1061.08 362.948 1038.93 z"/>
<path transform="translate(0,0)" fill="rgb(254,254,254)" d="M 358.167 1004.94 C 360.041 1007.96 362.715 1010.3 365.244 1012.76 C 363.936 1017.37 362.658 1021.41 360.236 1025.6 C 358.486 1024.96 356.813 1024.24 355.108 1023.5 C 352.614 1020.66 352.709 1016.05 352.276 1012.42 L 358.167 1004.94 z"/>
<path transform="translate(0,0)" fill="rgb(254,254,254)" d="M 384.468 1030.92 C 394.327 1030.87 414.641 1037.14 425.25 1039.88 C 410.06 1052.17 396.464 1065.91 382.625 1079.66 C 375.907 1086.04 369.43 1092.46 363.233 1099.36 C 364.751 1083.18 365.363 1052.39 372.352 1038.01 C 374.062 1037.55 373.362 1037.56 375.132 1037.79 C 375.548 1037.84 375.961 1037.92 376.376 1037.98 C 379.501 1036.57 381.224 1034.54 383.504 1032.01 L 384.468 1030.92 z"/>
<path transform="translate(0,0)" fill="rgb(254,254,254)" d="M 774.637 1424.48 L 776.208 1424.67 C 792.348 1441.42 807.495 1460.48 821.625 1478.97 C 800.242 1483.55 778.943 1488.59 757.62 1493.44 A 1144.23 1144.23 0 0 1 715.473 1500.62 C 721.077 1486.34 740.436 1440.45 748.81 1430.06 C 752.466 1425.52 768.644 1425.22 774.637 1424.48 z"/>
<path transform="translate(0,0)" fill="rgb(254,254,254)" d="M 471.787 1025.85 C 474.502 1032.61 475.815 1041.48 477.669 1048.63 A 1156.37 1156.37 0 0 0 490.753 1095.75 C 502.224 1132.83 515.169 1169.53 526.927 1206.56 C 532.29 1223.44 538.784 1240.73 541.866 1258.18 C 533.602 1270.85 526.57 1284.35 518.634 1297.24 L 469.181 1376.72 L 357.289 1558.19 C 355.085 1553.09 353.666 1548.03 352.259 1542.68 C 343.276 1511.76 330.688 1481.81 322.217 1450.81 C 313.259 1418.02 305.953 1384.69 297.342 1351.81 C 294.011 1339.09 289.558 1326.66 286.006 1313.99 C 280.482 1294.3 276.909 1273.66 267.237 1255.45 C 281.314 1232.46 304.302 1212.81 322.243 1192.64 C 346.791 1165.04 369.935 1136.08 394.727 1108.73 C 420.044 1080.81 447.05 1054.34 471.787 1025.85 z"/>
<path transform="translate(0,0)" fill="rgb(35,31,32)" d="M 453.197 1058.3 C 455.272 1056.48 456.971 1054.46 459.885 1054.34 C 467.537 1060.55 483.038 1111.97 486.816 1124.13 A 9187.43 9187.43 0 0 1 515.342 1213.61 C 519.666 1227.83 522.891 1242.25 527.835 1256.31 C 527.594 1256.58 527.348 1256.86 527.111 1257.14 C 514.439 1272.09 506.57 1292.23 495.872 1308.74 C 488.32 1320.4 479.355 1331.13 471.636 1342.69 L 382.314 1477.32 C 377.383 1484.79 371.984 1492.64 368.13 1500.71 C 366.702 1503.7 365.864 1509.37 364.014 1511.82 C 363.593 1512.38 362.796 1512.5 362.187 1512.84 C 359.83 1511.83 358.94 1510.9 357.87 1508.51 C 352.508 1496.53 350.392 1481.48 346.899 1468.76 C 343.195 1455.27 338.828 1441.98 335.248 1428.45 C 328.737 1403.84 323.13 1379.02 316.832 1354.37 C 312.508 1337.45 305.374 1321.37 301.083 1304.46 C 298.491 1294.24 285.282 1244.82 287.001 1238.14 C 299.633 1231.5 313.526 1214.3 323.432 1203.96 C 343.607 1182.9 364.635 1162.73 383.849 1140.72 C 397.592 1124.97 409.257 1107.26 423.772 1092.25 C 423.06 1096.39 421.538 1097.15 419.196 1100.41 C 421.337 1100.36 421.625 1100.1 423.622 1099.39 C 423.914 1099.28 424.24 1099.33 424.549 1099.3 C 412.131 1114.31 401.041 1130.38 388.526 1145.28 C 378.347 1157.4 304.638 1237.32 292.814 1238.4 C 292.271 1238.45 291.725 1238.44 291.18 1238.46 C 292.612 1239.54 293.029 1240.15 293.666 1241.87 C 296.361 1249.16 297.467 1258.33 299.074 1265.99 A 629.411 629.411 0 0 0 309.286 1309.1 L 361.999 1496.69 C 377.725 1467.65 397.906 1440.43 416.377 1413.08 L 494.545 1296.74 C 503.78 1283.18 509.135 1268.23 520.286 1255.85 C 512.841 1232.65 506.67 1209.03 499.741 1185.68 C 493.593 1164.95 486.629 1144.45 480.44 1123.71 C 472.126 1103.33 465.551 1081.61 458.537 1060.73 C 457.259 1059.66 454.77 1058.98 453.197 1058.3 z"/>
<path transform="translate(0,0)" fill="rgb(254,254,254)" d="M 453.197 1058.3 C 454.77 1058.98 457.259 1059.66 458.537 1060.73 C 465.551 1081.61 472.126 1103.33 480.44 1123.71 C 486.629 1144.45 493.593 1164.95 499.741 1185.68 C 506.67 1209.03 512.841 1232.65 520.286 1255.85 C 509.135 1268.23 503.78 1283.18 494.545 1296.74 L 416.377 1413.08 C 397.906 1440.43 377.725 1467.65 361.999 1496.69 L 309.286 1309.1 A 629.411 629.411 0 0 1 299.074 1265.99 C 297.467 1258.33 296.361 1249.16 293.666 1241.87 C 293.029 1240.15 292.612 1239.54 291.18 1238.46 C 291.725 1238.44 292.271 1238.45 292.814 1238.4 C 304.638 1237.32 378.347 1157.4 388.526 1145.28 C 401.041 1130.38 412.131 1114.31 424.549 1099.3 C 424.24 1099.33 423.914 1099.28 423.622 1099.39 C 421.625 1100.1 421.337 1100.36 419.196 1100.41 C 421.538 1097.15 423.06 1096.39 423.772 1092.25 C 429.265 1082.8 445.389 1068.3 453.197 1058.3 z"/>
<path transform="translate(0,0)" fill="rgb(77,74,76)" d="M 453.197 1058.3 C 454.77 1058.98 457.259 1059.66 458.537 1060.73 C 448.153 1074.34 436.242 1086.81 424.549 1099.3 C 424.24 1099.33 423.914 1099.28 423.622 1099.39 C 421.625 1100.1 421.337 1100.36 419.196 1100.41 C 421.538 1097.15 423.06 1096.39 423.772 1092.25 C 429.265 1082.8 445.389 1068.3 453.197 1058.3 z"/>
<path transform="translate(0,0)" fill="rgb(254,254,254)" d="M 987.009 1467.52 L 989.37 1468.35 C 991.677 1475.76 990.693 1487.67 992.034 1495.99 L 1002.52 1562.42 C 1004.65 1575.59 1007.69 1588.55 1009.36 1601.81 C 1013.17 1632 1014.43 1662.15 1016.24 1692.47 C 1017.12 1707.38 1020.3 1725.05 1017.69 1739.72 C 996.985 1746.37 974.994 1750.09 953.814 1755.08 A 7400.78 7400.78 0 0 1 775.773 1793.51 C 755.642 1797.77 735.71 1803.39 715.755 1808.42 A 2676.42 2676.42 0 0 0 559.061 1851.44 L 552.843 1832.73 C 543.688 1802.38 535.76 1770.9 529.676 1739.77 C 526.218 1722.08 523.814 1704.17 520.503 1686.43 C 512.476 1643.45 503.684 1600.93 500.794 1557.24 C 503.777 1557.73 506.519 1558.08 509.499 1557.28 C 523.806 1553.47 537.634 1547.77 552.048 1544.03 C 575.866 1537.86 600.691 1533.62 624.788 1528.36 L 708.62 1510.8 C 761.592 1499.32 814.662 1487.24 868.324 1479.35 C 907.511 1473.58 947.552 1470.98 987.009 1467.52 z"/>
<path transform="translate(0,0)" fill="rgb(35,31,32)" d="M 549.135 1711.31 C 549.606 1711.51 550.118 1711.63 550.547 1711.91 C 550.674 1711.99 552.141 1713.48 552.259 1713.69 C 552.555 1714.24 565.051 1755.63 565.232 1756.82 C 564.185 1756.45 562.973 1756.01 562.108 1755.3 C 554.428 1748.97 549.106 1721.13 549.135 1711.31 z"/>
<path transform="translate(0,0)" fill="rgb(35,31,32)" d="M 799.472 1758.27 C 802.406 1758.03 803.929 1758.04 806.76 1759.13 C 803.552 1762.75 771.095 1769.98 764.228 1771.85 C 761.259 1772.48 759.995 1773.05 757.063 1772.1 L 757.499 1770.72 C 769.869 1764.71 785.906 1760.43 799.472 1758.27 z"/>
<path transform="translate(0,0)" fill="rgb(35,31,32)" d="M 961.186 1513.26 C 960.457 1508.3 961.927 1501.18 961.232 1497.71 C 960.765 1495.37 960.266 1494.85 958.312 1493.68 C 957.062 1493.93 955.819 1494.13 954.564 1494.35 C 942.388 1496.43 929.799 1495.32 917.497 1495.88 C 910.971 1496.18 904.742 1497.88 898.293 1498.63 C 896.177 1498.87 893.535 1499.39 891.839 1498.01 L 892.87 1496.85 C 909.97 1490.39 943.912 1491.28 962.804 1491.3 C 962.978 1495.99 963.306 1500.23 964.368 1504.83 C 965.186 1513.1 968.57 1536.95 963.746 1543.54 C 963.528 1543.84 963.254 1544.09 963.008 1544.37 L 961.819 1544 C 959.389 1536.01 960.187 1521.74 961.186 1513.26 z"/>
<path transform="translate(0,0)" fill="rgb(35,31,32)" d="M 977.149 1725.05 L 978.392 1725.48 L 976.986 1725.09 L 978.326 1726.54 C 972.266 1732.32 958.452 1734.5 950.553 1736.47 L 950.222 1737.44 L 949.744 1736.66 C 930.56 1740.94 911.283 1744.02 892.038 1747.88 C 882.292 1749.83 872.807 1752.72 862.999 1754.46 L 861.869 1753.79 L 861.859 1752.01 C 866.315 1749.1 872.577 1748.23 877.681 1746.84 C 906.36 1739.07 953.294 1735.62 977.149 1725.05 z"/>
<path transform="translate(0,0)" fill="rgb(35,31,32)" d="M 918.374 1629.35 C 935.439 1628.2 954.549 1631.61 969.188 1640.8 C 977.902 1646.26 985.937 1654.64 988.098 1665.01 C 990.084 1674.54 987.119 1685.24 981.738 1693.19 C 971.641 1708.11 952.848 1713.31 936.226 1716.85 C 918.656 1719.3 895.163 1719.67 879.991 1708.98 C 872.931 1704 867.939 1696.75 866.719 1688.11 C 864.956 1675.63 870.864 1661.66 878.318 1651.79 C 888.482 1638.33 901.91 1631.53 918.374 1629.35 z"/>
<path transform="translate(0,0)" fill="rgb(254,254,254)" d="M 922.286 1636.42 C 932.999 1636.15 943.36 1637.5 953.417 1641.3 C 967.357 1646.55 977.267 1654.6 983.453 1668.25 C 981.93 1675.17 980.542 1681.51 976.655 1687.59 C 967.972 1701.17 951.905 1707.16 936.898 1710.71 C 935.131 1711.02 933.411 1711.29 931.625 1711.48 C 916.08 1713.09 894.558 1713.2 881.914 1702.6 C 876.942 1698.43 874.212 1692.81 873.664 1686.36 C 872.668 1674.65 878.139 1662 885.64 1653.16 C 895.32 1641.76 907.814 1637.45 922.286 1636.42 z"/>
<path transform="translate(0,0)" fill="rgb(35,31,32)" d="M 922.361 1645.88 C 926.072 1645.42 928.966 1645.94 932.439 1647.37 C 941.376 1651.04 945.366 1657.47 949.102 1665.86 C 948.487 1668.53 947.816 1671.15 946.703 1673.67 C 943.435 1681.04 937.855 1683.67 930.675 1686.38 C 927.494 1686.74 924.168 1686.74 921.009 1686.2 C 915.616 1685.29 910.239 1683.51 907.069 1678.75 C 904.593 1675.03 904.199 1670.43 905.261 1666.16 C 907.64 1656.61 914.473 1650.9 922.361 1645.88 z"/>
</svg>