<svg version="1.1" xmlns="http://www.w3.org/2000/svg" style="display: block;" viewBox="0 0 2048 2048" width="1024" height="1024">
<path transform="translate(0,0)" fill="rgb(254,254,254)" d="M 0 0 L 2048 0 L 2048 2048 L 0 2048 L 0 0 z"/>
<path transform="translate(0,0)" fill="rgb(35,31,32)" d="M 1698.23 541.106 C 1700.76 541.029 1703.47 540.85 1706 541.124 C 1711.19 541.689 1717.1 544.04 1720.46 548.194 C 1722.93 551.255 1723.84 555.234 1723.23 559.099 C 1722.07 566.42 1716.59 572.022 1711.01 576.394 C 1710.66 576.388 1710.32 576.412 1709.98 576.375 C 1699.39 575.211 1704.52 564.458 1701.73 558.467 C 1699.2 553.042 1689.47 554.467 1685.87 549.487 C 1687.76 544.815 1693.86 543.01 1698.23 541.106 z"/>
<path transform="translate(0,0)" fill="rgb(35,31,32)" d="M 1206.61 352.222 C 1209.01 352.045 1211.42 351.951 1213.81 352.2 C 1219.21 352.761 1223.72 356.611 1227.02 360.698 C 1229.24 363.449 1230.13 365.63 1229.68 369.196 C 1228.63 371.207 1227.32 372.352 1225.24 373.341 C 1218.56 376.528 1215.26 367.895 1209.57 366.07 C 1206.23 366.125 1204.18 367.31 1201.26 368.877 L 1200.08 369.525 C 1197.96 371.62 1195.84 373.759 1193.6 375.722 C 1190.09 378.797 1187.24 379.632 1182.64 379.388 C 1181.31 378.519 1180.29 378.302 1179.78 376.693 C 1178.93 373.973 1179.7 371.193 1181.02 368.76 C 1185.72 360.1 1197.43 354.627 1206.61 352.222 z"/>
<path transform="translate(0,0)" fill="rgb(35,31,32)" d="M 1015.99 1208.92 C 1019.88 1208.88 1022.93 1208.8 1026.27 1211.09 C 1033.43 1215.99 1036.8 1225.79 1038.42 1233.89 C 1040.48 1244.17 1041.73 1265.47 1035.86 1274.22 C 1035.47 1274.12 1035.07 1274.04 1034.69 1273.93 C 1032.95 1273.47 1033.06 1273.48 1031.3 1272.75 C 1027.65 1271.23 1029.28 1255.57 1028.52 1251.03 C 1026.28 1237.73 1017.11 1227.83 1010.62 1216.49 L 1015.99 1208.92 z"/>
<path transform="translate(0,0)" fill="rgb(35,31,32)" d="M 504.984 476.264 C 510.621 475.863 516.373 476.492 521.21 479.752 C 522.916 480.902 522.873 480.961 523.235 483.065 C 519.506 489.955 508.845 486.391 499.605 496.754 C 488.712 508.972 488.59 525.434 489.376 540.765 C 489.694 542.99 490.037 543.065 488.948 545.168 C 488.03 545.101 487.422 545.109 486.512 544.775 C 482.895 543.449 479.83 536.979 478.653 533.531 C 475.021 522.891 480.02 503.9 485.137 494.197 C 489.497 485.931 495.846 478.936 504.984 476.264 z"/>
<path transform="translate(0,0)" fill="rgb(35,31,32)" d="M 804.918 373.087 C 811.551 372.788 814.912 373.101 820.38 376.841 C 821.66 379.208 822.191 379.733 821.094 382.444 C 818.206 389.579 807.266 388.395 801.314 390.952 C 788.405 396.497 782.782 413.565 777.894 425.638 C 777.339 426.457 776.527 427.741 775.815 428.388 C 773.946 430.087 772.851 430.255 770.535 430.164 C 768.863 428.779 768.09 428.233 767.421 426.064 C 764.687 417.203 770.274 404.34 774.692 396.557 C 781.494 384.575 791.677 376.654 804.918 373.087 z"/>
<path transform="translate(0,0)" fill="rgb(35,31,32)" d="M 476.843 470.522 C 478.73 471.213 480.079 472.051 481.705 473.228 C 483.773 479.683 469.487 506.544 467.593 515.941 C 464.782 529.892 473.223 540.396 470.749 550.923 C 468.761 553.415 468.724 553.544 465.651 554.321 C 463.738 553.26 461.758 552.14 460.206 550.572 C 454.545 544.853 452.676 535.064 452.494 527.342 C 452.012 506.841 462.835 485.036 476.843 470.522 z"/>
<path transform="translate(0,0)" fill="rgb(35,31,32)" d="M 1189.73 457.059 C 1191.19 456.972 1192.84 456.757 1194.25 457.262 C 1196.5 458.07 1199.6 460.52 1200.56 462.718 C 1202.65 467.524 1200.24 474.428 1198.39 478.908 C 1192.71 492.61 1181.27 502.161 1167.74 507.495 C 1165.52 507.738 1163.77 507.677 1161.66 506.815 C 1159.27 505.836 1157.26 504.193 1156.48 501.65 C 1155.11 497.139 1158.46 490.104 1160.39 486.063 C 1166.46 473.366 1176.24 461.799 1189.73 457.059 z"/>
<path transform="translate(0,0)" fill="rgb(35,31,32)" d="M 1038.58 1172.23 C 1041.55 1172.47 1045 1172.52 1047.76 1173.73 C 1054.75 1176.78 1059.65 1184.77 1062.19 1191.62 C 1068.33 1208.16 1069.48 1245.05 1061.95 1260.88 C 1060.4 1260.5 1058.09 1260.16 1056.73 1259.36 C 1056.47 1259.21 1054.82 1257.96 1054.67 1257.38 C 1053.74 1253.64 1054.71 1247.13 1054.57 1243.06 A 128.378 128.378 0 0 0 1052.16 1222.51 C 1050.9 1216.07 1049.06 1209.96 1046.28 1204.02 C 1043.1 1197.23 1033.35 1188.05 1033.24 1180.97 C 1033.18 1177.04 1035.9 1174.61 1038.58 1172.23 z"/>
<path transform="translate(0,0)" fill="rgb(35,31,32)" d="M 798.567 341.162 C 804.07 340.597 810.934 340.396 816.311 341.666 C 819.185 342.345 822.513 343.711 823.852 346.56 C 824.987 348.974 824.86 351.005 824.257 353.5 C 817.761 359.032 801.926 357.329 793.419 359.677 A 66.9042 66.9042 0 0 0 752.737 392.101 C 751.504 395.657 750.265 400.944 747.186 403.332 C 745.031 405.003 744.364 404.895 741.937 404.359 C 740.684 402.795 739.942 401.526 739.556 399.565 C 737.945 391.375 741.829 382.701 746.245 376.022 C 757.942 358.333 778.12 345.548 798.567 341.162 z"/>
<path transform="translate(0,0)" fill="rgb(35,31,32)" d="M 1324.87 471.356 L 1327.13 472.708 C 1329.39 481.114 1323.44 499.23 1322.33 508.642 C 1321.76 513.419 1322.07 518.333 1322.28 523.129 C 1324.6 513.38 1326.72 505.545 1333.67 497.898 C 1337.68 493.49 1346.4 486.219 1352.9 486.988 C 1355.05 487.241 1356.74 488.42 1357.62 490.408 C 1360.12 496.138 1356.82 503.63 1354.93 509.095 C 1352.01 515.98 1347.75 522.804 1342.58 528.241 C 1338.48 532.545 1332.9 536.218 1326.75 536.086 C 1322.5 535.995 1318.74 534.011 1315.84 530.98 C 1310.89 525.804 1308.97 518.477 1309.03 511.462 C 1309.17 497.333 1314.52 481.111 1324.87 471.356 z"/>
<path transform="translate(0,0)" fill="rgb(35,31,32)" d="M 334.059 903.22 C 341.041 902.944 351.148 901.859 356.79 906.566 C 358.48 913.785 337.985 924.804 333.088 930.052 C 323.782 940.025 327.659 952.172 322.804 963.271 C 321.19 964.685 319.564 965.519 317.289 965.015 C 314.73 964.448 313.683 963.267 312.522 960.982 C 308.469 953.002 313.987 937.257 316.407 929.167 C 314.026 929.419 313.199 931.239 311.653 932.98 C 308.108 940.198 303.996 949.024 302.416 956.916 C 301.493 961.525 302.327 969.714 299.994 973.629 C 299.496 974.465 298.563 974.946 297.848 975.604 C 295.057 976.118 293.289 976.04 290.793 974.485 C 287.798 972.618 286.456 967.825 285.767 964.555 C 283.306 952.882 287.717 938.655 294.194 928.844 C 303.738 914.39 317.351 906.642 334.059 903.22 z"/>
<path transform="translate(0,0)" fill="rgb(35,31,32)" d="M 1268.13 526.877 C 1269.08 526.878 1271.11 526.718 1272.1 527.034 C 1273.45 527.469 1274.27 528.102 1274.79 529.414 C 1276.85 534.587 1273.59 544.656 1271.76 549.799 C 1264.44 570.363 1248.81 590.134 1228.88 599.587 C 1215.06 606.14 1198.05 609.006 1183.42 603.387 C 1171.4 598.768 1162.52 588.443 1157.22 576.996 C 1156.29 572.332 1155.58 567.606 1154.76 562.919 C 1156.24 559.984 1157.28 556.799 1160.38 555.282 C 1167.17 557.353 1169.06 574.587 1174.8 580.34 C 1180.64 586.199 1191.74 589.575 1199.86 589.289 C 1234.22 588.079 1247.16 548.608 1267.25 527.772 L 1268.13 526.877 z"/>
<path transform="translate(0,0)" fill="rgb(35,31,32)" d="M 980.139 1351.12 C 985.419 1350.62 990.473 1350.97 995.161 1353.7 C 1010.63 1362.71 1022.72 1386.92 1027.12 1403.77 C 1030.53 1416.82 1032.1 1432.84 1024.74 1444.79 C 1018.84 1454.39 1009.29 1458.9 998.769 1461.62 C 989.374 1463.45 981.491 1464.32 972.579 1459.81 C 961.346 1454.12 954.124 1441.86 950.656 1430.11 C 944.851 1410.43 946.218 1386.33 956.507 1368.32 C 962.477 1357.86 968.976 1354.05 980.139 1351.12 z"/>
<path transform="translate(0,0)" fill="rgb(254,254,254)" d="M 989.461 1369.92 C 990.434 1370.26 990.884 1370.37 991.744 1370.82 C 1000.15 1375.14 1005.43 1389.81 1008.13 1398.51 C 1011.85 1410.52 1014.38 1424.72 1008.32 1436.31 C 1007.29 1437.39 1006.18 1438.27 1005.02 1439.21 C 1001.85 1437.72 1003.29 1431.93 1003.57 1428.86 C 1005.48 1407.36 1002.2 1387.69 989.461 1369.92 z"/>
<path transform="translate(0,0)" fill="rgb(254,254,254)" d="M 975.836 1368.77 C 976.092 1369.72 976.346 1371.41 976.072 1372.36 C 974.558 1377.61 969.314 1380.82 967.51 1391.81 C 963.789 1414.48 974.097 1431 986.731 1448 L 985.709 1448.99 L 981.847 1448.89 C 980.052 1447.43 978.35 1445.91 976.771 1444.22 C 966.112 1432.8 958.5 1417.21 959.345 1401.34 C 960.081 1387.5 965.647 1377.68 975.836 1368.77 z"/>
<path transform="translate(0,0)" fill="rgb(35,31,32)" d="M 883.95 492.3 C 891.469 491.533 918.179 490.385 924.103 494.016 C 925.898 495.116 926.092 495.773 926.766 497.739 C 932.863 515.528 931.345 538.81 922.541 555.419 C 913.045 573.335 893.237 582.273 874.673 587.698 C 863.981 589.645 853.197 589.36 843.883 583.086 C 835.584 577.495 830.796 568.305 828.954 558.651 C 826.436 545.454 829.972 530.396 837.629 519.335 C 848.128 504.166 866.155 495.284 883.95 492.3 z"/>
<path transform="translate(0,0)" fill="rgb(254,254,254)" d="M 914.783 523.825 C 916.026 520.933 917.244 518.725 919.098 516.183 C 918.864 525.719 914.293 548.635 906.715 554.839 C 905.177 556.098 903.376 556.587 901.488 555.842 C 900.996 555.648 900.58 555.297 900.126 555.025 C 906.082 544.841 910.946 534.993 914.783 523.825 z"/>
<path transform="translate(0,0)" fill="rgb(254,254,254)" d="M 860.607 521.379 L 861.32 522.569 C 860.954 523.073 860.582 523.573 860.222 524.081 C 852.779 534.591 845.944 549.647 843.239 562.138 A 30.7034 30.7034 0 0 1 841.906 543.274 C 844.395 533.292 852.19 526.554 860.607 521.379 z"/>
<path transform="translate(0,0)" fill="rgb(254,254,254)" d="M 894.163 506.051 C 898.846 504.04 903.48 503.911 908.442 504.668 C 893.31 517.337 885.885 538.616 875.054 554.961 C 870.693 560.275 870.007 566.13 864.312 570.544 C 863.344 565.446 879.81 544.223 883.008 539.067 C 887.48 531.858 896.707 516.312 894.657 507.833 C 892.786 508.792 890.669 509.815 889.221 511.371 C 881.065 520.138 859.617 557.717 855.828 569.787 L 855.282 571.584 C 853.147 571.926 852.797 572.054 850.935 570.694 C 849.059 569.323 847.611 567.187 846.189 565.366 L 849.756 563.054 C 850.231 561.393 850.553 559.827 850.781 558.115 C 852.026 557.793 853.222 557.52 854.319 556.81 C 861.933 551.879 878.68 520.994 880.024 511.907 C 880.847 510.534 881.741 509.387 882.932 508.317 C 884.988 506.471 887.223 505.831 889.98 506.112 C 892.063 506.324 890.763 506.404 892.966 506.199 C 893.367 506.162 893.764 506.101 894.163 506.051 z"/>
<path transform="translate(0,0)" fill="rgb(35,31,32)" d="M 1419.84 186.596 C 1444.72 184.093 1472.2 186.319 1496.79 190.575 C 1561.67 201.802 1636.64 240.132 1684.84 285.025 C 1702.33 301.308 1716.91 319.82 1730.66 339.292 C 1764.45 387.174 1798.88 460.781 1788.71 519.931 C 1784.71 506.832 1783.02 492.696 1780.02 479.296 C 1776.2 462.285 1770.36 446.257 1763.6 430.249 C 1759.31 418.802 1753.47 407.791 1747.91 396.919 C 1728.13 358.258 1699.82 320.212 1667.61 290.983 C 1601.75 231.207 1500.08 190.689 1410.9 195.023 C 1392.87 195.899 1373.6 198.675 1355.96 202.592 C 1348.55 204.238 1332.68 210.606 1325.74 208.365 L 1324.98 206.688 C 1325.13 206.406 1325.25 206.1 1325.43 205.841 C 1332.71 195.768 1404.79 187.739 1419.84 186.596 z"/>
<path transform="translate(0,0)" fill="rgb(35,31,32)" d="M 326.904 647.302 C 336.444 645.943 345.705 646.305 354.141 651.508 C 361.925 656.308 366.067 663.364 367.883 672.18 C 371.588 690.16 369.303 714.319 358.455 729.617 C 348.186 744.1 318.963 758.2 301.645 761.467 C 292.582 762.826 283.835 761.362 276.126 756.203 C 267.19 750.224 261.566 740.13 259.622 729.707 A 60.336 60.336 0 0 1 269.633 683.767 C 283.414 664.257 303.572 651.43 326.904 647.302 z"/>
<path transform="translate(0,0)" fill="rgb(254,254,254)" d="M 337.354 659.477 C 337.63 659.481 337.912 659.433 338.183 659.49 C 347.993 661.53 352.925 667.19 357.36 675.568 C 357.309 682.143 357.343 688.777 356.707 695.327 C 355.434 708.446 349.701 716.952 339.732 725.148 C 329.435 733.615 308.37 747.64 294.38 746.212 C 289.177 744.987 284.15 743.484 279.768 740.291 C 274.578 736.51 271.372 731.378 270.574 724.986 C 269.034 712.656 275.427 698.681 282.889 689.067 C 297.223 670.6 314.642 662.505 337.354 659.477 z"/>
<path transform="translate(0,0)" fill="rgb(35,31,32)" d="M 316.62 679.39 C 319.117 680.058 319.067 679.506 320.493 681.886 C 319.134 695.499 304.922 713.463 296.124 723.526 L 293.242 722.346 L 292.414 720.156 C 294.439 706.904 308.921 690.335 316.62 679.39 z"/>
<path transform="translate(0,0)" fill="rgb(35,31,32)" d="M 342.393 671.768 C 342.982 672.237 343.019 672.212 343.537 673.018 C 346.141 677.067 344.003 683.982 342.89 688.386 C 339.385 702.253 332.491 720.735 319.648 728.329 L 317.816 727.39 C 317.491 726.524 317.256 726.115 317.325 725.079 C 317.524 722.1 334.877 682.759 337.605 677.661 C 338.816 675.397 340.574 673.549 342.393 671.768 z"/>
<path transform="translate(0,0)" fill="rgb(35,31,32)" d="M 223.306 1264.91 C 230.17 1265.77 236.68 1265.67 243.434 1267.48 C 255.369 1270.69 265.636 1277.99 271.596 1288.91 C 280.632 1305.47 280.819 1326.96 275.295 1344.64 C 268.443 1366.58 255.52 1382.6 235.224 1393.25 C 226.769 1396.59 219.627 1398.71 210.383 1396.64 C 201.858 1394.73 194.851 1389.4 190.433 1381.9 C 180.261 1364.65 182.164 1337.14 187.309 1318.56 C 192.491 1299.86 205.903 1274.82 223.306 1264.91 z"/>
<path transform="translate(0,0)" fill="rgb(254,254,254)" d="M 236.024 1285.53 C 239.775 1290.2 242.048 1294.15 242.74 1300.21 C 244.691 1317.26 235.361 1342.27 224.892 1355.52 L 223.611 1356.57 L 221.884 1356.15 C 215.852 1346.31 229.551 1313.18 232.839 1301.69 C 234.361 1296.37 235.231 1290.99 236.024 1285.53 z"/>
<path transform="translate(0,0)" fill="rgb(254,254,254)" d="M 231.273 1272.33 C 233.089 1272.8 234.9 1273.44 236.665 1274.08 C 244.893 1277.07 252.195 1282.08 255.811 1290.31 C 261.094 1302.34 258.429 1319.07 253.967 1331.06 C 248.113 1346.79 236.996 1367.71 220.809 1374.74 C 216.69 1376.53 211.616 1377.45 207.338 1375.64 C 203.6 1374.06 201.207 1370.76 199.829 1367.04 C 192.444 1347.14 202.697 1319.69 210.859 1301.63 C 213.025 1297.31 217.987 1285.09 222.493 1283.32 C 226.468 1289.5 203.062 1334.07 208.654 1354.9 C 209.477 1357.96 211.152 1360.61 214.095 1362.02 C 216.714 1363.28 220.432 1363.54 223.084 1362.33 C 230.629 1358.92 238.382 1343.75 241.728 1336.31 C 247.498 1323.49 254.554 1298.02 243.988 1286.25 C 237.854 1279.41 236.428 1285.79 231.273 1272.33 z"/>
<path transform="translate(0,0)" fill="rgb(35,31,32)" d="M 1466.02 138.57 C 1487.18 137.036 1509.26 137.699 1530.17 141.188 C 1607.67 154.123 1678.63 201.81 1724.11 265.583 C 1731.2 275.537 1752.76 308.732 1750.87 319.984 L 1749.38 320.669 C 1747.32 319.231 1729.83 283.932 1725.42 277.508 C 1697.58 237.014 1654.56 204.887 1611.75 181.773 A 260.718 260.718 0 0 0 1550.64 157.795 C 1490.31 143.082 1415.58 148.679 1356.3 166.371 C 1314.59 178.822 1240.12 206.854 1219 247.866 C 1217.21 251.359 1216.37 253.765 1217.6 257.554 C 1221.99 260.255 1231.75 254.808 1236.52 253 C 1302.85 227.875 1384.71 224.315 1454.44 236.872 C 1480.44 241.554 1506.02 249.195 1531.41 256.376 C 1581.26 270.468 1648.09 303.309 1685.59 338.807 C 1699.14 351.634 1709.81 365.598 1718.9 381.855 C 1734.21 410.153 1746.42 448.868 1741.61 481.314 C 1740.94 485.884 1740.47 489.668 1736.6 492.503 L 1734.45 492.092 C 1733.62 491.367 1732.6 490.808 1731.95 489.917 C 1729.92 487.16 1731.59 471.995 1731.51 467.814 C 1731.08 444.952 1722.2 419.247 1713.3 398.216 C 1697.67 361.297 1672.77 338.258 1639.7 316.97 C 1625.23 307.658 1610.81 299.37 1594.81 292.895 C 1610.22 303.289 1625.79 313.571 1639.86 325.765 C 1668.37 350.472 1693.61 385.94 1703.98 422.274 C 1708.43 437.862 1714.66 476.691 1705.69 491.203 C 1704.51 493.109 1704.03 493.199 1702 493.735 C 1701.68 493.132 1702.96 466.827 1702.59 462.63 A 161.512 161.512 0 0 0 1687.32 407.277 C 1678.82 389.435 1666.7 374.269 1653.99 359.297 C 1595.71 290.678 1522.94 262.014 1436.54 247.286 C 1393.35 239.921 1349.51 236.985 1305.87 242.213 A 286.431 286.431 0 0 0 1249.54 255.227 C 1240.22 258.409 1230.8 262.764 1221.28 265.167 C 1218.18 265.95 1216.06 265.826 1213.09 264.769 C 1210.61 262.555 1209.78 260.108 1209.57 256.836 C 1208.89 246.116 1217.61 235.362 1224.53 227.91 C 1277.21 171.211 1389.66 141.275 1466.02 138.57 z"/>
<path transform="translate(0,0)" fill="rgb(35,31,32)" d="M 1421.86 88.4117 C 1478.99 85.1211 1539.24 98.542 1591.8 120.565 C 1633.35 137.977 1674.69 158.097 1711.51 184.27 C 1723.03 192.454 1733.78 201.783 1744.71 210.727 C 1759.44 222.786 1774.02 234.623 1786.38 249.209 C 1808.39 275.162 1829.27 312.946 1842.08 344.496 C 1859.99 388.604 1875.96 454.26 1856.24 499.828 C 1854.5 503.86 1852.7 508.666 1848.42 510.333 C 1845.78 505.189 1851.76 486.88 1852.49 480.361 C 1853.04 475.359 1853.01 470.101 1852.86 465.077 C 1852.19 441.827 1843.6 393.316 1833.07 372.932 C 1837.01 408.682 1825.63 474.803 1811.34 507.33 C 1806.64 518.041 1797.56 531.811 1786.17 535.859 C 1784.08 536.6 1784.96 536.63 1783.13 535.812 C 1784.94 530.309 1791.15 525.229 1794.72 520.581 C 1817.29 491.189 1822.68 400.521 1817.33 363.655 C 1815.41 350.393 1812.82 336.757 1808.06 324.185 C 1795.38 290.639 1764.71 252.767 1736.43 231.536 L 1739.51 235.051 C 1732.33 231.043 1725.42 223.839 1718.99 218.6 C 1711.17 212.233 1703 206.248 1694.85 200.323 C 1608.36 137.465 1484.01 93.4287 1376.65 110.831 C 1297.41 123.674 1212.95 156.785 1164.63 224.341 C 1154.48 238.523 1149.32 255.577 1152.64 272.995 A 59.8708 59.8708 0 0 0 1177.59 311.424 C 1185.7 309.069 1192.16 303.428 1200.33 301.037 L 1201.53 302.017 C 1201.05 308.38 1189.79 316.131 1185.6 321.447 C 1174.63 335.346 1164.63 350.69 1156.78 366.55 C 1127.53 425.707 1115.08 535.663 1123.33 600.834 C 1125.3 616.394 1129.55 631.769 1134.66 646.581 C 1158.3 715.064 1206.52 773.409 1272.17 805.279 C 1325.11 830.984 1401.05 843.337 1457.56 824.039 C 1455.32 820.834 1452.11 817.126 1450.85 813.459 C 1449.95 810.844 1449.96 808.917 1451.15 806.396 C 1453.13 805.221 1453.69 804.878 1456.09 805.123 C 1464.22 805.953 1468.93 812.227 1473.76 818.003 C 1486.66 812.558 1498.36 804.555 1509.67 796.406 C 1509.13 795.76 1508.59 795.103 1508.07 794.44 C 1504.81 790.322 1501.25 786.453 1502.52 780.759 C 1503.02 778.516 1504.47 776.643 1506.57 775.686 C 1509.17 774.5 1512.32 774.932 1514.94 775.86 C 1520.92 777.977 1522.99 783.474 1525.4 788.773 C 1560.69 763.372 1589.26 732.877 1614.08 697.394 C 1632.69 670.801 1649.97 642.474 1663.08 612.74 C 1666.95 603.961 1673.97 581.909 1681.14 577.057 C 1684.87 576.443 1685.39 577.36 1688.56 579.227 A 89.4996 89.4996 0 0 1 1691.01 578.029 C 1692.07 577.543 1694.38 576.493 1695.48 576.443 C 1697.12 576.368 1716.59 587.881 1721.45 589.681 C 1733.34 578.717 1737.81 567.827 1741.22 552.345 C 1743.05 544.031 1742.81 538.196 1737.92 530.867 C 1730.19 519.293 1718.5 515.914 1705.63 513.252 C 1693.59 510.762 1691.18 512.343 1681.26 518.769 C 1678.58 520.512 1677 521.182 1673.86 520.515 L 1672.78 518.503 C 1672.94 516.447 1673.31 515.022 1674.39 513.277 C 1681.37 501.908 1693.02 497.405 1705.39 494.478 C 1717.79 491.541 1736.08 496.569 1746.66 503.472 C 1755.8 509.444 1761.77 518.364 1763.65 529.133 C 1766.65 546.333 1761.25 566.618 1751.24 580.747 C 1743.31 591.95 1731.19 603.506 1717.13 605.516 C 1707.73 606.86 1698.9 604.241 1691.33 598.691 A 150.609 150.609 0 0 1 1690.59 593.046 C 1685.79 598.883 1682.03 615.148 1678.96 622.795 A 501.802 501.802 0 0 1 1666.99 649.692 C 1637.19 710.909 1594.09 757.945 1543.69 802.599 C 1569.68 838 1592.45 900.809 1606.2 943.035 C 1640.16 1047.36 1648.32 1180.66 1625.37 1288.1 C 1621.54 1306.01 1617.42 1327.89 1608.78 1344.03 C 1598.28 1363.66 1565.07 1370.48 1545.34 1376.42 C 1544.98 1388.54 1542.88 1400.88 1541.45 1412.94 A 1869.22 1869.22 0 0 1 1531.55 1487.49 C 1528.37 1507.04 1523.91 1526.9 1521.88 1546.58 C 1520.42 1560.63 1524.99 1574.43 1529.14 1587.69 C 1537.89 1615.62 1549.67 1643.23 1560.3 1670.54 C 1580.11 1721.41 1600.41 1772.34 1622.81 1822.13 C 1625.26 1827.58 1626.94 1835.63 1630.65 1840.18 C 1633.44 1840.11 1635.77 1839.8 1638.23 1841.36 C 1639.43 1845.76 1636.62 1851.08 1634.49 1854.9 C 1620.12 1880.82 1586.81 1898.29 1563.27 1914.7 C 1548.87 1924.73 1533.04 1938.97 1515.84 1943.66 C 1510.06 1945.24 1503.36 1945.91 1498.06 1942.51 C 1492.91 1939.19 1490.79 1932.86 1489.77 1927.12 C 1486.72 1909.96 1493.81 1894.99 1503.66 1881.52 C 1521.34 1857.34 1544.5 1838.88 1574.8 1834.45 C 1584.78 1832.98 1599.91 1832.24 1607.95 1839.28 C 1609.94 1841.02 1610.09 1842.47 1610.32 1844.97 C 1609.01 1848.15 1606.86 1850.26 1603.31 1850.8 C 1597.53 1851.67 1590.83 1849.68 1584.96 1849.34 C 1571 1848.54 1552.11 1858.24 1541.02 1866.42 C 1527.03 1876.73 1508.42 1896.66 1506.39 1914.78 C 1506.05 1917.84 1506.09 1920.16 1508 1922.55 C 1509.36 1922.62 1509.46 1922.69 1511.02 1922.41 C 1525.57 1919.8 1611.36 1859.58 1620.7 1846.27 C 1617.73 1830.82 1606.27 1818.33 1598.01 1805.27 C 1591.28 1794.62 1585.54 1783.21 1580.38 1771.72 C 1564.27 1735.9 1505.25 1588.05 1504.7 1553.8 C 1504.37 1532.98 1518.76 1478.1 1523.47 1454.74 C 1528.67 1428.89 1532.08 1402.65 1537.91 1376.94 C 1497.16 1385.46 1452.76 1379.16 1413.78 1366.21 C 1404.36 1392.43 1391.27 1417.84 1379.81 1443.27 C 1363.55 1479.36 1343.91 1529.74 1334.47 1567.78 C 1327.06 1597.67 1324.05 1629.18 1321.18 1659.78 C 1316.56 1709.11 1313.4 1758.56 1302.78 1807.1 C 1299.61 1821.59 1296.08 1838.59 1289.2 1851.79 A 527.415 527.415 0 0 1 1292.52 1872.78 C 1290.17 1877.92 1288.25 1886.8 1283.9 1890.47 C 1276.42 1896.79 1247.66 1897.28 1237.46 1897.43 C 1214.74 1897.59 1153.94 1896.45 1136.85 1883.63 A 19.2918 19.2918 0 0 1 1129.3 1870.74 C 1128.5 1864.82 1130.73 1859.25 1134.3 1854.62 C 1144.39 1841.54 1168.71 1833.75 1184.47 1831.72 C 1217.74 1827.44 1255.96 1835.5 1282.67 1856.05 C 1281.19 1832.86 1285.73 1809.33 1288.86 1786.4 C 1291.04 1770.38 1292.69 1754.29 1294.62 1738.24 C 1300.79 1687.09 1303.61 1635.28 1313.81 1584.69 C 1326.29 1522.8 1375.22 1419.06 1408.79 1364.89 C 1381.75 1354.86 1358.77 1340.25 1339.25 1318.96 C 1334.98 1314.31 1330.14 1309.32 1327.19 1303.68 C 1323.04 1295.74 1325.83 1294.24 1332.24 1290.39 C 1361.04 1273.11 1386.56 1207.94 1396.45 1175.42 C 1339.55 1190.18 1271.89 1188.33 1216.4 1169.17 C 1159.21 1149.43 1113.37 1111.61 1067.98 1073.06 C 1057.28 1063.96 1038.47 1049.87 1032.59 1037.52 C 1029.22 1030.46 1024.04 1024.31 1020.24 1017.46 C 1018.72 1014.72 1017.51 1012.58 1018.34 1009.46 C 1020.27 1009.81 1020.32 1009.83 1021.61 1011.27 C 1025.04 1015.1 1027.76 1019.63 1031.2 1023.52 C 1039.04 1032.41 1048.22 1040.18 1057.44 1047.59 C 1078.65 1064.65 1101.31 1080.05 1123.84 1095.28 C 1148.04 1111.63 1171.64 1128.42 1198.63 1140 C 1258.73 1165.79 1345.7 1172.59 1407.08 1148.1 C 1414.96 1129.47 1418.3 1108.01 1422.42 1088.3 C 1362.85 1120.46 1304.54 1122.23 1238.95 1114.34 C 1147.2 1103.3 1060.97 1058.49 1003.55 985.351 C 996.616 991.483 989.314 995.878 981.139 1000.16 C 986.585 1024.65 976.482 1065.07 971.032 1090.47 C 955.112 1164.66 932.995 1237.34 912.702 1310.41 C 895.279 1373.14 879.765 1436.43 862.415 1499.21 A 3668.64 3668.64 0 0 0 839.453 1590.18 C 835.464 1606.34 832.143 1624.49 825.9 1639.87 C 830.91 1638.64 838.419 1635.87 843.514 1636.64 C 846.413 1637.08 846.77 1637.48 848.588 1639.57 C 848.823 1642.12 848.969 1643.48 847.951 1645.91 C 831.318 1658.63 806.27 1654.38 787.229 1659.94 C 781.546 1661.6 776.598 1665.55 770.955 1667.43 C 755.99 1672.44 736.997 1672.82 721.175 1673.41 C 652.021 1675.94 585.592 1667.51 517.674 1655.2 C 491.93 1650.54 466.036 1646.08 440.757 1639.28 C 408.448 1630.58 376.098 1619.05 346.255 1603.89 C 334.421 1597.87 296.737 1576.13 292.769 1563.95 C 293.127 1560.99 292.876 1560.76 295.044 1558.79 C 302.441 1558.37 310.744 1566.01 316.832 1570 C 316.054 1554.14 314.093 1538.42 313.208 1522.59 C 312.478 1509.55 312.874 1496.23 313.199 1483.16 C 313.943 1453.26 316.134 1422.14 320.3 1392.51 C 323.278 1371.32 327.653 1350.29 331.104 1329.17 C 335.604 1301.63 338.552 1273.79 343.536 1246.32 C 349.081 1215.77 356.864 1185.39 362.966 1154.9 C 371.137 1114.08 374.708 1072.35 383.205 1031.66 C 389.058 1003.64 399.331 976.915 406.352 949.208 C 411.562 928.652 418.012 883.174 426.354 866.854 C 439.895 840.361 505.333 818.05 526.721 789.406 C 533.499 780.329 537.149 768.851 540.458 758.136 L 539.242 756.711 C 538.75 756.145 538.234 755.6 537.756 755.022 C 533.84 750.282 532.713 743.694 533.261 737.694 C 534.345 725.84 538.442 702.861 548.306 695.092 C 561.574 684.642 563.766 697.951 575.051 698.626 C 596.902 699.932 618.752 696.955 640.563 698.559 C 680.318 701.483 720.038 710.576 759.481 716.449 C 759.901 712.646 760.205 708.613 761.41 704.971 C 763.264 699.367 769.321 688.623 775.01 686.286 C 778.145 684.998 782.229 685.147 785.147 686.882 C 794.184 692.259 775.755 711.724 777.269 719.112 L 779.294 719.889 C 782.49 718.613 783.243 717.781 784.844 714.781 C 788.74 707.483 792.5 702.692 798.413 697.016 C 799.81 689.834 797.382 680.259 800.326 673.968 C 801.681 671.075 803.852 668.618 807.064 667.821 C 810.42 666.988 813.687 667.54 816.46 669.594 C 822.061 673.741 822.895 686.367 824.101 692.901 C 828.603 687.843 833.082 682.584 838.437 678.397 C 847.192 671.551 857.726 669.288 868.664 670.886 C 885.758 673.385 915.584 684.943 926.017 699.405 C 933.553 709.85 934.25 721.874 932.11 734.128 C 954.541 742.549 972.959 763.263 990.421 778.998 A 526.177 526.177 0 0 0 1020.96 804.751 C 1084.02 854.885 1201.17 914.981 1281.54 931.143 C 1300.02 934.859 1317.41 933.702 1335.96 930.853 C 1384.52 923.392 1424.48 902.9 1464.91 875.98 C 1465.22 864.946 1465.67 853.55 1463.8 842.632 C 1449.99 847.757 1436.76 851.492 1422.07 853.165 C 1355.47 860.746 1268.42 841.404 1215.93 799.608 C 1156.93 752.632 1114.8 682.893 1106.44 607.354 C 1103.58 581.491 1105.36 554.641 1106.19 528.684 C 1108.88 443.913 1117.28 387.576 1172.26 318.986 C 1157.04 301.459 1140.01 286.106 1137.91 261.262 C 1135.98 238.53 1162.44 205.648 1176.59 189.571 C 1219.65 140.619 1291.37 107.179 1354.99 95.2365 C 1377.17 91.0733 1399.39 89.8712 1421.86 88.4117 z"/>
<path transform="translate(0,0)" fill="rgb(254,254,254)" d="M 813.226 711.703 C 814.479 717.382 816.366 723.452 815.986 729.274 L 813.371 730.725 C 811.087 729.759 810.187 729.801 808.752 727.696 C 808.962 722.319 811.723 716.912 813.226 711.703 z"/>
<path transform="translate(0,0)" fill="rgb(254,254,254)" d="M 886.082 715.722 L 886.989 716.204 C 886.066 724.162 865.316 727.652 860.153 734.505 C 859.242 735.715 858.387 737.137 857.174 738.073 C 854.259 740.32 847.339 739.392 843.732 739.299 C 841.526 738.263 841.204 738.415 839.79 736.276 C 842.559 719.972 867.41 727.734 878.743 721.948 C 881.602 720.489 883.861 717.989 886.082 715.722 z"/>
<path transform="translate(0,0)" fill="rgb(254,254,254)" d="M 858.391 687.191 C 879.365 686.102 899.615 697.737 914.854 711.061 C 917.614 717.728 918.472 724.623 919.309 731.716 C 905.22 732.963 891.648 734.944 877.764 737.584 C 884.108 730.609 892.23 725.164 899.029 718.537 C 902.079 715.981 903.782 714.537 904.192 710.411 L 902.476 708.882 C 896.285 708.458 894.066 710.573 889.526 714.497 C 886.32 712.04 879.179 705.66 874.952 705.86 C 872.757 705.964 872.573 707.117 870.259 706.198 C 870.495 704.132 870.963 701.734 870.831 699.67 C 870.663 697.033 869.954 695.794 867.897 694.173 C 855.7 684.555 841.264 710.104 831.464 712.247 C 832.12 707.062 835.943 701.132 839.421 697.348 C 844.597 691.716 850.593 687.609 858.391 687.191 z"/>
<path transform="translate(0,0)" fill="rgb(254,254,254)" d="M 1191.23 1849.24 C 1192.87 1849.1 1192.42 1849.1 1193.88 1849.1 C 1214.6 1849.02 1256.77 1854.69 1271.5 1870.57 C 1273 1872.19 1272.95 1872.53 1272.84 1874.6 C 1265.45 1878.01 1240.89 1878.85 1231.72 1879.02 C 1221.23 1879.21 1154.16 1872.68 1149.06 1868.08 C 1147.88 1867.02 1148.33 1867.09 1148.44 1865.27 C 1156.85 1855.48 1179.14 1851.8 1191.23 1849.24 z"/>
<path transform="translate(0,0)" fill="rgb(254,254,254)" d="M 1515.53 903.945 C 1530.43 909.06 1543.57 914.846 1551.78 929.265 C 1563.01 949.002 1560.5 974.704 1554.85 995.734 C 1540.8 1048.08 1506.34 1098.75 1459.05 1126.24 C 1448.76 1131.46 1438.15 1135.96 1427.57 1140.54 C 1430.64 1128.94 1433.52 1117.18 1436.06 1105.44 C 1438.19 1095.55 1438.96 1083.41 1443.28 1074.34 C 1447.48 1065.54 1454.85 1058.2 1460.81 1050.58 C 1471.03 1037.52 1479.82 1023.06 1485.78 1007.56 A 336.278 336.278 0 0 0 1498.49 966.29 C 1503.46 945.134 1506.75 923.995 1515.53 903.945 z"/>
<path transform="translate(0,0)" fill="rgb(254,254,254)" d="M 1536.97 806.102 C 1537.76 807.064 1538.42 807.891 1539.04 808.982 C 1543.76 817.303 1546.56 827.135 1549.98 836.072 A 3397.13 3397.13 0 0 1 1568.99 886.235 C 1604.5 982.88 1621.11 1064.66 1618.01 1167.89 C 1616.13 1230.54 1609.86 1273.67 1594.28 1334.15 C 1573.65 1352.37 1542.77 1357.86 1516.17 1359.87 C 1448.32 1364.97 1392.3 1347.23 1340.65 1302.57 C 1364.12 1283.98 1380.04 1255.2 1393.05 1228.67 C 1402.41 1209.47 1409.49 1189.52 1416.85 1169.51 C 1445.64 1158.31 1471.67 1146.86 1496.03 1127.25 C 1540.05 1091.84 1573.95 1036.12 1579.81 979.451 C 1581.98 958.547 1577.5 937.149 1563.99 920.614 C 1550.85 904.538 1534.45 895.891 1513.88 893.77 C 1486.88 914.798 1480.66 995.513 1451.86 1027.34 C 1464.81 965.549 1492.43 902.586 1477.49 838.554 C 1505.84 831.656 1513.88 821.723 1536.97 806.102 z"/>
<path transform="translate(0,0)" fill="rgb(254,254,254)" d="M 582.544 710.985 C 589.008 711.394 595.535 712.951 602.025 713.562 C 661.013 719.119 718.744 729.485 776.954 740.309 C 788.167 742.394 799.701 742.538 810.883 744.628 C 818.33 746.019 825.495 750.306 832.661 752.822 C 837.497 754.52 842.894 755.253 847.948 756.023 C 858.586 757.643 869.478 758.394 880.226 757.521 C 898.969 755.998 918.093 747.43 936.358 756.429 C 952.599 764.432 994.993 806.744 1012.53 820.84 C 1039.68 842.669 1068.36 858.817 1098.77 875.482 C 1145.92 901.327 1194.68 926.253 1246.77 940.51 C 1265.02 945.508 1283.38 949.954 1302.34 951.198 C 1341.27 953.753 1386.53 941.962 1421.4 924.817 C 1436.53 917.376 1450.44 908.205 1465.04 899.862 C 1463.5 917.113 1461.31 934.734 1457.93 951.724 C 1454.55 968.716 1434.71 1045.47 1426.2 1056.71 C 1411.46 1076.16 1356.63 1089.97 1333.62 1093.26 C 1321.51 1094.99 1309.23 1096.34 1297 1096.36 C 1261.07 1096.44 1193.78 1087.82 1160.62 1076.29 C 1122.75 1063.12 1084.21 1040.56 1052.74 1015.76 C 1044.21 1009.04 1035.95 1001.91 1028.54 993.956 C 1019.52 984.276 1011.32 973.025 1000.64 965.133 L 999.438 964.252 L 999.03 965.986 C 998.87 966.695 998.736 967.41 998.552 968.112 C 997.066 973.79 991.01 977.849 986.254 980.772 C 973.01 988.911 956.872 993.645 941.407 994.617 C 932.659 995.166 911.317 989.174 904.613 993.997 C 903.334 994.916 903.749 995.603 903.7 997.014 C 905.42 1000.1 908.029 1002.23 911.193 1003.77 C 918.241 1007.21 944.09 1009.44 952.215 1008.62 C 959.65 1007.87 966.788 1005.92 973.892 1003.69 C 965.637 1073 941.532 1139.67 922.859 1206.7 A 12508.3 12508.3 0 0 0 864.485 1429.68 C 854.174 1471.44 843.137 1512.43 834.766 1554.7 C 829.873 1579.41 819.824 1616.7 822.938 1641.07 C 686.965 1664.88 544.556 1649.09 412.83 1610.2 C 399.068 1605.44 328.049 1581.03 321.442 1570.33 L 322.816 1569.55 L 322.175 1569.46 C 324.742 1566.06 326.444 1561.91 326.786 1557.63 C 327.269 1551.58 326.429 1545.08 326.258 1538.99 A 1096.65 1096.65 0 0 1 326.058 1502.38 C 326.514 1473.02 329.78 1443.7 333.206 1414.55 C 336.556 1386.06 340.971 1357.69 344.577 1329.22 C 348.441 1298.72 351.506 1268.37 356.755 1238.03 C 361.349 1211.47 368.902 1185.56 373.508 1159.07 C 380.819 1117.03 385.431 1074.33 394.559 1032.65 C 401.3 1001.87 412.469 972.03 419.658 941.26 C 422.6 928.672 424.824 915.673 426.571 902.865 C 427.912 893.029 427.458 879.883 431.208 870.755 C 433.045 866.286 437.62 862.932 441.484 860.302 C 447.75 856.036 455.001 852.896 461.689 849.322 C 481.014 838.993 507.802 825.46 523.699 810.866 C 531.759 803.468 537.083 794.503 542.676 785.231 A 157.771 157.771 0 0 0 547.806 792.13 C 578.506 830.848 618.144 844.58 666.071 850.152 C 675.674 851.269 697.338 854.624 705.408 848.236 C 706.157 845.473 705.858 845.461 704.575 842.849 C 698.961 837.776 668.672 836.337 659.314 834.516 C 627.289 828.284 572.619 812.62 553.897 783.714 C 549.96 777.635 548.767 773.562 550.517 766.502 C 550.628 766.056 550.749 765.614 550.864 765.17 C 564.497 772.87 576.642 782.933 590.45 790.319 C 623.475 807.983 686.968 825.336 724.567 830.371 C 755.748 834.546 791.378 834.92 822.899 835.205 C 834.541 835.311 846.506 834.302 858.085 835.129 C 860.633 835.311 860.712 835.487 862.696 837.131 L 861.439 835.554 C 862.963 836.385 862.743 837.006 863.273 838.593 C 859.14 846.62 837.661 841.424 829.622 846.01 C 829.298 847.091 828.743 847.804 829.305 848.875 C 830.648 851.439 833.216 853.378 835.96 854.206 C 845.32 857.031 860.019 854.313 868.587 849.862 C 874.881 846.593 874.694 842.027 876.698 835.998 C 879.772 833.961 883.454 832.555 887.13 833.179 C 888.766 839.646 890.079 846.955 892.775 853.056 C 897.351 863.408 906.509 873.077 913.276 882.243 C 918.068 888.732 922.359 895.548 926.633 902.384 C 914.513 901.442 897.407 896.772 885.676 899.709 C 884.089 900.106 882.701 900.858 881.863 902.297 C 880.451 904.723 880.396 907.221 881.15 909.853 C 881.32 910.448 881.558 911.022 881.756 911.608 L 882.337 913.378 L 882.788 914.694 C 878.75 914.291 875.872 914.208 872.266 916.318 C 869.142 918.147 865.866 921.373 865.249 925.097 C 864.803 927.792 865.942 930.437 867.502 932.572 C 876.008 944.213 900.778 952.575 914.649 954.969 C 924.497 956.668 939.836 958.707 948.237 952.165 C 950.706 950.242 951.125 948.416 951.341 945.429 C 945.37 935.537 923.042 932.524 912.584 928.881 C 904.766 926.158 897.301 922.811 889.888 919.145 C 901.957 921.14 914.091 923.155 926.371 922.794 C 937.358 922.471 948.357 920.667 959.348 920.837 C 987.378 921.269 982.308 935.21 997.744 951.235 C 1000.28 952.061 1000.29 951.652 1002.72 950.443 C 1003.94 948.974 1004.57 948.084 1004.92 946.151 C 1006.43 937.79 997.348 923.06 992.008 916.853 C 979.754 902.609 959.949 903.102 942.737 902.088 C 933.972 875.625 910.589 856.773 898.266 831.942 C 909.235 828.807 920.542 824.987 927.998 815.786 C 935.418 806.63 936.929 793.309 935.58 781.9 C 934.705 774.503 932.568 765.84 926.243 761.148 C 923.728 759.282 920.313 758.379 917.229 759.215 C 910.98 760.911 908.934 766.155 906.257 771.369 C 860.324 775.918 798.899 762.344 753.089 755.02 C 727.349 750.905 700.828 748.021 675.435 742.184 C 648.905 736.085 605.658 723.937 582.544 710.985 z"/>
<path transform="translate(0,0)" fill="rgb(35,31,32)" d="M 555.707 1158.96 C 559.301 1158.77 561.24 1158.69 564.349 1160.61 C 565.646 1162.54 566.422 1163.31 565.772 1165.79 C 564.98 1168.81 561.934 1170.32 559.47 1171.8 C 558.094 1172.09 555.794 1171.44 554.63 1170.51 C 552.774 1169.03 551.71 1166.95 551.691 1164.55 C 551.669 1161.65 553.764 1160.6 555.707 1158.96 z"/>
<path transform="translate(0,0)" fill="rgb(35,31,32)" d="M 496.84 1136.8 C 501.279 1136.83 503.331 1137.3 506.43 1140.4 C 507.251 1142.69 507.958 1144.01 506.852 1146.42 C 505.516 1149.34 503.05 1149.84 500.36 1151.01 C 498.764 1150.9 496.621 1150.44 495.317 1149.38 C 493.353 1147.8 492.22 1146.11 492.35 1143.48 C 492.509 1140.26 494.734 1138.84 496.84 1136.8 z"/>
<path transform="translate(0,0)" fill="rgb(35,31,32)" d="M 644.271 1104.53 C 647.166 1104.52 648.373 1104.66 650.975 1106.17 C 652.251 1107.77 652.93 1108.74 653.317 1110.81 C 654.117 1115.1 652.079 1119.01 649.711 1122.37 C 648.094 1122.22 646.793 1122.03 645.318 1121.25 C 643.035 1120.05 641.474 1118.09 640.934 1115.55 C 639.988 1111.09 641.58 1107.91 644.271 1104.53 z"/>
<path transform="translate(0,0)" fill="rgb(35,31,32)" d="M 585.708 1070.81 C 587.919 1071.85 590.557 1073.06 592.06 1075.06 C 593.42 1076.87 593.721 1078.73 593.057 1080.86 C 592.137 1083.81 588.641 1085.02 586.099 1086.25 C 583.003 1085.62 580.878 1085.21 578.35 1083.14 C 577.666 1081.69 576.857 1080.88 577.245 1079.23 C 578.276 1074.86 582.165 1072.95 585.708 1070.81 z"/>
<path transform="translate(0,0)" fill="rgb(35,31,32)" d="M 603.487 1125.61 C 604.818 1125.81 606.477 1125.96 607.768 1126.43 C 610.868 1127.54 613.732 1129.8 614.674 1133.09 C 615.765 1136.91 614.47 1139.94 612.513 1143.13 C 610.584 1143.48 609.246 1143.77 607.295 1143.29 C 605.132 1142.75 603.736 1141.08 602.809 1139.12 C 600.887 1135.07 602.144 1129.61 603.487 1125.61 z"/>
<path transform="translate(0,0)" fill="rgb(35,31,32)" d="M 512.553 1008.82 C 512.975 1008.81 513.397 1008.78 513.819 1008.79 C 516.939 1008.88 520.108 1009.88 521.963 1012.6 C 523.431 1014.74 523.646 1017.01 522.848 1019.45 C 521.971 1022.14 519.443 1023.03 517.128 1024.09 C 513.88 1024.23 510.042 1023.77 507.835 1021 C 506.32 1019.11 505.802 1017.06 506.386 1014.64 C 507.118 1011.62 510.18 1010.37 512.553 1008.82 z"/>
<path transform="translate(0,0)" fill="rgb(35,31,32)" d="M 540.962 1105.9 C 544.329 1105.97 547.214 1106.1 549.751 1108.71 C 551.553 1110.56 552.169 1112.82 551.792 1115.36 C 551.12 1119.87 548.446 1121.76 545.013 1124.27 C 544.114 1124.33 543.433 1124.44 542.51 1124.21 C 540.015 1123.6 537.756 1121.83 536.405 1119.67 C 535.128 1117.63 534.793 1114.41 535.456 1112.07 C 536.389 1108.79 538.26 1107.59 540.962 1105.9 z"/>
<path transform="translate(0,0)" fill="rgb(35,31,32)" d="M 884.705 956.803 C 898.136 956.906 911.87 960.398 925.271 961.785 C 933.879 962.676 942.908 961.783 951.39 963.258 C 955.396 963.955 959.094 965.069 962.237 967.693 C 962.824 969.04 963.669 969.925 963.155 971.396 C 962.095 974.436 958.726 975.904 956.084 977.373 C 955.702 977.5 955.321 977.631 954.937 977.753 C 933.311 984.647 909.319 983.416 889.264 972.356 C 885.062 970.039 881.917 967.65 880.507 962.962 C 881.334 959.727 882.373 959.101 884.705 956.803 z"/>
<path transform="translate(0,0)" fill="rgb(35,31,32)" d="M 459.544 945.229 A 91.2558 91.2558 0 0 1 462.587 945.115 C 481.002 944.81 502.724 959.469 520.048 966.078 C 531.789 970.558 544.098 974.199 556.215 977.524 C 584.559 985.303 614.107 988.851 642.823 995.236 C 670.202 1001.32 697.092 1009.42 724.454 1015.42 C 752.206 1021.51 781.392 1025.08 809.713 1026.73 C 842.709 1028.65 886.93 1023.66 917.011 1037.12 C 926.277 1041.26 933.376 1046.89 940.689 1053.84 C 939.326 1056.55 938.063 1059.37 935.993 1061.62 C 935.179 1062.51 933.968 1063.61 932.572 1063.45 C 931.558 1063.33 908.265 1050.66 902.422 1048.7 C 886.229 1043.27 853.889 1044.91 835.65 1044.37 A 743.002 743.002 0 0 1 786.795 1041.59 C 764.939 1039.69 743.305 1037.22 721.789 1032.83 C 688.594 1026.07 655.746 1015.94 622.704 1008.2 C 610.448 1005.33 597.917 1003.77 585.6 1001.21 C 562.169 996.336 538.135 989.978 515.767 981.463 C 505.565 977.579 494.625 973.63 485.246 968.019 C 478.52 963.997 472.229 958.48 465.306 954.936 C 463.229 953.873 462.572 953.345 460.214 953.495 C 468.763 985.812 413.156 1097.94 423.295 1148.59 C 426.028 1162.24 433.71 1172.65 445.374 1180.06 C 458.962 1188.69 476.094 1193.54 491.163 1199.07 C 525.371 1211.62 560.434 1223.38 596.219 1230.54 C 645.451 1240.39 696.98 1243.09 747.034 1245.66 C 774.877 1247.09 803.809 1249.68 831.658 1248.01 C 845.599 1247.18 857.65 1243.05 871.155 1240.96 C 873.645 1240.58 875.069 1240.88 876.97 1242.69 C 878.67 1244.31 879.56 1246.97 879.316 1249.28 C 879.062 1251.69 877.711 1253.73 875.977 1255.33 C 868.948 1261.83 855.508 1263.94 846.223 1264.73 C 818.832 1267.08 790.434 1262.91 763.053 1261.29 C 733.655 1259.55 704.084 1259.2 674.764 1256.4 C 657.626 1254.76 640.035 1250.8 622.843 1250.89 L 621.155 1250.91 A 103.179 103.179 0 0 1 629.858 1272.91 C 634.349 1289.18 632.348 1301.3 624.014 1315.83 L 625.718 1316.46 C 635.7 1320.14 643.934 1326 653.216 1330.98 C 661.08 1335.19 669.736 1338.57 677.239 1343.34 C 688.284 1350.37 687.291 1354.73 701.913 1360.93 C 711.174 1364.86 714.767 1375.69 718.127 1384.34 C 724.866 1383.06 731.448 1382.79 738.29 1382.57 C 728.128 1376.89 717.746 1371.41 709.063 1363.54 C 692.528 1348.57 682.034 1333.16 680.902 1310.34 C 680.222 1296.64 681.136 1290.06 690.55 1279.75 C 708.77 1274.67 726.714 1279.5 743.172 1287.96 C 767.279 1300.34 790.133 1321.67 798.441 1348.11 C 801.59 1358.14 802.929 1369.86 797.645 1379.41 C 792.077 1389.49 783.022 1392.14 772.69 1394.83 C 779.616 1402.5 785.723 1410.21 788.714 1420.33 C 794.546 1440.06 787.302 1461.25 777.655 1478.44 A 180.041 180.041 0 0 1 773.026 1484.42 C 763.065 1496.64 750.301 1501.1 735.218 1502.7 C 742.452 1512.43 748.083 1521.5 747.157 1534.17 C 746.091 1548.75 738.563 1560.83 727.856 1570.26 C 730.146 1572.53 732.832 1574.32 735.443 1576.19 C 739.522 1543.98 771.044 1524.01 791.994 1502.42 C 798.456 1504.62 803.821 1507.37 809.354 1511.31 C 815.595 1526.71 813.019 1546.49 806.611 1561.44 C 799.31 1578.47 786.502 1590.6 769.36 1597.47 C 759.901 1601.26 749.143 1604.03 739.413 1599.55 C 729.414 1594.95 725.589 1586.59 721.77 1576.94 L 721.136 1575.32 L 719.135 1575.11 L 719.98 1576.39 L 718.739 1575.42 C 716.455 1578.88 715.439 1584 714.255 1587.96 C 709.109 1605.14 700.717 1618.07 684.446 1626.66 C 668.294 1635.19 645.058 1638.18 627.589 1632.28 C 617.181 1628.77 611.994 1622.79 607.167 1613.38 C 608.478 1598.33 615.256 1587.39 619.862 1573.4 L 620.203 1572.33 C 600.334 1588.05 580.426 1599.88 554.312 1598.98 C 530.986 1598.17 512.877 1590.35 496.962 1573.33 C 494.678 1578.12 492.478 1582.93 488.902 1586.93 C 480.275 1596.56 468.325 1600.94 455.642 1601.69 C 433.853 1602.96 411.155 1594.64 394.958 1580.11 C 386.213 1572.27 379.382 1562.11 379.057 1550.04 C 378.666 1535.56 384.575 1519.09 394.514 1508.66 C 389.882 1506.88 385.276 1505.03 381.293 1502.02 C 374.178 1496.62 369.581 1489.12 368.368 1480.24 C 366.223 1464.55 374.608 1444.22 383.946 1431.74 C 391.9 1421.1 405.488 1409.27 419.052 1407.69 C 427.12 1406.76 438.437 1409.93 444.882 1414.92 L 444.989 1416.48 C 439.966 1418.17 433.007 1415.84 427.692 1415.56 C 419.704 1415.15 409.929 1421.91 404.201 1427.09 C 389.584 1440.3 380.186 1459.91 379.317 1479.46 A 103.891 103.891 0 0 0 380.7 1482.12 C 383.968 1488.13 388.213 1491.02 394.825 1492.78 C 412.538 1497.5 436.593 1489.21 451.86 1480.4 C 472.292 1468.59 477.38 1458.46 483.216 1436.12 A 484.322 484.322 0 0 0 460.021 1426.2 C 457.588 1434.12 457.157 1442.66 453.846 1450.31 C 448.5 1462.65 434.577 1475.85 421.959 1480.28 C 414.99 1482.73 407.27 1483.23 400.59 1479.63 C 395.891 1477.1 392.297 1472.8 390.98 1467.59 C 389.616 1462.2 391.16 1456.69 393.918 1452 C 401.414 1439.27 416.587 1431.41 430.532 1427.85 C 434.651 1426.8 437.457 1426.59 441.237 1428.76 C 442.35 1430.21 443.202 1431.32 443.432 1433.21 C 444.08 1438.53 441.053 1444.55 437.992 1448.7 C 428.917 1460.98 415.49 1467.85 400.644 1469.88 C 400.859 1470.05 401.053 1470.24 401.288 1470.38 C 403.535 1471.65 406.024 1471.29 408.439 1470.87 C 425.132 1467.94 439.942 1454.48 449.246 1440.79 C 449.454 1440.48 449.652 1440.17 449.855 1439.86 C 449.315 1434.17 447.284 1426.4 449.952 1421.46 C 447.49 1411.87 436.748 1403.4 431.647 1394.75 C 423.818 1381.47 421.73 1363.58 425.894 1348.73 C 429.12 1337.23 436.108 1327.76 446.67 1322.02 C 472.646 1307.91 502.54 1313.48 529.331 1321.32 L 529.856 1320.27 L 527.901 1320.95 L 528.802 1321.39 C 529.884 1316.74 526.649 1312.93 524.962 1308.54 C 520.9 1297.96 523.937 1286.88 528.442 1276.99 C 537.616 1256.85 551.368 1245.73 571.842 1238.12 C 557.186 1233.07 541.963 1229.62 527.072 1225.31 C 510.622 1220.55 494.395 1214.96 478.086 1209.74 C 465.394 1205.68 451.407 1201.9 439.581 1195.75 A 56.2947 56.2947 0 0 1 421.369 1180.69 C 397.643 1150.81 407.912 1109.05 416.227 1075.51 C 422.104 1051.8 429.446 1028.51 435.489 1004.86 C 439.55 988.969 441.502 972.883 443.47 956.636 C 454.641 951.64 449.291 948.078 459.544 945.229 z"/>
<path transform="translate(0,0)" fill="rgb(254,254,254)" d="M 573.033 1269.71 L 575.832 1270.52 L 575.802 1272.2 C 569.997 1279.37 561.411 1285.4 554.636 1291.79 C 553.647 1292.67 554.323 1292.27 552.368 1292.42 C 552.249 1291.41 552.138 1291.12 552.443 1289.99 C 554.79 1281.25 565.618 1273.98 573.033 1269.71 z"/>
<path transform="translate(0,0)" fill="rgb(254,254,254)" d="M 793.604 1521.68 C 795.674 1521.66 797.324 1521.75 799.327 1522.29 C 799.963 1523.18 800.485 1523.8 800.86 1524.88 C 803.681 1533.04 797.141 1547.98 793.79 1555.52 L 791.826 1555.25 C 790.251 1551.36 793.906 1545.84 794.156 1541.68 C 794.493 1536.05 792.917 1529.21 792.13 1523.58 L 793.604 1521.68 z"/>
<path transform="translate(0,0)" fill="rgb(254,254,254)" d="M 546.953 1453.26 C 553.635 1452.94 560.999 1453.99 567.717 1454.33 C 554.265 1456.42 542.434 1461.5 529.383 1464.95 C 524.328 1466.43 519.019 1467.17 513.84 1468.11 C 524.918 1459.57 533.183 1455.92 546.953 1453.26 z"/>
<path transform="translate(0,0)" fill="rgb(254,254,254)" d="M 581.081 1253.24 C 582.614 1253.47 584.11 1253.72 585.584 1254.22 C 589.424 1255.52 594.303 1258.24 595.852 1262.21 C 597.107 1265.43 596.289 1268.75 595.001 1271.79 C 589.038 1285.85 571.729 1296.53 558.091 1302.12 L 554.762 1302.1 L 553.958 1301.18 C 562.812 1297.73 570.084 1293.88 577.619 1288.02 C 583.163 1283.71 589.221 1277.35 589.848 1269.97 C 590.518 1262.09 586.381 1259.36 581.817 1254.12 C 581.564 1253.83 581.327 1253.53 581.081 1253.24 z"/>
<path transform="translate(0,0)" fill="rgb(254,254,254)" d="M 666.719 1574.77 C 669.189 1575.48 671.231 1575.97 673.222 1577.7 C 672.805 1583.8 658.462 1591.89 653.708 1597.21 L 652.758 1598.29 L 651.536 1600.34 C 649.584 1599.62 649.946 1600.13 648.928 1598.42 C 647.409 1595.87 647.371 1593.76 648.14 1590.93 C 650.359 1582.79 659.973 1578.4 666.719 1574.77 z"/>
<path transform="translate(0,0)" fill="rgb(254,254,254)" d="M 425.131 1438.1 C 427.034 1437.88 428.888 1437.92 430.8 1437.95 L 431.82 1439.19 C 431.632 1440.56 431.699 1440.67 431.042 1442.13 C 427.879 1449.19 414.455 1457.92 407.767 1460.51 C 405.127 1460.77 403.825 1461.3 401.364 1460.1 C 401.488 1458.83 401.423 1458.7 402.007 1457.33 C 405.333 1449.55 417.752 1441.43 425.131 1438.1 z"/>
<path transform="translate(0,0)" fill="rgb(254,254,254)" d="M 603.574 1337.97 C 606.798 1337.56 611.171 1339.92 614.186 1341.07 C 599.849 1347.06 586.121 1354.27 575.703 1365.96 L 575.027 1366.4 C 572.757 1364.27 571.779 1352.13 570.084 1348.03 L 569.296 1346.17 L 570.566 1346.22 C 571.179 1346.25 571.793 1346.26 572.407 1346.28 C 583.296 1346.78 593.84 1342.42 603.574 1337.97 z"/>
<path transform="translate(0,0)" fill="rgb(254,254,254)" d="M 638.189 1567.8 C 642.312 1567.77 645.813 1567.86 649.154 1570.56 C 649.458 1575.21 640.751 1582.34 640.527 1590.38 C 640.512 1590.92 640.516 1591.46 640.506 1592 C 640.497 1592.55 640.475 1593.1 640.468 1593.65 C 640.391 1600.15 641.228 1602.97 645.897 1607.63 C 646.22 1607.95 646.553 1608.27 646.881 1608.59 C 642.448 1611.36 638.021 1612.12 634.185 1616.03 C 633.962 1616.25 633.75 1616.49 633.532 1616.72 L 632.806 1617.97 C 631.862 1618.13 631.62 1618.23 630.542 1618.05 C 626.94 1617.45 622.872 1614.88 620.828 1611.92 C 618.925 1609.16 618.86 1604.63 619.566 1601.48 C 621.089 1594.68 633.088 1571.05 638.189 1567.8 z"/>
<path transform="translate(0,0)" fill="rgb(254,254,254)" d="M 475.777 1482.01 L 476.304 1482.57 C 479.231 1502.38 487.761 1509 501.908 1521.36 C 499.943 1526.71 497.007 1531.75 494.387 1536.8 C 489.221 1528.84 483.845 1524.39 475.67 1519.88 C 460.677 1514.28 445.632 1511.33 429.968 1508.35 C 447.259 1501.33 461.05 1493.51 475.777 1482.01 z"/>
<path transform="translate(0,0)" fill="rgb(254,254,254)" d="M 599.039 1247.6 C 602.626 1248.42 605.839 1249.62 608.407 1252.37 C 614.486 1258.88 616.713 1276.01 615.978 1284.4 C 614.889 1296.82 608.222 1307.39 598.602 1315.08 C 589.928 1322.01 579.549 1326.52 568.258 1324.97 C 557.908 1323.55 548.774 1317.5 542.851 1308.99 C 537.667 1301.53 536.056 1293.66 537.888 1284.74 C 540.407 1272.48 546.763 1264.51 556.984 1257.95 A 85.2407 85.2407 0 0 1 560.455 1256.4 C 565.016 1254.49 571.995 1251.85 576.853 1253.87 C 571.38 1257.21 564.276 1258.48 559.327 1262.43 C 551.57 1268.63 545.182 1278.06 544.611 1288.19 C 544.215 1295.21 546.398 1303.52 551.399 1308.66 C 555.072 1312.43 559.972 1314.19 565.198 1314.07 C 575.888 1313.83 586.066 1306.68 593.236 1299.18 C 601.601 1290.43 608.779 1277.89 608.129 1265.48 C 607.724 1257.74 604.825 1252.53 599.039 1247.6 z"/>
<path transform="translate(0,0)" fill="rgb(254,254,254)" d="M 674.819 1539.36 C 673.336 1540.83 670.767 1543.22 669.95 1545.18 C 668.97 1547.53 669.205 1548.09 670.298 1550.13 C 672.129 1550.43 673.089 1550.38 674.868 1549.69 C 685.688 1545.51 703.172 1527.38 706.865 1516.47 C 708.031 1513.03 708.123 1509.33 706.18 1506.11 C 704.713 1503.69 702.738 1502.07 699.946 1501.53 C 699.432 1501.43 698.905 1501.41 698.385 1501.35 C 698.56 1498.64 698.742 1496.69 699.748 1494.13 L 701.178 1493.64 C 703.255 1494.17 705.32 1494.75 707.206 1495.8 C 715.677 1500.52 723.244 1510.33 725.739 1519.67 C 727.799 1527.4 726.253 1534.84 722.095 1541.57 C 713.453 1555.56 699.169 1560.37 684.011 1563.65 C 690.323 1560.81 696.797 1557.89 702.266 1553.6 C 711.582 1546.29 718.841 1534.81 720.178 1523.06 L 718.188 1521.67 L 720.054 1522.27 L 718.825 1521.53 C 711.156 1527.13 703.939 1541.21 694.567 1548.89 C 688.032 1554.25 682.187 1555.48 673.901 1554.67 C 672.103 1554.5 671.939 1554.79 670.36 1555.53 C 669.561 1557.7 669.39 1558.4 667.609 1559.99 C 663.468 1559.91 659.411 1558.63 655.578 1557.12 C 650.617 1555.15 645.979 1553.4 643.728 1548.3 L 644.633 1545.99 C 651.594 1541.4 661.56 1541.04 669.522 1537.59 L 670.788 1536.84 C 683.465 1529.2 686.555 1519.14 694.397 1513.55 C 696.119 1512.32 696.139 1512.41 698.273 1512.91 C 698.775 1516 698.014 1518.02 696.209 1520.58 C 690.98 1528 681.982 1533.79 674.819 1539.36 z"/>
<path transform="translate(0,0)" fill="rgb(254,254,254)" d="M 677.651 1462.92 C 678.738 1463.52 679.848 1464.34 680.6 1465.35 C 685.414 1471.77 686.243 1480.45 684.782 1488.09 C 682.72 1498.86 676.265 1507.64 667.124 1513.56 C 649.946 1524.69 627.609 1521.65 608.742 1517.41 C 603.46 1515.94 598.748 1514.21 593.783 1511.86 C 604.263 1501.3 608.989 1492.88 613.908 1478.87 C 637.089 1480.13 657.026 1472.61 677.651 1462.92 z"/>
<path transform="translate(0,0)" fill="rgb(35,31,32)" d="M 672.85 1475.11 C 673.767 1475.91 674.131 1476.76 674.157 1478.04 C 674.214 1480.77 672.31 1482.47 670.376 1484.12 C 658.659 1494.1 633.364 1499.81 618.246 1498.63 C 616.884 1496.75 616.556 1495.28 616.105 1493.02 C 618.264 1488.46 622.714 1489.21 627.28 1488.7 C 643.369 1486.92 657.718 1480.59 672.85 1475.11 z"/>
<path transform="translate(0,0)" fill="rgb(254,254,254)" d="M 582.69 1526.98 C 590.429 1526.07 612.967 1537.54 620.895 1541.12 C 619.971 1544.59 618.718 1548.29 616.813 1551.35 C 608.846 1564.14 593.835 1569.56 579.938 1573.06 C 559.646 1578.17 531.758 1580.89 513.292 1569.28 C 507.481 1565.63 503.322 1560.47 502.075 1553.62 C 500.653 1545.8 502.816 1538.61 507.558 1532.32 C 509.318 1529.99 510.947 1528.91 513.912 1528.65 C 518.613 1528.22 527.687 1530.22 531.276 1533.35 L 529.333 1534.37 C 525.755 1537.23 521.838 1541.02 521.264 1545.86 C 520.928 1548.68 521.464 1551.09 523.23 1553.33 C 527.612 1558.91 535.84 1560.86 542.522 1561.56 C 557.506 1563.12 576.084 1559.5 587.81 1549.64 C 591.037 1546.92 594.342 1543.33 594.689 1539.05 L 592.585 1536.92 C 585.223 1535.92 577.615 1544.29 570.894 1547.3 C 555.338 1554.28 540.68 1553.96 524.931 1547.95 C 528.309 1544.88 531.157 1541.61 534.075 1538.12 C 552.746 1538.03 565.626 1534.5 582.69 1526.98 z"/>
<path transform="translate(0,0)" fill="rgb(254,254,254)" d="M 705.316 1290.55 C 710.095 1290.92 715.066 1291.89 719.675 1293.2 C 744.299 1300.21 773.78 1324.74 786.104 1347.13 C 788.855 1352.13 792.223 1359.86 789.886 1365.65 C 788.093 1370.08 785.046 1371.41 780.995 1373.44 A 194.288 194.288 0 0 1 776.362 1373.37 C 751.955 1372.71 728.646 1357.74 712.317 1340.38 C 699.074 1326.31 692.318 1310.76 692.79 1291.36 L 705.316 1290.55 z"/>
<path transform="translate(0,0)" fill="rgb(35,31,32)" d="M 708.172 1295.63 C 715.355 1298.89 727.194 1323.33 733.15 1331.05 C 741.306 1341.62 754.368 1347.57 763.062 1357.6 C 764.999 1359.83 764.755 1360.92 764.396 1363.74 C 762.165 1363.05 759.91 1362.33 757.752 1361.43 C 741.924 1354.83 715.465 1326.98 708.96 1310.93 C 706.647 1305.22 705.655 1301.32 708.172 1295.63 z"/>
<path transform="translate(0,0)" fill="rgb(254,254,254)" d="M 545.644 1429.08 C 545.884 1429.18 546.144 1429.23 546.362 1429.37 C 549.567 1431.4 553.744 1441.93 554.262 1445.69 C 553.919 1446.32 553.826 1447.18 553.231 1447.59 C 548.888 1450.53 527.686 1447.47 510.173 1463.15 C 507.44 1465.6 503.609 1468.58 503.422 1472.51 C 504.699 1474.14 504.995 1474.67 507.122 1475.15 C 522.8 1478.73 552.782 1468.77 566.269 1461.06 C 576.264 1467.09 588.29 1468.82 597.272 1476.24 C 594.525 1481.52 591.533 1485.67 587.425 1489.94 C 576.977 1498.63 563.915 1507.22 550.137 1508.87 C 533.966 1510.8 508.838 1509.9 495.735 1498.87 C 484.014 1489 491.877 1464.25 492.048 1450.92 C 492.109 1446.16 490.847 1442.04 490.348 1437.38 C 497.456 1434.82 508.382 1438.57 516.115 1437.95 C 526.325 1437.13 536.184 1432.75 545.644 1429.08 z"/>
<path transform="translate(0,0)" fill="rgb(35,31,32)" d="M 564.241 1486.9 L 565.022 1487.17 C 566.198 1488.6 566.969 1489.03 567.188 1490.91 C 566.578 1492.24 565.959 1493.29 564.835 1494.26 C 553.006 1504.5 531.654 1506.41 516.725 1505.76 C 514.897 1505.23 513.632 1504.59 512.044 1503.55 C 530.596 1500.09 548.654 1498.44 564.241 1486.9 z"/>
<path transform="translate(0,0)" fill="rgb(35,31,32)" d="M 563.515 1468.71 L 564.844 1470.6 C 565.117 1472.52 565.358 1473.87 564.817 1475.78 C 563.898 1479.03 559.297 1481.39 556.46 1482.7 C 544.995 1487.98 531.141 1490.49 519.104 1486.26 C 517.914 1485.1 517.15 1483.92 516.23 1482.55 C 518.299 1478.82 537.57 1481.29 542.36 1480.29 C 550.811 1478.53 557.183 1474.3 563.515 1468.71 z"/>
<path transform="translate(0,0)" fill="rgb(254,254,254)" d="M 404.57 1515.35 C 425.55 1523.7 459.898 1520.37 478.282 1534.94 C 486.356 1541.33 487.139 1548.91 488.41 1558.41 C 484.855 1568.32 480.527 1573.64 471.413 1579.14 C 456.128 1584.65 440.231 1583.52 425.095 1577.96 C 413.05 1573.54 399.029 1565.4 393.726 1553.18 C 389.252 1542.88 392.174 1531.77 396.141 1521.86 C 399.16 1519.94 401.826 1517.64 404.57 1515.35 z"/>
<path transform="translate(0,0)" fill="rgb(35,31,32)" d="M 411.027 1535.04 C 420.1 1534.56 432.628 1538.6 440.507 1542.99 C 446.291 1546.2 452.512 1551.58 454.08 1558.32 C 454.75 1561.19 454.566 1564.28 452.675 1566.68 C 450.988 1568.83 448.353 1569.78 445.705 1569.95 C 431.26 1570.85 413.81 1557.71 403.506 1548.87 C 402.428 1546.39 401.77 1545.53 402.137 1542.81 C 404.325 1541.9 404.836 1542.28 406.976 1543.15 C 412.146 1545.27 417.241 1548.95 422.071 1551.81 C 432.127 1557.75 441.704 1561.59 453.023 1564.39 A 87.7112 87.7112 0 0 0 425.419 1544.06 C 421.589 1542.32 417.111 1541.13 413.533 1538.96 C 411.473 1537.71 411.583 1537.27 411.027 1535.04 z"/>
<path transform="translate(0,0)" fill="rgb(254,254,254)" d="M 729.08 1396.31 C 738.554 1395.11 748.505 1396.57 756.818 1401.42 C 763.651 1405.41 768.521 1411.44 770.473 1419.15 C 774.37 1434.54 769.589 1455.53 761.04 1468.77 C 754.532 1478.85 745.918 1484.55 734.259 1486.98 C 712.619 1483.79 703.092 1470.1 690.859 1453.88 C 697.735 1444.93 706.486 1435.1 710.606 1424.56 C 713.843 1416.27 714.955 1406.98 719.368 1399.2 C 722.138 1396.84 725.609 1396.8 729.08 1396.31 z"/>
<path transform="translate(0,0)" fill="rgb(35,31,32)" d="M 733.063 1405.12 C 736.944 1404.87 741.169 1404.37 744.958 1405.43 A 26.076 26.076 0 0 1 760.584 1417.86 C 766.01 1427.44 766.97 1441.61 763.88 1452.13 C 760.842 1462.47 755.19 1466.32 746.206 1471.01 C 741.638 1472.22 736.502 1472.27 731.97 1470.87 C 725.976 1469.02 721.324 1464.59 718.495 1459.06 C 713.044 1448.43 714.21 1432.57 718.166 1421.44 C 721.227 1412.82 724.924 1409.03 733.063 1405.12 z"/>
<path transform="translate(0,0)" fill="rgb(254,254,254)" d="M 736.66 1415.02 C 738.198 1414.93 739.993 1414.73 741.513 1414.97 C 745.602 1415.62 749.277 1419.24 751.331 1422.67 C 755.894 1430.3 756.395 1441.66 753.766 1450 C 753.009 1452.41 752.165 1455.88 749.884 1457.05 C 747.608 1446.81 753.321 1429.04 746.108 1420.07 C 744.407 1417.95 743.802 1417.99 741.285 1417.71 C 738.315 1418.81 736.69 1419.96 734.387 1422.15 C 734.137 1422.38 733.891 1422.62 733.644 1422.86 C 729.665 1430.77 728.172 1444.55 730.915 1453.09 C 732.368 1457.61 734.495 1458.85 738.611 1460.79 C 738.98 1460.97 739.353 1461.13 739.724 1461.3 C 737.584 1461.97 738.374 1461.98 736.124 1461.66 C 732.488 1461.14 729.178 1458.71 727.286 1455.61 C 723.391 1449.24 723.989 1439.45 725.451 1432.35 C 727.183 1423.94 729.483 1419.83 736.66 1415.02 z"/>
<path transform="translate(0,0)" fill="rgb(254,254,254)" d="M 484.694 1324.41 C 491.32 1322.9 500.723 1324.72 507.341 1326.06 C 523.842 1329.41 551.773 1341.77 560.673 1356.28 C 565.949 1364.89 565.056 1371.17 562.577 1380.34 C 543.87 1393.3 546.753 1407.64 522.672 1411.87 C 501.469 1413.62 482.508 1410.79 464.987 1397.96 C 452.922 1389.13 443.132 1376.22 441.161 1361.05 C 440.124 1353.07 441.949 1345.3 447.15 1339.06 C 456.568 1327.75 470.978 1325.8 484.694 1324.41 z"/>
<path transform="translate(0,0)" fill="rgb(35,31,32)" d="M 485.678 1353.44 C 489.145 1352.53 496.071 1355.35 499.129 1356.95 C 509.682 1362.48 521.85 1377.88 524.883 1389.48 C 525.44 1391.61 525.412 1391.67 524.283 1393.65 L 521.112 1393.81 C 502.961 1375.52 505.388 1368.54 478.04 1359.51 C 476.281 1357.54 476.712 1357.9 476.743 1355.49 C 479.469 1353.52 482.371 1353.79 485.678 1353.44 z"/>
<path transform="translate(0,0)" fill="rgb(254,254,254)" d="M 643.718 1345.2 C 651.453 1344.27 664.047 1348.92 670.996 1352.38 C 675.814 1354.78 680.165 1358.41 681.724 1363.74 C 683.905 1371.2 680.466 1379.16 676.632 1385.44 C 661.268 1410.6 627.438 1424.58 598.747 1417.65 C 590.553 1415.67 579.423 1405.37 571.284 1407.34 L 570.666 1409.54 C 571.293 1411.43 571.912 1413.07 573.014 1414.74 C 580.73 1426.47 594.849 1435.48 608.566 1437.75 C 626.628 1440.75 647.367 1433.44 662.065 1423.13 C 677.5 1412.3 686.414 1397.69 689.733 1379.25 C 690.445 1375.25 690.875 1371.2 691.396 1367.17 C 695.71 1370.35 699.363 1373.32 702.903 1377.39 C 702.905 1386.56 701.903 1394.93 698.584 1403.53 C 691.26 1422.52 674.583 1438.57 656.003 1446.47 C 633.48 1456.04 606.476 1455.91 583.825 1446.63 C 571.629 1441.64 562.921 1434.81 557.712 1422.5 C 560.238 1409.4 565.902 1395.72 573.064 1384.48 C 588.04 1360.97 617.9 1351.03 643.718 1345.2 z"/>
<path transform="translate(0,0)" fill="rgb(35,31,32)" d="M 658.829 1366.39 C 660.81 1365.92 664.155 1365.6 666.124 1366.18 C 668.808 1366.98 669.124 1367.7 670.237 1370 C 669.989 1373.1 668.981 1375.1 667.023 1377.47 C 655.415 1391.53 636.658 1399.41 618.881 1401.41 C 609.092 1402.51 594.316 1403.31 586.396 1396.51 C 584.877 1395.2 584.655 1395.06 584.508 1393.02 C 590.571 1388.24 604.57 1394.3 612.299 1393.84 C 623.026 1393.2 633.204 1390.49 643.027 1386.25 C 650.78 1382.24 657.472 1377.43 663.949 1371.61 C 645.471 1376.4 625.3 1377.67 607.298 1383.68 C 602.79 1385.18 593.567 1389.91 589.13 1388.18 C 589.377 1386 588.976 1386.63 590.201 1385.14 C 599.485 1373.82 643.762 1367.2 658.829 1366.39 z"/>
</svg>