<svg version="1.1" xmlns="http://www.w3.org/2000/svg" style="display: block;" viewBox="0 0 2048 2048" width="1024" height="1024">
<path transform="translate(0,0)" fill="rgb(254,254,254)" d="M 0 0 L 2048 0 L 2048 2048 L 0 2048 L 0 0 z"/>
<path transform="translate(0,0)" fill="rgb(35,31,32)" d="M 1855.02 1219.88 C 1857.63 1220 1858.95 1220.23 1861.19 1221.59 C 1861.88 1222.91 1862.58 1223.63 1862.42 1225.19 C 1861.97 1229.35 1859.1 1231.93 1856.04 1234.43 C 1853.91 1233.96 1852.37 1233.2 1850.47 1232.14 C 1849.24 1230.12 1848.27 1229.1 1848.96 1226.59 C 1849.85 1223.38 1852.44 1221.65 1855.02 1219.88 z"/>
<path transform="translate(0,0)" fill="rgb(35,31,32)" d="M 542.717 404.69 C 545.554 404.678 548.163 404.758 550.79 405.961 C 553.702 407.293 554.811 409.032 555.885 411.93 C 555.678 415.292 554.761 416.517 552.698 418.969 C 549.492 418.956 545.102 419.213 542.305 417.31 C 539.792 415.601 539.616 414.979 538.876 412.202 C 539.431 408.881 540.705 407.24 542.717 404.69 z"/>
<path transform="translate(0,0)" fill="rgb(35,31,32)" d="M 491.214 389.384 C 493.149 390.629 492.361 389.927 493.891 391.719 C 497.568 396.025 505.108 402.1 505.885 407.984 C 506.289 411.041 504.774 413.503 503.272 415.986 C 500.905 415.08 498.793 414.199 496.713 412.726 C 492.466 409.717 488.463 405.608 487.671 400.261 C 487.014 395.82 488.683 392.865 491.214 389.384 z"/>
<path transform="translate(0,0)" fill="rgb(35,31,32)" d="M 1832.39 1167.8 C 1836.35 1168.62 1839.33 1169.83 1841.9 1173.11 C 1844.1 1175.93 1845.37 1180.15 1844.67 1183.7 C 1844.18 1186.11 1842.77 1188.13 1840.56 1189.23 C 1837.7 1190.65 1835.8 1190.03 1832.98 1189.16 C 1831.59 1187.24 1830.83 1186.05 1830.5 1183.66 C 1830.41 1183.01 1830.34 1182.36 1830.26 1181.71 C 1827.69 1178.78 1823.26 1182.26 1819.24 1181.04 L 1818.74 1179.67 C 1821.08 1174.54 1827.81 1170.88 1832.39 1167.8 z"/>
<path transform="translate(0,0)" fill="rgb(35,31,32)" d="M 215.168 706.408 C 217.093 706.992 217.697 707.444 218.921 709.038 C 220.008 713.368 218.734 716.693 218.401 720.946 C 218.18 723.766 218.895 724.829 220.566 726.992 C 222.73 728.164 224.013 728.126 226.377 727.924 C 230.495 727.571 232.573 727.265 236.205 729.475 L 236.658 731.79 C 235.229 734.585 234.375 735.433 231.814 737.028 C 229.323 737.702 226.722 738.483 224.13 738.562 C 219.688 738.697 215.469 737.309 212.336 734.097 C 209.31 730.996 207.552 726.483 207.818 722.138 C 208.218 715.583 210.41 710.798 215.168 706.408 z"/>
<path transform="translate(0,0)" fill="rgb(35,31,32)" d="M 696.678 1772.48 C 698.136 1772.47 698.519 1772.78 699.758 1773.48 L 698.888 1774.81 C 688.509 1780.1 627.495 1790.45 612.76 1791.49 C 610.727 1790.96 610.612 1790.86 609.23 1789.45 C 608.709 1786.65 608.513 1786.05 609.486 1783.42 C 611.431 1781.82 613.111 1781.13 615.572 1780.78 C 620.467 1780.08 625.515 1780.55 630.436 1780.11 C 637.771 1779.47 645.204 1778.42 652.563 1777.67 C 667.304 1776.16 681.883 1773.52 696.678 1772.48 z"/>
<path transform="translate(0,0)" fill="rgb(35,31,32)" d="M 656.107 274.026 C 658.007 274.159 659.973 274.39 661.83 274.822 C 665.099 275.582 667.634 277.956 669.232 280.835 C 673.685 288.858 671.132 300.695 669.084 309.164 L 649.208 316.165 C 648.191 316.446 647.179 316.758 646.146 316.972 C 643.222 317.579 641.484 317.017 639.067 315.395 C 637.846 313.01 637.629 311.441 638.015 308.845 C 639.363 299.786 648.86 279.727 656.107 274.026 z"/>
<path transform="translate(0,0)" fill="rgb(254,254,254)" d="M 656.642 288.588 L 658.617 290.276 C 659.616 293.146 660.4 294.99 659.251 298.021 C 657.964 301.417 655.891 302.047 652.908 303.583 C 650.906 302.804 651.795 303.442 650.376 301.497 C 650.681 296.13 653.41 292.701 656.642 288.588 z"/>
<path transform="translate(0,0)" fill="rgb(35,31,32)" d="M 340.091 754.193 C 343.403 754.008 346.834 753.745 350.063 754.661 C 355.516 756.207 360.468 760.234 363.065 765.278 C 365.423 769.856 366.158 775.48 364.331 780.366 C 362.084 786.375 358.249 789.223 352.585 791.724 C 348.673 792.432 344.818 793.205 340.869 792.31 A 16.1657 16.1657 0 0 1 330.631 784.717 C 327.938 780.112 327.515 774.195 328.879 769.097 C 330.685 762.349 334.152 757.733 340.091 754.193 z"/>
<path transform="translate(0,0)" fill="rgb(254,254,254)" d="M 342.317 761.558 C 344.699 761.9 347.022 762.447 349.229 763.443 C 351.692 764.555 353.684 766.466 354.521 769.082 C 356.108 774.039 353.18 778.662 350.73 782.728 C 347.614 783.036 345.014 783.511 342.288 781.584 C 339.6 779.685 338.059 776.557 337.811 773.329 C 337.402 768.006 338.792 765.411 342.317 761.558 z"/>
<path transform="translate(0,0)" fill="rgb(35,31,32)" d="M 1537.54 1599.14 C 1542.39 1598.82 1547.09 1598.7 1551.68 1600.57 C 1556.58 1602.55 1560.59 1606.41 1562.37 1611.43 A 18.4152 18.4152 0 0 1 1561.15 1626.38 C 1557.45 1633.24 1551.66 1635.63 1544.55 1637.76 C 1541.42 1637.94 1538 1637.68 1534.97 1636.83 C 1529.23 1635.24 1523.71 1632.24 1520.84 1626.81 A 15.5359 15.5359 0 0 1 1520.05 1614.06 C 1523.11 1605.97 1530.15 1602.46 1537.54 1599.14 z"/>
<path transform="translate(0,0)" fill="rgb(254,254,254)" d="M 1540.61 1612.62 C 1542.56 1613.1 1543.88 1613.32 1545.43 1614.71 C 1546.74 1615.88 1546.33 1616.38 1546.36 1618 C 1544.53 1621.18 1542.56 1622.49 1539.5 1624.44 C 1537.45 1623.9 1536.18 1623.65 1534.48 1622.3 C 1533.03 1621.15 1533.5 1621.59 1533.22 1619.52 C 1534.88 1616.16 1537.58 1614.67 1540.61 1612.62 z"/>
<path transform="translate(0,0)" fill="rgb(35,31,32)" d="M 454.054 1692.2 L 457.355 1692.36 C 457.982 1692.92 459.053 1693.81 459.48 1694.51 C 460.695 1696.51 460.326 1697.5 459.574 1699.43 C 457.19 1701.29 454.976 1702.05 452.055 1702.81 C 440.084 1705.91 426.891 1706.94 414.657 1709.05 C 390.822 1713.17 366.868 1718.03 342.847 1720.87 C 331.59 1722.2 320.391 1723.29 309.044 1722.99 C 306.643 1722.5 305.084 1722.12 303.074 1720.69 L 302.797 1718.89 C 305.33 1717.17 307.927 1716.65 310.878 1716.1 C 323.776 1713.72 337.059 1712.59 350.058 1710.65 C 384.891 1705.45 419.702 1700.06 454.054 1692.2 z"/>
<path transform="translate(0,0)" fill="rgb(35,31,32)" d="M 1353.85 295.685 C 1355.28 295.703 1356.66 295.762 1358.07 296.103 C 1366.11 298.058 1371.7 305.398 1375.67 312.195 C 1379.03 317.935 1397.47 359.039 1397.22 363.417 C 1397.17 364.416 1396.72 365.352 1396.46 366.32 C 1394.48 367.866 1394.65 367.97 1392.17 367.703 C 1384.25 361.145 1378.85 339.602 1374.27 329.668 C 1370.92 322.427 1367.22 315.785 1362.47 309.371 L 1360.43 307.999 C 1358.76 308.103 1358.75 307.74 1357.75 308.811 C 1354.03 312.823 1354.79 324.293 1355.32 329.639 C 1356.5 341.375 1360.9 354.599 1370.3 362.203 C 1373.08 364.449 1375.57 365.961 1376.25 369.605 L 1374.43 370.945 C 1369.44 371.433 1365.47 370.294 1361.52 367.116 C 1351.52 359.068 1346.87 342.737 1345.89 330.337 C 1344.98 318.713 1345.95 304.8 1353.85 295.685 z"/>
<path transform="translate(0,0)" fill="rgb(35,31,32)" d="M 1914.63 405.288 C 1921.48 404.109 1932.17 403.969 1938.69 406.496 C 1941.58 407.614 1943.99 409.365 1945.01 412.44 C 1946.06 415.593 1944.5 419.51 1942.86 422.196 C 1930.08 443.081 1892.99 443.206 1871.5 447.806 C 1864.75 448.867 1852.82 451.291 1846.33 449.065 C 1843.64 448.142 1843.4 447.791 1842.28 445.4 C 1842.63 443.821 1843.06 442.521 1844.02 441.19 C 1857.37 422.651 1892.72 408.794 1914.63 405.288 z"/>
<path transform="translate(0,0)" fill="rgb(254,254,254)" d="M 1915.51 415.138 C 1919.88 414.942 1927.21 414.4 1930.65 417.387 L 1930.38 419.224 C 1917.86 433.178 1897.61 432.572 1880.74 436.291 C 1874.66 437.247 1868.5 437.856 1862.39 438.614 C 1878.17 427.392 1896.72 419.622 1915.51 415.138 z"/>
<path transform="translate(0,0)" fill="rgb(35,31,32)" d="M 1553.89 163.103 C 1559.1 162.786 1563.18 163.439 1567.88 165.803 C 1572.91 168.326 1576.29 172.44 1577.98 177.808 C 1583.46 195.237 1564.51 242.855 1556.01 258.588 C 1553.47 260.195 1549.67 261.17 1546.66 260.496 C 1542.79 259.63 1540.12 257.26 1538.11 253.9 C 1528.53 237.87 1532.69 207.906 1536.79 190.449 C 1539.51 178.874 1543.44 169.561 1553.89 163.103 z"/>
<path transform="translate(0,0)" fill="rgb(254,254,254)" d="M 1556.33 173.668 C 1558.18 173.769 1559.66 173.976 1561.44 174.576 C 1564.28 175.534 1566.76 177.753 1567.8 180.593 C 1572.65 193.819 1559.08 232.306 1552.94 244.956 C 1551.61 246.763 1550.95 247.09 1549.03 248.122 L 1547.23 247.473 C 1544.17 242.485 1543.86 236.9 1543.66 231.164 C 1543.09 213.825 1543.84 187.149 1556.33 173.668 z"/>
<path transform="translate(0,0)" fill="rgb(35,31,32)" d="M 1769.19 300.064 C 1773.52 300.02 1778.49 300.782 1782.18 303.188 C 1784.9 304.964 1786.62 307.566 1787.11 310.811 C 1790.25 332.018 1756.45 365.291 1743.63 380.578 C 1738.76 386.394 1734.37 392.621 1729.98 398.806 C 1727.13 400.204 1724.1 400.323 1720.97 400.068 C 1718.57 399.873 1716.74 399.272 1715.33 397.159 C 1711.76 391.818 1715.17 379.058 1716.92 373.188 C 1725.03 345.981 1743.53 313.801 1769.19 300.064 z"/>
<path transform="translate(0,0)" fill="rgb(254,254,254)" d="M 1770.66 310.698 C 1772.03 310.869 1773.52 311.298 1774.87 311.601 C 1775.97 312.837 1776.85 313.376 1777.12 315.095 C 1780.01 333.015 1739.68 369.557 1728.75 383.19 L 1727.77 384.431 L 1726.57 385.891 L 1724.96 385.997 C 1724.84 384.823 1724.77 384.648 1724.96 383.297 C 1725.76 377.594 1729.33 370.852 1731.6 365.568 C 1740.88 343.908 1751.28 324.716 1770.66 310.698 z"/>
<path transform="translate(0,0)" fill="rgb(35,31,32)" d="M 522.564 432.127 C 524.472 432.133 526.541 432.084 528.408 432.495 C 531.069 433.08 532.809 434.59 534.334 436.776 C 534.541 446.629 515.23 452.565 507.473 456.07 C 434.501 489.049 304.904 599.688 261.107 666.872 C 259.676 669.397 258.262 672.703 255.609 674.071 L 254.512 672.9 C 254.628 667.832 256.927 661.881 259.108 657.303 C 262.352 650.499 268.217 644.025 272.814 638.019 C 309.061 590.654 354.932 549.305 400.3 510.893 C 418.789 495.238 437.05 479.481 457.159 465.903 C 477.916 451.888 499.119 440.943 522.564 432.127 z"/>
<path transform="translate(0,0)" fill="rgb(35,31,32)" d="M 1201.55 353.125 C 1205.09 352.671 1207.09 352.943 1210.24 354.647 C 1211.7 356.636 1212.59 357.587 1212.19 360.264 C 1211.31 366.1 1203.62 370.392 1198.75 372.306 C 1189.15 376.081 1177.82 377.919 1167.71 380.097 C 1151.64 383.558 1135.41 386.915 1119.53 391.152 C 1090.4 398.926 1062.21 409.774 1033.32 418.328 C 969.856 437.116 887.63 455.817 831.413 490.557 C 829.833 491.446 828.671 491.688 826.92 492.07 C 824.401 491.14 823.717 490.324 822.236 488.111 C 821.886 485.08 821.883 484.856 823.321 482.176 C 829.364 477.938 837.396 476.092 844.093 472.809 A 852.837 852.837 0 0 1 967.365 424.599 C 987.319 418.317 1007.58 413.049 1027.53 406.75 C 1056.22 397.691 1084.4 387.125 1113.07 377.965 C 1142.19 368.659 1171.98 360.864 1201.55 353.125 z"/>
<path transform="translate(0,0)" fill="rgb(35,31,32)" d="M 1884.81 929.09 C 1886.6 928.946 1888.84 928.636 1890.62 929.016 C 1893.86 929.704 1898.29 932.852 1899.99 935.716 C 1901.45 938.182 1900.98 940.123 1900.38 942.698 C 1893.5 949.288 1891.71 961.711 1887.34 970.316 A 229.239 229.239 0 0 1 1870.22 998.263 C 1850.81 1025.08 1829.43 1050.7 1808.98 1076.74 A 4108.68 4108.68 0 0 0 1740.23 1167.66 C 1727.91 1184.32 1715.32 1200.92 1703.66 1218.05 C 1687.35 1242 1671.78 1268.29 1651.36 1289.01 C 1648.15 1291.94 1644.81 1293.97 1641.07 1296.14 C 1651.03 1270.2 1670.42 1245.75 1685.97 1222.85 C 1732.36 1154.56 1782.3 1089.02 1831.62 1022.85 C 1846 1003.56 1861.21 982.468 1871.71 960.78 C 1876.6 950.663 1876.05 936.507 1884.81 929.09 z"/>
<path transform="translate(0,0)" fill="rgb(35,31,32)" d="M 1786.48 1217.14 C 1790.98 1217.19 1795.24 1217.51 1799.43 1219.3 C 1805.62 1221.94 1811.14 1226.9 1813.48 1233.31 C 1816.27 1240.96 1813.75 1248.42 1810.24 1255.38 C 1796.71 1282.18 1768.08 1300.48 1747.88 1322.03 C 1727.72 1343.54 1709.53 1366.95 1690.15 1389.17 A 749.597 749.597 0 0 1 1645.49 1435.53 C 1635.48 1445.22 1625.88 1455.5 1615.22 1464.47 C 1584.74 1490.1 1545.58 1512.6 1507.59 1524.87 C 1506.52 1523.45 1505.74 1522.08 1504.9 1520.52 C 1505.41 1517.92 1505.96 1517.17 1508.21 1515.69 C 1517.86 1509.34 1529.11 1504.25 1539.26 1498.67 C 1564.51 1484.78 1590.91 1468.96 1612.11 1449.32 C 1637.43 1425.87 1662.36 1399.84 1684.95 1373.76 C 1700.49 1355.82 1714.84 1336.95 1730.81 1319.34 C 1749.15 1299.11 1771.12 1281.71 1788.04 1260.38 C 1792.04 1255.33 1797.9 1247.91 1797.46 1241.14 C 1796.7 1229.4 1780.14 1236.54 1774.6 1231.55 C 1773.39 1228.59 1773.21 1227.44 1773.78 1224.29 C 1776.59 1219.62 1781.55 1218.6 1786.48 1217.14 z"/>
<path transform="translate(0,0)" fill="rgb(35,31,32)" d="M 1742.52 623.53 C 1742.93 623.786 1743.36 624.015 1743.76 624.298 C 1748.06 627.385 1746.4 632.405 1747.11 637.012 C 1749.76 640.508 1753.94 642.493 1757.58 644.832 C 1763.11 648.383 1769.43 652.112 1770.91 658.939 C 1770.15 661.76 1770.03 662.175 1767.91 664.154 C 1760.83 665.758 1752.17 658.552 1745.25 656.315 C 1744.8 656.169 1744.35 656.033 1743.9 655.892 C 1740.24 666.005 1737.72 676.295 1735.41 686.781 A 406.795 406.795 0 0 1 1741.96 691.371 C 1751.01 697.799 1759.29 706.132 1760.9 717.645 C 1762.01 725.583 1759.39 733.144 1754.37 739.28 C 1743.74 752.256 1728.3 754.931 1712.63 756.621 C 1709.56 764.211 1704.63 779.357 1697.9 784.02 C 1695.66 783.629 1695.38 783.109 1693.66 781.737 C 1693.37 777.757 1695.01 773.322 1696 769.468 L 1700.15 754.528 C 1692.63 751.324 1685.37 747.38 1679.39 741.734 C 1674.37 736.997 1668.4 729.015 1668.74 721.682 C 1668.86 719.197 1669.49 718.214 1671.28 716.615 C 1678.38 716.834 1685.51 732.057 1691.7 736.799 C 1695.47 739.69 1698.39 740.455 1703.09 739.758 C 1709.52 731.35 1716.22 707.167 1719.33 696.376 C 1714.35 692.903 1708.64 690.449 1703.2 687.777 C 1698.01 680.005 1693.98 671.511 1690.62 662.816 C 1696.63 644.509 1705.11 639.573 1722.92 635.462 C 1725.69 634.822 1730.13 634.363 1732.57 633.075 C 1735.85 631.343 1738.91 626.028 1742.52 623.53 z"/>
<path transform="translate(0,0)" fill="rgb(254,254,254)" d="M 1721.71 650.864 L 1725.47 651.192 C 1726.59 652.45 1727.04 652.658 1727.39 654.398 C 1728.64 660.554 1725.47 673.477 1721.82 678.561 L 1720.18 677.032 C 1717.08 673.105 1713.37 669.013 1710.92 664.667 C 1709.98 662.991 1709.38 660.746 1710.05 658.897 C 1711.69 654.386 1717.66 652.669 1721.71 650.864 z"/>
<path transform="translate(0,0)" fill="rgb(254,254,254)" d="M 1729.81 703.624 C 1735.21 705.84 1740.94 707.888 1744.97 712.32 C 1747.42 715.01 1749.33 718.321 1748.66 722.093 C 1747.4 729.149 1739.28 733.185 1733.75 736.589 C 1728.34 738.78 1723.14 739.979 1717.44 741.115 C 1722.08 728.851 1725.53 716.041 1729.81 703.624 z"/>
<path transform="translate(0,0)" fill="rgb(35,31,32)" d="M 1012.9 260.143 C 1016.76 259.861 1020.69 259.508 1024.4 260.822 C 1028.48 262.269 1033.06 264.296 1035.1 268.303 C 1034.82 270.741 1034.12 272.651 1031.87 274.091 C 1027.89 276.638 1014.15 276.997 1008.4 278.319 C 998.77 280.533 990.272 284.019 981.256 287.999 C 928.143 311.439 875.919 337.139 823.575 362.229 C 774.338 385.829 725.729 409.856 677.809 436.085 C 595.707 481.022 517 531.349 459.148 606.427 L 448.327 620.463 C 451.12 614.045 454.231 607.985 457.926 602.033 C 534.617 478.482 742.743 385.726 871.431 323.238 A 2471.17 2471.17 0 0 1 964.915 279.332 C 980.402 272.419 996.363 264.052 1012.9 260.143 z"/>
<path transform="translate(0,0)" fill="rgb(35,31,32)" d="M 1566.35 383.392 C 1576.94 382.391 1589.28 384.007 1599.75 385.998 C 1630.3 391.811 1656.01 411.385 1673.26 436.868 C 1696.76 471.588 1699.78 517.112 1691.81 557.278 C 1687.46 579.19 1676.18 605.47 1664.37 624.258 C 1646.63 652.448 1607.89 693.712 1580.56 712.224 C 1589.45 731.451 1603.3 749.51 1616 766.351 C 1630.78 785.935 1646.84 799.956 1671.97 803.276 C 1704.76 807.609 1738.53 795.755 1764.25 775.564 C 1804.67 743.838 1823.63 685.419 1812.71 635.4 C 1811.2 628.484 1801.96 606.942 1802.41 603.362 C 1804.2 600.218 1807.51 599.353 1810.68 598 C 1811.59 598.995 1812.53 599.955 1813.44 600.948 C 1825.16 613.74 1841.73 619.324 1851.44 634.724 C 1863.57 653.972 1865.19 679.544 1860.49 701.284 C 1851.03 745.002 1820.92 788.872 1786.7 816.848 C 1778.05 823.923 1768.46 829.504 1759.12 835.587 C 1757.89 840.215 1757.24 845.319 1753 847.995 C 1749.92 846.205 1751.97 842.878 1749.47 840.032 C 1744.37 840.051 1739.13 842.443 1734.33 844.057 L 1732.74 858.983 C 1744.18 853.513 1756.34 849.514 1767.6 843.769 C 1798.63 827.946 1840.03 796.208 1856.48 765.332 C 1875.15 730.299 1879.81 685.186 1867.87 647.129 C 1857.73 614.809 1836.55 593.599 1807.12 578.054 A 108.445 108.445 0 0 0 1712.72 576.839 C 1708.41 578.862 1701.52 585.047 1696.92 585.149 C 1696.38 584.357 1695.23 582.92 1694.95 581.937 C 1694.5 580.395 1694.41 579.107 1695.07 577.645 C 1698.56 569.993 1715.45 563.36 1723.19 560.669 C 1756.77 548.983 1791.44 550.746 1823.42 566.494 C 1854.12 581.613 1876.92 605.361 1887.79 637.936 C 1903.67 685.549 1895.36 738.152 1873.05 782.27 C 1854.9 818.171 1789.87 865.443 1751.62 877.787 A 140.731 140.731 0 0 1 1644.46 868.495 C 1619.13 855.35 1586.62 825.267 1593.19 793.202 C 1594.33 787.61 1601.14 779.159 1600.1 774.284 C 1597.81 763.553 1587.15 753.444 1582.32 743.427 C 1578.32 735.123 1575.96 725.423 1573.19 716.623 C 1546.5 730.424 1522.26 737.448 1491.9 733.763 C 1455.53 729.347 1435.58 706.271 1414.07 679.066 C 1388.74 675.946 1362.91 677.388 1342.36 659.291 C 1328.9 647.442 1323.44 632.462 1322.39 614.961 C 1320.99 591.492 1330.56 564.193 1346.23 546.647 C 1360.1 531.124 1384.58 519.87 1405.22 518.556 C 1413.74 496.812 1427.17 474.334 1441.78 456.262 C 1473.82 416.635 1515.03 388.612 1566.35 383.392 z"/>
<path transform="translate(0,0)" fill="rgb(254,254,254)" d="M 1602.03 780.568 C 1607.47 783.913 1611.41 788.863 1614.99 794.05 C 1613.4 797.735 1611.65 801.355 1609.95 804.989 C 1608.71 806.765 1608.84 806.991 1606.73 807.905 C 1605.76 807.286 1605.65 807.305 1604.82 806.253 C 1600.17 800.367 1600.86 787.341 1602.03 780.568 z"/>
<path transform="translate(0,0)" fill="rgb(254,254,254)" d="M 1712.57 843.057 A 709.778 709.778 0 0 0 1727.02 844.11 C 1726.51 849.079 1727.17 854.626 1725.25 859.278 L 1722.8 860.133 C 1719.69 860.486 1715.57 861.382 1712.5 860.794 C 1710.35 860.383 1710.01 859.591 1708.79 857.958 C 1708.47 852.961 1710.96 847.742 1712.57 843.057 z"/>
<path transform="translate(0,0)" fill="rgb(254,254,254)" d="M 1667.74 831.001 L 1683.49 836.489 C 1680.89 842.837 1679.13 848.855 1677.91 855.597 C 1673.47 855.665 1667.83 853.424 1663.47 852.304 C 1665.23 845.207 1666.87 838.268 1667.74 831.001 z"/>
<path transform="translate(0,0)" fill="rgb(254,254,254)" d="M 1687.77 837.317 L 1705.57 843.3 C 1703.98 848.927 1702.14 854.461 1700.3 860.009 C 1694.87 859.662 1689.68 858.946 1684.34 858.029 C 1685.85 851.223 1686.71 844.21 1687.77 837.317 z"/>
<path transform="translate(0,0)" fill="rgb(254,254,254)" d="M 1648.91 819.9 C 1654.04 822.519 1658.95 825.96 1663.83 829.029 C 1660.89 835.442 1658.28 842.046 1655.53 848.549 C 1649.92 845.68 1644.92 842.26 1639.78 838.65 C 1642.4 832.227 1645.76 826.075 1648.91 819.9 z"/>
<path transform="translate(0,0)" fill="rgb(254,254,254)" d="M 1618.87 798.507 C 1622.99 801.699 1626.64 805.489 1630.37 809.119 C 1628.31 812.261 1625.64 815.637 1624.05 819.009 C 1622.86 821.514 1622.94 821.912 1623.7 824.394 C 1629.84 824.972 1630.17 815.388 1634.97 812.89 C 1637.24 813.713 1638.6 814.748 1640.44 816.3 L 1639.84 818.964 L 1635.32 835.772 C 1626.97 829.857 1619.28 823.448 1612.51 815.737 C 1615.49 810.071 1617.54 804.775 1618.87 798.507 z"/>
<path transform="translate(0,0)" fill="rgb(254,254,254)" d="M 1824.7 631.648 C 1832.09 635.214 1838.03 650.452 1840.8 658.086 C 1844.71 668.845 1846.88 680.021 1841.88 690.729 C 1839.37 692.716 1839.07 693.372 1835.77 693.464 C 1827.2 687.303 1834.06 654.241 1830.99 643.458 C 1829.89 639.603 1826.56 635.332 1824.7 631.648 z"/>
<path transform="translate(0,0)" fill="rgb(254,254,254)" d="M 1398.27 532.402 L 1399.92 532.472 C 1401.03 536.775 1395.07 554.903 1394.22 560.84 A 197.12 197.12 0 0 0 1392.49 594.256 A 175.009 175.009 0 0 0 1399.65 637.345 C 1402.12 645.511 1405.51 653.809 1406.78 662.245 C 1406.06 662.743 1404.77 663.68 1403.97 663.977 C 1402.87 664.388 1401.31 664.519 1400.22 664.018 C 1396.09 662.116 1394.57 654.763 1392.92 650.753 C 1390.27 650.666 1387.15 658.68 1383.89 660.409 C 1381.22 660.084 1380.97 659.815 1378.88 658.061 C 1377.87 652.385 1385.46 643.679 1385.4 636.825 L 1384.14 635.691 C 1383.09 635.867 1382.09 635.986 1381.08 636.383 C 1376.29 638.277 1372.52 652.628 1370.92 657.064 C 1367.77 655.848 1364.69 654.441 1361.6 653.089 C 1365.8 644.211 1373.58 627.123 1370.97 617.335 C 1365.04 621.552 1361.93 632.886 1358.99 639.515 C 1357.82 642.255 1356.58 646.637 1353.95 648.12 C 1350.93 647.476 1348.59 644.113 1346.57 641.907 C 1350.82 627.428 1357.98 613.804 1362.24 599.528 C 1362.99 596.992 1362.95 595.805 1361.71 593.529 L 1359.35 593.297 C 1350.17 602.698 1346.95 620.625 1340.53 632.329 C 1340.33 632.694 1340.12 633.054 1339.92 633.416 C 1340.74 622.121 1353.78 582.824 1351.84 577.04 L 1350.51 576.713 C 1345.15 580.491 1342.02 595.826 1339.86 602.241 C 1339.44 585.966 1341.83 567.226 1352.21 554.095 C 1364.03 539.147 1380.26 534.601 1398.27 532.402 z"/>
<path transform="translate(0,0)" fill="rgb(254,254,254)" d="M 1664.26 597.274 C 1659.09 606.949 1654.79 617.44 1649.16 626.767 C 1632.15 655.002 1602.59 685.77 1574.19 701.999 C 1551.97 714.697 1531.87 718.431 1506.57 718.208 C 1496.91 718.122 1486.93 717.719 1477.57 715.112 C 1454.28 708.624 1436.35 687.303 1425 666.981 C 1404.25 629.833 1400.14 579.613 1411.84 539.031 C 1427.42 485.04 1462.73 438.766 1512.45 411.736 C 1544.32 394.412 1564.06 393.021 1598.64 403.186 C 1593.68 403.768 1587.52 403.85 1583.06 406.2 L 1583.22 407.358 C 1591.36 410.548 1600.66 410.894 1609.05 413.448 C 1624.34 418.103 1616.09 419.277 1620.89 428.089 C 1624.8 430.433 1627.13 429.966 1631.51 429.583 C 1640.21 433.617 1647.74 445.276 1653.81 452.622 C 1645.79 452.719 1621.14 450.884 1614.96 456.162 C 1612.96 457.868 1613.01 458.426 1613.02 460.834 C 1617.69 463.852 1647.67 459.152 1656.49 459.541 C 1656.91 459.559 1657.34 459.587 1657.76 459.609 C 1660.55 463.574 1662.72 468.103 1665.05 472.352 C 1654.62 471.346 1642.53 469.487 1632.35 473.018 C 1629.7 473.936 1629.45 474.344 1628.23 476.649 L 1629.16 478.329 C 1635.59 481.469 1659.35 478.862 1668.59 479.042 C 1669.79 482.713 1670.45 486.61 1671.26 490.385 C 1662.41 489.394 1648.43 486.942 1641.09 493.236 C 1639.8 494.347 1640.25 494.134 1640.24 496.099 C 1648.64 503.684 1665.44 492.965 1673.68 500.008 C 1675.93 505.75 1675.17 512.516 1674.65 518.557 C 1670.66 514.411 1666.93 513.029 1661.12 512.958 C 1657.83 512.917 1654.61 513.169 1651.72 514.833 L 1652.08 516.157 C 1658.11 519.013 1667.62 520.042 1674.35 519.697 C 1674.98 520.6 1675.46 522.031 1675.91 523.049 C 1674.81 528.826 1659.39 523.023 1653.95 527.59 L 1653.95 529.841 C 1658.7 534.287 1670 533.668 1676.39 534.111 C 1676.17 540.472 1675.5 546.538 1674.51 552.823 C 1671.73 551.826 1669.26 550.673 1666.28 550.624 C 1665.05 552.69 1664.99 553.606 1665.21 555.987 C 1667.44 557.575 1670.78 557.811 1673.43 558.977 L 1673.6 560.601 C 1669.06 563.985 1662.99 560.395 1658.02 562.936 C 1656.59 563.672 1656.83 564.569 1656.49 565.99 C 1660.39 570.362 1667.64 569.819 1673.17 570.307 C 1672.18 574.985 1670.6 579.366 1668.99 583.852 C 1666.29 583.478 1663.13 582.809 1660.41 583.189 C 1656.96 583.67 1654.47 585.913 1652.41 588.511 C 1652.11 590.976 1651.93 591.922 1653.61 594.035 C 1655.66 596.603 1661.11 596.817 1664.26 597.274 z"/>
<path transform="translate(0,0)" fill="rgb(35,31,32)" d="M 1537.07 426.452 L 1548.23 430.167 C 1542.88 446.607 1537.99 460.499 1535.42 477.808 C 1543 480.194 1551.44 484.788 1556.02 491.521 C 1556.4 494.024 1556.09 495.249 1555.19 497.601 C 1548.46 501.958 1540.76 492.54 1533.48 492.825 C 1528.9 497.227 1524.53 531.016 1522.92 539.283 A 375.839 375.839 0 0 1 1542.43 547.804 C 1554.94 553.734 1567.48 562.151 1572.38 575.737 C 1571.34 580.492 1570.2 584.637 1567.63 588.834 C 1554.58 610.137 1530.29 625.681 1506.39 631.31 C 1505.07 637.686 1503.98 644.079 1500.91 649.895 C 1499.45 652.674 1498.23 654.057 1495.24 655.015 C 1493.11 654.377 1492.16 653.46 1490.88 651.64 C 1488.77 648.629 1488.97 647.198 1489.46 643.752 L 1492.04 633.12 C 1487.59 632.924 1482.93 632.924 1478.77 631.149 C 1469.66 627.262 1453.2 615.533 1450.06 605.869 C 1449.19 603.176 1449.51 601.499 1450.58 598.999 C 1460.17 596.214 1471.61 613.767 1479.82 618.076 C 1484.02 620.28 1489.92 620.66 1494.59 621.433 C 1500.82 597.248 1504.45 572.299 1506.88 547.487 C 1500.3 545.733 1493.41 543.335 1487.37 540.171 C 1481.31 536.996 1475.3 532.193 1473.37 525.334 C 1471.47 518.569 1473.93 511.456 1477.37 505.63 C 1487.34 488.767 1503.06 481.487 1521.32 476.723 C 1525.91 460.135 1529.81 442.111 1537.07 426.452 z"/>
<path transform="translate(0,0)" fill="rgb(254,254,254)" d="M 1511.73 494.938 L 1516.04 495.122 C 1517.44 497.643 1510.11 529.163 1509.15 535.293 L 1498.37 528.91 C 1495.63 527.347 1491.38 524.896 1489.94 522.013 C 1488.48 519.079 1488.57 516.224 1489.77 513.247 C 1493.27 504.555 1503.49 498.44 1511.73 494.938 z"/>
<path transform="translate(0,0)" fill="rgb(254,254,254)" d="M 1521.39 551.769 C 1532.51 554.968 1546.96 559.622 1554.72 568.732 C 1557.34 571.798 1558.85 575.557 1558.32 579.621 C 1556.85 590.741 1543.22 599.653 1535.01 606.146 C 1526.7 612.019 1518.66 615.954 1508.99 619.092 A 6299.96 6299.96 0 0 1 1521.39 551.769 z"/>
<path transform="translate(0,0)" fill="rgb(35,31,32)" d="M 831.617 573.079 C 839.758 573.243 848.754 575.649 856.816 577.02 A 1752 1752 0 0 0 905.221 584.867 C 957.4 592.46 1009.51 601.906 1061.79 608.474 C 1087.51 611.705 1113.58 613.631 1139.44 615.371 C 1156.11 616.493 1177.35 616.578 1188.89 630.818 C 1201.33 646.161 1222.2 725.789 1225.12 748.624 C 1226.44 758.922 1225.55 769.494 1224.84 779.807 C 1218.25 788.807 1212.41 798.335 1205.93 807.413 C 1183.17 839.286 1160.24 870.845 1136.31 901.852 C 1166.34 905.383 1197.71 904.903 1227.92 904.896 L 1333.39 904.732 C 1345.92 904.687 1358.44 905.016 1370.96 904.973 C 1380.47 904.94 1391.14 903.924 1400.5 905.527 C 1406.8 906.607 1412.81 911.346 1417.22 915.722 C 1420.34 918.808 1424.26 922.959 1425.56 927.256 C 1429.12 938.992 1427.03 959.109 1427.31 971.926 C 1427.79 994.753 1428.83 1017.56 1428.94 1040.39 C 1440.68 1039.59 1452.4 1037.81 1464.16 1036.9 C 1502.56 1033.92 1545.08 1032.84 1581.27 1018.44 C 1581.72 1016.27 1582.21 1014 1582.99 1011.92 C 1584.12 1008.92 1586.17 1007.36 1589.08 1006.16 C 1591.45 1006.1 1592.93 1006.4 1594.92 1007.78 C 1607.06 1016.2 1613.71 1043.7 1616.27 1057.44 C 1618.6 1070 1619.52 1082.99 1620.94 1095.69 C 1627.07 1150.13 1631.07 1216.64 1612.71 1269.13 C 1603.9 1294.33 1588.75 1318.51 1573.49 1340.34 C 1538.51 1390.39 1497.42 1407.83 1439.55 1418.29 C 1437.53 1468.51 1442.51 1519.19 1440.28 1569.38 C 1442.44 1570.04 1444.72 1570.73 1446.75 1571.73 C 1448.87 1572.78 1450.19 1574.42 1450.77 1576.71 C 1450.87 1577.11 1450.99 1577.52 1450.98 1577.93 C 1450.79 1583.82 1444.26 1591.02 1440.41 1595.29 C 1431.83 1604.81 1420.99 1612.06 1411.91 1621.08 C 1402.64 1630.29 1394.47 1640.55 1385.36 1649.91 C 1355.95 1680.09 1326.94 1710.4 1299.94 1742.75 C 1294.37 1749.42 1287.73 1755.61 1283.18 1763.04 C 1284.13 1765.5 1285.27 1767.81 1286.47 1770.16 C 1286.37 1772.44 1286.6 1773.28 1284.72 1774.88 C 1281.72 1777.45 1275.15 1779.28 1271.4 1780.57 C 1245.04 1789.62 1217.93 1797.1 1191.34 1805.48 C 1175.68 1810.42 1116.65 1832.5 1105.13 1831.82 C 1102.65 1831.67 1101.8 1831.11 1100.14 1829.35 C 1099.89 1827.77 1099.7 1826.52 1100.35 1824.98 C 1101.54 1822.15 1104.36 1820.22 1107 1818.87 C 1115.11 1814.72 1124.81 1813.12 1133.39 1810.05 C 1154.16 1802.64 1174.9 1794.63 1195.54 1786.84 C 1181.9 1785.93 1166.81 1785.32 1153.23 1786.77 C 1133.46 1788.86 1113.86 1794.44 1094.68 1799.52 C 1053.24 1810.49 1012.51 1823.94 970.423 1832.21 C 960.658 1834.13 950.183 1838.14 940.409 1838.93 C 937.333 1839.18 935.613 1838.81 933.244 1836.87 C 932.453 1834.3 931.722 1832.18 932.897 1829.54 C 934.669 1825.55 938.736 1823.6 942.515 1821.99 C 956.632 1815.95 972.818 1813.3 987.678 1809.59 A 1645.19 1645.19 0 0 0 1056.38 1790.6 C 1068.55 1787.06 1081.36 1784.13 1093.08 1779.29 L 1094.49 1778.7 C 1080.8 1776.83 1065.23 1773.27 1051.4 1774.22 C 1031.65 1775.59 997.759 1787.43 977.805 1793.01 C 959.313 1798.18 940.504 1802.2 922.073 1807.5 C 907.092 1811.8 892.072 1818.37 876.543 1820.29 C 872.117 1820.84 866.925 1821.28 863.199 1818.43 C 862.372 1815.67 862.598 1815.37 863.504 1812.59 C 872.651 1808.55 884.352 1809.24 894.131 1806.61 C 901.511 1804.62 908.767 1801.53 916.178 1799.38 C 949.693 1789.67 983.395 1779.9 1017.09 1770.88 C 1004.61 1768.65 989.618 1765.23 976.96 1766.17 C 965.693 1767 940.007 1774.85 927.443 1777.78 C 908.178 1782.28 772.24 1813.2 762.93 1808.67 C 760.681 1807.58 760.342 1806.47 759.529 1804.32 L 760.366 1802.7 C 763.105 1800.74 765.513 1799.79 768.773 1798.95 C 780.476 1795.92 793.201 1794.81 805.124 1792.36 L 901.83 1772.7 C 916.995 1769.49 933.611 1766.12 948.146 1760.84 C 937.945 1759.37 926.916 1756.98 916.624 1757.07 C 901.238 1757.2 885.561 1760.57 870.32 1762.61 A 1325.66 1325.66 0 0 0 702.635 1795.43 C 694.268 1797.71 673.362 1802.7 665.486 1798.19 C 664.911 1795.97 664.895 1796.13 666.031 1794.13 C 677.601 1789.37 691.97 1788.33 704.184 1785.14 C 722.855 1780.26 741.231 1774.29 760.009 1769.81 C 790.443 1762.55 821.301 1757.12 851.836 1750.26 C 837.536 1748.15 822.033 1746.24 807.589 1746.78 C 788.321 1747.5 764.537 1752.62 744.426 1754.83 C 722.856 1757.2 700.84 1759.87 679.212 1761.32 C 660.551 1762.56 642.101 1762.23 623.431 1764.25 C 611.494 1765.53 559.376 1775.67 551.097 1771.68 C 549.771 1769.38 549.84 1769.52 550.44 1766.92 C 553.862 1763.21 558.365 1762.13 563.204 1761.25 C 584.566 1757.36 607.357 1756.43 628.993 1754.43 C 657.568 1751.78 685.553 1747.65 713.796 1742.58 C 724.147 1740.73 734.703 1739.26 744.915 1736.74 L 745.94 1736.48 C 715.746 1727.73 670.585 1735.43 638.819 1737.59 L 523.199 1746.05 C 507.981 1747.24 491.126 1750 475.928 1749.06 C 472.888 1748.87 469.853 1748.65 467.732 1746.25 C 467.667 1744.49 467.504 1743.89 466.843 1742.15 C 457.6 1738.59 429.947 1748.9 415.554 1746.7 C 412.311 1746.21 410.81 1745.29 408.89 1742.69 C 408.684 1739.85 409.527 1738.4 410.847 1736 C 411.014 1735.7 411.187 1735.4 411.357 1735.1 C 407.002 1732.99 390.772 1736.15 384.995 1736.39 C 376.216 1736.76 361.317 1739.39 354.517 1733.12 C 354.249 1731.98 353.683 1731.23 354.47 1730.2 C 357.082 1726.76 364.3 1725.49 368.403 1724.65 C 403.461 1717.48 441.411 1714.95 477.036 1710.63 C 495.409 1708.4 514.582 1703.69 532.97 1702.82 C 539.413 1702.51 543.866 1707.73 550.047 1708.26 C 564.953 1709.54 580.489 1707.52 595.425 1707.17 C 609.138 1706.84 622.802 1708.1 636.526 1707.42 C 623.338 1704.33 610.045 1700.87 596.675 1698.69 C 573.722 1694.96 382.901 1668.96 379.184 1666.64 C 375.918 1664.6 373.201 1661.11 371.853 1657.53 C 369.147 1650.34 368.512 1641.29 367.252 1633.67 C 364.394 1616.4 361.795 1599.06 358.578 1581.85 C 354.48 1559.93 349.019 1538.4 344.526 1516.59 C 341.152 1500.2 335.644 1457.64 328.936 1445.23 C 324.733 1437.45 317.392 1430.36 311.671 1423.65 C 293.906 1402.81 281.17 1384.02 271.928 1357.88 C 249.036 1354.37 226.242 1345.28 204.064 1338.66 C 185.666 1333.17 166.924 1329.43 148.075 1325.89 C 134.361 1323.32 121.633 1319.73 107.93 1323.85 C 105.246 1322.36 102.65 1320.72 100.516 1318.48 C 86.507 1303.75 87.4275 1269.6 87.806 1250.9 C 89.0478 1189.58 109.885 1090.52 137.219 1035.75 C 149.137 1011.86 164.832 990.67 178.605 967.922 C 186.299 955.214 194.761 930.974 205.059 921.732 C 207.778 919.292 211.06 917.458 214.848 918.034 C 217.601 918.452 219.684 919.857 221.385 922.011 C 224.585 926.064 225.381 933.484 227.785 938.279 C 235.283 953.232 247.393 970.388 258.362 983.027 L 259.271 984.065 C 275.713 976.289 291.491 965.424 307.505 956.626 C 334.242 941.938 395.925 914.576 414.52 895.135 C 425.318 883.845 434.64 869.548 444.067 857.041 C 467.96 825.338 490.611 793.931 519.076 766.051 C 570.903 715.289 632.231 669.616 698.073 638.795 C 713.007 631.804 728.094 625 744.248 621.316 C 758.445 618.078 773.106 618.934 787.561 619.083 C 798.545 603.075 812.735 579.89 831.617 573.079 z"/>
<path transform="translate(0,0)" fill="rgb(254,254,254)" d="M 1508.23 1092.24 C 1508.84 1092.19 1509.45 1092.06 1510.05 1092.11 C 1512.24 1092.28 1514.27 1094.03 1515.5 1095.63 C 1514.05 1100.89 1507.68 1103.54 1503.25 1106.22 C 1499.25 1104.04 1496.8 1101.28 1493.81 1097.96 C 1498.9 1096.37 1503.48 1094.71 1508.23 1092.24 z"/>
<path transform="translate(0,0)" fill="rgb(254,254,254)" d="M 367.532 947.047 L 369.783 947.373 C 368.124 952.238 338.477 966.218 332.348 969.351 L 329.977 969.763 C 329.203 966.893 330.974 964.173 332.014 961.424 C 343.716 956.352 355.153 950.248 367.532 947.047 z"/>
<path transform="translate(0,0)" fill="rgb(254,254,254)" d="M 1298.71 958.369 C 1299.17 958.228 1299.6 958.02 1300.07 957.946 C 1302.36 957.585 1305.24 957.859 1307.08 959.143 C 1307.81 961.692 1308.06 962.426 1306.8 964.98 C 1303.96 970.706 1297.2 972.638 1291.64 974.444 C 1288.91 975.077 1286.12 976.046 1283.31 975.5 C 1288.59 967.279 1285.69 969.098 1285.17 961.378 C 1289.32 959.364 1294.19 959.052 1298.71 958.369 z"/>
<path transform="translate(0,0)" fill="rgb(254,254,254)" d="M 1550.53 1051.43 L 1551.86 1051.83 C 1551.51 1052.09 1551.17 1052.36 1550.81 1052.61 C 1546.96 1055.35 1540.8 1056.8 1536.35 1058.41 C 1507.84 1068.68 1483.1 1069.62 1453.39 1063.73 L 1445.32 1060.85 C 1464.8 1059.6 1484.39 1060.29 1503.87 1058.58 C 1519.66 1057.18 1534.9 1053.75 1550.53 1051.43 z"/>
<path transform="translate(0,0)" fill="rgb(254,254,254)" d="M 1229.75 926.28 C 1245.05 925.139 1323.67 923.875 1334.92 928.265 L 1335.13 929.598 L 1331.77 930.295 C 1308.6 932.782 1254.42 940.864 1234.1 931.018 C 1231.46 929.74 1230.72 929.005 1229.75 926.28 z"/>
<path transform="translate(0,0)" fill="rgb(254,254,254)" d="M 643.546 1288.39 C 654.111 1289.13 664.489 1291.76 674.779 1294.14 C 703.827 1300.85 729.684 1309.17 753.774 1327.45 C 773.91 1342.73 790.95 1362.75 794.516 1388.43 C 793.182 1391.9 791.477 1394.86 789.544 1398.03 C 786.301 1400.64 782.528 1402.61 778.939 1404.71 C 779.143 1399.25 779.388 1394.05 778.107 1388.69 C 768.493 1348.41 725.741 1320.85 689.718 1307.02 C 675.797 1301.67 657.403 1297.67 645.163 1289.53 C 644.615 1289.16 644.085 1288.77 643.546 1288.39 z"/>
<path transform="translate(0,0)" fill="rgb(254,254,254)" d="M 1171.11 650.531 C 1178.59 659.595 1194.16 722.208 1196.66 736.264 C 1198.17 744.753 1198.81 753.002 1198.95 761.617 C 1194.63 759.385 1190.86 756.189 1187.01 753.249 C 1173.51 742.856 1159.9 732.235 1148.43 719.6 C 1150.26 700.552 1159.84 665.471 1171.11 650.531 z"/>
<path transform="translate(0,0)" fill="rgb(254,254,254)" d="M 357.932 1476.7 C 386.995 1503.19 415.139 1531.73 442.549 1559.93 C 461.228 1579.15 479.517 1598.83 499.447 1616.77 C 521.125 1636.28 545.507 1652.95 568.909 1670.32 C 545.054 1665.81 454.357 1656.21 440.659 1648.97 C 440.61 1648.35 440.446 1647.73 440.512 1647.11 C 441.044 1642.04 441.854 1640.98 439.615 1635.98 C 437.994 1632.35 436.643 1628.7 435.289 1624.97 C 442.529 1631.56 447.248 1640.73 454.155 1647.74 C 456.189 1649.8 458.481 1652.01 461.543 1651.98 L 462.735 1650.37 C 462.033 1640.34 452.49 1627.8 447.728 1618.96 C 455.383 1627.34 462.887 1634.47 472.279 1640.87 C 465.612 1610.92 426.519 1587.69 422.113 1571.11 C 421.521 1568.89 421.036 1566.89 419.988 1564.82 C 418.9 1562.67 419.667 1563.32 417.536 1562.65 C 406.159 1571.85 419.672 1586.8 415.016 1597.02 C 411.653 1581.63 406.7 1547.3 399.214 1535.73 L 397.588 1534.83 C 394.559 1538.38 395.006 1545.95 395.403 1550.36 C 396.37 1561.07 409.612 1625.35 417.091 1630.49 C 417.357 1630.67 417.672 1630.77 417.962 1630.91 C 420 1629.64 419.967 1629.23 420.876 1626.96 C 419.31 1618.87 417.135 1610.85 415.756 1602.74 C 422.82 1609.68 429.888 1638.6 435.116 1649.2 C 421.904 1646.88 408.116 1645.91 394.775 1644.28 C 390.244 1628.7 388.646 1612.34 385.538 1596.44 C 381.736 1576.99 376.503 1557.81 372.285 1538.45 C 367.816 1517.93 364.45 1496.68 357.932 1476.7 z"/>
<path transform="translate(0,0)" fill="rgb(254,254,254)" d="M 834.576 601.999 C 850.363 603.466 866.124 606.71 881.85 608.877 C 903.286 611.832 924.974 613.067 946.351 616.4 C 976.44 621.092 1006.26 627.791 1036.42 632.033 A 961.758 961.758 0 0 0 1094.97 638.461 C 1113.17 639.802 1131.64 640.372 1149.7 642.992 C 1136.62 664.253 1131.79 688.411 1125.86 712.33 C 1122.16 711.955 1118.38 711.042 1114.71 710.386 L 799.081 660.62 C 799.054 657.09 798.886 653.48 799.149 649.957 C 800.447 632.564 822.146 612.518 834.576 601.999 z"/>
<path transform="translate(0,0)" fill="rgb(254,254,254)" d="M 1133.8 740.441 C 1139.03 743.222 1143.75 748.493 1148.28 752.443 C 1161.39 763.896 1174 775.395 1189.74 783.146 C 1155.01 840.769 1109.55 892.244 1066.58 943.783 C 1037.69 978.436 1009.97 1013.94 981.783 1049.15 C 964.652 1046.72 946.859 1046.78 929.593 1045.13 C 909.23 1045.12 888.692 1042.88 868.286 1042.28 C 876.16 1029.34 887.56 1016.94 896.839 1004.88 C 911.865 985.341 926.981 965.751 943.052 947.056 C 952.946 935.545 963.595 924.624 973.639 913.224 C 993.91 890.217 1013.88 867.07 1035.49 845.28 C 1068.9 811.608 1105.77 778.91 1133.8 740.441 z"/>
<path transform="translate(0,0)" fill="rgb(254,254,254)" d="M 1589.79 1056.86 C 1592.15 1059.49 1592.88 1066.25 1593.52 1069.78 C 1598.16 1095.32 1602.06 1122.72 1602.81 1148.74 C 1603.2 1162.42 1601.68 1176.08 1600.49 1189.69 C 1596.76 1232.55 1589.95 1275.47 1564.65 1311.55 C 1534.3 1354.83 1482.6 1382 1431.33 1390.8 A 239.529 239.529 0 0 1 1400.17 1393.8 C 1385.52 1394.34 1289.55 1395.24 1282.26 1390.12 C 1279.37 1372.08 1272.51 1355.16 1269.26 1337.21 C 1261.25 1292.97 1269.85 1238.87 1282.79 1196.13 C 1292.75 1197.54 1302.39 1198.65 1312.47 1198.38 C 1358.28 1197.17 1441.74 1177.52 1484.57 1160.31 A 195.712 195.712 0 0 0 1589.79 1056.86 z"/>
<path transform="translate(0,0)" fill="rgb(35,31,32)" d="M 1308.04 1242.94 C 1311.51 1242.89 1315.46 1242.69 1318.82 1243.55 C 1324.65 1245.06 1329.8 1250.01 1332.82 1255.04 C 1342.73 1271.51 1341.65 1301.72 1336.66 1319.7 C 1333.5 1331.1 1328.2 1339.8 1317.77 1345.63 C 1315.88 1345.78 1313.91 1345.91 1312.02 1345.59 C 1305.77 1344.53 1299.77 1340.58 1295.98 1335.57 C 1285.43 1321.66 1284.54 1298.52 1287.21 1281.93 C 1289.66 1266.75 1295.17 1252.12 1308.04 1242.94 z"/>
<path transform="translate(0,0)" fill="rgb(254,254,254)" d="M 1284.6 1721.83 C 1279.77 1688.57 1271.14 1656.54 1264 1623.76 C 1258.8 1599.86 1255.08 1575.81 1251.39 1551.64 C 1242.94 1496.24 1235.5 1440.79 1228 1385.25 A 4624.21 4624.21 0 0 1 1211.54 1258.3 C 1207.88 1224.58 1207.78 1190.48 1203.85 1156.74 C 1202.28 1143.19 1189.78 1088.02 1191.68 1080.37 C 1192.99 1075.09 1198.61 1070.41 1202.63 1067.01 C 1217.23 1054.67 1234.24 1044.88 1250.23 1034.48 C 1263.6 1025.8 1276.67 1016.37 1290.42 1008.32 C 1325.79 987.627 1362.38 968.844 1398.11 948.744 C 1402.78 985.304 1400.47 1022.25 1408.88 1058.48 C 1385.82 1077.5 1366.75 1100.82 1342.5 1119.71 C 1323.98 1134.14 1305.21 1148.59 1285.97 1162.05 C 1280.51 1165.87 1265.7 1173.42 1262.31 1177.94 C 1260.58 1180.24 1260.7 1182.12 1261.02 1184.86 C 1261.98 1193.23 1254.21 1206.33 1251.85 1214.84 C 1241.39 1252.53 1237.95 1313.63 1246.69 1352.07 C 1250.6 1369.25 1257.62 1385.82 1266.46 1401.03 C 1274.3 1414.51 1282.3 1416.94 1297.23 1417.21 C 1299.96 1417.26 1303.1 1416.95 1305.72 1417.79 C 1307.27 1418.29 1307.33 1419.81 1307.92 1421.2 C 1303.84 1434.14 1294.39 1496.3 1298.9 1507.27 L 1300.63 1508.78 C 1302.98 1508.41 1303.07 1508.45 1304.69 1506.73 C 1307.48 1496.79 1307.21 1485.28 1308.26 1475.01 C 1310.07 1457.22 1312.4 1439.46 1314.47 1421.7 L 1315.4 1419.53 C 1315.78 1419.41 1316.16 1419.26 1316.55 1419.17 C 1327.23 1416.89 1343.91 1422.92 1355.09 1423.95 C 1362.37 1424.62 1380.19 1423.17 1385.55 1425.88 C 1385.8 1426 1386.01 1426.19 1386.25 1426.35 C 1388.41 1439.79 1373.55 1475.24 1369.06 1490.09 C 1366.7 1497.93 1359.94 1515.1 1363.77 1522.2 C 1364.95 1522.24 1365.86 1522.57 1366.86 1521.79 C 1370.49 1518.95 1394.25 1434.84 1395.95 1425.3 L 1414 1423.28 C 1414.14 1437.07 1414.14 1450.87 1413.08 1464.63 C 1410.24 1466.72 1407.75 1468.25 1406.57 1471.7 C 1404.29 1478.39 1398.7 1489.67 1399.4 1496.55 C 1399.59 1498.44 1399.4 1497.71 1401.11 1499.13 L 1403.29 1498.58 C 1409.28 1492.87 1411.81 1484.75 1414.58 1477.17 C 1416.08 1512.83 1413.67 1548.59 1415.06 1584.26 C 1401.72 1593.27 1394.19 1606.55 1383.32 1617.9 C 1370.87 1630.89 1357.43 1642.89 1345.07 1656.02 C 1324.65 1677.7 1305.38 1700.51 1284.6 1721.83 z"/>
<path transform="translate(0,0)" fill="rgb(35,31,32)" d="M 1307.48 1612.87 C 1308.82 1612.76 1310.76 1612.43 1312.04 1612.74 C 1314.68 1613.38 1315.22 1614.31 1316.61 1616.38 C 1316.73 1619.84 1315.93 1621.28 1314.06 1624.14 C 1312.72 1624.16 1310.71 1624.37 1309.45 1623.97 C 1307.05 1623.21 1306.6 1622.22 1305.48 1620.2 C 1305.33 1617.12 1306.12 1615.51 1307.48 1612.87 z"/>
<path transform="translate(0,0)" fill="rgb(35,31,32)" d="M 1314.01 1038.44 C 1314.85 1038.8 1315.7 1039.14 1316.51 1039.56 C 1319.41 1041.04 1320.15 1042.5 1321.13 1045.39 C 1320.26 1048.53 1319.02 1049.47 1316.56 1051.34 L 1311.47 1050.74 C 1309.28 1048.92 1309.25 1048.96 1308.72 1046.17 C 1309.81 1042.69 1311.45 1041 1314.01 1038.44 z"/>
<path transform="translate(0,0)" fill="rgb(35,31,32)" d="M 1299.81 1561.86 C 1301.76 1562.1 1303.64 1562.56 1305.56 1563 C 1307.76 1564.96 1307.92 1564.96 1308.45 1567.83 C 1307.22 1570.92 1306.18 1571.75 1303.61 1573.64 C 1302.24 1573.53 1300.23 1573.55 1298.98 1573.03 C 1296.41 1571.96 1296.16 1571.01 1295.25 1568.63 C 1296.04 1565.24 1297.32 1564.06 1299.81 1561.86 z"/>
<path transform="translate(0,0)" fill="rgb(35,31,32)" d="M 1279.25 1115.02 C 1281.2 1114.89 1282.99 1114.95 1284.94 1115.13 C 1286.06 1116.03 1287.24 1116.62 1287.77 1118.01 C 1289.24 1121.83 1287.49 1126.13 1285.82 1129.58 C 1285.32 1129.51 1284.81 1129.47 1284.31 1129.37 C 1281.91 1128.89 1280.17 1127.83 1279.05 1125.56 C 1277.44 1122.26 1277.98 1118.3 1279.25 1115.02 z"/>
<path transform="translate(0,0)" fill="rgb(35,31,32)" d="M 1341.68 1566.45 C 1343.06 1566.8 1344.36 1567.2 1345.62 1567.87 C 1348.21 1569.26 1351.16 1572.34 1351.63 1575.3 C 1352.17 1578.67 1351.18 1579.43 1349.22 1581.9 C 1347.34 1581.74 1344.48 1581.26 1342.87 1580.19 C 1340.69 1578.74 1339.43 1577.23 1338.97 1574.59 C 1338.47 1571.68 1340.31 1568.87 1341.68 1566.45 z"/>
<path transform="translate(0,0)" fill="rgb(35,31,32)" d="M 1270.27 1064.86 C 1270.56 1064.85 1270.84 1064.84 1271.12 1064.83 C 1274.12 1064.81 1276.27 1064.7 1278.31 1067.15 C 1281.74 1071.26 1280.84 1077.72 1280.07 1082.56 C 1277.27 1082.45 1274.92 1082.25 1272.96 1080.01 C 1269.58 1076.13 1269.71 1069.65 1270.27 1064.86 z"/>
<path transform="translate(0,0)" fill="rgb(35,31,32)" d="M 1318.34 1080.89 C 1319.52 1080.8 1321.36 1080.51 1322.57 1080.7 C 1324.9 1081.06 1326.24 1082.03 1327.51 1084.04 C 1330.35 1088.52 1328.83 1096.54 1328.04 1101.47 C 1327.34 1101.5 1326.54 1101.57 1325.85 1101.47 C 1323.31 1101.11 1322.28 1100.38 1320.67 1098.38 C 1317.17 1094.04 1317.82 1086.03 1318.34 1080.89 z"/>
<path transform="translate(0,0)" fill="rgb(35,31,32)" d="M 1240.96 1121.55 L 1244.54 1122.07 C 1247.52 1124.34 1249.12 1128.37 1249.55 1132.05 C 1250.06 1136.37 1250.09 1140.49 1247.55 1143.98 C 1245.75 1143.9 1244.29 1143.48 1242.58 1142.96 C 1240.39 1140.81 1238.86 1138.87 1238.17 1135.8 C 1236.97 1130.47 1237.89 1125.97 1240.96 1121.55 z"/>
<path transform="translate(0,0)" fill="rgb(35,31,32)" d="M 1361.21 1025.08 C 1361.96 1025.21 1362.93 1025.36 1363.63 1025.59 C 1366.08 1026.43 1366.82 1027.08 1367.79 1029.53 C 1370.17 1035.48 1369.32 1047.45 1366.74 1053.13 C 1365.41 1052.97 1364.17 1052.55 1362.89 1052.19 C 1361.77 1050.93 1360.8 1049.82 1360.16 1048.23 C 1357.31 1041.13 1358.57 1032 1361.21 1025.08 z"/>
<path transform="translate(0,0)" fill="rgb(35,31,32)" d="M 1284.8 1421.32 C 1288.08 1422.22 1289.18 1422.1 1291.36 1424.82 C 1291.74 1438.08 1290.4 1480.38 1286.97 1491.52 C 1283.99 1490.65 1281.2 1490.25 1279.33 1487.55 C 1276.26 1474.18 1281.26 1435.06 1284.8 1421.32 z"/>
<path transform="translate(0,0)" fill="rgb(35,31,32)" d="M 1368.24 1432.18 L 1370.09 1432.99 C 1372.36 1436.08 1371.91 1441.34 1371.58 1445.05 C 1370.5 1457.51 1355.62 1508.03 1349.67 1518.44 C 1348.55 1520.39 1346.57 1521.93 1344.85 1523.33 C 1343.45 1522.95 1342.69 1522.33 1341.53 1521.5 C 1340.79 1519.34 1341.11 1518.12 1341.72 1516 C 1346.16 1500.53 1352.7 1485.65 1357.5 1470.29 C 1361.42 1457.76 1363.51 1444.37 1368.24 1432.18 z"/>
<path transform="translate(0,0)" fill="rgb(35,31,32)" d="M 1326.84 1430.19 C 1328.48 1430.91 1331.16 1432.1 1331.83 1433.84 C 1334.21 1439.96 1319.59 1512.07 1316.04 1521.85 C 1313.9 1520.59 1312.15 1519.34 1310.31 1517.67 C 1309.68 1516.2 1309.43 1515.08 1309.57 1513.47 C 1310.92 1498.37 1315.76 1482.32 1318.88 1467.43 C 1321.43 1455.21 1322.82 1441.97 1326.84 1430.19 z"/>
<path transform="translate(0,0)" fill="rgb(35,31,32)" d="M 1347.3 1433.47 C 1349.81 1435.21 1351.45 1436.32 1352.84 1439.17 C 1353.02 1446.07 1334.08 1517.6 1330.31 1523.48 C 1327.14 1523.11 1326 1522.71 1324.01 1520.31 C 1323.87 1514.67 1344.02 1439.45 1347.3 1433.47 z"/>
<path transform="translate(0,0)" fill="rgb(35,31,32)" d="M 1399.95 1444.89 C 1401.91 1445.16 1403.54 1445.61 1405.39 1446.28 C 1408.66 1455.54 1378.55 1541.67 1372.26 1555.48 C 1369.18 1554.23 1367.82 1554.14 1365.98 1551.29 C 1365.76 1539.88 1380.76 1507.43 1385.08 1495 C 1390.85 1478.43 1396.17 1462.03 1399.95 1444.89 z"/>
<path transform="translate(0,0)" fill="rgb(254,254,254)" d="M 765.556 642.423 C 769.157 641.966 772.87 642.675 776.457 643.12 C 778.098 651.812 778.943 660.258 778.951 669.103 C 749.04 690.056 722.693 714.861 694.51 737.881 C 676.701 752.427 657.054 764.8 639.878 780.15 C 609.114 807.645 581.186 838.401 552.424 867.939 C 511.282 910.191 469.059 950.214 434.451 998.279 C 429.748 1004.81 423.194 1012.34 420.745 1020.09 C 421.944 1021.38 422.428 1021.55 424.234 1022.01 C 425.838 1022.42 427.296 1022.33 428.818 1021.55 C 432.237 1019.79 452.262 991.566 456.801 985.986 C 490.461 944.605 528.606 907.794 566.129 870.025 C 594.349 841.621 621.962 811.939 652.372 785.846 C 671.92 769.073 694.068 755.682 713.775 739.153 C 733.609 722.517 752.496 704.993 772.77 688.833 C 779.549 683.429 786.34 677.418 793.764 672.949 C 794.069 672.765 794.378 672.59 794.686 672.411 C 827.169 677.193 1108 722.835 1116.02 729.392 L 1114.43 732.584 C 1068.08 793.306 1013.65 847.416 963.751 905.147 C 925.302 949.631 891.203 997.704 851.583 1041.18 C 842.947 1041.48 834.251 1040.27 825.635 1039.68 A 3034.19 3034.19 0 0 0 778.949 1036.82 C 730.221 1034.31 681.426 1032.73 632.671 1030.77 A 5138.8 5138.8 0 0 0 448.329 1026.85 C 418.701 1026.65 389.208 1027.43 359.545 1026.63 C 366.514 1008.34 375.86 990.751 385.128 973.551 C 411.009 925.524 440.849 882.481 476.02 840.865 A 919.466 919.466 0 0 1 532.948 778.982 C 550.991 761.435 570.817 745.205 590.561 729.616 C 640.79 689.957 699.858 647.967 765.556 642.423 z"/>
<path transform="translate(0,0)" fill="rgb(35,31,32)" d="M 834.055 970.75 C 836.137 970.993 835.943 971.099 837.449 972.311 C 837.133 976.908 824.282 986.623 820.517 990.338 L 818.422 990.552 C 817.607 989.498 816.807 989.05 816.957 987.623 C 817.652 980.996 829.033 974.264 834.055 970.75 z"/>
<path transform="translate(0,0)" fill="rgb(35,31,32)" d="M 827.748 746.348 L 830.451 747.193 C 831.564 748.421 832.335 748.656 832.28 750.443 C 832.078 757.009 824.655 764.989 820.333 769.556 C 817.502 768.7 817.294 768.701 815.523 766.363 C 815.039 759.866 823.742 751.349 827.748 746.348 z"/>
<path transform="translate(0,0)" fill="rgb(35,31,32)" d="M 657.572 911.508 L 661.383 913.233 L 662.021 915.087 C 658.505 924.089 614.739 972.494 606.059 980.506 C 604.877 980.144 604.017 979.566 602.968 978.927 C 602.669 978.088 602.453 977.681 602.492 976.699 C 603.082 962.1 644.907 921.63 657.572 911.508 z"/>
<path transform="translate(0,0)" fill="rgb(35,31,32)" d="M 784.714 778.565 C 785.268 778.801 785.835 779.01 786.377 779.274 C 788.712 780.41 789.864 781.163 790.692 783.616 C 785.792 791.014 778.78 797.412 772.605 803.792 C 755.236 821.733 727.787 846.416 715.621 867.555 C 713.979 867.298 712.639 866.844 711.076 866.302 C 709.644 864.103 709.048 862.964 709.565 860.277 C 712.47 845.155 770.329 789.156 784.714 778.565 z"/>
<path transform="translate(0,0)" fill="rgb(35,31,32)" d="M 729.482 791.894 L 730.304 792.12 L 730.896 793.584 C 723.615 807.054 697.715 830.898 686.322 842.641 C 672.445 856.943 659.235 871.889 645.334 886.172 C 627.827 904.159 609.75 921.449 593.329 940.469 C 587.138 947.64 544.637 1002.51 542.673 1003.5 C 540.373 1001.42 539.328 1000.94 538.549 997.875 C 540.19 990.956 544.193 984.968 548.278 979.248 C 573.843 943.448 606.294 911.85 636.401 879.912 C 657.759 857.255 678.21 833.514 701.28 812.54 C 709.986 804.625 719.537 798.125 729.482 791.894 z"/>
<path transform="translate(0,0)" fill="rgb(35,31,32)" d="M 781.534 877.252 C 791.142 876.525 800.844 878.134 808.689 884.097 C 815.82 889.517 819.853 897.647 820.7 906.485 C 822.024 920.3 815.816 933.915 807.204 944.385 C 797.19 956.561 787.168 965.436 770.993 967.057 C 760.36 967.076 750.58 965.771 741.595 959.45 C 734.276 954.301 729.666 946.748 728.243 937.934 C 726.301 925.904 730.001 914.001 737.105 904.28 C 748.003 889.365 763.419 880.224 781.534 877.252 z"/>
<path transform="translate(0,0)" fill="rgb(254,254,254)" d="M 780.948 888.153 C 784.468 887.918 788.045 888.035 791.463 888.995 C 800.068 891.411 804.828 897.564 809.131 904.898 C 808.234 917.053 806.596 926.731 799.453 936.933 C 791.792 947.876 782.202 953.785 769.157 956.046 C 762.956 955.978 757.303 955.458 751.624 952.761 C 746.009 950.094 741.582 946.023 739.616 940.007 C 736.826 931.467 739.442 920.918 743.69 913.301 C 751.57 899.173 765.953 892.11 780.948 888.153 z"/>
<path transform="translate(0,0)" fill="rgb(35,31,32)" d="M 766.92 933.955 L 768.111 933.02 C 767.718 930.095 767.463 927.205 767.17 924.28 C 766.701 919.605 758.12 911.802 760.186 908.862 C 762.276 905.888 766.761 903.755 769.882 901.891 C 770.74 899.544 771.076 897.594 771.358 895.137 C 773.465 894.002 773.788 893.768 776.146 893.925 C 778.21 895.468 779.17 897.147 779.526 899.701 C 779.846 901.997 779.597 904.794 778.162 906.671 C 776.837 908.405 775.038 909.985 773.48 911.518 L 773.062 913.584 C 774.546 915.18 774.724 915.665 777.066 915.618 C 782.908 915.503 794.229 908.404 798.781 911.904 C 798.077 914.883 796.503 917.634 793.911 919.341 C 791.749 920.764 787.167 920.372 784.556 920.382 C 784.232 922.137 784.271 923.075 784.469 924.808 C 782.068 924.555 782.148 924.153 780.431 922.617 C 780.187 928.493 784.703 933.933 780.081 938.763 C 778.389 939.178 771.868 939.7 771.284 940.147 C 769.348 941.393 770.091 941.107 767.823 941.77 C 764.559 942.725 761.836 942.342 758.916 940.567 L 758.572 938.718 C 760.593 935.659 763.629 935.074 766.92 933.955 z"/>
<path transform="translate(0,0)" fill="rgb(35,31,32)" d="M 958.095 747.372 C 959.061 747.274 959.392 747.218 960.301 747.198 C 969.565 746.994 979.033 749.994 985.75 756.518 C 993.678 764.217 996.733 775.431 996.804 786.213 C 996.89 799.305 993.114 810.866 983.67 820.191 C 968.572 835.1 947.442 839.337 926.999 839.001 C 917.153 838.041 906.029 834.568 898.185 828.442 C 892.57 824.057 888.963 818.064 888.124 810.959 C 886.667 798.614 892.271 785.389 899.859 775.85 C 914.124 757.916 935.96 749.914 958.095 747.372 z"/>
<path transform="translate(0,0)" fill="rgb(254,254,254)" d="M 960.392 779.217 C 962.04 779.085 963.123 779.354 964.72 779.715 L 965.046 780.968 C 961.06 786.194 955.281 788.37 949.259 790.379 C 947.946 790.721 947.245 790.585 945.922 790.406 L 945.417 787.95 L 945.266 789.212 C 945.149 788.911 944.975 788.626 944.917 788.308 C 944.702 787.138 944.697 785.897 945.413 784.917 C 948.58 780.589 955.498 780.108 960.392 779.217 z"/>
<path transform="translate(0,0)" fill="rgb(254,254,254)" d="M 953.195 759.226 A 143.293 143.293 0 0 1 959.857 759.049 C 966.828 759.068 973.97 761.732 978.786 766.914 C 983.679 772.179 985.25 778.997 984.968 786.028 C 984.541 796.671 980.695 807.296 972.535 814.413 C 960.099 825.258 940.31 827.691 924.428 826.522 C 914.433 825.786 907.81 822.231 901.292 814.774 C 900.576 808.635 900.12 802.703 901.263 796.556 C 903.566 784.172 911.327 776.595 921.317 769.827 C 925.388 767.706 929.693 766.164 933.971 764.517 A 226.561 226.561 0 0 0 929.691 798.728 C 927.298 801.174 925 802.903 924.435 806.325 C 924.682 806.568 924.933 806.808 925.177 807.054 C 925.502 807.382 925.812 807.724 926.142 808.048 C 927.967 809.837 928.254 811.05 928.934 813.481 C 929.629 815.964 930.303 818.118 931.409 820.442 L 933.172 820.999 C 937.16 818.512 938.276 814.26 941.83 811.459 C 944.715 811.231 948.005 811.453 950.364 809.597 C 951.338 807.114 950.397 804.948 949.752 802.481 C 948.673 798.358 970.604 794.126 974.651 782.867 C 975.777 779.735 975.7 776.831 974.161 773.822 C 967.73 761.251 954.139 774.106 945.359 770.855 C 943.498 767.376 942.028 766.432 938.546 764.858 L 936.732 764.055 C 941.042 761.108 948.047 760.302 953.195 759.226 z"/>
<path transform="translate(0,0)" fill="rgb(254,254,254)" d="M 211.031 957.503 C 223.908 974.342 234.635 993.116 246.949 1010.42 A 708.032 708.032 0 0 0 321.298 1098.45 C 326.582 1103.82 358.65 1132.36 359.105 1136.32 L 356.628 1136.91 C 353.203 1135.55 351.498 1134.76 347.959 1135.91 L 347 1137.92 C 347.763 1140.1 348.246 1140.69 350.096 1142.2 C 362.69 1152.46 376.382 1154.73 391.587 1158.59 C 419.028 1165.57 440.17 1172.39 468.609 1164.88 C 481.311 1161.53 493.733 1157.83 506.894 1156.69 C 543.205 1153.55 586.843 1171.6 622.887 1178.79 C 650.821 1184.37 679.632 1187.05 707.042 1195.03 C 721.325 1199.18 735.865 1203.25 747.481 1212.93 C 744.795 1220.13 741.546 1225.1 735.713 1230.16 C 704.21 1257.51 644.001 1256.11 604.527 1253.92 C 600.492 1260.14 596.431 1266.41 591.795 1272.21 C 580.854 1285.89 557.086 1306.61 558.919 1325.29 A 21.0927 21.0927 0 0 0 564.43 1337.66 C 582.652 1357.66 633.12 1381.53 657.535 1394.98 C 671.679 1402.78 685.302 1411.46 699.353 1419.41 C 711.767 1426.44 725.429 1432.91 736.368 1442.18 C 741.21 1446.28 749.397 1453.55 749.149 1460.39 C 749.057 1462.92 747.48 1465.19 745.511 1466.68 C 739.387 1471.28 729.211 1471.03 721.887 1471.16 C 684.103 1471.87 657.476 1459 623.95 1443.66 C 615.9 1439.98 606.607 1434.61 597.753 1433.52 C 592.08 1432.83 587.263 1437.13 582.979 1440.23 C 574.324 1458.68 575.382 1479.25 568.386 1498.1 C 566.566 1491.11 567.565 1477.44 562.559 1472.72 C 560.446 1473.92 561.115 1473.16 559.989 1475.3 C 556.64 1481.65 559.14 1494.35 561.211 1501.02 C 578.649 1544.29 620.029 1593.28 653.153 1626.43 C 664.31 1637.6 677.481 1647.25 687.933 1659.03 C 691.27 1662.79 698.98 1671.51 698.659 1676.68 C 698.406 1680.75 694.246 1685.57 691.221 1687.98 C 683.969 1693.77 674.454 1693.81 665.697 1692.49 C 617.233 1685.13 535.294 1616.78 498.968 1582.23 C 479.035 1563.27 460.795 1542.46 441.136 1523.18 C 391.326 1474.32 336.897 1425.23 299.257 1365.92 C 294.233 1358 290.176 1349.2 288.891 1339.84 C 287.439 1329.27 293.502 1305.55 286.892 1298.13 C 285.148 1296.17 282.614 1295.21 280.014 1295.18 C 277.104 1295.15 275.448 1295.77 273.326 1297.77 C 265.834 1304.85 266.93 1325 267.078 1334.48 C 236.523 1324.99 207.435 1312.94 176.116 1305.77 C 164.548 1303.12 153.034 1301.61 141.262 1300.25 C 134.623 1299.48 127.195 1299.29 120.799 1297.45 C 118.068 1296.66 117.247 1296.33 116.091 1293.67 C 112.419 1285.21 113.442 1270.29 113.211 1260.98 C 112.653 1238.46 115.118 1215.79 118.404 1193.54 C 127.448 1132.28 145.467 1079.43 172.334 1023.71 C 183.533 1000.49 200.511 981.25 211.031 957.503 z"/>
<path transform="translate(0,0)" fill="rgb(254,254,254)" d="M 307.26 1047.24 C 329.674 1048.11 351.958 1050.95 374.306 1051.74 C 415.87 1053.21 457.496 1052.15 499.062 1053.27 A 8498.47 8498.47 0 0 1 1005.94 1078.57 A 4597.77 4597.77 0 0 0 1106.47 1085.96 C 1126.68 1087.28 1148.28 1087.26 1168.12 1091.28 C 1181.1 1135.9 1182.78 1171.76 1186.36 1217.32 A 4817.47 4817.47 0 0 0 1194.73 1309 C 1203.02 1389.51 1215.4 1470.26 1227.47 1550.29 A 1472.35 1472.35 0 0 0 1241.9 1629.74 C 1247.2 1654.88 1265.22 1715.2 1261.75 1738.37 C 1261.44 1740.45 1259.41 1742.17 1257.81 1743.39 C 1243.16 1754.52 1215.98 1758.47 1198.08 1758.94 C 1151.59 1760.19 1096.98 1752.05 1050.31 1746.5 C 1000.3 1740.55 950.262 1735.61 900.3 1729.13 C 879.917 1726.48 859.735 1722.63 839.376 1719.84 C 811.696 1716.04 783.598 1712.97 755.763 1710.59 C 738.788 1709.13 722.029 1708.62 705.108 1706.32 C 708.648 1703.28 712.297 1700.17 715.173 1696.48 C 720.691 1689.38 723.749 1680.67 722.422 1671.67 C 720.641 1659.58 710.184 1647.4 700.792 1640.05 C 700.794 1639.69 700.792 1639.33 700.8 1638.97 C 700.812 1638.36 700.844 1637.76 700.851 1637.16 C 700.961 1628.23 704.609 1619.61 706.848 1610.98 L 704.956 1608.18 C 703.509 1607.76 703.099 1607.25 701.661 1608.06 C 695.718 1611.44 691.982 1623.08 689.861 1629.32 L 680.928 1620.68 C 684.172 1607.31 690.347 1591.66 691.719 1578.17 C 691.959 1575.81 692.298 1575 690.8 1573.13 L 687.555 1573.16 C 678.638 1579.07 675.185 1604.53 672.393 1615.09 L 665.385 1608.04 C 669.217 1594.79 682.084 1547.12 680.794 1535.44 C 680.446 1532.29 679.149 1531.57 676.793 1529.63 C 675.076 1531.3 673.536 1532.75 672.631 1535.01 C 670 1541.57 668.84 1549.59 667.194 1556.51 A 3350.74 3350.74 0 0 0 657.138 1599.74 C 654.696 1597.29 652.462 1594.63 650.173 1592.04 L 659.777 1543.06 C 661.521 1534.28 664.763 1525.58 665.548 1516.65 C 665.828 1513.47 665.751 1511.16 664.121 1508.33 C 662.151 1507.24 662.673 1507.07 660.256 1507.64 C 652.355 1520.37 645.118 1567.53 641.679 1584.39 C 638.443 1580.14 635.038 1576.17 631.465 1572.2 C 632.8 1544.58 639.88 1518.56 643.453 1491.39 C 642.514 1488.91 642.683 1488.89 640.336 1487.7 L 638.479 1488.49 C 629.097 1499.8 624.522 1545.08 621.307 1561.38 L 613.091 1552.18 C 614.994 1541.49 616.051 1530.71 617.908 1520.04 C 619.573 1510.48 622.61 1500.94 623.553 1491.28 C 623.853 1488.2 624.202 1484.96 622.629 1482.18 C 621.173 1481.93 621.401 1481.68 620.253 1482.42 C 611.675 1487.95 607.773 1523.65 606.054 1534.11 C 605.513 1537.39 605.064 1540.49 602.259 1542.49 C 600.297 1541.35 599.948 1539.94 599.108 1537.92 C 600.838 1530.06 601.105 1522.06 602.338 1514.14 C 604.382 1501.03 610.431 1486.19 609.375 1472.96 C 607.992 1471.26 608.309 1471.32 606.008 1470.52 C 597.987 1478.82 595.129 1510.6 590.533 1522.77 L 589.234 1523.34 C 582.256 1514.55 597.482 1472.25 593.394 1460.13 C 593.033 1460.35 592.709 1460.64 592.311 1460.78 C 591.174 1461.18 589.946 1461.25 588.768 1461.5 C 580.617 1475.89 579.453 1497.19 578.772 1513.43 C 576.397 1509.76 571.804 1503.97 571.467 1499.66 C 572.733 1498.92 575.465 1497.67 576.325 1496.58 C 579.317 1492.79 580.82 1468.04 582.568 1461.36 C 584.027 1455.79 586.623 1450.87 589.312 1445.83 C 589.497 1445.91 589.68 1445.99 589.865 1446.07 C 602.326 1451.26 613.88 1458.88 625.595 1465.58 C 650.762 1479.98 678.044 1490.22 706.943 1493.52 C 725.713 1495.67 745.832 1495.05 761.179 1482.4 C 767.248 1477.39 771.821 1470.71 772.238 1462.66 C 772.88 1450.26 766.023 1438.64 757.845 1429.9 C 770.384 1429.72 781.563 1428.96 792.946 1423.16 C 803.375 1417.85 812.247 1410.12 815.645 1398.55 C 820.04 1383.59 815.694 1368.34 808.392 1355.14 C 802.488 1344.46 794.537 1334.66 786.205 1325.8 C 758.647 1296.48 729.667 1284.96 691.856 1274.08 C 711.687 1269.19 732.167 1263.39 748.913 1251.19 C 763.178 1240.81 770.04 1227.29 772.725 1210.05 C 771.831 1207.51 770.922 1204.93 769.734 1202.52 C 764.372 1191.6 751.943 1185.08 741.066 1180.8 C 698.958 1164.22 651.32 1161.07 607.218 1151.96 C 577.624 1145.85 549.547 1133.93 518.962 1132.81 C 480.562 1131.41 451.537 1152.52 414.448 1140.41 C 405.063 1137.35 380.614 1126.16 376.341 1117.71 L 378.282 1116.57 C 383.813 1106.83 381.833 1085 380.416 1074.23 C 379.867 1070.05 379.353 1068.85 375.977 1066.31 C 373.199 1066.09 373.039 1065.98 370.715 1067.47 C 370.175 1068.56 369.859 1068.99 369.772 1070.37 C 369.602 1073.06 370.971 1076.68 371.051 1079.58 C 371.372 1091.36 371.028 1103 371.814 1114.78 C 368.336 1111.81 364.912 1109.03 362.08 1105.41 C 362.178 1104.92 362.224 1104.42 362.372 1103.94 C 364.141 1098.23 363.625 1093.78 362.727 1087.94 C 361.829 1082.1 360.687 1069.55 355.718 1065.93 C 354.044 1066.36 353.825 1066.12 352.678 1067.6 C 348.261 1073.31 352.227 1090.14 353.348 1096.76 C 339.125 1084.92 317.436 1062.57 307.26 1047.24 z"/>
<path transform="translate(0,0)" fill="rgb(35,31,32)" d="M 1059.41 1281.29 C 1061.18 1281.42 1064.03 1281.46 1065.25 1282.87 C 1068.19 1286.29 1074.54 1306.31 1074.35 1310.94 C 1072.55 1311.39 1071.12 1311.78 1069.25 1311.64 C 1067.34 1311.49 1065.57 1310.12 1064.46 1308.6 C 1059.7 1302.08 1057.98 1289.13 1059.41 1281.29 z"/>
<path transform="translate(0,0)" fill="rgb(35,31,32)" d="M 1066.71 1561.31 C 1068.56 1561.55 1069.53 1561.86 1071.09 1562.89 C 1073.23 1568.11 1080.65 1584.81 1081.05 1589.51 C 1081.16 1590.79 1080.59 1592.04 1080.36 1593.3 C 1077.93 1593.29 1075.96 1593.16 1073.57 1592.6 C 1070.25 1590.09 1067.92 1586.35 1066.53 1582.44 C 1064.19 1575.87 1063.88 1567.72 1066.71 1561.31 z"/>
<path transform="translate(0,0)" fill="rgb(35,31,32)" d="M 1097.88 1279.29 L 1100.68 1280.39 C 1103.76 1283.25 1109.43 1301.52 1110.73 1306.54 C 1111.55 1309.7 1110.48 1310.62 1109 1313.26 C 1107.4 1313.06 1105.94 1312.9 1104.5 1312.06 C 1099.46 1309.11 1096.53 1300.89 1095.59 1295.47 C 1094.47 1288.97 1094.04 1284.77 1097.88 1279.29 z"/>
<path transform="translate(0,0)" fill="rgb(35,31,32)" d="M 407.72 1081.51 C 410.47 1081.86 411.329 1081.81 413.494 1083.46 C 414.652 1086.19 414.8 1088.54 414.779 1091.51 C 414.739 1097.16 413.398 1110.13 409.419 1114.02 C 408.183 1113.51 406.946 1112.99 405.753 1112.38 C 403.41 1111.18 402.56 1109.96 401.946 1107.41 C 400.179 1100.06 403.946 1087.76 407.72 1081.51 z"/>
<path transform="translate(0,0)" fill="rgb(35,31,32)" d="M 1107.87 1558.33 C 1109.39 1558.56 1110.77 1558.95 1112.25 1559.37 C 1115.63 1563.9 1117.34 1570.89 1118.6 1576.34 C 1120.22 1583.33 1122.41 1589.15 1118.45 1595.57 C 1117.72 1595.42 1116.75 1595.24 1116.08 1594.94 C 1111.51 1592.91 1109.76 1585.67 1108.53 1581.18 C 1106.57 1574.05 1104.07 1565.05 1107.87 1558.33 z"/>
<path transform="translate(0,0)" fill="rgb(35,31,32)" d="M 388.78 1067.62 C 390.411 1067.82 393.218 1067.65 394.335 1068.91 C 400.39 1075.7 397.534 1103.63 396.938 1113.44 C 396.021 1113.64 394.908 1113.91 393.99 1114 C 391.457 1114.24 390.798 1114.44 388.791 1112.9 C 386.846 1099.62 387.039 1080.91 388.78 1067.62 z"/>
<path transform="translate(0,0)" fill="rgb(35,31,32)" d="M 948.766 1421.44 C 981.374 1419.62 1014.37 1421.46 1046.97 1422.68 C 1055.47 1423 1064.86 1421.84 1073.15 1422.83 C 1075.47 1423.11 1079.17 1424.19 1080.89 1425.85 C 1082.99 1427.88 1083.07 1428.4 1082.99 1431.1 C 1081.47 1432.72 1080.1 1433.6 1077.89 1434.08 C 1071.34 1435.48 1063.8 1435.29 1057.07 1435.76 A 777.634 777.634 0 0 0 1019.25 1439.06 C 986.288 1441.5 953.411 1437.34 920.517 1436.28 C 910.901 1435.97 901.068 1437.95 891.503 1436.87 C 889.007 1436.59 887.547 1435.8 885.637 1434.23 C 884.535 1431.54 884.478 1431.69 885.49 1428.97 C 894.585 1420.95 935 1422.04 948.766 1421.44 z"/>
<path transform="translate(0,0)" fill="rgb(35,31,32)" d="M 844.921 1282.27 A 505.768 505.768 0 0 1 855.655 1281.98 C 896.583 1281.28 936.635 1284.74 977.366 1287.69 C 992.185 1288.76 1008.42 1288.24 1022.93 1291.21 C 1026.18 1291.87 1028.46 1292.67 1030.89 1295.01 C 1031.41 1297.19 1031.64 1297.93 1030.35 1299.98 C 1028.78 1302.48 1025.39 1302.96 1022.75 1303.62 C 968.878 1311.79 912.822 1302.74 858.975 1297.28 C 853.388 1296.72 842.559 1296.67 838.832 1292.1 C 837.827 1289.63 837.647 1288.61 838.232 1286 C 839.877 1283.54 842.251 1283.12 844.921 1282.27 z"/>
<path transform="translate(0,0)" fill="rgb(35,31,32)" d="M 872.668 1185.44 C 912.557 1183.16 953.112 1184.8 993.071 1184.99 C 1024.11 1185.13 1056.44 1183.62 1087.34 1185.43 C 1091.13 1185.66 1093.25 1186.16 1095.91 1189.09 C 1096.62 1191.54 1096.73 1191.4 1095.56 1193.65 C 1085.4 1200.68 1062.03 1199.33 1049.76 1200.11 C 1029.18 1202.76 1007.94 1205.34 987.182 1205.74 C 947.511 1206.49 906.938 1202.72 867.251 1200.86 C 855.805 1200.33 844.123 1202.71 832.779 1201.36 C 830.379 1199.68 830.46 1199.71 829.725 1196.86 C 830.162 1194.97 830.496 1193.37 831.858 1191.87 C 837.488 1185.68 864.166 1186.01 872.668 1185.44 z"/>
<path transform="translate(0,0)" fill="rgb(35,31,32)" d="M 819.206 1534.42 C 831.12 1533.1 843.976 1533.39 855.965 1533.73 C 893.61 1534.78 930.929 1538.11 968.425 1541.14 C 984.861 1542.46 1002.74 1542.41 1018.89 1545.25 C 1022.06 1545.81 1025.89 1546.67 1028.59 1548.53 C 1030.78 1550.03 1031.34 1551.18 1031.94 1553.68 C 1031.37 1555.37 1030.93 1556.69 1029.47 1557.85 C 1021.82 1563.95 971.775 1561.22 959.755 1560.74 C 920.607 1556.8 880.426 1554.06 841.086 1553.11 C 824.133 1552.7 806.962 1552.85 790.026 1553.63 C 779.607 1554.12 768.613 1555.49 758.227 1555.13 C 755.311 1555.03 751.773 1554.25 749.173 1552.92 C 746.799 1551.71 746.251 1550.67 745.458 1548.23 C 745.975 1546.51 746.448 1545.64 747.711 1544.3 C 754.968 1536.56 805.932 1535.24 819.206 1534.42 z"/>
</svg>