<svg version="1.1" xmlns="http://www.w3.org/2000/svg" style="display: block;" viewBox="0 0 2048 2048" width="1024" height="1024">
<path transform="translate(0,0)" fill="rgb(254,254,254)" d="M 0 0 L 2048 0 L 2048 2048 L 0 2048 L 0 0 z"/>
<path transform="translate(0,0)" fill="rgb(35,31,32)" d="M 776.919 1169.96 C 778.979 1169.88 781.508 1169.63 783.518 1170.07 C 787.603 1170.96 791.023 1174.51 792.904 1178.11 C 795.735 1183.54 795.777 1190.22 793.877 1195.95 C 791.984 1201.65 788.404 1203.97 783.288 1206.67 C 781.846 1206.63 780.357 1206.64 778.932 1206.36 C 774.626 1205.51 770.705 1202.28 768.444 1198.61 C 765.402 1193.68 765 1187.27 766.61 1181.79 C 768.355 1175.84 771.707 1172.95 776.919 1169.96 z"/>
<path transform="translate(0,0)" fill="rgb(35,31,32)" d="M 791.794 1305.42 C 793.727 1305.83 795.86 1306.47 797.536 1307.53 C 801.749 1310.18 804.724 1314.98 805.713 1319.8 C 806.799 1325.1 806.016 1330.79 802.97 1335.33 C 800.197 1339.46 796.813 1341.49 792.027 1342.53 C 789.16 1341.63 786.009 1340.81 783.599 1338.95 C 779.388 1335.69 776.895 1330.15 776.344 1324.94 C 775.781 1319.63 777.125 1314.52 780.733 1310.52 C 784.115 1306.76 786.794 1305.7 791.794 1305.42 z"/>
<path transform="translate(0,0)" fill="rgb(35,31,32)" d="M 1461.06 111.324 C 1477.99 109.276 1495.8 114.466 1509.47 124.492 C 1521.6 133.388 1530.07 146.51 1532.07 161.542 C 1534.01 176.102 1527.65 190.777 1518.82 202.097 C 1501.45 224.396 1468.19 238.984 1440.68 242.324 C 1422.39 243.868 1404.7 240.319 1389.25 230.029 C 1378.13 222.621 1370.88 212.052 1368.57 198.82 C 1365.84 183.098 1370.14 167.891 1379.5 155.191 C 1397.21 131.151 1432.24 115.719 1461.06 111.324 z"/>
<path transform="translate(0,0)" fill="rgb(254,254,254)" d="M 1446.86 178.817 C 1451.55 179.938 1456.58 180.425 1459.63 184.407 C 1460.15 187.598 1459.02 189.681 1457.79 192.524 C 1455.17 194.157 1453.26 195.276 1450.16 194.613 C 1447.03 190.975 1447.34 183.558 1446.86 178.817 z"/>
<path transform="translate(0,0)" fill="rgb(254,254,254)" d="M 1467.78 121.382 C 1477.55 119.967 1488.89 121.916 1497.81 125.893 C 1507.98 130.427 1515.65 138.025 1519.51 148.535 C 1523.23 158.645 1523.58 169.723 1518.91 179.563 C 1507.53 203.525 1473.75 217.925 1450.27 225.746 L 1448.67 210.659 A 115.706 115.706 0 0 0 1451.41 209.844 C 1459.98 207.152 1469.06 202.16 1473.04 193.659 C 1474.97 189.537 1475.27 185.01 1473.5 180.79 C 1470.26 173.057 1463.18 170.03 1456 166.942 C 1460.94 165.387 1466.39 163.957 1470.09 160.105 C 1473.5 156.555 1476.37 151.514 1476.04 146.456 C 1475.84 143.332 1474.72 141.442 1472.43 139.437 C 1462.01 140.432 1459 156.447 1449.34 157.773 C 1445.76 153.905 1447.68 141.998 1447.38 136.286 C 1445.09 134.5 1443.59 133.769 1440.68 133.608 C 1424.82 141.973 1438.18 185.001 1434.49 195.042 C 1428.31 195.678 1424.94 188.705 1419.74 186.336 C 1417.41 185.274 1415.99 185.5 1413.64 186.195 C 1412.25 187.932 1411.62 188.598 1411.37 190.894 C 1410.97 194.384 1412.67 198.02 1414.8 200.694 C 1420.58 207.974 1428.93 209.552 1437.62 210.524 C 1438.38 216.443 1439.35 221.901 1441.07 227.625 C 1440.57 227.727 1440.06 227.835 1439.55 227.931 C 1424.47 230.79 1407.26 229.556 1394.41 220.526 C 1386.47 214.942 1381.09 206.615 1379.54 196.992 C 1377.5 184.334 1382.37 171.991 1389.97 162.048 C 1407.41 139.231 1440 125.219 1467.78 121.382 z"/>
<path transform="translate(0,0)" fill="rgb(35,31,32)" d="M 1166.69 87.4137 C 1185.84 84.749 1209.4 90.6356 1225.53 101.129 C 1237.84 109.14 1245.7 120.206 1248.55 134.706 C 1252.45 154.586 1250.22 172.568 1238.7 189.544 C 1219.2 218.29 1179.3 237.176 1146.18 243.702 C 1124.21 246.273 1093.69 244.114 1075.74 229.591 C 1065.9 221.632 1061.02 209.815 1059.86 197.447 C 1057.72 174.694 1066.91 152.554 1081.29 135.306 C 1104.18 107.854 1130.95 90.6429 1166.69 87.4137 z"/>
<path transform="translate(0,0)" fill="rgb(254,254,254)" d="M 1173.81 93.4706 C 1182.9 93.2228 1192.24 94.4496 1201.02 96.7821 C 1214.63 100.394 1227.04 107.275 1233.98 120.06 C 1240.63 132.321 1240.91 148.363 1236.83 161.513 C 1229.45 185.223 1208.91 200.827 1187.75 211.745 C 1184.35 205.194 1181.59 198.227 1178.64 191.457 C 1184.61 187.34 1191.82 181.465 1193.16 173.885 C 1193.82 170.142 1192.7 166.675 1190.35 163.756 C 1183.7 155.5 1172.06 154.391 1162.29 153.355 C 1160.24 149.821 1158.6 146.088 1156.9 142.376 C 1157.31 141.966 1157.73 141.562 1158.14 141.144 C 1164.25 134.899 1171.39 132.967 1178.06 127.776 C 1178.45 125.367 1178.18 124.85 1176.64 122.745 C 1175.19 120.752 1172.47 119.244 1170.01 119.29 C 1163.14 119.417 1156.1 127.517 1151.34 131.773 C 1146.33 124.241 1144.1 118.932 1136.5 113.231 L 1133.7 114.558 C 1133.51 119.412 1133.94 123.069 1136.1 127.49 C 1137.59 130.548 1138.84 133.582 1140.03 136.767 C 1134.85 141.634 1130.09 146.276 1125.97 152.111 C 1124.82 154.503 1123.15 157.815 1123.2 160.542 C 1123.26 163.43 1123.99 164.186 1125.69 166.335 C 1133.51 170.087 1145.42 166.607 1153.85 165.537 C 1156.72 171.642 1159.23 177.873 1161.75 184.132 C 1154.94 185.967 1140.89 184.52 1136.39 189.14 C 1136.33 192.183 1136.34 192.346 1138.07 194.837 C 1146.64 199.549 1157.91 197.126 1167.07 195.492 C 1170.36 202.611 1174.01 209.497 1177.73 216.404 C 1165.02 223.164 1151.04 229.874 1136.76 232.268 C 1120.57 234.983 1095.62 232.288 1082.21 222.245 C 1075.26 217.037 1071.58 209.284 1070.72 200.744 C 1068.48 178.438 1080.85 153.651 1095.02 137.214 C 1115.46 113.483 1142.17 95.7831 1173.81 93.4706 z"/>
<path transform="translate(0,0)" fill="rgb(35,31,32)" d="M 505.37 657.386 C 480.688 598.111 453.155 507.034 478.619 444.837 C 488.82 419.918 506.926 403.549 531.601 393.313 C 561.851 380.764 592.662 380.608 624.758 380.983 C 640.29 381.164 655.405 381.818 670.41 377.075 C 689.519 371.034 703.768 357.79 718.27 344.582 C 763.693 303.216 805.149 258.176 871.225 286.42 C 925.397 309.576 968.274 380.901 988.889 434.084 A 276.997 276.997 0 0 1 995.317 453.164 C 1022.68 441.73 1082.19 411.496 1110.47 422.229 C 1117.07 424.736 1121.79 429.187 1124.47 435.742 C 1127.79 443.879 1126.56 452.129 1122.89 459.906 C 1109.53 488.301 1077.19 506.424 1052.03 523.301 C 1062.49 537.609 1072.8 551.852 1081.65 567.242 C 1089.62 581.102 1096.44 595.864 1104.9 609.392 C 1115.6 603.647 1125.35 599.354 1137.7 603.125 C 1150.72 607.102 1159.99 618.276 1165.87 630.078 C 1174.6 647.587 1178.29 669.173 1171.73 687.984 C 1167.28 700.737 1159.94 708.978 1148.43 715.605 C 1163.14 759.44 1180.52 817.035 1174.53 863.216 C 1172.82 876.415 1168.54 889.223 1162.64 901.128 C 1144.62 937.526 1113.85 964.55 1079.61 985.347 C 1120.23 1011.81 1158.81 1043.97 1195.4 1075.7 C 1249.79 1122.84 1358.15 1237.74 1433.75 1222.04 C 1462.92 1215.98 1488.37 1196.57 1504.28 1171.65 C 1523.66 1141.3 1526.84 1107.01 1527.75 1072.01 C 1527.95 1063.97 1526.78 1052.78 1529.77 1045.28 C 1530.6 1043.18 1530.69 1043.06 1532.76 1041.94 C 1541.4 1044.24 1549.13 1049.64 1557.67 1052.62 L 1573.26 1024.28 C 1565.4 1006.31 1561.51 986.76 1557.42 967.648 C 1529.51 968.483 1327.8 970.339 1318.99 966.346 C 1316.63 963.29 1315.94 960.474 1315.64 956.628 C 1314.83 946.272 1316.73 935.25 1317.05 924.834 L 1318.54 854.508 C 1319.2 819.34 1319.39 784.198 1320.69 749.038 L 1331.67 515.369 C 1332.49 494.965 1333.53 474.512 1333.92 454.097 C 1334.07 446.653 1332.64 438.417 1333.49 431.118 C 1333.7 429.313 1335.76 427.972 1337.19 426.948 C 1349.11 418.404 1376.8 410.211 1391.42 404.391 C 1409.04 397.376 1426.27 389.394 1443.92 382.467 C 1475.83 369.947 1573.92 333.72 1602.67 339.637 C 1603.91 339.892 1604.86 340.291 1605.93 340.961 C 1606.43 342.785 1606.86 342.803 1605.87 344.586 C 1602.16 351.296 1592.77 355.403 1586.23 358.876 C 1601.78 353.383 1636.71 335.098 1652.03 343.308 C 1653.36 344.021 1654.16 345.069 1655.04 346.25 C 1655.5 349.372 1655.29 351.255 1653.39 353.876 C 1647.85 361.497 1636.8 366.053 1628.51 370.045 C 1644.97 367.091 1688.84 354.685 1702.87 362.575 C 1703.58 363.761 1704.36 364.385 1704.09 365.841 C 1702.75 373.044 1691.65 379.924 1685.73 383.333 A 620.449 620.449 0 0 1 1676.53 388.497 C 1689.23 386.083 1717.92 377.789 1728.3 385.394 C 1730.18 386.772 1730.35 387.519 1731.04 389.635 C 1729.81 397.198 1723.76 401.396 1718.14 405.927 L 1719.47 406.447 C 1728.25 409.801 1735.51 407.239 1744.38 408.816 C 1744.66 409.508 1745.22 410.146 1745.21 410.891 C 1745.16 413.801 1742.94 417.645 1742.27 420.562 C 1741.07 425.78 1740.74 431.337 1740.21 436.658 A 4863.62 4863.62 0 0 0 1730.42 545.198 C 1743.14 547.456 1780.97 551.493 1789.39 559.498 C 1791.44 566.884 1780.51 621.13 1777.76 631.068 C 1776.79 634.569 1775.27 637.844 1773.65 641.087 C 1791.06 642.874 1818.66 642.232 1831.55 655.371 C 1833.07 659.898 1832.42 664.761 1831.71 669.404 C 1829.68 682.664 1825.05 696.207 1821.94 709.314 C 1816.63 731.662 1811.98 754.172 1806.85 776.563 C 1803.97 789.152 1800.3 801.722 1797.85 814.385 C 1801.62 811.184 1805.02 808.316 1810.27 808.9 C 1813.12 809.217 1815.39 810.823 1817.03 813.095 C 1828.35 828.765 1825.01 856.215 1821.53 873.751 C 1815.78 902.737 1792.03 969.808 1776.43 993.233 C 1773.07 998.29 1769.14 1002.27 1764.08 1005.64 C 1739.78 1021.81 1679.95 1041.09 1651.08 1042.13 C 1651.14 1055.9 1650.5 1069.53 1649.64 1083.27 C 1661.21 1088.29 1727.7 1109.57 1730.75 1115.26 C 1731.34 1116.36 1730.67 1117.9 1730.44 1119.07 C 1728.4 1121.52 1726.4 1122.55 1723.61 1123.94 C 1719.41 1158.24 1708.25 1191.47 1694.2 1222.89 C 1657.83 1304.21 1604.83 1368.29 1534.67 1423.05 C 1457.46 1483.33 1337.74 1536.78 1237.83 1524.52 C 1224.42 1522.88 1211.69 1519.83 1198.86 1515.63 C 1191.98 1567.67 1181.19 1618.88 1169.4 1670.01 C 1157.3 1722.43 1144.27 1774.08 1127.33 1825.17 C 1244.73 1826.47 1362.24 1826.05 1479.49 1832.92 C 1496.11 1833.9 1523.89 1832.89 1538.94 1838.63 L 1540.06 1839.97 L 1540.42 1839.61 L 1539.75 1839.02 L 1540.2 1839.93 L 1538.54 1838.57 L 1538.13 1840.44 C 1523.78 1841.65 1508.96 1840.46 1494.56 1840.07 A 4101.5 4101.5 0 0 0 1422.45 1838.53 L 1262.1 1837.22 C 1215.75 1837.04 1169.19 1836.82 1122.89 1839.05 C 1118.28 1852.16 1112.77 1864.58 1106.7 1877.08 C 1156.81 1875.53 1216.49 1877.19 1255.54 1913.46 C 1259.3 1916.95 1262.26 1919.92 1262.95 1925.13 C 1262.24 1927.83 1261.34 1929.54 1258.93 1931.03 C 1252.33 1935.1 1241.01 1934.94 1233.38 1935.56 C 1178.67 1939.99 1123.53 1932.11 1070.8 1917.71 C 1066.58 1916.56 1062.06 1915.49 1058.79 1912.42 C 1054.22 1897.78 1056.51 1855.37 1056.29 1838.03 C 986.91 1841.84 917.013 1842.93 847.538 1844.21 C 845.436 1860.56 842.866 1877.21 838.402 1893.1 C 815.1 1916.83 758.457 1944.91 726.626 1954.23 C 713.663 1958.02 700.986 1960.13 687.473 1960.27 C 681.787 1960.33 676.894 1960.61 671.958 1957.44 C 670.557 1955.18 670.192 1954.19 670.723 1951.52 C 674.736 1931.29 709.446 1901.39 726.554 1891.34 C 747.552 1879.01 771.586 1871.3 795.526 1867.34 L 784.931 1845 C 741.985 1849.69 695.752 1849.36 652.252 1851.93 C 604.524 1854.75 556.897 1860.44 509.109 1861.93 C 500.948 1862.19 481.034 1864.24 474.638 1860.06 C 473.487 1859.31 472.323 1857.3 471.994 1856.03 C 471.308 1853.37 472.252 1852.09 473.56 1850 C 480.744 1846.72 526.712 1847.38 537.806 1846.73 C 618.677 1841.96 699.894 1831.37 781.058 1833.9 C 747.465 1756.16 727.57 1651.11 714.691 1567.37 C 710.916 1542.83 708.705 1517.99 704.504 1493.52 C 659.544 1559.65 585.519 1673.57 502.071 1689.01 C 479.591 1693.16 456.247 1689.31 437.275 1676.23 C 393.546 1646.08 370.024 1584.08 361.116 1533.55 C 357.651 1513.9 355.702 1493.85 356.783 1473.88 C 357.307 1464.19 360.402 1455.64 359.287 1445.9 C 359.027 1443.63 358.394 1441.02 360.255 1439.26 C 360.935 1438.62 361.908 1438.39 362.712 1437.91 C 370.721 1433.18 382.533 1412.7 389.822 1404.38 C 374.23 1388.5 353.29 1370.63 353.099 1346.47 C 353.001 1334.08 357.88 1322.77 362.869 1311.68 C 358.229 1311.79 353.62 1311.91 349.058 1312.85 C 341.167 1314.47 307.012 1326.11 303.342 1325.61 C 301.469 1325.34 298.505 1323.6 297.147 1322.3 C 292.073 1317.44 294.546 1311.11 291.637 1305.68 C 283.633 1290.73 268.292 1280.46 268.491 1261.53 C 268.547 1256.21 270.403 1251.75 274.405 1248.19 C 286.904 1237.08 310.087 1238.73 326.05 1237.61 C 311.488 1223.18 301.159 1207.43 301.337 1186.14 C 301.418 1176.31 304.492 1166.63 311.701 1159.7 C 319.58 1152.13 329.232 1150.9 339.52 1149.41 C 325.688 1119.28 309.859 1090.57 294.546 1061.21 C 280.828 1034.91 267.695 1008.27 254.183 981.864 C 245.114 964.14 233.89 947.012 226.241 928.649 C 228.351 925.748 230.39 922.955 232.892 920.378 C 233.249 897.773 234.512 874.236 231.78 851.802 C 227.634 850.082 223.958 848.408 221.881 844.189 C 222.012 840.828 223.118 839.706 225.568 837.452 C 227.953 835.259 230.295 833.736 231.373 830.495 C 230.534 823.734 216.577 817.724 225.319 807.951 C 227.466 805.551 229.95 804.221 233.169 804.097 C 236.543 803.967 239.246 805.272 241.959 807.105 C 245.465 813.297 243.515 817.466 243.319 823.983 C 253.586 837.978 275.5 854.822 290.937 863.136 C 300.153 868.099 308.721 869.642 316.019 877.713 C 316.288 881.33 316.42 885.299 317.806 888.685 C 321.682 898.158 327.541 907.563 332.383 916.607 L 362.623 972.523 C 379.135 1002.93 394.702 1033.9 410.922 1064.46 C 424.944 1090.89 439.841 1117.06 453.073 1143.87 C 467.724 1135.43 482.998 1134 499.262 1138.65 C 515.785 1143.38 525.744 1160.71 533.327 1175 C 541.192 1189.81 540.591 1204.27 535.698 1219.9 C 534.176 1224.77 532.256 1229.5 529.713 1233.93 C 534.054 1239.85 537.071 1245.21 539.345 1252.27 C 548.947 1235.35 556.662 1217.4 566.499 1200.6 C 595.288 1151.42 636.311 1107.5 681.435 1073.13 C 693.676 1063.8 711.03 1049.9 726.031 1045.76 C 727.583 1045.33 728.97 1045.27 730.563 1045.4 L 732.198 1046.61 C 732.086 1049.7 730.752 1051.46 728.51 1053.57 C 723.39 1058.37 716.418 1061.77 710.475 1065.55 C 700.4 1071.95 690.089 1078.79 680.878 1086.39 C 624.465 1132.92 585.453 1187.18 552.366 1251.87 C 566.637 1247.24 581.456 1245.37 595.31 1252.8 A 42.2282 42.2282 0 0 1 616.055 1278.79 C 619.632 1291.29 618.184 1304.39 611.607 1315.64 C 604.985 1326.96 595.125 1334.09 583.276 1339.12 C 590.405 1353.21 596.791 1370.33 591.907 1386.2 C 586.313 1404.37 564.678 1416.17 549.786 1426.03 C 552.344 1433.59 557.607 1444.81 553.537 1452.47 C 551.278 1456.73 546.497 1458.98 542.065 1460.22 C 538.638 1461.19 535.105 1461.89 531.626 1462.65 C 537.97 1476.4 545.504 1489.7 552.814 1502.97 C 555.924 1508.62 559.82 1514.15 562.236 1520.12 C 563.319 1522.79 564.019 1524.91 563.169 1527.78 C 562.241 1530.92 558.688 1534.38 555.638 1535.45 C 553.399 1536.24 551.582 1536.03 549.634 1534.69 C 536.407 1525.61 522.323 1469.73 510.837 1466.01 C 509.947 1466.23 510.027 1466.07 509.378 1466.97 C 504.673 1473.45 508.284 1488.39 499.012 1491.74 C 497.104 1490.26 495.756 1489.34 495.403 1486.79 C 494.808 1482.48 496.884 1476.44 494.508 1472.71 C 491.984 1472.07 492.151 1472.35 489.879 1473.2 C 483.355 1482.5 489.342 1500.34 477.654 1506.16 L 474.556 1505.86 C 472.016 1501.6 473.411 1496.67 474.545 1492.07 C 475.967 1486.3 477.715 1480.58 479.382 1474.87 C 472.258 1475.53 449.262 1474.92 444.326 1477.02 C 444.917 1483.47 444.798 1490.65 443.993 1497.08 C 443.239 1503.11 441.764 1509.49 436.838 1513.44 C 435.221 1513.32 435.218 1513.73 434.432 1512.53 C 429.656 1505.25 437.466 1484.59 439.767 1476.88 C 433.475 1475.4 409.628 1473.42 404.51 1476.06 C 404.052 1478.43 403.598 1480.78 403.276 1483.17 C 402.819 1488.51 402.519 1494.08 401.588 1499.36 C 400.784 1503.92 399.123 1508.97 395.288 1511.68 C 393.55 1510.52 393.403 1510.15 392.757 1508.21 C 389.573 1498.66 395.515 1483.63 399.814 1475.02 C 389.199 1471.58 377.084 1471.89 366.112 1469.28 C 368.089 1489.38 369.072 1509.26 372.672 1529.2 C 380.455 1572.29 401.424 1627.68 436.229 1656.41 C 453.554 1670.71 473.426 1677.78 495.964 1675.55 C 553.823 1669.84 605.119 1610.75 639.787 1567.94 C 652.365 1552.4 663.511 1535.82 674.871 1519.39 C 683.528 1506.88 691.769 1493.57 703.207 1483.35 A 1604.07 1604.07 0 0 1 701.446 1436.32 C 699.054 1434.6 694.499 1432 692.964 1429.51 C 690.841 1426.07 681.057 1380.27 679.546 1372.96 C 674.972 1350.83 670.683 1328.63 665.152 1306.71 C 661.652 1292.84 656.19 1278.96 654 1264.89 C 653.449 1261.35 652.961 1257.77 653.697 1254.23 C 655.574 1253.1 656.793 1252.59 659.12 1253.23 C 664.281 1254.66 668.486 1272.38 670.097 1277.42 C 677.424 1300.35 682.078 1324.07 687.225 1347.56 C 692.866 1373.29 699.728 1400.46 701.232 1426.79 C 730.218 1434.48 758.251 1440.56 787.998 1444.46 C 808.289 1447.11 828.892 1448.31 849.094 1451.34 C 845.052 1432.21 842.512 1412.84 839.302 1393.57 A 4415.11 4415.11 0 0 1 812.164 1196.89 A 5250.98 5250.98 0 0 1 805.451 1135.92 C 804.126 1123.48 803.373 1110.48 800.625 1098.28 C 789.487 1099.17 757.377 1104.37 749.413 1096.52 C 745.776 1092.93 745.572 1087.08 745.997 1082.32 C 747.041 1070.64 749.687 1058.19 752.717 1046.86 C 740.179 1043.7 727.427 1041.97 714.932 1038.55 C 684.668 1030.24 608.43 1003.65 592.214 979.235 C 573.643 990.021 556.093 996.63 534.453 990.997 C 517.195 986.504 501.32 972.945 492.748 957.521 C 484.182 942.108 479.667 920.556 484.373 903.281 C 487.796 890.712 496.089 880.569 507.471 874.345 C 515.03 870.212 523.811 867.685 532.268 866.204 C 503.507 840.468 492.692 796.763 488.154 759.648 C 463.321 764.968 422.063 776.178 399.177 760.898 C 394.489 757.769 390.169 753.089 389.253 747.334 C 387.925 738.99 393.277 730.611 398.243 724.369 C 423.021 693.23 468.932 672.125 505.37 657.386 z"/>
<path transform="translate(0,0)" fill="rgb(254,254,254)" d="M 736.775 1900.14 C 739.421 1899.89 742.223 1899.53 744.874 1899.8 C 748.508 1900.18 754.899 1902.94 756.757 1906.29 C 757.945 1908.43 758.181 1910.21 757.224 1912.52 C 755.872 1915.78 751.785 1917.17 748.837 1918.55 C 745.874 1919.15 742.341 1919.57 739.336 1919.15 C 735.967 1918.69 731.502 1916.74 729.77 1913.61 C 728.938 1912.11 728.627 1910.38 728.988 1908.72 C 729.964 1904.25 733.176 1902.44 736.775 1900.14 z"/>
<path transform="translate(0,0)" fill="rgb(254,254,254)" d="M 1167.9 1891.22 C 1169.75 1890.93 1171.63 1890.66 1173.51 1890.64 C 1181.93 1890.55 1194.47 1894.42 1200.38 1900.61 C 1201.88 1902.17 1201.8 1902.49 1201.78 1904.54 C 1199.69 1906.84 1198 1907.32 1195.13 1908.14 C 1185.67 1908.44 1174.68 1907.6 1166.09 1903.2 C 1163.17 1901.71 1162.1 1900.4 1161.17 1897.31 C 1162.87 1893.9 1164.73 1893.24 1167.9 1891.22 z"/>
<path transform="translate(0,0)" fill="rgb(254,254,254)" d="M 1033.71 1022.92 C 1042.89 1024.63 1051.94 1028.15 1060.01 1032.84 C 1065.56 1036.07 1073.12 1040.99 1074.88 1047.49 L 1073.77 1049.38 C 1063.4 1050.47 1053.07 1050.89 1042.65 1051.27 C 1040.49 1041.34 1037.22 1032.4 1033.71 1022.92 z"/>
<path transform="translate(0,0)" fill="rgb(254,254,254)" d="M 462.635 1207.98 C 467.422 1213.69 473.054 1228.82 476.678 1235.95 C 472.842 1238.37 461.593 1246.13 457.37 1245.63 C 452.343 1236.11 447.447 1227.29 440.062 1219.39 A 842.299 842.299 0 0 1 462.635 1207.98 z"/>
<path transform="translate(0,0)" fill="rgb(254,254,254)" d="M 468.676 1148.11 C 477.749 1147.53 496.935 1146.04 504.502 1151.49 L 504.722 1153.44 C 500.678 1158.8 491.848 1163.18 486.206 1167.01 L 472.883 1177.14 C 467.11 1169.43 462.516 1160.6 458.23 1152 C 461.628 1150.43 465.131 1149.29 468.676 1148.11 z"/>
<path transform="translate(0,0)" fill="rgb(254,254,254)" d="M 761.153 1047.78 C 772.577 1050.35 784.366 1051.29 796.004 1052.4 C 792.073 1060.23 787.732 1067.91 783.645 1075.67 C 783.331 1076.49 783.15 1077.07 782.661 1077.83 C 780.158 1081.72 762.431 1082.7 757.398 1083.33 C 759.574 1071.45 761.105 1059.87 761.153 1047.78 z"/>
<path transform="translate(0,0)" fill="rgb(254,254,254)" d="M 431.885 1222.8 C 436.182 1225.56 446.893 1246.25 450.117 1251.4 A 804.972 804.972 0 0 1 423.285 1263.43 L 421.981 1263.6 C 419.423 1262.39 407.668 1239.69 405.129 1235.67 C 414.719 1232.66 423.267 1227.88 431.885 1222.8 z"/>
<path transform="translate(0,0)" fill="rgb(254,254,254)" d="M 287.996 875.457 C 292.734 877.281 297.048 880.193 301.394 882.795 C 299.142 889.611 296.534 896.847 292.721 902.954 C 284.603 915.951 272.316 919.655 258.236 922.682 L 245.11 924.405 C 244.904 917.753 245.205 911.19 245.558 904.548 C 250.038 904.165 254.799 903.944 259.099 902.564 C 271.748 898.506 282.337 887.254 287.996 875.457 z"/>
<path transform="translate(0,0)" fill="rgb(254,254,254)" d="M 993.28 1097.08 L 994.311 1097.45 C 993.775 1098.64 993.834 1098.62 992.957 1099.89 C 985.232 1111.13 969.738 1122.42 959.774 1132.2 C 951.962 1139.87 944.663 1148.81 936.512 1155.99 C 934.625 1157.65 933.939 1158.66 931.428 1158.99 L 931.12 1156.25 C 931.122 1154.51 931.092 1152.85 930.916 1151.12 L 930.467 1146.49 C 929.632 1138.1 938.91 1112.9 941.737 1102.77 C 942.569 1103.43 942.789 1103.63 943.771 1104.25 C 949.481 1107.89 963.309 1110.51 969.915 1109.06 C 970.377 1107.71 970.873 1106.46 971.442 1105.16 C 977.944 1101.36 986.103 1099.4 993.28 1097.08 z"/>
<path transform="translate(0,0)" fill="rgb(254,254,254)" d="M 523.413 1180.77 C 525.426 1181 525.461 1181.27 527.005 1182.42 C 532.747 1193.64 524.128 1217.38 520.748 1229.13 C 512.444 1226.74 499.575 1228.92 496.145 1227.84 C 495.516 1227.65 495.086 1227.06 494.557 1226.66 C 490.149 1217.95 485.789 1209.27 481.924 1200.3 C 495.641 1193.59 509.295 1186.59 523.413 1180.77 z"/>
<path transform="translate(0,0)" fill="rgb(254,254,254)" d="M 339.988 1248.45 C 346.837 1248.24 353.493 1248.2 360.325 1248.77 C 341.754 1265.38 318.093 1275.79 299.624 1292.87 L 298.166 1292.38 C 292.146 1284.78 282.341 1274.71 281.174 1264.85 C 280.8 1261.69 281.727 1258.89 283.832 1256.52 C 289.583 1250.05 329.092 1249.51 339.988 1248.45 z"/>
<path transform="translate(0,0)" fill="rgb(254,254,254)" d="M 1120.7 614.128 C 1125.6 613.849 1130.66 614.061 1134.93 616.765 C 1147.14 624.486 1154 642.762 1156.94 656.366 C 1159.71 669.196 1159.98 685.353 1152.32 696.564 C 1150.62 699.055 1148.5 701.685 1145.41 702.253 C 1140.92 698.49 1137.27 684.32 1135 678.36 C 1132.51 671.511 1124.13 660.189 1125.8 653.258 C 1127.6 652.201 1127.34 652.011 1129.63 652.267 C 1133.12 652.655 1134.77 653.94 1136.93 656.604 C 1139.08 659.257 1140.75 662.005 1144.27 662.472 C 1145.57 661.027 1145.93 659.721 1145.93 657.783 C 1145.94 653.393 1143.55 649.465 1140.37 646.632 C 1137.11 643.724 1132.48 640.991 1127.96 641.622 C 1125.72 641.935 1124.28 644.857 1122.93 646.588 L 1121.52 646.495 C 1116.26 638.463 1112.96 628.209 1109.22 619.344 C 1113.05 616.928 1116.32 615.328 1120.7 614.128 z"/>
<path transform="translate(0,0)" fill="rgb(254,254,254)" d="M 339.437 1158.26 L 341.895 1158.25 C 348.281 1162.63 376.627 1222.17 381.768 1232.48 C 373.918 1234.95 366.106 1236.05 357.945 1236.86 L 343.751 1237.03 C 331.17 1225.25 317.298 1214.45 313.586 1196.65 C 311.743 1187.81 312.442 1177.29 317.71 1169.68 C 323.187 1161.76 330.447 1159.63 339.437 1158.26 z"/>
<path transform="translate(0,0)" fill="rgb(254,254,254)" d="M 1016.67 1018.1 C 1017.69 1018.04 1018.9 1018.4 1019.91 1018.58 C 1029.85 1026.14 1032.02 1046.43 1033.79 1058.08 C 1025.5 1061.88 993.789 1068.33 990.487 1074.18 C 989.622 1075.71 990.259 1076.6 990.622 1078.21 C 993.436 1081.95 997.843 1083.6 1001.93 1085.67 C 989.506 1089.46 976.694 1091.52 964.273 1095.58 C 956.617 1097.81 949.005 1100.22 941.379 1102.56 C 946.922 1088.71 955.733 1077.31 963.895 1064.94 A 4398.89 4398.89 0 0 0 988.889 1025.95 C 998.275 1023.97 1007.37 1020.52 1016.67 1018.1 z"/>
<path transform="translate(0,0)" fill="rgb(254,254,254)" d="M 397.061 1410.6 C 406.775 1416.8 414.949 1424.73 425.346 1429.95 C 451.493 1443.06 487.33 1446.92 515.898 1441.31 C 522.903 1439.94 529.869 1437.26 536.643 1435.02 L 537.757 1436.26 L 537.495 1438.56 C 532.042 1445.01 520.249 1447.42 512.355 1450.07 C 503.768 1452.85 495.145 1455.73 486.24 1457.32 C 449.622 1463.86 406.769 1459.05 369.877 1455.67 C 375.763 1437.74 385.628 1425.37 397.061 1410.6 z"/>
<path transform="translate(0,0)" fill="rgb(254,254,254)" d="M 573.589 1260.36 C 578.149 1260.22 583.338 1260.75 587.52 1262.66 C 594.594 1265.89 599.657 1271.64 602.157 1278.98 A 37.6114 37.6114 0 0 1 599.541 1308.82 C 592.749 1321.24 581.669 1325.87 568.745 1329.37 C 561.491 1329.33 555.186 1329.43 549.029 1324.95 C 541.727 1319.65 538.172 1310.84 536.772 1302.18 C 535.155 1292.18 535.805 1279.46 542.061 1271.07 C 548.578 1262.34 563.655 1261.82 573.589 1260.36 z"/>
<path transform="translate(0,0)" fill="rgb(254,254,254)" d="M 1729.4 554.498 C 1746.27 557.414 1762.78 562.272 1779.51 565.897 C 1773.07 589.128 1769.71 613.104 1765.83 636.86 L 1764.6 640.151 C 1756.67 644.378 1732.41 641.444 1722.59 641.089 C 1723.39 612.394 1725.78 582.984 1729.4 554.498 z"/>
<path transform="translate(0,0)" fill="rgb(254,254,254)" d="M 804.955 1052.95 C 816.469 1053.37 827.911 1053.08 839.422 1052.76 C 849.159 1068.58 872.6 1091.57 886.493 1104.39 C 895.588 1112.78 912.822 1124.85 918.481 1135.54 C 922.343 1142.84 922.924 1153.54 924.232 1161.66 C 910.641 1151.65 896.04 1143.02 881.516 1134.45 C 873.097 1128.77 864.122 1123.89 855.323 1118.82 C 863.351 1118.72 876.318 1120.24 882.699 1114.73 C 883.726 1112.21 883.802 1112.31 882.909 1109.76 C 875.555 1104.73 841.445 1108.07 831.522 1108.56 L 809.423 1094.63 C 816.697 1092.43 823.999 1090.78 829.805 1085.62 C 830.42 1083.99 831.117 1083.26 830.537 1081.52 C 828.898 1076.57 821.709 1074.26 817.363 1072.12 C 808.066 1074.48 799.259 1077.06 789.739 1078.58 C 794.174 1069.68 799.66 1061.36 804.955 1052.95 z"/>
<path transform="translate(0,0)" fill="rgb(254,254,254)" d="M 967.529 1031.01 L 969.136 1030.94 C 969.31 1036.01 937.936 1077.51 932.978 1087.05 C 927.561 1097.49 925.088 1108.11 922.668 1119.51 C 912.398 1107.79 900.04 1097.82 888.629 1087.23 A 2084.75 2084.75 0 0 1 853.012 1052.33 C 892.003 1047.77 929.931 1042.7 967.529 1031.01 z"/>
<path transform="translate(0,0)" fill="rgb(254,254,254)" d="M 508.189 668.085 C 511.656 670.598 520.856 693.025 524.851 698.778 C 531.809 708.798 539.663 715.834 549.372 723.172 A 371.392 371.392 0 0 1 443.474 750.863 C 434.153 751.222 424.401 751.419 415.211 749.605 C 410.149 748.606 405.713 747.414 402.719 742.961 C 402.229 740.514 402.166 738.901 403.228 736.572 C 406.11 730.251 413.001 724.54 418.112 719.988 C 444.722 696.292 475.265 680.818 508.189 668.085 z"/>
<path transform="translate(0,0)" fill="rgb(254,254,254)" d="M 1808.85 822.723 C 1811.22 825.419 1811.76 829.802 1812.15 833.314 C 1813.6 846.374 1810.31 861.224 1807.12 873.82 C 1801.86 894.549 1774.53 972.831 1761.88 987.708 C 1750.05 1001.63 1684.12 1023.59 1664.99 1027.11 C 1654.38 1029.06 1643.68 1027.97 1633.19 1029.52 C 1630.38 1029.94 1628.85 1030.33 1627.11 1032.58 C 1627.43 1033.73 1627.44 1034.01 1628.16 1035.16 C 1631.55 1040.53 1637.96 1041.08 1643.58 1041.91 C 1641.26 1054.57 1640.2 1067.12 1639.91 1079.98 C 1617.87 1072.23 1595.66 1064.88 1573.73 1056.84 C 1578.05 1047.65 1584.5 1039.27 1588.54 1030.15 C 1592.54 1021.11 1583.81 1007.79 1580.51 999.261 C 1576.18 984.018 1560.57 897.148 1565.72 886.877 C 1567 884.341 1567.9 884.235 1570.41 883.601 C 1595.04 889.916 1611.2 973.077 1620.56 980.768 C 1622.63 980.372 1624.94 980.039 1626.68 978.766 C 1629.12 976.98 1629.79 974.377 1630 971.541 C 1630.13 969.83 1630.12 969.267 1630.8 967.63 C 1640.94 966.331 1651.67 967.23 1661.89 967.313 C 1688.61 967.531 1721.24 969.356 1747.4 966.811 L 1748.85 966.663 C 1754.41 956.757 1757.75 945.013 1761.7 934.34 C 1771.64 907.495 1794.15 842.174 1808.85 822.723 z"/>
<path transform="translate(0,0)" fill="rgb(254,254,254)" d="M 308.064 897.569 C 312.675 901.986 447.941 1166.14 455.231 1187.44 L 434.011 1203.2 C 426.54 1187.5 417.862 1172.48 409.772 1157.11 L 375.285 1090.34 C 359.652 1060.24 344.075 1030.14 327.886 1000.33 C 323.562 992.374 320.244 983.846 315.76 975.981 C 314.166 973.187 312.594 971.079 310.238 968.896 C 308.431 968.322 308.029 967.829 306.125 968.518 C 303.571 969.443 301.957 971.003 300.945 973.552 C 298.135 980.635 309.632 999.52 312.887 1006.45 C 331.18 1043.51 350.789 1079.81 370.268 1116.25 C 387.009 1147.57 403.621 1180.11 423.569 1209.5 C 415.188 1214.36 407.333 1220.4 399.405 1225.97 C 380.373 1182.6 356.715 1140.96 334.663 1099.07 C 305.46 1043.6 277.35 987.722 243.483 934.908 C 256.713 935.034 271.19 935.586 283.397 929.645 C 296.773 923.134 303.562 911.045 308.064 897.569 z"/>
<path transform="translate(0,0)" fill="rgb(254,254,254)" d="M 515.371 1240.23 L 518.438 1240.99 C 522.049 1244.05 524.052 1248.36 526.356 1252.43 C 526.321 1264.77 525.647 1276.86 523.6 1289.04 C 523.378 1289.26 523.16 1289.49 522.934 1289.7 L 521.797 1290.79 C 510.605 1301.59 495.714 1309.26 483.258 1318.69 C 478.345 1322.4 468.98 1329.34 468.56 1335.84 C 468.453 1337.49 469.047 1337.48 470.13 1338.49 C 482.92 1337.75 512.781 1312.52 523.512 1304.29 C 523.823 1310.44 524.493 1316.16 526.771 1321.93 C 508.161 1335.44 489.81 1356.17 472.35 1367.49 C 456.86 1355.32 431.124 1315.86 419.728 1309.66 L 417.036 1311.09 C 416.078 1312.41 415.226 1313.52 415.075 1315.21 C 413.963 1327.74 432.904 1346.6 440.141 1355.92 C 436.555 1359.66 432.394 1363.71 430.377 1368.57 C 429.019 1371.84 428.681 1374.62 430.014 1377.9 L 432.491 1378.88 C 440.585 1377.54 444.335 1372.33 449.788 1366.66 C 456.142 1373.43 462.389 1380.73 470.008 1386.08 C 493.271 1379.44 511.095 1366.79 524.651 1346.76 C 531.54 1358.51 537.879 1370.67 544.447 1382.61 C 544.65 1383 544.847 1383.4 545.055 1383.79 L 545.998 1385.53 C 547.132 1387.65 548.112 1389.91 550.185 1391.3 C 553.056 1393.22 556.576 1393.82 559.915 1393.28 C 561.089 1392.28 562.17 1391.85 562.452 1390.23 C 564.106 1380.69 540.23 1344.09 534.506 1334.41 C 547.42 1340.8 556.966 1343.03 571.383 1343.08 C 576.07 1353.33 581.277 1365.3 578.546 1376.77 C 574.533 1393.61 551.258 1404.84 537.584 1413.24 C 536.357 1416.26 535.383 1419.38 534.344 1422.47 C 527.75 1425.39 521.264 1427.88 514.191 1429.36 C 483.236 1435.87 445.018 1426.74 418.882 1409.45 C 401.584 1398.01 370.452 1369.57 366.76 1348.45 C 363.498 1329.78 389.583 1290.72 399.92 1275.27 C 405.082 1277.28 410.048 1279.31 415.678 1279.43 C 446.285 1280.1 482.156 1245.3 515.371 1240.23 z"/>
<path transform="translate(0,0)" fill="rgb(254,254,254)" d="M 1557.29 707.433 C 1575.47 723.449 1602.48 728.964 1624.61 737.992 C 1642.38 745.236 1659.32 753.857 1675.24 764.602 C 1681.49 768.825 1690.16 774.721 1694.22 781.048 C 1689.61 786.098 1685.02 790.201 1683.49 797.086 L 1684.18 799.284 C 1686.65 799.633 1687.92 799.315 1690 797.836 C 1691.3 796.915 1692.41 795.473 1693.48 794.31 L 1699.82 787.487 C 1702.55 789.109 1705.13 791.765 1707.56 793.827 C 1687.31 836.391 1670.83 855.06 1641.19 889.751 C 1632.05 900.455 1623.42 911.607 1613.89 921.98 C 1605.88 904.923 1600.99 885.142 1586.12 872.411 C 1581.57 868.523 1576.02 865.689 1569.89 866.368 C 1562.55 867.18 1556.21 872.166 1551.7 877.65 C 1542.09 872.957 1532.83 867.429 1523.29 862.553 C 1508.74 855.107 1493.77 848.367 1478.84 841.713 C 1496.18 799.146 1528.1 743.319 1557.29 707.433 z"/>
<path transform="translate(0,0)" fill="rgb(35,31,32)" d="M 1534.13 768.448 C 1535.74 769.233 1536.64 769.924 1537.98 771.073 C 1540.01 777.912 1533.66 788.382 1530.63 794.645 L 1528.04 793.059 C 1526.93 791.414 1526.49 790.423 1526.23 788.405 C 1525.32 781.481 1530.02 773.588 1534.13 768.448 z"/>
<path transform="translate(0,0)" fill="rgb(35,31,32)" d="M 1616.61 753.142 C 1619 753.055 1622.36 752.501 1624.52 753.605 C 1625.33 754.022 1625.41 754.222 1625.6 755.145 C 1627.77 766.008 1618.69 764.575 1614.77 770.337 C 1619.52 779.198 1634.59 783.147 1636.52 795.657 C 1636.9 798.098 1636.26 800.64 1634.51 802.44 C 1632.73 804.268 1631.25 805.085 1628.77 804.936 C 1626.03 801.462 1627.09 797.054 1625.78 793.139 C 1625.15 791.248 1612.57 782.645 1609.89 779.437 L 1604.8 791.174 C 1608.25 793.737 1612.2 796.305 1615.2 799.385 C 1618.58 802.862 1618.32 806.953 1618.39 811.488 A 148.317 148.317 0 0 1 1621.94 816.218 C 1625.87 821.71 1628.33 828.613 1626.97 835.412 C 1625.64 842.004 1620.79 847.089 1615.19 850.458 C 1602.4 858.148 1588.67 855.541 1575.11 852.094 C 1573.75 854.769 1572.34 858.14 1569.45 859.111 C 1567.43 856.568 1567.18 853.609 1566.59 850.506 C 1560.68 846.956 1554.05 843.343 1549.67 837.9 C 1547.06 834.663 1545.71 831.975 1546.08 827.751 C 1547.6 825.545 1547.61 825.475 1550.15 824.669 C 1552.5 825.757 1552.51 826.117 1553.78 828.427 C 1557.87 835.406 1563 837.827 1570.51 840.252 L 1577.48 826.148 L 1575.99 825.017 C 1570.92 821.218 1567.55 817.838 1564.48 812.227 C 1559.42 802.981 1557.03 791.253 1560.27 781.003 C 1562.69 773.335 1568.17 767.641 1575.26 764.03 C 1578.17 762.545 1581.43 762.642 1584.44 763.909 C 1586.71 764.864 1587.44 765.751 1588.31 767.972 C 1585.67 773.424 1578.2 769.223 1571.65 776.774 C 1567.96 781.024 1566.69 786.549 1567.1 792.076 C 1567.92 803.13 1573.54 810.559 1581.48 817.542 C 1585.92 810.85 1589.37 803.438 1593.03 796.295 C 1590.97 795.854 1588.52 795.496 1586.6 794.664 C 1582.54 792.914 1579.91 787.978 1578.3 784.099 L 1579.86 781.503 C 1580.29 781.405 1580.72 781.276 1581.16 781.208 C 1587.16 780.279 1592.62 784.861 1597.4 787.902 C 1600 782.048 1600.95 772.981 1605.28 768.439 C 1607.22 768.267 1608.61 768.122 1610.35 767.238 C 1612.18 763.77 1611.09 762.336 1611.76 758.945 C 1612.36 755.888 1614.36 754.941 1616.61 753.142 z"/>
<path transform="translate(0,0)" fill="rgb(254,254,254)" d="M 1597.47 807.717 C 1598.91 817.766 1612.01 819.818 1617.66 827.415 C 1619.6 830.024 1619.49 831.78 1618.95 834.862 C 1615.11 840.302 1608.54 844 1602.37 846.173 C 1594.22 847.791 1587.62 845.375 1580.39 841.926 C 1583.82 829.007 1590.15 818.734 1597.47 807.717 z"/>
<path transform="translate(0,0)" fill="rgb(35,31,32)" d="M 1597.14 830.281 C 1597.93 830.435 1598.9 830.586 1599.62 830.936 C 1602.03 832.115 1602.46 833.144 1603.48 835.433 C 1603.1 838.858 1602.31 839.85 1600.16 842.358 C 1599.8 842.284 1599.45 842.226 1599.1 842.135 C 1596.16 841.371 1594.94 840.481 1593.52 837.944 C 1593.79 834.505 1595.13 832.898 1597.14 830.281 z"/>
<path transform="translate(0,0)" fill="rgb(254,254,254)" d="M 1721.65 650.11 C 1746.7 651.105 1772.4 651.151 1797.29 654.026 C 1804.04 654.806 1814.43 655.611 1818.9 661.196 C 1819.3 662.795 1819.44 664.068 1819.16 665.707 C 1813.96 696.583 1805.64 726.849 1799.58 757.538 C 1794.27 784.364 1791.8 813.062 1783.52 839.031 C 1777.67 857.383 1769.17 875.12 1761.85 892.942 C 1753.84 912.475 1746.69 932.256 1739.28 952.013 L 1710.98 951.887 L 1625.79 952.074 C 1622.4 944.406 1619.65 936.374 1616.68 928.535 L 1619.97 925.726 C 1632.04 915.53 1641.15 902.752 1651.14 890.641 C 1673.05 864.077 1693.67 840.158 1709.27 809.016 C 1712.13 803.307 1716.04 796.512 1716.56 790.043 C 1715.38 788.226 1714.3 786.198 1714.17 783.992 C 1713.78 777.819 1715.3 770.689 1715.83 764.504 A 3467.31 3467.31 0 0 0 1718.78 722.304 C 1720.29 698.289 1719.68 674.015 1721.65 650.11 z"/>
<path transform="translate(0,0)" fill="rgb(35,31,32)" d="M 1732.79 835.996 C 1734.9 835.977 1737.85 835.832 1739.8 836.704 C 1742.2 837.774 1742.45 838.891 1742.92 841.155 C 1741.57 844.215 1740.11 845.387 1737.51 847.284 C 1734.68 847.267 1731.54 847.42 1729.18 845.545 C 1727.11 843.893 1727.01 843.121 1726.91 840.704 C 1728.43 837.924 1730.05 837.263 1732.79 835.996 z"/>
<path transform="translate(0,0)" fill="rgb(35,31,32)" d="M 1736.73 798.25 C 1742.45 797.947 1750.63 796.73 1756.09 798.498 C 1758.11 799.151 1758.03 799.211 1758.95 801.223 C 1758.2 803.837 1756.61 804.852 1754.58 806.456 C 1750.62 807.132 1746.78 807.779 1742.75 807.554 C 1739.08 807.349 1736.48 806.994 1734.01 804.163 C 1734.33 801.188 1734.99 800.594 1736.73 798.25 z"/>
<path transform="translate(0,0)" fill="rgb(35,31,32)" d="M 1744.76 749.063 A 69.675 69.675 0 0 1 1755.11 748.986 C 1760.77 749.33 1769.91 750.347 1773.78 754.663 C 1772.77 757.086 1772.1 757.194 1769.83 758.607 C 1763.96 759.164 1757.64 759.529 1751.75 758.991 C 1747.39 758.592 1743.67 758.341 1740.78 754.825 C 1741.31 751.594 1742.4 751.225 1744.76 749.063 z"/>
<path transform="translate(0,0)" fill="rgb(35,31,32)" d="M 1738.92 701.103 C 1748.12 700.669 1762.39 698.881 1771.14 701.375 C 1773.3 701.992 1773.38 702.313 1774.31 704.2 C 1772.98 707.162 1772.17 707.616 1769.65 709.513 C 1761.07 711.057 1746.24 712.891 1738.19 709.325 C 1736.1 708.397 1736.06 708.374 1735.2 706.162 C 1736 703.732 1737.03 702.787 1738.92 701.103 z"/>
<path transform="translate(0,0)" fill="rgb(35,31,32)" d="M 1713.19 876.292 C 1715.49 876.842 1717.47 877.896 1719.23 879.47 C 1725.14 884.738 1729.58 892.743 1730.12 900.707 C 1730.41 904.9 1729.33 907.12 1726.69 910.293 C 1725.85 910.099 1725.54 910.066 1724.7 909.668 C 1719.66 907.294 1712.46 890.355 1710.98 884.68 C 1710.11 881.325 1711.61 879.106 1713.19 876.292 z"/>
<path transform="translate(0,0)" fill="rgb(35,31,32)" d="M 1658.69 918.976 C 1667.52 918.937 1680.95 917.604 1689 921.288 C 1691.51 922.435 1692.03 923.35 1692.91 925.87 C 1692.1 928.795 1691.26 929.824 1689.21 931.918 C 1682.29 933.569 1671.94 933.732 1665.01 932.162 C 1661.36 931.334 1658.77 930.095 1656.77 926.838 C 1656.18 923.689 1657.38 921.73 1658.69 918.976 z"/>
<path transform="translate(0,0)" fill="rgb(254,254,254)" d="M 1098.5 429.484 C 1099.83 429.659 1101.16 429.811 1102.46 430.19 C 1105.76 431.153 1110.24 433.366 1111.7 436.711 C 1114.27 442.572 1112.33 450.326 1109.78 455.809 C 1090.98 496.3 996.262 536.246 954.674 556.09 A 3382.12 3382.12 0 0 1 761.334 643.108 C 695.282 669.794 627.462 693.066 560.546 717.494 C 540.006 703.032 531.899 687.466 521.394 665.25 L 520.716 663.469 C 524.695 658.547 622.011 624.203 636.404 618.892 A 4065.52 4065.52 0 0 0 986.859 468.282 C 990.762 478.768 993.395 490.378 994.846 501.457 C 995.717 508.103 996.016 515.264 997.676 521.741 C 998.495 524.937 1000.35 526.16 1003.05 527.733 C 1004.6 527.695 1003.85 527.908 1005.27 526.968 C 1013.33 512.662 1003.68 478.791 999.943 463.371 C 1031.5 449.857 1063.84 432.968 1098.5 429.484 z"/>
<path transform="translate(0,0)" fill="rgb(254,254,254)" d="M 1012.74 1542.41 L 1022.3 1541.79 C 1028.98 1575.22 1035.61 1608.79 1040.32 1642.56 A 1746.58 1746.58 0 0 1 1054.8 1826.38 C 1001.34 1827.79 947.722 1827.46 894.334 1830.76 L 850.597 1832.45 A 9080.75 9080.75 0 0 1 884.637 1645.36 C 890.417 1615.63 897.561 1586.05 902.767 1556.23 C 939.529 1552.52 975.98 1546.12 1012.74 1542.41 z"/>
<path transform="translate(0,0)" fill="rgb(254,254,254)" d="M 819.247 287.231 C 832.435 286.517 846.098 289.462 858.124 294.82 C 921.535 323.071 959.778 397.168 983.474 459.09 C 961.998 466.888 941.594 477.401 920.721 486.65 L 783.531 547.722 C 726.843 572.631 668.483 593.233 610.758 615.508 C 579.248 627.693 548.499 641.712 516.957 653.758 C 502.164 624.919 492.359 584.591 486.191 552.784 C 478.62 513.747 474.933 464.65 498.627 430.048 A 71.7106 71.7106 0 0 1 508.043 418.898 C 558.828 369.948 632.885 406.819 686.952 381.346 C 734.073 359.146 770.831 296.466 819.247 287.231 z"/>
<path transform="translate(0,0)" fill="rgb(35,31,32)" d="M 748.195 366.768 C 749.821 366.852 751.403 367.105 753.014 367.331 L 754.512 369.346 C 755.496 375.265 753.61 380.456 751.059 385.778 C 744.122 400.251 733.435 411.011 717.918 416.073 C 703.595 420.745 691.487 419.033 678.297 412.428 C 676.796 411.239 674.943 409.686 674.199 407.872 C 673.257 405.58 673.554 404.647 674.713 402.756 C 678.136 402.424 680.365 404.423 683.285 405.886 C 693.745 411.127 707.316 410.223 718.212 406.476 C 738.17 399.612 739.818 383.862 747.76 367.636 L 748.195 366.768 z"/>
<path transform="translate(0,0)" fill="rgb(254,254,254)" d="M 1197.2 1409.18 L 1198.65 1409.47 C 1199.06 1410.28 1199.31 1410.63 1199.42 1411.64 C 1200.54 1421.55 1196.02 1446.88 1194.59 1457.72 C 1185.67 1524.99 1170.82 1590.43 1155.66 1656.48 C 1142.6 1713.34 1128.47 1769.67 1109.71 1824.97 C 1102.38 1846.56 1094.84 1869.53 1083.34 1889.33 C 1079.04 1891.33 1074.49 1892.63 1069.97 1894.06 C 1077.66 1782.76 1060.72 1648.34 1029.2 1541.69 C 1036.44 1541.14 1045.15 1541.17 1052.05 1538.82 C 1055.63 1537.6 1057.98 1535.87 1059.65 1532.38 C 1059.49 1530.12 1059.51 1529.15 1057.35 1527.78 C 1049.82 1523.01 891.977 1544.8 884.759 1548.95 C 882.995 1549.96 882.806 1551.1 882.147 1552.85 L 882.922 1553.98 C 886.079 1554.95 888.661 1555.88 891.453 1557.66 C 892.806 1560.06 893.363 1561.5 892.853 1564.32 C 891.224 1573.32 887.788 1582.69 885.491 1591.62 A 1352.3 1352.3 0 0 0 872.083 1648.79 A 5370.61 5370.61 0 0 0 844.5 1777.76 C 837.935 1810.3 831.947 1843.1 824.161 1875.38 C 821.527 1874.16 818.769 1872.84 816.493 1871.02 C 806.82 1863.29 800.473 1841.49 795.951 1830.09 C 760.642 1741.09 740.707 1645.68 724.645 1551.59 C 718.158 1513.58 711.351 1475.97 707.728 1437.52 C 817.685 1465.66 974.871 1474.24 1085.59 1446.25 C 1105.41 1441.24 1125.4 1435.27 1144.52 1428.03 C 1161.18 1421.73 1178.67 1413.11 1196.04 1409.41 C 1196.43 1409.33 1196.81 1409.26 1197.2 1409.18 z"/>
<path transform="translate(0,0)" fill="rgb(254,254,254)" d="M 1649.74 420.455 C 1676.97 419.399 1704.97 420.447 1732.22 421.451 A 4114.88 4114.88 0 0 0 1710.56 700.808 C 1709.38 726.755 1705.14 753.275 1706.04 779.192 A 230.248 230.248 0 0 0 1631.46 731.01 C 1600.53 718.773 1581.34 716.707 1555.24 694.337 C 1548.22 709.608 1536.01 724.054 1526.56 738.024 C 1514.49 755.849 1464.34 832.857 1463.39 848.974 C 1464.64 851.766 1465.63 852.255 1468.37 853.699 C 1475.82 857.631 1484 860.597 1491.68 864.108 C 1512.1 873.441 1532.48 883.347 1550.83 896.367 C 1551.06 904.323 1552.13 912.375 1552.87 920.306 C 1553.01 931.114 1554.33 941.978 1555.3 952.74 L 1327.93 953.022 C 1327.4 841.526 1332.67 730.188 1336.73 618.794 C 1338.95 557.744 1341.84 496.356 1340.77 435.271 C 1377.58 429.411 1415.31 430.191 1452.49 428.597 L 1649.74 420.455 z"/>
<path transform="translate(0,0)" fill="rgb(179,178,178)" d="M 1400.08 848.41 C 1400.49 848.637 1400.93 848.833 1401.32 849.092 C 1403.96 850.815 1405.15 853.818 1405.77 856.81 C 1406.45 860.127 1406.34 862.915 1404.4 865.763 C 1404.11 865.639 1403.82 865.519 1403.53 865.39 C 1400.21 863.897 1398.61 862.806 1397.42 859.15 C 1396.18 855.351 1398.1 851.532 1400.08 848.41 z"/>
<path transform="translate(0,0)" fill="rgb(35,31,32)" d="M 1451.16 881.528 C 1453.06 881.799 1453.39 881.94 1454.91 883.104 C 1456.91 889.231 1455.78 897.912 1453.78 903.968 C 1452.71 907.217 1451.43 907.67 1448.46 909.149 C 1445.57 906.893 1443.87 904.649 1443.49 900.897 C 1442.77 893.825 1447.03 886.882 1451.16 881.528 z"/>
<path transform="translate(0,0)" fill="rgb(35,31,32)" d="M 1581.14 633.602 C 1582.9 634.561 1583.96 635.165 1584.91 637.019 C 1589 645.044 1588.01 667.947 1584.51 675.932 C 1581.6 674.814 1579.77 673.695 1578.64 670.698 C 1575.57 662.577 1577.83 641.739 1581.14 633.602 z"/>
<path transform="translate(0,0)" fill="rgb(35,31,32)" d="M 1518.04 679.346 L 1521.12 679.936 C 1522.74 681.483 1522.43 680.699 1522.78 682.772 C 1524.36 692.253 1518.43 711.982 1513.17 719.741 L 1511.32 718.971 C 1510.15 717.473 1509.57 717.069 1509.23 715.122 C 1507.76 706.526 1513.38 686.418 1518.04 679.346 z"/>
<path transform="translate(0,0)" fill="rgb(35,31,32)" d="M 1624.16 590.263 L 1626.37 591.688 C 1627.35 594.545 1627.36 597.151 1627.33 600.139 C 1627.26 605.83 1625.1 651.841 1623.25 654.402 C 1622.54 655.382 1621.52 656.091 1620.65 656.936 C 1619.45 655.654 1618.55 654.647 1617.82 653 C 1614.4 645.335 1620.79 599.183 1624.16 590.263 z"/>
<path transform="translate(0,0)" fill="rgb(35,31,32)" d="M 1460.93 724.296 C 1463.14 725.352 1463.92 725.487 1464.75 728.005 C 1468.27 738.692 1467.09 781.136 1461.42 790.374 C 1461.03 790.23 1460.6 790.16 1460.25 789.942 C 1458.48 788.839 1457.72 787.502 1457.22 785.541 C 1454.87 776.211 1456.7 731.851 1460.93 724.296 z"/>
<path transform="translate(0,0)" fill="rgb(35,31,32)" d="M 1393.2 723.433 L 1395.14 724.873 C 1401.11 739.379 1399.53 829.059 1394.25 842.696 C 1392.82 842.258 1391.91 841.723 1390.64 840.954 C 1385.56 829.924 1388.82 738.066 1393.2 723.433 z"/>
<path transform="translate(0,0)" fill="rgb(35,31,32)" d="M 1583.42 476.423 C 1595.22 475.267 1649.76 472.974 1658.51 479.918 C 1663.44 488.335 1665.96 507.578 1663.46 516.934 C 1662.74 519.667 1661.43 521.868 1658.94 523.294 C 1655.54 525.246 1650.77 525.821 1646.91 526.08 C 1637.57 526.705 1627.72 525.626 1618.32 525.397 C 1601.77 524.996 1584.02 525.189 1567.57 526.762 C 1562.78 527.221 1555.92 528.709 1551.4 526.988 C 1549.26 526.173 1548.15 524.799 1547.8 522.529 C 1547.16 518.341 1550.12 514.419 1552.6 511.432 C 1556.56 506.679 1556.92 505.439 1557.33 499.228 C 1558.4 496.813 1558.67 495.595 1560.81 493.975 C 1564.6 497.576 1564.19 505.278 1564.49 510.299 C 1578.36 509.972 1592.19 508.612 1606.07 508.291 C 1621.25 507.94 1636.52 508.782 1651.69 509.347 C 1651.06 501.916 1650 494.243 1650.6 486.798 C 1620.13 484.124 1589.96 488.442 1559.58 488.252 C 1555.82 488.229 1554.59 488.04 1551.89 485.39 C 1551.61 482.765 1551.7 482.76 1553.13 480.521 C 1560.87 476.051 1574.5 476.878 1583.42 476.423 z"/>
<path transform="translate(0,0)" fill="rgb(35,31,32)" d="M 1429.17 473.83 C 1432.01 474.12 1434.33 474.342 1436.5 476.299 C 1439.53 479.034 1439.17 484.845 1439.26 488.557 C 1445.7 490.489 1453.4 493.283 1458.54 497.701 C 1462.68 501.251 1464.99 504.439 1465.44 509.919 C 1464.24 512.213 1464.08 512.795 1461.38 513.497 C 1454.48 515.29 1446.55 509.082 1441.12 505.685 C 1439.56 515.612 1439.42 525.971 1439.45 536.009 A 91.5867 91.5867 0 0 1 1447.84 539.174 C 1456.57 542.903 1464.17 549.49 1467.48 558.571 A 27.2869 27.2869 0 0 1 1466.15 580.549 C 1460.3 591.709 1449.3 595.193 1438.11 598.683 C 1437.05 600.154 1435.99 601.628 1434.84 603.027 C 1432.95 605.317 1430.8 607.113 1427.62 607.035 C 1423.06 606.923 1419.34 602.634 1416.19 599.739 C 1415.13 599.04 1415.59 599.216 1414.36 598.907 C 1405.64 596.715 1397.09 594.688 1389.33 589.903 C 1386.04 587.876 1383.47 585.888 1382.63 581.966 C 1383.08 579.188 1384.09 578.414 1386.02 576.533 C 1391.25 574.855 1409.94 584.661 1416.74 586.43 L 1418.43 586.862 A 1230.1 1230.1 0 0 0 1419.11 549.306 C 1410.42 548.244 1400.51 546.619 1392.96 542.012 C 1387.89 538.922 1384.06 534.297 1382.84 528.4 C 1381.24 520.663 1384.49 512.606 1388.93 506.394 C 1397.6 494.272 1408.58 489.761 1422.7 487.484 C 1423.39 481.268 1424.96 478.445 1429.17 473.83 z"/>
<path transform="translate(0,0)" fill="rgb(254,254,254)" d="M 1439.1 551.344 C 1441.97 552.639 1444.85 553.911 1447.28 555.943 C 1450.72 558.811 1453.38 562.927 1453.57 567.497 C 1453.78 572.423 1451.74 576.119 1448.59 579.708 C 1445.32 581.917 1441.59 583.216 1437.95 584.694 C 1437.94 573.51 1438.2 562.497 1439.1 551.344 z"/>
<path transform="translate(0,0)" fill="rgb(254,254,254)" d="M 1417.25 498.901 C 1419.71 499.01 1418.51 498.725 1420.84 499.826 C 1423.25 509.07 1420.34 527.072 1418.3 536.533 C 1412.97 536.101 1407.72 535.199 1402.45 534.361 C 1398.78 532.425 1395.73 530.101 1394.23 526.069 C 1393.01 522.786 1393.44 519.4 1394.9 516.268 C 1399.27 506.894 1408.2 502.482 1417.25 498.901 z"/>
<path transform="translate(0,0)" fill="rgb(254,254,254)" d="M 1072.64 989.923 C 1081.91 996.321 1091.1 1007.33 1100.06 1014.9 C 1127.29 1037.88 1155.18 1060.39 1181.56 1084.33 C 1236.68 1134.33 1335.92 1239.41 1414.92 1239.47 C 1444.29 1239.5 1475.36 1225.43 1495.84 1204.59 C 1533.26 1166.51 1538.98 1110.13 1538.78 1059.38 C 1565.89 1069.91 1593.67 1079.22 1620.55 1090.21 A 225.986 225.986 0 0 0 1617.8 1096.91 C 1614.65 1104.97 1609.64 1117.24 1613.29 1125.6 L 1615.02 1126.02 C 1623.49 1120.42 1625.39 1101.98 1627.48 1092.55 L 1655.12 1103.18 C 1652.53 1113.25 1644.39 1133.27 1648.1 1143.08 L 1649.61 1143.28 C 1659.72 1134.95 1660.82 1118.43 1662.4 1106.29 C 1680.31 1111.68 1698.49 1116.8 1715.88 1123.68 C 1715.6 1125.3 1715.3 1126.89 1714.96 1128.49 C 1693.37 1229.57 1631.08 1321.35 1554.02 1388.73 C 1530.39 1409.4 1504.92 1427.29 1478.56 1444.25 C 1389.41 1498.23 1304.04 1523.91 1199.48 1509.64 A 180.751 180.751 0 0 0 1200.52 1503.62 C 1214.33 1410.79 1217.97 1301.18 1201.73 1208.84 C 1200.29 1200.62 1197.72 1180.47 1192.64 1174.55 C 1191.71 1173.47 1191.8 1173.86 1190.17 1173.9 C 1188.78 1176.55 1188.92 1179.47 1189.12 1182.39 C 1189.79 1192.19 1192.21 1202.02 1193.5 1211.77 A 1046.74 1046.74 0 0 1 1199 1270.55 C 1201.89 1314.69 1200.81 1358.39 1199.97 1402.55 C 1196.16 1402.24 1192.71 1402.15 1188.96 1403.01 C 1169.79 1407.41 1150.82 1415.07 1132.04 1420.97 C 1111.5 1427.42 1090.49 1432.4 1069.71 1437.98 C 1067.71 1364.05 1060.91 1290.62 1055.52 1216.9 C 1055.33 1214.24 1054.28 1209.79 1055.96 1207.8 C 1063.33 1212 1076.04 1209.7 1084.27 1208.29 C 1095.49 1206.36 1111.76 1202.94 1118.67 1193.13 L 1117.68 1191.77 C 1106.24 1191.39 1095.19 1197.59 1084.19 1200.22 C 1074.29 1202.59 1064.18 1204.3 1054.22 1206.43 C 1051.69 1185.37 1050.98 1163.97 1049.2 1142.82 C 1047.08 1117.81 1043.89 1092.85 1040.9 1067.93 C 1051.8 1064.83 1081.41 1061.85 1088.45 1054.8 C 1090.5 1052.74 1090.82 1049.72 1090.35 1046.99 C 1087.2 1028.65 1067.48 1011.17 1053.05 1001.29 A 1205.99 1205.99 0 0 0 1072.64 989.923 z"/>
<path transform="translate(0,0)" fill="rgb(35,31,32)" d="M 1581.14 1082.45 C 1581.65 1082.59 1582.19 1082.66 1582.67 1082.88 C 1584.33 1083.66 1584.58 1084.97 1584.69 1086.63 C 1585.29 1095.63 1581.29 1116.25 1575.12 1122.9 C 1573.62 1121.67 1572.89 1120.79 1571.79 1119.24 C 1569.88 1109.27 1575.7 1090.7 1581.14 1082.45 z"/>
<path transform="translate(0,0)" fill="rgb(35,31,32)" d="M 1125.48 1273.19 C 1134.5 1272.74 1141.27 1273.88 1149.37 1278.06 C 1161.68 1284.42 1173.78 1297.03 1177.61 1310.52 C 1180.89 1322.06 1178.11 1334.36 1172.17 1344.54 C 1163.77 1358.94 1151.57 1365.47 1136.11 1369.79 C 1126.44 1370.96 1117.5 1371.03 1108.27 1367.2 C 1098.57 1363.17 1090.29 1355.23 1086.5 1345.36 C 1081.48 1332.27 1085.87 1316.7 1091.73 1304.55 C 1098.92 1289.68 1109.74 1278.73 1125.48 1273.19 z"/>
<path transform="translate(0,0)" fill="rgb(254,254,254)" d="M 1148.6 1294.52 C 1153.54 1296.33 1160.72 1304.7 1163.75 1309.07 L 1162.91 1311.07 C 1161.1 1311.97 1159.24 1312.61 1157.34 1313.29 C 1152.36 1311.27 1151.85 1300.41 1149.16 1295.51 C 1148.98 1295.18 1148.79 1294.85 1148.6 1294.52 z"/>
<path transform="translate(0,0)" fill="rgb(254,254,254)" d="M 1114.28 1293.01 C 1114.5 1294.37 1114.59 1293.86 1114.16 1295.1 C 1113.44 1297.17 1112.73 1299.16 1112.18 1301.29 C 1110.03 1309.61 1109.52 1316.54 1113.99 1324.24 L 1100.19 1327.24 L 1097.95 1326.9 C 1096.61 1325.05 1096.71 1325.84 1096.74 1323.93 C 1096.92 1313.55 1107.3 1300.06 1114.28 1293.01 z"/>
<path transform="translate(0,0)" fill="rgb(254,254,254)" d="M 1128.27 1294.68 C 1130.17 1295.1 1132.15 1295.51 1133.96 1296.24 C 1138.06 1297.89 1142.47 1302.49 1144.16 1306.55 C 1145.5 1309.76 1145 1312.17 1143.75 1315.28 C 1141.33 1318.06 1137.98 1318.5 1134.57 1319.41 C 1132.23 1320.04 1129.88 1320.69 1127.51 1321.22 C 1124.15 1321.97 1122.81 1322.7 1119.88 1320.86 C 1119.22 1319.6 1118.69 1318.45 1118.65 1316.99 C 1118.42 1309.46 1123.32 1300.04 1128.27 1294.68 z"/>
<path transform="translate(0,0)" fill="rgb(254,254,254)" d="M 1164.86 1321.98 L 1165.97 1323.12 C 1166.37 1328.44 1165.83 1332.48 1163.23 1337.22 C 1158.38 1346.07 1148.87 1352.55 1139.24 1355.06 C 1127.79 1358.04 1116.86 1356.74 1106.68 1350.84 C 1103 1347.47 1100.35 1343.77 1097.53 1339.7 C 1120.21 1335.18 1143.87 1332.2 1164.86 1321.98 z"/>
<path transform="translate(0,0)" fill="rgb(254,254,254)" d="M 1032.53 532.968 L 1033.42 533.131 C 1039.9 539.452 1045.26 548.738 1050.19 556.334 A 683.508 683.508 0 0 1 1114.44 684.061 C 1132 730.078 1157.79 808.887 1152.62 857.629 C 1151.49 868.245 1147.72 878.985 1143.33 888.654 C 1119.71 940.593 1060.45 976.199 1008.41 995.308 C 930.801 1023.81 832.193 1037.96 750.41 1022.36 C 709.115 1014.48 663.793 997.19 625.685 979.408 L 621.521 977.535 C 616.38 975.201 611.464 974.055 609.354 968.449 C 610.354 964.173 614.758 961.681 617.314 958.246 C 618.923 956.082 619.603 953.93 618.93 951.223 C 618.169 948.156 615.586 944.791 612.586 943.554 C 603.795 939.928 593.568 956.458 587.772 961.816 C 584.702 964.654 580.864 966.627 577.078 968.34 C 563.575 974.452 548.377 975.381 534.464 969.904 C 521.065 964.628 511.406 955.106 505.843 941.873 C 500.901 930.117 497.807 914.491 503.182 902.47 C 506.897 894.163 514.097 888.903 522.454 885.8 C 538.045 880.009 552.978 880.246 568.008 887.082 C 583.273 880.104 600.439 869.322 611.832 856.817 C 618.626 849.361 624.043 840.603 629.102 831.919 C 653.266 790.438 655.975 748.143 653.918 701.071 C 686.621 688.135 719.494 675.834 752.002 662.373 A 7729.53 7729.53 0 0 0 864.479 613.641 C 921.204 589.035 979.021 564.026 1032.53 532.968 z"/>
<path transform="translate(0,0)" fill="rgb(35,31,32)" d="M 998.092 929.85 L 1000.05 929.647 C 1001.71 930.598 1002.43 931.112 1003.75 932.578 C 1003.66 934.31 1003.33 934.586 1002.12 935.906 C 996.487 942.059 985.426 945.015 977.515 945.329 C 974.947 943.771 973.7 943.233 972.637 940.378 C 975.21 935.954 990.763 933.963 996.827 930.571 L 998.092 929.85 z"/>
<path transform="translate(0,0)" fill="rgb(35,31,32)" d="M 548.016 911.182 C 552.259 911.407 556.036 912.26 559.588 914.674 C 565.21 918.494 568.842 924.049 569.821 930.808 C 570.701 936.886 569.259 943.102 565.407 947.934 C 561.152 953.272 555.943 954.595 549.439 955.321 C 545.862 954.413 542.253 953.369 538.94 951.71 C 533.476 948.975 528.844 944.13 527.034 938.223 C 525.503 933.226 526.278 927.453 528.932 922.975 C 533.322 915.567 540.143 913.138 548.016 911.182 z"/>
<path transform="translate(0,0)" fill="rgb(254,254,254)" d="M 542.842 921.067 C 545.172 920.861 547.744 920.536 550.065 920.888 C 554.394 921.545 558.686 925.04 560.992 928.649 C 562.788 931.461 563.425 934.767 562.612 938.02 C 561.537 942.323 559.06 944.472 555.352 946.602 C 553.74 946.717 552.101 946.827 550.485 946.724 C 545.497 946.407 540.272 943.777 537.162 939.844 C 535.188 937.348 534.173 934.295 534.796 931.101 C 535.762 926.152 538.831 923.708 542.842 921.067 z"/>
<path transform="translate(0,0)" fill="rgb(35,31,32)" d="M 774.362 699.044 C 779.23 698.877 783.559 699.446 788.099 701.326 C 795.463 704.374 801.169 710.048 804.051 717.513 C 806.874 724.827 806.775 733.579 803.529 740.743 C 799.525 749.578 793.067 753.563 784.437 756.987 A 31.8468 31.8468 0 0 1 772.269 754.851 C 764.407 751.751 757.834 745.308 754.8 737.4 A 28.521 28.521 0 0 1 755.507 715.252 C 759.39 706.691 765.875 702.327 774.362 699.044 z"/>
<path transform="translate(0,0)" fill="rgb(35,31,32)" d="M 980.955 608.149 C 987.879 607.723 993.973 607.763 1000.45 610.564 C 1008.26 613.94 1014.74 620.421 1017.71 628.441 C 1020.07 634.849 1020.11 642.235 1016.89 648.361 C 1012.99 655.773 1007.3 658.578 999.702 660.975 C 992.248 662.082 985.635 661.455 978.808 658.031 C 970.854 654.043 964.208 647.176 961.422 638.628 C 959.396 632.413 959.337 625.287 962.686 619.511 C 966.651 612.676 973.627 609.858 980.955 608.149 z"/>
<path transform="translate(0,0)" fill="rgb(35,31,32)" d="M 890.813 682.584 C 896.807 683.238 998.011 713.307 1002.06 715.906 C 1004.6 717.534 1004.54 718.559 1005.24 721.313 C 1001.79 730.563 970.898 772.717 962.832 784.664 C 961.873 786.059 960.552 788.171 959.149 789.134 C 956.955 790.64 952.126 791.534 949.584 790.638 C 948.331 790.197 947.634 789.3 947.211 788.041 C 943.441 776.823 970.762 739.736 977.355 729.076 C 963.661 725.396 898.529 704.209 888.506 697.853 C 886.888 696.827 885.908 694.743 885.719 692.863 C 885.286 688.557 888.185 685.551 890.813 682.584 z"/>
<path transform="translate(0,0)" fill="rgb(35,31,32)" d="M 1053.53 740.639 C 1054.88 740.633 1056.69 740.503 1058.05 740.788 C 1060.39 741.279 1062.5 742.367 1063.65 744.557 C 1065.35 747.791 1064.62 751.83 1063.62 755.157 C 1055.48 782.454 1031.99 801.218 1008.34 814.593 C 1012.32 819.633 1015.56 825.132 1017.54 831.261 C 1021.73 844.167 1021.48 858.973 1015.01 871.109 C 1007.47 885.263 992.977 892.514 978.222 896.836 C 966.036 900.405 951.495 902.952 939.953 896.217 C 924.462 887.178 921.476 862.839 917.511 846.914 C 898.902 847.323 885.897 846.095 868.986 838.081 C 863.328 834.254 859.489 829.411 855.174 824.201 C 853.318 828.719 851.59 833.526 849.253 837.812 C 847.531 840.972 845.243 843.638 841.789 844.616 L 840.466 843.183 C 839.751 838.008 840.84 833.65 842.661 828.794 C 845.515 821.181 850.755 808.252 858.795 805.161 C 860.663 804.443 859.847 804.568 861.94 805.488 C 863.473 810.397 860.532 814.767 858.386 819.045 A 453.668 453.668 0 0 0 866.618 823.543 C 895.738 839.104 925.298 832.579 955.598 823.297 C 986.166 813.933 1027.97 799.046 1044.24 769.036 C 1048.79 760.634 1048.07 749.957 1052.55 742.249 C 1052.86 741.705 1053.2 741.176 1053.53 740.639 z"/>
<path transform="translate(0,0)" fill="rgb(254,254,254)" d="M 996.44 821.833 L 997.556 821.793 C 1001.4 823.591 1003.35 828.891 1004.81 832.647 C 1008.41 841.968 1008.71 852.131 1004.37 861.276 C 999.366 871.837 989.465 878.661 978.674 882.391 C 968.206 886.009 953.171 888.45 943.035 883.168 C 935.184 879.077 933.416 870.574 930.86 862.81 L 925.347 845.159 C 935.571 843.658 945.317 841.456 955.149 838.268 A 781.467 781.467 0 0 0 959.511 850.681 C 961.05 854.894 963.368 862.059 967.669 864.071 L 968.823 862.862 C 970.284 853.314 966.31 843.47 963.562 834.416 C 974.885 830.932 985.781 827.041 996.44 821.833 z"/>
</svg>