<svg version="1.1" xmlns="http://www.w3.org/2000/svg" style="display: block;" viewBox="0 0 2048 2048" width="1024" height="1024">
<path transform="translate(0,0)" fill="rgb(254,254,254)" d="M 0 0 L 2048 0 L 2048 2048 L 0 2048 L 0 0 z"/>
<path transform="translate(0,0)" fill="rgb(35,31,32)" d="M 1311.41 1704.19 C 1314.25 1703.87 1316.33 1703.85 1319.15 1704.32 L 1319.6 1705.43 C 1316.46 1707.72 1312.33 1708.75 1308.92 1710.74 C 1297.38 1717.46 1291.44 1726.79 1287.95 1739.31 C 1287.31 1741.11 1286.57 1742.84 1285.8 1744.59 C 1284.2 1738.99 1286.45 1729.25 1288.74 1724.09 C 1293.38 1713.63 1301.12 1708.1 1311.41 1704.19 z"/>
<path transform="translate(0,0)" fill="rgb(35,31,32)" d="M 1599.79 1128.15 C 1601.92 1127.99 1603.03 1128.15 1605 1128.97 L 1605.52 1130.73 C 1596.94 1137.53 1567.1 1143.35 1554.72 1147.99 L 1551.99 1148.66 L 1550 1147.19 L 1550.08 1145.06 C 1556.14 1139.39 1590.01 1130.93 1599.79 1128.15 z"/>
<path transform="translate(0,0)" fill="rgb(35,31,32)" d="M 297.39 1543.78 C 298.138 1544.58 298.617 1545.41 298.873 1546.51 C 299.633 1549.78 299.214 1554.25 299.437 1557.7 C 300.137 1568.55 302.589 1587.04 310.947 1594.64 C 316.263 1599.47 325.863 1604 329.636 1609.57 L 328.502 1612.04 A 51.0897 51.0897 0 0 1 324.998 1610.74 C 312.184 1605.33 303.049 1593.19 298.2 1580.45 C 293.872 1569.09 292.295 1555.09 297.39 1543.78 z"/>
<path transform="translate(0,0)" fill="rgb(35,31,32)" d="M 1268.09 1649.47 L 1270.08 1650.06 L 1270 1651.66 A 85.5398 85.5398 0 0 0 1266.92 1654.64 C 1245.93 1676.12 1244.9 1705.45 1245.22 1733.49 C 1244.98 1733.21 1244.7 1732.95 1244.49 1732.64 C 1238.88 1724.32 1239.85 1700.65 1241.73 1691.04 C 1244.92 1674.74 1254.16 1658.72 1268.09 1649.47 z"/>
<path transform="translate(0,0)" fill="rgb(35,31,32)" d="M 828.655 217.392 C 832.053 217.223 835.099 217.704 838.278 218.942 C 840.285 219.724 840.104 219.274 841.016 221.4 C 838.568 223.823 825.999 221.486 821.78 221.736 C 814.843 222.146 805.47 226.324 799.157 229.281 C 773.356 241.366 752.274 262.843 742.551 289.747 C 741.721 293 740.681 295.955 739.397 299.054 L 738.655 298.785 C 739.631 283.479 748.939 268.152 758.478 256.639 C 775.935 235.571 801.239 220.132 828.655 217.392 z"/>
<path transform="translate(0,0)" fill="rgb(35,31,32)" d="M 555.605 1044.27 L 557.54 1044.22 C 548.913 1048.88 538.144 1051.33 528.872 1054.65 C 499.828 1065.07 467.343 1075.28 441.562 1092.21 C 441.456 1092.18 441.344 1092.18 441.245 1092.13 C 438.977 1091.14 438.49 1091.28 437.439 1088.96 C 437.618 1088.65 437.763 1088.31 437.975 1088.02 C 448.558 1073.5 534.349 1049.73 555.605 1044.27 z"/>
<path transform="translate(0,0)" fill="rgb(35,31,32)" d="M 1603.16 1085.94 C 1605.24 1086 1604.85 1086.08 1606.25 1087.38 C 1607.64 1086.81 1608.87 1086.46 1610.35 1086.21 L 1610.73 1087.49 C 1604.12 1095.58 1531.61 1115.63 1516.44 1120.72 C 1515.07 1121.34 1513.55 1122.07 1512.06 1122.31 C 1509.93 1122.65 1507.39 1122.23 1505.7 1120.89 C 1505.9 1120.36 1506.02 1119.79 1506.32 1119.31 C 1507.62 1117.26 1509.84 1116.45 1512.02 1115.83 C 1521.98 1113.01 1531.77 1108.94 1541.75 1105.91 C 1561.79 1099.81 1584.29 1094.91 1603.16 1085.94 z"/>
<path transform="translate(0,0)" fill="rgb(35,31,32)" d="M 273.034 1563.55 C 275.461 1566.23 279.904 1590.74 284.723 1599.01 C 291.244 1610.2 303.539 1612.72 306.921 1617.64 C 306.051 1619.39 306.667 1618.84 304.729 1619.67 C 297.156 1622.91 284.459 1622.31 277.064 1619.24 C 266.462 1614.83 260.801 1606.1 256.574 1595.94 C 256.479 1595.6 256.376 1595.26 256.29 1594.92 C 255.078 1590.09 253.16 1582.95 255.751 1578.46 C 259.378 1578.79 263.043 1601.83 268.833 1607.52 C 275.604 1614.18 285.764 1615.12 294.745 1615.16 C 283.845 1605.71 274.188 1593.86 270.998 1579.4 C 269.564 1572.9 269.367 1569.23 273.034 1563.55 z"/>
<path transform="translate(0,0)" fill="rgb(35,31,32)" d="M 1838.07 891.614 C 1840.24 892.138 1842.14 892.772 1844 894.034 C 1855.26 901.683 1864.59 916.763 1866.66 930.033 C 1872.24 965.855 1852.22 1004.31 1831.82 1032.16 C 1831.26 1031.6 1830.21 1030.6 1829.82 1029.94 C 1828.85 1028.29 1829.03 1027.03 1829.83 1025.4 C 1831.74 1021.54 1835.69 1018.2 1838.04 1014.45 C 1847.31 999.688 1854.32 984.041 1858.37 967.065 C 1863.81 944.281 1865.48 928.666 1849.66 909.612 C 1845.93 905.124 1840.54 900.59 1837.73 895.552 C 1836.86 893.987 1837.59 893.222 1838.07 891.614 z"/>
<path transform="translate(0,0)" fill="rgb(35,31,32)" d="M 1825.57 954.767 C 1824.64 941.658 1821.62 929.356 1815.87 917.487 C 1812.93 911.434 1801.94 899.164 1801.58 894.518 C 1803.28 892.884 1803.52 893.252 1805.75 893.024 C 1807.8 893.913 1809.25 894.729 1810.75 896.429 C 1822.11 909.376 1831.95 937.057 1830.37 954.164 C 1826.51 985.098 1808.45 1009.1 1784.39 1027.9 C 1777.66 1033.16 1749.56 1051.72 1742.4 1051.56 L 1742.57 1049.74 C 1750.87 1043.92 1760.66 1040.45 1769.25 1035.08 C 1797.41 1017.5 1819.12 991.252 1825.02 958.21 C 1825.23 957.066 1825.4 955.916 1825.57 954.767 z"/>
<path transform="translate(0,0)" fill="rgb(35,31,32)" d="M 282.934 1212.43 C 289.197 1210.86 299.297 1207.02 305.462 1210.22 C 304.596 1212.24 303.738 1212.32 301.748 1213.16 C 297.596 1214.92 292.109 1215.36 287.644 1216.32 C 281.574 1219.89 271.27 1221.52 264.375 1223.77 A 250.799 250.799 0 0 0 243.201 1231.98 C 220.607 1241.76 208.877 1251.67 188.765 1263.55 C 184.842 1265.87 183.697 1266.61 179.254 1265.44 L 179.738 1266.33 L 180.648 1264.12 L 179.491 1263.47 C 180.156 1261.74 180.042 1261.79 180.981 1260.26 C 183.972 1255.39 191.412 1251.85 196.227 1248.9 C 223.254 1232.39 251.707 1218.79 282.934 1212.43 z"/>
<path transform="translate(0,0)" fill="rgb(35,31,32)" d="M 1004.35 1637.4 C 1009.13 1637.07 1013.85 1636.85 1018.65 1636.83 L 1020.28 1638.54 L 1020.58 1637.76 L 1018.44 1638.69 L 1019.32 1637.41 L 1018.57 1639.39 L 1017.92 1638.78 C 983.822 1645.17 949.217 1646.58 915.278 1655.66 C 903.725 1658.76 894.506 1665.67 883.177 1668.96 L 881.518 1669.43 C 876.594 1670.82 871.905 1671.45 866.802 1670.94 C 864.562 1669.43 863.936 1668.43 862.867 1665.97 C 863.16 1664.16 863.025 1663.52 864.238 1662.04 C 868.055 1657.39 876.574 1654.67 882.212 1653.31 C 892.23 1650.88 902.181 1652.48 912.245 1651.08 C 943.724 1646.7 971.968 1640.21 1004.35 1637.4 z"/>
<path transform="translate(0,0)" fill="rgb(35,31,32)" d="M 965.678 1575.41 C 966.685 1575.43 968.01 1575.28 968.939 1575.73 C 971.039 1576.75 971.092 1577.26 971.786 1579.35 C 970.289 1581.9 968.44 1582.57 965.647 1583.29 C 957.526 1585.39 948.944 1585.3 940.714 1586.89 C 923.78 1590.14 906.952 1594.47 890.214 1598.63 C 862.977 1605.39 836.233 1614.25 809.767 1623.56 C 798.875 1627.39 788.269 1631.91 777.23 1635.33 L 774.576 1635.68 C 772.754 1633.6 772.257 1633.14 771.72 1630.47 C 778.885 1624.35 793.165 1620.84 802.119 1617.49 C 854.748 1597.85 909.403 1580.24 965.678 1575.41 z"/>
<path transform="translate(0,0)" fill="rgb(35,31,32)" d="M 339.954 1248.3 C 352.933 1245.53 369.772 1240.99 382.968 1242.67 L 382.07 1242.71 C 381.541 1243.09 381.048 1243.52 380.481 1243.84 C 373.978 1247.48 354.362 1250.38 346.218 1252.11 C 302.806 1263.67 260.927 1280.69 219.493 1297.9 C 211.952 1301.03 160.298 1325.1 156.982 1324.93 C 155.351 1324.85 154.689 1323.59 153.602 1322.51 C 153.399 1320.25 153.459 1319.76 154.953 1317.83 C 165.829 1303.75 313.901 1252.38 339.954 1248.3 z"/>
<path transform="translate(0,0)" fill="rgb(35,31,32)" d="M 880.861 246.123 C 889.811 235.267 908.96 224.814 922.936 223.807 C 925.761 223.604 927.335 223.868 929.734 225.318 L 929.989 227.339 C 926.768 230.83 914.479 231.029 909.113 233.228 C 869.844 249.32 851.07 291.612 852.467 331.889 C 853.072 349.351 858.226 363.147 866.475 378.348 C 853.262 366.323 848.587 348.415 847.741 331.017 C 846.786 311.372 849.329 284.238 862.26 268.304 C 842.094 266.199 825.159 274.129 809.8 286.637 A 373.256 373.256 0 0 0 802.812 292.539 C 791.906 307.209 783.848 322.311 782.85 340.927 C 781.866 359.289 787.222 377.726 799.756 391.453 C 805.149 397.36 811.625 402.162 817.006 408.162 L 817.911 409.187 A 69.1842 69.1842 0 0 1 799.073 395.636 C 785.058 381.612 778.502 362.705 778.767 343.04 C 778.984 326.873 785.465 304.453 797.216 292.853 C 798.64 290.478 800.416 288.329 802.315 286.319 C 819.572 268.054 841.796 262.106 866.072 261.738 C 870.33 255.806 875.158 250.681 880.861 246.123 z"/>
<path transform="translate(0,0)" fill="rgb(35,31,32)" d="M 810.479 441.039 C 812.242 440.973 813.724 440.952 815.475 441.206 C 833.769 443.862 856.402 453.055 874.874 457.965 C 902.032 465.184 929.591 470.936 956.795 478.084 C 975.086 482.89 1122.58 525.092 1127.88 530.05 C 1128.75 530.861 1129.33 531.934 1130.05 532.875 C 1115.89 530.843 1101.29 525.171 1087.4 521.442 C 1068.84 516.462 1050.11 512.125 1031.63 506.86 C 1011.39 501.094 991.416 494.394 971.191 488.568 C 935.848 478.386 899.57 471.704 864.386 461.065 C 851.408 457.141 820.252 448.81 810.479 441.039 z"/>
<path transform="translate(0,0)" fill="rgb(35,31,32)" d="M 562.193 972.067 L 565.382 972.053 L 566.265 972.968 C 563.285 978.086 522.247 992.157 513.507 996.003 C 468.284 1015.9 422.633 1039.71 380.884 1066.23 C 371.464 1072.21 360.183 1086.26 354.337 1089.38 C 352.104 1087.73 350.419 1086.11 348.555 1084.05 C 347.876 1081.33 347.533 1080.53 348.813 1077.87 C 357.37 1060.06 474.1 1004.66 497.482 994.903 A 634.981 634.981 0 0 1 562.193 972.067 z"/>
<path transform="translate(0,0)" fill="rgb(35,31,32)" d="M 1266.08 1747.89 C 1260.17 1738.17 1261.46 1722.15 1264.09 1711.39 C 1266.04 1703.46 1271.42 1687.95 1278.38 1683.41 C 1280.54 1682 1282.78 1681.36 1285.36 1682.03 C 1286.22 1682.25 1286.68 1682.63 1287.36 1683.1 C 1287.5 1686.77 1284.92 1688.94 1282.57 1691.56 C 1272.87 1702.33 1266.25 1721.73 1266.93 1736.16 C 1267.1 1739.77 1267.62 1743.87 1270.48 1746.39 C 1271.35 1747.16 1272.31 1747.83 1273.26 1748.5 C 1304.24 1748.24 1343.91 1748.09 1373.95 1753.03 C 1380.4 1753.63 1394.2 1753.18 1398.35 1758.11 C 1397.27 1760.47 1396.16 1760.98 1393.83 1761.89 C 1389.7 1763.52 1384.15 1763.87 1379.74 1764.61 C 1369.73 1765.88 1359.82 1766.93 1349.74 1767.54 C 1338.86 1768.23 1311.69 1771.96 1302.38 1770.93 C 1299.08 1770.57 1296.23 1768.85 1293.18 1767.66 L 1292.71 1770.69 C 1285.88 1772.07 1275.56 1772.11 1268.64 1770.95 C 1267.59 1771.75 1262.79 1771.79 1261.24 1771.94 C 1256.16 1772.11 1250.63 1772.73 1245.57 1772.44 A 864.647 864.647 0 0 1 1219.34 1773.25 C 1208.47 1774 1196.24 1775.07 1185.4 1774.13 C 1170.87 1775.85 1155.62 1775.1 1140.97 1775.31 C 1103.55 1777.29 1066.02 1776.29 1028.57 1777.14 A 13598.2 13598.2 0 0 1 639.252 1778.87 C 619.295 1778.69 599.373 1777.82 579.424 1777.39 C 568.497 1777.16 556.872 1777.81 546.021 1776.85 C 539.484 1776.26 532.947 1769.62 526.789 1770.75 L 526.503 1773.81 C 524.31 1774.34 524.117 1774.17 521.991 1773.33 L 523.781 1770.62 L 522.499 1770.02 C 520.844 1771.05 520.173 1771.53 518.195 1771.79 C 518.36 1769.73 518.627 1770.51 518.007 1769.34 C 514.623 1769.99 513.931 1771.01 511.423 1773.27 L 509.644 1773.15 L 509.803 1770.43 C 507.73 1771.36 508.429 1770.94 506.675 1772.1 C 502.677 1774.74 459.206 1773.04 451.209 1771.81 C 440.606 1772.35 429.079 1770.9 418.413 1770.47 C 413.694 1770.35 405.045 1771.1 401.039 1768.93 C 389.613 1771.26 340.845 1766.9 330.388 1762.75 C 331.294 1761.7 331.818 1761.7 333.098 1761.25 L 333.797 1758.98 C 327.549 1760.55 323.044 1756.26 316.909 1756.56 C 311.414 1756.83 305.99 1758.27 300.498 1758.62 C 291.574 1759.19 282.469 1758.48 273.501 1758.94 C 258.098 1759.74 231.073 1764.49 216.861 1761.1 L 217.105 1759.98 C 219.849 1758.64 222.448 1757.66 225.494 1757.26 C 234.984 1756.02 244.767 1756.06 254.318 1755.23 A 5226.95 5226.95 0 0 1 348.007 1747.65 C 372.377 1746.01 397.153 1743.93 421.578 1743.89 C 437.524 1740.91 466.067 1741.15 482.842 1740.57 C 497.815 1739.37 513.017 1739.44 528.043 1739.03 C 569.555 1737.89 611.053 1738.11 652.57 1737.67 A 10640.7 10640.7 0 0 1 994.545 1737.1 C 1049.61 1737.58 1104.61 1737.62 1159.67 1738.9 C 1190.28 1739.61 1234.6 1737.74 1262.79 1747.01 C 1252.02 1747.22 1217.27 1744.68 1209.86 1748.16 C 1217.66 1749.15 1261.19 1751.87 1264.78 1749.14 C 1265.8 1748.37 1265.44 1748.73 1266.08 1747.89 z"/>
<path transform="translate(0,0)" fill="rgb(35,31,32)" d="M 963.619 290.485 A 2087.15 2087.15 0 0 1 1258.15 311.767 A 1701.38 1701.38 0 0 1 1353.03 326.911 C 1386.38 333.48 1419.46 341.732 1452.41 350.031 C 1500.6 362.168 1549.34 375.802 1595.91 393.206 A 1181.6 1181.6 0 0 1 1690.43 434.214 C 1694.18 436.006 1698.34 437.493 1699.79 441.614 L 1698.62 442.716 C 1693.49 443.752 1688.54 442.373 1683.4 442.184 C 1679.74 442.05 1672.21 443.116 1669.85 446.171 C 1668.91 447.373 1668.61 449.593 1669.14 450.981 C 1673.15 461.589 1680.25 471.264 1685.21 481.509 A 398.89 398.89 0 0 1 1710.1 547.508 C 1772.45 548.208 1836.02 553.073 1896.34 569.631 C 1908.53 572.976 1922.03 576.235 1932.51 583.566 C 1936.93 586.652 1941.1 590.958 1941.93 596.501 C 1942.63 601.213 1940.61 605.405 1937.61 608.921 C 1910.09 641.243 1770.57 660.009 1726.19 664.252 C 1726.3 671.116 1726.81 678.497 1725.84 685.288 C 1723.67 700.634 1711.94 725.286 1705.29 740.268 C 1686.39 782.826 1652.06 820.075 1607.97 836.949 C 1559.31 855.57 1513.64 848.36 1467.1 827.615 C 1416.39 857.213 1379.46 875.632 1322.45 892.25 L 1325.87 901.851 C 1406.61 931.465 1500.34 929.06 1580.8 899.87 L 1590.26 904.028 C 1591.02 889.931 1591.88 874.557 1599.48 862.199 C 1605.09 853.082 1612.42 849.231 1622.46 846.766 C 1629.93 848.508 1634.92 850.995 1640.87 855.666 C 1650.05 843.056 1666.26 833.708 1681 829.113 C 1690.02 826.302 1699.31 825.817 1707.78 830.551 C 1714.45 834.272 1715.17 840.153 1717 846.923 C 1722.69 850.175 1730.1 850.644 1736.32 852.859 C 1741.2 854.595 1745.89 856.974 1747.96 862.003 C 1750.58 868.386 1746.67 876.386 1743.75 881.941 C 1746 882.236 1748.26 882.535 1750.48 882.983 C 1755.34 883.963 1763.4 888.061 1765.84 892.524 C 1773.68 906.836 1752.94 921.292 1754.33 926.068 C 1757.06 935.472 1761.8 936.472 1758.36 947.471 C 1751.92 968.041 1736.36 988.423 1717.04 998.425 C 1690.41 1012.22 1651.82 1014.32 1623.4 1005.47 A 156.181 156.181 0 0 1 1605.25 1020.18 C 1512.11 1084.64 1384.21 1114.44 1271.95 1102.21 C 1239.3 1098.66 1208.31 1088.75 1176.16 1083.03 C 1173.31 1085.4 1170.31 1087.61 1167.35 1089.85 C 1147.03 1083.61 1126.36 1076.64 1106.66 1068.66 C 1081.63 1092.17 1064.32 1123.28 1060.65 1157.44 C 1087.18 1160.14 1132.2 1176.09 1156.21 1188.61 C 1165.69 1193.56 1174.11 1199.69 1181.53 1207.4 C 1196.9 1223.35 1208.95 1242.99 1222.67 1260.4 C 1241.13 1283.84 1260.64 1306.44 1279.74 1329.35 C 1296.64 1349.62 1312.96 1370.4 1331.48 1389.24 C 1336.48 1394.33 1357.93 1413.27 1358.73 1418.12 C 1360.57 1429.17 1318.93 1483.57 1310.5 1496.35 C 1321.2 1489.71 1330.31 1480.91 1341.24 1474.6 C 1347.67 1479.09 1352.11 1483.98 1356.36 1490.59 C 1360.66 1486.67 1365.15 1483.96 1370.16 1481.07 C 1370.22 1469.01 1369.5 1455.85 1371.28 1443.95 C 1372.14 1438.14 1373.28 1432.96 1378.15 1429.31 C 1380.08 1428.83 1381.39 1428.53 1383.38 1429.14 C 1396.05 1433.03 1385.16 1462.11 1390.57 1471.77 C 1396.93 1469.81 1394.41 1447.74 1399.77 1439.96 C 1402.4 1436.15 1405.07 1434.23 1409.58 1433.38 C 1412.03 1434.05 1413.61 1434.46 1415.07 1436.71 C 1419.11 1442.9 1416.49 1451.62 1415.34 1458.3 L 1422.72 1453.77 C 1423.79 1451.09 1424.88 1448.39 1426.31 1445.88 C 1428.77 1441.57 1431.25 1436.81 1436.25 1435.4 C 1439.27 1436.14 1441.31 1438.94 1443.41 1441.1 C 1445.41 1441.6 1445.96 1441.6 1447.92 1440.67 C 1453.52 1438.02 1458.68 1433.34 1464.15 1430.17 C 1493.45 1413.19 1523.13 1395.76 1549.8 1374.8 C 1562.83 1364.56 1574.69 1349.15 1589.06 1341.37 C 1592.76 1342.31 1596.75 1343.3 1600.12 1345.1 C 1605.61 1348.03 1609.74 1352.81 1611.28 1358.88 C 1614.86 1373 1606.38 1387.6 1599.35 1399.28 C 1563.51 1458.78 1519.52 1510.35 1472.94 1561.5 C 1464.9 1570.33 1453.98 1585.88 1443.25 1591.02 C 1435.48 1594.74 1413.42 1592.84 1401.58 1595.78 C 1405.39 1603.82 1408.92 1611.67 1411.98 1620.04 C 1408.44 1628.61 1402.43 1635.9 1396.18 1642.66 C 1386.88 1652.73 1365.89 1672.93 1351.22 1672.87 C 1345.22 1672.85 1339.16 1669.03 1334.41 1665.71 C 1314.19 1651.56 1301.79 1631.18 1291.13 1609.36 C 1288.4 1603.79 1287.54 1597.27 1284.59 1591.92 C 1278.06 1580.08 1267.86 1569.65 1258.76 1559.71 C 1241.32 1583.37 1219.35 1604.4 1198.22 1624.69 C 1195.23 1624.42 1192.14 1624.94 1189.17 1625.22 C 1172.41 1601.76 1157.76 1576.61 1140.99 1553.07 C 1120.21 1523.9 1096.34 1496.48 1073.19 1469.17 A 1653.9 1653.9 0 0 0 1058.24 1450.89 C 1048.59 1439.31 1021.35 1404.89 1008.84 1398.82 C 995.728 1392.45 971.647 1391.28 956.802 1389.94 C 884.224 1458.49 790.203 1517.33 693.027 1542.3 C 596.76 1567.04 479.143 1570.56 379.786 1566.05 C 370.93 1565.65 344.793 1566.15 338.631 1561.82 C 332.129 1557.26 358.977 1499.45 356.237 1486.7 C 355.485 1486.19 354.886 1485.71 353.975 1485.44 C 344.395 1482.56 344.922 1497.41 335.469 1502.54 C 332.651 1504.07 330.035 1504.12 327.058 1503.07 C 318.864 1500.16 313.624 1487.11 309.868 1479.87 C 275.373 1513.74 235.956 1542.42 202.406 1577.03 C 190.228 1589.59 178.342 1602.51 167.857 1616.53 C 159.433 1627.8 152.199 1640.1 143.164 1650.89 C 138.252 1656.75 130.919 1663.09 122.865 1663.45 C 119.588 1663.59 116.828 1662.26 114.623 1659.9 C 109.788 1654.72 109.72 1646.53 110.243 1639.91 C 111.116 1628.89 113.813 1618.15 116.131 1607.38 C 118.593 1595.93 120.696 1584.55 123.991 1573.29 C 144.308 1503.88 196.714 1385.98 252.621 1339.34 C 266.031 1328.15 284.4 1320.97 302.024 1322.98 C 308.683 1323.73 316.81 1325.87 321.072 1331.48 C 325.219 1336.94 325.177 1343.89 324.362 1350.35 L 324.177 1351.73 A 634.763 634.763 0 0 0 381.575 1380.81 C 382.741 1373.25 383.62 1365.54 386.326 1358.35 C 381.032 1356.65 376.32 1355.1 372.254 1351.1 C 369.969 1348.85 367.656 1345.83 368.126 1342.41 C 368.465 1339.94 370.233 1337.83 372.101 1336.3 C 376.585 1332.62 382.867 1331.44 388.532 1331.64 C 399.774 1332.05 410.655 1335.95 421.607 1338.18 C 452.081 1344.39 484.149 1352.42 515.217 1354.26 C 570.812 1357.55 616.413 1324.43 655.924 1289.45 C 641.487 1267.68 632.146 1246.63 630.395 1220.14 C 628.722 1194.81 632.819 1160.56 650.247 1140.79 C 648.103 1139.27 645.891 1137.7 644.399 1135.49 C 637.945 1125.92 644.038 1100.87 646.128 1090.56 C 652.599 1058.64 664.859 1028.87 677.25 998.902 C 689.494 969.285 701.922 939.512 717.043 911.223 C 749.335 850.814 794.829 797.707 845.876 752.354 C 860.875 739.028 875.661 724.019 892.423 712.931 C 841.346 696.025 764.526 683.396 711.682 694.018 C 678.841 700.619 620.755 723.939 602.067 753.237 C 587.441 776.166 607.2 779.976 610.793 798.748 C 612.352 806.888 609.602 814.138 604.92 820.728 C 599.804 827.929 592.064 831.518 583.445 832.766 C 571.539 834.49 558.805 831.986 549.083 824.748 C 535.495 814.631 531.176 800.398 528.902 784.464 C 517.47 784.623 506.757 785.491 495.595 788.152 C 479.87 791.901 452.832 806.723 437.466 799.462 C 433.144 797.42 430.255 793.799 428.739 789.306 C 425.334 779.213 428.303 768.946 433.088 759.933 C 430.691 758.289 428.155 756.625 426.18 754.472 C 420.618 748.407 417.789 740.086 418.06 731.921 C 418.531 717.79 426.695 708.284 436.56 699.258 C 436.587 696.49 436.576 693.645 437.107 690.919 A 32.5169 32.5169 0 0 1 450.911 670.277 C 470.859 657.186 512.065 662.525 534.156 667.686 C 545.11 651.874 558.85 635.95 572.28 622.144 C 634.958 557.715 731.687 497.739 823.806 497.057 A 224.329 224.329 0 0 1 887.769 505.576 C 939.529 519.901 989.622 545.352 1037.84 568.701 C 1070.09 584.319 1103.74 599.543 1133.56 619.52 C 1155.66 634.322 1176.08 652.484 1194.98 671.146 C 1241.95 651.491 1287.49 627.581 1335.36 610.236 C 1317.59 607.131 1308.15 609.779 1293.67 595.28 C 1276.55 578.125 1266.67 552.177 1267.06 528.003 C 1267.3 513.479 1272.61 501.529 1282.85 491.479 C 1255.42 481.928 1226.9 475.767 1199.38 466.361 C 1169.6 456.185 1141.41 443.738 1112.63 431.177 C 1088.23 420.526 1063.11 410.773 1039.35 398.759 C 1014.58 386.232 991.977 371.549 968.81 356.33 C 953.904 346.538 938.569 336.823 924.598 325.711 C 917.739 320.255 900.98 308.407 901.336 298.949 C 901.394 297.418 901.967 295.951 903.076 294.906 C 910.218 288.178 952.191 290.549 963.619 290.485 z"/>
<path transform="translate(0,0)" fill="rgb(254,254,254)" d="M 324.424 1479.5 A 351.715 351.715 0 0 1 328.956 1480.69 C 331.895 1481.5 333.596 1481.67 335.147 1484.39 L 333.695 1487.48 C 332.274 1488.74 332.142 1488.74 330.122 1489.19 C 327.06 1487.09 325.856 1482.81 324.424 1479.5 z"/>
<path transform="translate(0,0)" fill="rgb(254,254,254)" d="M 1250.96 377.063 C 1253.76 376.933 1256.71 376.91 1259.47 377.426 C 1271.05 379.589 1293.59 391.094 1300.01 400.953 C 1303.11 405.719 1302.99 409.84 1301.51 415.241 C 1300.84 417.694 1300.5 419.12 1298.21 420.447 C 1282.4 410.224 1264.55 400.519 1250.03 388.611 C 1247.22 386.311 1245.42 384.876 1244.98 381.204 C 1246.63 378.639 1248.24 378.333 1250.96 377.063 z"/>
<path transform="translate(0,0)" fill="rgb(254,254,254)" d="M 1059.64 348.306 C 1062.49 348.632 1065.37 348.98 1068.13 349.818 C 1088.65 356.061 1114.56 375.112 1124.51 394.403 C 1127.02 399.287 1127.14 401.471 1125.53 406.734 C 1116.31 401.25 1060.21 358.503 1058.16 351.402 C 1057.77 350.057 1058.89 349.325 1059.64 348.306 z"/>
<path transform="translate(0,0)" fill="rgb(254,254,254)" d="M 1302.4 902.68 C 1306.76 907.036 1315.5 945.558 1317.55 953.162 C 1310.01 950.735 1302.92 947.991 1295.72 944.679 C 1286.66 940.707 1278.25 935.699 1269.74 930.694 A 3785.41 3785.41 0 0 0 1302.4 902.68 z"/>
<path transform="translate(0,0)" fill="rgb(254,254,254)" d="M 1126.6 359.085 C 1151.6 363.153 1180.17 382.023 1196.86 400.593 C 1203.02 407.441 1211.84 417.736 1211.32 427.491 L 1209.58 428.114 C 1191.92 418.383 1175.96 405.966 1159.3 394.687 C 1148.48 387.364 1136.23 380.935 1126.47 372.224 C 1124.08 370.089 1123.15 368.465 1122.23 365.418 C 1122.89 362.06 1124.18 361.424 1126.6 359.085 z"/>
<path transform="translate(0,0)" fill="rgb(254,254,254)" d="M 399.013 1359.21 C 416.855 1363.13 434.74 1367.1 452.71 1370.39 C 464.269 1372.51 476.473 1373.7 487.758 1376.83 C 489.248 1377.24 489.905 1377.67 490.881 1378.85 L 491.123 1397.26 C 463.115 1396.83 435.929 1393.28 408.192 1389.62 L 405.049 1388.36 C 401.077 1380.24 401.933 1368.25 399.013 1359.21 z"/>
<path transform="translate(0,0)" fill="rgb(254,254,254)" d="M 1331.65 930.326 C 1387.51 944.031 1432.51 952.202 1490.32 946.613 C 1500.7 945.61 1538.2 937.905 1542.68 938.352 C 1539.74 940.014 1536.3 941.073 1533.13 942.275 C 1485.89 954.656 1440.52 962.221 1391.56 962.365 C 1372.84 962.421 1353.33 961.729 1335.22 956.682 C 1333.29 948.561 1330.24 938.702 1331.65 930.326 z"/>
<path transform="translate(0,0)" fill="rgb(254,254,254)" d="M 296.28 1334.13 C 298.687 1333.83 301.606 1333.38 303.888 1334.36 C 306.36 1335.42 308.393 1337.31 309.424 1339.82 C 312.224 1346.65 309.069 1357.16 306.169 1363.5 C 296.004 1385.71 276.264 1397.28 254.246 1405.32 L 252.663 1405.73 C 248.748 1401.48 251.364 1389.22 240.895 1378.12 C 256.387 1358.33 270.941 1340.29 296.28 1334.13 z"/>
<path transform="translate(0,0)" fill="rgb(254,254,254)" d="M 669.83 1309.87 C 673.1 1313.5 680.294 1319.74 681.592 1324.31 C 654.044 1345.57 629.981 1363.85 597.745 1378.06 C 573.797 1388.18 548.306 1396.42 522.096 1397.05 L 497.364 1396.99 C 497.224 1392.66 496.9 1388.35 496.556 1384.03 C 496.704 1382.1 497.053 1380.39 497.544 1378.52 L 508.348 1378.93 C 522.644 1379.42 537.345 1379.3 551.474 1376.81 C 595.867 1368.99 637.438 1340.15 669.83 1309.87 z"/>
<path transform="translate(0,0)" fill="rgb(254,254,254)" d="M 237.35 1382.61 C 243.61 1388.33 244.095 1398.03 244.984 1405.92 C 239.882 1414.84 232.024 1422.78 225.703 1430.95 C 217.697 1441.31 210.672 1452.75 204.484 1464.28 C 188.772 1493.57 172.563 1531.16 160.41 1562.2 C 151.508 1584.94 143.473 1607.87 133.476 1630.18 C 132.794 1631.66 132.213 1632.44 130.996 1633.53 C 130.682 1632.58 130.509 1632.24 130.479 1631.12 C 130.164 1619.69 135.261 1604.88 138.091 1593.68 C 156.903 1519.19 191.054 1444.11 237.35 1382.61 z"/>
<path transform="translate(0,0)" fill="rgb(254,254,254)" d="M 1592.35 1358.55 C 1593.52 1359.09 1594.52 1359.96 1595.56 1360.72 C 1596.31 1362.74 1596.82 1363.56 1596.25 1365.72 C 1593.83 1374.97 1585.07 1384.04 1580.43 1392.48 C 1547.16 1452.91 1511.22 1498.65 1460.41 1545.25 C 1450.32 1554.49 1440.27 1564.72 1429.3 1572.89 C 1420.78 1579.24 1411 1582.04 1401.49 1586.5 C 1395.78 1589.18 1390.33 1592.64 1384.94 1595.92 C 1390.36 1602.78 1393.79 1608.99 1396.82 1617.09 C 1384.04 1629.13 1372.3 1643.5 1357.18 1652.56 C 1351.24 1649.33 1345.57 1645.92 1339.95 1642.17 C 1331.42 1635 1324.14 1627.38 1318.8 1617.54 C 1324.41 1614.58 1330.08 1611.64 1335.51 1608.36 C 1344.99 1602.65 1366.22 1588.36 1367.96 1576.62 C 1368.55 1572.59 1367.28 1570.61 1364.95 1567.56 C 1364.74 1567.28 1364.52 1567.01 1364.3 1566.73 L 1364.78 1565.63 A 718.281 718.281 0 0 0 1374.55 1565.2 C 1383.95 1564.76 1392.95 1563.25 1401.32 1558.6 C 1410.43 1553.53 1419.15 1544.68 1427.13 1537.94 C 1472.52 1499.61 1510.14 1460.64 1547.82 1414.78 C 1562.98 1396.33 1576.25 1376.24 1592.35 1358.55 z"/>
<path transform="translate(0,0)" fill="rgb(254,254,254)" d="M 660.674 1142.84 C 666.523 1143.85 679.489 1143.55 683.544 1147.75 C 678.45 1191.83 683.065 1237.8 711.739 1273.59 C 719.372 1283.12 729.617 1293.2 740.578 1298.82 C 751.742 1308.22 769.713 1314.02 783.681 1317.4 C 802.417 1324.77 825.776 1326.63 845.576 1329.5 C 901.896 1337.68 958.702 1342.83 1014.88 1351.71 C 1031.76 1354.38 1050.46 1356 1066.65 1361.41 C 1074.99 1374.48 1081.42 1388.64 1090.18 1401.48 C 1113.24 1435.32 1140.98 1465.16 1169.01 1494.83 C 1177.86 1504.19 1186.23 1514.23 1195.45 1523.18 A 460.598 460.598 0 0 0 1220.48 1550.17 C 1223.22 1553.31 1226.49 1556.16 1229.48 1559.08 A 1155.78 1155.78 0 0 1 1196.33 1593.05 C 1192.35 1586.19 1188.28 1579.34 1183.89 1572.72 C 1153.71 1527.16 1119.52 1485.21 1084.19 1443.61 C 1072.41 1429.73 1040.13 1388.81 1025.85 1380.17 C 1005.43 1367.81 944.855 1364.63 918.674 1361.18 C 896.157 1358.21 873.727 1354.59 851.205 1351.65 C 826.111 1348.36 800.846 1345.71 776.039 1340.59 C 731.323 1331.35 697.652 1314.03 672.117 1274.81 C 645.89 1234.52 651.393 1187.65 660.674 1142.84 z"/>
<path transform="translate(0,0)" fill="rgb(35,31,32)" d="M 1065.28 1374.71 C 1066.93 1376.23 1074.51 1396.7 1076.44 1400.51 C 1082.86 1413.21 1091.03 1425.58 1099.56 1436.95 C 1124.26 1469.88 1151.97 1500.45 1178.8 1531.64 C 1183.58 1537.2 1199.18 1551.96 1202.06 1556.4 C 1203.15 1558.08 1202.57 1558.58 1202.21 1560.46 C 1185.32 1551.26 1095.79 1439.37 1081.67 1418.5 C 1074.75 1408.29 1067.03 1395.84 1063.68 1383.85 C 1062.56 1379.85 1063.46 1378.16 1065.28 1374.71 z"/>
<path transform="translate(0,0)" fill="rgb(254,254,254)" d="M 1217.02 692.489 C 1239.22 678.846 1269.36 667.243 1293.72 656.773 C 1307.03 651.056 1320.18 644.441 1333.58 639.069 C 1342.33 703.954 1375.16 764.256 1427.36 804.212 A 222.62 222.62 0 0 0 1444.93 816.455 C 1400.3 839.909 1364.21 855.162 1315.18 867.178 C 1311.54 859.332 1307.47 851.469 1304.65 843.287 C 1312.59 842.593 1324.23 842.931 1331.52 840.157 C 1356.87 839.916 1398.08 827.859 1420.8 817.039 C 1408.7 818.914 1396.52 823.213 1384.61 826.201 A 331.871 331.871 0 0 1 1330.04 835.263 L 1301.46 836.912 C 1282.63 796.066 1258.26 757.668 1234.56 719.489 C 1228.92 710.401 1222.35 701.721 1217.02 692.489 z"/>
<path transform="translate(0,0)" fill="rgb(254,254,254)" d="M 965.486 297.544 C 979.296 296.821 993.154 298.21 1006.97 298.562 C 1045.31 299.538 1083.18 301.283 1121.39 304.796 C 1154.33 307.824 1186.87 312.239 1219.65 316.575 C 1336.68 332.05 1454.12 354.333 1565.76 393.527 C 1594.11 403.479 1621.44 415.996 1649.14 427.584 C 1601.41 423.163 1554.12 415.141 1506.78 407.858 C 1488.67 405.268 1470.66 401.585 1452.56 398.815 C 1426.52 394.829 1400.32 392.074 1374.28 387.944 C 1330.56 381.008 1287.11 372.767 1243.46 365.558 A 8000.4 8000.4 0 0 0 1119.78 347.075 A 2639.06 2639.06 0 0 1 1059.87 337.7 C 1043.86 334.865 1028.03 331.069 1011.77 329.953 C 1024.25 351.799 1040.77 370.565 1054.21 391.682 C 1022.5 380.973 924.44 324.931 907.719 299.382 C 926.842 297.473 946.287 297.723 965.486 297.544 z"/>
<path transform="translate(0,0)" fill="rgb(254,254,254)" d="M 1257.32 801.032 C 1258.8 801.042 1258.86 800.774 1259.91 801.548 C 1267.71 807.261 1296.6 877.982 1300.06 890.992 C 1254.57 925.42 1200.46 970.132 1174.83 1022.64 C 1168.29 1036.04 1164.24 1049.79 1160.94 1064.26 C 1143.15 1058.59 1125.68 1048.19 1108.92 1039.92 C 1085.09 1028.17 1063.24 1014.11 1042.11 998.049 A 225.51 225.51 0 0 1 1052.26 977.179 C 1064.16 955.341 1079.19 936.063 1094.87 916.878 C 1128.9 875.253 1169.58 835.398 1219.7 813.654 C 1231.88 808.368 1244.61 804.789 1257.32 801.032 z"/>
<path transform="translate(0,0)" fill="rgb(35,31,32)" d="M 1147.69 902.795 C 1145.48 890.567 1147.96 877.886 1155.16 867.625 C 1165.89 852.324 1186.89 840.299 1205.26 837.557 C 1220.96 835.215 1237.62 838.875 1250.23 848.72 C 1259.69 856.111 1266.19 866.553 1267.66 878.562 C 1269.19 891.037 1265.15 902.622 1257.2 912.228 C 1252.95 917.371 1247.63 922.149 1242.01 925.723 C 1232.17 933.82 1218.11 938.652 1205.61 940.443 C 1191.2 942.509 1176.36 940.096 1164.61 931.034 C 1155.76 924.208 1149.23 913.937 1147.69 902.795 z"/>
<path transform="translate(0,0)" fill="rgb(254,254,254)" d="M 1153.33 902.665 C 1151.72 889.215 1153.41 876.523 1161.95 865.455 C 1172.27 852.08 1190.31 842.801 1206.98 840.854 C 1221.48 839.16 1237.19 842.713 1248.7 851.94 A 41.8663 41.8663 0 0 1 1264.52 881.574 C 1265.43 892.55 1261.67 902.356 1254.36 910.499 C 1249.92 915.437 1244.64 919.246 1239.01 922.706 C 1235.83 924.405 1232.63 926.136 1229.3 927.516 C 1213.51 934.062 1192.32 937.758 1176.15 930.629 C 1163.54 925.068 1157.97 914.902 1153.33 902.665 z"/>
<path transform="translate(0,0)" fill="rgb(35,31,32)" d="M 1190.01 858.669 C 1190.93 859.014 1192.59 860.079 1193.21 860.792 C 1194.36 862.105 1194.48 862.38 1193.98 863.834 C 1192.54 868.077 1185.04 869.669 1181.4 872.049 L 1180.42 872.705 C 1178.74 873.11 1177.97 873.087 1176.33 872.565 C 1176.72 871.746 1177.13 870.939 1177.5 870.112 C 1179.93 864.658 1184.99 861.492 1190.01 858.669 z"/>
<path transform="translate(0,0)" fill="rgb(35,31,32)" d="M 1167.12 869.571 C 1168.48 871.015 1168.35 870.498 1168.8 872.048 C 1174.47 891.572 1189.53 908.966 1210.15 913.094 C 1214.61 913.986 1222.55 913.945 1226.16 916.453 L 1224.65 917.832 C 1205.8 916.683 1191.2 912.167 1177.18 898.848 C 1171.44 893.39 1163.13 884.421 1163.64 875.955 C 1163.82 872.909 1165.15 871.654 1167.12 869.571 z"/>
<path transform="translate(0,0)" fill="rgb(35,31,32)" d="M 1203.01 855.32 C 1204.79 855.331 1207.61 854.823 1208.86 856.432 C 1212.34 860.949 1213.16 873.935 1219.18 881.405 C 1229.38 894.062 1245.98 894.655 1253.85 901.921 C 1255.19 903.154 1254.79 903.34 1254.82 905.043 C 1253.15 907.371 1250.79 907.691 1248.18 908.425 C 1244.6 907.808 1240.94 907.111 1237.45 906.116 C 1220.4 901.264 1206.31 888.174 1198.12 872.732 C 1195.62 868.026 1194.47 864.059 1195.98 858.87 C 1198.34 856.464 1199.83 856.29 1203.01 855.32 z"/>
<path transform="translate(0,0)" fill="rgb(254,254,254)" d="M 1689.33 851.886 L 1690.48 851.773 L 1691.35 852.799 C 1688.77 856.636 1685.85 859.888 1684.07 864.23 C 1682.61 867.8 1681.27 871.116 1682.8 874.889 C 1692.8 880.125 1710.2 865.329 1722.08 869.517 C 1724.81 870.48 1725.13 871.134 1726.46 873.505 C 1726.85 883.465 1715.45 888.549 1713.76 897.527 C 1713.26 900.188 1713.9 901.113 1715.23 903.209 C 1722.96 907.388 1734.54 899.983 1742.92 900.577 C 1744.91 900.718 1744.99 900.883 1746.42 902.386 C 1746.2 912.509 1727.64 921.086 1725.85 933.936 C 1726.28 935.839 1726.57 937.235 1728.01 938.687 C 1731.79 942.52 1738.48 942.268 1743.5 942.71 A 69.9183 69.9183 0 0 1 1726.51 967.153 C 1705.57 986.799 1667.82 993.701 1640 992.362 L 1638.03 992.256 C 1631.22 991.938 1625.35 989.976 1618.91 987.883 A 464.459 464.459 0 0 1 1603.7 998.102 C 1492.68 1070.08 1356.43 1099.66 1226.25 1071.82 C 1208.26 1067.82 1190.58 1062.48 1172.63 1058.25 C 1177.35 1046.06 1181.89 1033.8 1188.14 1022.28 C 1199.86 1000.68 1226.84 967.108 1245.48 951.049 C 1265 962.495 1285.76 973.736 1306.96 981.691 C 1321.32 987.082 1336.74 991.393 1352.07 992.717 C 1412.86 997.968 1520.7 975.091 1576.48 949.332 C 1613.28 932.333 1594.48 908.862 1606.15 879.664 C 1608.05 874.903 1610.64 871.542 1615.41 869.568 C 1616.97 869.736 1618.03 869.473 1619.2 870.656 C 1623.03 874.535 1621.81 884.722 1622.28 890.014 C 1622.67 894.303 1623.12 896.236 1626.48 899.037 C 1629.3 899.707 1632.26 900.153 1634.64 897.998 C 1638.22 894.765 1640.74 888.454 1643.84 884.552 C 1655.51 869.84 1672.08 858.823 1689.33 851.886 z"/>
<path transform="translate(0,0)" fill="rgb(254,254,254)" d="M 812.064 526.398 C 856.865 524.399 904.681 541.605 944.723 560.831 C 938.042 572.219 930.363 583.063 923.573 594.408 C 906.276 623.309 889.604 654.717 877.89 686.302 C 831.571 668.627 763.206 661.634 714.4 668.54 C 671.358 674.631 616.978 697.067 590.376 733.085 C 577.704 750.242 574.902 765.751 583.553 785.677 C 585.763 790.768 588.664 796.421 589.23 801.974 C 589.559 805.193 588.921 807.999 586.561 810.304 C 583.694 813.105 579.797 814.448 575.838 814.348 C 566.821 814.121 557.793 808.304 552.095 801.629 C 542.051 789.863 542.689 779.238 543.974 764.829 C 531.734 764.815 519.17 766.858 507.019 768.295 C 495.365 769.934 483.434 771.815 472.214 775.452 C 466.124 777.426 460.285 780.788 454.041 782.213 C 451.242 782.852 449.919 782.685 447.509 781.241 C 447.273 780.238 447.11 779.695 446.988 778.73 C 443.83 753.781 491.033 739.744 499.003 729.496 C 499.396 727.033 499.4 727.141 498.045 725.042 C 479.164 713.615 455.085 745.135 438.436 745.234 C 436.161 743.837 435.702 743.724 435.137 740.919 C 433.266 731.62 438.427 721.444 443.639 714.244 C 460.182 705.916 476.687 707.077 489.89 701.435 C 490.509 701.171 492.442 699.935 492.612 699.274 C 493.273 696.716 493.12 696.76 491.859 694.446 C 479.682 685.524 464.998 697.435 455.315 694.704 L 455.365 692.94 C 456.691 691.27 457.905 689.851 459.601 688.536 C 473.921 677.433 510.159 678.776 527.598 680.864 C 529.134 684.234 530.407 686.81 532.998 689.484 C 537.392 690.191 546.458 679.43 549.748 676.212 C 610.462 616.835 683.309 555.638 767.074 533.77 C 781.837 529.916 796.919 528.01 812.064 526.398 z"/>
<path transform="translate(0,0)" fill="rgb(254,254,254)" d="M 683.917 1325.9 C 684.291 1326.09 684.667 1326.27 685.039 1326.46 C 689.314 1328.67 693.12 1332.61 697.13 1335.36 A 173.286 173.286 0 0 0 727.325 1351.87 C 758.98 1365.24 796.143 1368 829.909 1372.41 L 927.253 1385.25 C 900.557 1408.92 871.62 1429.61 841.47 1448.6 C 759.538 1500.22 689.521 1524.55 593.098 1536.47 C 575.314 1538.66 555.9 1542.56 538.057 1542.73 L 538.028 1541.08 L 536.191 1542.23 C 541.564 1538.22 561.298 1537.98 568.708 1535.61 C 624.978 1528.24 693.491 1510.36 745.665 1488.15 C 795.57 1466.9 839.508 1438.78 883.259 1406.99 C 888.367 1403.28 901.092 1396.41 903.443 1390.56 C 902.05 1389.71 902.026 1389.3 900.296 1389.63 C 892.742 1391.08 882.158 1402.76 875.627 1407.51 C 853.969 1423.29 832.09 1438.74 808.937 1452.27 C 732.362 1497.02 650.636 1516.51 564.473 1533.3 C 558.556 1533.36 551.936 1535.03 546.043 1535.88 C 532.792 1537.79 519.529 1539.68 506.178 1540.74 C 462.251 1544.22 418.496 1543.42 374.537 1541.26 C 383.571 1509.75 394.39 1479.29 400.002 1446.85 C 401.529 1438.02 404.272 1394.47 405.235 1392.44 L 408.18 1391.97 C 434.817 1398.22 463.939 1400.95 491.263 1401.1 C 491.533 1407.34 490.472 1416.51 495.076 1421.17 L 497.338 1420.95 C 501.632 1415.37 495.949 1404.06 501.692 1400.24 C 504.401 1401.98 505.368 1404.5 505.989 1407.57 C 508.484 1419.92 501.259 1433.36 504.474 1445.43 L 505.508 1446.14 C 509.166 1443.53 510.133 1438.96 510.881 1434.76 C 512.819 1423.89 512.048 1412.08 511.903 1401.06 C 518.602 1401.05 525.824 1401.5 532.378 1400.09 C 554.831 1399.57 578.608 1390.31 599.314 1381.99 C 630.534 1368.47 659.99 1350.26 683.917 1325.9 z"/>
<path transform="translate(0,0)" fill="rgb(35,31,32)" d="M 884.608 1387.32 L 886.022 1387.26 C 883.447 1392.09 801.863 1445.21 791.709 1450.95 C 788.113 1452.99 784.336 1454.27 780.419 1455.52 L 779.584 1455.67 L 779.411 1454.57 C 780.739 1452.97 781.95 1451.51 783.71 1450.36 C 800.623 1439.35 818.028 1429.24 834.821 1417.96 C 847.597 1409.38 859.987 1399.31 873.084 1391.4 C 877.125 1388.96 880.381 1389.61 884.608 1387.32 z"/>
<path transform="translate(0,0)" fill="rgb(254,254,254)" d="M 686.247 1152.78 C 686.362 1152.37 686.483 1151.97 686.593 1151.56 C 686.994 1150.09 687.255 1148.65 687.495 1147.14 C 691.073 1145.22 896.151 1157.53 916.519 1159.1 C 938.881 1160.83 961.421 1163.35 983.661 1166.3 C 1020.64 1171.2 1057.82 1177.52 1093.59 1188.31 C 1112.21 1193.93 1133.51 1201.07 1149.27 1212.67 C 1175.7 1232.12 1196.75 1265.58 1216.51 1291.64 C 1250.73 1336.76 1287.38 1386.77 1329.84 1424.21 C 1300.31 1469.74 1270.99 1515.4 1233.48 1554.94 C 1230.38 1552.19 1227.32 1549.06 1224.02 1546.57 A 1686.88 1686.88 0 0 1 1204.79 1526.47 C 1163.02 1475.91 1100.63 1421.28 1073.66 1361.13 L 1071.38 1357.25 C 1058.13 1347.35 890.81 1330.03 861.369 1325.96 C 834 1322.18 806.536 1318.37 779.71 1311.64 C 763.999 1306.78 750.089 1299.86 736.048 1291.33 C 729.767 1285.69 723.064 1280.47 717.439 1274.13 C 688.285 1241.27 683.532 1194.63 686.247 1152.78 z"/>
<path transform="translate(0,0)" fill="rgb(35,31,32)" d="M 1182.01 1455.88 C 1185.71 1456.16 1187.75 1457.18 1190.59 1459.4 C 1196.97 1464.38 1205.68 1471.84 1206.67 1480.23 C 1205.71 1479.89 1205.37 1479.82 1204.41 1479.21 C 1198.1 1475.27 1183.52 1462.73 1182.01 1455.88 z"/>
<path transform="translate(0,0)" fill="rgb(35,31,32)" d="M 1176.05 1460.26 C 1182.95 1461.67 1192.2 1472.54 1197.2 1477.51 C 1200.05 1480.34 1201.66 1481.5 1201.67 1485.51 L 1197 1485.82 C 1189.42 1482.63 1181.6 1474.79 1176.9 1468.13 C 1174.69 1465 1175.38 1463.83 1176.05 1460.26 z"/>
<path transform="translate(0,0)" fill="rgb(254,254,254)" d="M 1655.85 454.503 L 1657.44 454.417 C 1661.48 457.598 1664.65 463.814 1667.3 468.209 C 1682.14 492.885 1694 519.828 1700.18 548.03 A 875.203 875.203 0 0 0 1671.42 549.63 C 1669.5 533.644 1665.23 514.401 1657.59 500.078 C 1653.99 493.321 1648.52 487.082 1640.87 485.024 C 1636.43 483.827 1631.92 484.339 1627.97 486.725 C 1622.44 490.063 1619.47 496.04 1617.91 502.11 C 1613.32 520.032 1619.18 538.828 1628.4 554.19 C 1607.23 556.646 1586.85 560.178 1566.34 566.115 C 1568.12 548.288 1567.67 526.758 1556.12 511.895 C 1551.93 506.493 1546.15 502.742 1539.23 502.216 A 21.6538 21.6538 0 0 0 1523 507.869 C 1517.24 513.158 1514.62 520.403 1514.45 528.111 C 1514.05 546.688 1524.95 564.767 1537.15 577.959 C 1525.38 583.001 1484.57 600.308 1480.09 610.782 C 1479.51 612.146 1480.25 612.726 1480.85 613.936 C 1484.01 614.764 1492.98 607.936 1496.36 605.887 C 1516.02 594.008 1538 583.163 1559.75 575.769 C 1629.92 551.907 1708.42 552.553 1781.48 557.734 C 1807.14 559.554 1917.4 572.966 1931.21 593.392 C 1932.56 595.396 1932.88 596.522 1932.58 598.901 C 1932.03 603.086 1928.48 606.475 1925.3 608.904 C 1883.19 641.116 1728.06 661.469 1673.96 654.656 C 1668.56 653.452 1663.16 652.285 1658.03 650.173 C 1647.05 645.656 1633.7 635.318 1629.02 624.033 C 1628.25 622.175 1627.63 620.91 1626.32 619.318 L 1624.57 619.678 L 1626.3 619.298 L 1624.34 620.771 C 1624.69 631.356 1631.17 642.323 1638.66 649.523 C 1659.4 669.431 1687.78 668.201 1714.4 667.871 C 1709.79 699.359 1700.06 733.154 1683.21 760.25 C 1663.24 792.357 1632.85 819.852 1595.15 828.201 C 1547.99 838.643 1495.81 822.065 1456.26 796.435 C 1397.84 758.576 1362.72 696.395 1356.23 627.423 C 1355.7 621.805 1354.99 615.966 1355.25 610.331 C 1355.7 600.647 1359.07 589.656 1357.03 580.104 C 1353.29 576.144 1339.46 589.871 1326.14 588.102 C 1316.57 586.831 1308.55 580.869 1303.12 573.099 C 1294.81 561.214 1288.54 540.984 1291.35 526.607 C 1293.11 517.609 1298.62 510.638 1306.24 505.726 C 1333.54 488.134 1343.65 525.298 1359.98 527.071 C 1361.43 527.228 1361.79 526.217 1362.71 525.276 C 1365.45 517.328 1363.77 508.564 1362.85 500.414 C 1419.75 485.512 1479.23 473.121 1537.56 465.525 C 1576.76 460.421 1616.46 457.829 1655.85 454.503 z"/>
<path transform="translate(0,0)" fill="rgb(35,31,32)" d="M 1497.01 553.068 C 1498.83 552.978 1500.4 552.905 1502.2 553.254 C 1503.98 553.598 1503.27 553.325 1504.52 555.093 C 1502.49 559.917 1482.56 568.02 1477.45 570.829 C 1475.81 571.755 1475.36 571.856 1473.56 572.021 L 1471.49 569.833 C 1471.19 568.49 1470.74 567.991 1471.49 566.697 C 1475.5 559.762 1489.96 555.644 1497.01 553.068 z"/>
<path transform="translate(0,0)" fill="rgb(35,31,32)" d="M 1316.82 533.998 C 1317.28 534.026 1317.74 534.036 1318.2 534.081 C 1324.92 534.751 1329.25 542.141 1333.15 547.333 C 1336.1 551.255 1338.76 556.039 1337.88 561.041 C 1336.21 564.176 1333.8 565.156 1330.8 566.737 C 1329.07 566.995 1327.42 567.235 1325.67 566.927 C 1320.64 566.041 1316.42 561.722 1313.8 557.58 C 1310.7 552.669 1308.75 546.142 1310.49 540.398 C 1311.65 536.606 1313.55 535.642 1316.82 533.998 z"/>
<path transform="translate(0,0)" fill="rgb(254,254,254)" d="M 961.382 560.736 C 991.421 574.286 1022.16 585.975 1051.86 600.383 C 1141.33 643.784 1210.27 702.081 1255.34 792.145 C 1230.97 797.14 1208.92 805.459 1187.77 818.586 C 1196.08 807.319 1204.28 794.872 1207.28 780.972 C 1209.73 769.605 1208.75 758.589 1202.46 748.621 C 1200.36 745.318 1197.11 741.363 1196.36 737.513 C 1197.73 734.996 1198.96 732.618 1199.91 729.894 L 1198.74 729.188 C 1191.91 735.602 1187.75 745.011 1180.48 750.711 C 1181.72 748.362 1183.12 746.409 1183.21 743.713 C 1180.19 746.445 1177.1 749.336 1173.78 751.676 C 1174.95 750.193 1176.09 748.684 1177.27 747.206 C 1180.41 743.259 1182.11 740.473 1183.5 735.568 C 1184.26 736.02 1185.66 736.889 1186.45 737.185 C 1188.71 738.034 1189.22 737.558 1191.07 736.395 L 1190.61 734.951 C 1186.49 731.02 1180.19 728.531 1174.79 726.902 C 1151.56 719.9 1124.27 719.322 1102.59 731.275 C 1088.23 739.188 1076.64 752.049 1072.2 768.036 C 1069.1 779.207 1069.99 790.714 1076.08 800.717 C 1084.55 814.635 1099.76 822.853 1115.24 826.418 C 1130.17 829.858 1147.11 826.549 1160.03 818.494 L 1160.24 817.17 C 1143.92 822.325 1129.86 824.92 1112.94 820.555 C 1099.44 817.072 1087.47 809.19 1080.59 796.811 C 1075.76 788.106 1075.13 778.603 1078.01 769.127 C 1082.79 753.431 1095.32 741.844 1109.62 734.697 C 1132.9 723.071 1159.1 726.762 1182.94 734.878 C 1168.38 746.805 1136.6 769.037 1120 776.813 C 1119.54 776.729 1119.08 776.649 1118.62 776.559 C 1111.47 775.166 1104.69 771.094 1097.61 770.539 L 1096.32 771.409 C 1096.99 775.595 1101.44 779.129 1104.7 781.461 C 1116.93 790.213 1133.94 793.415 1148.61 790.647 C 1159.59 788.575 1174.52 782.449 1181.26 773.212 C 1182.41 771.637 1182.79 770.246 1183.22 768.376 L 1182.34 767.591 L 1177.31 771.776 C 1165.7 781.643 1147.38 781.239 1132.92 780.634 C 1144.47 772.585 1160.14 758.023 1172.83 753.453 C 1169.44 762.44 1162.35 766.808 1156.09 773.57 C 1166.84 770.185 1177.85 765.437 1183.4 754.84 L 1195.54 742.016 L 1201.13 749.892 L 1201.68 751.381 C 1203.16 755.313 1204.44 758.999 1204.9 763.203 C 1206.73 779.94 1199.09 798.422 1189.03 811.578 C 1178.7 825.078 1162.37 833.759 1148.67 843.365 A 239.611 239.611 0 0 0 1123.75 863.761 C 1085.81 899.681 1053.51 944.085 1021.67 985.218 C 1002.01 974.428 982.8 959.429 964.845 945.917 C 958.622 941.235 952.503 935.942 945.982 931.71 C 943.774 930.277 942.53 929.465 939.89 929.405 L 940.03 930.978 C 944.973 937.431 951.758 942.181 957.343 948.066 C 980.867 972.855 1010.67 1000.58 1038.83 1019.71 C 1055.43 1030.99 1073.28 1040.62 1090.9 1050.18 C 1071.14 1067.77 1057.93 1088.19 1045.67 1111.32 C 972.658 1065.67 811.083 1041.52 726.371 1040.83 C 734.57 1013.72 743.621 987.007 755.633 961.325 C 793.417 880.549 859.632 798.747 931.878 746.236 C 957.554 727.574 985.196 713.876 1012.09 697.393 L 1013.31 697.711 L 1013 696.133 L 1013.79 696.272 L 1015.66 694.92 L 1014.76 694.613 C 1004.44 696.578 991.051 704.315 981.887 709.681 C 961.116 721.842 940.642 734.85 921.584 749.58 C 829.463 820.783 752.23 927.831 722.736 1041.08 L 693.006 1041.06 C 695.696 1022.01 705.507 1001.93 713.038 984.298 C 747.846 902.791 782.399 855.62 843.718 792.792 C 864.547 771.451 885.73 750.37 909.769 732.634 C 920.169 724.96 931.058 718.001 941.574 710.497 C 948.775 705.359 955.74 699.086 963.396 694.729 C 971.093 690.349 993.033 685.444 997.1 681.516 L 996.72 680.515 C 984.14 677.938 936.398 703.339 925.077 703.313 C 919.564 703.301 899.39 694.329 892.301 692.21 C 908.078 644.922 932.377 601.164 961.382 560.736 z"/>
<path transform="translate(0,0)" fill="rgb(35,31,32)" d="M 1057.75 817.729 L 1059.08 819.527 C 1060.1 829.988 1048.51 851.188 1042.18 859.586 C 1037.78 865.432 1032.06 870.067 1028.06 876.233 C 1028.94 878.504 1029.11 878.597 1031.39 879.586 C 1040.8 883.683 1059.89 884.423 1069.47 880.837 C 1072.96 879.532 1076 878.301 1079.61 879.894 C 1080.2 881.386 1080.64 881.567 1080 883.204 C 1078.46 887.095 1074.53 889.641 1070.83 891.244 C 1054.99 898.101 1034.46 893.971 1019.09 888.06 L 1010.65 895.788 C 1006.53 899.452 1002.57 903.946 996.973 904.98 C 994.219 904.459 993.127 904.091 991.143 902.085 L 991.153 900.191 C 996.413 894.1 1003.86 889.754 1009.64 883.982 L 1010.61 882.991 C 1003.15 875.336 995.256 867.107 992.073 856.591 C 991.203 853.715 991.183 851.921 992.602 849.29 C 994.726 848.078 996.221 847.771 998.622 847.992 C 1005.33 848.607 1016.05 866.957 1020.55 872.425 C 1033.33 854.321 1045.77 836.414 1057.75 817.729 z"/>
<path transform="translate(0,0)" fill="rgb(35,31,32)" d="M 1006.59 800.115 C 1026.7 794.568 1049.45 793.959 1068.09 804.617 C 1084.52 814.009 1096.96 831.809 1101.45 850.076 C 1102.69 855.115 1103.96 862.809 1102.52 867.833 C 1101.54 866.225 1101.41 865.168 1101.25 863.353 C 1099.65 845.627 1089.69 827.16 1075.93 815.753 C 1061.64 803.911 1042.88 800.326 1024.75 802.118 C 1019.74 802.615 1014.63 803.366 1009.76 804.675 C 987.52 812.262 970.867 825.663 960.401 847.033 C 953.937 860.23 950.624 875.918 955.667 890.14 C 960.463 903.664 971.799 913.062 984.505 918.876 C 1002.78 927.238 1020.05 925.787 1038.81 920.117 C 1053.14 914.386 1062.26 905.384 1074.75 896.971 C 1065.81 910.707 1055.88 919.233 1040.87 925.821 C 1039.59 926.362 1038.36 926.86 1037.04 927.292 C 1017.5 933.687 997.658 933.915 979.075 924.405 C 965.413 917.412 954.977 905.696 950.349 890.952 C 945.15 874.384 948.29 855.944 956.509 840.921 A 85.4434 85.4434 0 0 1 1006.59 800.115 z"/>
</svg>