<svg version="1.1" xmlns="http://www.w3.org/2000/svg" style="display: block;" viewBox="0 0 2048 2048" width="1024" height="1024">
<path transform="translate(0,0)" fill="rgb(254,254,254)" d="M 0 0 L 2048 0 L 2048 2048 L 0 2048 L 0 0 z"/>
<path transform="translate(0,0)" fill="rgb(35,31,32)" d="M 1561.44 1015.01 C 1567.26 1014.92 1574.45 1017.78 1578.64 1021.97 C 1580.12 1023.46 1579.98 1023.88 1579.88 1025.82 C 1575.17 1022.96 1571.53 1019.22 1565.53 1020.08 C 1559.69 1020.92 1555.79 1025.08 1552.36 1029.52 L 1551.6 1030.52 C 1549.16 1035.62 1549.83 1040.97 1547.32 1045.71 L 1545.8 1045.99 C 1545.58 1045.72 1545.33 1045.47 1545.14 1045.17 C 1542.94 1041.64 1543.71 1035.8 1544.91 1032.04 C 1547.68 1023.29 1553.7 1018.99 1561.44 1015.01 z"/>
<path transform="translate(0,0)" fill="rgb(35,31,32)" d="M 1660.43 622.389 C 1666.25 621.578 1671.99 621.965 1677.83 622.229 C 1657.23 633.763 1625.32 638.845 1602.23 643.089 C 1598.51 643.762 1595.32 644.189 1591.54 643.926 L 1592.06 642.013 C 1610.36 629.954 1638.91 624.543 1660.43 622.389 z"/>
<path transform="translate(0,0)" fill="rgb(35,31,32)" d="M 290.707 1256.04 L 291.246 1256.52 C 289.81 1265 276.793 1276.56 271.879 1284.17 C 266.789 1292.05 262.127 1300.49 258.131 1308.97 C 250.219 1325.76 247.901 1341.36 244.549 1359.32 C 241.465 1352.67 242.441 1341.37 243.451 1334.18 C 248.059 1301.37 264.684 1275.9 290.707 1256.04 z"/>
<path transform="translate(0,0)" fill="rgb(35,31,32)" d="M 1838.59 1086.08 C 1841.6 1086.03 1844.51 1086.08 1847.45 1086.83 C 1858.38 1089.62 1868.48 1097.69 1874.1 1107.4 C 1879.57 1116.85 1881.79 1129.08 1878.88 1139.7 L 1876.28 1138.66 C 1872.95 1135.14 1872.45 1130.2 1870.3 1125.97 C 1868.35 1122.15 1865.29 1118.61 1862.55 1115.32 C 1857.67 1109.44 1839.81 1091.82 1838.59 1086.08 z"/>
<path transform="translate(0,0)" fill="rgb(35,31,32)" d="M 820.379 1036.74 L 821.463 1038.47 C 817.347 1062.21 782.802 1125.41 766.365 1144.21 C 765.648 1143.48 766.071 1144.01 765.527 1142.34 C 771.52 1123.69 782.643 1105.67 792.14 1088.6 A 2310.77 2310.77 0 0 0 820.379 1036.74 z"/>
<path transform="translate(0,0)" fill="rgb(35,31,32)" d="M 724.975 281.482 C 736.203 279.924 746.746 281.068 757.562 284.477 C 773.663 289.552 795.919 300.94 803.593 316.759 C 808.187 326.23 806.48 333.245 803.267 342.627 L 802.563 343.588 C 800.534 342.863 787.607 325.189 784.419 321.999 A 170.611 170.611 0 0 0 755.908 299.047 C 750.668 295.67 726.821 284.339 724.975 281.482 z"/>
<path transform="translate(0,0)" fill="rgb(35,31,32)" d="M 523.477 1306.88 L 524.036 1307.24 L 524.189 1308.49 C 514.112 1317.96 503.945 1327.56 493.047 1336.08 C 465.326 1357.78 407.789 1394.69 373.198 1394.19 C 371.64 1391.52 371.217 1391.37 371.683 1388.37 C 377.694 1381.72 405.332 1374.56 415.481 1369.61 C 433.624 1360.75 451.918 1352.64 469.393 1342.46 C 488.126 1331.56 505.451 1318.84 523.477 1306.88 z"/>
<path transform="translate(0,0)" fill="rgb(35,31,32)" d="M 521.831 1548.97 C 520.709 1559.56 450.24 1618.88 437.369 1631.13 C 426.582 1641.4 415.919 1652.11 406.698 1663.82 C 391.248 1683.44 381.971 1704.02 374.116 1727.51 C 373.167 1725.46 372.928 1724.26 373.137 1722.05 C 374.447 1708.24 379.973 1693.14 386.184 1680.79 C 409.64 1634.16 453.575 1601.93 493.876 1570.75 C 502.866 1563.8 512.311 1557.25 520.892 1549.8 L 521.831 1548.97 z"/>
<path transform="translate(0,0)" fill="rgb(35,31,32)" d="M 312.004 1118.87 L 314.574 1119.05 L 315.597 1120.39 C 312.32 1126.82 291.344 1137.59 284.491 1142.57 A 340.211 340.211 0 0 0 249.546 1171.82 C 209.415 1210.2 179.584 1256.53 157.103 1307.13 L 156.433 1307.49 L 155.303 1306.73 C 156.059 1295.98 161.134 1283.01 165.084 1273 C 192.424 1203.73 243.588 1148.68 312.004 1118.87 z"/>
<path transform="translate(0,0)" fill="rgb(35,31,32)" d="M 1792.54 403.151 C 1794.52 403.088 1796.52 403.03 1798.5 403.171 C 1808.78 403.905 1818.87 410.561 1825.23 418.38 C 1831.18 425.692 1834.73 434.981 1833.32 444.468 C 1831.88 454.125 1826.1 460.805 1818.46 466.384 C 1817.15 466.962 1815.86 467.539 1814.49 467.966 C 1808.25 469.912 1801.36 470.288 1795.49 467.023 C 1784.93 461.152 1781.42 448.037 1778.31 437.287 C 1781.56 427.688 1784.87 409.333 1792.54 403.151 z"/>
<path transform="translate(0,0)" fill="rgb(254,254,254)" d="M 1793.2 419.049 C 1795.74 418.952 1798.51 418.942 1801.02 419.427 C 1806.05 420.396 1811.14 424.746 1813.86 428.941 C 1816.08 432.366 1816.91 436.383 1815.8 440.354 C 1814.55 444.823 1811.76 446.612 1808.05 448.909 A 84.4734 84.4734 0 0 1 1803.19 449.097 C 1798.27 449.101 1793.86 446.868 1790.53 443.271 C 1787.81 440.331 1786.23 436.787 1786.38 432.746 C 1786.56 427.781 1789.55 422.29 1793.2 419.049 z"/>
<path transform="translate(0,0)" fill="rgb(35,31,32)" d="M 1167.81 1243.5 C 1186.74 1243.69 1198.59 1262.3 1215.55 1268.54 C 1209.59 1282.45 1202.14 1294.4 1192.42 1306 C 1190.08 1308.15 1187.43 1310.05 1184.92 1312.02 C 1176.61 1309.16 1166.35 1303.82 1159.31 1298.56 C 1155.02 1295.34 1151.42 1291.17 1150.87 1285.64 C 1150.55 1282.52 1151.13 1279.32 1152.1 1276.35 C 1153.4 1272.39 1165.76 1245.87 1167.81 1243.5 z"/>
<path transform="translate(0,0)" fill="rgb(254,254,254)" d="M 1171.01 1258.72 C 1180.74 1262.39 1189.04 1269.55 1196.31 1276.8 C 1193.48 1284.03 1189.98 1290.81 1185.98 1297.45 C 1182.51 1298.56 1166.68 1285 1162.21 1282.71 C 1164.39 1274.39 1167.46 1266.54 1171.01 1258.72 z"/>
<path transform="translate(0,0)" fill="rgb(35,31,32)" d="M 1086.04 285.932 C 1087.28 285.878 1086.42 285.865 1088.58 286.365 C 1087.37 289.729 1081.69 293.571 1078.8 296.109 C 1073.27 300.968 1067.73 306.054 1061.29 309.699 C 1041.66 320.813 1001.3 326.336 976.997 335.939 C 955.558 344.41 936.413 356.004 916.931 368.133 L 915.039 368.661 C 915.142 368.167 915.169 367.651 915.346 367.179 C 917.572 361.244 932.234 349.086 937.322 344.796 C 967.873 319.036 1001.82 302.839 1041.2 295.602 C 1056.34 292.819 1071.68 291.797 1086.04 285.932 z"/>
<path transform="translate(0,0)" fill="rgb(35,31,32)" d="M 1110.48 1379.05 A 29.0987 29.0987 0 0 1 1114.1 1378.76 C 1125.59 1378.49 1136.58 1387.07 1144.43 1394.72 C 1140.7 1405.36 1136.03 1416.69 1130.48 1426.5 C 1125.94 1434.53 1120.64 1441.45 1111.43 1443.97 C 1109.55 1443.6 1107.59 1443.17 1105.79 1442.5 C 1092.34 1437.5 1083.6 1422.53 1077.82 1410.21 C 1078.27 1408.52 1078.76 1406.82 1079.43 1405.2 C 1084.98 1391.77 1097.87 1384.5 1110.48 1379.05 z"/>
<path transform="translate(0,0)" fill="rgb(254,254,254)" d="M 1102.6 1390.79 C 1104.86 1390.64 1107.28 1390.42 1109.5 1390.96 C 1116.73 1392.69 1120.65 1400.17 1124.24 1405.99 C 1123.36 1411.16 1122.58 1421.2 1118.52 1424.55 C 1110.09 1418.52 1101.83 1412.4 1093.93 1405.67 C 1096.45 1400.43 1099.45 1395.67 1102.6 1390.79 z"/>
<path transform="translate(0,0)" fill="rgb(35,31,32)" d="M 1575.79 1717.14 L 1576.53 1717.81 C 1575.56 1718.95 1574.62 1719.94 1573.47 1720.9 C 1561.8 1730.58 1548.17 1738.62 1535.21 1746.48 C 1485.22 1776.8 1434.59 1795.59 1374.98 1789.95 L 1374.08 1789.67 L 1373.55 1788.37 C 1379.77 1784.68 1390.92 1784.14 1398.16 1782.12 C 1404.43 1780.37 1410.6 1778.06 1416.75 1775.94 C 1470.35 1757.44 1523.15 1738.25 1575.79 1717.14 z"/>
<path transform="translate(0,0)" fill="rgb(35,31,32)" d="M 876.339 1156.98 C 889.936 1158.03 906.601 1172.56 915.788 1181.96 C 913.888 1184.5 911.757 1186.88 909.709 1189.31 C 909.674 1192.38 909.682 1195.53 909.321 1198.59 C 908.348 1206.81 902.971 1216.77 896.338 1221.8 C 892.312 1224.85 889.489 1225.34 884.532 1224.66 C 877.927 1221.76 872.999 1217.04 866.782 1213.57 C 859.493 1209.5 853.682 1211.65 846.149 1213.62 L 846.122 1213.65 C 845.844 1210.15 861 1173.15 863.246 1168.71 C 866.424 1162.43 869.676 1159.21 876.339 1156.98 z"/>
<path transform="translate(0,0)" fill="rgb(254,254,254)" d="M 875.016 1175.35 C 882.442 1178 887.616 1184.79 891.762 1191.15 C 890.696 1196.92 891.092 1205.88 888.941 1210.9 C 882.699 1206.69 876.786 1201.86 870.801 1197.3 C 871.876 1189.92 872.733 1182.46 875.016 1175.35 z"/>
<path transform="translate(0,0)" fill="rgb(35,31,32)" d="M 1850.46 832.926 L 1851.08 833.275 L 1851.26 835.009 C 1841.9 859.513 1813.22 887.819 1792.18 902.375 C 1761.54 923.563 1730.18 926.525 1693.87 920.036 C 1691.63 919.373 1690.74 919.148 1688.94 917.579 C 1690.8 916.45 1721.27 908.666 1727.94 906.131 C 1763.71 892.524 1799.86 875.014 1830.06 851.265 C 1837.3 845.576 1843.47 838.871 1850.46 832.926 z"/>
<path transform="translate(0,0)" fill="rgb(35,31,32)" d="M 908.906 863.141 C 909.415 863.093 909.922 863.039 910.431 862.998 C 914.902 862.637 918.253 862.974 921.665 866.192 C 929.497 873.579 935.019 888.401 935.358 899.105 C 935.695 909.766 928.771 917.816 921.694 924.987 C 918.087 928.642 912.735 935.013 907.335 935.075 C 899.474 925.711 887.785 919.497 881.853 908.561 C 877.85 901.183 875.03 883.826 878.45 875.717 C 880.617 870.58 902.639 865.31 908.906 863.141 z"/>
<path transform="translate(0,0)" fill="rgb(254,254,254)" d="M 896.143 879.309 C 899.033 879.091 902.077 878.772 904.974 878.957 C 910.136 879.286 915.032 882.318 918.216 886.305 A 22.6788 22.6788 0 0 1 922.853 903.302 C 921.856 911.048 918.314 914.913 912.305 919.462 C 911.544 919.562 911.004 919.716 910.244 919.512 C 904.552 917.986 892.215 901.777 889.139 895.896 C 886.661 891.16 885.756 887.194 887.471 882.086 C 890.45 879.719 892.428 879.855 896.143 879.309 z"/>
<path transform="translate(0,0)" fill="rgb(35,31,32)" d="M 332.697 1558.96 C 333.629 1560.4 333.69 1559.77 332.995 1561.23 C 327.592 1572.52 319.06 1583.59 312.261 1594.1 C 304.532 1606.06 297.856 1618.25 291.387 1630.92 C 268.699 1675.37 253.132 1721.71 248.236 1771.6 C 247.638 1777.68 246.976 1783.88 246.951 1790 C 246.926 1796.22 247.96 1802.3 247.322 1808.52 L 246.208 1809.31 L 243.702 1807.19 C 238.278 1792.19 236.356 1776.45 236.507 1760.55 C 237.184 1689.42 282.414 1608.03 332.697 1558.96 z"/>
<path transform="translate(0,0)" fill="rgb(35,31,32)" d="M 1721.89 1237.98 C 1723.11 1239.58 1723 1240.24 1722.63 1242.29 C 1720.52 1253.83 1697.57 1272.4 1688.59 1279.13 C 1651.52 1306.89 1601.96 1334.77 1554.11 1327.96 L 1552.54 1327.14 L 1552.26 1325.61 C 1557.88 1318.4 1596.36 1301.63 1606.27 1297.87 C 1620.47 1292.48 1635.13 1288.31 1649.31 1282.83 A 324.65 324.65 0 0 0 1677.53 1270.1 C 1694.23 1261.48 1707.77 1250.17 1721.89 1237.98 z"/>
<path transform="translate(0,0)" fill="rgb(35,31,32)" d="M 1606.8 1394.94 C 1623.4 1394.97 1633.95 1414.06 1649.2 1419.42 C 1648.88 1433.95 1645.84 1452.73 1634.81 1463.26 C 1631.18 1466.73 1628.41 1467.09 1623.5 1467.07 C 1607.5 1460.89 1590.17 1450.2 1578.35 1437.78 C 1583.18 1423.07 1593.88 1403.79 1606.8 1394.94 z"/>
<path transform="translate(0,0)" fill="rgb(254,254,254)" d="M 1616.52 1415.92 C 1617.92 1415.84 1619.35 1415.73 1620.75 1415.93 C 1624.53 1416.45 1629.06 1419.05 1631.16 1422.29 C 1633.31 1425.61 1633.67 1429.84 1632.88 1433.64 C 1631.74 1439.12 1627.7 1445.62 1622.49 1448.1 C 1619.39 1449.57 1617.27 1448.17 1614.24 1447.2 A 763.188 763.188 0 0 0 1595 1441.72 C 1599.76 1430.17 1606.04 1422.68 1616.52 1415.92 z"/>
<path transform="translate(0,0)" fill="rgb(35,31,32)" d="M 1383.28 1642.94 C 1393.73 1643.68 1403.46 1648.88 1410.99 1656.03 C 1417.13 1661.87 1422.21 1669.67 1422.13 1678.43 C 1422.1 1681.69 1421.29 1685.25 1419.56 1688.05 C 1417.33 1691.63 1397.45 1712.13 1393.57 1715.91 C 1391.71 1716.37 1389.92 1716.86 1388 1716.34 C 1377.28 1713.43 1364.78 1700.37 1359.87 1690.7 C 1356.27 1683.6 1355.5 1675.84 1358.24 1668.31 C 1362.35 1657.07 1372.44 1647.66 1383.28 1642.94 z"/>
<path transform="translate(0,0)" fill="rgb(254,254,254)" d="M 1378.66 1657.04 C 1380.52 1656.93 1382.53 1656.76 1384.36 1657.16 C 1394.67 1659.42 1403.91 1675.96 1409.12 1684.24 L 1397.35 1695.31 C 1396.12 1696.62 1395.1 1697.2 1393.47 1697.95 C 1390.23 1696.83 1383.67 1687.38 1380.25 1684.37 C 1376.37 1680.96 1370.51 1676.26 1370.7 1670.54 C 1370.88 1665.41 1374.85 1660.15 1378.66 1657.04 z"/>
<path transform="translate(0,0)" fill="rgb(35,31,32)" d="M 1098.47 1666.94 C 1107.79 1667.19 1118.87 1677.52 1127.5 1682.11 C 1128.58 1684.82 1129.64 1687.56 1130.35 1690.4 C 1134.1 1705.46 1129.24 1731.12 1121.51 1744.42 A 39.031 39.031 0 0 1 1119.74 1745.46 C 1112.7 1749.43 1105.64 1752.31 1097.58 1750.04 C 1087.91 1744.01 1076.46 1735.94 1068.44 1727.88 C 1065.5 1724.94 1062.34 1720.72 1062.81 1716.29 C 1063.4 1710.6 1072.05 1705.53 1076.27 1702.14 C 1090.26 1690.93 1087.49 1676.21 1098.47 1666.94 z"/>
<path transform="translate(0,0)" fill="rgb(254,254,254)" d="M 1102.9 1685.47 C 1110.22 1689.14 1117.98 1702.36 1122.49 1709.09 C 1119 1719.75 1112.86 1726.62 1105.02 1734.25 L 1104.56 1734.38 C 1098.77 1732.55 1089.9 1716.3 1086.22 1710.93 C 1095.12 1703.49 1098.36 1695.86 1102.9 1685.47 z"/>
<path transform="translate(0,0)" fill="rgb(35,31,32)" d="M 1844.15 1312.84 C 1844.39 1313.71 1844.52 1313.96 1844.48 1314.98 C 1843.6 1336.57 1815.64 1363.29 1800.04 1375.63 C 1790.63 1383.07 1780.8 1390.01 1770.19 1395.65 C 1746.07 1408.45 1681.49 1432.79 1655.51 1429.83 L 1655.41 1429.14 C 1657.01 1425.48 1664.23 1421.97 1667.88 1420.01 C 1682.51 1412.16 1698.34 1406.5 1713.27 1399.22 C 1737.66 1387.32 1762.06 1373.35 1785.21 1359.22 A 293.492 293.492 0 0 0 1844.15 1312.84 z"/>
<path transform="translate(0,0)" fill="rgb(35,31,32)" d="M 1265.51 400.211 C 1267.33 399.91 1269.06 399.672 1270.91 399.667 C 1274.96 399.657 1280.29 400.052 1283.29 403.046 L 1283.1 405.098 C 1275.83 414.653 1258.35 418.822 1248.17 425.565 C 1247.81 425.801 1247.46 426.046 1247.11 426.286 C 1238.65 442.582 1232.49 477.229 1227.52 496.725 C 1220.97 522.396 1213.46 547.954 1207.77 573.807 C 1206.16 581.098 1204.19 588.625 1203.47 596.06 C 1203.04 600.422 1203.63 605.072 1202.91 609.34 C 1202.49 611.815 1201.56 613.323 1199.82 615.145 C 1196.92 616.302 1195.79 616.251 1192.85 615.674 C 1191.08 614.463 1189.94 613.408 1188.94 611.514 C 1180.62 595.692 1192.41 565.534 1196.93 549.56 C 1208.06 511.652 1220.5 474.093 1232.12 436.325 C 1219.62 443.481 1208.04 452.347 1195.54 459.586 C 1189.94 462.827 1181.23 467.488 1174.64 464.878 C 1171.44 463.608 1169.95 461.141 1168.64 458.153 C 1167.15 454.753 1165.43 450.494 1166.82 446.849 C 1176.66 440.457 1192.93 436.605 1204.37 431.219 C 1225.18 421.418 1243.66 408.281 1265.51 400.211 z"/>
<path transform="translate(0,0)" fill="rgb(35,31,32)" d="M 1569.56 312.353 C 1571.64 312.793 1573.43 313.51 1574.95 315.089 C 1579.05 319.335 1576.69 329.879 1576.12 335.135 C 1592.18 330.252 1626.67 317.689 1642.25 320.599 L 1642.78 321.779 C 1637.99 325.178 1631.39 327.212 1626.02 329.759 A 1568.83 1568.83 0 0 1 1570.73 354.977 C 1554.35 407.328 1525.78 455.407 1506.98 506.994 C 1504.31 514.388 1502.13 522.869 1496.32 528.458 C 1493.52 531.151 1490.55 532.798 1486.56 532.475 C 1484.42 532.302 1484.67 531.836 1483.49 530.276 C 1481.44 512.634 1536.15 393.117 1547.35 367.11 L 1545.72 367.932 C 1538.78 371.347 1520.74 379.784 1513.35 377.304 L 1513.14 375.642 C 1521.27 362.25 1540.28 352.178 1553.63 345.051 C 1559.12 334.03 1562.81 322.808 1569.56 312.353 z"/>
<path transform="translate(0,0)" fill="rgb(35,31,32)" d="M 1068.18 454.697 C 1069.87 455.149 1070.83 455.892 1072.26 456.861 C 1075.12 463.048 1069.32 468.145 1065.47 472.566 C 1058.37 480.719 1053.73 488.982 1049.68 498.967 C 1033.43 539.063 1025.09 583.205 1015.2 625.185 C 1009.67 648.659 999.467 676.268 1000.99 700.456 C 1002.01 701.908 1002.93 703.311 1003.75 704.885 C 1002.28 706.984 1001.53 707.948 999.132 708.928 C 996.233 707.512 994.279 706.101 992.5 703.342 C 981.147 685.738 996.027 631.655 1000.87 610.945 A 2389.35 2389.35 0 0 1 1034.36 500.178 C 1018.71 511.47 1001.04 526.69 988.914 541.792 C 985.594 545.928 983.111 550.665 979.97 554.909 C 978.214 557.28 977.38 558.368 974.447 558.786 C 971.885 557.732 970.998 556.814 969.368 554.592 C 968.599 551.063 968.346 548.205 969.229 544.652 C 974.546 523.264 1048.47 466.027 1068.18 454.697 z"/>
<path transform="translate(0,0)" fill="rgb(35,31,32)" d="M 1347.27 378.634 C 1350.54 379.432 1353.04 381.036 1355.35 383.451 C 1359.12 387.4 1364.73 394.312 1364.54 399.936 C 1362.54 403.224 1354.07 402.923 1350.2 405.5 L 1310.42 431.799 C 1304.65 447.386 1301.81 464.026 1295.94 479.718 C 1304.04 475.117 1329.66 456.312 1337.7 457.924 L 1337.85 460.112 C 1331.77 473.376 1304.87 486.915 1292.36 495.578 C 1284.85 517.249 1274.12 555.437 1272.12 577.787 C 1290.59 570.244 1305.96 553.45 1319.96 539.658 C 1323.25 536.448 1328.7 529.796 1332.99 528.327 C 1335.72 527.393 1336.19 527.707 1338.56 528.95 C 1341.2 532.46 1341.43 536.671 1342.13 540.896 C 1332.01 552.956 1303.06 578.221 1289.52 586.088 C 1282.22 590.328 1272.52 594.043 1264.01 591.356 C 1261.04 590.421 1259.24 588.64 1258.02 585.827 C 1249.78 566.771 1293.45 452.061 1301.92 429.388 C 1296.79 429.465 1291.22 430.061 1286.3 428.49 L 1285.87 427.065 C 1289.02 421.095 1304.22 414.859 1310.21 410.545 C 1322.99 401.349 1336.87 390.439 1347.27 378.634 z"/>
<path transform="translate(0,0)" fill="rgb(35,31,32)" d="M 441.777 370.872 L 443.487 371.993 C 442.688 374.546 440.712 375.983 438.792 377.698 C 417.58 396.646 394.659 413.699 373.459 432.693 C 328.165 473.275 284.97 522.763 252.166 574.146 C 238.591 595.409 226.532 617.989 214.48 640.151 C 207.455 653.067 200.793 666.283 192.5 678.444 L 191.58 678.592 C 190.831 676.652 191.06 676.439 191.674 674.532 C 195.026 664.118 200.189 653.702 204.278 643.504 C 235.054 566.747 282.342 486.916 345.702 432.477 C 364.871 416.007 386.346 403.327 407.945 390.405 C 419.087 383.738 430.147 376.659 441.777 370.872 z"/>
<path transform="translate(0,0)" fill="rgb(35,31,32)" d="M 1151.21 434.855 C 1152.22 435.231 1152.92 435.942 1153.75 436.619 C 1153.9 439.801 1152.82 441.284 1150.73 443.654 C 1143 452.443 1132.86 459.229 1124.34 467.282 C 1112.04 478.906 1082.01 512.426 1080.77 529.737 C 1080.61 531.905 1080.85 533.998 1082.56 535.496 C 1088.83 541.005 1108.78 533.846 1116.78 532.905 C 1127.46 531.65 1140.43 531.68 1149.02 538.978 C 1154.9 543.98 1157.38 551.323 1157.77 558.855 C 1159 583.033 1141.82 613.554 1125.66 630.518 C 1113.55 643.223 1094.91 655.421 1076.85 655.481 C 1064.67 655.521 1056.51 650.132 1048.15 641.995 C 1045.1 638.187 1041.11 632.583 1040.98 627.51 C 1040.91 624.859 1041.14 624.444 1042.84 622.665 C 1050.23 621.741 1055.96 632.116 1062.85 635.081 C 1070.26 638.271 1078.37 637.184 1085.66 634.217 C 1108.13 625.075 1126.66 599.958 1135.5 578.157 C 1138.6 570.53 1143.06 557.503 1139.09 549.766 C 1133.06 537.982 1095.16 554.171 1078.24 548.052 C 1073.26 546.251 1069.88 542.844 1067.97 537.92 C 1064.91 530.09 1066.62 521.789 1069.83 514.318 C 1081.05 488.174 1124.68 445.154 1151.21 434.855 z"/>
<path transform="translate(0,0)" fill="rgb(35,31,32)" d="M 626.148 398.978 C 628.279 399.447 628.579 399.839 630.123 401.276 C 628.777 403.677 627.509 404.928 625.114 406.319 C 613.566 413.028 600.293 417.089 588.238 422.852 C 573.361 429.965 559.402 439.599 545.751 448.805 C 487.408 488.153 440.049 537.593 400.36 595.433 C 349.786 669.136 313.854 763.425 309.337 852.985 C 308.24 874.724 308.437 897.492 314.024 918.656 C 317.343 931.226 323.341 943.934 330.09 955.009 C 333.941 961.328 351.051 980.911 351.9 985.489 L 349.492 985.129 C 330.549 974.164 318.626 958.847 310.801 938.512 C 281.022 861.124 308.914 755.68 341.288 683.192 C 376.799 603.677 444.587 512.303 514.269 459.759 C 547.901 434.399 586.861 413.963 626.148 398.978 z"/>
<path transform="translate(0,0)" fill="rgb(35,31,32)" d="M 949.955 508.717 C 950.445 508.818 950.954 508.855 951.426 509.021 C 953.983 509.917 954.484 510.757 955.781 512.95 C 956.078 516.542 955.513 519.429 953.296 522.387 C 947.882 529.612 939.772 535.874 933.297 542.276 C 915.271 560.099 895.002 581.628 883.623 604.307 C 880.587 610.358 877.862 617.075 880.1 623.783 C 890.33 636.659 916.193 611.403 940.551 622.027 C 950.259 626.261 958.546 634.552 962.393 644.466 C 967.714 658.174 963.012 674.164 957.382 687.054 C 946.894 711.065 924.4 736.464 899.349 745.67 C 886.214 750.496 875.405 748.8 863.006 743.276 A 57.4206 57.4206 0 0 1 857.316 739.653 C 853.179 736.614 850.41 730.694 849.769 725.674 C 849.366 722.514 850.089 719.734 852.379 717.396 C 852.837 716.928 855.467 715.136 855.9 715.093 C 858.003 714.881 870.763 727.294 878.352 727.696 C 888.303 728.223 901.787 719.22 909.135 713.005 C 925.58 699.098 941.998 677.183 943.403 654.955 C 943.808 648.543 943.11 640.051 938.359 635.201 C 928.733 625.375 901.502 636.392 888.366 635.569 C 881.732 635.154 874.145 632.607 869.819 627.301 C 866.315 623.004 865.754 617.593 866.332 612.245 C 869.897 579.247 924.601 529.817 949.955 508.717 z"/>
<path transform="translate(0,0)" fill="rgb(35,31,32)" d="M 1487.44 345.338 C 1488.8 345.654 1490.33 346.075 1491.57 346.762 C 1494.4 348.329 1496.89 351.344 1497.6 354.516 C 1500.24 366.35 1486.97 385.708 1482.81 396.978 C 1470.83 429.444 1457.76 461.955 1448.7 495.388 C 1446.14 504.822 1443.49 514.979 1442.88 524.77 C 1442.63 528.731 1443.84 535.408 1441.83 538.641 C 1439.08 539.03 1437.17 538.423 1434.93 536.738 C 1429.8 532.896 1427.2 524.556 1424.75 518.836 C 1410.8 486.257 1403.87 453.553 1398.34 418.692 A 1066.17 1066.17 0 0 0 1372.58 531.398 C 1371.05 540.682 1373.48 562.629 1369.07 569.118 C 1366.01 570.553 1364.25 570.785 1360.86 570.811 C 1355.48 563.821 1355.97 548.973 1356.33 540.494 C 1356.79 529.839 1358.87 519.656 1361.25 509.293 C 1364.77 494.01 1394.85 382.083 1402.2 375.28 C 1404.33 375.107 1406.1 374.875 1408.15 375.716 C 1412.13 377.353 1413.95 381.237 1414.78 385.188 C 1416.98 395.55 1415.45 408.652 1415.9 419.472 C 1417.06 447.183 1420.59 476.056 1429.03 502.588 C 1434.47 485.522 1439.02 468.164 1444.75 451.196 C 1452.21 429.114 1461.06 407.543 1469.79 385.946 C 1475.24 372.467 1480.12 357.897 1487.44 345.338 z"/>
<path transform="translate(0,0)" fill="rgb(35,31,32)" d="M 835.99 560.581 C 837.533 562.758 838.434 564.794 838.626 567.47 C 839.334 577.37 837.611 588.244 836.539 598.123 C 832.883 631.809 825.853 665.084 822.383 698.794 C 821.258 709.731 820.003 720.747 819.523 731.732 C 819.129 740.75 819.867 750.383 818.409 759.275 C 817.195 766.68 811.319 775.037 811.121 782.02 C 811.081 783.412 811.187 784.873 811.176 786.279 C 809.213 786.425 808.691 786.736 806.862 785.775 C 801.529 782.973 797.489 775.345 794.306 770.401 C 773.48 738.049 762.431 702.997 750.756 666.643 C 746.152 702.37 738.289 737.878 732.153 773.381 C 729.085 791.131 727.884 809.272 724.594 826.93 C 724.077 829.707 723.527 832.344 721.691 834.562 L 720.278 833.803 C 718.375 830.567 717.25 827.539 716.215 823.937 C 708.831 779.645 724.363 719.312 733.717 675.74 C 738.105 655.304 741.647 632.473 750.177 613.3 A 1649.22 1649.22 0 0 0 800.442 749.605 C 800.47 699.844 811.396 650.892 822.94 602.757 C 826.071 589.705 828.926 571.917 835.99 560.581 z"/>
<path transform="translate(0,0)" fill="rgb(35,31,32)" d="M 1186.91 229.95 C 1181.56 228.321 1177.88 225.222 1175.18 220.304 C 1170.72 212.195 1172 200.914 1174.83 192.479 A 49.8053 49.8053 0 0 1 1199.77 163.477 C 1214.06 156.397 1231.59 155.694 1246.56 161.022 C 1259.21 165.528 1269.2 173.632 1274.93 185.972 C 1281.33 199.758 1279.69 215.635 1274.32 229.457 C 1268.14 245.379 1256.68 256.388 1241.66 264.185 C 1180.08 296.144 1114.21 261.157 1049.84 260.499 C 1022.79 260.223 997.05 267.021 972.467 278.004 C 902.332 309.339 854.992 364.784 832.604 437.848 C 826.372 458.184 824.851 479.269 817.151 499.217 C 809.048 461.375 819.267 420.012 834.04 385.082 A 257.797 257.797 0 0 1 914.503 280.997 C 988.01 224.769 1050.75 232.362 1135.15 250.686 C 1164.46 257.052 1196.79 263.579 1225.57 251.604 C 1238.61 246.179 1257.78 234.992 1262.95 221.155 C 1265.39 214.615 1264.75 207.581 1261.76 201.338 C 1257.73 192.914 1249.9 186.497 1241.08 183.622 C 1231.5 180.503 1218.87 181.064 1209.85 185.687 C 1200.4 190.529 1194.8 201.183 1192.1 211.12 C 1190.58 216.713 1190.86 220.928 1193.7 225.978 C 1193.87 226.286 1194.06 226.589 1194.24 226.895 C 1194.55 226.974 1194.87 227.058 1195.18 227.133 C 1200.99 228.505 1207.17 228.189 1212.24 224.724 C 1221.79 218.188 1222.08 204.328 1228.44 199.455 C 1230.2 201.084 1230.5 202.214 1230.58 204.56 C 1230.82 211.303 1226.98 218.361 1222.11 222.797 C 1214.81 229.431 1202.09 232.257 1192.36 231.468 C 1190.48 231.317 1188.53 230.911 1186.91 229.95 z"/>
<path transform="translate(0,0)" fill="rgb(35,31,32)" d="M 658.665 665.138 C 668.114 664.139 676.163 665.15 684.173 670.7 C 694.255 677.685 698.827 689.473 700.919 701.116 C 708.575 743.742 684.208 812.213 659.643 846.711 C 649.4 861.094 636.465 874.529 618.371 877.622 C 611.393 878.041 605.271 876.99 598.985 873.806 C 588.095 868.29 580.694 857.347 577.115 845.893 C 565.764 809.565 583.624 753.206 600.964 720.98 C 613.817 697.092 631.664 673.279 658.665 665.138 z"/>
<path transform="translate(0,0)" fill="rgb(254,254,254)" d="M 669.42 680.042 C 673.239 679.764 675.997 679.649 679.377 681.763 C 684.786 685.146 687.5 691.004 688.707 697.077 C 695.657 732.033 673.643 793.328 654.111 821.98 C 642.881 838.453 628.405 853.027 608.24 856.855 C 605.317 856.948 602.595 856.87 599.772 856.01 C 595.472 854.701 592.492 851.5 590.667 847.472 C 582.624 829.733 591.815 791.285 598.23 773.507 C 610.14 740.504 636.483 695.589 669.42 680.042 z"/>
<path transform="translate(0,0)" fill="rgb(35,31,32)" d="M 1466.75 1057.43 C 1469.12 1057.29 1471.54 1057.1 1473.92 1057.15 C 1476.39 1057.2 1478.32 1057.12 1480.08 1058.86 C 1479.82 1059.15 1479.59 1059.47 1479.31 1059.74 C 1473.81 1064.94 1462.15 1067.85 1455.04 1070.48 C 1425.97 1081.26 1397.04 1090.87 1366.96 1098.56 C 1339.99 1105.44 1312.65 1110.65 1285.87 1118.37 C 1200.8 1142.91 1110.58 1178.26 1029.78 1214.8 C 967.101 1243.14 905.861 1275.13 844.5 1306.19 C 837.488 1309.74 800.543 1330.51 796.406 1330.47 C 796.419 1330.16 796.397 1329.85 796.444 1329.55 C 797.12 1325.21 803.211 1321.01 806.504 1318.41 C 818.688 1308.78 832.634 1301.03 845.555 1292.41 C 868.553 1277.08 891.143 1261.15 914.57 1246.47 C 943.869 1228.82 974.019 1211.13 1004.84 1196.25 C 1022.86 1187.55 1044.51 1180.6 1061.3 1170.54 C 1061.64 1168.61 1060.72 1167.75 1059.85 1166.04 C 1064.79 1152.3 1089.3 1116.15 1100.61 1107.3 C 1101.83 1106.34 1103.15 1105.74 1103.5 1104.04 C 1104.73 1098.04 1095.18 1084.82 1102.42 1071.82 C 1105.25 1066.73 1110.75 1064.31 1116.09 1062.71 C 1121.94 1060.96 1135.47 1057.16 1140.81 1060.45 C 1149.43 1065.76 1156.39 1087.36 1158.7 1096.73 C 1149.86 1108.1 1143.26 1120.56 1130.58 1128.14 L 1129.85 1127.36 C 1129.43 1126.93 1129.01 1126.51 1128.6 1126.07 C 1121.91 1118.82 1111.5 1114.55 1105.86 1106.84 C 1097.12 1127.77 1082.59 1146.85 1071.99 1166.97 C 1101.78 1157.13 1130.87 1144.02 1160.43 1133.28 C 1238.63 1104.88 1316.92 1081.04 1399.04 1066.85 C 1421.56 1062.95 1443.92 1059.11 1466.75 1057.43 z"/>
<path transform="translate(0,0)" fill="rgb(254,254,254)" d="M 1120.84 1074.36 C 1123.39 1074.17 1127.25 1073.51 1129.65 1074.55 C 1137.91 1078.15 1140.72 1089.86 1143.76 1097.63 C 1139.55 1102.77 1135.22 1106.71 1129.88 1110.59 C 1125.88 1108.7 1110.15 1091.03 1108.46 1086.64 C 1107.47 1084.06 1107.25 1081.32 1108.79 1078.9 C 1111.45 1074.73 1116.44 1074.87 1120.84 1074.36 z"/>
<path transform="translate(0,0)" fill="rgb(35,31,32)" d="M 1496.15 1539.41 C 1519.2 1537.5 1543.25 1537.96 1566.03 1541.8 C 1549.67 1543.21 1533.3 1543.92 1516.97 1545.81 A 750.609 750.609 0 0 0 1396.74 1570.78 C 1356.01 1582.74 1316.55 1598.36 1275.98 1610.78 C 1230.67 1624.64 1183.77 1633.59 1138.94 1648.72 C 1125.85 1653.14 1113.14 1658.58 1100.14 1663.25 A 3417.23 3417.23 0 0 0 743.112 1815.83 C 714.407 1829.89 686.347 1845.3 657.694 1859.49 C 641.111 1867.71 625.492 1877.9 608.59 1885.45 A 79.6361 79.6361 0 0 1 612.181 1880.82 C 634.567 1854.29 703.527 1819.68 735.634 1801.63 C 756.673 1789.81 777.501 1777.45 798.715 1765.96 A 2716.37 2716.37 0 0 1 934.352 1698.48 C 991.463 1671.92 1049.89 1646.58 1109.78 1626.91 C 1163.52 1609.26 1218.87 1597.19 1273.59 1583.04 C 1347 1564.06 1420.36 1545.44 1496.15 1539.41 z"/>
<path transform="translate(0,0)" fill="rgb(35,31,32)" d="M 1732.52 1448.32 C 1740.56 1448.04 1748.65 1449.96 1755.45 1454.37 C 1765.46 1460.85 1770.96 1470.73 1773.15 1482.26 C 1778.84 1512.23 1767.11 1548.94 1748.3 1572.34 C 1697.31 1635.74 1530.38 1708.01 1453.15 1734.7 C 1435.02 1740.96 1416.6 1746.16 1398.16 1751.41 C 1384.63 1755.26 1368.32 1758.15 1356.17 1765.29 C 1340.37 1774.57 1316.79 1801.56 1306.16 1816.45 C 1299.76 1825.42 1294.41 1835.12 1288.2 1844.24 C 1295.82 1813.01 1315.27 1792.36 1336.46 1769.44 C 1311.68 1774.03 1287.47 1782.64 1262.99 1788.74 C 1196.76 1805.23 1130.88 1821.9 1065.46 1841.45 C 1036.21 1850.19 1009.37 1864.87 979.106 1869.9 C 987.257 1863.25 996.275 1858.84 1005.75 1854.38 C 1029.24 1843.47 1053.65 1834.76 1077.93 1825.8 A 3123.65 3123.65 0 0 1 1178.95 1789.65 C 1224.83 1773.78 1270.36 1755.94 1316.81 1741.82 C 1336.17 1735.94 1356.06 1731.68 1375.6 1726.38 C 1399.1 1720.01 1422.89 1712.21 1445.77 1703.87 C 1519.42 1677.02 1717.09 1605.37 1749.44 1534.53 C 1756.96 1518.08 1761.76 1498.07 1754.94 1480.6 C 1752.33 1473.94 1747.75 1468.8 1741.02 1466.15 C 1732.13 1462.64 1722.36 1463.92 1713.9 1467.88 C 1707.14 1471.04 1699.87 1475.26 1697.65 1482.96 C 1696.58 1486.67 1698.34 1490.81 1700.39 1493.86 C 1703.67 1498.75 1709.42 1503.56 1715.41 1504.48 C 1718.56 1504.96 1720.39 1503.93 1722.87 1502.16 C 1727.29 1492.71 1717.06 1487.22 1717.6 1478.63 L 1719.21 1477.8 C 1722.38 1477.75 1725.14 1477.83 1727.96 1479.47 C 1731.95 1481.79 1734.29 1485.9 1735.4 1490.27 C 1737.01 1496.63 1736.24 1504.15 1732.51 1509.65 C 1729.5 1514.1 1724.76 1516.84 1719.48 1517.6 C 1712.43 1518.62 1705.84 1516.87 1700.31 1512.41 C 1693.64 1507.03 1688.77 1499.05 1687.94 1490.45 C 1687.1 1481.7 1690.68 1473.24 1696.15 1466.55 C 1705.16 1455.55 1718.64 1449.71 1732.52 1448.32 z"/>
<path transform="translate(0,0)" fill="rgb(35,31,32)" d="M 1415.62 241.283 C 1425.44 241.422 1435.57 245.572 1443.65 250.951 C 1457.01 259.852 1464.31 271.075 1467.4 286.728 C 1497.35 278.648 1529 276.186 1559.74 272.743 A 2078.67 2078.67 0 0 1 1766.05 258.553 C 1778.78 258.306 1796.38 255.861 1808.67 259.114 C 1804.84 264.726 1687.72 273.575 1671.2 275.769 C 1631.07 281.099 1591.17 285.792 1551.52 294.141 C 1522.08 300.34 1493.4 309.473 1464.01 315.761 C 1441.22 320.637 1418.28 324.67 1395.54 329.88 C 1372.23 335.222 1349.19 341.694 1325.91 347.167 C 1281.04 357.716 1235.89 368.427 1191.79 381.91 C 1167.52 389.327 1143.93 398.847 1119.97 407.16 L 1046.28 430.553 C 1011.88 441.25 976.489 451.873 943.571 466.634 C 933.413 471.19 923.86 477.246 914.007 482.427 C 901.07 489.228 887.814 495.451 874.995 502.473 C 863.428 508.809 852.13 516.32 839.608 520.606 C 843.877 513.494 849.372 507.763 855.481 502.217 C 894.51 466.78 947.166 447.773 995.031 427.53 C 1030.49 412.531 1065.39 396.746 1101.48 383.229 A 1812.1 1812.1 0 0 1 1312 320.173 C 1335.69 314.414 1370.57 303.863 1394.15 305.029 C 1396.77 306.818 1399.81 309.341 1402.86 310.18 C 1404.42 310.61 1404.65 309.931 1405.85 309.089 C 1406.8 306.9 1407.64 305.611 1406.77 303.163 C 1403.42 293.71 1385.24 288.741 1377.16 283.92 L 1376.26 283.37 C 1381.34 269.237 1391.44 255.101 1401.71 244.252 C 1406.3 242.863 1410.9 242.078 1415.62 241.283 z"/>
<path transform="translate(0,0)" fill="rgb(254,254,254)" d="M 1409.78 251.559 C 1415.43 252.015 1422.52 254.971 1427.65 257.459 C 1441.23 264.039 1449.29 274.28 1454.19 288.29 L 1434.42 293.56 L 1425.54 295.335 C 1423.9 290.408 1421.81 283.431 1416.85 280.871 C 1412.77 278.77 1409.37 279.937 1405.34 281.439 L 1392.4 276.4 C 1397.39 267.266 1402.78 259.283 1409.78 251.559 z"/>
<path transform="translate(0,0)" fill="rgb(35,31,32)" d="M 1751.6 531.416 C 1762.25 530.442 1773.44 530.782 1784.12 531.013 C 1750.44 539.652 1714.63 543.306 1680.38 549.448 C 1645.49 555.705 1610.89 563.677 1576.02 570.006 L 1501.41 583.855 C 1474.04 588.754 1446.52 593.275 1419.46 599.721 C 1366.8 612.267 1315.74 629.348 1264.61 646.937 C 1209.71 665.825 1154.78 684.794 1101.28 707.436 C 933.595 778.411 691.767 911.156 569.532 1044.46 C 534.294 1082.89 486.48 1144.99 489.283 1199.39 C 489.743 1208.32 491.625 1219.3 498.754 1225.38 C 503.056 1229.05 508.841 1230.38 514.4 1229.95 C 548.331 1227.36 577.691 1168.14 598.009 1145.43 C 596.189 1151.22 594.025 1156.68 591.601 1162.25 C 582.571 1183.75 569.582 1205.14 555.01 1223.32 C 543.539 1237.63 526.669 1252.18 507.593 1253.77 C 498.551 1254.53 489.912 1251.82 482.994 1245.93 C 470.462 1235.25 465.329 1215.69 464.143 1199.84 C 459.78 1141.55 498.784 1084.48 535.299 1042.52 C 565.627 1007.67 600.7 977.707 636.803 949.033 C 737.643 868.942 848.924 804.04 963.399 745.592 C 1001.92 725.922 1040.15 706.454 1079.91 689.263 C 1111.07 675.788 1143.19 664.588 1175.01 652.803 C 1241.11 628.321 1308.2 604.677 1376.57 587.208 C 1436.59 571.873 1497.62 562.531 1558.84 553.629 C 1597.51 548.005 1636.24 541.92 1675.08 537.585 C 1700.46 534.753 1726.13 533.164 1751.6 531.416 z"/>
<path transform="translate(0,0)" fill="rgb(35,31,32)" d="M 667.048 324.388 C 678.791 322.538 692.066 323.452 703.682 325.831 C 726.331 330.47 748.466 339.868 761.391 359.91 C 773.546 378.759 776.805 401.555 771.98 423.3 C 765.034 454.604 742.463 486.622 715.233 503.619 C 703.8 510.755 674.934 525.692 660.949 521.367 C 658.337 520.56 657.593 519.425 656.254 517.17 C 659.65 514.837 664.496 514.986 668.467 514.18 C 692.145 509.371 718.498 487.359 731.761 467.768 C 745.089 448.082 755.517 424.491 750.678 400.275 A 61.4739 61.4739 0 0 0 724.29 361.066 C 706.756 349.484 686.634 349.4 666.723 353.722 C 598.834 368.461 482.907 443.349 433.217 492.466 C 398.65 526.635 369.854 565.731 343.792 606.573 C 282.223 703.057 246.521 826.374 272.201 940.393 C 279.875 974.463 297.941 1010.19 328.402 1029.18 C 353.588 1044.88 380.996 1047.83 409.454 1041.36 C 460.63 1026.52 503.372 983.347 530.121 938.319 C 541.214 919.647 550.046 898.691 562.426 880.963 L 563.274 879.764 C 559.355 921.841 533.262 965.682 508.308 999.014 C 481.445 1034.9 447.698 1067.13 401.51 1073.34 C 364.067 1078.38 328.845 1068.82 299.091 1045.64 C 257.005 1012.84 238.973 960.596 232.747 909.39 C 219.148 797.553 262.098 664.623 321.714 570.765 C 334.063 551.323 349.285 532.641 363.519 514.513 C 418.141 444.951 517.804 369.144 601.229 339.282 C 622.556 331.648 644.598 327.061 667.048 324.388 z"/>
<path transform="translate(0,0)" fill="rgb(35,31,32)" d="M 1405.36 928.462 C 1534.93 906.513 1761.62 863.52 1848.46 759.307 C 1862.65 742.274 1876.62 717.496 1874.17 694.517 C 1872.82 681.826 1866.6 669.339 1856.32 661.555 C 1846.12 653.835 1835.03 651.451 1822.4 653.487 C 1804.76 656.332 1787.29 666.994 1777.15 681.793 C 1755.38 713.553 1798.1 720.032 1800.9 735.649 C 1799.84 738.356 1799.68 738.791 1797.39 740.54 C 1791.51 741.422 1786.34 737.723 1781.45 734.914 C 1769.78 728.207 1760.23 719.133 1756.86 705.627 C 1754.18 694.912 1756.87 684.33 1762.72 675.158 C 1773.88 657.63 1794.23 645.044 1814.37 640.798 C 1833.84 636.695 1857.18 639.821 1873.9 651.049 C 1886.43 659.463 1894.08 672.193 1896.93 686.883 C 1901.78 711.829 1892.65 736.922 1878.77 757.44 C 1854.52 793.294 1816.68 827.014 1779.66 849.136 C 1701.29 895.97 1576.34 925.587 1486.53 940.783 C 1453.62 946.352 1420.08 949.038 1387.32 955.295 C 1378.52 966.951 1359.63 999.411 1354.5 1012.63 C 1351.27 1020.94 1351.13 1030.23 1347.23 1038.39 C 1343.2 1046.82 1336.79 1048.54 1328.59 1051.64 C 1319.74 1047.85 1297.62 1038.15 1294.52 1028.4 C 1291.81 1019.86 1299.06 1002.78 1303.39 995.206 C 1306.74 989.331 1310.81 985.865 1317.53 984.278 C 1323.22 982.936 1329.16 984.149 1334.08 987.245 C 1342.43 992.504 1344.8 1000.11 1346.96 1009.11 C 1353.86 990.557 1363.74 973.601 1374.56 957.09 C 1352.37 959.984 1330.7 964.147 1308.66 967.784 C 1263.35 975.263 1217.73 983.134 1173.33 995.016 C 1087.3 1018.04 1003.06 1055.57 926.09 1100.2 C 895.591 1117.89 867.063 1138.38 837.357 1157.23 C 818.752 1169.04 800.001 1180.83 781.02 1192.03 C 763.442 1202.4 746.181 1211.35 729.679 1223.59 C 731.589 1220.82 733.515 1218.05 735.63 1215.43 C 750.627 1196.85 771.834 1184.8 791.05 1171.14 C 804.659 1161.47 817.85 1151.14 831.155 1141.05 C 904.626 1085.36 981.532 1032.24 1067.59 997.633 C 1133.31 971.208 1202.4 957.62 1272.06 946.623 C 1311.31 940.425 1350.27 934.941 1389.78 930.644 C 1396.93 917.721 1405.22 905.321 1412.91 892.707 A 1921.63 1921.63 0 0 1 1467.62 806.405 C 1479.18 789.066 1491.5 772.114 1502.41 754.363 C 1470.98 760.128 1439.81 767.68 1408.65 774.77 A 2939.02 2939.02 0 0 0 1242.28 816.151 C 1222.43 821.698 1170.34 834.388 1155.95 843.09 C 1143.18 850.804 1083.49 950.908 1072.41 970.583 C 1059.79 964.423 1036.8 955.765 1027.23 946.589 C 1026.94 947.049 1026.56 947.462 1026.36 947.968 C 1022.62 957.505 1033.17 974.151 1035.7 983.403 L 1034.81 984.901 C 1033.31 985.203 1032.72 985.648 1031.27 984.898 C 1026.22 982.291 1023.51 974.577 1022.01 969.465 C 1018.36 957.088 1019.68 948.797 1025.63 937.826 C 1026.7 935.499 1026.62 935.456 1028.92 934.364 C 1042.55 935.333 1058.96 948.853 1071.93 954.331 C 1083.99 930.597 1100.05 908.457 1114.97 886.422 C 1122.58 875.189 1131.18 863.759 1136.76 851.343 C 1076.67 873.979 1002.14 913.152 948.066 948.591 C 929.345 960.86 912.759 976.878 893.633 988.371 C 868.522 1003.46 841.595 1015.16 816.025 1029.39 C 768.409 1055.89 719.113 1083.36 675.001 1115.41 C 659.896 1126.38 646.432 1139.05 631.815 1150.56 C 653.189 1110.49 734.559 1055.35 773.501 1030.05 C 781.576 1024.81 836.627 992.544 838.045 989.762 C 836.324 989.249 835.581 988.89 834.137 987.936 C 833.678 986.567 833.471 985.43 833.684 983.981 C 835.452 971.973 862.587 915.684 872.612 908.289 C 874.445 906.937 874.4 906.954 876.731 907.401 C 877.321 908.539 877.446 908.627 877.749 910.048 C 880.043 920.807 851.081 975.595 842.955 986.595 C 867.1 976.623 890.825 954.488 912.095 939.238 C 934.6 923.102 958.752 907.759 982.742 893.931 C 997.646 885.341 1013.2 877.844 1028.58 870.163 A 1038.11 1038.11 0 0 1 1235.6 791.585 C 1268.1 782.984 1301.4 777.294 1333.79 768.586 C 1341.99 758.076 1348.96 745.899 1356.35 734.783 C 1364.14 723.078 1373.3 711.428 1379.61 698.868 C 1377.7 694.28 1375.36 689.825 1373.19 685.351 C 1374.2 680.798 1375.37 676.288 1377.35 672.043 C 1380.53 665.223 1385.8 658.66 1393.28 656.449 C 1399.58 654.585 1405.84 656.504 1411.37 659.651 C 1421.58 665.454 1434.69 677.075 1437.85 688.614 C 1438.97 692.67 1437.84 696.129 1435.74 699.624 C 1429.56 709.889 1419.18 720.314 1407.61 723.532 C 1398.66 720.239 1392.34 716.212 1385.13 710.076 C 1373.55 727.134 1361.1 746.06 1351.94 764.495 C 1391.57 755.776 1431.07 746.272 1470.87 738.332 C 1491.34 734.248 1511.98 731.218 1532.52 727.553 A 55.9252 55.9252 0 0 1 1531.61 705.575 C 1534.68 686.81 1547.04 666.574 1562.26 655.265 C 1561.73 661.251 1561.05 667.148 1560.13 673.087 C 1572.64 679.275 1584.13 685.69 1591.81 697.795 C 1591.24 703.421 1590.38 708.343 1588.65 713.739 C 1604.43 710.027 1660.82 696.83 1673.37 704.123 C 1674.8 704.954 1674.49 705.522 1674.77 706.992 C 1671.02 713.175 1660.55 716.335 1654.05 718.889 C 1608.29 736.862 1562.51 740.988 1515.62 752.718 C 1509.57 759.576 1504.85 768.178 1499.93 775.88 A 1846.61 1846.61 0 0 0 1467.65 828.061 C 1447.19 861.701 1425.68 894.711 1405.36 928.462 z"/>
<path transform="translate(0,0)" fill="rgb(254,254,254)" d="M 1555.42 686.283 C 1560.62 688.877 1568.27 693.715 1571.75 698.328 C 1573.52 700.662 1574.78 703.531 1574.07 706.511 C 1572.74 712.131 1565.92 714.591 1561.28 716.895 C 1557.14 718.601 1551.22 722.003 1546.76 721.631 L 1545.53 720.105 C 1543.76 709.72 1551.24 695.596 1555.42 686.283 z"/>
<path transform="translate(0,0)" fill="rgb(254,254,254)" d="M 1323.62 1000.79 C 1325.28 1000.75 1327.43 1000.62 1329.03 1001.05 C 1335.29 1002.77 1338.65 1011.02 1341.52 1016.21 C 1338.19 1022.99 1334.21 1032.48 1328.81 1037.64 L 1327.25 1037.06 C 1320.87 1029.8 1314.64 1027.61 1305.86 1024.22 C 1310.5 1015.36 1316.63 1007.88 1323.62 1000.79 z"/>
<path transform="translate(0,0)" fill="rgb(254,254,254)" d="M 1395.99 674 C 1397.66 673.881 1399.35 673.76 1401.02 673.862 C 1409.29 674.364 1416.43 681.597 1421.5 687.434 C 1418.61 695.292 1414.19 701.707 1409.32 708.43 C 1408.55 708.966 1407.52 709.249 1406.65 709.59 C 1405.49 709.069 1404.66 708.527 1403.76 707.624 C 1398.05 701.899 1386.98 691.398 1388.22 682.508 C 1388.81 678.28 1392.78 676.115 1395.99 674 z"/>
<path transform="translate(0,0)" fill="rgb(35,31,32)" d="M 1606.25 953.411 C 1615.39 952.669 1625.44 954.116 1633.99 957.405 C 1651.51 964.141 1667.59 980.33 1675.07 997.439 C 1685.83 1022.02 1682 1050.25 1672.5 1074.52 C 1631.39 1179.57 1499.65 1238.77 1403.49 1281.05 C 1438.16 1284.46 1467.37 1297.36 1495.99 1316.81 C 1503.77 1322.1 1511.99 1327.64 1518.52 1334.42 C 1504.94 1343.43 1494.62 1354.43 1482.36 1364.94 C 1482.21 1367.8 1482.52 1371.18 1480.81 1373.59 C 1480.54 1373.43 1466.49 1351.57 1462.08 1347.18 C 1453.44 1338.61 1443.94 1334.95 1431.95 1334.9 C 1419.52 1355.96 1410.88 1378.06 1397.59 1399.51 C 1423.29 1396.44 1449.13 1389.43 1474.52 1384.28 C 1520.71 1374.9 1566.88 1366.62 1611.92 1352.4 C 1675.83 1332.22 1752.65 1299.05 1801.03 1251.7 C 1810.65 1242.29 1820.2 1232 1826.38 1219.93 A 78.6694 78.6694 0 0 0 1831.07 1160.12 C 1827 1147.84 1815.85 1124.92 1803.93 1119.41 C 1794.96 1115.26 1783.44 1116.5 1774.38 1119.73 C 1763.68 1123.55 1755.5 1133.5 1751.15 1143.73 C 1749.01 1148.78 1746.42 1156.73 1749.22 1162.01 C 1750.43 1164.3 1752.46 1165.53 1754.82 1166.35 C 1757.89 1167.41 1760.07 1167.28 1763.04 1165.84 C 1765.59 1163.12 1766.23 1159.96 1766.19 1156.31 C 1766.12 1147.53 1763.33 1143.64 1757.33 1137.7 C 1758.9 1135.31 1760.86 1132.02 1763.12 1130.26 C 1765.07 1128.73 1767.32 1127.87 1769.79 1128.55 C 1774.4 1129.82 1777.09 1133.97 1778.93 1138.09 C 1782.98 1147.09 1783.65 1156.96 1779.88 1166.15 C 1776.93 1173.32 1772.01 1179.61 1764.6 1182.46 C 1759.29 1184.51 1753.12 1184.73 1748 1182.05 C 1740.74 1178.27 1735.34 1169.86 1733.18 1162.16 C 1729.91 1150.49 1732.87 1137.21 1738.58 1126.78 A 61.8831 61.8831 0 0 1 1776.31 1097.04 C 1790.34 1093.29 1807.14 1095.1 1819.62 1102.64 C 1836.19 1112.64 1844.34 1136.61 1848.73 1154.45 C 1857 1188.01 1847.09 1230.79 1829.17 1259.81 C 1771.08 1353.91 1616.6 1390.76 1515.15 1409.26 C 1470.58 1417.38 1425.06 1422.43 1380.96 1432.74 C 1367.72 1458.22 1352.09 1482.1 1338.03 1507.08 C 1328.43 1524.13 1318.46 1547.87 1306.77 1562.75 C 1293.61 1544.44 1280.44 1544.86 1268.1 1531.92 C 1265.37 1529.06 1265 1526.03 1265.18 1522.23 C 1265.62 1512.35 1272.06 1500.83 1279.35 1494.26 C 1283.21 1490.79 1288.02 1488.39 1293.31 1488.96 C 1305.09 1490.22 1315.16 1503.29 1322.04 1511.94 C 1334.82 1485.51 1349.83 1460.44 1364.88 1435.28 A 1624.99 1624.99 0 0 0 1051.72 1521.34 C 1033.93 1528.26 1006.48 1537.55 991.17 1548.01 C 979.446 1556.03 968.94 1569.71 958.454 1579.5 C 930.114 1605.95 901.209 1631.5 873.722 1658.89 L 882.158 1665.55 C 872.258 1677.76 864.922 1693.02 856.993 1706.61 C 844.44 1698.1 820.406 1685.49 806.44 1679.56 C 799.192 1684.75 772.825 1705.89 766.1 1705.35 C 764.409 1703.5 763.766 1702.76 764.123 1700.01 C 765.416 1690.06 787.489 1679.25 795.33 1673.95 C 784.213 1668.66 773.164 1663.02 761.58 1658.81 C 731.712 1678.2 700.345 1695.66 669.99 1714.31 C 598.392 1758.31 526.303 1804.71 446.734 1833.23 C 415.553 1844.41 379.129 1853.89 347.642 1838.74 C 324.801 1827.76 308.552 1807.48 300.543 1783.64 C 286.071 1740.56 303.789 1688.55 323.075 1649.68 C 370.987 1553.12 509.324 1426.23 612.138 1392.38 C 631.085 1386.15 653.228 1381.99 671.74 1391.94 C 682.943 1397.96 691.985 1409.07 695.394 1421.34 A 53.3556 53.3556 0 0 1 690.485 1461.33 A 52.468 52.468 0 0 1 658.057 1486.59 C 646.071 1489.85 632.721 1489.26 621.945 1482.61 C 616.615 1479.31 612.533 1474.4 611.438 1468.12 C 609.567 1457.37 618.561 1445.83 624.363 1437.29 C 627.134 1433.22 631.636 1428.44 636.855 1427.97 C 641.856 1427.51 645.886 1430.9 649.336 1434.08 C 653.703 1438.1 657.65 1443.66 657.664 1449.84 C 657.672 1453.53 656.209 1456.72 653.444 1459.15 C 650.793 1461.48 646.598 1463.51 642.977 1462.85 C 641.642 1462.61 640.552 1461.9 639.809 1460.79 C 636.955 1456.52 638.846 1448.27 639.371 1443.37 A 219.393 219.393 0 0 0 635.692 1447.69 C 631.879 1452.3 627.299 1458.43 628.548 1464.84 C 629.14 1467.87 631.37 1470.12 634.078 1471.41 C 641.165 1474.79 651.029 1473.22 658.007 1470.33 A 39.2146 39.2146 0 0 0 679.33 1448.57 C 682.521 1440.34 682.598 1431.58 678.942 1423.48 C 674.979 1414.7 667.148 1407.92 658.04 1404.9 C 637.852 1398.19 608.822 1413.97 591.258 1423.18 C 486.615 1478.02 369.704 1597.84 334.317 1713.04 C 325.618 1741.36 319.978 1768.54 334.807 1795.8 C 341.78 1808.62 352.867 1819.14 367.206 1823.04 C 401.796 1832.46 463.87 1798.42 493.953 1780.87 C 558.667 1742.82 597.488 1703.15 649.68 1650.61 C 659.424 1640.81 669.86 1631.75 679.592 1621.94 C 662.875 1614.68 644.862 1611.22 627.672 1605.33 C 632.446 1596.15 638.616 1587.48 644.023 1578.64 C 650.696 1567.73 656.941 1555.53 664.984 1545.65 C 682.245 1552.36 699.341 1562.97 715.9 1571.43 C 742.566 1525.56 765.676 1482.33 773.347 1428.92 C 778.328 1394.24 775.036 1352.4 753.158 1323.53 C 739.234 1305.15 717.873 1293.83 694.554 1295.47 C 658.988 1297.96 625.056 1318.6 594.824 1336.03 C 507.993 1386.07 373.276 1488.59 269.68 1474.06 C 246.577 1470.82 227.708 1462.26 213.624 1443.13 C 192.252 1414.1 189.598 1377.01 194.771 1342.47 A 262.87 262.87 0 0 1 297.775 1172.8 C 328.119 1150.63 370.452 1129.18 409.176 1135.82 C 420.832 1137.81 432.606 1145.92 439.181 1155.54 C 442.862 1160.92 446.937 1166.78 445.677 1173.6 C 440.77 1171.32 436.168 1164.09 431.734 1160.54 C 419.743 1150.96 401.203 1149.27 386.521 1151.38 C 337.756 1158.38 291.75 1200.77 263.756 1238.85 C 232.631 1281.19 208.374 1337.61 216.867 1391.02 C 219.994 1410.69 226.971 1430.97 244 1442.87 C 275.758 1465.08 324.805 1450.65 357.292 1438.01 A 745.376 745.376 0 0 0 467.628 1384.1 C 500.679 1364.58 532.991 1343.62 565.718 1323.54 C 598.141 1303.64 636.683 1275.77 674.23 1268.56 C 701.224 1263.38 728.74 1266.16 751.721 1282.12 C 776.787 1299.54 792.499 1329.82 797.501 1359.45 C 811.363 1441.58 772.834 1512.88 726.901 1577.23 C 745.226 1587.54 764.302 1597.44 781.609 1609.41 C 799.513 1601.68 816.916 1592.01 834.492 1583.5 A 2927.88 2927.88 0 0 1 914.913 1546.77 C 937.884 1536.66 961.242 1527.37 984.436 1517.79 C 996.246 1512.92 1009.81 1508.55 1020.62 1501.75 C 1037.3 1491.28 1059.89 1456.91 1076.86 1446.78 C 1078.93 1445.55 1079.85 1445.2 1082.25 1445.8 L 1082.82 1447.23 C 1079.72 1460.2 1052.74 1484.75 1042.43 1494.84 C 1076.57 1480.69 1112.78 1469.42 1148.16 1458.84 A 1980.46 1980.46 0 0 1 1304.11 1418.32 C 1328.57 1413.01 1353.22 1408.8 1377.67 1403.56 C 1382.91 1397.01 1386.84 1388.96 1391.04 1381.69 C 1400.03 1366.14 1408.6 1350.28 1419.1 1335.67 C 1405.84 1335.93 1392.74 1338.6 1379.72 1340.91 A 1163.97 1163.97 0 0 1 1396.04 1283.57 C 1363.55 1295.75 1332.24 1310.07 1299.21 1321.07 C 1225.22 1345.71 1149.26 1362.28 1073.73 1381.16 C 1041.54 1389.2 1010.16 1399.97 978.106 1408.44 C 955.226 1414.48 931.98 1418.44 908.901 1423.59 C 931.695 1406.94 1027.77 1379.76 1058.85 1369.9 A 3563.18 3563.18 0 0 0 1122.45 1349.41 C 1138.11 1344.04 1153.53 1337.91 1169.26 1332.76 C 1293.48 1292.05 1524.9 1217.31 1614.34 1127.18 C 1640.43 1100.88 1665.33 1065.65 1665.03 1026.93 C 1664.91 1012.05 1660.28 997.189 1649.27 986.713 C 1636.81 974.864 1619.46 970.632 1602.68 971.26 C 1581.48 972.054 1555.79 981.026 1541.27 997.06 A 68.8496 68.8496 0 0 0 1523.07 1046.96 C 1527.35 1053.9 1531.01 1057.67 1538.02 1061.84 C 1553.08 1062.78 1564.08 1063.51 1573.74 1050.7 C 1576.28 1047.33 1578.39 1044.01 1581.98 1041.67 L 1583.45 1042.37 C 1583.82 1043.75 1583.89 1043.81 1584.01 1045.47 C 1584.48 1051.9 1581.7 1061.32 1577.57 1066.3 C 1571.96 1073.06 1562.82 1075.82 1554.39 1076.73 C 1542.44 1078.03 1529.25 1076.37 1519.82 1068.34 C 1512.48 1062.08 1509.35 1054.05 1508.6 1044.59 C 1506.98 1024.03 1516.35 1002.97 1529.34 987.462 C 1548.81 964.22 1577.03 955.902 1606.25 953.411 z"/>
<path transform="translate(0,0)" fill="rgb(254,254,254)" d="M 1284.65 1502.08 C 1299.42 1504.35 1304.37 1512.15 1312.93 1523.45 C 1310.15 1531.53 1308.16 1540.28 1304.77 1548.07 C 1296.86 1539.69 1286.26 1534.18 1278.71 1525.6 C 1275.86 1522.36 1273.67 1518.27 1274.49 1513.82 C 1275.47 1508.49 1280.6 1505.03 1284.65 1502.08 z"/>
<path transform="translate(0,0)" fill="rgb(254,254,254)" d="M 685.818 1624.67 C 700.244 1628.63 716.826 1636.42 729.808 1643.86 C 718.889 1651.23 706.676 1657.38 695.302 1664.08 A 3000.98 3000.98 0 0 0 632.203 1702.52 C 622.2 1708.49 612.499 1714.95 602.462 1720.88 A 506.241 506.241 0 0 0 659.562 1660.21 C 668.605 1648.69 675.514 1635.09 685.818 1624.67 z"/>
<path transform="translate(0,0)" fill="rgb(254,254,254)" d="M 1405.55 1285.19 C 1416.84 1291.11 1431.2 1293.62 1443.2 1298.7 C 1464.98 1307.91 1484.11 1320.84 1503.82 1333.66 C 1497.29 1342.53 1489.86 1349.68 1484.7 1359.59 C 1483.76 1361.43 1483.89 1361.55 1482.05 1362.8 C 1478.5 1360.06 1476.81 1347.76 1467.36 1340.56 C 1447.82 1325.67 1414.77 1329.21 1392.24 1332.49 C 1396.33 1316.56 1402.87 1301.47 1405.55 1285.19 z"/>
<path transform="translate(0,0)" fill="rgb(254,254,254)" d="M 961.955 1558.91 L 962.998 1559 C 963.459 1560.69 963.567 1559.82 961.865 1561.34 C 939.283 1581.5 917.815 1603.14 895.378 1623.53 C 886.354 1631.73 871.979 1641.75 866.141 1652.12 C 866.376 1653.5 866.507 1653.92 866.033 1655.29 C 856.12 1652.42 846.225 1645.6 837.277 1640.47 A 1713.71 1713.71 0 0 0 815.883 1628.6 C 830.952 1619.65 847.435 1612.33 863.248 1604.77 C 896.001 1589.13 929.177 1574.48 961.955 1558.91 z"/>
<path transform="translate(0,0)" fill="rgb(254,254,254)" d="M 665.735 1554.29 C 680.815 1561.17 694.816 1572.34 709.169 1580.8 A 3842.7 3842.7 0 0 0 795.563 1629.89 C 821.771 1644.36 846.902 1659.13 875.413 1668.74 C 870.57 1677.84 863.78 1686.6 857.787 1695 C 854.842 1695.62 853.491 1694.37 850.819 1693.11 C 827.76 1681.2 805.581 1668.33 782.03 1657.25 C 734.822 1635.05 685.962 1617.99 636.295 1602.32 L 665.735 1554.29 z"/>
</svg>