<svg version="1.1" xmlns="http://www.w3.org/2000/svg" width="1024" height="1024">
<path d="M0 0 C337.92 0 675.84 0 1024 0 C1024 337.92 1024 675.84 1024 1024 C686.08 1024 348.16 1024 0 1024 C0 686.08 0 348.16 0 0 Z " fill="#FEFEFE" transform="translate(0,0)"/>
<path d="M0 0 C7.1 5.994 11.466 13.21 14.406 22.031 C15.41 36.525 12.849 46.598 3.406 58.031 C-2.822 64.772 -10.31 69.228 -18.594 73.031 C-19.254 73.031 -19.914 73.031 -20.594 73.031 C-20.291 73.845 -19.988 74.658 -19.676 75.496 C-14.542 89.538 -10.585 103.795 -6.906 118.281 C-6.609 119.441 -6.311 120.601 -6.004 121.795 C-4.313 128.559 -2.984 135.278 -2.012 142.183 C-1.75 143.97 -1.437 145.751 -1.053 147.516 C-0.088 152.802 -0.366 158.237 -0.344 163.594 C-0.313 165.412 -0.313 165.412 -0.281 167.268 C-0.211 183.655 -5.107 197.387 -15.594 210.031 C-14.99 210.201 -14.387 210.372 -13.766 210.547 C-8.076 212.272 -4.716 213.847 -1.344 218.906 C-0.366 221.678 -0.461 224.116 -0.594 227.031 C0.691 227.007 1.977 226.982 3.301 226.957 C33.154 226.986 66.69 235.827 88.594 256.781 C102.48 271.341 113.436 289.091 122.406 307.031 C128.53 307.693 134.172 306.171 139.406 303.031 C141.699 300.319 143.437 297.501 145.258 294.453 C153.513 280.786 166.27 270.055 178.781 260.469 C179.46 259.943 180.138 259.418 180.837 258.876 C184.297 256.284 186.956 254.383 191.406 254.031 C191.406 255.351 191.406 256.671 191.406 258.031 C189.5 259.786 187.694 261.232 185.594 262.719 C184.394 263.605 183.194 264.493 181.996 265.383 C181.391 265.827 180.787 266.27 180.164 266.728 C167.243 276.313 157.409 286.819 148.406 300.031 C153.995 299.192 159.466 297.924 164.969 296.656 C165.882 296.447 166.795 296.239 167.736 296.023 C168.66 295.812 169.584 295.601 170.535 295.383 C171.488 295.165 172.441 294.947 173.422 294.723 C175.46 294.251 177.494 293.768 179.527 293.275 C187.442 291.379 195.35 289.986 203.406 288.844 C204.574 288.667 205.742 288.489 206.945 288.307 C227.606 285.34 227.606 285.34 233.719 289.031 C235.953 293.003 236.594 295.682 235.406 300.031 C228.357 314.765 216.542 327.745 205.961 340.043 C203.519 342.899 201.143 345.797 198.781 348.719 C195.211 353.109 191.477 357.31 187.664 361.488 C184.5 365.052 181.541 368.77 178.562 372.488 C176.096 375.398 173.429 377.932 170.523 380.398 C169.151 382.032 169.151 382.032 169.629 384.41 C170.39 386.978 171.171 389.537 171.969 392.094 C174.684 402.095 174.333 410.847 169.406 420.031 C167.633 422.932 165.808 425.775 163.895 428.586 C162.041 431.62 162.041 431.62 161.406 435.031 C162.424 437.095 162.424 437.095 164.031 439.094 C167.587 444.105 170.114 449.341 172.406 455.031 C172.774 455.903 173.141 456.774 173.52 457.672 C176.906 470.503 175.605 485.371 169.406 497.031 C168.96 497.979 168.514 498.926 168.055 499.902 C160.38 515.36 147.269 525.82 131.406 532.031 C120.598 535.234 104.946 534.803 94.969 529.641 C94.123 529.11 93.277 528.578 92.406 528.031 C91.457 527.438 90.509 526.845 89.531 526.234 C75.88 516.961 67.492 503.92 63.406 488.031 C62.783 488.518 62.16 489.005 61.518 489.506 C57.175 491.635 53.396 491.461 48.621 491.43 C47.179 491.436 47.179 491.436 45.707 491.442 C42.586 491.448 39.465 491.429 36.344 491.406 C35.288 491.403 34.231 491.4 33.143 491.396 C-11.796 491.229 -11.796 491.229 -19.594 486.031 C-20.438 484.023 -20.438 484.023 -21.094 481.551 C-21.34 480.641 -21.586 479.731 -21.839 478.793 C-22.213 477.333 -22.213 477.333 -22.594 475.844 C-22.856 474.852 -23.118 473.861 -23.388 472.839 C-25.156 466.039 -26.69 459.233 -27.953 452.32 C-28.562 448.977 -28.562 448.977 -29.551 445.535 C-31.475 438.001 -32.068 430.151 -33.006 422.447 C-34.057 414.162 -35.544 406.128 -37.594 398.031 C-38.198 398.165 -38.802 398.3 -39.424 398.438 C-44.814 399.636 -50.204 400.833 -55.594 402.031 C-54.924 406.176 -54.248 410.321 -53.567 414.464 C-53.337 415.871 -53.108 417.278 -52.881 418.686 C-52.552 420.72 -52.218 422.752 -51.883 424.785 C-51.684 426.005 -51.485 427.226 -51.28 428.483 C-50.585 432.079 -49.623 435.518 -48.594 439.031 C-48.245 440.616 -47.917 442.206 -47.617 443.801 C-44.923 466.834 -44.923 466.834 -36.594 487.031 C-35.846 486.803 -35.098 486.575 -34.328 486.34 C-33.343 486.052 -32.358 485.765 -31.344 485.469 C-30.369 485.179 -29.395 484.889 -28.391 484.59 C-25.631 484.039 -24.202 484.093 -21.594 485.031 C-26.434 488.094 -29.887 489.565 -35.594 490.031 C-35.439 491.423 -35.439 491.423 -35.281 492.844 C-35.436 494.422 -35.436 494.422 -35.594 496.031 C-44.599 502.677 -58.16 504.831 -68.867 507.727 C-71.953 508.566 -75.015 509.455 -78.07 510.398 C-91.857 514.603 -105.86 517.528 -119.972 520.404 C-121.198 520.654 -121.198 520.654 -122.448 520.91 C-124.001 521.227 -125.555 521.541 -127.11 521.851 C-130.96 522.604 -130.96 522.604 -134.594 524.031 C-136.697 524.306 -138.8 524.476 -140.914 524.652 C-143.763 525.002 -143.763 525.002 -147.141 525.965 C-163.943 530.272 -182.027 530.336 -199.281 530.406 C-200.069 530.414 -200.856 530.422 -201.667 530.43 C-223.564 530.6 -243.625 527.267 -260.551 512.301 C-275.374 497.143 -277.053 476.309 -276.878 456.265 C-276.384 431.941 -271.751 407.526 -265.594 384.031 C-265.419 383.356 -265.244 382.681 -265.064 381.985 C-237.738 277.298 -237.738 277.298 -200.594 255.031 C-180.631 243.926 -150.142 228.574 -126.594 230.031 C-126.532 229 -126.47 227.969 -126.406 226.906 C-125.248 221.383 -122.588 218.441 -118.031 215.219 C-112.859 212.699 -107.241 211.819 -101.594 213.031 C-97.529 215.581 -94.141 218.816 -90.594 222.031 C-88.613 223.638 -86.612 225.221 -84.594 226.781 C-84.07 227.187 -83.546 227.593 -83.006 228.01 C-77.291 232.372 -71.315 236.361 -65.305 240.302 C-51.676 249.397 -51.676 249.397 -49.594 257.031 C-48.934 257.031 -48.274 257.031 -47.594 257.031 C-47.533 256.112 -47.473 255.193 -47.41 254.246 C-46.607 248.623 -43.937 243.681 -41.531 238.594 C-41.059 237.576 -40.586 236.558 -40.1 235.51 C-38.939 233.013 -37.77 230.52 -36.594 228.031 C-37.898 228.078 -39.203 228.124 -40.547 228.172 C-60.968 228.686 -75.107 222.491 -90.594 209.031 C-91.219 208.513 -91.844 207.995 -92.488 207.461 C-104.143 196.99 -112.177 177.034 -115.594 162.031 C-117.261 162.118 -117.261 162.118 -118.961 162.207 C-128.86 162.571 -136.744 162.406 -144.422 155.352 C-149.644 149.648 -152.179 143.955 -152.156 136.156 C-152.157 135.45 -152.159 134.743 -152.16 134.015 C-151.99 128.588 -150.784 125.434 -147.004 121.609 C-145.288 119.689 -144.893 118.584 -144.594 116.031 C-145.551 113.931 -145.551 113.931 -147.129 111.906 C-147.689 111.123 -148.248 110.34 -148.825 109.533 C-149.429 108.708 -150.034 107.882 -150.656 107.031 C-161.907 91.101 -168.703 75.916 -166.594 56.031 C-164.026 43.588 -155.635 33.439 -145.594 26.031 C-137.182 20.732 -128.429 15.966 -118.281 15.781 C-112.854 15.374 -109.594 13.531 -105.105 10.586 C-90.713 1.677 -71.461 0.86 -54.969 0.781 C-53.876 0.761 -52.783 0.74 -51.656 0.719 C-42.705 0.675 -42.705 0.675 -38.816 2.516 C-35.038 4.293 -31.745 4.462 -27.656 4.531 C-16.89 4.99 -9.529 8.082 -1.863 15.766 C3.65 21.919 5.902 27.182 5.719 35.406 C5.724 36.481 5.724 36.481 5.729 37.578 C5.678 42.676 4.795 47.129 3.406 52.031 C4.055 50.449 4.7 48.866 5.344 47.281 C5.703 46.4 6.063 45.518 6.434 44.609 C9.266 37.101 9.896 28.638 6.656 21.156 C5.936 19.766 5.188 18.388 4.406 17.031 C3.54 15.484 3.54 15.484 2.656 13.906 C-3.499 6.041 -10.315 2.448 -19.594 -0.969 C-20.415 -1.323 -21.236 -1.678 -22.082 -2.043 C-27.965 -4.211 -33.945 -4.129 -40.129 -4.137 C-41.044 -4.14 -41.959 -4.143 -42.902 -4.147 C-44.836 -4.152 -46.77 -4.154 -48.704 -4.154 C-51.622 -4.156 -54.541 -4.174 -57.459 -4.193 C-71.076 -4.235 -83.466 -2.979 -96.667 0.498 C-97.337 0.674 -98.008 0.85 -98.699 1.031 C-99.351 1.203 -100.002 1.374 -100.673 1.551 C-102.506 2.009 -104.357 2.397 -106.207 2.781 C-107.283 3.008 -108.36 3.235 -109.469 3.469 C-110.415 3.653 -111.361 3.837 -112.336 4.027 C-114.851 4.861 -114.851 4.861 -115.914 7.629 C-116.138 8.422 -116.363 9.214 -116.594 10.031 C-117.584 10.031 -118.574 10.031 -119.594 10.031 C-119.594 9.371 -119.594 8.711 -119.594 8.031 C-131.312 9.984 -140.576 15.685 -149.962 22.691 C-152.508 24.589 -154.557 26.019 -157.594 27.031 C-158.311 28.338 -158.97 29.677 -159.594 31.031 C-160.683 32.521 -161.789 34 -162.906 35.469 C-171.667 48.06 -173.395 60.617 -171.047 75.496 C-170.372 78.411 -169.555 81.198 -168.594 84.031 C-168.327 84.878 -168.06 85.725 -167.785 86.598 C-165.605 92.789 -162.222 97.618 -158.203 102.781 C-156.594 105.031 -156.594 105.031 -156.594 107.031 C-162.269 105.655 -165.374 101.623 -168.594 97.031 C-176.86 82.426 -180.225 66.338 -176.031 49.906 C-170.578 32.778 -159.181 20.191 -143.473 11.754 C-128.234 3.899 -128.234 3.899 -119.719 3.668 C-116.987 2.849 -115.37 1.169 -113.258 -0.683 C-110.458 -2.846 -107.346 -3.932 -104.031 -5.094 C-103.324 -5.347 -102.617 -5.601 -101.889 -5.863 C-95.542 -8.085 -89.221 -9.792 -82.594 -10.969 C-81.834 -11.104 -81.075 -11.239 -80.292 -11.379 C-53.008 -16.076 -23.057 -17.757 0 0 Z " fill="#030303" transform="translate(587.59375,356.96875)"/>
<path d="M0 0 C2.958 1.12 5.81 2.372 8.645 3.77 C18.238 8.491 27.685 12.196 38 15 C39.056 15.32 40.111 15.639 41.199 15.969 C53.193 19.155 65.695 18.271 78 18 C81.198 25.5 83.656 33.097 85.875 40.938 C86.219 42.147 86.562 43.357 86.917 44.604 C89.305 53.165 91.442 61.763 93.375 70.438 C93.613 71.507 93.852 72.576 94.097 73.677 C98.92 96.008 102.769 120.606 90.125 141 C89.114 142.357 88.073 143.692 87 145 C86.523 145.611 86.046 146.222 85.555 146.852 C80.137 153.032 70.243 158.714 62 160 C51.992 160.641 43.137 160.626 34 156 C33.162 155.576 32.324 155.152 31.461 154.715 C9.222 142.356 0.884 120.195 -6 97 C-9.211 84.762 -11.686 72.407 -13.54 59.896 C-14.258 55.378 -15.381 51.014 -16.512 46.582 C-17 44 -17 44 -16 42 C-15.281 35.464 -16.597 30.049 -19 24 C-18.336 23.709 -17.672 23.417 -16.988 23.117 C-9.618 19.696 -5.94 16.88 -2.25 9.5 C-1.105 6.293 -0.411 3.372 0 0 Z " fill="#FEFEFE" transform="translate(483,415)"/>
<path d="M0 0 C-0.488 5.042 -1.995 7.972 -4.938 12.062 C-5.538 12.902 -5.538 12.902 -6.151 13.758 C-7.419 15.517 -8.706 17.26 -10 19 C-10.607 19.82 -10.607 19.82 -11.226 20.656 C-16.662 27.956 -22.419 34.953 -28.336 41.867 C-30.834 44.79 -33.266 47.763 -35.688 50.75 C-39.058 54.89 -42.53 58.912 -46.098 62.883 C-47.936 64.929 -49.753 66.991 -51.562 69.062 C-52.125 69.703 -52.687 70.344 -53.266 71.004 C-54.495 72.419 -55.713 73.845 -56.922 75.277 C-57.546 76.011 -58.17 76.744 -58.812 77.5 C-59.376 78.17 -59.939 78.841 -60.52 79.531 C-62 81 -62 81 -64 81 C-65.32 78.03 -66.64 75.06 -68 72 C-71.918 71.544 -73.504 71.619 -76.688 74.062 C-81.677 80.4 -82.433 85.615 -82.188 93.438 C-82.174 94.264 -82.16 95.091 -82.146 95.943 C-82.111 97.963 -82.058 99.981 -82 102 C-91.112 103.055 -91.112 103.055 -95.16 100.793 C-97.246 98.964 -99.119 97.04 -101 95 C-102.703 93.265 -104.411 91.536 -106.125 89.812 C-106.967 88.963 -107.809 88.114 -108.676 87.238 C-111.981 84.055 -115.076 81.732 -119.402 80.086 C-121.983 79.007 -123.98 77.747 -126.25 76.125 C-142.665 65.092 -161.785 64.298 -181 64 C-178.642 56.403 -175.577 49.248 -172.312 42 C-171.782 40.815 -171.251 39.63 -170.704 38.408 C-167.631 31.568 -164.538 24.736 -161.375 17.938 C-161.057 17.248 -160.739 16.559 -160.411 15.85 C-159.15 13.173 -158.11 11.11 -156 9 C-150.999 9.359 -146.604 11.147 -141.996 12.984 C-141.236 13.282 -140.477 13.579 -139.694 13.886 C-137.273 14.835 -134.855 15.792 -132.438 16.75 C-130.841 17.378 -129.244 18.006 -127.646 18.633 C-126.474 19.094 -126.474 19.094 -125.278 19.564 C-123.722 20.175 -122.166 20.785 -120.609 21.394 C-117.102 22.769 -113.604 24.157 -110.125 25.604 C-108.982 26.07 -107.838 26.536 -106.66 27.016 C-105.678 27.426 -104.696 27.836 -103.684 28.259 C-100.644 29.098 -98.965 29.036 -96 28 C-94.059 25.078 -92.649 22.045 -91.137 18.883 C-87.108 13.448 -79.2 12.4 -72.82 10.879 C-72.058 10.694 -71.296 10.509 -70.511 10.318 C-68.051 9.725 -65.588 9.142 -63.125 8.562 C-62.282 8.363 -61.438 8.164 -60.569 7.959 C-40.576 3.264 -20.652 -1.035 0 0 Z " fill="#FEFEFE" transform="translate(817,651)"/>
<path d="M0 0 C0.51 3.471 0.081 4.872 -1.812 7.875 C-5.753 12.242 -11.028 14.967 -16 18 C-21.091 21.055 -21.091 21.055 -24 26 C-23.01 25.67 -22.02 25.34 -21 25 C-12.551 23.816 -3.952 23.869 4.562 23.812 C5.602 23.8 6.642 23.787 7.713 23.773 C18.219 23.761 28.185 25.204 38 29 C39.017 29.384 40.034 29.768 41.082 30.164 C50.589 33.912 50.589 33.912 54 38 C54.438 40.625 54.438 40.625 54 43 C50.283 45.478 48.305 45.268 43.875 45.25 C42.614 45.255 41.354 45.26 40.055 45.266 C37.195 45.167 34.665 44.718 31.898 44 C25.579 42.486 19.213 42.71 12.75 42.75 C11.497 42.742 10.244 42.735 8.953 42.727 C7.747 42.729 6.54 42.732 5.297 42.734 C4.207 42.737 3.118 42.739 1.995 42.741 C-1.099 43.009 -3.27 43.526 -6 45 C-6.33 45.99 -6.66 46.98 -7 48 C-6.11 48.014 -6.11 48.014 -5.203 48.028 C28.203 48.688 28.203 48.688 39.738 59.652 C40.363 60.319 40.363 60.319 41 61 C40 64 40 64 37.625 65.688 C30.889 68.126 24.523 67.62 17.75 65.5 C10.979 63.435 4.016 63.338 -3 64 C-6.248 65.722 -6.248 65.722 -7 69 C-5.117 68.948 -5.117 68.948 -3.195 68.895 C8.43 68.668 17.616 69.262 28 75 C27 78 27 78 25.352 79.166 C22.287 80.253 19.623 80.292 16.371 80.344 C14.448 80.388 14.448 80.388 12.486 80.434 C10.456 80.469 8.427 80.5 6.397 80.532 C4.43 80.566 2.463 80.611 0.496 80.656 C-0.678 80.675 -1.851 80.694 -3.061 80.713 C-6.189 80.785 -6.189 80.785 -9 83 C-9.495 84.485 -9.495 84.485 -10 86 C-9.228 85.99 -8.456 85.979 -7.661 85.968 C-4.17 85.927 -0.679 85.901 2.812 85.875 C4.027 85.858 5.242 85.841 6.494 85.824 C7.658 85.818 8.821 85.811 10.02 85.805 C11.63 85.789 11.63 85.789 13.273 85.773 C16 86 16 86 19 88 C19 88.66 19 89.32 19 90 C11.027 94.304 2.173 99.018 -7.062 99.188 C-12.214 99.592 -15.415 103.534 -19.148 106.773 C-25.913 112.055 -33.922 113.363 -42.238 114.566 C-44.538 114.927 -46.648 115.412 -48.875 116.062 C-54.756 117.652 -60.946 117.677 -67 118 C-68 114 -69 110 -70 106 C-70.343 104.738 -70.686 103.476 -71.039 102.176 C-72.154 97.715 -72.593 93.26 -73 88.688 C-73.594 82.49 -74.323 76.419 -75.633 70.324 C-76.095 67.4 -76.352 64.955 -76 62 C-73.988 60.129 -73.988 60.129 -71.312 58.562 C-63.82 54.133 -60.76 47.983 -57.688 40.125 C-50.088 22.08 -34.108 14.363 -17.375 5.875 C-15.667 5.003 -15.667 5.003 -13.924 4.114 C-12.843 3.579 -11.762 3.044 -10.648 2.492 C-9.681 2.011 -8.713 1.53 -7.716 1.035 C-4.924 -0.029 -2.958 -0.215 0 0 Z " fill="#FEFEFE" transform="translate(636,697)"/>
<path d="M0 0 C1.277 0.887 2.553 1.775 3.828 2.664 C8.168 5.208 13.073 6.171 17.91 7.428 C22.421 8.624 26.903 9.925 31.391 11.207 C32.785 11.6 32.785 11.6 34.208 12.002 C35.078 12.249 35.948 12.496 36.844 12.75 C37.624 12.971 38.404 13.191 39.208 13.419 C41.141 14.02 41.141 14.02 43.141 15.02 C42.524 17.787 41.692 20.178 40.442 22.72 C40.093 23.434 39.745 24.147 39.386 24.882 C39.007 25.648 38.629 26.414 38.238 27.203 C37.845 28.007 37.451 28.811 37.045 29.64 C35.768 32.247 34.486 34.852 33.203 37.457 C31.463 41.003 29.726 44.55 27.988 48.098 C27.564 48.964 27.139 49.831 26.701 50.723 C23.054 58.172 19.48 65.653 15.996 73.179 C12.253 81.17 12.253 81.17 10.141 83.02 C7.433 83.449 5.223 83.587 2.516 83.52 C1.735 83.508 0.955 83.497 0.15 83.485 C-42.737 82.142 -42.737 82.142 -52.859 72.02 C-53.271 66.857 -52.415 62.779 -50.805 57.891 C-50.588 57.227 -50.371 56.563 -50.147 55.879 C-49.439 53.734 -48.714 51.595 -47.984 49.457 C-47.738 48.727 -47.492 47.997 -47.238 47.245 C-44.03 37.768 -40.618 28.416 -36.547 19.27 C-36.164 18.391 -35.78 17.512 -35.385 16.607 C-31.586 8.446 -26.056 4.494 -17.859 1.02 C-12.362 -0.979 -5.497 -2.899 0 0 Z " fill="#FEFEFE" transform="translate(756.859375,445.98046875)"/>
<path d="M0 0 C0.66 0 1.32 0 2 0 C2.398 1.218 2.797 2.436 3.207 3.691 C3.742 5.315 4.277 6.939 4.812 8.562 C5.074 9.362 5.335 10.162 5.604 10.986 C6.811 14.638 8.052 18.114 9.656 21.617 C12.23 28.096 12.728 36.292 10.282 42.956 C8.243 47.218 5.641 51.092 3 55 C-1.021 61.49 -3.207 67.588 -5 75 C-7.753 86.252 -7.753 86.252 -13 90 C-24.679 95.909 -38.549 99.574 -51.602 96.359 C-54.158 95.411 -56.563 94.218 -59 93 C-59.322 90.382 -59.38 87.788 -59.461 85.152 C-60.816 77.226 -65.27 72.209 -71 66.875 C-75.285 62.832 -78.93 59.05 -82 54 C-79.36 51.69 -76.72 49.38 -74 47 C-70.286 50.108 -66.708 53.233 -63.312 56.688 C-59.914 60.153 -59.914 60.153 -56 63 C-55.01 63 -54.02 63 -53 63 C-53.507 58.837 -55.723 57.001 -58.688 54.188 C-66.666 46.415 -66.666 46.415 -70 42 C-69 39 -69 39 -66.375 37.062 C-63 36 -63 36 -61.047 36.703 C-59.307 37.708 -57.646 38.848 -56 40 C-57.238 34.842 -58.927 31.405 -62 27 C-62 26.34 -62 25.68 -62 25 C-60.039 23.611 -58.038 22.274 -56 21 C-54.766 22.45 -54.766 22.45 -53.508 23.93 C-43.876 35.579 -43.876 35.579 -33 46 C-32.01 46 -31.02 46 -30 46 C-30.411 41.11 -32.832 38.551 -36.125 35.188 C-37.127 34.128 -38.128 33.068 -39.129 32.008 C-39.619 31.495 -40.109 30.982 -40.614 30.454 C-49.58 21.049 -49.58 21.049 -51 16 C-49.35 14.02 -47.7 12.04 -46 10 C-42.52 11.513 -40.09 13.558 -37.312 16.125 C-36.439 16.923 -35.565 17.721 -34.664 18.543 C-32.948 20.126 -31.234 21.712 -29.523 23.301 C-28.367 24.358 -28.367 24.358 -27.188 25.438 C-26.5 26.076 -25.813 26.714 -25.105 27.371 C-20.877 30.643 -17.211 31.261 -11.938 31.188 C-10.915 31.181 -9.893 31.175 -8.84 31.168 C-6.399 31.024 -4.332 30.699 -2 30 C-2.217 29.143 -2.217 29.143 -2.438 28.27 C-4.293 20.164 -6.322 10.259 -2 2.688 C-1.34 1.801 -0.68 0.914 0 0 Z " fill="#FEFEFE" transform="translate(744,728)"/>
<path d="M0 0 C0 0.99 0 1.98 0 3 C0.99 3 1.98 3 3 3 C3.347 3.877 3.693 4.755 4.051 5.659 C5.365 8.945 6.704 12.219 8.06 15.488 C8.639 16.898 9.208 18.312 9.767 19.73 C13.158 28.316 16.091 35.003 25 39 C24.144 43.322 22.285 44.969 19 47.938 C18.483 48.408 17.965 48.878 17.432 49.362 C14.246 52.197 10.953 54.824 7.527 57.363 C6.767 57.927 6.008 58.491 5.225 59.073 C3.728 60.17 2.22 61.254 0.701 62.32 C-4.087 65.811 -6.086 68.39 -8 74 C-11.52 79.76 -11.52 79.76 -14 81 C-16.374 81.071 -18.75 81.084 -21.125 81.062 C-22.406 81.053 -23.688 81.044 -25.008 81.035 C-25.995 81.024 -26.983 81.012 -28 81 C-30.582 89.064 -33.062 97.132 -35.25 105.312 C-38.591 117.718 -42.86 129.844 -47 142 C-48.32 142 -49.64 142 -51 142 C-49.608 135.331 -47.835 128.879 -45.812 122.375 C-45.189 120.348 -44.565 118.32 -43.941 116.293 C-43.622 115.258 -43.302 114.224 -42.973 113.158 C-41.385 108.005 -39.818 102.846 -38.25 97.688 C-37.969 96.764 -37.687 95.841 -37.398 94.89 C-35.583 88.931 -33.785 82.968 -32 77 C-32.66 76.423 -33.32 75.845 -34 75.25 C-36 73 -36 73 -36 69 C-35.01 69 -34.02 69 -33 69 C-33.33 67.35 -33.66 65.7 -34 64 C-29.927 64.494 -27.143 65.958 -23.691 68.016 C-19.598 70.398 -15.666 71.349 -11 72 C-11 71.34 -11 70.68 -11 70 C-12.237 69.794 -13.475 69.587 -14.75 69.375 C-20.999 68.019 -26.406 65.01 -32 62 C-32 60.68 -32 59.36 -32 58 C-30.68 58 -29.36 58 -28 58 C-30.256 50.558 -33.391 43.785 -36.859 36.842 C-38.958 32.543 -40.547 28.835 -41 24 C-40.442 23.659 -39.885 23.317 -39.31 22.965 C-28.66 16.434 -18.082 9.838 -7.738 2.828 C-3.502 0 -3.502 0 0 0 Z " fill="#FEFEFE" transform="translate(577,191)"/>
<path d="M0 0 C4.162 3.438 6.854 7.048 7.875 12.375 C8.839 26.565 7.943 40.513 4.875 54.375 C4.72 55.103 4.565 55.83 4.405 56.58 C0.537 74.451 0.537 74.451 -5.508 79.277 C-10.309 81.291 -15.036 81.229 -20.125 80.375 C-23.668 78.408 -26.306 76.012 -28.125 72.375 C-28.202 70.646 -28.262 68.917 -28.312 67.188 C-28.984 59.7 -32.155 56.902 -37.688 52.195 C-39.568 50.644 -41.46 49.108 -43.363 47.586 C-45.845 45.599 -48.281 43.578 -50.688 41.5 C-51.308 40.966 -51.928 40.433 -52.566 39.883 C-55.481 37.064 -56.433 34.951 -56.5 31 C-56.432 27.519 -56.169 26.445 -54.25 23.375 C-51.13 20.439 -49.435 20.238 -45.25 20.25 C-44.386 20.247 -43.523 20.245 -42.633 20.242 C-40.125 20.375 -40.125 20.375 -37.934 20.969 C-37.337 21.103 -36.74 21.237 -36.125 21.375 C-35.444 20.921 -34.764 20.467 -34.062 20 C-29.648 17.558 -25.097 17.627 -20.125 17.375 C-19.955 16.651 -19.785 15.926 -19.609 15.18 C-16.523 2.867 -16.523 2.867 -11.25 -1 C-6.862 -2.291 -4.084 -2.123 0 0 Z " fill="#FEFEFE" transform="translate(352.125,452.625)"/>
<path d="M0 0 C2.511 1.1 3.627 2.475 5.336 4.609 C8.296 8.165 11.319 11.017 14.961 13.859 C14.09 18.324 11.554 20.933 8.586 24.234 C3.699 29.788 -0.96 35.465 -5.472 41.328 C-11.123 48.638 -11.123 48.638 -14.136 49.365 C-14.931 49.422 -15.726 49.478 -16.544 49.536 C-17.435 49.601 -18.325 49.665 -19.243 49.731 C-23.815 49.941 -28.376 50.022 -32.953 50.027 C-33.966 50.031 -34.98 50.034 -36.024 50.037 C-38.157 50.042 -40.289 50.045 -42.422 50.045 C-45.635 50.047 -48.846 50.065 -52.059 50.084 C-63.555 50.114 -74.678 49.712 -86.039 47.859 C-87.039 44.859 -87.039 44.859 -86.266 43.189 C-85.855 42.596 -85.443 42.002 -85.02 41.391 C-84.574 40.737 -84.129 40.084 -83.67 39.41 C-83.194 38.733 -82.717 38.057 -82.227 37.359 C-81.762 36.683 -81.297 36.006 -80.818 35.309 C-79.95 34.046 -79.078 32.786 -78.2 31.529 C-77.127 29.986 -76.082 28.423 -75.039 26.859 C-73.028 26.617 -71.015 26.388 -68.996 26.219 C-57.707 24.847 -45.594 22.056 -37.738 13.293 C-34.525 10.396 -31.66 9.655 -27.539 8.859 C-19.396 7.065 -11.215 4.831 -3.93 0.648 C-2.039 -0.141 -2.039 -0.141 0 0 Z " fill="#FEFEFE" transform="translate(661.0390625,791.140625)"/>
<path d="M0 0 C6.416 4.608 11.188 9.723 13.148 17.543 C14.274 26.615 13.528 34.022 8.148 41.543 C2.71 48.353 -3.179 52.859 -11.961 53.918 C-21.029 54.259 -28.434 52.438 -35.664 46.855 C-40.908 41.983 -44.317 35.462 -45.09 28.352 C-45.382 19.029 -43.114 11.484 -36.664 4.605 C-26.435 -4.646 -12.367 -7.334 0 0 Z " fill="#FEFEFE" transform="translate(763.8515625,262.45703125)"/>
<path d="M0 0 C5.626 0.286 8.29 1.577 12.375 5.375 C17.971 10.392 23.997 14.395 30.388 18.332 C31.437 18.985 31.437 18.985 32.508 19.652 C33.133 20.034 33.759 20.415 34.403 20.808 C36 22 36 22 38 25 C37.396 33.64 28.697 40.489 22.938 46.375 C22.456 46.875 21.974 47.374 21.477 47.889 C17.325 52.033 12.824 55.891 6.75 56.125 C-1.572 53.628 -8.497 48.937 -15.125 43.418 C-17.049 41.806 -17.049 41.806 -20 41 C-20 41.66 -20 42.32 -20 43 C-21.469 44.48 -21.469 44.48 -23.5 46.188 C-25.766 48.103 -28.016 50.015 -30.207 52.016 C-30.902 52.65 -31.597 53.284 -32.312 53.938 C-33.266 54.817 -33.266 54.817 -34.238 55.715 C-36 57 -36 57 -39 57 C-38.421 53.452 -37.173 51.816 -34.621 49.328 C-33.948 48.664 -33.274 48 -32.58 47.316 C-31.873 46.634 -31.166 45.953 -30.438 45.25 C-29.727 44.553 -29.016 43.855 -28.283 43.137 C-26.529 41.418 -24.768 39.706 -23 38 C-23.806 37.094 -24.611 36.188 -25.441 35.254 C-28.157 31.971 -29.045 29.92 -28.812 25.629 C-26.929 19.536 -22.148 14.712 -18 10 C-16.987 8.801 -16.987 8.801 -15.953 7.578 C-14.376 5.834 -12.95 4.313 -11 3 C-8.375 3.25 -8.375 3.25 -6 4 C-3.717 2.858 -1.81 1.81 0 0 Z " fill="#FEFEFE" transform="translate(638,297)"/>
<path d="M0 0 C6.459 5.356 7.724 17.058 9.625 24.938 C10.009 26.51 10.009 26.51 10.401 28.114 C11.13 31.115 11.848 34.12 12.562 37.125 C12.748 37.89 12.933 38.654 13.124 39.442 C14.818 46.48 15.937 52.879 15.562 60.125 C13.582 60.785 11.603 61.445 9.562 62.125 C9.645 62.888 9.728 63.651 9.812 64.438 C9.562 67.125 9.562 67.125 7.91 68.651 C5.26 70.315 2.704 71.341 -0.242 72.395 C-1.377 72.806 -2.512 73.217 -3.681 73.641 C-4.879 74.069 -6.078 74.497 -7.312 74.938 C-15.968 78.063 -24.453 81.244 -32.738 85.262 C-36.258 86.388 -37.943 86.392 -41.438 85.125 C-43.771 82.983 -45.541 80.51 -47.375 77.938 C-47.921 77.197 -48.468 76.457 -49.031 75.695 C-71.51 44.935 -71.51 44.935 -71.375 39.688 C-68.452 31.698 -58.337 26.898 -51.062 23.438 C-47.297 21.752 -43.787 20.742 -39.75 19.938 C-34.009 18.498 -31.829 15.55 -28.488 10.84 C-20.077 -0.295 -13.352 -3.399 0 0 Z M-20.688 9.688 C-21.184 10.141 -21.681 10.595 -22.192 11.063 C-24.917 13.589 -27.422 16.169 -29.75 19.062 C-32.886 22.854 -36.244 24.359 -40.875 25.977 C-50.098 29.2 -58.441 33.506 -66.438 39.125 C-64.834 43.974 -62.085 47.718 -59.125 51.812 C-58.602 52.543 -58.078 53.273 -57.539 54.025 C-56.423 55.581 -55.305 57.136 -54.186 58.689 C-52.395 61.184 -50.626 63.694 -48.859 66.207 C-47.698 67.847 -46.537 69.486 -45.375 71.125 C-44.827 71.908 -44.28 72.692 -43.716 73.499 C-42.942 74.582 -42.942 74.582 -42.152 75.688 C-41.7 76.328 -41.247 76.969 -40.781 77.629 C-39.403 79.411 -39.403 79.411 -36.438 80.125 C-33.689 79.316 -33.689 79.316 -30.66 77.992 C-29.506 77.515 -28.351 77.038 -27.162 76.547 C-25.954 76.036 -24.745 75.526 -23.5 75 C-22.326 74.513 -21.153 74.025 -19.943 73.523 C-16.438 72.066 -12.937 70.596 -9.438 69.125 C-7.145 68.168 -4.852 67.213 -2.559 66.258 C-1.572 65.847 -0.585 65.436 0.432 65.012 C1.135 64.719 1.838 64.427 2.562 64.125 C2.26 59.684 1.281 56.301 -0.562 52.25 C-6.989 37.435 -10.725 21.013 -13.438 5.125 C-16.74 5.125 -18.319 7.517 -20.688 9.688 Z " fill="#141415" transform="translate(388.4375,325.875)"/>
<path d="M0 0 C0.768 -0.006 1.537 -0.012 2.328 -0.018 C4.536 -0.03 6.742 -0.018 8.949 0.004 C10.225 0.014 11.501 0.023 12.815 0.033 C17.512 0.576 20.935 1.969 24.188 5.438 C25.312 7.438 25.312 7.438 25.312 10.438 C22.341 9.313 19.978 8.215 17.312 6.438 C14.583 6.216 11.958 6.11 9.227 6.102 C8.421 6.093 7.616 6.085 6.787 6.076 C4.17 6.057 1.554 6.057 -1.062 6.062 C-2.392 6.063 -2.392 6.063 -3.748 6.063 C-17.107 6.095 -29.776 6.743 -42.688 10.438 C-43.359 10.603 -44.03 10.769 -44.722 10.94 C-50.607 12.364 -50.607 12.364 -55.688 15.438 C-57.345 19.012 -58.567 22.664 -59.688 26.438 C-59.049 26.271 -58.411 26.105 -57.754 25.934 C-37.467 20.683 -17.457 17.112 3.312 14.438 C4.129 14.33 4.946 14.223 5.787 14.112 C23.664 11.776 23.664 11.776 30.312 12.438 C30.808 12.933 30.808 12.933 31.312 13.438 C31.097 19.676 29.584 24.934 27.535 30.808 C22.588 45.157 18.514 59.962 15.642 74.868 C14.815 78.971 13.856 82.097 11.312 85.438 C8.636 86.464 8.636 86.464 5.43 87.02 C4.262 87.229 3.094 87.438 1.891 87.654 C0.669 87.851 -0.553 88.047 -1.812 88.25 C-3.011 88.466 -4.21 88.682 -5.445 88.904 C-11.948 90.027 -18.092 90.686 -24.688 90.438 C-24.688 89.118 -24.688 87.798 -24.688 86.438 C-14.111 83.76 -3.469 82.043 7.312 80.438 C7.604 79.165 7.895 77.893 8.195 76.582 C12.747 56.95 18.512 37.729 24.312 18.438 C17.557 19.207 10.802 19.99 4.049 20.781 C1.761 21.048 -0.528 21.312 -2.816 21.572 C-20.618 23.602 -38.361 25.931 -55.562 31.125 C-60.245 32.508 -64.843 33.747 -69.688 34.438 C-64.773 42.407 -59.575 50.101 -54 57.625 C-53.414 58.416 -52.829 59.206 -52.226 60.021 C-49.064 64.275 -45.877 68.51 -42.676 72.734 C-42.029 73.595 -41.382 74.456 -40.716 75.343 C-39.47 77 -38.217 78.651 -36.954 80.296 C-36.394 81.042 -35.835 81.789 -35.258 82.559 C-34.76 83.213 -34.263 83.867 -33.75 84.541 C-32.688 86.438 -32.688 86.438 -32.688 90.438 C-42.196 86.353 -48.603 74.555 -54.688 66.438 C-55.141 65.836 -55.594 65.234 -56.061 64.615 C-61.161 57.828 -66.133 50.96 -70.812 43.875 C-71.899 42.233 -71.899 42.233 -73.008 40.559 C-74.702 37.41 -75.337 34.973 -75.688 31.438 C-72.717 30.447 -69.748 29.458 -66.688 28.438 C-66.595 27.014 -66.595 27.014 -66.5 25.562 C-65.688 19.876 -63.133 13.66 -58.844 9.762 C-42.553 -0.243 -18.502 0.057 0 0 Z " fill="#141415" transform="translate(394.6875,200.5625)"/>
<path d="M0 0 C2.668 1.652 2.668 1.652 5.188 3.938 C6.616 5.181 6.616 5.181 8.074 6.449 C9.04 7.291 10.005 8.133 11 9 C18.746 15.137 26.862 20.714 35.062 26.22 C46.756 34.116 46.756 34.116 51 38 C51 38.66 51 39.32 51 40 C49.416 39.858 47.833 39.711 46.25 39.562 C45.368 39.481 44.487 39.4 43.578 39.316 C41 39 41 39 39.114 38.231 C36.842 37.739 36.842 37.739 34.865 39.599 C34.116 40.387 33.366 41.176 32.594 41.988 C31.767 42.84 30.941 43.691 30.09 44.568 C29.235 45.474 28.381 46.379 27.5 47.312 C25.807 49.084 24.109 50.851 22.406 52.613 C21.657 53.405 20.907 54.197 20.135 55.013 C18.146 56.865 16.487 57.953 14 59 C2.298 46.909 -13.19 29.051 -16.562 12.188 C-15.699 7.296 -12.536 4.352 -9 1 C-5.9 -0.55 -3.422 -0.285 0 0 Z " fill="#FEFEFE" transform="translate(482,575)"/>
<path d="M0 0 C0 0.99 0 1.98 0 3 C0.99 3 1.98 3 3 3 C3.347 3.877 3.693 4.755 4.051 5.659 C5.365 8.945 6.704 12.219 8.06 15.488 C8.639 16.898 9.208 18.312 9.767 19.73 C13.158 28.316 16.091 35.003 25 39 C24.144 43.322 22.285 44.969 19 47.938 C18.483 48.408 17.965 48.878 17.432 49.362 C14.246 52.197 10.953 54.824 7.527 57.363 C6.767 57.927 6.008 58.491 5.225 59.073 C3.728 60.17 2.22 61.254 0.701 62.32 C-4.087 65.811 -6.086 68.39 -8 74 C-11.52 79.76 -11.52 79.76 -14 81 C-16.374 81.071 -18.75 81.084 -21.125 81.062 C-22.406 81.053 -23.688 81.044 -25.008 81.035 C-25.995 81.024 -26.983 81.012 -28 81 C-30.582 89.064 -33.062 97.132 -35.25 105.312 C-38.591 117.718 -42.86 129.844 -47 142 C-48.32 142 -49.64 142 -51 142 C-49.608 135.331 -47.835 128.879 -45.812 122.375 C-45.189 120.348 -44.565 118.32 -43.941 116.293 C-43.622 115.258 -43.302 114.224 -42.973 113.158 C-41.385 108.005 -39.818 102.846 -38.25 97.688 C-37.969 96.764 -37.687 95.841 -37.398 94.89 C-35.583 88.931 -33.785 82.968 -32 77 C-32.66 76.423 -33.32 75.845 -34 75.25 C-36 73 -36 73 -36 69 C-35.01 69 -34.02 69 -33 69 C-33.33 67.35 -33.66 65.7 -34 64 C-29.927 64.494 -27.143 65.958 -23.691 68.016 C-19.598 70.398 -15.666 71.349 -11 72 C-11 71.34 -11 70.68 -11 70 C-12.237 69.794 -13.475 69.587 -14.75 69.375 C-20.999 68.019 -26.406 65.01 -32 62 C-32 60.68 -32 59.36 -32 58 C-30.68 58 -29.36 58 -28 58 C-30.256 50.558 -33.391 43.785 -36.859 36.842 C-38.958 32.543 -40.547 28.835 -41 24 C-40.442 23.659 -39.885 23.317 -39.31 22.965 C-28.66 16.434 -18.082 9.838 -7.738 2.828 C-3.502 0 -3.502 0 0 0 Z M-5.727 6.273 C-6.505 6.764 -7.283 7.255 -8.085 7.761 C-8.923 8.293 -9.761 8.826 -10.625 9.375 C-11.474 9.913 -12.324 10.451 -13.198 11.005 C-20.878 15.887 -28.46 20.906 -36 26 C-35.412 29.631 -34.419 32.477 -32.715 35.73 C-32.267 36.617 -31.819 37.503 -31.357 38.416 C-30.418 40.25 -29.468 42.078 -28.506 43.9 C-25.377 50.153 -24.33 55.021 -25 62 C-22.71 62.837 -20.418 63.67 -18.125 64.5 C-17.474 64.738 -16.823 64.977 -16.152 65.223 C-12.665 66.549 -12.665 66.549 -9 67 C-9 66.34 -9 65.68 -9 65 C-8.409 64.727 -7.818 64.454 -7.21 64.172 C-5.065 63.034 -3.463 61.839 -1.645 60.242 C-1.026 59.702 -0.407 59.162 0.23 58.606 C0.876 58.035 1.522 57.464 2.188 56.875 C2.851 56.294 3.514 55.713 4.198 55.115 C6.136 53.414 8.069 51.708 10 50 C10.985 49.13 11.97 48.26 12.984 47.363 C14.994 45.581 17 43.794 19 42 C18.299 41.423 17.597 40.845 16.875 40.25 C8.135 31.437 3.505 15.462 -1 4 C-2.81 4 -4.235 5.332 -5.727 6.273 Z " fill="#141415" transform="translate(577,191)"/>
<path d="M0 0 C1.277 0.887 2.553 1.775 3.828 2.664 C8.168 5.208 13.073 6.171 17.91 7.428 C22.421 8.624 26.903 9.925 31.391 11.207 C32.785 11.6 32.785 11.6 34.208 12.002 C35.078 12.249 35.948 12.496 36.844 12.75 C37.624 12.971 38.404 13.191 39.208 13.419 C41.141 14.02 41.141 14.02 43.141 15.02 C42.524 17.787 41.692 20.178 40.442 22.72 C40.093 23.434 39.745 24.147 39.386 24.882 C39.007 25.648 38.629 26.414 38.238 27.203 C37.845 28.007 37.451 28.811 37.045 29.64 C35.768 32.247 34.486 34.852 33.203 37.457 C31.463 41.003 29.726 44.55 27.988 48.098 C27.564 48.964 27.139 49.831 26.701 50.723 C23.054 58.172 19.48 65.653 15.996 73.179 C12.253 81.17 12.253 81.17 10.141 83.02 C7.433 83.449 5.223 83.587 2.516 83.52 C1.735 83.508 0.955 83.497 0.15 83.485 C-42.737 82.142 -42.737 82.142 -52.859 72.02 C-53.271 66.857 -52.415 62.779 -50.805 57.891 C-50.588 57.227 -50.371 56.563 -50.147 55.879 C-49.439 53.734 -48.714 51.595 -47.984 49.457 C-47.738 48.727 -47.492 47.997 -47.238 47.245 C-44.03 37.768 -40.618 28.416 -36.547 19.27 C-36.164 18.391 -35.78 17.512 -35.385 16.607 C-31.586 8.446 -26.056 4.494 -17.859 1.02 C-12.362 -0.979 -5.497 -2.899 0 0 Z M-28.859 13.02 C-30.85 16.374 -32.391 19.873 -33.922 23.457 C-34.355 24.445 -34.789 25.433 -35.235 26.45 C-39.804 36.98 -43.542 47.62 -46.734 58.645 C-46.962 59.416 -47.19 60.187 -47.425 60.981 C-48.473 64.74 -49.026 67.294 -47.859 71.02 C-43.778 71.984 -39.694 72.94 -35.609 73.895 C-34.47 74.164 -33.33 74.433 -32.156 74.711 C-21.514 77.19 -11.042 79.198 -0.109 79.645 C0.695 79.683 1.499 79.722 2.328 79.762 C4.265 79.854 6.203 79.938 8.141 80.02 C14.115 68.243 19.867 56.361 25.596 44.465 C26.216 43.178 26.837 41.892 27.457 40.605 C27.759 39.979 28.061 39.352 28.372 38.706 C29.941 35.46 31.533 32.228 33.164 29.013 C33.489 28.369 33.815 27.726 34.151 27.063 C35.054 25.286 35.962 23.511 36.871 21.737 C38.282 19.217 38.282 19.217 38.141 17.02 C37.437 16.849 36.733 16.679 36.008 16.504 C17.249 11.9 17.249 11.9 9.031 8.875 C6.083 8.002 4.274 7.939 1.266 8.395 C0.484 8.505 -0.297 8.616 -1.102 8.73 C-1.682 8.826 -2.262 8.921 -2.859 9.02 C-2.529 7.37 -2.199 5.72 -1.859 4.02 C-11.542 3.374 -22.216 5.314 -28.859 13.02 Z " fill="#141415" transform="translate(756.859375,445.98046875)"/>
<path d="M0 0 C3.82 0.678 5.94 1.184 8.875 3.688 C10.984 7.778 11.132 11.298 11.141 15.859 C11.143 16.882 11.143 16.882 11.146 17.926 C11.148 19.364 11.144 20.803 11.136 22.242 C11.125 24.417 11.136 26.591 11.148 28.766 C11.155 35.981 10.851 42.694 8.875 49.688 C5.432 47.675 2.172 45.518 -1.062 43.188 C-7.404 38.34 -7.404 38.34 -14.938 36.812 C-19.059 37.944 -23.096 39.264 -27.125 40.688 C-26.585 36.026 -25.324 32.754 -22.992 28.695 C-22.35 27.578 -21.708 26.46 -21.047 25.309 C-20.71 24.734 -20.373 24.158 -20.025 23.566 C-19.011 21.832 -18.017 20.086 -17.023 18.34 C-6.567 0.311 -6.567 0.311 0 0 Z " fill="#FEFEFE" transform="translate(571.125,572.3125)"/>
<path d="M0 0 C4.162 3.438 6.854 7.048 7.875 12.375 C8.839 26.565 7.943 40.513 4.875 54.375 C4.72 55.103 4.565 55.83 4.405 56.58 C0.537 74.451 0.537 74.451 -5.508 79.277 C-10.309 81.291 -15.036 81.229 -20.125 80.375 C-23.668 78.408 -26.306 76.012 -28.125 72.375 C-28.202 70.646 -28.262 68.917 -28.312 67.188 C-28.984 59.7 -32.155 56.902 -37.688 52.195 C-39.568 50.644 -41.46 49.108 -43.363 47.586 C-45.845 45.599 -48.281 43.578 -50.688 41.5 C-51.308 40.966 -51.928 40.433 -52.566 39.883 C-55.481 37.064 -56.433 34.951 -56.5 31 C-56.432 27.519 -56.169 26.445 -54.25 23.375 C-51.13 20.439 -49.435 20.238 -45.25 20.25 C-44.386 20.247 -43.523 20.245 -42.633 20.242 C-40.125 20.375 -40.125 20.375 -37.934 20.969 C-37.337 21.103 -36.74 21.237 -36.125 21.375 C-35.444 20.921 -34.764 20.467 -34.062 20 C-29.648 17.558 -25.097 17.627 -20.125 17.375 C-19.955 16.651 -19.785 15.926 -19.609 15.18 C-16.523 2.867 -16.523 2.867 -11.25 -1 C-6.862 -2.291 -4.084 -2.123 0 0 Z M-12.438 5.812 C-14.127 9.38 -14.94 12.453 -15.535 16.324 C-16.266 18.866 -16.969 19.841 -19.125 21.375 C-21.613 21.781 -21.613 21.781 -24.438 21.875 C-28.019 22.09 -29.837 22.212 -33 24 C-37.51 25.984 -41.395 25.071 -46.199 24.406 C-49.102 24.094 -49.102 24.094 -50.992 25.664 C-52.774 28.356 -52.566 30.224 -52.125 33.375 C-49.509 37.098 -46.562 39.821 -43 42.625 C-28.57 54.208 -28.57 54.208 -25.125 59.375 C-24.955 61.329 -24.859 63.289 -24.812 65.25 C-24.513 69.244 -24.271 71.13 -22.188 74.625 C-17.946 77.049 -13.886 77.64 -9.125 76.375 C-4.28 72.661 -2.906 68.853 -1.438 63.188 C-1.238 62.483 -1.039 61.779 -0.834 61.053 C-0.222 58.836 0.332 56.61 0.875 54.375 C1.065 53.664 1.255 52.954 1.45 52.221 C3.284 44.547 3.247 36.786 3.246 28.942 C3.25 26.55 3.287 24.159 3.324 21.768 C3.33 20.234 3.334 18.701 3.336 17.168 C3.35 16.46 3.365 15.751 3.379 15.021 C3.335 10.197 2.294 7.76 -1.125 4.375 C-5.46 2.208 -9.089 2.283 -12.438 5.812 Z " fill="#141415" transform="translate(352.125,452.625)"/>
<path d="M0 0 C4.222 1.006 5.909 2.322 9.062 5.254 C14.658 10.271 20.684 14.274 27.076 18.21 C28.125 18.864 28.125 18.864 29.195 19.531 C29.821 19.913 30.446 20.294 31.09 20.687 C32.688 21.879 32.688 21.879 34.688 24.879 C34.083 33.519 25.384 40.368 19.625 46.254 C19.143 46.753 18.661 47.253 18.165 47.768 C14.012 51.912 9.511 55.77 3.438 56.004 C-4.885 53.507 -11.809 48.816 -18.438 43.297 C-20.361 41.685 -20.361 41.685 -23.312 40.879 C-23.312 41.539 -23.312 42.199 -23.312 42.879 C-24.781 44.359 -24.781 44.359 -26.812 46.066 C-29.078 47.982 -31.329 49.894 -33.52 51.895 C-34.214 52.529 -34.909 53.163 -35.625 53.816 C-36.578 54.696 -36.578 54.696 -37.551 55.594 C-39.312 56.879 -39.312 56.879 -42.312 56.879 C-41.734 53.331 -40.486 51.695 -37.934 49.207 C-37.26 48.543 -36.587 47.879 -35.893 47.195 C-35.186 46.513 -34.478 45.831 -33.75 45.129 C-33.039 44.432 -32.328 43.734 -31.596 43.016 C-29.841 41.296 -28.08 39.585 -26.312 37.879 C-27.118 36.973 -27.924 36.066 -28.754 35.133 C-31.47 31.85 -32.357 29.799 -32.125 25.508 C-30.246 19.427 -25.469 14.572 -21.312 9.879 C-20.282 8.697 -20.282 8.697 -19.23 7.492 C-16.028 4.052 -16.028 4.052 -14.312 2.879 C-12.992 2.879 -11.673 2.879 -10.312 2.879 C-11.739 7.293 -13.939 9.92 -17.125 13.254 C-22.689 19.209 -22.689 19.209 -27.312 25.879 C-27.191 28.964 -26.181 30.026 -24.102 32.355 C-19.441 36.572 -14.416 40.22 -9.312 43.879 C-8.317 44.596 -7.322 45.312 -6.297 46.051 C-5.353 46.695 -4.41 47.34 -3.438 48.004 C-2.173 48.874 -2.173 48.874 -0.883 49.762 C2.558 51.257 4.131 51.057 7.688 49.879 C10.016 48.125 11.995 46.458 14.062 44.441 C14.625 43.905 15.187 43.369 15.766 42.816 C22.975 35.941 22.975 35.941 28.688 27.879 C28.829 25.712 28.829 25.712 27.688 23.879 C25.692 22.533 25.692 22.533 23.125 21.441 C16.779 18.219 11.594 13.953 6.172 9.373 C5.518 8.823 4.865 8.274 4.191 7.707 C3.612 7.211 3.033 6.715 2.436 6.204 C0.606 4.817 -1.232 3.841 -3.312 2.879 C-1.045 7.342 1.983 10.014 5.938 12.941 C6.485 13.362 7.033 13.783 7.598 14.217 C11.456 17.131 15.45 19.551 19.688 21.879 C19.688 22.539 19.688 23.199 19.688 23.879 C16.418 24.961 15.107 25.085 11.961 23.543 C11.004 22.87 10.048 22.197 9.062 21.504 C8.024 20.774 6.985 20.045 5.914 19.293 C1.016 15.68 -3.677 11.821 -8.312 7.879 C-7.227 2.826 -5.605 -0.205 0 0 Z " fill="#141415" transform="translate(641.3125,297.12109375)"/>
<path d="M0 0 C2.25 2.688 2.25 2.688 4 6 C5.509 7.467 5.509 7.467 7.188 8.75 C10.838 11.67 10.838 11.67 11.238 14.953 C11.418 20.529 10.772 23.617 7 28 C1.963 32.65 -2.808 34.668 -9.656 34.508 C-15.366 33.271 -19.405 28.275 -22.5 23.562 C-24.235 19.442 -25.124 16.383 -24 12 C-19.209 3.555 -9.803 -2.486 0 0 Z " fill="#FEFEFE" transform="translate(244,456)"/>
<path d="M0 0 C0.887 0.825 1.774 1.65 2.688 2.5 C3.213 2.955 3.739 3.41 4.281 3.879 C17.187 16.521 30.873 49.685 33.062 67.562 C32.594 71.235 31.189 72.842 28.688 75.5 C27.367 75.17 26.048 74.84 24.688 74.5 C24.688 73.18 24.688 71.86 24.688 70.5 C24.322 62.337 21.683 55.786 18.5 48.312 C17.999 47.115 17.498 45.918 16.982 44.684 C15.996 42.332 15.005 39.981 14.009 37.633 C12.926 35.066 11.869 32.493 10.836 29.906 C8.271 23.598 5.654 17.328 0.688 12.5 C-5.004 10.603 -10.769 10.361 -16.305 12.84 C-18.165 13.911 -20.001 15.024 -21.805 16.188 C-24.606 17.653 -26.198 17.922 -29.312 17.5 C-31.312 15.5 -31.312 15.5 -31.938 12.25 C-31.249 8.12 -30.947 7.728 -27.812 5.312 C-26.331 4.346 -24.83 3.408 -23.312 2.5 C-22.689 2.084 -22.065 1.667 -21.422 1.238 C-14.873 -2.683 -6.946 -3.145 0 0 Z " fill="#0C0B0C" transform="translate(512.3125,442.5)"/>
<path d="M0 0 C1.123 -0.037 2.247 -0.075 3.404 -0.113 C11.448 -0.199 11.448 -0.199 14.284 1.447 C21.735 8.775 20.683 19.263 20.867 28.939 C20.898 29.85 20.929 30.761 20.961 31.699 C20.991 32.938 20.991 32.938 21.021 34.202 C21.521 36.81 22.417 37.715 24.438 39.375 C24.813 38.881 25.188 38.388 25.574 37.879 C29.806 32.581 29.806 32.581 33.312 31.438 C34.014 31.417 34.715 31.396 35.438 31.375 C34.931 35.761 32.235 38.158 29.438 41.375 C27.574 45.102 28.023 49.308 28.438 53.375 C30.886 59.32 35.819 61.748 41.172 64.859 C41.92 65.36 42.667 65.86 43.438 66.375 C43.438 67.035 43.438 67.695 43.438 68.375 C38.059 69.202 34.866 67.384 30.629 64.344 C26.354 60.503 22.94 55.727 22.074 49.953 C22.062 47.75 22.062 47.75 22.438 44.375 C17.223 44.167 12.999 44.851 8 46.312 C-0.493 48.783 -8.464 49.57 -17.25 49.625 C-18.078 49.646 -18.906 49.666 -19.76 49.688 C-24.532 49.718 -27.695 49.49 -31.562 46.375 C-36.364 39.859 -35.745 32.626 -35.75 24.875 C-35.762 23.842 -35.774 22.81 -35.787 21.746 C-35.789 20.747 -35.791 19.748 -35.793 18.719 C-35.797 17.813 -35.801 16.908 -35.805 15.975 C-35.539 13.127 -34.742 10.967 -33.562 8.375 C-32.903 8.375 -32.243 8.375 -31.562 8.375 C-31.548 9.181 -31.533 9.988 -31.518 10.818 C-31.443 14.504 -31.347 18.19 -31.25 21.875 C-31.227 23.143 -31.205 24.412 -31.182 25.719 C-30.985 32.596 -30.507 38.123 -27.562 44.375 C-16.026 44.732 -5.837 44.023 5.438 41.375 C8.767 40.689 12.101 40.029 15.438 39.375 C15.526 35.75 15.578 32.126 15.625 28.5 C15.65 27.487 15.675 26.474 15.701 25.43 C15.765 18.745 15.239 12.537 12.438 6.375 C8.39 4.351 3.198 5.19 -1.25 5.188 C-2.327 5.175 -3.404 5.163 -4.514 5.15 C-10.313 5.14 -15.073 5.538 -20.562 7.375 C-22.895 7.449 -25.231 7.47 -27.562 7.375 C-26.562 4.375 -26.562 4.375 -24.926 3.461 C-24.249 3.226 -23.572 2.992 -22.875 2.75 C-22.211 2.51 -21.547 2.27 -20.863 2.023 C-13.995 0.088 -7.081 0.09 0 0 Z " fill="#141415" transform="translate(269.5625,292.625)"/>
<path d="M0 0 C0.66 0 1.32 0 2 0 C4.397 4.194 5.707 7.154 5 12 C-1.27 23.379 -11.955 29.337 -24 33 C-24.717 33.227 -25.433 33.454 -26.172 33.688 C-38.273 36.963 -51.347 35.972 -62.25 29.75 C-66.168 27.091 -69.598 24.126 -72 20 C-72.602 16.053 -72.587 14.04 -70.625 10.562 C-69 9 -69 9 -67 9 C-66.67 10.052 -66.34 11.104 -66 12.188 C-63.991 16.87 -60.542 18.965 -56 21 C-41.282 26.018 -25.168 23.001 -11.375 16.562 C-6.87 14.086 -2.903 11.833 -1.262 6.684 C-0.75 4.46 -0.329 2.257 0 0 Z " fill="#F4F4F5" transform="translate(743,808)"/>
<path d="M0 0 C2.375 1.5 2.375 1.5 4 4 C5.309 12.439 1.335 18.649 -3.336 25.434 C-3.743 26.034 -4.151 26.635 -4.571 27.253 C-5.378 28.429 -6.204 29.592 -7.052 30.739 C-11.935 37.807 -10.07 45.91 -8.688 53.945 C-8.554 54.759 -8.421 55.574 -8.284 56.412 C-7.863 58.984 -7.432 61.555 -7 64.125 C-6.568 66.702 -6.139 69.28 -5.716 71.859 C-5.454 73.455 -5.188 75.05 -4.915 76.644 C-4.172 81.163 -3.873 85.42 -4 90 C-5.32 90 -6.64 90 -8 90 C-9.689 81.323 -11.124 72.742 -11.789 63.922 C-12.442 46.714 -12.442 46.714 -19.895 31.957 C-23.326 29.111 -26.988 26.972 -30.997 25.044 C-34.707 23.11 -37.887 20.451 -40.438 17.125 C-41.317 13.802 -40.84 11.301 -40 8 C-37.821 5.498 -36.358 5.078 -33.125 4.375 C-29.398 5.12 -27.825 6.566 -25.512 9.535 C-22.971 13.678 -21.198 18.101 -19.395 22.598 C-17.322 28.733 -17.322 28.733 -13 33 C-12.764 32.323 -12.528 31.646 -12.285 30.949 C-10.694 27.297 -8.63 24.128 -6.438 20.812 C-2.66 15.049 -0.87 12.041 -1 5 C-2.666 4.957 -4.334 4.959 -6 5 C-7.996 6.996 -7.41 10.817 -7.562 13.562 C-7.627 14.629 -7.627 14.629 -7.693 15.717 C-7.8 17.478 -7.9 19.239 -8 21 C-9.32 21 -10.64 21 -12 21 C-12.109 18.603 -12.188 16.211 -12.25 13.812 C-12.3 12.802 -12.3 12.802 -12.352 11.771 C-12.423 8.11 -12.115 6.178 -10.109 3.074 C-6.791 -0.189 -4.611 -0.461 0 0 Z " fill="#141415" transform="translate(503,247)"/>
<path d="M0 0 C4.936 2.127 6.748 5.24 9 10 C16.781 30.071 11.549 55.317 9.525 76.217 C8.875 83.061 8.532 89.9 8.309 96.77 C8.001 99.994 7.686 102.228 6 105 C3.719 105.781 3.719 105.781 1 106 C-0.346 106.17 -0.346 106.17 -1.719 106.344 C-9.142 106.761 -9.142 106.761 -11.684 104.508 C-12.938 102.625 -12.938 102.625 -14.008 100.691 C-15.273 98.534 -16.652 97.783 -19 97 C-19 96.34 -19 95.68 -19 95 C-8.675 94.459 -8.675 94.459 -4 98 C-3.01 98.33 -2.02 98.66 -1 99 C6.261 50.629 6.261 50.629 0 3 C0 2.01 0 1.02 0 0 Z " fill="#F4F4F5" transform="translate(434,666)"/>
<path d="M0 0 C0.99 0.99 0.99 0.99 2 2 C1.938 3.875 1.938 3.875 1 6 C-2.434 9.059 -5.92 11.098 -10.062 13.062 C-13.691 14.788 -16.831 16.537 -20 19 C-22.962 20.372 -24.713 21 -28 21 C-28 21.66 -28 22.32 -28 23 C-27.01 22.67 -26.02 22.34 -25 22 C-21.324 21.423 -18.982 21.312 -15.871 23.492 C-14.485 24.722 -13.125 25.982 -11.797 27.273 C-8.711 30.238 -6.706 31.278 -2.5 31.25 C-1.34 31.258 -1.34 31.258 -0.156 31.266 C2.295 31.127 2.295 31.127 5 29 C5 27.68 5 26.36 5 25 C3.083 24.973 1.167 24.954 -0.75 24.938 C-1.817 24.926 -2.885 24.914 -3.984 24.902 C-6.534 24.985 -8.579 25.254 -11 26 C-10.688 24.125 -10.688 24.125 -10 22 C-5.331 18.887 -0.463 19.278 5 20 C8.381 22.276 9.565 23.585 10.75 27.438 C9.726 30.937 8.039 32.597 5.195 34.824 C1.183 36.973 -2.606 36.827 -7 36 C-10.827 34.625 -13.447 32.808 -15.777 29.402 C-17.836 26.712 -17.836 26.712 -21.199 26.328 C-22.926 26.289 -22.926 26.289 -24.688 26.25 C-30.945 26.055 -30.945 26.055 -32 25 C-36.82 24.622 -40.372 25.61 -44.867 27.301 C-45.506 27.538 -46.144 27.775 -46.802 28.019 C-48.83 28.774 -50.852 29.543 -52.875 30.312 C-54.225 30.818 -55.575 31.323 -56.926 31.826 C-61.5 33.536 -66.074 35.247 -70.622 37.025 C-73.58 38.175 -75.794 39 -79 39 C-78.949 37.191 -78.949 37.191 -78 35 C-75.583 33.755 -73.362 32.832 -70.812 31.938 C-70.042 31.653 -69.271 31.368 -68.477 31.075 C-66.696 30.42 -64.913 29.772 -63.127 29.13 C-59.57 27.845 -56.025 26.527 -52.48 25.207 C-49.821 24.22 -47.161 23.235 -44.5 22.25 C-43.857 22.012 -43.214 21.774 -42.551 21.528 C-35.694 18.993 -28.884 16.546 -21.806 14.698 C-19.746 14.121 -19.746 14.121 -18.688 11.688 C-18.461 10.801 -18.234 9.914 -18 9 C-12.669 1.795 -8.842 -0.725 0 0 Z " fill="#141415" transform="translate(688,373)"/>
<path d="M0 0 C7.163 1.862 13.082 7.754 17.125 13.812 C18.3 16.842 18.93 19.87 19.5 23.062 C19.746 24.265 19.746 24.265 19.996 25.492 C20.63 28.676 21.125 31.556 21.125 34.812 C11.788 35.706 4.9 34.196 -2.875 28.812 C-7.488 24.229 -8.983 19.341 -9.312 13 C-9.262 8.127 -8.042 5.45 -4.578 2.043 C-2.875 0.812 -2.875 0.812 0 0 Z " fill="#F4F4F5" transform="translate(449.875,479.1875)"/>
<path d="M0 0 C6.416 4.608 11.188 9.723 13.148 17.543 C14.274 26.615 13.528 34.022 8.148 41.543 C2.71 48.353 -3.179 52.859 -11.961 53.918 C-21.029 54.259 -28.434 52.438 -35.664 46.855 C-40.908 41.983 -44.317 35.462 -45.09 28.352 C-45.382 19.029 -43.114 11.484 -36.664 4.605 C-26.435 -4.646 -12.367 -7.334 0 0 Z M-35.852 9.543 C-39.408 14.787 -40.572 18.614 -40.477 24.918 C-40.469 25.665 -40.461 26.413 -40.453 27.183 C-40.195 33.613 -38.537 37.981 -33.852 42.543 C-27.946 47.867 -21.612 50.181 -13.641 49.977 C-7.23 48.98 -1.248 46.139 3.172 41.352 C8.14 34.19 10.2 27.24 9.148 18.543 C6.903 10.627 0.873 6.228 -5.539 1.605 C-17.379 -2.192 -27.238 1.126 -35.852 9.543 Z " fill="#141415" transform="translate(763.8515625,262.45703125)"/>
<path d="M0 0 C2.472 0.842 4.478 1.851 6.703 3.211 C11.122 5.773 15.561 7.414 20.453 8.836 C19.803 13.55 17.938 17.413 15.891 21.648 C15.561 22.341 15.232 23.034 14.893 23.748 C14.084 25.446 13.269 27.141 12.453 28.836 C6.778 28.327 2.55 26.766 -2.484 24.148 C-3.536 23.61 -3.536 23.61 -4.608 23.062 C-17.747 16.197 -17.747 16.197 -20.547 9.836 C-19.666 9.365 -18.786 8.895 -17.879 8.41 C-16.717 7.788 -15.556 7.165 -14.359 6.523 C-13.211 5.909 -12.062 5.294 -10.879 4.66 C-7.606 2.94 -7.606 2.94 -4.934 1.043 C-2.547 -0.164 -2.547 -0.164 0 0 Z " fill="#141415" transform="translate(667.546875,459.1640625)"/>
<path d="M0 0 C4.406 2.163 7.199 4.397 9 9 C9.846 13.537 10.006 17.3 7.605 21.355 C3.206 26.617 -0.072 28.721 -6.938 29.375 C-11.219 29.262 -13.729 27.803 -17 25 C-20.086 20.131 -19.955 14.536 -19 9 C-14.232 0.946 -9.048 -1.001 0 0 Z " fill="#FEFEFE" transform="translate(312,538)"/>
<path d="M0 0 C3.766 1.648 6.806 4.088 10 6.625 C14.462 10.102 18.968 13.475 23.625 16.688 C24.587 17.351 25.548 18.015 26.539 18.699 C27.351 19.128 28.163 19.558 29 20 C32.329 18.89 33.015 18.075 35.188 15.438 C37.77 12.413 40.378 9.439 43.125 6.562 C43.746 5.904 44.368 5.245 45.008 4.566 C47.376 2.705 49.006 2.191 52 2 C54 4 54 4 54.031 6.164 C52.482 10.423 49.617 13.151 46.5 16.375 C45.866 17.038 45.232 17.701 44.578 18.385 C34.091 29.203 34.091 29.203 30 31 C24.344 30.944 20.666 28.118 16.25 24.938 C15.55 24.444 14.85 23.95 14.128 23.441 C-0.766 12.851 -0.766 12.851 -4 8 C-3.673 4.625 -2.116 2.576 0 0 Z " fill="#EBECEC" transform="translate(617,318)"/>
<path d="M0 0 C3.402 1.614 6.103 3.586 9 6 C7.423 11.162 4.197 14.792 0.812 18.875 C0.26 19.557 -0.292 20.239 -0.861 20.941 C-2.542 22.991 -4.258 25.002 -6 27 C-6.598 27.694 -7.195 28.388 -7.811 29.103 C-12.236 33.934 -12.236 33.934 -15.609 34.227 C-18.672 32.655 -20.803 30.8 -23.25 28.375 C-24.121 27.537 -24.993 26.699 -25.891 25.836 C-28.377 22.493 -28.736 20.11 -29 16 C-28.443 15.758 -27.886 15.515 -27.312 15.266 C-24.868 14.192 -22.433 13.1 -20 12 C-19.354 11.711 -18.708 11.423 -18.043 11.125 C-11.612 8.092 -5.846 4.015 0 0 Z " fill="#141415" transform="translate(299,415)"/>
<path d="M0 0 C0.99 0.495 0.99 0.495 2 1 C1.546 1.722 1.092 2.444 0.625 3.188 C-0.855 5.749 -1.972 8.233 -3 11 C-3.99 11 -4.98 11 -6 11 C-6 10.34 -6 9.68 -6 9 C-17.719 10.953 -26.982 16.654 -36.368 23.66 C-38.914 25.558 -40.963 26.988 -44 28 C-44.718 29.307 -45.377 30.646 -46 32 C-47.089 33.49 -48.195 34.968 -49.312 36.438 C-58.073 49.029 -59.802 61.586 -57.453 76.465 C-56.778 79.38 -55.961 82.167 -55 85 C-54.733 85.847 -54.466 86.694 -54.191 87.566 C-52.011 93.758 -48.628 98.587 -44.609 103.75 C-43 106 -43 106 -43 108 C-48.675 106.624 -51.78 102.592 -55 98 C-63.266 83.395 -66.631 67.307 -62.438 50.875 C-56.984 33.747 -45.587 21.16 -29.879 12.723 C-14.886 4.994 -14.886 4.994 -7.875 4.625 C-3.726 3.956 -2.518 3.253 0 0 Z " fill="#141415" transform="translate(474,356)"/>
<path d="M0 0 C2.625 1.438 2.625 1.438 4 4 C4.387 8.492 3.847 11.871 1.125 15.5 C-2.195 17.093 -3.493 17.015 -7.062 16.938 C-12.108 17.196 -14.347 18.784 -17.7 22.306 C-19.753 24.633 -21.755 26.993 -23.708 29.405 C-25.311 31.384 -26.993 33.286 -28.688 35.188 C-29.225 35.809 -29.763 36.43 -30.316 37.07 C-32.226 39.259 -34.174 41.41 -36.125 43.562 C-38.859 46.587 -41.559 49.637 -44.219 52.727 C-44.782 53.381 -45.345 54.035 -45.925 54.709 C-47.026 55.99 -48.124 57.273 -49.219 58.559 C-52.468 62.342 -55.845 65.916 -59.424 69.39 C-60.995 70.995 -62.367 72.67 -63.75 74.438 C-64.864 75.706 -64.864 75.706 -66 77 C-66.99 77 -67.98 77 -69 77 C-68.626 71.935 -65.895 69.273 -62.5 65.812 C-61.399 64.657 -60.299 63.501 -59.199 62.344 C-58.654 61.777 -58.11 61.209 -57.548 60.625 C-55.424 58.395 -53.365 56.109 -51.312 53.812 C-50.6 53.017 -49.887 52.222 -49.152 51.402 C-48.442 50.61 -47.732 49.817 -47 49 C-45.458 47.292 -43.917 45.583 -42.375 43.875 C-39.747 40.957 -37.139 38.025 -34.562 35.062 C-31.714 31.789 -28.802 28.579 -25.875 25.375 C-25.027 24.437 -24.179 23.498 -23.305 22.531 C-21.997 21.095 -20.678 19.67 -19.32 18.281 C-16.659 15.446 -15.687 13.172 -15 9.438 C-14.385 6.157 -13.879 4.82 -11.938 1.938 C-7.908 -0.72 -4.696 -0.909 0 0 Z " fill="#141415" transform="translate(666,238)"/>
<path d="M0 0 C0.66 1.32 1.32 2.64 2 4 C1.007 4.34 0.015 4.681 -1.008 5.031 C-22.569 12.627 -36.887 24.23 -51 42 C-52.94 44.429 -54.878 46.723 -57 49 C-57.99 49 -58.98 49 -60 49 C-59.722 36.765 -49.911 26.658 -41.615 18.525 C-30.145 7.691 -16.444 -1.929 0 0 Z " fill="#F4F4F5" transform="translate(412,771)"/>
<path d="M0 0 C0 0.99 0 1.98 0 3 C0.99 3 1.98 3 3 3 C3.347 3.877 3.693 4.755 4.051 5.659 C5.365 8.945 6.704 12.219 8.06 15.488 C8.639 16.898 9.208 18.312 9.767 19.73 C13.158 28.316 16.091 35.003 25 39 C22.83 50.01 4.606 59.742 -4 66 C-4 61.502 -1.446 59.706 1.5 56.48 C4.97 53.038 8.721 50.033 12.582 47.043 C14.8 45.169 16.381 43.394 18 41 C17.127 40.432 16.255 39.863 15.355 39.277 C10.489 35.217 8.66 29.284 6.312 23.562 C5.372 21.334 4.431 19.106 3.488 16.879 C3.081 15.895 2.674 14.911 2.255 13.897 C0.944 10.871 -0.5 7.937 -2 5 C-6.619 7.91 -11.236 10.824 -15.848 13.746 C-18.99 15.736 -22.141 17.71 -25.309 19.66 C-26.56 20.44 -27.811 21.22 -29.062 22 C-30.72 23.021 -30.72 23.021 -32.41 24.062 C-34.934 25.951 -35.95 27.078 -37 30 C-37.99 30 -38.98 30 -40 30 C-40.33 28.02 -40.66 26.04 -41 24 C-40.442 23.659 -39.885 23.317 -39.31 22.965 C-28.66 16.434 -18.082 9.838 -7.738 2.828 C-3.502 0 -3.502 0 0 0 Z " fill="#141415" transform="translate(577,191)"/>
<path d="M0 0 C4.323 1.998 7.345 4.017 10 8 C10.712 12.885 10.729 16.81 8.125 21.062 C4.777 24.115 2.446 24.293 -2.09 24.211 C-4 24 -4 24 -6 22.875 C-7.421 20.211 -7.198 17.965 -7 15 C-4 16 -4 16 -2.812 18.062 C-2.544 18.702 -2.276 19.341 -2 20 C0.416 20.167 0.416 20.167 3 20 C5.37 17.63 5.37 16.88 5.5 13.625 C5.408 9.809 5.281 9.281 2.438 6.438 C-1.569 4.762 -3.708 4.247 -8 5 C-11.265 7.129 -14.239 9.478 -16 13 C-16.55 18.885 -16.642 24.106 -13 29 C-9.228 32.269 -6.025 33.854 -1.062 34.562 C4.514 34.134 9.701 32.321 13.68 28.305 C18.08 22.165 17.649 16.058 16.5 8.875 C16.252 7.947 16.252 7.947 16 7 C16.99 7 17.98 7 19 7 C21.828 9.875 22.476 12.147 22.562 16.125 C22.323 23.609 19.218 28.641 14.125 33.957 C8.451 38.545 2.67 38.886 -4.461 38.586 C-10.418 37.6 -13.604 34.939 -17.328 30.371 C-20.999 25.213 -21.984 20.17 -21 14 C-18.943 8.975 -16.251 4.385 -11.625 1.375 C-7.568 -0.164 -4.24 -0.949 0 0 Z " fill="#141415" transform="translate(225,369)"/>
<path d="M0 0 C3.843 1.961 4.719 3.187 6.125 7.25 C5.957 12.295 4.153 15.153 1 19 C-3.903 23.447 -7.009 24.391 -13.516 24.363 C-17.236 23.819 -18.795 21.916 -21 19 C-21.33 18.67 -21.66 18.34 -22 18 C-22.587 14.405 -22.634 11.977 -20.613 8.863 C-14.523 1.716 -9.566 -1.382 0 0 Z " fill="#141415" transform="translate(755,355)"/>
<path d="M0 0 C3.062 2 3.062 2 5 5 C5.967 9.686 5.445 13.076 3.375 17.375 C-0.43 21.581 -3.967 23.144 -9.562 23.562 C-13.326 23.416 -13.954 23.038 -17.062 20.5 C-19.173 17.392 -19.681 14.673 -19.418 10.953 C-18.43 6.337 -15.706 3.64 -12.312 0.562 C-7.874 -1.531 -4.655 -1.446 0 0 Z " fill="#141415" transform="translate(808,396)"/>
<path d="M0 0 C3.539 1.651 4.811 2.716 7 6 C7.427 11.3 7.524 14.747 4 19 C0.313 21.889 -2.358 22.494 -7 22 C-9.788 21.124 -10.853 20.173 -12.75 17.938 C-14.49 13.849 -15.063 10.36 -14 6 C-10.434 0.846 -6.24 -1.04 0 0 Z " fill="#FEFEFE" transform="translate(570,213)"/>
<path d="M0 0 C0.99 0.33 1.98 0.66 3 1 C2.43 4.626 1.076 6.255 -1.562 8.75 C-2.203 9.364 -2.844 9.977 -3.504 10.609 C-4.244 11.298 -4.244 11.298 -5 12 C-3.538 16.396 -1.141 19.643 1.75 23.188 C2.747 24.433 3.743 25.679 4.738 26.926 C5.268 27.585 5.797 28.245 6.342 28.924 C11.638 35.555 16.817 42.281 22 49 C22.581 49.753 23.162 50.505 23.76 51.281 C25.431 53.453 27.092 55.631 28.75 57.812 C29.502 58.79 29.502 58.79 30.269 59.787 C32.752 63.075 34.701 66.035 36 70 C34.02 70.495 34.02 70.495 32 71 C31.639 70.503 31.277 70.006 30.905 69.494 C24.271 60.383 17.586 51.345 10.489 42.588 C6.006 37.047 1.675 31.396 -2.637 25.72 C-3.149 25.047 -3.66 24.373 -4.188 23.68 C-4.667 23.043 -5.147 22.405 -5.641 21.749 C-6.844 20.201 -8.135 18.723 -9.438 17.258 C-11 15 -11 15 -11.066 13.047 C-9.494 10.028 -7.267 7.692 -4.938 5.25 C-4.465 4.743 -3.993 4.237 -3.506 3.715 C-2.344 2.471 -1.173 1.234 0 0 Z " fill="#141415" transform="translate(408,291)"/>
<path d="M0 0 C4.44 1.357 6.452 3.134 9 7 C11.502 12.647 11.345 18.186 11.312 24.25 C11.306 25.848 11.306 25.848 11.3 27.479 C11.167 36.898 10.032 45.818 8 55 C7.767 56.091 7.767 56.091 7.53 57.205 C5.901 64.73 4.244 71.492 0 78 C-2.75 79.438 -2.75 79.438 -5 80 C-5.66 79.34 -6.32 78.68 -7 78 C-6.01 77.01 -6.01 77.01 -5 76 C-1.785 72.45 -0.698 68.391 0.562 63.875 C0.875 62.812 0.875 62.812 1.193 61.727 C1.834 59.493 2.425 57.251 3 55 C3.192 54.288 3.384 53.576 3.582 52.842 C5.406 45.174 5.407 37.406 5.426 29.567 C5.438 27.174 5.487 24.784 5.537 22.393 C5.547 20.859 5.554 19.326 5.559 17.793 C5.578 17.085 5.598 16.376 5.618 15.646 C5.582 11.691 5.157 10.181 2.52 7.154 C1.688 6.443 0.857 5.732 0 5 C-0.875 2.75 -0.875 2.75 -1 1 C-0.67 0.67 -0.34 0.34 0 0 Z " fill="#141415" transform="translate(349,452)"/>
<path d="M0 0 C2.25 2.688 2.25 2.688 4 6 C5.509 7.467 5.509 7.467 7.188 8.75 C10.838 11.67 10.838 11.67 11.238 14.953 C11.418 20.529 10.772 23.617 7 28 C1.963 32.65 -2.808 34.668 -9.656 34.508 C-15.366 33.271 -19.405 28.275 -22.5 23.562 C-24.235 19.442 -25.124 16.383 -24 12 C-19.209 3.555 -9.803 -2.486 0 0 Z M-13.25 6.312 C-14.101 6.927 -14.952 7.542 -15.828 8.176 C-18.783 10.658 -19.899 12.357 -20.5 16.188 C-19.829 21.307 -17.498 24.298 -14 28 C-9.948 30.701 -6.76 30.904 -2 30 C1.616 28.026 5.126 25.748 7 22 C7.669 15.997 7.669 15.997 4.625 11 C2.285 8.798 2.285 8.798 0 9 C-0.144 8.381 -0.289 7.762 -0.438 7.125 C-0.932 4.967 -0.932 4.967 -2 3 C-6.918 2.619 -9.303 3.389 -13.25 6.312 Z " fill="#141415" transform="translate(244,456)"/>
<path d="M0 0 C1.049 0.015 1.049 0.015 2.119 0.031 C8.145 0.276 13.652 1.389 18.25 5.562 C19.438 9.312 19.438 9.312 19.25 12.562 C16.636 15.176 9.498 13.793 5.949 13.803 C3.89 13.812 1.832 13.843 -0.227 13.875 C-1.521 13.88 -2.815 13.885 -4.148 13.891 C-5.938 13.905 -5.938 13.905 -7.763 13.919 C-10.75 13.562 -10.75 13.562 -12.627 12.226 C-14.459 9.512 -14.333 7.735 -13.75 4.562 C-9.35 0.843 -5.631 -0.123 0 0 Z " fill="#030303" transform="translate(542.75,439.4375)"/>
<path d="M0 0 C4.48 -0.363 4.48 -0.363 6.545 1.08 C8.635 3.837 9.153 6.553 9.973 9.906 C10.141 10.586 10.31 11.266 10.484 11.967 C10.839 13.408 11.189 14.85 11.534 16.294 C12.055 18.467 12.589 20.636 13.127 22.805 C18.358 44.081 18.358 44.081 18 55 C17.34 55 16.68 55 16 55 C11.637 43.928 7.91 32.753 4.625 21.312 C4.28 20.12 3.934 18.927 3.578 17.698 C1.91 11.788 0.528 6.123 0 0 Z " fill="#F4F4F5" transform="translate(380,331)"/>
<path d="M0 0 C5.102 2.695 8.174 5.521 10 11 C10.441 16.296 10.264 19.95 7.324 24.457 C4.482 27.769 1.264 29.575 -3.02 30.379 C-9.465 30.761 -12.755 27.95 -17.375 23.938 C-19.9 19.373 -19.839 15.091 -19 10 C-17.253 5.881 -14.838 3.577 -11.188 1.062 C-7.287 -0.238 -4.064 -0.738 0 0 Z M-13.676 8.086 C-15.698 11.008 -15.722 13.409 -15.43 16.883 C-14.836 19.808 -13.932 21.723 -12 24 C-8.198 26.364 -5.438 26.143 -1.125 25.547 C1.858 24.779 3.242 23.491 5 21 C6.238 17.287 6.557 13.858 6 10 C3.876 6.557 2.851 5.284 -1 4 C-6.614 3.244 -9.663 4.28 -13.676 8.086 Z " fill="#141415" transform="translate(571,209)"/>
<path d="M0 0 C4.08 0.545 7.636 2.708 11.25 4.562 C11.9 4.892 12.549 5.221 13.219 5.561 C14.814 6.37 16.407 7.185 18 8 C16.35 11.96 14.7 15.92 13 20 C6.747 19.137 1.936 17.144 -3.5 14.062 C-4.123 13.714 -4.747 13.366 -5.389 13.008 C-9.873 10.381 -9.873 10.381 -11 7 C-10.29 6.578 -9.579 6.157 -8.848 5.723 C-7.929 5.175 -7.009 4.627 -6.062 4.062 C-5.146 3.517 -4.229 2.972 -3.285 2.41 C-1.116 1.193 -1.116 1.193 0 0 Z " fill="#FEFEFE" transform="translate(665,463)"/>
<path d="M0 0 C4.406 2.163 7.199 4.397 9 9 C9.846 13.537 10.006 17.3 7.605 21.355 C3.206 26.617 -0.072 28.721 -6.938 29.375 C-11.219 29.262 -13.729 27.803 -17 25 C-20.086 20.131 -19.955 14.536 -19 9 C-14.232 0.946 -9.048 -1.001 0 0 Z M-14 8 C-15.857 11.714 -15.439 15.947 -15 20 C-13.737 23.248 -13.737 23.248 -11 25 C-6.058 25.717 -4.032 25.554 0.375 23.188 C3.014 20.988 4.755 19.377 5.371 15.914 C5.492 11.732 5.351 9.555 3.062 5.938 C-3.013 2.094 -9.003 2.691 -14 8 Z " fill="#141415" transform="translate(312,538)"/>
<path d="M0 0 C3.066 1.426 5.667 3.126 8.371 5.152 C9.193 5.764 10.015 6.376 10.861 7.006 C11.711 7.643 12.562 8.281 13.438 8.938 C15.122 10.199 16.808 11.458 18.496 12.715 C19.24 13.273 19.985 13.831 20.752 14.406 C23.126 16.089 25.407 17.672 28 19 C31.329 17.89 32.015 17.075 34.188 14.438 C36.797 11.374 39.451 8.392 42.25 5.5 C42.895 4.83 43.539 4.159 44.203 3.469 C46 2 46 2 49 2 C48.341 9.463 42.281 13.793 36.922 18.316 C35.229 19.799 33.75 21.328 32.25 23 C31.508 23.66 30.765 24.32 30 25 C26.536 24.652 24.204 22.958 21.41 20.98 C20.543 20.37 19.676 19.76 18.783 19.131 C17.885 18.49 16.988 17.848 16.062 17.188 C14.722 16.243 14.722 16.243 13.354 15.279 C0.608 6.262 0.608 6.262 -1 1 C-0.67 0.67 -0.34 0.34 0 0 Z " fill="#141415" transform="translate(618,319)"/>
<path d="M0 0 C0.99 0 1.98 0 3 0 C3 3.63 3 7.26 3 11 C3.543 10.206 4.085 9.412 4.645 8.594 C5.36 7.573 6.075 6.552 6.812 5.5 C7.52 4.479 8.228 3.458 8.957 2.406 C9.968 1.215 9.968 1.215 11 0 C11.99 0 12.98 0 14 0 C13.44 3.99 12.243 6.526 9.938 9.812 C9.116 10.998 9.116 10.998 8.277 12.207 C7.856 12.799 7.434 13.39 7 14 C7.58 13.795 8.16 13.59 8.758 13.379 C13.162 11.86 17.357 10.595 22 10 C22 11.32 22 12.64 22 14 C21.415 14.181 20.83 14.361 20.228 14.547 C17.561 15.385 14.906 16.254 12.25 17.125 C11.33 17.409 10.409 17.692 9.461 17.984 C3.431 19.995 1.173 21.563 -2 27 C-3.32 27 -4.64 27 -6 27 C-4.306 17.929 -2.144 8.972 0 0 Z " fill="#141415" transform="translate(662,174)"/>
<path d="M0 0 C0.99 0.33 1.98 0.66 3 1 C2.637 6.326 -0.345 9.206 -3.75 13 C-4.276 13.603 -4.802 14.207 -5.344 14.828 C-8.44 18.353 -11.646 21.72 -15 25 C-16.673 23.381 -18.338 21.755 -20 20.125 C-20.928 19.22 -21.856 18.315 -22.812 17.383 C-25 15 -25 15 -25 13 C-24.273 12.72 -23.546 12.441 -22.797 12.152 C-10.555 7.491 -10.555 7.491 0 0 Z " fill="#F4F4F5" transform="translate(299,420)"/>
<path d="M0 0 C1.207 0.031 1.207 0.031 2.438 0.062 C-0.152 5.031 -3.833 8.697 -7.688 12.688 C-12.9 18.154 -17.805 23.692 -22.508 29.602 C-25.319 32.968 -28.407 35.998 -31.555 39.047 C-33.332 40.831 -34.891 42.643 -36.438 44.625 C-37.139 45.429 -37.84 46.234 -38.562 47.062 C-39.553 47.062 -40.543 47.062 -41.562 47.062 C-41.188 41.998 -38.457 39.336 -35.062 35.875 C-33.962 34.719 -32.861 33.563 -31.762 32.406 C-30.945 31.555 -30.945 31.555 -30.111 30.688 C-27.986 28.457 -25.928 26.171 -23.875 23.875 C-22.806 22.682 -22.806 22.682 -21.715 21.465 C-21.005 20.672 -20.294 19.879 -19.562 19.062 C-18.021 17.354 -16.479 15.646 -14.938 13.938 C-11.549 10.174 -8.197 6.381 -4.875 2.559 C-2.688 0.066 -2.688 0.066 0 0 Z " fill="#141415" transform="translate(638.5625,267.9375)"/>
<path d="M0 0 C0.99 0.33 1.98 0.66 3 1 C1.425 4.664 -0.842 7.299 -3.5 10.25 C-4.294 11.142 -5.088 12.034 -5.906 12.953 C-8 15 -8 15 -10 15 C-10.259 15.584 -10.518 16.168 -10.785 16.77 C-12.087 19.16 -13.508 20.775 -15.438 22.688 C-16.034 23.289 -16.631 23.891 -17.246 24.512 C-19 26 -19 26 -22 27 C-24.352 25.261 -26.465 23.518 -28.625 21.562 C-29.246 21.012 -29.867 20.462 -30.506 19.895 C-31.757 18.785 -33.004 17.672 -34.248 16.555 C-35.781 15.194 -37.349 13.873 -38.922 12.559 C-39.731 11.879 -40.541 11.2 -41.375 10.5 C-42.084 9.912 -42.793 9.324 -43.523 8.719 C-45 7 -45 7 -45 3 C-40.418 3.862 -37.88 6.6 -34.625 9.75 C-33.514 10.809 -32.402 11.866 -31.289 12.922 C-30.477 13.692 -30.477 13.692 -29.649 14.479 C-27.181 16.756 -24.602 18.877 -22 21 C-16.748 16.616 -11.868 11.992 -7.062 7.125 C-6.379 6.437 -5.695 5.748 -4.99 5.039 C-3.324 3.362 -1.661 1.682 0 0 Z " fill="#141415" transform="translate(521,154)"/>
<path d="M0 0 C3.194 0.833 4.974 1.962 6.965 4.625 C8.858 9.044 8.542 14.061 7.875 18.75 C5.875 20.75 5.875 20.75 2.938 21.188 C-0.125 20.75 -0.125 20.75 -1.938 18.75 C-3.419 15.006 -3.785 11.759 -4.125 7.75 C-4.847 8.554 -5.569 9.359 -6.312 10.188 C-9.15 12.773 -10.397 13.43 -14.125 13.75 C-14.125 13.09 -14.125 12.43 -14.125 11.75 C-13.465 11.75 -12.805 11.75 -12.125 11.75 C-11.939 11.049 -11.754 10.348 -11.562 9.625 C-9.088 4.675 -5.422 1.301 0 0 Z " fill="#030303" transform="translate(508.125,474.25)"/>
<path d="M0 0 C3.727 0.643 7.045 1.681 10.562 3.062 C11.698 3.507 12.834 3.952 14.004 4.41 C19.542 6.608 25.073 8.822 30.6 11.046 C36.494 13.413 42.412 15.696 48.371 17.895 C51.093 19.039 53.508 20.422 56 22 C55.67 22.66 55.34 23.32 55 24 C49.279 23.422 44.437 21.862 39.102 19.762 C38.267 19.44 37.433 19.118 36.573 18.786 C34.815 18.106 33.059 17.422 31.304 16.736 C28.643 15.694 25.978 14.664 23.312 13.635 C21.596 12.969 19.88 12.303 18.164 11.637 C17.379 11.332 16.595 11.028 15.786 10.715 C10.454 8.626 5.215 6.366 0 4 C0 2.68 0 1.36 0 0 Z " fill="#141415" transform="translate(350,419)"/>
<path d="M0 0 C2.907 2.219 3.84 3.519 5 7 C5.394 11.117 5.57 14.77 3.812 18.562 C2 20 2 20 -0.5 20.5 C-3 20 -3 20 -4.613 18.297 C-6.216 15.642 -6.485 13.826 -6.688 10.75 C-6.753 9.858 -6.819 8.966 -6.887 8.047 C-6.943 7.034 -6.943 7.034 -7 6 C-7.598 6.495 -8.196 6.99 -8.812 7.5 C-11 9 -11 9 -14 9 C-11.797 1.789 -7.519 -1.094 0 0 Z " fill="#141415" transform="translate(556,468)"/>
<path d="M0 0 C2.375 1.5 2.375 1.5 4 4 C5.588 14.231 -0.921 22.231 -6.645 30.164 C-7.092 30.77 -7.539 31.376 -8 32 C-9.32 31.67 -10.64 31.34 -12 31 C-11.294 29.707 -10.585 28.416 -9.875 27.125 C-9.425 26.305 -8.975 25.485 -8.512 24.641 C-7.5 22.873 -6.439 21.132 -5.332 19.422 C-2.041 14.325 -0.203 11.109 -1 5 C-2.666 4.957 -4.334 4.959 -6 5 C-7.996 6.996 -7.41 10.817 -7.562 13.562 C-7.606 14.273 -7.649 14.984 -7.693 15.717 C-7.8 17.478 -7.9 19.239 -8 21 C-9.32 21 -10.64 21 -12 21 C-12.109 18.603 -12.188 16.211 -12.25 13.812 C-12.284 13.139 -12.317 12.465 -12.352 11.771 C-12.423 8.11 -12.115 6.178 -10.109 3.074 C-6.791 -0.189 -4.611 -0.461 0 0 Z " fill="#1F1E20" transform="translate(503,247)"/>
<path d="M0 0 C3 2 3 2 3.562 4.688 C2.78 9.294 0.35 11.85 -3 15 C-6.057 16.528 -8.63 16.232 -12 16 C-14.438 14.812 -14.438 14.812 -16 13 C-16.34 10.621 -16.34 10.621 -16 8 C-14.32 6.016 -14.32 6.016 -12.125 4.25 C-11.046 3.361 -11.046 3.361 -9.945 2.453 C-6.51 -0.113 -4.273 -0.262 0 0 Z " fill="#FEFEFE" transform="translate(753,359)"/>
<path d="M0 0 C3.688 0.312 3.688 0.312 6.125 2 C7.688 4.312 7.688 4.312 8.25 6.688 C7.427 10.526 5.393 12.544 2.688 15.312 C-0.833 16.486 -3.619 16.514 -7.312 16.312 C-9.312 14.312 -9.312 14.312 -9.75 10.5 C-9.684 6.874 -9.36 6.369 -6.875 3.375 C-6.029 2.694 -5.184 2.014 -4.312 1.312 C-3.312 0.312 -3.312 0.312 0 0 Z " fill="#F4F4F5" transform="translate(802.3125,398.6875)"/>
<path d="M0 0 C0.99 0.33 1.98 0.66 3 1 C2.522 5.306 0.208 7.27 -3 10 C-9.94 15.415 -18.664 14.968 -27 14 C-31.561 12.586 -35.787 11.094 -38.258 6.828 C-38.503 6.225 -38.748 5.622 -39 5 C-36.61 4.157 -35.415 3.846 -33 4.742 C-32.34 5.116 -31.68 5.49 -31 5.875 C-25.209 9.11 -19.589 9.868 -13 9 C-7.907 7.02 -3.562 4.182 0 0 Z " fill="#141415" transform="translate(557,526)"/>
<path d="M0 0 C-0.506 4.386 -3.202 6.783 -6 10 C-7.863 13.727 -7.415 17.933 -7 22 C-4.552 27.945 0.381 30.373 5.734 33.484 C6.482 33.985 7.23 34.485 8 35 C8 35.66 8 36.32 8 37 C2.622 37.827 -0.571 36.009 -4.809 32.969 C-9.022 29.184 -12.578 24.386 -13.293 18.648 C-13.255 16.763 -13.134 14.881 -13 13 C-13.66 12.34 -14.32 11.68 -15 11 C-13.68 11 -12.36 11 -11 11 C-10.938 10.464 -10.876 9.928 -10.812 9.375 C-9.083 4.319 -5.585 0 0 0 Z " fill="#141415" transform="translate(305,324)"/>
<path d="M0 0 C0.66 0 1.32 0 2 0 C2.33 0.887 2.66 1.774 3 2.688 C5.582 6.963 8.679 8.681 13 11 C12.289 17.534 4.794 22.045 0 26 C-5.239 30.127 -10.607 34.078 -16 38 C-16 33.502 -13.446 31.706 -10.5 28.48 C-7.03 25.038 -3.279 22.033 0.582 19.043 C2.8 17.169 4.381 15.394 6 13 C5.031 12.299 4.061 11.597 3.062 10.875 C0.53 8.779 0.036 8.123 -0.938 4.812 C-1 2 -1 2 0 0 Z " fill="#141415" transform="translate(589,219)"/>
<path d="M0 0 C5.292 -0.207 9.874 0.523 15 1.875 C20.665 3.3 26.197 4.378 32 5.062 C37.713 5.739 42.639 6.931 48 9 C47.67 9.99 47.34 10.98 47 12 C40.402 12.348 34.315 11.038 27.875 9.688 C26.209 9.342 26.209 9.342 24.51 8.99 C22.322 8.535 20.134 8.077 17.948 7.615 C15.483 7.101 13.016 6.612 10.543 6.141 C9.394 5.909 8.246 5.677 7.062 5.438 C6.105 5.251 5.147 5.064 4.16 4.871 C2 4 2 4 0.684 1.91 C0.458 1.28 0.232 0.649 0 0 Z " fill="#1F1E20" transform="translate(719,496)"/>
<path d="M0 0 C-0.422 7.315 -1.913 13.761 -4.25 20.688 C-4.561 21.637 -4.873 22.587 -5.194 23.565 C-6.119 26.38 -7.058 29.19 -8 32 C-8.525 33.587 -9.05 35.174 -9.574 36.762 C-10.705 40.178 -11.848 43.591 -13 47 C-14.32 47 -15.64 47 -17 47 C-15.565 40.1 -13.708 33.418 -11.625 26.688 C-11.313 25.677 -11.002 24.666 -10.681 23.624 C-10.066 21.638 -9.45 19.652 -8.831 17.667 C-8.133 15.427 -7.444 13.185 -6.758 10.941 C-6.425 9.888 -6.093 8.835 -5.75 7.75 C-5.477 6.879 -5.203 6.007 -4.922 5.109 C-4.017 3.038 -2.605 0 0 0 Z " fill="#141415" transform="translate(543,286)"/>
<path d="M0 0 C9.019 0.976 17.563 13.477 23 20 C27 25.229 27 25.229 27 28 C23.202 27.443 21.677 25.916 19.125 23.125 C14.137 17.937 8.637 13.651 2.941 9.285 C0 7 0 7 -2 5 C-1.464 1.464 -1.464 1.464 0 0 Z " fill="#F4F4F5" transform="translate(608,654)"/>
<path d="M0 0 C0.99 0 1.98 0 3 0 C3.025 0.847 3.05 1.694 3.076 2.567 C3.171 5.732 3.271 8.896 3.372 12.061 C3.415 13.426 3.457 14.792 3.497 16.157 C3.556 18.128 3.62 20.099 3.684 22.07 C3.72 23.254 3.757 24.437 3.795 25.657 C3.935 28.995 3.935 28.995 4.578 32.222 C5.1 35.657 4.288 37.818 3 41 C2.34 41 1.68 41 1 41 C-1.519 32.536 -2.445 24.812 -2.312 16 C-2.316 14.895 -2.319 13.791 -2.322 12.652 C-2.263 3.829 -2.263 3.829 0 0 Z " fill="#EBECEC" transform="translate(649,625)"/>
<path d="M0 0 C0.33 0 0.66 0 1 0 C1.719 4.571 2.431 9.142 3.136 13.715 C3.377 15.268 3.619 16.82 3.864 18.373 C4.216 20.614 4.562 22.856 4.906 25.098 C5.07 26.126 5.07 26.126 5.238 27.176 C5.891 31.487 6.099 35.642 6 40 C4.68 40 3.36 40 2 40 C-3.44 11.738 -3.44 11.738 0 0 Z " fill="#141415" transform="translate(493,297)"/>
<path d="M0 0 C5.905 0.902 11.726 2.178 17.562 3.438 C18.591 3.655 19.619 3.872 20.678 4.096 C21.672 4.31 22.667 4.525 23.691 4.746 C24.591 4.939 25.49 5.131 26.416 5.33 C29.058 6.015 31.491 6.933 34 8 C34 8.99 34 9.98 34 11 C27.1 11.469 20.848 9.73 14.188 8.062 C12.471 7.646 12.471 7.646 10.721 7.221 C2.316 5.158 2.316 5.158 0 4 C0 2.68 0 1.36 0 0 Z " fill="#1F1E20" transform="translate(749,467)"/>
<path d="M0 0 C4.251 2.007 5.693 4.121 7.844 8.223 C11.056 13.16 16.482 15.52 22 17 C22 17.66 22 18.32 22 19 C24.434 20.217 26.418 20.32 29.125 20.562 C30.035 20.646 30.945 20.73 31.883 20.816 C32.581 20.877 33.28 20.938 34 21 C34 21.33 34 21.66 34 22 C23.631 22.585 15.453 21.769 7.125 15.188 C3.206 11.518 0.218 7.563 -0.25 2.062 C-0.168 1.382 -0.085 0.701 0 0 Z " fill="#141415" transform="translate(721,294)"/>
<path d="M0 0 C-0.977 5.687 -5.328 9.834 -9.691 13.371 C-14.604 16.733 -18.328 17.116 -24.188 17.062 C-25.46 17.053 -26.732 17.044 -28.043 17.035 C-29.507 17.018 -29.507 17.018 -31 17 C-31 16.01 -31 15.02 -31 14 C-30.417 13.997 -29.835 13.995 -29.234 13.992 C-21.444 13.625 -12.882 11.266 -7.457 5.305 C-6.576 3.907 -5.779 2.457 -5 1 C-2 0 -2 0 0 0 Z " fill="#141415" transform="translate(774,298)"/>
<path d="M0 0 C11.664 0.189 21.895 2.553 33 6 C33 6.99 33 7.98 33 9 C25.508 8.701 18.221 7.629 10.875 6.188 C10.033 6.034 9.192 5.881 8.325 5.724 C7.535 5.561 6.744 5.398 5.93 5.23 C5.221 5.09 4.511 4.95 3.781 4.805 C1.386 3.722 0.937 2.389 0 0 Z " fill="#141415" transform="translate(742,484)"/>
<path d="M0 0 C0.99 0 1.98 0 3 0 C3 0.99 3 1.98 3 3 C3.99 3 4.98 3 6 3 C7.74 6.694 9.436 10.407 11.125 14.125 C11.619 15.172 12.112 16.218 12.621 17.297 C13.079 18.315 13.536 19.334 14.008 20.383 C14.652 21.781 14.652 21.781 15.309 23.208 C16.185 26.746 15.402 28.697 14 32 C11.302 27.953 9.483 23.619 7.5 19.188 C7.097 18.297 6.693 17.407 6.277 16.49 C2.113 7.22 2.113 7.22 1 3 C1.33 2.34 1.66 1.68 2 1 C1.34 0.67 0.68 0.34 0 0 Z " fill="#1F1E20" transform="translate(574,191)"/>
<path d="M0 0 C0.99 0 1.98 0 3 0 C3.014 0.58 3.028 1.16 3.043 1.758 C3.324 6.357 3.786 10.434 7.059 13.98 C11.528 16.328 17.113 15.386 22 15 C21.01 16.485 21.01 16.485 20 18 C20 18.66 20 19.32 20 20 C9.678 20.915 9.678 20.915 5.68 18.734 C3.279 16.665 1.423 14.846 0 12 C-0.071 9.959 -0.084 7.917 -0.062 5.875 C-0.053 4.779 -0.044 3.684 -0.035 2.555 C-0.024 1.712 -0.012 0.869 0 0 Z " fill="#141415" transform="translate(324,513)"/>
<path d="M0 0 C1.32 0 2.64 0 4 0 C3.843 0.559 3.685 1.119 3.523 1.695 C2.468 6.343 1.85 11.527 3.906 15.949 C6.096 18.848 7.814 19.951 11.312 20.875 C12.199 20.916 13.086 20.957 14 21 C14 21.66 14 22.32 14 23 C7.942 23.418 4.81 23.123 0 19 C-2.171 15.67 -2.269 12.864 -2.25 8.938 C-2.255 7.895 -2.26 6.852 -2.266 5.777 C-2 3 -2 3 0 0 Z " fill="#1F1E20" transform="translate(295,544)"/>
<path d="M0 0 C0.66 0 1.32 0 2 0 C2.029 4.229 2.047 8.458 2.062 12.688 C2.071 13.886 2.079 15.084 2.088 16.318 C2.091 17.475 2.094 18.632 2.098 19.824 C2.103 20.887 2.108 21.95 2.114 23.046 C1.955 27.181 1.035 31.009 0 35 C-2.215 28.759 -2.3 22.958 -2.25 16.375 C-2.258 15.351 -2.265 14.328 -2.273 13.273 C-2.271 12.283 -2.268 11.293 -2.266 10.273 C-2.263 9.381 -2.261 8.488 -2.259 7.568 C-1.974 4.745 -1.166 2.574 0 0 Z " fill="#141415" transform="translate(236,301)"/>
<path d="M0 0 C4.261 1.678 5.209 5.107 7.02 9.129 C7.379 9.888 7.738 10.646 8.107 11.428 C8.99 13.3 9.851 15.182 10.707 17.066 C7.76 15.689 5.237 14.092 2.645 12.129 C1.973 11.625 1.301 11.121 0.609 10.602 C-1.174 9.162 -2.817 7.822 -4.293 6.066 C-3.725 0.108 -3.725 0.108 0 0 Z " fill="#F4F4F5" transform="translate(470.29296875,255.93359375)"/>
<path d="M0 0 C-0.639 0.289 -1.279 0.577 -1.938 0.875 C-4.152 1.828 -4.152 1.828 -5 4 C-4.01 4.33 -3.02 4.66 -2 5 C-3.64 5.371 -3.64 5.371 -5.312 5.75 C-9.895 6.871 -14.206 8.546 -18.582 10.293 C-21 11 -21 11 -24 10 C-24.33 9.01 -24.66 8.02 -25 7 C-21.401 5.631 -17.795 4.282 -14.188 2.938 C-12.651 2.353 -12.651 2.353 -11.084 1.756 C-10.101 1.392 -9.118 1.028 -8.105 0.652 C-6.747 0.142 -6.747 0.142 -5.36 -0.379 C-3 -1 -3 -1 0 0 Z " fill="#1F1E20" transform="translate(658,392)"/>
<path d="M0 0 C1.32 0 2.64 0 4 0 C4 7.26 4 14.52 4 22 C2.68 22 1.36 22 0 22 C0 14.74 0 7.48 0 0 Z " fill="#1F1E20" transform="translate(498,141)"/>
<path d="M0 0 C0.99 0 1.98 0 3 0 C2.836 0.722 2.671 1.443 2.502 2.187 C2.02 4.89 1.914 7.273 1.973 10.012 C1.985 10.934 1.997 11.856 2.01 12.807 C2.045 14.739 2.084 16.671 2.127 18.604 C2.138 19.522 2.149 20.44 2.16 21.387 C2.177 22.224 2.194 23.062 2.211 23.925 C2 26 2 26 0 28 C-2.389 19.64 -2.19 11.613 -2 3 C-1.34 3 -0.68 3 0 3 C0 2.01 0 1.02 0 0 Z " fill="#141415" transform="translate(491,278)"/>
<path d="M0 0 C4.423 1.352 6.516 3.097 9 7 C9.75 10.312 9.75 10.312 10 13 C9.34 12.34 8.68 11.68 8 11 C7.67 19.91 7.34 28.82 7 38 C6.67 38 6.34 38 6 38 C5.996 37.178 5.992 36.356 5.988 35.509 C5.955 31.776 5.884 28.045 5.812 24.312 C5.807 23.019 5.801 21.725 5.795 20.393 C5.766 19.145 5.737 17.898 5.707 16.613 C5.683 14.893 5.683 14.893 5.659 13.138 C4.815 9.119 3.021 7.68 0 5 C-0.875 2.75 -0.875 2.75 -1 1 C-0.67 0.67 -0.34 0.34 0 0 Z " fill="#39383A" transform="translate(349,452)"/>
<path d="M0 0 C3.438 0.188 3.438 0.188 4.438 1.188 C4.884 4.495 4.708 5.806 2.75 8.562 C0.438 10.188 0.438 10.188 -2.25 10 C-4.562 9.188 -4.562 9.188 -5.562 8.188 C-5.75 5.25 -5.75 5.25 -5.562 2.188 C-3.562 0.188 -3.562 0.188 0 0 Z " fill="#F4F4F5" transform="translate(661.5625,241.8125)"/>
<path d="M0 0 C3.184 2.309 4.765 3.617 5.438 7.57 C5.558 13.107 5.089 17.238 2 22 C-0.393 18.41 -0.184 16.867 -0.062 12.625 C0.046 8.533 -0.179 4.998 -1 1 C-0.67 0.67 -0.34 0.34 0 0 Z " fill="#1F1E20" transform="translate(242,375)"/>
<path d="M0 0 C0 1.65 0 3.3 0 5 C-1.609 5.093 -1.609 5.093 -3.25 5.188 C-7.686 6.149 -8.492 7.377 -11 11 C-11.66 11 -12.32 11 -13 11 C-13.66 11.99 -14.32 12.98 -15 14 C-14.524 9.002 -13.126 5.929 -10 2 C-6.785 -0.357 -3.903 -0.177 0 0 Z " fill="#1F1E20" transform="translate(349,451)"/>
<path d="M0 0 C0.99 0.99 1.98 1.98 3 3 C2.67 3.33 2.34 3.66 2 4 C1.763 6.526 1.578 9.031 1.438 11.562 C1.394 12.273 1.351 12.984 1.307 13.717 C1.2 15.478 1.1 17.239 1 19 C-0.32 19 -1.64 19 -3 19 C-3.081 16.583 -3.141 14.168 -3.188 11.75 C-3.213 11.068 -3.238 10.386 -3.264 9.684 C-3.311 6.408 -3.211 4.347 -1.488 1.516 C-0.997 1.015 -0.506 0.515 0 0 Z " fill="#39383A" transform="translate(494,249)"/>
<path d="M0 0 C-0.66 0.66 -1.32 1.32 -2 2 C-2.99 3.485 -2.99 3.485 -4 5 C-6.912 6.089 -9.665 6.108 -12.75 6.062 C-13.549 6.053 -14.348 6.044 -15.172 6.035 C-15.775 6.024 -16.378 6.012 -17 6 C-17 4.68 -17 3.36 -17 2 C-14.92 1.468 -12.835 0.95 -10.75 0.438 C-9.59 0.147 -8.43 -0.143 -7.234 -0.441 C-4.279 -0.952 -2.756 -1.03 0 0 Z " fill="#1F1E20" transform="translate(387,285)"/>
<path d="M0 0 C0.33 1.32 0.66 2.64 1 4 C1.66 4 2.32 4 3 4 C2.537 8.719 2.003 12.246 -1 16 C-3.688 17.312 -3.688 17.312 -6 18 C-6.66 17.34 -7.32 16.68 -8 16 C-7.34 15.34 -6.68 14.68 -6 14 C-3.505 11.049 -2.339 8.466 -1.312 4.75 C-1.061 3.858 -0.81 2.966 -0.551 2.047 C-0.369 1.371 -0.187 0.696 0 0 Z " fill="#141415" transform="translate(350,514)"/>
<path d="M0 0 C3.356 0.62 5.523 1.845 8.25 3.875 C8.956 4.388 9.663 4.901 10.391 5.43 C10.922 5.948 11.453 6.466 12 7 C12 7.99 12 8.98 12 10 C11.01 10.33 10.02 10.66 9 11 C7.027 9.891 7.027 9.891 4.938 8.25 C4.245 7.719 3.553 7.188 2.84 6.641 C1 5 1 5 -1 2 C-0.67 1.34 -0.34 0.68 0 0 Z " fill="#141415" transform="translate(620,334)"/>
<path d="M0 0 C1.018 5.016 1.119 9.786 1.062 14.875 C1.058 15.659 1.053 16.442 1.049 17.25 C1.037 19.167 1.019 21.083 1 23 C0.67 23 0.34 23 0 23 C0 19.37 0 15.74 0 12 C-0.66 12 -1.32 12 -2 12 C-2.33 12.66 -2.66 13.32 -3 14 C-3.33 9.71 -3.66 5.42 -4 1 C-2 0 -2 0 0 0 Z " fill="#39383A" transform="translate(289,302)"/>
<path d="M0 0 C2.375 1.688 2.375 1.688 4 4 C4.438 6.625 4.438 6.625 4 9 C3.01 9.66 2.02 10.32 1 11 C0.814 10.051 0.629 9.103 0.438 8.125 C-0.734 4.616 -0.734 4.616 -4.625 3.625 C-5.739 3.419 -6.853 3.213 -8 3 C-8 2.34 -8 1.68 -8 1 C-5.159 -0.42 -3.145 -0.315 0 0 Z " fill="#141415" transform="translate(503,247)"/>
<path d="M0 0 C1.394 0.615 1.394 0.615 2.816 1.242 C4.065 1.787 5.314 2.331 6.562 2.875 C7.172 3.144 7.781 3.414 8.408 3.691 C12.545 5.486 16.64 6.844 21 8 C21 8.66 21 9.32 21 10 C12.054 9.586 5.765 6.92 -1 1 C-0.67 0.67 -0.34 0.34 0 0 Z " fill="#DADADA" transform="translate(545,253)"/>
<path d="M0 0 C1.94 0.256 3.877 0.53 5.812 0.812 C7.431 1.039 7.431 1.039 9.082 1.27 C12.064 2.016 13.142 2.621 15 5 C14.67 5.33 14.34 5.66 14 6 C11.855 5.949 11.855 5.949 9.188 5.688 C8.315 5.609 7.442 5.53 6.543 5.449 C4.014 5.002 2.218 4.267 0 3 C0 2.01 0 1.02 0 0 Z " fill="#1F1E20" transform="translate(725,480)"/>
<path d="M0 0 C1.959 0.309 3.917 0.622 5.875 0.938 C6.966 1.112 8.056 1.286 9.18 1.465 C12 2 12 2 14 3 C14 3.99 14 4.98 14 6 C8.346 6.346 4.97 5.434 0 3 C0 2.01 0 1.02 0 0 Z " fill="#141415" transform="translate(730,463)"/>
<path d="M0 0 C2.051 0.033 4.102 0.065 6.152 0.098 C6.152 0.758 6.152 1.418 6.152 2.098 C5.162 2.098 4.172 2.098 3.152 2.098 C3.152 2.758 3.152 3.418 3.152 4.098 C-0.808 5.088 -4.768 6.078 -8.848 7.098 C-8.848 6.108 -8.848 5.118 -8.848 4.098 C-7.878 3.623 -6.909 3.149 -5.91 2.66 C-0.777 0.041 -0.777 0.041 0 0 Z " fill="#141415" transform="translate(745.84765625,445.90234375)"/>
<path d="M0 0 C2.64 0 5.28 0 8 0 C6.665 3.594 5.04 6.755 3 10 C-0.006 6.994 0.404 4.176 0 0 Z " fill="#DADADA" transform="translate(571,820)"/>
<path d="M0 0 C0.33 0 0.66 0 1 0 C1.66 5.94 2.32 11.88 3 18 C2.34 17.67 1.68 17.34 1 17 C0.67 18.98 0.34 20.96 0 23 C-0.33 23 -0.66 23 -1 23 C-1.856 14.868 -2.313 7.892 0 0 Z " fill="#2F2C30" transform="translate(493,297)"/>
<path d="M0 0 C1.32 0.66 2.64 1.32 4 2 C0.853 5.268 -2.494 8.131 -6 11 C-6.99 10.34 -7.98 9.68 -9 9 C-6.21 5.513 -3.748 2.498 0 0 Z " fill="#1F1E20" transform="translate(230,458)"/>
<path d="M0 0 C1.65 0 3.3 0 5 0 C5.671 1.623 6.337 3.249 7 4.875 C7.557 6.232 7.557 6.232 8.125 7.617 C9 10 9 10 9 12 C7.35 11.67 5.7 11.34 4 11 C3.711 10.113 3.423 9.226 3.125 8.312 C2.169 5.496 1.132 2.749 0 0 Z " fill="#141415" transform="translate(476,263)"/>
<path d="M0 0 C0.99 0.402 0.99 0.402 2 0.812 C2.99 1.204 3.98 1.596 5 2 C5.628 2.253 6.256 2.505 6.902 2.766 C10.929 4.342 14.678 5.46 19 6 C19 6.66 19 7.32 19 8 C11.189 8.756 6.155 6.96 0 2 C0 1.34 0 0.68 0 0 Z " fill="#DADADA" transform="translate(544,260)"/>
<path d="M0 0 C0.66 0.33 1.32 0.66 2 1 C0.75 4.653 0.329 5.781 -3 8 C-3.66 7.67 -4.32 7.34 -5 7 C-5.66 11.29 -6.32 15.58 -7 20 C-7.33 20 -7.66 20 -8 20 C-8.861 9.422 -8.861 9.422 -5.688 4.938 C-3 2 -3 2 0 0 Z " fill="#2F2C30" transform="translate(560,210)"/>
<path d="M0 0 C0.99 0.33 1.98 0.66 3 1 C2.361 1.887 1.721 2.774 1.062 3.688 C-0.808 6.692 -1.594 8.551 -2 12 C-2.33 11.01 -2.66 10.02 -3 9 C-3.99 9.33 -4.98 9.66 -6 10 C-5.733 6.089 -5.408 4.419 -2.625 1.562 C-1.759 1.047 -0.892 0.531 0 0 Z " fill="#1F1E20" transform="translate(302,473)"/>
<path d="M0 0 C-0.99 0.66 -1.98 1.32 -3 2 C-2.67 2.66 -2.34 3.32 -2 4 C-5.3 4.66 -8.6 5.32 -12 6 C-11.67 4.68 -11.34 3.36 -11 2 C-4.071 -1.791 -4.071 -1.791 0 0 Z " fill="#141415" transform="translate(621,406)"/>
<path d="M0 0 C-4.854 3.071 -8.218 4.306 -14 5 C-14.33 5.66 -14.66 6.32 -15 7 C-15.33 5.68 -15.66 4.36 -16 3 C-4.596 -1.838 -4.596 -1.838 0 0 Z " fill="#2F2C30" transform="translate(566,842)"/>
<path d="M0 0 C-0.33 0.99 -0.66 1.98 -1 3 C-5.29 3 -9.58 3 -14 3 C-14 2.01 -14 1.02 -14 0 C-12.418 -0.196 -10.834 -0.382 -9.25 -0.562 C-8.368 -0.667 -7.487 -0.771 -6.578 -0.879 C-4.116 -0.995 -2.335 -0.736 0 0 Z " fill="#030303" transform="translate(757,312)"/>
<path d="M0 0 C1.671 0.062 1.671 0.062 3.375 0.125 C3.705 1.445 4.035 2.765 4.375 4.125 C3.488 4.084 2.601 4.043 1.688 4 C-1.598 4.124 -3.679 4.739 -6.625 6.125 C-5.716 1.579 -4.952 0.171 0 0 Z " fill="#1F1E20" transform="translate(455.625,491.875)"/>
<path d="M0 0 C4.455 0.99 4.455 0.99 9 2 C9.33 3.32 9.66 4.64 10 6 C7.03 6 4.06 6 1 6 C0.67 4.02 0.34 2.04 0 0 Z " fill="#1F1E20" transform="translate(793,413)"/>
<path d="M0 0 C0.33 0 0.66 0 1 0 C1.33 4.29 1.66 8.58 2 13 C0.68 13 -0.64 13 -2 13 C-2.33 10.69 -2.66 8.38 -3 6 C-2.34 6 -1.68 6 -1 6 C-0.67 4.02 -0.34 2.04 0 0 Z " fill="#39383A" transform="translate(497,324)"/>
<path d="M0 0 C1.65 0 3.3 0 5 0 C5 0.66 5 1.32 5 2 C7.434 3.217 9.418 3.32 12.125 3.562 C13.035 3.646 13.945 3.73 14.883 3.816 C15.581 3.877 16.28 3.938 17 4 C17 4.33 17 4.66 17 5 C14.917 5.054 12.834 5.093 10.75 5.125 C9.01 5.16 9.01 5.16 7.234 5.195 C4.172 5.01 2.558 4.608 0 3 C0 2.01 0 1.02 0 0 Z " fill="#2F2C30" transform="translate(738,311)"/>
<path d="M0 0 C0.66 1.32 1.32 2.64 2 4 C-0.97 4 -3.94 4 -7 4 C-7 2.68 -7 1.36 -7 0 C-3.874 -1.042 -2.953 -1.238 0 0 Z " fill="#39383A" transform="translate(377,287)"/>
<path d="M0 0 C0 3.96 0 7.92 0 12 C-0.99 12 -1.98 12 -3 12 C-3 8.37 -3 4.74 -3 1 C-1 0 -1 0 0 0 Z " fill="#141415" transform="translate(494,256)"/>
<path d="M0 0 C-0.33 0.66 -0.66 1.32 -1 2 C-3.314 2.731 -5.648 3.401 -8 4 C-8.66 2.68 -9.32 1.36 -10 0 C-6.306 -1.231 -3.794 -0.644 0 0 Z " fill="#1F1E20" transform="translate(643,399)"/>
<path d="M0 0 C-0.639 0.289 -1.279 0.577 -1.938 0.875 C-4.152 1.828 -4.152 1.828 -5 4 C-4.01 4.33 -3.02 4.66 -2 5 C-4.31 5.33 -6.62 5.66 -9 6 C-9 5.01 -9 4.02 -9 3 C-9.66 2.67 -10.32 2.34 -11 2 C-9.734 1.468 -8.462 0.95 -7.188 0.438 C-6.48 0.147 -5.772 -0.143 -5.043 -0.441 C-3 -1 -3 -1 0 0 Z " fill="#2F2C30" transform="translate(658,392)"/>
<path d="M0 0 C-0.33 0.99 -0.66 1.98 -1 3 C-5.455 3.495 -5.455 3.495 -10 4 C-9.67 3.01 -9.34 2.02 -9 1 C-6.043 -0.478 -3.258 -0.06 0 0 Z " fill="#030303" transform="translate(332,471)"/>
<path d="M0 0 C1.98 0.495 1.98 0.495 4 1 C3.67 2.65 3.34 4.3 3 6 C1.68 5.67 0.36 5.34 -1 5 C-0.67 3.35 -0.34 1.7 0 0 Z " fill="#2F2C30" transform="translate(203,360)"/>
<path d="M0 0 C1.32 0.66 2.64 1.32 4 2 C3.67 3.32 3.34 4.64 3 6 C1.68 5.67 0.36 5.34 -1 5 C-1 1 -1 1 0 0 Z " fill="#1F1E20" transform="translate(250,317)"/>
<path d="M0 0 C1.98 0.495 1.98 0.495 4 1 C3.67 2.65 3.34 4.3 3 6 C1.68 5.67 0.36 5.34 -1 5 C-0.67 3.35 -0.34 1.7 0 0 Z " fill="#1F1E20" transform="translate(262,316)"/>
<path d="M0 0 C0.99 0.33 1.98 0.66 3 1 C2.67 2.65 2.34 4.3 2 6 C0.68 5.67 -0.64 5.34 -2 5 C-1.125 1.125 -1.125 1.125 0 0 Z " fill="#1F1E20" transform="translate(230,358)"/>
<path d="M0 0 C1.65 0 3.3 0 5 0 C4.67 1.65 4.34 3.3 4 5 C2.68 5 1.36 5 0 5 C0 3.35 0 1.7 0 0 Z " fill="#1F1E20" transform="translate(273,315)"/>
<path d="M0 0 C-0.99 0.66 -1.98 1.32 -3 2 C-2.67 2.66 -2.34 3.32 -2 4 C-4.31 4 -6.62 4 -9 4 C-8 1 -8 1 -6.188 -0.25 C-3.661 -1.116 -2.478 -0.885 0 0 Z " fill="#2F2C30" transform="translate(251,296)"/>
<path d="M0 0 C0.99 0.33 1.98 0.66 3 1 C3 3.31 3 5.62 3 8 C2.01 8.33 1.02 8.66 0 9 C0 6.03 0 3.06 0 0 Z " fill="#030303" transform="translate(720,284)"/>
<path d="M0 0 C0.33 0 0.66 0 1 0 C1 4.29 1 8.58 1 13 C-0.98 13.99 -0.98 13.99 -3 15 C-2.67 13.35 -2.34 11.7 -2 10 C-1.34 10 -0.68 10 0 10 C0 6.7 0 3.4 0 0 Z " fill="#4A494D" transform="translate(723,282)"/>
<path d="M0 0 C2.64 0 5.28 0 8 0 C8 0.66 8 1.32 8 2 C7.01 2 6.02 2 5 2 C5 2.66 5 3.32 5 4 C3.062 3.688 3.062 3.688 1 3 C0.67 2.01 0.34 1.02 0 0 Z " fill="#030303" transform="translate(744,446)"/>
<path d="M0 0 C1.65 0 3.3 0 5 0 C5 1.32 5 2.64 5 4 C3.35 4 1.7 4 0 4 C0 2.68 0 1.36 0 0 Z " fill="#141415" transform="translate(262,267)"/>
<path d="M0 0 C0.66 0 1.32 0 2 0 C3.188 3.25 3.188 3.25 4 7 C2.625 9.438 2.625 9.438 1 11 C0.67 9.68 0.34 8.36 0 7 C0.66 7 1.32 7 2 7 C2 6.01 2 5.02 2 4 C1.01 3.67 0.02 3.34 -1 3 C-0.67 2.01 -0.34 1.02 0 0 Z " fill="#1F1E20" transform="translate(586,212)"/>
<path d="M0 0 C0.33 1.32 0.66 2.64 1 4 C1.66 4 2.32 4 3 4 C2.67 6.31 2.34 8.62 2 11 C0.438 9.438 0.438 9.438 -1 7 C-0.688 3.25 -0.688 3.25 0 0 Z " fill="#39383A" transform="translate(350,514)"/>
<path d="M0 0 C0.66 0 1.32 0 2 0 C2.33 1.32 2.66 2.64 3 4 C0.475 5.262 -1.312 5.099 -4.125 5.062 C-5.035 5.053 -5.945 5.044 -6.883 5.035 C-7.581 5.024 -8.28 5.012 -9 5 C-9 4.67 -9 4.34 -9 4 C-6.36 3.67 -3.72 3.34 -1 3 C-0.67 2.01 -0.34 1.02 0 0 Z " fill="#2F2C30" transform="translate(690,404)"/>
<path d="M0 0 C0.99 0.33 1.98 0.66 3 1 C2.67 2.65 2.34 4.3 2 6 C1.01 6 0.02 6 -1 6 C-1.043 4.334 -1.041 2.666 -1 1 C-0.67 0.67 -0.34 0.34 0 0 Z " fill="#030303" transform="translate(217,353)"/>
<path d="M0 0 C0.33 0 0.66 0 1 0 C1 2.64 1 5.28 1 8 C-0.65 8.33 -2.3 8.66 -4 9 C-3.67 7.02 -3.34 5.04 -3 3 C-2.01 4.485 -2.01 4.485 -1 6 C-0.67 4.02 -0.34 2.04 0 0 Z " fill="#030303" transform="translate(402,379)"/>
<path d="M0 0 C0.99 0 1.98 0 3 0 C2.67 1.65 2.34 3.3 2 5 C1.01 5 0.02 5 -1 5 C-1.99 5.66 -2.98 6.32 -4 7 C-2.796 4.506 -1.546 2.319 0 0 Z " fill="#1F1E20" transform="translate(673,174)"/>
<path d="M0 0 C1.98 0 3.96 0 6 0 C6 0.99 6 1.98 6 3 C4.02 3 2.04 3 0 3 C0 2.01 0 1.02 0 0 Z " fill="#030303" transform="translate(306,538)"/>
<path d="M0 0 C0.66 0 1.32 0 2 0 C2 0.66 2 1.32 2 2 C2.99 1.67 3.98 1.34 5 1 C5.33 1.66 5.66 2.32 6 3 C3.03 3.66 0.06 4.32 -3 5 C-1.625 2.5 -1.625 2.5 0 0 Z " fill="#141415" transform="translate(620,404)"/>
<path d="M0 0 C0.33 0.66 0.66 1.32 1 2 C-3.455 2.495 -3.455 2.495 -8 3 C-8 2.34 -8 1.68 -8 1 C-3.375 -1.125 -3.375 -1.125 0 0 Z " fill="#BEBFC0" transform="translate(668,393)"/>
<path d="M0 0 C-1.312 2 -1.312 2 -3 4 C-3.99 4 -4.98 4 -6 4 C-6 2.68 -6 1.36 -6 0 C-3 -1 -3 -1 0 0 Z " fill="#030303" transform="translate(390,285)"/>
<path d="M0 0 C0.66 0 1.32 0 2 0 C1.719 1.481 1.425 2.96 1.125 4.438 C0.963 5.261 0.8 6.085 0.633 6.934 C0.32 7.956 0.32 7.956 0 9 C-0.99 9.495 -0.99 9.495 -2 10 C-2.179 6.053 -2.094 3.402 0 0 Z " fill="#030303" transform="translate(555,217)"/>
<path d="M0 0 C1.454 0.031 1.454 0.031 2.938 0.062 C2.938 0.722 2.938 1.383 2.938 2.062 C2.133 2.186 1.329 2.31 0.5 2.438 C-0.768 2.747 -0.768 2.747 -2.062 3.062 C-2.393 3.722 -2.722 4.383 -3.062 5.062 C-3.625 3.125 -3.625 3.125 -4.062 1.062 C-3.062 0.062 -3.062 0.062 0 0 Z " fill="#1F1E20" transform="translate(554.0625,843.9375)"/>
<path d="M0 0 C0.33 0 0.66 0 1 0 C1 1.65 1 3.3 1 5 C-0.98 5.99 -0.98 5.99 -3 7 C-2.25 2.25 -2.25 2.25 0 0 Z " fill="#030303" transform="translate(547,270)"/>
<path d="M0 0 C-0.99 0.66 -1.98 1.32 -3 2 C-2.67 2.66 -2.34 3.32 -2 4 C-3.65 3.67 -5.3 3.34 -7 3 C-7 2.01 -7 1.02 -7 0 C-3.867 -1.044 -3.01 -0.934 0 0 Z " fill="#2F2C30" transform="translate(621,406)"/>
<path d="M0 0 C2 3 2 3 2 7 C1.01 7.33 0.02 7.66 -1 8 C-1.125 2.25 -1.125 2.25 0 0 Z " fill="#030303" transform="translate(494,312)"/>
<path d="M0 0 C0.66 0 1.32 0 2 0 C2.33 1.98 2.66 3.96 3 6 C1.68 5.34 0.36 4.68 -1 4 C-0.67 2.68 -0.34 1.36 0 0 Z " fill="#1F1E20" transform="translate(359,285)"/>
<path d="M0 0 C1.65 0 3.3 0 5 0 C5.33 1.32 5.66 2.64 6 4 C4.68 4.33 3.36 4.66 2 5 C1.34 3.35 0.68 1.7 0 0 Z " fill="#1F1E20" transform="translate(476,263)"/>
</svg>