<svg version="1.1" xmlns="http://www.w3.org/2000/svg" style="display: block;" viewBox="0 0 2048 2048" width="1024" height="1024">
<path transform="translate(0,0)" fill="rgb(254,254,254)" d="M 0 0 L 2048 0 L 2048 2048 L 0 2048 L 0 0 z"/>
<path transform="translate(0,0)" fill="rgb(0,0,0)" d="M 1529.51 89.4509 C 1547.49 88.9893 1649.82 86.8218 1658.56 90.2152 C 1660.25 92.0771 1661.06 93.3846 1661.33 95.9363 C 1662.27 105.029 1661.84 114.665 1662.1 123.823 A 1956.77 1956.77 0 0 0 1664.12 171.746 A 4947.83 4947.83 0 0 1 1669.13 276.762 C 1671.01 345.148 1671.17 413.213 1675.54 481.517 C 1675.9 487.124 1677.27 494.695 1672.79 498.897 C 1669.87 501.637 1662.95 501.257 1659.11 501.308 C 1618.45 501.853 1577.94 505.23 1537.31 505.901 C 1475.12 506.929 1412.9 505.174 1350.7 506.275 C 1307.83 507.033 1264.85 507.736 1222 509.27 C 1199.33 510.083 1176.69 511.797 1154 512.499 L 859.63 520.511 C 801.353 522.332 743.221 527.271 685.001 530.295 A 9076.94 9076.94 0 0 1 561.199 535.143 L 410.37 541.166 C 393.356 542.417 291.475 548.034 281.893 543.93 C 280.711 540.933 280.069 538.197 279.739 534.986 C 277.779 515.926 278.274 493.136 277.418 473.609 C 274.666 410.759 273.651 348.187 272.506 285.31 A 4124.19 4124.19 0 0 0 269.858 186.793 C 269.024 168.233 266.757 149.303 266.904 130.766 C 266.947 125.277 266.865 122.484 270.444 118.093 C 284.354 112.807 340.775 115.605 359.737 115.346 A 10024.9 10024.9 0 0 1 516.09 113.085 C 563.826 112.89 611.716 113.833 659.43 112.855 L 1336.67 98.6284 C 1371.51 97.602 1406.28 94.6944 1441.08 92.7222 A 3095.98 3095.98 0 0 1 1529.51 89.4509 z"/>
<path transform="translate(0,0)" fill="rgb(254,254,254)" d="M 726.099 352.759 C 731.954 353.408 735.765 355.729 739.806 359.91 C 745 365.283 748 370.597 747.948 378.14 C 741.287 378.785 735.603 370.703 727.265 372.836 C 725.681 374.589 724.981 375.433 725.083 378.009 C 725.382 385.606 741.801 390.31 746.834 395.797 C 748.347 400.616 743.468 407.25 742.357 412.141 C 741.621 415.385 742.172 418.214 744.086 420.973 C 746.669 424.698 751.435 426.19 755.692 426.542 C 757.793 433.585 758.841 440.99 760.131 448.22 C 747.066 442.247 737.379 431.875 729.317 420.169 C 720.28 407.046 711.156 384.84 714.593 368.748 C 716.185 361.293 719.85 356.828 726.099 352.759 z"/>
<path transform="translate(0,0)" fill="rgb(254,254,254)" d="M 1204.34 337.093 C 1206.75 336.919 1209.32 336.622 1211.72 336.924 C 1215.37 337.385 1218.49 339.779 1220.45 342.795 C 1225.76 350.959 1223.25 364.062 1221.32 373.077 C 1215.2 401.636 1202.32 427.738 1177.45 443.995 C 1177.81 437.271 1178.6 430.581 1179.3 423.887 C 1184.04 419.595 1188.48 415.207 1192.8 410.508 C 1194.81 408.093 1197.07 405.601 1198.04 402.553 C 1198.96 399.646 1198.32 397.793 1196.89 395.25 C 1195.27 394.398 1194.17 393.881 1192.27 393.981 C 1187.17 394.247 1183.89 398.525 1180.56 401.891 C 1181.33 383.445 1190.91 377.805 1204.44 367.323 C 1207.11 365.257 1210.44 363.095 1212.32 360.263 C 1213.9 357.871 1213.65 356.731 1213.04 354.05 C 1211.2 352.326 1210.58 351.59 1207.85 351.691 C 1198.31 352.042 1188.77 361.09 1182.33 367.326 C 1183.47 363.072 1184.55 358.551 1186.22 354.464 C 1189.94 345.346 1195.64 341.044 1204.34 337.093 z"/>
<path transform="translate(0,0)" fill="rgb(254,254,254)" d="M 1055.76 468.634 C 1058.96 468.18 1062.1 467.399 1065.26 468.385 L 1064.91 469.921 C 1063.64 471.047 1064.08 470.507 1063.18 471.89 C 1058.03 479.856 1052.13 487.326 1046.42 494.897 C 1006.52 495.199 965.618 503.821 925.951 495.658 C 921.567 488.795 917.37 481.905 913.409 474.789 A 1425.37 1425.37 0 0 0 1055.76 468.634 z"/>
<path transform="translate(0,0)" fill="rgb(254,254,254)" d="M 1090.08 196.196 C 1098.27 195.53 1107.23 196.47 1115.08 198.981 C 1130.54 203.927 1143.57 215.996 1150.97 230.34 C 1157.16 242.327 1161.64 257.815 1163.65 271.137 C 1170.64 317.593 1167.14 455.083 1154.08 496.9 C 1123.24 498.94 1092.09 499.047 1061.19 499.82 C 1069.43 489.388 1080.48 476.615 1084.67 463.953 C 1086.05 459.758 1086.45 456.572 1084.34 452.517 C 1079.98 450.44 1008.98 457.312 995.86 457.93 C 979.643 458.695 902.551 458.379 895.004 462.103 C 893.588 462.802 893.092 463.391 892.797 464.927 C 890.696 475.856 905.821 494.342 911.927 503.165 C 907.383 503.65 902.777 503.765 898.213 503.999 C 862.333 504.835 825.428 504.754 789.772 508.853 C 782.331 479.048 774.783 449.061 770.237 418.65 C 805.154 361.41 774.159 305.99 809.043 249.596 C 822.146 228.415 844.445 210.369 869.041 204.736 C 901.348 197.337 914.581 209.949 939.808 225.847 C 973.108 246.832 1006.47 247.491 1039.08 225.21 C 1055.72 213.847 1069.87 200.677 1090.08 196.196 z"/>
<path transform="translate(0,0)" fill="rgb(0,0,0)" d="M 1072.53 328.47 C 1074.11 328.808 1075.5 329.45 1076.99 330.057 C 1079.33 332.523 1080.44 334.72 1080.25 338.134 C 1079.96 343.175 1078.04 346.935 1074.38 350.314 C 1072.74 349.638 1071.01 349.021 1069.65 347.836 C 1067.62 346.064 1066.3 343.461 1066.25 340.751 C 1066.16 335.554 1069.15 332.022 1072.53 328.47 z"/>
<path transform="translate(0,0)" fill="rgb(0,0,0)" d="M 898.509 333.679 C 900.429 333.568 901.976 333.732 903.862 334.104 C 906.194 335.827 907.432 337.036 908.202 339.925 C 909.528 344.895 906.617 350.204 903.942 354.117 C 902.082 354.508 900.936 354.397 899.083 354.002 C 896.894 352.317 895.604 350.828 895.085 348.065 C 894.087 342.76 895.372 337.943 898.509 333.679 z"/>
<path transform="translate(0,0)" fill="rgb(0,0,0)" d="M 1083.79 282.402 C 1087.97 281.953 1092.32 281.916 1096.51 281.998 C 1107.35 282.209 1123.24 285.282 1130.69 293.568 C 1132.8 295.913 1133.25 297.764 1133.13 300.836 C 1131.21 302.935 1129.59 303.591 1126.7 303.474 C 1121.13 303.248 1115.77 300.387 1110.44 298.948 C 1100.8 296.348 1090.61 296.747 1080.75 297.428 C 1073.97 297.925 1067.25 298.653 1060.7 300.558 C 1053.74 302.58 1044.45 307.756 1037.39 307.972 C 1035.68 308.024 1035.14 307.015 1033.91 305.984 C 1032.93 303.111 1032.8 302.589 1033.39 299.63 C 1043.79 287.476 1068.76 283.968 1083.79 282.402 z"/>
<path transform="translate(0,0)" fill="rgb(0,0,0)" d="M 893.75 288.38 C 899.046 287.886 904.28 287.718 909.593 288.004 C 920.93 288.614 938.678 290.911 946.377 300.017 C 948.513 302.544 949.221 304.495 949 307.758 C 940.93 313.589 920.382 303.635 910.474 302.482 C 903.778 301.703 897.431 302.383 890.794 303.199 C 881.868 304.64 873.027 306.413 864.362 309.027 C 858.297 310.856 851.653 313.693 845.459 314.77 C 842.745 315.242 841.658 314.74 839.475 313.217 C 839.062 310.205 839.341 308.33 841.294 305.881 C 850.507 294.324 879.841 290.097 893.75 288.38 z"/>
<path transform="translate(0,0)" fill="rgb(0,0,0)" d="M 985.132 312.961 L 985.684 312.936 C 987.889 312.82 991.177 312.303 993.196 313.313 C 1007.74 320.589 992.627 396.316 997.087 407.499 C 997.841 409.388 999.144 410.279 1000.98 410.913 C 1007.34 413.112 1015.93 410.132 1021.79 407.562 C 1021.87 404.259 1021.6 400.101 1023.36 397.158 C 1024.84 394.701 1026.42 393.869 1029.07 393.152 C 1031.61 393.488 1033.14 394.219 1034.77 396.298 C 1038.23 400.692 1037.17 406.16 1036.44 411.255 C 1033.09 417.576 1029.41 421.665 1022.69 424.472 C 1013.56 428.278 1000.92 428.579 991.81 424.608 C 988.189 423.031 982.872 419.457 981.853 415.352 C 979.648 406.473 983.559 361.818 983.719 348.959 C 983.841 339.047 982.666 328.92 983.21 319.06 C 983.346 316.603 983.938 315.088 985.132 312.961 z"/>
<path transform="translate(0,0)" fill="rgb(254,254,254)" d="M 1545.15 104.471 C 1579 103.641 1612.95 104.148 1646.81 104.007 C 1647.01 162.883 1652.67 221.86 1654.04 280.734 C 1655.25 332.609 1654.69 384.491 1657.67 436.318 C 1658.62 452.918 1658.74 469.818 1661.39 486.243 C 1617.35 487.924 1573.03 490.084 1528.99 490.71 C 1476.51 491.456 1423.99 490.559 1371.5 490.911 A 5418.01 5418.01 0 0 0 1232.88 494.284 C 1211.78 495.472 1190.53 496.271 1169.41 497.013 L 1176.17 461.14 C 1191.42 455.172 1202.5 444.745 1211.9 431.532 C 1228.09 408.775 1242.97 374.119 1237.47 345.565 C 1235.51 335.421 1230.93 328.873 1222.5 323.144 C 1225.95 299.548 1226.1 275.118 1224.96 251.33 C 1224.42 240.104 1224.27 228.722 1223.02 217.55 C 1219.09 182.216 1206.74 144.729 1187.04 115.25 C 1239.86 112.436 1293.08 114.502 1345.97 112.861 C 1368.58 112.16 1391.2 110.369 1413.8 109.216 A 3465.02 3465.02 0 0 1 1545.15 104.471 z"/>
<path transform="translate(0,0)" fill="rgb(254,254,254)" d="M 731.325 125.44 L 739.312 125.469 C 705.348 199.883 703.95 260.588 713.341 340.311 C 703.942 348.896 698.958 359.556 698.1 372.326 C 696.56 395.247 709.186 421.897 723.71 439.011 C 734.088 451.24 746.78 462.844 763.471 464.173 C 766.238 479.626 770.574 494.627 774.872 509.704 C 758.191 511.804 741.026 512.202 724.24 513.234 C 676.887 516.147 629.507 517.313 582.097 518.878 C 511.198 521.22 440.393 525.74 369.493 528.1 A 3342.22 3342.22 0 0 1 295.092 530.133 C 287.28 397.469 291.365 264.224 282.162 131.708 C 342.297 131.563 402.325 129.625 462.427 129.133 C 552.103 128.399 641.697 128.779 731.325 125.44 z"/>
<path transform="translate(0,0)" fill="rgb(0,0,0)" d="M 1497.09 549.422 C 1509.15 548.297 1540.84 546.462 1550.11 552.593 C 1552.33 578.37 1551.55 604.328 1552.23 630.158 C 1552.61 644.476 1554.5 658.668 1554.83 672.979 C 1581.54 672.989 1607.47 674.845 1633.3 682.244 C 1678.38 695.157 1734.25 722.037 1757.6 764.856 C 1768.89 785.569 1773.14 809.313 1774.33 832.639 C 1775.45 854.676 1775.18 876.517 1771.68 898.367 C 1762.42 956.187 1739.17 1013.07 1744.03 1072.57 C 1745.69 1092.84 1758.13 1127.14 1764.26 1147.86 L 1806.96 1291.75 L 1898.5 1605.97 A 8768.83 8768.83 0 0 1 1939.47 1749.28 C 1946.01 1772.46 1953.62 1795.67 1959.25 1819.06 C 1961.34 1827.75 1972.89 1887.9 1970.77 1893.39 C 1969.78 1895.97 1968.58 1896.65 1966.23 1897.88 C 1964.33 1897.95 1962.87 1898.06 1961.15 1897.05 C 1958.09 1895.27 1957.27 1891.46 1956.4 1888.28 C 1951.47 1870.26 1949.31 1850.82 1945.59 1832.45 C 1941.86 1814.05 1936.38 1796.38 1931.11 1778.41 A 39372 39372 0 0 0 1741.57 1128.54 C 1711.93 1161.29 1678.86 1188.74 1638.04 1206.51 C 1600.94 1222.66 1558.3 1227.27 1520.21 1212.1 C 1525.97 1231.86 1530.63 1251.9 1536.67 1271.6 C 1540.29 1283.41 1544.88 1294.85 1548.6 1306.6 C 1554.63 1325.64 1560.37 1345.32 1565.56 1364.59 C 1575.79 1402.58 1583.96 1441.27 1593.6 1479.44 L 1628.28 1616.06 C 1634.88 1641.46 1677.97 1800.68 1676.82 1810.67 C 1676.48 1813.7 1675.32 1815.09 1673.02 1816.93 C 1669.89 1817.65 1668.45 1817.34 1665.46 1816.51 C 1662.75 1814.44 1662.14 1812.08 1661.19 1808.93 C 1655.6 1790.35 1651.66 1770.92 1647.02 1752.04 L 1622.08 1653.25 L 1584.5 1507.68 C 1576.74 1477.39 1568.5 1447.05 1561.92 1416.48 C 1551.64 1405.51 1542.78 1393.3 1533.55 1381.44 C 1503.2 1342.43 1474.13 1298.72 1439.17 1263.79 C 1367.33 1192.01 1268.58 1182.52 1172.32 1182.86 C 1170.38 1188.14 1167.9 1193.33 1165.32 1198.33 C 1143.65 1240.41 1109.32 1268.03 1064.28 1282.1 C 1020.48 1295.79 970.232 1294.15 929.18 1272.52 C 893.742 1253.85 875.091 1225.34 863.468 1187.94 C 739.643 1209.21 661.379 1229.41 567.282 1316.33 C 510.368 1371.96 459.372 1434.76 412.813 1499.24 C 405.448 1509.44 395.165 1520.49 389.725 1531.73 C 384.122 1543.32 383.557 1560.41 381.321 1573.14 C 366.513 1657.44 354.106 1743.45 348.655 1828.89 A 712.383 712.383 0 0 0 347.112 1881.63 C 347.193 1888.94 348.11 1896.33 348.04 1903.6 C 348.02 1905.65 347.379 1907.49 345.896 1908.96 C 344.168 1910.67 341.462 1911.9 338.989 1911.6 C 337.592 1911.43 335.875 1910.78 334.967 1909.66 C 329.652 1903.08 331.871 1878.99 331.904 1870.32 C 332.198 1793.16 343.216 1716.43 354.483 1640.24 C 374.83 1502.65 402.544 1366.01 428.575 1229.39 C 412.533 1226.34 395.922 1225.93 379.746 1222.98 C 301.53 1208.72 250.886 1181.25 197.6 1121.52 C 182.063 1176.25 170.473 1233.07 158.956 1288.79 C 126.971 1443.56 102.273 1608.38 96.3174 1766.46 C 94.7668 1807.62 94.2103 1849.7 99.4046 1890.62 C 100.571 1899.81 110.636 1950.27 110.352 1951.74 C 109.914 1954 108.504 1956.28 106.37 1957.32 C 104.022 1958.45 102.828 1957.87 100.571 1957.1 C 91.1162 1947.96 88.8681 1924.7 86.7322 1911.74 C 76.5529 1849.99 79.3889 1785.61 83.0147 1723.41 A 3086.59 3086.59 0 0 1 137.852 1313.64 A 7503.26 7503.26 0 0 1 167.243 1178.71 C 174.146 1149.19 187.291 1109.07 187.363 1079.52 C 187.488 1028.11 178.08 988.531 156.706 942.23 C 149.415 926.438 141.3 910.967 134.571 894.927 C 122.17 865.368 114.573 826.248 127.341 795.585 C 149.113 743.3 210.925 707.841 261.087 687.024 C 260.975 671.824 256.705 615.5 262.251 605.422 C 263.58 603.007 264.728 602.336 267.241 601.437 C 268.792 601.755 270.256 602.03 271.492 603.123 C 273.77 605.135 274.515 608.962 274.904 611.836 C 276.21 621.486 275.24 632.148 275.332 641.914 A 691.217 691.217 0 0 0 277.162 681.012 C 288.709 676.953 299.897 675.251 311.973 673.709 C 311.821 660.905 312.29 648.084 311.979 635.289 C 311.737 625.29 310.615 614.993 311.215 605.013 C 311.455 601.015 311.846 596.644 314.154 593.271 C 326.254 588.811 344.319 591.399 357.487 591.16 C 375.325 590.836 393.119 590.021 410.973 589.903 C 432.558 589.76 453.794 590.276 475.406 589.292 C 518.138 587.347 560.619 581.392 603.274 579.403 C 647.308 577.35 691.405 577.698 735.433 576.135 L 1069.5 563.401 L 1367.06 554.777 C 1390.43 553.869 1413.74 551.998 1437.09 550.776 C 1457.04 549.732 1477.08 550.835 1497.09 549.422 z"/>
<path transform="translate(0,0)" fill="rgb(254,254,254)" d="M 424.684 1189.43 L 436.135 1189 C 434.207 1196.92 432.928 1205.03 431.458 1213.05 C 405.753 1213.26 378.356 1206.96 353.462 1200.93 C 344.716 1198.49 335.915 1196.19 327.439 1192.9 A 5529.98 5529.98 0 0 0 424.684 1189.43 z"/>
<path transform="translate(0,0)" fill="rgb(254,254,254)" d="M 1471.6 1145.42 C 1476.43 1144.77 1481.64 1144.98 1486.53 1144.83 A 3036.78 3036.78 0 0 0 1526.5 1298.65 C 1534.42 1325.49 1545.14 1351.3 1551.62 1378.62 C 1538.9 1361.37 1525.42 1344.66 1512.52 1327.53 C 1472.65 1274.6 1437.21 1229.35 1375.58 1199.99 C 1317.67 1174.7 1257.55 1168.8 1195.02 1167.29 C 1172.59 1166.74 1147.96 1168.26 1125.85 1164.23 C 1122.48 1163.62 1118.21 1162.92 1116.12 1159.94 L 1116.79 1158.97 C 1135.93 1157.04 1155.76 1157.56 1175.03 1157.14 L 1272.5 1154.97 A 5115.1 5115.1 0 0 0 1471.6 1145.42 z"/>
<path transform="translate(0,0)" fill="rgb(254,254,254)" d="M 1059.53 1160.57 C 1071.59 1159.94 1083.61 1159.86 1095.69 1159.82 C 1097.65 1163.07 1099.61 1166.55 1102.16 1169.38 C 1114.71 1183.28 1137.91 1181.69 1155.02 1182.42 C 1146.99 1205.6 1128.14 1227.81 1108.77 1242.42 C 1070.64 1271.19 1021.56 1278.66 975.201 1271.99 C 962.633 1269.06 950.607 1265.57 939.051 1259.72 C 908.562 1244.27 889.346 1217.61 878.829 1185.66 C 884.612 1184.35 890.62 1183.21 896.281 1181.46 C 905.427 1178.62 909.614 1172.9 913.759 1164.84 L 1059.53 1160.57 z"/>
<path transform="translate(0,0)" fill="rgb(254,254,254)" d="M 635.501 671.465 L 637.293 671.46 C 642.896 677.059 650.807 884.664 651.556 904.887 C 652.664 934.795 651.313 965.113 655.24 994.829 C 632.946 997.969 610.348 997.204 587.876 997.594 C 586.26 972.747 584.459 947.472 584.853 922.572 C 582.711 904.678 582.798 886.245 581.829 868.237 A 3582.01 3582.01 0 0 0 576.468 795.366 C 575.411 782.045 575.664 766.795 571.914 754.003 C 571.092 751.2 570.36 749.301 567.745 747.841 C 552.941 747.393 528.569 761.578 514.527 767.998 C 510.027 751.54 508.709 732.279 506.58 715.293 C 520.539 708.677 534.866 702.609 548.921 696.159 C 565.259 688.66 582.429 679.333 599.96 675.161 C 611.569 672.398 623.63 672.155 635.501 671.465 z"/>
<path transform="translate(0,0)" fill="rgb(254,254,254)" d="M 889.388 1165.46 C 891.385 1165.31 890.358 1165.2 892.452 1165.93 C 886.085 1169.84 836.625 1176.33 826.099 1178.33 A 1219.26 1219.26 0 0 0 771.792 1189.84 C 751.76 1194.57 731.934 1199.61 712.612 1206.77 C 570.982 1259.18 484.206 1377.92 396.856 1494.33 L 396.198 1495.05 L 395.192 1494.82 C 394.151 1482.69 409.513 1414.57 412.679 1398.11 L 452.191 1188.1 A 22155.4 22155.4 0 0 0 748.9 1174.48 C 795.738 1171.78 842.555 1167.91 889.388 1165.46 z"/>
<path transform="translate(0,0)" fill="rgb(254,254,254)" d="M 306.594 689.229 C 313.496 688.389 322.108 687.99 328.689 690.379 C 331.989 691.576 335.411 693.727 336.523 697.273 C 343.02 718.003 229.979 761.482 220.811 777.054 C 220.326 779.541 220.481 781.26 221.803 783.514 C 223.174 785.852 224.633 786.656 227.139 787.367 C 238.16 785.903 311.803 741.321 325.876 731.665 C 335.962 731.587 347.047 730.931 356.289 735.661 C 358.732 736.912 361.487 738.911 361.993 741.799 C 365.071 759.383 287.035 802.916 272.241 810.813 C 265.78 814.262 239.656 825.207 237.225 829.143 C 235.889 831.306 235.661 834.02 236.28 836.454 C 236.942 839.054 238.261 840.158 240.416 841.536 C 243.071 841.973 244.984 841.945 247.573 841.119 C 261.74 836.597 307.741 809.302 321.539 800.244 C 331.757 793.537 341.278 785.602 351.591 779.107 C 355.536 776.623 359.811 776.307 364.303 777.446 C 367.163 778.172 369.483 779.8 370.65 782.591 C 380.687 806.599 301.297 852.495 283.635 862.364 C 278.414 865.281 262.023 872.145 258.859 875.996 C 258.198 876.801 257.961 877.876 257.512 878.816 C 257.517 880.656 257.535 881.93 258.524 883.573 C 259.819 885.721 262.074 887.473 264.54 888.032 C 273.312 890.024 318.635 859.227 329.574 852.279 C 332.121 850.685 334.43 849.218 337.497 848.899 C 339.798 848.66 342.293 849.738 343.764 851.49 C 345.564 853.635 345.818 857.195 345.658 859.884 C 344.36 881.703 300.693 917.179 282.44 928.819 C 276.004 932.923 267.362 935.431 261.849 940.7 C 256.099 946.195 264.408 954.194 265.065 960.452 C 265.716 966.663 265.361 973.259 265.616 979.539 L 267.531 1029.92 C 269.216 1075.56 271.313 1121.28 272.475 1166.94 C 244.918 1149.78 223.749 1127.59 202.99 1103.02 C 202.8 1076.87 203.49 1050.03 199.849 1024.1 C 195.201 990.988 181.979 958.599 167.915 928.457 C 157.116 905.311 144.55 882.871 139.602 857.526 C 134.422 830.984 136.143 806.19 151.725 783.519 C 183.192 737.737 252.734 699.544 306.594 689.229 z"/>
<path transform="translate(0,0)" fill="rgb(254,254,254)" d="M 1537.94 688.051 C 1594.37 687.327 1632.64 693.102 1683.38 719.421 C 1737.24 747.361 1758.08 780.787 1759.07 841.123 C 1759.42 862.199 1758.93 882.916 1755.33 903.76 C 1745.04 963.422 1724.55 1010 1728.47 1073.21 C 1729.17 1084.52 1730.3 1096.77 1733.84 1107.59 C 1733.95 1107.92 1734.07 1108.25 1734.18 1108.58 C 1714.04 1146.69 1659.5 1182.33 1620.07 1196.59 C 1582.5 1210.18 1550.03 1208.47 1514.17 1191.51 C 1511.04 1175.54 1505.82 1160.14 1503.59 1143.97 C 1520.91 1143.71 1538.19 1143.8 1555.49 1142.62 C 1574.37 1141.34 1593.22 1138.55 1612.18 1139.14 C 1614.48 1137.81 1617.14 1136.51 1619.06 1134.66 C 1620.58 1133.19 1621.16 1132.14 1621.27 1129.99 C 1621.63 1122.64 1620.1 1114.47 1619.73 1107.05 L 1617.67 1054.59 C 1615.83 1012.09 1615.41 969.635 1613.99 927.133 C 1637.6 942.497 1661.45 957.39 1686.7 969.953 L 1689.45 971.285 C 1694.33 973.634 1705.11 980.194 1710 978.022 C 1712.67 976.836 1713.99 974.582 1715.1 972.052 C 1715.04 969.236 1715.17 967.527 1712.66 965.639 C 1703.26 958.577 1689.77 954.168 1679.27 948.508 C 1662.34 939.376 1588.1 895.448 1582.96 881.22 C 1581.58 877.384 1585.71 870.484 1587.35 867.003 C 1608.59 872.836 1629.85 878.028 1650.9 884.594 C 1660.93 887.72 1672.12 893.897 1682.27 895.459 C 1685.4 895.94 1687.67 895.531 1690.2 893.547 C 1691.29 891.526 1691.66 890.07 1690.96 887.78 C 1684.73 867.225 1575.51 855.011 1555.02 841.957 C 1548.88 838.044 1543.12 831.339 1541.73 824.045 C 1540.06 815.343 1543.8 809.342 1548.44 802.48 C 1580.29 810.189 1613.32 817.41 1645.4 824.286 C 1654.21 826.175 1662.56 829.455 1671.5 830.979 C 1675 831.578 1677.62 831.644 1681.01 830.572 C 1682.9 828.785 1683.57 828.22 1683.62 825.395 C 1683.68 822.768 1682.21 820.098 1680.15 818.548 C 1674.5 814.31 1661.67 812.822 1654.7 811.242 L 1588.92 795.825 C 1577.9 793.301 1565.77 791.983 1555.26 787.895 C 1548.15 785.129 1541.13 780.733 1536.51 774.548 C 1532.84 769.632 1529.78 760.464 1530.81 754.352 C 1532.04 747.124 1538.19 742.926 1543.76 739.015 A 621.644 621.644 0 0 1 1625.66 753.367 C 1641.08 757.17 1669.84 767.231 1684.29 767.602 C 1687.75 767.691 1690.62 767.291 1693.17 764.749 C 1693.57 762.063 1693.68 760.797 1691.98 758.524 C 1681.47 744.48 1565.07 726.328 1541.72 722.453 C 1535.98 715.903 1532.78 709.51 1530.26 701.251 C 1532.44 696.317 1534.71 692.375 1537.94 688.051 z"/>
<path transform="translate(0,0)" fill="rgb(254,254,254)" d="M 1222.72 648.409 A 128.626 128.626 0 0 1 1231.2 647.857 C 1256.53 647.126 1281.74 655.418 1300.21 673.067 C 1308.34 680.837 1316.02 689.311 1321.99 698.88 C 1341.32 729.893 1359.08 789.479 1359.73 825.754 C 1360.24 854.977 1350.91 892.828 1336.26 918.057 C 1331.42 926.4 1325.15 933.747 1318.42 940.621 C 1293.64 965.915 1256.41 980.564 1221.33 981.08 C 1211.91 980.733 1203.36 982.17 1194.04 983.245 C 1171.26 985.873 1145.21 978.72 1127.34 964.264 C 1098.94 941.285 1096.19 907.622 1091.49 873.919 C 1089.2 857.44 1086.52 840.909 1084.76 824.367 C 1081.01 789.136 1091.07 731.891 1114.19 703.675 C 1120.53 695.932 1128.34 689.035 1135.98 682.604 C 1163.47 659.455 1187.64 651.77 1222.72 648.409 z"/>
<path transform="translate(0,0)" fill="rgb(0,0,0)" d="M 1214.65 711.423 A 93.8325 93.8325 0 0 1 1219.38 711.149 C 1239.44 710.402 1262.07 710.924 1277.24 725.721 C 1296.2 744.208 1307.65 789.988 1307.79 816.05 C 1307.94 845.558 1306.31 881.438 1284.05 903.485 C 1269.75 917.647 1250.07 928.236 1229.66 928.105 C 1223.03 927.553 1216.58 928.452 1209.96 928.289 C 1194.22 927.903 1175.71 923.061 1163.41 912.809 C 1144.98 897.431 1138.63 871.323 1136.7 848.449 C 1133.54 811.029 1130.91 765.537 1157.18 735.482 C 1171.48 719.114 1193.81 713.064 1214.65 711.423 z"/>
<path transform="translate(0,0)" fill="rgb(254,254,254)" d="M 873.665 662.406 C 897.007 658.162 927.973 665.423 947.314 679.009 C 976.961 699.835 1004.88 761.675 1010.97 796.472 C 1018.7 840.692 1016.26 896.034 989.588 933.773 C 961.044 974.161 926.609 986.895 879.866 994.854 C 874.116 995.865 868.254 996.652 862.45 997.308 C 834.819 1000.43 799.246 989.412 777.682 972.031 A 60.1662 60.1662 0 0 1 760.454 950.246 C 750.192 928.149 741.502 859.157 738.85 832.537 C 735.228 796.18 741.794 745.937 765.78 716.901 C 793.555 683.279 830.839 666.343 873.665 662.406 z"/>
<path transform="translate(0,0)" fill="rgb(0,0,0)" d="M 877.835 723.404 C 880.417 723.209 883.022 723.364 885.606 723.467 C 903.721 724.186 923.967 730.222 936.329 744.256 C 957.29 768.055 964.606 823.646 962.503 853.965 C 960.615 881.191 952.182 903.153 931.058 921.172 C 914.312 935.457 895.608 940.803 873.83 939.001 C 871.571 939.459 869.308 939.904 867.021 940.207 C 853.279 942.031 831.123 934.709 820.455 926.196 C 798.956 909.037 791.791 875.89 788.966 850.059 C 785.423 817.674 788.091 776.717 809.617 750.407 C 829.79 725.75 848.413 726.22 877.835 723.404 z"/>
<path transform="translate(0,0)" fill="rgb(254,254,254)" d="M 1563.39 892.801 C 1576.24 894.86 1588.69 907.742 1598.42 915.74 C 1599.99 940.041 1598.75 964.839 1599.45 989.222 C 1600.73 1033.68 1603.24 1078.18 1603.06 1122.67 C 1589.03 1123.57 1575.05 1125.41 1561.04 1126.58 C 1530.14 1129.14 1498.99 1127.96 1468.03 1129.74 C 1414.61 1132.82 1361.32 1136.53 1307.84 1138.58 C 1265.36 1140.2 1222.64 1139.82 1180.1 1140.9 L 918.294 1149.45 C 832.063 1152.53 745.805 1158.49 659.65 1163.33 A 14939 14939 0 0 1 497.223 1170.7 A 8208.62 8208.62 0 0 1 313.746 1177.08 C 307.495 1177.18 295.035 1178.55 290.323 1174.21 C 287.656 1171.75 287.713 1168.89 287.397 1165.45 C 286.163 1152.01 287.081 1138.11 286.509 1124.58 L 281.853 999.638 A 1200.4 1200.4 0 0 0 279.193 949.101 C 292.946 940.889 305.599 932.046 318.108 922.043 C 321.02 946.233 320.785 970.418 321.529 994.724 C 322.251 1018.31 323.82 1041.84 324.755 1065.42 C 325.303 1079.24 322.325 1106.81 327.795 1118.64 C 328.81 1120.83 330.499 1124.09 333.044 1124.62 C 341.229 1126.34 374.577 1121.51 385.889 1120.94 L 644.756 1106.46 C 657.528 1105.74 670.219 1106.29 682.961 1105.8 L 890.38 1096.52 C 945.337 1094.01 1000.12 1090.34 1055.12 1088.47 C 1062.61 1088.21 1070.14 1086.96 1077.58 1086.82 C 1082.96 1086.72 1088.28 1088.82 1093.66 1088.58 L 1236.22 1082.79 C 1245.62 1082.39 1254.89 1080.09 1264.26 1079.73 C 1289.98 1078.76 1316.15 1079.76 1341.91 1079.74 C 1365.07 1079.72 1388.19 1077.9 1411.34 1077.92 A 5991.17 5991.17 0 0 0 1511.2 1077.61 C 1524.35 1077.52 1537.67 1078.18 1550.79 1077.63 C 1555 1077.45 1561.1 1077.44 1564.84 1075.38 C 1566.4 1072.63 1566.8 1070.27 1566.82 1067.14 C 1566.89 1047.57 1564.45 1027.44 1563.5 1007.84 C 1562.33 983.664 1562.55 959.079 1562.35 934.844 C 1562.24 921.616 1560.92 907.034 1563.16 894.012 C 1563.22 893.607 1563.31 893.205 1563.39 892.801 z"/>
</svg>