<svg version="1.1" xmlns="http://www.w3.org/2000/svg" style="display: block;" viewBox="0 0 2048 2048" width="1024" height="1024">
<path transform="translate(0,0)" fill="rgb(254,254,254)" d="M 0 0 L 2048 0 L 2048 2048 L 0 2048 L 0 0 z"/>
<path transform="translate(0,0)" fill="rgb(35,31,32)" d="M 778.828 1473 C 781.02 1473.05 783.324 1473.55 785.141 1474.81 C 786.418 1475.7 786.174 1476.16 786.459 1477.57 C 780.643 1488.25 760.687 1496.03 750.693 1502.76 C 750.289 1502.79 749.886 1502.89 749.481 1502.86 C 746.852 1502.69 746.078 1501.99 744.192 1500.35 C 743.443 1498.03 742.862 1497.02 744.107 1494.68 C 748.824 1485.81 769.651 1476.44 778.828 1473 z"/>
<path transform="translate(0,0)" fill="rgb(35,31,32)" d="M 778.936 1446.09 C 780.401 1446.35 782.132 1446.54 783.515 1447.07 C 786.266 1448.13 786.592 1448.61 787.873 1451.08 C 786.209 1460.86 763.962 1470.39 755.858 1476.28 L 754.808 1477.06 L 754.098 1477.71 C 751.425 1477.87 750.898 1477.11 748.61 1475.65 C 747.919 1474.2 747.168 1473.37 747.413 1471.7 C 748.704 1462.92 771.417 1451.02 778.936 1446.09 z"/>
<path transform="translate(0,0)" fill="rgb(35,31,32)" d="M 604.887 1288.84 C 606.317 1288.94 607.675 1289.09 609.038 1289.6 C 611.285 1290.43 612.658 1292.81 613.382 1294.93 C 612.775 1296.92 612.49 1297.52 610.801 1298.88 C 605.827 1302.91 599.342 1305.94 593.864 1309.31 C 587.103 1313.46 581.15 1318.13 575.085 1323.23 L 572.891 1323.5 C 571.868 1322.61 570.307 1321.45 569.612 1320.29 C 568.157 1317.87 568.189 1316.28 569.027 1313.65 C 572.264 1303.52 595.933 1293.13 604.887 1288.84 z"/>
<path transform="translate(0,0)" fill="rgb(35,31,32)" d="M 631.803 1308.75 C 632.432 1308.88 633.071 1308.96 633.689 1309.13 C 635.988 1309.76 637.884 1311.3 639 1313.35 C 638.483 1326.41 607.779 1335.61 599.085 1344.86 C 598.752 1345.22 598.427 1345.58 598.098 1345.94 C 595.107 1345.16 593.582 1344.64 591.161 1342.58 C 590.62 1341.1 589.972 1340.28 590.425 1338.68 C 592.65 1330.83 623.489 1313.14 631.803 1308.75 z"/>
<path transform="translate(0,0)" fill="rgb(35,31,32)" d="M 1159.06 1583.19 C 1183.69 1581.19 1213.04 1594.82 1232.59 1608.75 C 1245 1617.59 1283.41 1653.79 1283.89 1669.84 C 1283.98 1672.72 1281.95 1676.64 1279.61 1678.34 C 1277.84 1679.62 1275.71 1680.17 1273.61 1679.45 C 1266.98 1677.18 1261.06 1661.97 1257 1656.03 C 1251.54 1648.84 1245.32 1641.83 1239.17 1635.21 C 1217.01 1611.37 1190.95 1601 1158.76 1599.89 C 1154.82 1602.28 1150.04 1605.02 1148.04 1609.36 C 1148.47 1612.08 1149.29 1615.11 1148.39 1617.78 C 1147.73 1619.75 1144.71 1621.89 1142.82 1622.6 C 1140.47 1623.49 1138.22 1623.33 1136.13 1621.9 C 1133.45 1620.05 1132.05 1616.88 1131.42 1613.79 C 1130.21 1607.95 1132.06 1601.1 1135.35 1596.23 C 1140.79 1588.19 1149.99 1585.08 1159.06 1583.19 z"/>
<path transform="translate(0,0)" fill="rgb(35,31,32)" d="M 388.385 343.049 C 392.717 343.1 397.023 346.226 400.673 348.329 C 402.444 349.349 404.534 350.298 406.091 351.635 C 408.298 353.532 408.412 355.175 408.666 357.912 C 407.855 359.801 407.315 361.2 405.63 362.519 C 402.635 364.863 399.639 365.063 396.041 364.567 C 395.09 363.797 394.093 362.907 393.066 362.229 C 389.987 360.197 388.986 360.914 385.494 361.435 C 383.37 361.752 381.345 362.066 379.353 362.923 C 371.851 366.154 364.487 373.227 358.103 378.263 C 325.303 404.136 303.161 427.024 282.1 463.549 C 277.33 471.821 271.919 480.432 268.52 489.365 C 263.835 501.679 254.968 529.595 261.612 542.321 C 264.735 548.303 272.974 554.863 279.58 556.43 C 299.422 561.135 304.503 540.6 315.536 534.206 C 318.44 533.908 320.028 535.046 322.435 536.444 L 323.431 537.035 C 323.386 541.957 321.841 546.786 319.596 551.129 C 314.635 560.725 304.736 566.84 294.589 569.732 C 284.058 572.733 273.553 571.678 264.093 566.052 C 254.58 560.395 248.282 551.348 245.833 540.586 C 238.787 509.615 256.704 474.681 272.749 449.311 C 282.075 434.566 292.386 419.334 303.918 406.218 C 319.485 388.512 365.97 348.045 388.385 343.049 z"/>
<path transform="translate(0,0)" fill="rgb(35,31,32)" d="M 977.771 1569.73 C 1000.99 1569.44 1075.73 1619.17 1098.93 1634.69 C 1125.46 1652.44 1149.57 1672.7 1174.65 1692.36 C 1188.81 1703.45 1204.26 1713.06 1216.59 1726.31 C 1228.47 1739.08 1242.44 1760.3 1245.51 1777.77 C 1246.42 1782.95 1245.79 1785.51 1242.74 1789.79 C 1239.51 1790.7 1237.64 1791.11 1234.36 1790.29 C 1227.9 1785.91 1221.64 1763.4 1216.66 1754.78 C 1211.82 1746.39 1205.95 1739.54 1199.07 1732.76 C 1186.9 1720.76 1172.8 1711.57 1159.64 1700.84 C 1145.26 1689.13 1131.45 1676.82 1116.78 1665.42 C 1092.89 1646.85 1059.06 1623.65 1032.36 1608.84 C 1016.06 1599.8 997.198 1595.35 981.129 1586.33 C 978.575 1584.9 975.843 1583.22 974.887 1580.26 C 973.64 1576.4 975.732 1572.83 977.771 1569.73 z"/>
<path transform="translate(0,0)" fill="rgb(35,31,32)" d="M 1096.21 1431.87 C 1098.6 1432.05 1100.91 1432.31 1103.17 1433.15 C 1116.57 1438.15 1129.94 1446.4 1143.08 1452.51 C 1190.54 1474.57 1238.08 1497.7 1284.04 1522.74 C 1304.14 1533.69 1324.42 1545.75 1343.72 1558.05 A 432.175 432.175 0 0 1 1408.18 1607.66 C 1430.96 1628.84 1445.18 1655.71 1456.38 1684.35 C 1459.14 1691.4 1462.93 1699.19 1462.97 1706.87 C 1463 1711.94 1460.9 1715.53 1457.36 1718.97 C 1453.84 1718.67 1451.11 1717.51 1449.28 1714.36 C 1443.33 1704.12 1440.41 1691.05 1435.92 1680.01 C 1419.18 1638.91 1402.17 1620.68 1368.37 1593.06 C 1360.54 1586.67 1351.65 1581.21 1343.25 1575.59 C 1321.15 1560.77 1297.82 1546.67 1274.34 1534.17 C 1258.88 1525.94 1242.87 1518.71 1227.31 1510.67 C 1207.17 1500.27 1187.53 1488.6 1167.01 1478.99 A 1275.99 1275.99 0 0 0 1126.72 1460.89 C 1116.96 1456.79 1105.02 1453.46 1096.23 1447.59 C 1093.93 1446.06 1092.07 1443.57 1091.84 1440.75 C 1091.52 1436.81 1093.64 1434.41 1096.21 1431.87 z"/>
<path transform="translate(0,0)" fill="rgb(35,31,32)" d="M 1610.58 380.346 C 1638.77 374.695 1700.83 391.94 1728.22 403.617 C 1745.17 410.84 1761.69 420.498 1777.48 429.972 C 1801.78 444.556 1831.74 480.757 1845.16 505.508 C 1854.73 523.182 1861.98 543.211 1866.72 562.684 C 1869.77 575.209 1872.15 588.607 1872.59 601.514 C 1873.16 618.258 1869.08 646.89 1860.08 661.037 C 1857.27 665.46 1853.89 669.372 1848.52 670.344 C 1845.07 670.968 1841.9 669.735 1839.28 667.595 C 1834.56 658.893 1846.34 646.747 1848.83 635.986 A 168.961 168.961 0 0 0 1850.68 627.892 C 1858.69 587.74 1847.84 537.39 1824.87 503.42 C 1815.18 489.09 1804.32 474.131 1791.83 462.139 C 1756.96 428.673 1704.41 407.911 1657.27 399.051 C 1641.28 396.045 1605.09 392.609 1591.14 402.988 C 1587.76 405.5 1586.82 408.262 1586.23 412.269 L 1586 413.969 C 1585.46 417.716 1585.02 418.547 1581.95 420.859 C 1579.54 421.356 1576.38 421.368 1574.15 420.05 C 1572.4 419.017 1571.56 418.208 1570.83 416.358 C 1567.85 408.75 1575.22 397.4 1578.36 390.606 C 1588.31 384.369 1599.13 382.058 1610.58 380.346 z"/>
<path transform="translate(0,0)" fill="rgb(35,31,32)" d="M 380.251 255.289 C 384.925 254.266 391.908 255.747 395.852 258.535 C 398.162 260.169 398.486 261.25 398.873 263.946 C 395.58 270.198 389.319 267.06 383.224 267.385 C 370.154 268.082 356.928 277.402 345.853 283.923 C 316.371 301.283 289.393 326.412 268.896 353.739 C 261.913 363.049 255.909 373.465 249.68 383.299 C 240.628 397.591 232.102 411.761 225.185 427.251 C 220.204 438.406 216.603 450.126 212.396 461.584 C 208.28 472.795 202.772 484.353 199.948 495.909 C 189.89 537.061 183.191 581.802 206.254 619.912 C 223.179 647.881 253.657 663.685 286.37 663.014 C 294.91 662.839 305.355 659.294 313.635 661.352 C 315.873 663.188 316.518 664.703 317.504 667.319 C 317.622 667.631 317.732 667.945 317.847 668.258 C 315.219 671.21 313.584 672.389 309.756 673.412 C 281.826 680.883 253.658 676.28 228.865 661.881 C 205.833 648.504 187.857 625.757 181.247 599.814 C 172.247 564.486 176.814 520.868 186.829 486.035 C 189.724 475.965 193.918 466.336 197.363 456.454 C 204.602 435.693 211.736 415.991 223.069 396.997 C 249.044 353.463 277.262 316.806 318.332 286.584 C 338.448 271.781 355.895 261.492 380.251 255.289 z"/>
<path transform="translate(0,0)" fill="rgb(35,31,32)" d="M 778.511 69.3159 C 810.769 67.2853 849.332 72.0603 880.017 81.8623 C 915.206 93.1032 952.442 119.839 969.365 153.361 C 981.845 178.083 987.909 212.992 978.764 239.677 C 968.274 270.285 948.849 288.624 920.158 302.444 L 920.821 304.36 C 931.65 335.877 931.094 360.697 932.632 392.998 C 935.018 443.128 937.795 480.224 927.006 530.451 C 924.771 540.856 922.433 551.872 918.691 561.827 C 913.378 575.962 905.659 589.798 899.044 603.385 C 927.347 596.31 957.087 592.115 985.893 587.56 C 1040.4 578.94 1096.08 570.934 1149.26 556.111 C 1158 553.676 1156.14 538.216 1160.66 530.964 C 1166.09 522.256 1175.31 519.718 1184.64 517.429 C 1188.45 518.927 1192.49 521.583 1196.5 522.309 C 1202.12 523.326 1202.71 515.105 1205.28 511.379 C 1207.52 508.144 1211.07 506.018 1214.34 503.963 L 1215.58 503.198 C 1228.05 502.335 1234.58 504.037 1245.82 509.115 L 1246.54 507.629 C 1247.78 505.003 1248.94 502.327 1250.8 500.059 C 1267.06 480.178 1275.21 505.335 1285.53 503.873 C 1295.45 502.467 1305.97 494.325 1320.49 492.758 C 1337.22 504.9 1352.17 510.505 1362.08 530.063 C 1371.67 528.357 1381.35 526.382 1391.03 525.256 C 1412.26 522.786 1438.51 521.974 1458.54 515.042 C 1459.39 513.913 1460.35 512.34 1461.67 511.711 C 1461.76 511.668 1514.44 508.337 1520.72 507.611 C 1536.61 505.776 1554.02 503.085 1569.68 499.635 C 1576.18 498.202 1582.36 495.334 1588.96 494.249 C 1599.67 492.49 1623.53 491.849 1633.64 494.024 C 1662.83 500.303 1701.05 526.007 1728.91 539.199 C 1736.13 542.622 1745.14 540.819 1752.17 544.361 C 1754.06 546.847 1754.77 547.867 1755 551.111 C 1753.91 554.889 1751.71 556.793 1748.96 559.499 C 1752.29 575.338 1752.65 591.374 1754.63 607.371 L 1767.17 710.928 C 1770.47 739.49 1773.16 768.302 1776.86 796.789 C 1779.57 817.643 1783.31 838.386 1786.1 859.234 C 1787.42 869.054 1787.82 878.974 1789.2 888.788 C 1790.69 899.425 1793.82 909.776 1795.26 920.428 C 1799.4 951.252 1802.18 982.212 1806.6 1012.99 C 1807.5 1019.28 1807.71 1028.51 1810.06 1034.34 C 1811.44 1037.77 1815.37 1039.7 1816.94 1043.07 C 1817.99 1045.31 1817.65 1048.48 1816.89 1050.78 C 1813.8 1060.15 1770.34 1081.84 1759.79 1086.93 C 1757.33 1091.56 1754.92 1096.31 1751.8 1100.53 C 1749.76 1103.29 1748.31 1104.4 1744.93 1104.91 C 1741.83 1102.82 1741.54 1100.71 1740.12 1097.31 C 1735.04 1095.39 1710.12 1108.72 1704.02 1111.25 C 1703.71 1115.69 1703.86 1119.77 1700.84 1123.33 L 1699.13 1122.99 C 1696.85 1119.74 1696.96 1116.38 1696.67 1112.51 C 1675.09 1119.42 1651.84 1120.56 1629.53 1124.53 L 1473.23 1151.62 C 1443.17 1156.52 1413.29 1162.1 1383.14 1166.6 C 1349.83 1171.58 1316.31 1175.46 1283.06 1180.95 C 1264.99 1183.93 1246.81 1187.41 1228.86 1191.03 C 1218.53 1193.12 1208.43 1195.86 1197.95 1197.06 C 1184.7 1198.58 1172.72 1199.18 1159.71 1195.48 C 1153.74 1198.39 1147.73 1201.43 1141.46 1203.61 C 1127.25 1208.55 1106.56 1212.34 1092.77 1205.44 C 1090.83 1204.47 1090.64 1204.47 1088.5 1204.84 C 1081.1 1206.1 1073.71 1208.37 1066.35 1209.93 C 1053.79 1212.6 1040.72 1214.41 1027.95 1215.68 C 1011.98 1217.28 995.932 1217.37 979.939 1218.54 C 968.377 1219.39 956.825 1221.27 945.323 1222.71 C 935.613 1223.92 925.789 1224.81 916.268 1227.13 A 52.5948 52.5948 0 0 1 916.587 1231.13 A 1324.95 1324.95 0 0 1 916.855 1349.94 C 914.855 1396.17 908.019 1441.93 904.364 1488.02 C 901.906 1519.02 902.271 1550.05 900.373 1581 C 899.304 1598.43 896.752 1615.73 895.037 1633.1 C 892.963 1654.12 892.008 1675.32 889.577 1696.28 C 888.014 1709.76 877.154 1783.04 869.101 1790.1 C 865.31 1793.43 860.253 1792.93 855.582 1792.79 C 849.057 1802.73 842.479 1812.54 835.371 1822.08 L 835.828 1823.48 L 835.066 1822.19 L 837.44 1822.85 L 837.564 1824.33 C 856.677 1830.48 887.09 1832.41 907.96 1835.74 C 939.283 1840.75 990.592 1853.04 1012.56 1876.73 C 1017.17 1881.7 1019.38 1888.86 1023.45 1894.38 C 1023.64 1894.64 1023.83 1894.89 1024.02 1895.14 L 1024.09 1896.08 L 1024.17 1897.65 C 1024.68 1905.48 1023.45 1912.65 1023.05 1920.44 C 1017.13 1925.79 1011.23 1931.36 1004.47 1935.65 C 976.1 1953.67 920.023 1951.87 886.521 1949.92 C 863.928 1948.61 841.741 1945.29 819.022 1947 C 804.595 1948.08 788.097 1958.05 771.912 1960.1 C 765.334 1960.93 758.441 1960.52 751.806 1960.63 C 731.035 1960.97 710.205 1960.05 689.455 1960.75 A 1346.89 1346.89 0 0 0 635.504 1963.87 C 601.872 1966.7 565.829 1972.72 532.539 1965.1 C 522.259 1962.75 512.823 1957.78 507.354 1948.42 C 498.202 1932.76 514.786 1920.97 518.413 1906.91 C 519.952 1900.94 517.453 1854.29 515.001 1851 C 513.238 1848.64 496.449 1847.29 485.463 1827.9 C 479.716 1817.76 475.444 1800.41 479.147 1788.85 C 480.095 1785.88 481.536 1784.32 484.366 1782.98 C 494.661 1784.58 490.249 1819.88 503.388 1830.07 C 506.123 1832.19 508.949 1832.5 512.289 1832.76 C 530.116 1834.14 552.395 1831.06 570.506 1829.92 C 583.461 1829.11 596.561 1829.56 609.419 1827.62 L 611.137 1827.35 L 623.65 1825.64 C 632.111 1818.03 637.51 1807.72 640.247 1796.76 C 648.937 1761.98 647.888 1723.05 652.668 1687.44 C 657.398 1652.2 665.184 1618.12 672.385 1583.38 C 677.406 1559.17 681.524 1534.79 687.134 1510.69 C 699.113 1459.24 721.667 1397.84 768.887 1368.77 C 786.816 1357.73 820.438 1350.5 840.736 1355.79 C 844.724 1356.82 849.2 1358.99 850.881 1363.04 C 851.93 1365.57 851.539 1368.3 850.437 1370.72 C 841.714 1389.88 810.592 1382.82 794.458 1389.49 C 767.437 1400.65 750.379 1429.3 739.39 1454.87 C 731.751 1472.64 717.596 1510.03 714.658 1528.63 C 712.116 1544.73 713.777 1561.35 713.477 1577.57 C 712.907 1608.44 711.144 1639.36 711.286 1670.24 C 711.334 1680.72 712.685 1691.16 712.739 1701.63 C 712.872 1727.17 710.808 1752.69 713.204 1778.21 C 714.065 1787.38 716.53 1795.85 719.946 1804.36 C 743.841 1812.91 766.955 1814.61 792.158 1812.65 C 806.896 1811.5 825.824 1806.54 835.368 1794.39 C 851.787 1773.5 855.133 1696.05 858.663 1667.55 C 863.691 1626.96 869.879 1586.53 872.266 1545.66 C 873.774 1519.83 871.549 1493.75 873.329 1467.89 C 876.371 1423.7 884.368 1379.59 886.055 1335.3 C 886.737 1317.41 884.247 1299.25 883.998 1281.32 C 883.784 1265.89 885.981 1250.54 883.638 1235.22 C 859.883 1231.3 843.417 1238.44 822.227 1221.47 C 805.732 1208.26 800.462 1188.16 798.502 1168.09 C 784.162 1171.13 768.045 1170.84 753.367 1172.24 C 733.14 1174.16 712.765 1177.11 692.493 1178.19 C 657.934 1180.03 624.456 1178.48 589.981 1177.08 C 560.886 1175.9 533.012 1175.14 504.494 1168.13 C 508.939 1186.19 510.68 1205.45 512.257 1223.94 C 517.681 1287.52 513.038 1349.91 510.35 1413.42 C 509.308 1438.06 509.831 1462.41 509.477 1487.02 C 509.365 1494.78 508.763 1506.64 506.488 1514.03 C 505.843 1516.12 503.42 1518.07 501.878 1519.56 C 502.835 1533.05 503.305 1546.15 502.656 1559.66 C 500.065 1613.64 492.876 1667.22 490.153 1721.18 C 489.834 1727.51 488.851 1778.14 487.487 1780.24 C 486.217 1778.6 486.603 1778.75 484.381 1777.97 C 482.485 1778.63 480.892 1779.26 478.87 1779.38 C 477.167 1779.47 476.341 1778.53 475.213 1777.3 C 472.694 1774.55 472.26 1768.9 472.158 1765.41 C 471.749 1751.44 474.636 1736.96 475.289 1722.93 C 475.913 1709.51 475.924 1696.07 476.837 1682.66 C 478.924 1652.01 482.762 1621.58 485.805 1591.04 C 488.179 1567.21 489.918 1543.3 492.166 1519.45 C 488.69 1516.97 484.961 1514.81 481.333 1512.56 C 487.617 1491.77 487.955 1470.66 489.45 1449.22 A 2635.52 2635.52 0 0 0 493.409 1389.66 C 496.267 1340.69 501.899 1289.86 497.917 1240.95 C 495.859 1215.68 492.942 1190.78 489.642 1165.65 C 489.019 1160.9 489.093 1152.43 487.239 1148.26 C 486.45 1146.48 483.928 1144.75 482.465 1143.52 L 481.405 1142.64 C 479.903 1138.05 486.851 1116.68 487.191 1108.6 C 488.47 1078.22 487.193 1047.39 487.043 1016.95 C 486.979 1003.75 486.013 989.667 487.881 976.622 C 472.25 963.481 459.36 950.413 448.837 932.826 C 430.068 901.459 419.156 869.466 428.618 832.771 C 446.594 763.056 518.2 722.982 569.091 679.172 C 575.679 673.501 592.506 652.405 598.271 649.641 C 599.114 649.237 600.031 649.004 600.885 648.624 L 601.939 648.146 C 610.427 644.387 608.533 620.15 636.849 608.154 C 630.667 596.346 622.369 585.772 616.169 573.965 C 604.467 551.68 599.959 525.382 595.267 500.864 C 585.68 503.463 576.293 503.341 566.79 500.223 C 554.46 496.177 544.443 488.118 538.981 476.243 C 531.155 459.226 534.58 444.491 540.429 427.769 C 525.664 418.524 516.071 397.265 510.754 381.237 C 497.423 341.055 500.304 278.767 519.518 240.788 C 532.747 214.638 548.779 195.427 577.518 186.327 C 587.118 183.287 596.692 182.753 605.785 187.421 C 607.503 172.379 608.898 159.263 618.46 146.764 C 625.564 137.476 635.258 129.656 644.305 122.344 C 686.037 88.6077 726.111 76.463 778.511 69.3159 z"/>
<path transform="translate(0,0)" fill="rgb(254,254,254)" d="M 1768.94 972.752 L 1769.92 973.85 C 1771.09 980.072 1774.2 994.284 1770.72 999.541 A 148.305 148.305 0 0 0 1766.95 997.48 C 1750.65 1006.87 1714.35 1058.32 1704.89 1074.69 C 1700.79 1068.11 1698.81 1059.48 1696.78 1052.06 C 1696.94 1051.95 1697.1 1051.85 1697.26 1051.74 C 1703.15 1047.94 1730.05 1013.75 1737.11 1005.99 C 1747.44 994.633 1758.89 984.311 1768.94 972.752 z"/>
<path transform="translate(0,0)" fill="rgb(254,254,254)" d="M 640.775 616.383 C 643.968 617.666 647.017 622.138 649.395 624.684 C 670.888 647.688 683.95 665.429 716.456 672.216 C 727.457 674.512 739.866 674.848 751.078 674.068 C 755.004 673.796 760.34 672.633 764.212 673.144 C 765.185 673.273 765.538 673.551 766.3 673.988 C 766.566 675.489 766.552 676.283 765.877 677.731 C 762.777 684.384 753.526 686.459 747.068 688.752 C 740.626 690.559 733.89 691.865 727.3 693.021 C 701.672 697.52 661.949 695.602 640.183 679.78 C 632.349 674.085 625.809 666.113 624.547 656.244 C 622.747 642.169 632.51 627.016 640.775 616.383 z"/>
<path transform="translate(0,0)" fill="rgb(254,254,254)" d="M 1758.46 887.801 C 1765.89 894.973 1769.56 949.714 1769.97 963.873 C 1768.91 963.026 1767.83 962.09 1766.68 961.359 C 1764.47 959.954 1763.08 959.276 1760.45 960.149 C 1747.2 964.56 1703.22 1026.66 1696.04 1039.69 L 1694.02 1040.72 C 1691.12 1031.11 1690.49 1019.83 1688.68 1009.86 C 1686.61 998.458 1683.53 987.221 1681.45 975.758 C 1691.57 959.425 1710.77 941.31 1724.14 926.495 C 1735.65 913.737 1746.61 900.188 1758.46 887.801 z"/>
<path transform="translate(0,0)" fill="rgb(35,31,32)" d="M 1744.81 925.99 C 1747.55 926.632 1750.37 927.146 1752.5 929.099 C 1753.81 930.303 1753.52 930.907 1753.69 932.54 C 1748.12 945.697 1707.87 991.816 1695.7 1004.06 L 1694.81 1005.43 L 1693.04 1005.73 L 1691.11 1004.17 C 1691.11 1003.87 1691.07 1003.57 1691.11 1003.28 C 1691.72 998.946 1699.78 989.907 1702.45 986.047 C 1707.77 978.359 1713.16 970.543 1717.92 962.494 C 1721.99 955.607 1725.39 948.096 1730.06 941.606 C 1734.03 936.096 1739.14 929.746 1744.81 925.99 z"/>
<path transform="translate(0,0)" fill="rgb(254,254,254)" d="M 697.355 1609.67 C 700.099 1620.64 698.021 1640.77 697.944 1652.7 C 697.826 1671.04 698.825 1689.36 698.692 1707.65 C 698.528 1730.16 696.766 1752.15 698.908 1774.66 C 699.89 1784.97 701.498 1800.64 707.689 1809.27 C 709.435 1811.7 712.129 1813.35 714.365 1815.29 C 719.195 1819.46 715.243 1855.18 715.735 1864.2 C 702.468 1860.29 690.059 1858.28 676.331 1857.16 C 669.796 1857.16 663.135 1857.37 656.616 1856.94 C 651.692 1856.61 647.112 1855.67 643.743 1851.86 C 641.189 1842.61 654.515 1837.17 659.458 1830.72 C 666.926 1820.98 669.996 1806.59 672.007 1794.75 C 676.543 1768.05 678.014 1741.75 681.092 1714.99 C 683.827 1691.21 688.477 1667.68 692.107 1644.05 C 693.84 1632.78 693.558 1620.49 697.355 1609.67 z"/>
<path transform="translate(0,0)" fill="rgb(254,254,254)" d="M 1308.34 516.246 A 188.732 188.732 0 0 1 1313.59 517.474 C 1321.63 519.508 1326.32 523.05 1330.5 530.323 C 1334.41 537.138 1336.82 546.264 1334.26 553.976 C 1333.08 557.536 1330.42 560.834 1326.86 562.229 C 1315.75 566.579 1307.74 548.612 1298.77 544.783 C 1295.55 543.408 1293.42 543.952 1290.37 545.114 C 1283.46 553.29 1295.99 567.719 1292.31 578.309 C 1291.18 581.573 1288.71 584.525 1285.35 585.637 C 1268.47 591.228 1267.48 560.675 1257.1 557.282 C 1254.55 556.445 1252.7 557.059 1250.38 558.075 C 1245.13 564.928 1248.3 574.895 1246.87 582.914 C 1246.41 585.528 1245.56 586.393 1243.46 587.836 C 1242.01 587.967 1240.86 587.909 1239.47 587.423 C 1226.56 582.905 1220.61 567.985 1214.89 556.743 C 1212.32 556.74 1209.06 556.545 1206.68 557.61 C 1199.67 560.736 1201.3 579.13 1197.51 585.767 C 1196.18 588.098 1194.46 589.527 1191.76 590.011 C 1188.65 590.569 1184.67 589.567 1182.43 587.379 C 1173.78 578.888 1170.84 548.526 1171.27 536.684 C 1179.13 536.828 1186.89 537.808 1194.68 538.707 C 1198.14 542.44 1201.9 545.855 1205.62 549.324 C 1226.74 542.954 1212.82 531.478 1223.29 523.18 C 1229.6 521.306 1234.13 522.75 1240.16 524.649 C 1244.75 529.764 1247.64 533.54 1254.59 535.179 C 1262.91 533.094 1259.68 522.504 1265.24 517.436 C 1273.1 516.111 1278.17 524.863 1285.44 526.966 C 1292.5 529.005 1302.09 519.74 1308.34 516.246 z"/>
<path transform="translate(0,0)" fill="rgb(254,254,254)" d="M 730.907 1826.41 C 731.054 1826.44 731.202 1826.47 731.349 1826.51 C 755.692 1832.63 782.223 1833.1 807.154 1836.23 C 802.705 1841.93 796.961 1851.13 797.497 1858.66 C 797.667 1861.04 798.226 1862.01 800.045 1863.43 C 801.386 1863.47 801.664 1863.55 803.108 1863.22 C 811.772 1861.23 819.001 1843.89 822.793 1836.45 L 836.339 1840.68 C 833.381 1844.65 830.859 1848.18 830.519 1853.24 C 831.159 1854.54 831.26 1855.42 832.624 1856.12 C 834.574 1857.12 838.268 1857.76 840.374 1856.88 C 844.295 1855.25 847.163 1848.45 849.114 1844.9 C 852.628 1844.17 857.369 1845.84 860.86 1846.59 C 859.495 1850.15 857.701 1854.02 856.934 1857.74 C 856.4 1860.34 856.857 1862.3 858.258 1864.53 C 860.841 1864.96 861.266 1864.88 863.589 1863.32 C 868.674 1859.92 871.452 1853.27 872.76 1847.56 C 904.726 1850.13 940.305 1856.06 968.009 1873.17 C 975.388 1877.55 984.661 1885.14 990.53 1891.56 C 993.027 1894.29 995.481 1897.71 994.929 1901.63 C 994.561 1904.24 992.637 1906.31 990.605 1907.83 C 960.344 1930.47 858.758 1921.2 820.501 1915.86 C 807.264 1862.94 741.294 1876.49 732.161 1864.21 C 727.05 1857.34 730.067 1834.72 730.907 1826.41 z"/>
<path transform="translate(0,0)" fill="rgb(254,254,254)" d="M 529.871 1850.83 C 557.125 1856.09 589.246 1847.25 618.752 1853.38 C 617.543 1856.9 616.387 1860.44 615.152 1863.95 C 614.271 1866.45 613.506 1868.44 613.596 1871.14 C 613.718 1874.83 614.675 1877.85 617.316 1880.48 C 619.413 1880.81 618.977 1881.18 620.5 1880.11 C 623.999 1877.64 624.733 1873.69 625.444 1869.72 C 626.321 1864.83 627.385 1861.46 629.798 1857.16 L 630.549 1855.84 C 633.254 1859.19 636.155 1862.34 639.058 1865.51 C 638.754 1868.89 638.583 1872.16 638.623 1875.54 C 639.731 1877.82 640.913 1878.54 643.017 1879.89 C 649.034 1880.1 649.274 1873.82 653.44 1870.56 C 656.121 1870.99 658.578 1871.12 660.72 1872.95 A 134.687 134.687 0 0 0 660.801 1875.11 C 660.956 1878.48 660.914 1880.21 663.445 1882.54 C 666.074 1883.23 667.77 1882.9 670.395 1882.46 C 673.215 1880.43 674.426 1876.69 675.842 1873.59 C 687.668 1874.65 699.549 1876.88 711.128 1879.47 C 730.253 1883.76 767.249 1890.55 781.754 1903.35 C 784.455 1905.73 786.478 1909.41 788.401 1912.44 C 789.559 1915.35 790.311 1917.82 789.542 1921.02 A 12.0873 12.0873 0 0 1 783.172 1929.12 C 778.027 1931.72 771.18 1933.47 765.455 1934.16 C 728.221 1938.66 690.607 1936.54 653.284 1939.09 C 634.139 1940.39 614.869 1941.84 595.802 1944 C 579.041 1945.9 562.404 1949 545.444 1948.47 C 537.222 1948.22 529.053 1945.28 521.341 1942.65 C 523.983 1932.42 529.777 1926.8 531.698 1915.41 C 534.192 1900.63 532.704 1886.61 531.059 1871.84 C 530.29 1864.93 528.937 1857.75 529.871 1850.83 z"/>
<path transform="translate(0,0)" fill="rgb(35,31,32)" d="M 691.264 1878.6 C 693.116 1878.82 694.056 1879.1 695.73 1879.79 L 696.575 1882.35 C 696.133 1887.58 692.901 1893.37 689.432 1897.25 C 687.531 1896.16 685.109 1894.98 683.809 1893.16 C 682.582 1891.44 682.245 1888.71 682.89 1886.72 C 684.163 1882.78 687.721 1880.25 691.264 1878.6 z"/>
<path transform="translate(0,0)" fill="rgb(35,31,32)" d="M 706.646 1885.33 C 709.656 1885.99 711.454 1886.6 713.587 1888.79 C 715.208 1896.22 707.608 1907.62 704.257 1914.26 C 701.837 1915.04 701.37 1914.59 698.983 1914 C 698.307 1912.94 698.209 1912.92 697.811 1911.5 C 695.423 1902.98 702.143 1892.16 706.646 1885.33 z"/>
<path transform="translate(0,0)" fill="rgb(254,254,254)" d="M 1621.43 519.173 C 1626.4 520.667 1630.38 521.13 1633.03 525.862 C 1633.28 528.519 1632.85 529.77 1631.71 532.206 C 1630.62 534.52 1629.83 536.532 1629.19 539 C 1629.9 541.072 1630.32 542.072 1632.53 543.055 C 1639.26 546.046 1642.18 534.165 1648.73 532.305 C 1651.8 531.432 1655.93 534.191 1658.71 535.592 C 1653.84 544.176 1633.66 569.581 1634.29 577.627 L 1636.27 577.668 C 1646.44 568.825 1657.69 559.698 1666 549.025 C 1669.16 544.973 1668.65 540.245 1670.04 538.607 C 1677.48 540.879 1713.15 556.986 1717.83 561.008 C 1719.41 562.372 1718.9 561.595 1719.09 563.954 C 1715.77 568.627 1710.33 571.456 1706.1 575.268 C 1702.65 578.378 1699.5 581.873 1696.41 585.332 C 1686.16 596.79 1643.47 645.667 1644.15 657.981 C 1653 657.037 1704.71 597.106 1717.46 587.944 C 1719.45 586.509 1720.99 586.022 1723.48 585.943 C 1724.79 586.885 1725.4 586.996 1725.97 588.619 C 1727.76 593.657 1726.2 599.798 1723.94 604.447 C 1720.31 611.908 1713.72 619.048 1708.77 625.807 C 1698.88 639.316 1689.65 653.266 1679.83 666.806 C 1672.25 677.254 1662.07 688.3 1656.74 700.002 C 1656.6 700.318 1656.47 700.64 1656.33 700.959 C 1673.26 683.886 1689.93 666.853 1705.79 648.758 C 1714.35 638.991 1721.8 628.426 1730.6 618.863 C 1730.78 624.395 1734.25 640.402 1732.21 644.763 C 1731.11 647.094 1718.55 657.28 1715.74 660.78 C 1707.38 671.204 1659.72 738.899 1656.28 748.005 L 1656.89 749.195 C 1664.37 744.309 1672.37 730.618 1678.74 723.277 C 1697.12 702.081 1715.69 680.726 1734.52 659.934 L 1738.66 684.021 C 1716.43 705.09 1699.32 731.123 1682.24 756.422 C 1678.06 762.609 1674.63 769.255 1670.53 775.397 C 1668.48 778.465 1665.45 781.213 1663.11 784.13 C 1662.87 786.486 1662.49 785.969 1664.1 788.065 C 1666.81 787.278 1667.13 785.554 1668.5 783.248 C 1681.91 760.588 1718.46 720.654 1737.6 701.739 L 1738.56 700.808 C 1741.54 710.55 1742.8 722.319 1743.55 732.493 C 1741.13 733.36 1738.48 733.51 1736.14 734.544 C 1730.42 737.074 1723.17 747.933 1718.93 752.788 C 1702.51 771.85 1687.68 791.43 1672.11 811.121 C 1668.42 815.797 1664.11 819.915 1660.48 824.646 C 1661.44 826.592 1661.72 827.648 1661.37 829.766 C 1661.26 830.399 1661.14 831.027 1661.03 831.658 L 1662.3 831.723 C 1672.23 823.224 1683.32 808.029 1692.79 797.784 C 1709.94 779.243 1728.22 761.728 1745.8 743.598 C 1746.62 757.408 1748.74 771.111 1749.25 784.936 C 1746.62 785.176 1744.1 785.492 1741.59 786.373 C 1733.11 789.35 1687.19 854.193 1679.8 865.615 C 1675.84 871.734 1672.57 878.17 1669.42 884.732 C 1686.17 870.048 1700.79 850.355 1715.53 833.642 C 1727.39 820.201 1740.51 807.674 1751.67 793.667 C 1752.03 804.363 1754.68 814.891 1753.62 825.621 C 1732.9 842.116 1692.54 900.234 1678.75 924.312 L 1679.45 925.977 L 1677.25 927.878 C 1683.15 924.556 1693.49 908.355 1698.7 902.525 C 1705.7 894.697 1713.54 887.562 1720.74 879.9 A 655.582 655.582 0 0 0 1755.55 839.713 C 1757.38 851.122 1758.13 862.423 1758.62 873.947 C 1729.36 889.708 1703.03 941.35 1680.15 967.692 C 1677.53 957.766 1676.23 947.383 1674.34 937.289 C 1668.3 904.931 1663.83 872.473 1658.71 839.975 C 1651.36 793.263 1641.92 747.187 1637.61 699.966 L 1629.1 603.434 C 1626.86 575.224 1625.77 547.213 1621.43 519.173 z"/>
<path transform="translate(0,0)" fill="rgb(35,31,32)" d="M 1692.89 553.736 C 1693.71 554.881 1694.31 555.73 1695.49 556.539 C 1695.76 556.722 1696.04 556.877 1696.32 557.046 C 1697 558.709 1697.13 559.556 1696.85 561.389 C 1694.82 574.687 1649.46 614.362 1637.59 623.89 C 1636.3 624.773 1637.14 624.381 1634.89 624.562 L 1634.68 622.529 C 1641.57 604.009 1665.92 573.394 1680.7 559.885 L 1682.18 558.548 C 1685.78 555.262 1688.05 554.478 1692.89 553.736 z"/>
<path transform="translate(0,0)" fill="rgb(254,254,254)" d="M 499.997 983.831 C 513.392 989.256 525.152 998.158 538.406 1003.86 C 589.456 1025.84 650.458 1037.79 706.016 1034.56 A 317.728 317.728 0 0 0 743.027 1030.48 C 754.222 1028.5 767.319 1024.09 778.5 1024.38 C 780.919 1029.85 781.948 1061.74 782.657 1069.29 C 783.428 1077.5 784.039 1085.82 785.42 1093.95 C 787.131 1104.03 795.299 1143.28 794.674 1150.46 C 794.491 1152.58 794.847 1151.71 793.033 1153.18 C 769.876 1151.13 745.032 1154.96 721.795 1156.48 C 677.518 1159.37 633.678 1161.22 589.285 1161.09 C 569.143 1161.03 548.255 1161.44 528.297 1158.76 C 519.87 1157.63 512.285 1155.43 504.082 1153.4 C 501.706 1147.81 499.979 1141.8 498.052 1136.03 C 505.957 1115.5 503.867 1008.39 499.997 983.831 z"/>
<path transform="translate(0,0)" fill="rgb(254,254,254)" d="M 768.129 88.4107 C 800.937 83.8837 843.949 92.8485 873.46 106.81 C 865.593 106.802 858.278 107.042 850.567 108.661 C 840.523 110.77 820.415 115.109 814.775 124.511 C 813.413 126.781 812.455 129.019 813.056 131.67 C 817.554 133.619 858.917 114.409 869.382 113.644 C 876.057 113.156 873.071 111.271 877.046 108.684 C 881.534 110.148 886.876 111.343 889.356 115.651 C 885.779 124.025 868.129 126.242 861.634 133.579 C 859.558 135.924 857.112 139.559 857.398 142.757 L 858.63 143.501 C 870.944 143.329 888.416 127.66 901.035 123.084 C 901.388 122.956 901.745 122.84 902.099 122.718 C 907.205 127.127 912.117 131.8 917.097 136.352 C 909.793 139.466 893.183 141.339 888.366 147.506 C 886.609 149.755 887.101 150.981 887.321 153.666 C 888.265 154.931 888.525 155.879 890.151 156.297 C 897.303 158.136 916.599 144.927 923.811 141.51 A 108.172 108.172 0 0 1 937.85 163.929 C 947.492 185.114 951.982 212.486 943.468 234.752 C 935.441 255.742 916.509 269.937 896.502 278.645 C 881.099 285.348 865.191 287.067 848.661 288.813 C 781.191 295.94 752.12 281.547 691.236 257.962 C 678.354 253.004 668.456 242.865 656.473 238.186 C 653.4 236.986 650.938 236.917 647.944 238.354 C 643.239 247.293 660.547 266.235 664.806 275.459 C 671.651 290.284 671.194 314.691 668.92 330.681 C 664.434 362.218 643.023 383.354 618.451 401.922 C 597.214 394.849 575.681 378.982 556.942 400.187 C 553.864 403.67 550.08 409.405 545.819 411.058 C 545.432 410.883 545.03 410.74 544.658 410.534 C 533.003 404.089 526.517 380.66 523.738 368.511 C 514.422 327.785 516.764 270.44 539.986 234.205 C 552.497 214.683 569.263 201.259 592.209 196.516 C 599.16 195.08 605.401 194.617 611.458 198.68 C 614.621 200.802 617.684 202.479 621.098 204.176 C 625.469 181.612 617.521 172.201 635.138 150.913 C 641.492 143.234 649.203 137.452 657.138 131.526 C 689.81 107.128 727.337 92.0224 768.129 88.4107 z"/>
<path transform="translate(0,0)" fill="rgb(254,254,254)" d="M 604.894 656.774 C 606.905 658.911 607.598 663.144 608.547 665.981 C 610.256 671.087 612.216 676.867 614.919 681.528 C 621.621 693.089 637.724 704.045 649.524 709.835 C 686.586 728.023 731.909 721.065 769.342 708.147 C 773.478 742.801 774.877 777.989 780.275 812.467 C 781.38 819.525 788.436 849.422 786.402 854.262 C 783.369 861.482 759.494 879.948 752.582 896.505 C 746.842 910.255 748.87 928.311 742.068 941.08 L 739.34 941.586 C 736.761 940.094 734.294 938.658 731.271 938.389 C 718.739 937.276 705.534 938.653 692.917 938.831 A 543.55 543.55 0 0 1 643.076 936.922 C 633.344 936.158 623.586 935.064 614.066 932.849 C 589.314 927.088 543.156 911.16 527.047 891.557 C 505.379 865.19 529.908 825.951 545.46 802.434 C 550.657 794.576 559.915 785.532 560.509 775.811 C 560.671 773.156 559.917 770.602 557.852 768.805 C 555.671 766.906 552.642 766.065 549.794 766.076 C 542.064 766.109 534.849 773.364 529.793 778.545 C 507.109 801.789 484.82 839.392 485.674 872.884 C 486.082 888.903 493.625 904.108 505.217 914.997 C 531.595 939.774 591.627 960.372 627.712 965.578 C 649.26 968.687 672.758 968.888 694.569 968.575 C 702.542 968.461 710.59 968.222 718.513 967.321 C 724.885 966.596 731.076 965.117 737.509 964.934 C 737.841 964.924 738.173 964.923 738.505 964.917 L 747.703 957.797 C 751.28 958.507 754.92 959.324 758.54 959.759 C 761.902 960.163 763.834 958.848 766.413 956.927 C 771.428 949.557 768.73 941.071 768.502 932.636 C 768.032 915.245 775.534 899.87 787.387 887.598 C 786.034 896.146 784.489 904.754 784.917 913.445 C 785.129 917.746 785.597 921.865 788.869 924.935 C 798.286 927.895 825.082 895.498 843.382 891.628 C 849.305 890.375 857.066 889.722 862.321 893.267 C 862.431 896.73 841.185 905.884 835.687 912.307 C 832.367 916.185 830.098 920.728 830.392 925.893 C 838.31 938.45 865.723 916.917 880.03 921.953 C 882.316 922.757 883.169 923.272 884.159 925.562 C 878.934 928.857 863.415 925.058 846.813 937.408 C 842.783 940.405 837.945 944.22 837.194 949.472 C 838.064 951.982 838.39 953.568 840.939 954.932 C 846.475 957.895 864.646 944.566 872.256 943.034 C 875.466 942.387 877.302 942.989 879.979 944.723 C 878.313 947.719 873.926 949.647 871.043 951.4 C 865.327 950.281 862.195 949.68 857.143 953.073 C 854.426 954.897 853.575 956.689 853.046 959.825 C 854.125 962.028 854.538 962.975 856.702 964.331 C 863.83 968.8 872.29 965.892 879.726 964.094 C 861.674 976.934 826.465 990.824 804.857 992.738 C 797.857 993.358 790.703 991.234 783.686 992.067 C 772.63 993.379 761.59 996.376 750.53 998.037 C 690.532 1007.05 630.112 1004.56 572.126 985.791 C 561.51 982.355 550.593 978.959 540.541 974.088 C 525.48 966.789 510.91 956.094 497.478 946.099 C 470.003 925.654 454.961 895.11 450.225 861.581 C 439.412 785.046 528.893 735.891 576.763 690.827 C 587.532 680.689 596.08 668.58 604.894 656.774 z"/>
<path transform="translate(0,0)" fill="rgb(254,254,254)" d="M 688.578 271.731 C 699.185 276.278 710.284 286.361 720.913 292.036 C 764.862 315.504 809.291 325.166 858.725 318.879 C 868.152 317.68 877.672 316.756 886.799 314.008 C 894.267 324.525 894.277 335.862 896.45 348.095 C 887.064 345.646 875.874 344.457 866.472 347.442 C 862.587 348.676 859.977 350.296 857.986 353.928 C 858.011 356.676 858.052 356.712 859.762 358.869 C 867.533 362.786 877.393 359.176 885.727 358.829 C 889.973 358.653 894.309 359.217 898.53 359.651 A 543.797 543.797 0 0 1 902.567 398.9 C 903.419 411.734 903.165 424.645 903.299 437.5 C 903.787 484.248 901.599 509.391 885.052 553.713 C 878.949 570.059 872.011 586.09 860.296 599.303 C 843.561 618.179 819.886 619.033 797.848 627.711 C 782.738 633.66 776.601 640.721 759.245 641.731 C 731.892 644.572 702.904 637.566 679.362 623.413 C 668.693 616.999 659.412 608.737 651.048 599.556 C 622.939 568.701 617.552 536.121 607.94 497.262 C 611.108 492.554 615.532 487.316 617.802 482.213 C 619.066 479.37 619.534 476.145 618.084 473.261 C 616.502 470.115 613.776 468.563 610.515 467.632 C 605.338 469.041 601.658 473.235 597.422 476.345 C 592.185 480.189 585.717 480.424 579.496 479.315 C 571.128 477.822 562.464 473.318 557.691 466.091 C 554.264 460.902 552.798 445.699 554.712 439.971 C 559.673 425.13 564.634 415.53 578.675 408.031 C 583.597 408.967 589.199 409.651 593.824 411.581 C 602.531 415.214 616.581 429.277 625.524 427.285 C 648.488 422.17 674.594 383.745 686.993 364.595 C 699.917 344.634 704.943 319.338 697.51 296.215 C 695.148 288.867 690.184 281.032 688.867 273.637 C 688.755 273.004 688.675 272.366 688.578 271.731 z"/>
<path transform="translate(0,0)" fill="rgb(35,31,32)" d="M 745.452 362.146 C 746.591 362.339 747.707 362.541 748.824 362.842 C 752.057 363.714 754.365 365.483 755.851 368.523 C 756.667 370.194 756.106 370.579 755.568 372.209 C 752.436 375.369 740.416 376.842 735.118 379.452 L 733.667 380.179 L 731.817 380.971 C 728.674 382.288 726.967 382.696 723.807 381.428 C 723.079 378.975 722.945 378.527 724.399 376.15 C 728.723 369.082 737.605 363.981 745.452 362.146 z"/>
<path transform="translate(0,0)" fill="rgb(35,31,32)" d="M 752.387 410.494 C 753.627 410.72 754.761 411.206 755.942 411.636 C 759.575 415.62 761.383 420.474 763.536 425.348 C 762.924 428.699 762.352 432.084 761.581 435.402 C 760.19 441.397 758.808 444.776 753.475 448.051 C 750.385 446.829 747.4 445.121 744.431 443.623 C 742.801 436.644 741.026 429.123 742.904 422.023 C 744.371 416.472 747.62 413.389 752.387 410.494 z"/>
<path transform="translate(0,0)" fill="rgb(35,31,32)" d="M 874.093 382.933 C 877.103 383.877 879.942 386.266 881.445 389.025 C 885.031 395.609 883.952 405.197 881.777 412.044 C 879.804 418.257 878.112 421.895 872.361 424.806 C 866.707 421.577 864.076 416.038 860.887 410.615 C 860.754 404.371 859.849 395.952 862.876 390.278 C 865.385 385.575 869.212 384.279 874.093 382.933 z"/>
<path transform="translate(0,0)" fill="rgb(35,31,32)" d="M 581.824 424.951 C 590.012 425.477 598.815 427.611 604.4 434.03 C 607.631 437.745 609.878 443.208 609.169 448.188 C 608.79 450.841 607.662 453.41 605.264 454.842 C 602.503 456.492 600.367 456.099 597.462 455.483 C 594.629 451.789 592.579 446.879 589.315 443.638 C 584.775 439.13 578.411 443.893 573.084 443.36 C 570.211 443.072 569.716 442.046 567.966 440 C 567.528 437.399 567.234 436.528 568.545 434.087 C 571.199 429.144 576.807 426.576 581.824 424.951 z"/>
<path transform="translate(0,0)" fill="rgb(35,31,32)" d="M 863.066 442.581 C 864.894 442.662 866.913 442.584 868.516 443.632 C 871.992 445.906 873.003 451.164 873.327 454.962 C 875.057 475.203 866.097 500.301 852.652 515.405 C 846.689 522.103 838.886 527.93 829.57 528.145 C 821.037 528.342 814.571 524.09 808.694 518.382 C 805.549 515.179 803.061 511.906 800.889 507.966 C 796.099 499.279 788.857 478.422 792.641 468.947 C 793.538 466.703 794.768 464.936 797.158 464.149 C 802.349 462.439 807.614 465.846 812.02 468.207 C 819.996 468.161 829.649 467.91 837.404 466.101 C 846.018 464.091 852.941 458.266 857.433 450.744 C 859.163 447.848 860.998 445.243 863.066 442.581 z"/>
<path transform="translate(0,0)" fill="rgb(254,254,254)" d="M 843.137 485.262 L 843.463 485.564 C 843.579 488.602 841.154 491.541 839.684 494.111 C 836.951 498.888 834.114 504.443 828.575 506.334 C 825.737 505.617 825.147 504.424 823.207 502.297 C 819.236 498.059 817.117 493.719 814.81 488.484 C 825.803 490.198 832.847 489.052 843.137 485.262 z"/>
<path transform="translate(0,0)" fill="rgb(254,254,254)" d="M 1593.36 517.347 C 1596.4 516.792 1602.82 516.335 1605.76 517.625 C 1611.39 520.094 1607.32 525.711 1606.57 530.211 C 1604.92 540.115 1610.55 553.472 1611.3 563.689 A 3338.78 3338.78 0 0 0 1668.41 984.436 C 1674.43 1015.86 1680.22 1060.48 1693.77 1089.09 C 1663.89 1094.58 1633.45 1097.63 1603.46 1102.78 C 1579.26 1106.94 1555.49 1113.25 1531.3 1117.44 C 1510.26 1121.09 1488.9 1121.69 1467.79 1124.93 C 1455.1 1126.88 1442.6 1129.87 1429.94 1131.88 C 1417.81 1133.81 1405.54 1134.46 1393.4 1136.57 C 1373.04 1140.1 1352.84 1144.4 1332.37 1147.3 C 1301.39 1151.69 1270.05 1153.91 1239.16 1158.44 C 1218.87 1161.42 1198.9 1166.46 1178.57 1169.26 C 1157.86 1172.11 1137.01 1173.99 1116.29 1176.7 C 1078.94 1181.59 1041.46 1187.26 1004.01 1191.21 C 980.483 1193.69 956.768 1194.68 933.261 1197.39 C 920.008 1198.92 906.649 1201.24 893.55 1203.76 C 885.494 1205.32 877.257 1207.57 869.073 1208.2 C 858.682 1209.01 849.198 1207.27 841.233 1200.11 C 825.32 1185.8 817.678 1132.84 816.942 1111.79 C 810.454 1083.71 808.309 1048.71 804.825 1019.5 C 827.089 1014.84 849.471 1008.31 869.712 997.761 C 885.85 989.355 900.185 982.357 905.951 964.169 C 903.992 961.114 901.787 958.199 899.673 955.248 C 904.312 947.962 906.992 940.068 909.8 931.956 C 905.655 918.435 900.929 908.768 889.08 900.288 C 887.887 895.497 886.908 889.955 884.611 885.578 C 881.043 878.778 875.188 873.852 867.72 871.935 C 846.728 866.547 826.499 878.207 809.096 888.258 C 809.312 870.541 806.056 853.997 804.398 836.461 A 4152.92 4152.92 0 0 1 795.651 737.882 C 794.081 719.727 791.418 700.881 793.13 682.672 C 793.692 676.692 795.473 670.62 798.461 665.393 C 806.049 652.116 832.324 642.719 846.561 638.57 C 862.029 634.062 877.833 632.186 893.685 629.61 L 967.101 617.67 C 991.778 613.639 1016.32 608.49 1040.87 603.745 C 1081.19 595.953 1121.2 588.019 1160.89 577.412 C 1164.97 589.375 1169.57 605.82 1181.93 611.758 C 1191.38 616.296 1200.55 613.059 1209.77 609.914 C 1212.13 607.313 1214.2 604.417 1216.35 601.638 C 1223.11 605.811 1228.85 610.213 1237.04 611.021 C 1246.74 611.976 1254.25 606.605 1261.23 600.645 C 1275.86 606.715 1297.35 608.461 1310 596.889 C 1312.76 594.359 1317.72 586.769 1320.81 585.689 C 1326.38 583.746 1335.39 587.945 1342.84 585.593 C 1352.91 582.418 1365.44 567.025 1368.39 557.005 C 1369.37 553.655 1367.79 550.049 1369.17 547.222 C 1379.63 542.596 1395.99 542.994 1407.52 541.213 C 1440.45 536.124 1473 530.611 1506.15 526.945 C 1534.13 523.851 1566.1 522.307 1593.36 517.347 z"/>
<path transform="translate(0,0)" fill="rgb(35,31,32)" d="M 887.74 698.679 C 889.197 698.768 890.033 699.092 891.377 699.613 C 892.306 703.33 890.19 708.695 888.337 711.938 C 882.857 721.531 873.098 724.968 863.153 727.921 L 859.867 726.081 C 858.4 723.634 858.257 723.524 858.534 720.708 C 863.003 712.971 879.909 704.172 887.74 698.679 z"/>
<path transform="translate(0,0)" fill="rgb(35,31,32)" d="M 923.871 710.861 C 927.505 711.098 928.753 711.79 931.167 714.358 C 931.648 716.298 931.759 717.393 931.288 719.395 C 929.802 725.701 914.782 732.633 909.845 737.251 C 902.096 744.497 897.894 753.195 888.689 759.299 C 885.192 758.807 883.368 758.084 880.978 755.437 C 880.554 753.513 880.232 753.013 880.797 751.031 C 883.531 741.429 914.385 715.739 923.871 710.861 z"/>
<path transform="translate(0,0)" fill="rgb(35,31,32)" d="M 1084.47 746.689 C 1089.02 748.108 1092.72 750.402 1096.4 753.432 C 1106.89 762.058 1112.92 778.76 1115.92 791.711 C 1119.67 807.857 1118.06 825.349 1119.17 841.805 C 1120.38 859.886 1123.46 877.817 1124.68 895.898 C 1126.28 919.816 1126.18 943.826 1128.41 967.714 C 1141.13 964.164 1160.58 956.42 1173.55 960.363 C 1176.77 961.341 1179.49 963.265 1180.85 966.41 C 1183.11 971.614 1179.54 974.636 1178.12 979.392 C 1176.5 984.85 1179.6 990.052 1176.66 995.73 C 1170.54 1007.57 1099.18 1030.56 1083.54 1034.51 C 1071.06 1037.65 1055.04 1042.48 1043.33 1034.85 C 1039.28 1032.21 1036.63 1028.31 1035.67 1023.57 C 1034.39 1017.28 1036.56 1011.18 1040.06 1005.99 C 1048.02 994.171 1052.05 989.515 1066.23 986.999 C 1074.31 985.043 1082.23 982.867 1090.16 980.383 C 1084.32 947.537 1081.46 914.417 1078.16 881.244 C 1076.51 864.638 1076.31 845.714 1071.63 829.685 C 1059.12 840.777 1048.15 853.721 1035.46 864.606 C 1026.4 872.373 1007.02 882.529 1001.73 892.573 C 1000.52 894.861 999.005 898.315 996.828 899.809 C 994.633 901.317 991.126 901.267 988.639 900.75 C 980.388 899.036 973.344 892.342 968.863 885.472 C 963.477 877.215 965.574 869.253 967.224 860.237 C 978.14 850.345 989.924 841.58 1001 831.907 C 1013.68 820.842 1025.47 808.485 1037.63 796.848 C 1045.84 788.997 1054.66 781.743 1062.76 773.8 C 1070.44 766.264 1075.06 751.463 1084.47 746.689 z"/>
<path transform="translate(0,0)" fill="rgb(254,254,254)" d="M 1163.74 974.525 C 1167.69 974.324 1172.31 974.197 1175.63 976.318 C 1176.14 978.623 1176.4 979.292 1175.16 981.481 C 1167.43 995.109 1083.76 1019.27 1065.35 1022 C 1059.67 1022.22 1054.71 1021.43 1049.15 1020.37 C 1053.78 1015.85 1057.55 1010.15 1061.5 1005.01 C 1072.3 1001.81 1083.22 998.71 1093.81 994.878 C 1116.29 986.744 1139.37 975.401 1163.74 974.525 z"/>
<path transform="translate(0,0)" fill="rgb(254,254,254)" d="M 1086.54 765.518 C 1087.52 766.193 1087.81 766.35 1088.77 767.243 C 1096.17 774.121 1099.46 790.616 1101.19 800.207 C 1104.47 818.367 1104.39 837.892 1105.77 856.317 C 1108.62 894.422 1111.66 932.295 1113.47 970.497 C 1110.29 970.833 1107.2 971.793 1104.11 972.596 C 1102.41 964.061 1101.7 955.236 1100.47 946.613 C 1094.39 903.949 1092.36 861.152 1087.18 818.439 C 1086.65 815.292 1085.93 811.587 1083.72 809.137 C 1082.49 807.767 1080.07 806.57 1078.17 806.858 C 1066.55 808.618 1036.27 842.325 1026 851.481 C 1015.98 860.414 998.338 871.176 991.358 882.151 A 394.395 394.395 0 0 0 975.341 870.326 C 984.177 861.858 994.308 854.829 1003.67 846.965 C 1014.59 837.798 1024.88 828.018 1035.42 818.438 C 1054.13 801.436 1071.61 786.18 1086.54 765.518 z"/>
<path transform="translate(0,0)" fill="rgb(35,31,32)" d="M 1322.2 720.317 C 1325.49 719.828 1329.17 718.938 1332.31 720.448 C 1334.69 721.589 1336.59 723.889 1337.45 726.372 C 1339.79 733.133 1338.08 746.693 1335.16 753.131 C 1333.71 756.326 1331.56 759.189 1328.7 761.249 C 1312.44 772.951 1264.74 781.696 1243.82 784.327 C 1234.77 785.464 1223.55 784.666 1215.12 787.704 C 1213 795.257 1216.11 820.373 1218.7 828.384 C 1226.65 826.05 1238.16 817.582 1246.08 818.651 C 1248.11 818.925 1247 818.869 1249.25 818.922 C 1260.08 819.174 1270.52 818.893 1281.12 821.51 C 1304.71 827.327 1329.08 848.4 1341.31 868.976 C 1351.17 885.558 1353.44 906.137 1348.56 924.757 C 1341.89 950.159 1321.13 973.614 1298.81 986.66 C 1278.94 998.276 1245.61 1011.45 1222.42 1004.76 C 1205.42 999.849 1198 983.169 1189.95 968.981 C 1189.66 968.315 1189.37 967.647 1189.11 966.971 C 1185.2 956.931 1178.56 939.647 1182.99 929.243 C 1184.94 927.584 1185.72 926.741 1188.5 927.034 C 1196.84 927.913 1200.06 948.683 1204.01 955.125 C 1204.21 955.454 1204.43 955.773 1204.63 956.097 C 1209.58 958.44 1214.38 960.219 1219.77 961.242 C 1242.8 965.614 1269.35 962.998 1288.97 949.344 C 1303.98 938.901 1307.37 926.46 1310.47 909.475 C 1306.32 897.743 1299.64 888.717 1290.48 880.422 C 1272.99 864.581 1243.8 865.269 1223.2 874.424 C 1214.27 878.396 1202.2 888.464 1192.45 888.423 C 1189.14 888.409 1186.09 886.328 1183.93 883.972 C 1182.15 882.042 1181.26 879.843 1180.95 877.257 C 1179.12 861.791 1179.74 845.48 1178.66 829.857 C 1177.53 813.543 1174.72 797.3 1174.14 780.961 C 1173.78 770.744 1174.55 760.465 1175.15 750.267 L 1178.87 746.401 C 1190.31 744.714 1201.85 744.012 1213.27 742.13 C 1225.83 740.058 1238.04 736.404 1250.52 733.938 C 1274.39 729.221 1298.38 725.319 1322.2 720.317 z"/>
<path transform="translate(0,0)" fill="rgb(254,254,254)" d="M 1322.62 734.073 L 1324.38 734.235 L 1325.53 736.395 C 1325.62 739.307 1325.53 741.641 1324.19 744.29 C 1315.9 760.59 1233.51 768.178 1213.77 771.787 C 1208.82 772.691 1203.94 774.296 1199.16 775.851 C 1198.12 798.351 1200.15 823.424 1203.22 845.774 C 1207.54 847.759 1211.75 849.271 1216.33 850.573 C 1230.56 839.923 1244.88 833.551 1263.06 834.284 C 1286.15 835.216 1304.41 848.467 1319.49 865.128 C 1332.25 879.232 1336.61 892.156 1335.56 911.132 C 1334.41 931.698 1321.18 952.036 1305.98 965.371 C 1284.64 984.089 1252.11 992.64 1224.21 990.703 L 1216.46 983.428 C 1213.4 980.193 1208.97 975.379 1208.01 970.971 L 1209.42 970.408 C 1210.2 970.999 1211.25 971.833 1212.1 972.291 C 1214.35 973.507 1219.06 973.422 1221.6 973.782 C 1241.15 976.555 1260.19 977.144 1278.82 969.802 C 1295.49 963.233 1311.19 951.936 1318.38 934.985 C 1323.51 922.884 1325.25 908.108 1319.96 895.829 C 1312.71 879.035 1295.63 864.819 1278.91 858.052 C 1248.32 845.673 1223.84 857.17 1195.66 869.178 C 1194 854.423 1194.42 839.204 1193.36 824.348 C 1191.81 802.725 1188.36 782.349 1188.94 760.456 L 1190.13 760.741 L 1189.43 758.424 C 1191.19 757.903 1190.39 757.938 1192.27 758.241 C 1211.09 761.259 1299.53 740.272 1322.62 734.073 z"/>
<path transform="translate(0,0)" fill="rgb(35,31,32)" d="M 1440.78 737.209 C 1462.3 736.639 1482.49 739.679 1501.06 751.292 C 1522.49 764.7 1541.23 790.633 1546.78 815.345 C 1553.15 843.645 1550.33 876.742 1534.33 901.547 C 1516.93 928.54 1488.96 942.103 1458.6 948.613 C 1434.15 952.891 1412.19 955.188 1389.27 942.769 C 1373.71 934.336 1364.29 915.377 1359.28 899.193 C 1348.31 863.777 1346.91 830.62 1364.91 797.201 C 1376.64 775.424 1397.58 754.619 1420.15 744.221 C 1426.67 741.217 1433.91 739.302 1440.78 737.209 z"/>
<path transform="translate(0,0)" fill="rgb(254,254,254)" d="M 1451.64 751.268 C 1467.04 750.136 1479.67 753.697 1492.52 761.97 C 1511.97 774.486 1526.83 797.278 1531.44 819.852 C 1532.74 826.253 1534.71 855.196 1531.6 859.853 C 1531.34 852.535 1531.74 844.916 1530.77 837.673 C 1527.56 813.733 1513.93 793.345 1494.73 779.108 C 1481.9 769.593 1466.39 765.528 1450.57 768.259 C 1426.99 772.33 1406.51 789.167 1393.29 808.462 C 1381.41 825.812 1374.55 849.786 1378.66 870.699 C 1382.87 892.088 1395.91 906.427 1413.58 918.26 C 1425.53 924.267 1438.5 926.213 1451.78 925.766 C 1470.22 925.144 1491.04 919.007 1505.18 906.752 C 1512.6 900.319 1519.06 891.938 1525.79 884.748 A 161.113 161.113 0 0 1 1522 891.233 C 1509.2 911.833 1485.48 926.95 1462.12 932.29 C 1441.11 937.092 1413.73 941.548 1394.51 928.545 C 1379.88 918.643 1371.09 890.289 1368.09 873.833 A 102.241 102.241 0 0 1 1384.52 797.439 C 1401.36 773.317 1422.39 756.335 1451.64 751.268 z"/>
<path transform="translate(0,0)" fill="rgb(254,254,254)" d="M 1457.7 783.585 C 1457.76 783.567 1457.82 783.54 1457.88 783.531 C 1467.94 782.168 1478.04 785.472 1486.2 791.229 C 1502.89 802.991 1514.24 822.576 1517.48 842.613 C 1519.8 856.96 1517.39 872.952 1508.42 884.657 C 1495.77 901.168 1475.45 910.208 1455.37 912.995 C 1439.38 912.975 1426.06 909.806 1413.44 899.585 C 1401.82 890.176 1394.97 877.951 1393.57 863.034 C 1391.67 842.813 1401.52 821.279 1414.61 806.234 C 1423.64 795.849 1437.71 785.458 1451.91 784.594 C 1453.48 784.498 1454.55 784.393 1456.05 784.014 L 1457.7 783.585 z"/>
</svg>