<svg version="1.1" xmlns="http://www.w3.org/2000/svg" style="display: block;" viewBox="0 0 2048 2048" width="1024" height="1024">
<path transform="translate(0,0)" fill="rgb(254,254,254)" d="M 0 0 L 2048 0 L 2048 2048 L 0 2048 L 0 0 z"/>
<path transform="translate(0,0)" fill="rgb(35,31,32)" d="M 862.98 1607.21 C 867.63 1606.85 871.344 1607.15 875.304 1609.77 C 876.02 1611.23 876.502 1611.61 876.226 1613.33 C 874.857 1621.9 857.324 1632.22 850.642 1637.45 C 849.023 1637.56 847.329 1637.67 845.716 1637.46 C 842.66 1637.07 840.274 1636.11 838.331 1633.67 C 837.772 1631.69 837.726 1630.24 838.472 1628.28 C 841.949 1619.13 854.38 1611.11 862.98 1607.21 z"/>
<path transform="translate(0,0)" fill="rgb(35,31,32)" d="M 1426.91 265.686 C 1429.66 265.968 1431.34 266.12 1433.52 267.977 C 1439.04 272.685 1454.47 294.064 1454.15 300.981 C 1453.99 304.223 1451.97 305.643 1449.92 307.806 C 1445.14 307.358 1442.45 306.487 1438.93 303.122 C 1432.3 296.774 1421.5 282.175 1422.51 272.484 C 1422.89 268.936 1424.53 268.021 1426.91 265.686 z"/>
<path transform="translate(0,0)" fill="rgb(35,31,32)" d="M 1477.85 238.428 C 1480.42 238.963 1482.37 239.378 1484.17 241.531 C 1488.21 246.354 1489.72 273.157 1488.76 280.134 C 1488.18 284.381 1486.33 286.582 1483.09 289.185 C 1481.2 288.931 1478.71 288.786 1477.17 287.541 C 1472.83 284.016 1471.96 274.15 1471.5 268.905 C 1470.52 257.807 1470.39 247.42 1477.85 238.428 z"/>
<path transform="translate(0,0)" fill="rgb(35,31,32)" d="M 833.138 1580.15 C 835.959 1581.15 838.798 1582.84 840.693 1585.19 C 841.749 1586.5 841.705 1587.18 841.261 1588.81 C 840.041 1593.29 823.714 1623.99 820.589 1627.7 C 818.793 1629.84 816.245 1631.18 813.833 1632.5 C 812.113 1631.85 810.31 1631.14 808.685 1630.28 C 806.891 1629.32 805.149 1627.6 804.648 1625.6 C 802.75 1618.03 809.973 1605.96 813.304 1599.37 C 818.297 1589.48 822.398 1583.66 833.138 1580.15 z"/>
<path transform="translate(0,0)" fill="rgb(35,31,32)" d="M 454.239 172.487 C 460.457 172.214 466.927 173.07 473.184 173.148 C 481.79 173.255 490.805 172.553 499.34 173.526 C 511.654 174.929 523.811 177.844 536.137 179.098 C 550.058 180.514 564.863 180.159 578.884 180.561 C 587.876 180.819 597.356 181.249 606.27 180.016 C 616.974 178.534 627.933 175.167 638.78 175.537 C 645.314 175.761 655.481 177.65 659.973 182.687 C 666.66 190.185 665.221 203.497 664.659 212.805 C 671.784 210.32 677.34 207.719 684.927 210.837 C 688.459 212.288 691.037 214.978 692.319 218.58 C 696.139 229.307 688.849 246.274 684.459 256.139 C 673.304 281.197 651.975 298.814 626.755 308.574 C 627.92 324.418 631.873 340.096 633.608 355.904 C 634.87 367.395 636.406 379.805 636.321 391.352 C 636.269 398.456 634.517 405.51 634.183 412.603 C 633.331 430.743 631.729 448.407 630.164 466.493 C 628.23 488.856 627.005 506.121 620.221 527.996 C 615.558 543.03 607.558 558.548 597.633 570.787 C 573.726 600.271 540.387 602.294 505.229 606.164 C 505.02 610.814 504.607 616.07 506.493 620.393 C 513.971 623.548 524.687 623.747 532.807 625.222 C 541.414 626.787 550.218 629.183 558.569 631.8 C 568.33 634.858 585.867 645.58 594.487 646.256 C 595.702 646.352 595.598 646.295 596.488 645.274 C 602.257 638.659 599.036 624.298 599.05 615.818 C 615.612 611.199 631.606 612.227 648.456 610.554 C 651.179 596.552 653.59 581.364 665.965 572.331 C 672.847 567.308 680.751 566.354 688.999 567.551 C 689.546 567.63 690.091 567.726 690.637 567.809 C 693.955 568.315 695.483 569.289 698.145 571.408 C 700.233 573.069 701.949 574.405 704.336 575.583 C 707.837 571.891 711.495 570.883 716.522 570.741 C 725.906 570.476 733.252 574.674 739.882 580.871 C 746.877 579.591 753.369 579.104 760.432 580.307 C 769.463 581.846 773.029 587.099 777.825 594.101 C 782.514 600.947 786.749 604.501 795.202 605.448 C 807.41 606.815 821.471 604.917 833.855 604.774 C 856.181 604.515 878.577 605.165 900.926 605.111 C 929.437 605.042 957.961 606.841 986.504 606.578 C 1028.4 606.193 1070.31 604.971 1112.21 605.768 C 1135.57 606.212 1158.98 607.928 1182.3 608.934 C 1201.31 609.754 1220.59 609.2 1239.53 610.86 C 1252.46 611.993 1265.28 614.669 1278.03 617.03 C 1279.55 611.623 1281 606.128 1283.76 601.19 C 1287.78 593.977 1293.69 589.897 1301.61 587.835 C 1310.36 585.556 1336.08 580.132 1343.73 584.673 C 1356.6 592.311 1358.5 582.604 1369.75 586.114 C 1380.69 589.528 1387.45 599.604 1392.14 609.326 C 1405.83 608.705 1445.06 616.509 1453.6 614.075 C 1453.25 610.703 1454.01 613.216 1455.47 611.81 C 1456.17 611.137 1455.78 604.645 1455.71 603.637 C 1455.32 598.226 1453.83 592.873 1453.7 587.443 C 1452.12 516.883 1470.17 450.764 1501.82 388.174 C 1499.76 386.375 1497.68 384.576 1495.71 382.671 C 1493.36 380.405 1492.23 377.65 1492.29 374.347 C 1492.48 364.678 1502.29 357.095 1508.87 351.157 C 1529.18 332.828 1551.04 319.068 1577.26 310.732 C 1605.97 301.602 1660.87 301.827 1689.97 308.48 C 1701.79 311.185 1715.01 317.162 1725.68 322.926 C 1741.48 331.455 1753.62 343.558 1767.9 353.953 C 1769.86 355.379 1771.28 356.528 1773.71 356.654 C 1776.54 349.23 1771.47 333.808 1770.43 325.607 C 1769.84 320.875 1769.92 318.587 1772.95 314.679 C 1774.53 314.214 1774.88 313.766 1776.52 314.488 C 1790.89 320.832 1785.23 343.587 1789.51 355.443 C 1790.12 356.013 1790.54 356.903 1791.34 357.154 C 1796.06 358.64 1809.83 352.463 1819.21 355.864 C 1821.55 356.712 1823.73 358.295 1824.59 360.725 C 1825.48 363.246 1825.06 365.147 1824.17 367.549 C 1817.42 373.933 1805.48 375.387 1796.77 378.402 C 1802.16 383.998 1806.35 390.825 1810.69 397.242 C 1827.31 421.78 1842.65 449.544 1844.85 479.728 C 1846.94 508.464 1841.3 546.466 1829.6 573.2 C 1823.65 586.81 1813.96 600.959 1804.23 612.138 C 1789.81 628.709 1766.32 657.601 1744.85 663.349 C 1735.14 665.949 1723.79 665.681 1713.73 666.371 C 1691.01 686.154 1678.6 688.637 1651.65 699.457 C 1672.05 709.445 1691.26 716.266 1709.16 730.916 C 1720.69 740.359 1726.73 752.568 1730.07 766.88 C 1737.2 797.442 1738.2 840.305 1740.56 872.328 L 1753.79 1060.39 C 1754.45 1069.98 1755.55 1080.01 1757.39 1089.42 C 1758.59 1095.6 1762.07 1103.7 1762.09 1109.76 C 1762.11 1114.74 1757.41 1118.26 1754.17 1121.55 C 1752.38 1132.48 1751.92 1143.61 1750.54 1154.59 C 1749.54 1162.48 1747.81 1170.24 1746.85 1178.12 C 1744.24 1199.64 1742.99 1221.61 1742.54 1243.27 C 1741.96 1271.01 1744.02 1298.69 1741.75 1326.39 C 1741.11 1334.11 1744.94 1340.84 1744.99 1348.54 C 1745.04 1356.96 1743.43 1365.4 1743.62 1373.79 C 1744.05 1392.76 1746.92 1411.39 1748.5 1430.22 C 1749.25 1439.24 1748.46 1448.35 1749.14 1457.39 C 1751.25 1485.38 1755.23 1517.71 1759.44 1545.48 C 1761.88 1561.51 1765.86 1577.23 1769.17 1593.1 C 1772.19 1607.61 1773.94 1622.43 1777.1 1636.89 C 1780.87 1654.14 1786.24 1671.02 1790.32 1688.19 L 1802.78 1740.53 C 1804.43 1747.4 1805.17 1755.17 1807.5 1761.78 C 1811.41 1772.9 1824.14 1778.28 1828.3 1790.59 C 1834.99 1810.34 1832.49 1822.51 1823.61 1840.79 C 1817.54 1844.19 1811.02 1848.46 1804.26 1850.24 C 1789.1 1854.25 1772.62 1855.56 1757.07 1857.43 C 1747.04 1858.63 1737.09 1860.79 1727.07 1861.82 C 1700.36 1864.57 1641.55 1864.91 1616.5 1859.98 C 1609.83 1858.67 1603.17 1856.29 1597.34 1852.76 C 1593.99 1850.73 1590.01 1847.48 1589.56 1843.26 C 1589.04 1838.27 1592.5 1831.7 1595.64 1828 C 1598.34 1824.81 1601.67 1822.43 1605.45 1820.67 C 1613.4 1816.99 1622.33 1816.2 1630.48 1813.12 C 1644.88 1807.66 1659.33 1802.11 1673.62 1796.34 C 1693.66 1788.24 1715.63 1777.15 1737.46 1775.38 C 1731.35 1762.31 1722.02 1750.81 1715.79 1737.69 C 1708.09 1721.48 1700.37 1704.43 1693.99 1687.66 C 1690.64 1678.84 1688.24 1669.66 1685.07 1660.78 C 1677.76 1640.32 1669.83 1620.11 1662.66 1599.57 C 1656.82 1582.85 1648.91 1566.03 1644.83 1548.79 C 1636.73 1514.64 1633.68 1479.32 1628.26 1444.69 C 1625.77 1428.71 1620.95 1413.42 1618.7 1397.26 C 1615.95 1377.48 1614 1357.5 1612.14 1337.63 C 1610.88 1324.22 1608.18 1270.56 1603.06 1260.77 C 1602.78 1260.24 1602.36 1259.8 1602.01 1259.32 C 1591.37 1256.85 1580.76 1254.17 1569.94 1252.63 C 1569.61 1252.95 1569.24 1253.22 1568.96 1253.58 C 1565.8 1257.58 1561.67 1279.28 1559.4 1285.88 C 1555.91 1296.01 1552.21 1306.13 1549.64 1316.55 C 1546.87 1327.77 1545.45 1339.52 1543.65 1350.93 C 1535.17 1404.54 1533.43 1458.66 1532.97 1512.88 C 1532.85 1526.03 1531.55 1539.12 1531.47 1552.23 C 1531.38 1566.88 1532.92 1582.11 1533.98 1596.74 C 1534.72 1606.89 1537.13 1616.79 1538.22 1626.89 C 1540.31 1646.35 1541.76 1666.15 1544.33 1685.51 C 1545.55 1694.66 1548.07 1703.67 1549.61 1712.77 C 1551.51 1724.1 1552.67 1735.55 1554.66 1746.85 C 1558.37 1767.99 1575.56 1781.95 1578.64 1803.65 C 1579.75 1811.46 1574.04 1829.06 1569.01 1834.92 C 1566.93 1837.36 1564.32 1838.87 1561.23 1839.68 C 1554.85 1841.35 1547.72 1839.8 1541.19 1840.48 C 1529.99 1841.64 1519.15 1845.1 1507.79 1846 C 1480.71 1850 1379.72 1854.79 1355.73 1848.12 C 1347.99 1845.96 1338.57 1841.03 1334.62 1833.68 C 1332.93 1830.54 1332.78 1827.51 1334.04 1824.18 C 1339.34 1810.19 1387.55 1797.57 1400.78 1792.72 C 1413.91 1787.9 1426.63 1781.89 1439.76 1777.05 C 1453.65 1771.92 1468.3 1767.87 1481.65 1761.44 L 1482.89 1760.83 C 1474.81 1747.58 1470.47 1732.75 1465.4 1718.16 C 1454.84 1687.79 1448.36 1660.84 1441.64 1629.6 C 1439.64 1620.26 1436.84 1611.08 1435.27 1601.66 C 1432.61 1585.64 1431.06 1569.27 1428.88 1553.16 C 1426.54 1535.86 1423.27 1518.54 1421.48 1501.19 C 1418.95 1476.58 1418.3 1451.79 1417.6 1427.08 C 1417.38 1419.51 1417.98 1411.93 1417.87 1404.37 C 1417.78 1398.28 1416.83 1392.12 1417.06 1386.05 C 1417.6 1371.47 1419.11 1355.97 1420.55 1341.41 C 1420.93 1337.61 1423.62 1329.77 1422.95 1326.48 C 1422.82 1325.88 1422.34 1325.42 1422.04 1324.89 C 1420.47 1324.28 1418.91 1323.63 1417.25 1323.33 C 1412.37 1322.45 1407.01 1322.46 1402.04 1321.83 C 1390.2 1320.33 1378.25 1318.31 1366.35 1317.45 C 1353.27 1316.5 1340.1 1316.56 1327 1315.68 A 6828.87 6828.87 0 0 0 1122.63 1304.02 C 1111.73 1303.6 1100.88 1304.62 1089.97 1304.24 C 1060.99 1303.22 1032.11 1298.75 1003.14 1297.27 C 973.706 1295.77 944.171 1295.87 914.729 1294.81 L 763.357 1289.12 C 735.094 1288.23 707.012 1284.12 678.852 1282.07 C 665.95 1281.13 652.933 1281.48 640.004 1280.96 C 630.866 1280.6 621.352 1278.55 612.269 1279.13 C 610.829 1279.22 611.577 1279.1 609.834 1280.3 C 608.482 1282.61 607.577 1284.58 607.022 1287.21 C 604.779 1297.83 605.138 1309.02 603.139 1319.68 C 599.275 1340.29 595.447 1361.08 592.032 1381.82 C 589.576 1396.72 586.176 1411.48 583.532 1426.36 A 6096.18 6096.18 0 0 1 543.824 1628.34 A 1783.23 1783.23 0 0 1 522.246 1716.51 C 518.472 1730.48 512.717 1744.98 510.516 1759.19 C 515.986 1764.51 529.037 1767.91 536.331 1770.39 A 1770.43 1770.43 0 0 0 592.172 1788.41 C 617.115 1795.75 651.055 1799.26 670.033 1818.95 C 672.686 1821.7 674.056 1825.35 673.735 1829.17 C 673.103 1836.72 666.825 1842.04 661.558 1846.73 C 616.166 1852.68 569.073 1854.85 523.387 1850.44 C 498.341 1848.02 473.321 1843.27 448.312 1840.83 C 447.279 1843.1 448.436 1844.75 449.222 1847.06 C 449.701 1848.47 450.234 1849.84 450.504 1851.31 C 451.328 1855.79 451.219 1860.48 448.275 1864.19 C 440.597 1873.86 420.325 1873.74 408.896 1874.6 C 347.906 1879.22 301.992 1879.26 242.697 1862.22 C 230.447 1858.7 215.366 1854.96 205.74 1846.18 C 202.814 1843.51 200.883 1840.65 200.763 1836.57 C 200.307 1821.02 214.723 1788.23 225.648 1776.69 C 217.67 1731.1 218.536 1683.96 220.387 1637.9 C 220.968 1623.42 220.818 1608.87 221.622 1594.41 C 223.155 1566.86 225.881 1539.48 228.239 1512 A 3989.66 3989.66 0 0 1 267.298 1193.49 C 271.394 1167.4 276.388 1112.42 286.822 1089.96 C 284.076 1087.18 281.666 1084.17 279.21 1081.14 C 277.615 1059.54 281.508 1035.39 283.75 1013.84 A 2277.79 2277.79 0 0 1 295.76 913.42 C 298.459 894.485 302.395 875.728 305.259 856.815 C 306.757 846.918 307.435 836.862 308.617 826.913 C 309.537 819.175 310.111 811.318 311.427 803.638 C 312.527 797.224 315.591 789.591 315.462 783.25 C 315.189 769.746 305.695 752.164 304.454 736.097 C 303.266 720.724 307.919 691.139 318.166 679.834 C 321.616 676.027 324.209 673.868 329.475 673.792 C 339.026 673.652 361.357 655.271 371.002 649.799 C 381.31 643.951 392.458 638.686 403.321 633.957 C 409.473 631.279 417.059 629.136 422.519 625.293 C 425.173 617.146 422.324 605.694 421.15 597.218 C 407.156 590.574 392.393 585.126 380.208 575.246 C 367.914 565.278 348.72 541.991 343.2 527.027 C 341.653 522.836 341.327 518.197 340.865 513.781 A 174.585 174.585 0 0 1 323.059 510.32 C 315.786 508.461 308.268 504.761 304.528 497.921 C 299.338 488.428 302.747 476.505 305.831 466.874 C 296.648 462.471 289.558 455.999 283.408 447.983 C 261.769 419.781 256.348 384.835 261.084 350.273 C 264.701 323.872 275.962 297.066 298.052 281.066 C 301.616 278.484 305.131 276.129 309.684 276.912 C 311.083 278.44 311.588 278.929 311.838 281.09 C 312.009 282.563 311.788 286.363 311.122 287.664 C 309.564 290.709 299.036 300.686 295.677 305.107 C 288.62 314.394 281.027 333.072 279.278 344.596 C 278.548 349.403 278.853 354.371 278.514 359.218 C 278.177 364.042 277.228 368.846 277.148 373.668 C 276.838 392.358 283.296 414.801 294.229 429.948 L 295.363 431.504 C 296.327 427.541 297.147 423.2 298.717 419.437 C 311.005 389.998 352.863 414.525 367.541 408.497 C 374.795 401.41 378.867 382.444 381.127 372.58 C 383.275 363.204 387.457 323.956 381.706 316.829 C 375.295 308.884 368.262 308.582 360.403 295.989 A 156.16 156.16 0 0 1 362.213 292.196 C 363.284 290.072 364.461 287.867 367.203 288.017 C 376.62 288.535 394.008 299.473 403.428 303.452 C 413.273 307.611 423.408 311.202 433.939 313.161 C 486.06 322.852 524.476 312.249 574.677 302.406 C 590.153 299.371 606.468 297.788 621.476 292.856 C 640.882 286.479 661.293 266.346 670.018 248.089 C 671.915 244.118 674.07 238.885 672.543 234.53 C 665.804 231.179 653.563 240.484 645.818 241.595 C 640.964 242.291 637.937 241.568 634.06 238.662 C 632.134 232.413 643.31 217.626 645.475 210.731 C 646.834 206.401 647.033 201.539 647.382 197.029 C 630.634 196.631 614.414 199.548 597.763 200.45 C 582.4 201.282 566.197 200.395 550.761 200.126 C 540.122 199.941 529.377 197.992 518.812 196.775 C 487.743 193.197 453.154 188.56 422.349 195.616 C 392.524 202.448 353.052 229.962 345.116 261.026 C 343.295 268.157 346.128 281.516 341.304 286.972 C 340.242 288.173 338.826 288.973 337.232 288.991 C 334.684 289.019 332.671 287.936 330.876 286.214 C 327.309 282.793 325.818 278.105 325.661 273.263 C 325.029 253.749 340.773 230.821 353.253 217.05 C 378.977 188.664 416.474 174.224 454.239 172.487 z"/>
<path transform="translate(0,0)" fill="rgb(254,254,254)" d="M 1628.31 1831.9 L 1629.23 1832.23 C 1629.71 1833.06 1630.26 1833.94 1630.54 1834.87 C 1631.2 1837.07 1630.83 1838.67 1629.88 1840.66 L 1626.74 1841.46 C 1624.52 1840.39 1623.15 1839.7 1621.62 1837.74 C 1622.87 1834.71 1625.62 1833.68 1628.31 1831.9 z"/>
<path transform="translate(0,0)" fill="rgb(254,254,254)" d="M 1794.95 547.419 C 1798.32 549.07 1803.27 550.668 1805.09 554.098 C 1805.24 557.059 1804.11 558.908 1802.8 561.441 L 1801.36 562.534 C 1798.21 558.304 1796.75 552.358 1794.95 547.419 z"/>
<path transform="translate(0,0)" fill="rgb(254,254,254)" d="M 325.107 476.519 C 328.397 477.18 331.689 476.953 334.828 478.206 C 335.11 481.203 333.698 482.973 332.42 485.634 C 331.547 485.835 330.426 486.158 329.532 486.046 C 326.676 485.688 325.64 484.434 323.897 482.444 C 323.266 479.288 323.487 479.348 325.107 476.519 z"/>
<path transform="translate(0,0)" fill="rgb(254,254,254)" d="M 1739.88 638.172 L 1740.76 638.778 C 1741.24 641.138 1741.52 641.716 1740.24 643.928 C 1738.1 647.638 1734.28 649.105 1730.4 650.252 C 1729.96 649.667 1729.49 649.128 1729.28 648.397 C 1728.48 645.568 1729.04 644.579 1730.3 642.156 C 1733.47 639.79 1736.04 639.051 1739.88 638.172 z"/>
<path transform="translate(0,0)" fill="rgb(254,254,254)" d="M 1807.68 1803.59 C 1809.15 1804.86 1809.85 1805.45 1810.17 1807.47 C 1811.41 1815.28 1806.79 1824.71 1802.01 1830.49 C 1800.81 1830.05 1801.42 1830.43 1800.42 1829.03 C 1801.88 1819.97 1803.08 1811.67 1807.68 1803.59 z"/>
<path transform="translate(0,0)" fill="rgb(254,254,254)" d="M 1390.29 1814.42 L 1393.82 1815.12 C 1394.64 1817.23 1394.88 1818.57 1394.73 1820.83 C 1394.43 1825.49 1392.71 1829.69 1389.25 1832.67 C 1387.17 1831.99 1385.68 1831.39 1383.92 1830.08 C 1383.24 1828.36 1382.54 1826.8 1382.83 1824.89 C 1383.51 1820.4 1386.91 1817.07 1390.29 1814.42 z"/>
<path transform="translate(0,0)" fill="rgb(254,254,254)" d="M 622.801 1816.42 C 627.969 1817.9 634.822 1819.05 638.153 1823.42 C 637.265 1825.83 636.921 1825.49 634.783 1826.67 C 631.447 1827.45 627.791 1828.27 624.357 1827.65 C 621.67 1827.16 621.009 1826.36 619.644 1824.12 C 619.703 1820.83 621.067 1819.05 622.801 1816.42 z"/>
<path transform="translate(0,0)" fill="rgb(254,254,254)" d="M 255.87 1801.62 L 256.968 1802.65 L 256.989 1804.17 C 252.178 1812.64 247.647 1821.85 244.618 1831.11 C 243.479 1834.59 243.372 1836.68 240.15 1838.68 C 238.029 1837.05 237.399 1837.1 236.586 1834.44 C 239.737 1822.46 249.154 1811.87 255.87 1801.62 z"/>
<path transform="translate(0,0)" fill="rgb(254,254,254)" d="M 412.778 1835.88 C 417.146 1838.69 424.048 1841.95 425.748 1846.92 C 423.476 1848.87 421.157 1848.51 418.242 1848.8 C 415.836 1849.22 413.307 1849.76 410.866 1849.93 C 408.3 1850.1 407.287 1849.45 405.376 1847.88 L 405.192 1845.32 C 407.078 1841.33 409.655 1838.9 412.778 1835.88 z"/>
<path transform="translate(0,0)" fill="rgb(254,254,254)" d="M 1628.48 320.131 C 1637.05 319.19 1651.74 322.918 1660.79 323.734 C 1657 324.662 1653.24 325.827 1649.49 326.886 C 1645.38 327.763 1626.99 331.873 1624.51 330.309 C 1626.46 326.974 1627.45 323.842 1628.48 320.131 z"/>
<path transform="translate(0,0)" fill="rgb(254,254,254)" d="M 1659.1 1822.87 C 1660.94 1822.73 1661.91 1822.81 1663.62 1823.53 C 1665.47 1829.72 1660.14 1835.39 1658.6 1841.32 C 1658.25 1842.68 1657.34 1842.91 1656.24 1843.72 C 1655.16 1843.6 1653.02 1843.54 1651.96 1843.08 C 1650.29 1842.37 1649.67 1841.64 1648.89 1840.07 C 1647.66 1837.62 1647.75 1835.35 1648.66 1832.83 C 1650.82 1826.85 1653.48 1825.34 1659.1 1822.87 z"/>
<path transform="translate(0,0)" fill="rgb(254,254,254)" d="M 1693.77 1809.92 C 1694.75 1810.7 1694.29 1810.14 1694.71 1811.88 C 1690.38 1821.44 1683.56 1838.28 1675.07 1844.37 C 1672.19 1834.82 1682.1 1826.87 1681.28 1816.52 C 1685.3 1813.92 1689.45 1811.93 1693.77 1809.92 z"/>
<path transform="translate(0,0)" fill="rgb(254,254,254)" d="M 532.397 1789.65 C 533.366 1790.36 534.709 1790.94 535.103 1792.14 C 536.798 1797.29 525.203 1824.21 521.927 1829.9 C 519.888 1828.82 518.363 1828.54 517.331 1826.4 C 520.075 1813.9 527.057 1801.27 532.397 1789.65 z"/>
<path transform="translate(0,0)" fill="rgb(254,254,254)" d="M 1533.42 1782.72 C 1533.56 1783.36 1533.82 1783.99 1533.83 1784.64 C 1533.87 1787.47 1531.76 1792.26 1531.1 1795.14 C 1529.86 1800.51 1527.38 1821.54 1525.07 1824.79 L 1517.2 1825.39 C 1517.15 1824.83 1517.03 1823.86 1517.07 1823.24 C 1517.6 1816.09 1528.34 1787.66 1533.42 1782.72 z"/>
<path transform="translate(0,0)" fill="rgb(254,254,254)" d="M 1428.76 1803.13 L 1429.47 1804.36 C 1425.32 1812.24 1422.15 1822.24 1416.76 1829.25 C 1414.45 1832.26 1412.91 1831.66 1409.39 1831.95 L 1408.93 1831.46 C 1407.52 1826.17 1413.9 1813.3 1415.88 1808.05 L 1428.76 1803.13 z"/>
<path transform="translate(0,0)" fill="rgb(254,254,254)" d="M 466.701 1770.17 C 469.072 1769.8 467.956 1769.6 470.05 1770.75 C 468.771 1779.8 453.733 1799.7 448.191 1808.48 C 446.479 1810.19 447.465 1809.84 445.376 1809.86 C 445.101 1808.95 444.954 1808.69 445.017 1807.6 C 445.904 1792.39 457.209 1780.67 466.701 1770.17 z"/>
<path transform="translate(0,0)" fill="rgb(254,254,254)" d="M 1711.45 340.526 C 1718.61 340.817 1723.73 344.944 1729.45 348.808 C 1711.96 353.334 1693.67 359.277 1675.76 361.442 L 1657.32 364.045 C 1667.3 360.57 1676.82 359.121 1687.11 357.045 C 1694.09 355.638 1704.14 350.855 1707.93 344.61 C 1708.74 343.286 1709.06 342.741 1710.18 341.695 C 1710.6 341.301 1711.03 340.916 1711.45 340.526 z"/>
<path transform="translate(0,0)" fill="rgb(254,254,254)" d="M 1552.14 1789.45 C 1553.12 1789.86 1553.83 1790.47 1554.67 1791.11 C 1558.4 1799.38 1558.79 1806.11 1556.25 1814.84 C 1554.91 1819.41 1552.37 1820.49 1548.45 1822.61 C 1547.98 1822.46 1547.48 1822.36 1547.03 1822.14 C 1544.83 1821.05 1544.31 1819.9 1543.78 1817.57 C 1542.14 1810.25 1547.74 1795.22 1552.14 1789.45 z"/>
<path transform="translate(0,0)" fill="rgb(254,254,254)" d="M 281.721 1800.7 L 282.478 1801.45 C 282.748 1804.15 266.629 1837.76 264.228 1843.06 C 262.835 1846.13 262.67 1847 259.461 1848.26 C 257.558 1846.63 257.225 1846.32 256.408 1843.98 C 257.605 1832.18 266.514 1816.57 274.898 1808.31 C 277.371 1805.88 279.539 1803.4 281.721 1800.7 z"/>
<path transform="translate(0,0)" fill="rgb(254,254,254)" d="M 573.201 1804.56 C 577.425 1805.36 581.634 1806.7 585.792 1807.8 C 583.101 1814.85 580.491 1824.67 575.712 1830.46 C 574.218 1830.83 572.611 1831.34 571.082 1831.51 C 568.227 1831.82 567.864 1831.62 565.607 1830.08 C 563.514 1824.08 571.015 1810.81 573.201 1804.56 z"/>
<path transform="translate(0,0)" fill="rgb(254,254,254)" d="M 554.269 1794.45 C 556.493 1795.82 557.588 1796.55 558.785 1798.9 C 558.761 1802.63 557.932 1805.93 556.736 1809.43 C 555.323 1813.57 550.392 1826.84 547.726 1829.72 C 547.017 1830.48 545.852 1830.63 544.915 1831.09 L 538.349 1829.92 C 538.346 1828.71 538.297 1828.57 538.58 1827.2 C 539.612 1822.22 547.559 1800.53 550.615 1796.63 C 551.149 1795.95 553.427 1794.95 554.269 1794.45 z"/>
<path transform="translate(0,0)" fill="rgb(254,254,254)" d="M 1456.83 1793.17 L 1457.59 1794.11 C 1456.79 1800.32 1452.43 1805.56 1450.4 1811.39 C 1448.35 1817.27 1448.64 1825.36 1444.22 1830.1 C 1442.07 1832.39 1438.42 1831.98 1435.5 1832.05 C 1434.7 1831.26 1434.51 1830.57 1434.09 1829.54 C 1437.27 1819.68 1441.32 1808.13 1446.61 1799.24 C 1449.07 1795.11 1452.49 1794.37 1456.83 1793.17 z"/>
<path transform="translate(0,0)" fill="rgb(254,254,254)" d="M 1484.92 1783.1 L 1485.55 1783.74 C 1486.37 1790.82 1480.14 1804.8 1477.29 1811.42 C 1474.02 1819 1469.85 1828 1461.87 1831.12 L 1460.6 1829.3 C 1460.65 1826.47 1461.59 1823.95 1462.52 1821.3 C 1464.85 1814.64 1472.92 1792.73 1476.65 1787.86 C 1478.17 1785.88 1482.59 1784.22 1484.92 1783.1 z"/>
<path transform="translate(0,0)" fill="rgb(254,254,254)" d="M 302.967 1804.16 C 306.029 1804.7 310.012 1805.04 312.012 1807.5 C 309.886 1809.18 307.06 1811.04 305.558 1813.31 C 298.168 1824.49 292.308 1839.47 286.824 1851.73 C 283.961 1851.38 280.763 1851.49 278.588 1849.39 C 277.74 1836.22 295.57 1816.28 302.376 1805.14 L 302.967 1804.16 z"/>
<path transform="translate(0,0)" fill="rgb(254,254,254)" d="M 484.558 1773.56 C 487.094 1774.2 489.108 1774.47 490.828 1776.62 C 488.335 1783.02 484.969 1789.03 482.419 1795.42 C 479.456 1802.83 477.196 1811.59 473.289 1818.5 C 472.018 1820.75 470.033 1822.35 468.047 1823.95 C 465.222 1822.75 462.832 1821.76 460.511 1819.68 C 462.256 1810.07 478.977 1783.69 484.558 1773.56 z"/>
<path transform="translate(0,0)" fill="rgb(254,254,254)" d="M 380.125 1826.36 C 385.853 1826.66 391.451 1827.71 397.098 1828.67 C 393.549 1836.67 390.986 1846 385.828 1853.09 C 381.869 1852.92 377.348 1854.02 373.508 1853.05 C 370.957 1852.41 370.074 1850.97 368.962 1848.8 C 369.151 1842.27 376.641 1832.13 380.125 1826.36 z"/>
<path transform="translate(0,0)" fill="rgb(254,254,254)" d="M 325.508 1811.04 C 328.518 1811.84 331.636 1812.4 333.49 1814.99 C 326.681 1828.18 320.667 1842.49 313.402 1855.28 C 309.892 1854.83 306.595 1854.71 303.56 1852.71 C 302.835 1845.17 320.246 1818.3 325.508 1811.04 z"/>
<path transform="translate(0,0)" fill="rgb(254,254,254)" d="M 1508.04 1776.71 C 1510.47 1776.87 1512.44 1776.38 1514.16 1778.21 C 1513.18 1793 1503.56 1812.62 1498.29 1826.89 C 1496.08 1828.45 1492.94 1828.17 1490.25 1828.42 C 1489.47 1828.51 1487.78 1828.21 1486.97 1828.13 L 1486.31 1826.75 C 1492.46 1810.65 1498.74 1791.16 1508.04 1776.71 z"/>
<path transform="translate(0,0)" fill="rgb(254,254,254)" d="M 1727.37 1797.97 L 1728.51 1798.43 C 1729.41 1802.76 1713.34 1833.04 1711.14 1841.93 L 1698.01 1842.35 L 1697.01 1841.64 C 1696.32 1837.33 1711.35 1810.16 1713.88 1803.12 C 1718.43 1801.53 1722.89 1799.74 1727.37 1797.97 z"/>
<path transform="translate(0,0)" fill="rgb(254,254,254)" d="M 1799.58 518.29 C 1802.45 515.66 1804.54 513.962 1808.22 512.628 L 1810.43 512.981 C 1812.51 517.279 1810.23 523.547 1808.78 527.817 C 1804.48 540.421 1799.88 538.007 1794.95 547.419 C 1789.13 540.567 1782.11 534.459 1777.09 527.023 C 1784.56 524.168 1792.44 521.853 1799.58 518.29 z"/>
<path transform="translate(0,0)" fill="rgb(254,254,254)" d="M 508.715 1781.45 C 512.027 1782.29 515.602 1783.25 517.943 1785.84 C 518.031 1793.93 504.377 1820.55 499.216 1827.31 C 496.081 1827.08 493.104 1826.39 490.044 1825.72 L 489.045 1824.12 C 489.125 1810.35 501.14 1792.42 508.715 1781.45 z"/>
<path transform="translate(0,0)" fill="rgb(254,254,254)" d="M 300.887 1102.23 C 307.015 1104.16 325.373 1113.04 331.066 1116.45 C 324.459 1121.08 315.726 1124.63 310.324 1130.46 C 305.182 1135.94 299.073 1140.49 293.211 1145.17 C 293.834 1130.88 298.657 1116.42 300.887 1102.23 z"/>
<path transform="translate(0,0)" fill="rgb(254,254,254)" d="M 1767.14 388.022 C 1768.27 388.334 1767.62 388.028 1768.76 389.424 C 1763.69 399.739 1701.36 412.745 1688.51 418.765 C 1684.52 417.054 1680.68 414.859 1676.83 412.838 C 1673.74 410.06 1670.37 407.672 1667.02 405.22 C 1671.13 406.22 1675.25 407.287 1679.49 407.389 C 1700.41 407.892 1748.75 396.843 1767.14 388.022 z"/>
<path transform="translate(0,0)" fill="rgb(254,254,254)" d="M 349.012 1816.62 C 351.048 1817.34 350.33 1817.15 352.16 1817.57 C 356.503 1818.56 361.357 1819.01 364.531 1822.39 C 362.423 1829.13 353.809 1849.61 349.689 1854.61 L 347.752 1854.24 C 341.782 1854.84 335.81 1854.87 329.816 1854.95 C 335.111 1841.86 342.501 1829.17 349.012 1816.62 z"/>
<path transform="translate(0,0)" fill="rgb(254,254,254)" d="M 1395.49 627.9 A 715.517 715.517 0 0 0 1447.71 633.461 C 1458.67 634.293 1477.48 633.527 1487.4 637.163 C 1488.56 639.55 1488.2 639.692 1487.84 642.192 C 1478.07 646.322 1408.05 638.701 1393.31 636.446 C 1392.74 633.31 1394.36 630.833 1395.49 627.9 z"/>
<path transform="translate(0,0)" fill="rgb(254,254,254)" d="M 1760.31 1786.73 C 1760.97 1786.81 1761.81 1787.32 1762.43 1787.6 C 1762.91 1793.13 1749.78 1830.68 1747.56 1838.05 C 1741.29 1838.65 1735.2 1839.45 1729.02 1840.67 L 1727.52 1839.44 C 1730.89 1830.43 1746.25 1797.19 1751.77 1791.5 C 1753.84 1789.37 1757.64 1787.96 1760.31 1786.73 z"/>
<path transform="translate(0,0)" fill="rgb(254,254,254)" d="M 1796.97 428.817 C 1799.83 431.076 1800.64 437.007 1801.55 440.443 C 1780.81 450.011 1760.9 457.269 1739.04 463.858 C 1736.1 460.397 1734.34 456.068 1732.36 452.011 C 1754.3 445.152 1779.16 445.468 1796.97 428.817 z"/>
<path transform="translate(0,0)" fill="rgb(254,254,254)" d="M 681.176 585.977 L 683.369 587.438 C 685.418 586.985 686.724 586.833 688.793 587.225 L 690.166 589.418 C 690.709 593.565 689.566 596.722 688.396 600.678 C 685.654 609.951 690.753 619.859 689.469 629.545 L 686.981 631.065 C 681.319 630.218 675.153 629.192 671.193 624.616 C 667.51 620.362 666.594 615.066 667.273 609.598 C 668.546 599.344 673.457 592.317 681.176 585.977 z"/>
<path transform="translate(0,0)" fill="rgb(254,254,254)" d="M 1794.77 1780.46 L 1797.19 1779.88 L 1798.33 1780.71 C 1797.2 1787.32 1792.41 1792.72 1790.06 1798.87 C 1785.82 1809.99 1783.34 1821.34 1781.15 1833 C 1777.85 1835.43 1773.93 1835.72 1769.98 1836.43 C 1769.89 1836.41 1769.79 1836.41 1769.7 1836.38 C 1768.01 1835.84 1767.07 1835.95 1766.29 1834.23 C 1762.95 1826.88 1778.8 1793.81 1781.7 1784.91 L 1782.12 1783.6 C 1786.79 1783.06 1790.47 1782.51 1794.77 1780.46 z"/>
<path transform="translate(0,0)" fill="rgb(254,254,254)" d="M 1806.57 454.927 C 1807.31 455.687 1807.14 455.408 1807.72 456.712 C 1808.37 458.162 1809.45 461.45 1808.63 462.922 C 1804.51 470.321 1755.93 491.297 1745.69 495.691 C 1745.08 489.76 1743.9 483.882 1743.2 477.952 C 1749.18 472.392 1764.34 472.482 1772.14 469.997 C 1784.09 466.187 1795.43 460.644 1806.57 454.927 z"/>
<path transform="translate(0,0)" fill="rgb(254,254,254)" d="M 1812.66 477.93 C 1813.57 478.634 1813.56 478.49 1814.16 479.648 C 1816.55 484.255 1818.37 493.781 1816.59 498.657 C 1813.4 497.951 1809.51 496.766 1806.24 497.037 C 1798.26 497.7 1776.46 509.078 1770.19 514.508 C 1767.8 516.573 1767.55 519.592 1765.44 521.873 C 1761.7 521.378 1758.11 520.262 1754.48 519.248 C 1752.09 518.761 1750.09 518.339 1747.87 517.291 C 1746.44 514.977 1745.27 513.275 1745.07 510.472 C 1746.02 508.036 1746.7 507.149 1748.8 505.591 L 1752.27 506.594 C 1767.75 501.892 1800.72 488.673 1812.66 477.93 z"/>
<path transform="translate(0,0)" fill="rgb(254,254,254)" d="M 328.608 424.977 C 328.914 424.962 329.22 424.933 329.527 424.933 C 340.684 424.938 347.731 431.572 355.48 438.634 C 353.112 448.036 353.8 450.943 357.387 459.569 L 356.494 460.863 L 350.787 461.385 L 341.08 463.405 C 336.753 461.691 329.238 459.99 326.279 456.355 C 321.544 450.539 321.292 438.412 322.783 431.301 C 323.464 428.055 326.14 426.807 328.608 424.977 z"/>
<path transform="translate(0,0)" fill="rgb(254,254,254)" d="M 1740.62 363.178 C 1740.88 363.154 1741.15 363.073 1741.41 363.105 C 1744.56 363.491 1748.01 367.173 1750.4 369.238 C 1750.03 369.438 1749.67 369.654 1749.29 369.839 C 1741.49 373.674 1663.94 397.566 1656.99 397.403 C 1656.04 397.381 1654.02 396.316 1653.05 395.958 C 1647.82 392.232 1644.01 386.343 1640.12 381.302 C 1658.99 379.446 1677.6 379.471 1696.42 375.948 C 1711.1 373.2 1726.16 367.255 1740.62 363.178 z"/>
<path transform="translate(0,0)" fill="rgb(254,254,254)" d="M 1778.29 400.787 C 1785.24 402.971 1789.51 411.804 1793.47 417.566 C 1776.99 425.808 1758.05 431.65 1740.22 436.42 C 1733.39 438.248 1725.83 438.288 1719.46 441.299 C 1719.03 441.116 1718.59 440.94 1718.16 440.749 C 1713.58 438.716 1704.89 433.404 1703.19 428.735 C 1707.05 427.099 1712.96 428.305 1717.2 428.394 C 1731.62 428.694 1767.5 411.204 1778.29 400.787 z"/>
<path transform="translate(0,0)" fill="rgb(254,254,254)" d="M 718.374 588.746 C 724.624 591.691 727.951 597.908 731.688 603.422 C 739.338 603.128 747.663 597.184 754.981 599.777 C 758.228 602.489 759.423 605.129 760.065 609.321 C 761.021 615.567 760.46 621.71 756.573 626.811 C 751.696 629.016 741.657 627.275 736.167 626.979 C 735.901 623.372 735.524 618.372 732.835 615.621 C 731.001 613.744 730.518 613.784 728.109 613.944 C 722.867 617.089 721.516 622.453 719.671 627.892 C 716.765 629.906 713.162 629.574 709.849 628.86 C 706.519 628.143 703.952 626.472 702.196 623.501 C 699.788 619.428 700.351 613.004 701.459 608.626 C 703.921 598.898 710.016 593.635 718.374 588.746 z"/>
<path transform="translate(0,0)" fill="rgb(254,254,254)" d="M 1586.16 698.632 C 1596.25 701.943 1610.06 700.928 1620.71 701.038 A 157.523 157.523 0 0 1 1620.77 703.541 C 1621.07 719.06 1618.22 733.8 1607.05 745.371 C 1601.45 748.638 1595.93 750.1 1589.53 748.157 C 1584.47 746.62 1580.55 742.482 1578.24 737.852 C 1573.86 729.086 1574.17 717.303 1577.15 708.176 C 1579.02 702.443 1580.95 701.22 1586.16 698.632 z"/>
<path transform="translate(0,0)" fill="rgb(254,254,254)" d="M 861.076 620.703 C 868.154 620.048 875.83 623.446 882.961 623.674 C 889.536 623.884 896.199 620.758 902.776 621.014 C 908.744 621.246 914.667 623.511 920.645 623.472 C 992.341 623.009 1063.86 621.965 1135.54 624.219 C 1161.43 625.033 1187.24 625.307 1213.06 627.496 C 1220 628.084 1229.2 627.266 1235.6 629.914 L 1235.96 631.473 C 1233.52 633.638 1230.56 633.362 1227.47 633.536 C 1212.37 632.021 1196.96 634.218 1181.82 633.548 C 1144.23 631.887 1106.18 628.868 1068.53 629.162 C 1048.12 629.321 1027.74 628.561 1007.37 628.598 C 1002.38 628.607 997.856 630.817 992.881 629.89 C 991.163 628.432 989.801 626.955 987.456 626.718 C 984.397 627.963 982.056 628.708 978.735 628.536 C 955.696 627.342 932.589 626.634 909.532 625.828 C 893.405 625.265 878.737 626.15 862.996 621.979 C 860.955 622.797 858.973 623.451 856.85 624.02 L 857.142 623.84 L 856.861 622.711 L 854.545 623.906 C 856.601 622.463 858.763 621.629 861.076 620.703 z"/>
<path transform="translate(0,0)" fill="rgb(254,254,254)" d="M 441.066 600.885 C 453.719 605.94 470.151 603.055 481.855 609.86 C 489.033 614.034 485.454 631.481 487.302 639.171 L 487.622 640.451 C 489.727 641.749 491.44 642.963 493.268 644.659 C 494.29 647.221 495.399 649.721 495.282 652.532 C 495.111 656.645 493.816 657.732 490.972 660.237 C 477.026 664.988 463.314 663.502 450.135 657.313 C 448.087 654.728 446.066 651.888 445.348 648.624 C 444.115 643.014 444.813 636.354 444.284 630.527 C 443.384 620.624 441.907 610.82 441.066 600.885 z"/>
<path transform="translate(0,0)" fill="rgb(254,254,254)" d="M 1326.08 601.658 C 1340.38 599.968 1338.28 606.308 1349.32 611.515 C 1349.72 611.701 1350.12 611.876 1350.51 612.056 C 1353.29 608.879 1356.65 604.011 1361.19 603.625 C 1364.08 603.379 1366.76 605.02 1368.92 606.766 C 1373.9 610.803 1377.39 617.438 1378.07 623.76 C 1374.82 632.448 1364.6 628.144 1360.31 635.642 C 1355.12 644.717 1359.73 657.226 1352.12 666.005 C 1346.05 664.263 1350.66 637.33 1347.08 631.659 C 1344.75 630.622 1341.94 629.693 1339.38 630.619 C 1336.43 631.684 1335.87 633.303 1334.35 635.768 C 1332.83 642.834 1333.66 657.585 1328.19 662.387 L 1325.98 662.211 C 1323.22 653.165 1322.75 642.344 1321.3 632.912 C 1318.38 629.749 1316.12 627.649 1312.02 626.171 C 1299.77 627.308 1306.69 648.208 1298.6 653.861 L 1296.5 653.326 C 1294.25 651.252 1292.79 649.872 1292.28 646.665 C 1290.61 636.072 1294.13 616.465 1300.6 607.99 C 1304.69 602.636 1319.56 602.282 1326.08 601.658 z"/>
<path transform="translate(0,0)" fill="rgb(254,254,254)" d="M 1468.45 909.65 C 1469.64 909.621 1471.28 909.476 1472.48 909.746 C 1482 911.893 1519.28 965.736 1527.73 977.755 C 1519.82 981.299 1511.4 984.653 1504.69 990.284 C 1487.53 1004.67 1480.13 1027.22 1454.4 1029.73 C 1445.55 1030.59 1434.17 1029.73 1427.08 1024.09 C 1428.6 1020.6 1441.29 1021.85 1445.21 1016.7 C 1446.44 1015.08 1446.53 1012.97 1446.25 1011 C 1444.72 1000.2 1431.72 1008.34 1424.74 1003.35 C 1424.48 1003.33 1424.22 1003.32 1423.97 1003.3 C 1417.11 1002.59 1395.58 998.936 1391.15 993.592 L 1392.12 992.045 C 1404.06 986.703 1420.68 992.009 1433.71 989.535 C 1438.87 988.554 1443.84 989.18 1448.97 988.56 C 1451.38 988.268 1453.93 987.286 1455.17 985.063 C 1456.38 982.909 1456.04 981.229 1455.44 978.978 C 1453.63 976.79 1453.28 976.459 1450.62 975.488 C 1446.75 976.298 1443.03 977.251 1439.09 976.365 C 1423.85 972.933 1405.01 970.009 1391.73 961.649 L 1390.56 960.898 C 1398.67 960.758 1406.82 962.258 1414.94 962.626 C 1427.95 963.216 1440.7 962.239 1453.6 960.746 C 1456.23 959.083 1458.65 957.872 1460.08 954.976 C 1459.79 952.876 1459.66 951.788 1460.08 949.665 C 1463.88 947.792 1468.4 946.988 1471.9 944.743 C 1475.19 942.638 1477.63 940.498 1478.4 936.629 C 1476.76 933.02 1471.93 931.142 1468.75 928.845 C 1467.3 923.041 1468.43 915.68 1468.45 909.65 z"/>
<path transform="translate(0,0)" fill="rgb(254,254,254)" d="M 1452.8 1290.93 C 1455.96 1268.37 1453.75 1246.02 1454.53 1223.38 C 1455.89 1184.2 1459.07 1145.05 1461.06 1105.91 C 1461.96 1088.22 1460.01 1068.87 1463.32 1051.49 C 1463.74 1049.28 1464.52 1048.13 1466.27 1046.75 C 1469.9 1043.89 1475.01 1042.62 1478.99 1040.21 C 1483.86 1037.25 1490.21 1030.28 1495.58 1029.19 C 1497.74 1030.73 1497.91 1031.94 1498.28 1034.54 C 1499.33 1041.89 1497.8 1049.62 1497.49 1056.99 L 1494.93 1112.07 C 1494.38 1124.41 1493.54 1136.92 1493.62 1149.27 C 1493.71 1162.98 1494.79 1176.77 1494.46 1190.46 C 1494.03 1207.71 1491.97 1224.98 1491.44 1242.27 C 1491.26 1247.91 1493.01 1268.04 1489.8 1271.83 C 1487.58 1274.45 1481.02 1277.65 1477.66 1278.13 C 1477.32 1277.25 1478.79 1246.17 1478.23 1239.37 C 1479.38 1231.61 1481.22 1223.76 1477.57 1216.41 L 1476.34 1216.2 C 1471.65 1222.01 1472.68 1231.85 1472.53 1239.01 C 1469.08 1258.22 1466.15 1263.78 1466.58 1284.47 C 1462.14 1285.61 1458.96 1287.07 1455.09 1289.5 L 1453.65 1290.38 C 1453.37 1290.56 1453.09 1290.75 1452.8 1290.93 z"/>
<path transform="translate(0,0)" fill="rgb(35,31,32)" d="M 1483.72 1047.4 L 1486.37 1049.16 C 1489.77 1055.63 1487.72 1060.85 1486.19 1067.57 C 1483.83 1066.31 1482.84 1065.41 1482.11 1062.63 C 1480.85 1057.86 1481.36 1051.74 1483.72 1047.4 z"/>
<path transform="translate(0,0)" fill="rgb(35,31,32)" d="M 1473.24 1048.26 C 1474.04 1048.52 1474.67 1048.68 1475.39 1049.17 C 1477.66 1050.7 1478.91 1054.64 1479.2 1057.24 C 1479.78 1062.36 1478.76 1065.61 1475.72 1069.7 C 1473.1 1068.54 1472.31 1068.28 1470.98 1065.56 C 1468.58 1060.65 1471.54 1052.9 1473.24 1048.26 z"/>
<path transform="translate(0,0)" fill="rgb(35,31,32)" d="M 1484.96 1068.35 L 1486.7 1069.83 C 1487.56 1074.6 1489.32 1082.3 1486.57 1086.82 C 1485.06 1089.29 1484.2 1089.4 1481.59 1090.2 C 1477.69 1089.07 1476.69 1087.48 1473.89 1084.61 L 1473.21 1084.43 C 1471.29 1082.11 1472.23 1079.36 1472.39 1076.43 C 1473.3 1074.96 1472.66 1075.41 1474.26 1074.99 C 1476.96 1076.17 1479.36 1077.57 1482.39 1077.17 L 1483.79 1075.32 C 1483.57 1073.24 1483.48 1071.83 1484.29 1069.89 C 1484.5 1069.37 1484.74 1068.86 1484.96 1068.35 z"/>
<path transform="translate(0,0)" fill="rgb(254,254,254)" d="M 658.136 849.095 C 663.243 850.171 668.637 849.831 673.839 849.838 C 673.554 850.09 673.272 850.346 672.985 850.596 C 672.506 851.011 672.015 851.412 671.541 851.833 C 663.335 859.139 649.943 861.938 643.436 870.518 C 641.913 872.526 641.833 873.663 642.044 876.093 C 651.275 890.887 693.227 882.851 708.454 893.614 L 709.463 894.339 C 709.672 894.219 709.9 894.127 710.09 893.978 C 710.557 893.614 710.98 893.198 711.425 892.808 C 713.855 893.715 715.012 894.552 716.801 896.425 L 716.45 898.151 C 706.905 907.18 688.304 904.565 676.98 911.479 C 675.696 913.654 675.679 915.003 675.684 917.5 C 679.977 924.764 691.526 922.24 698.079 928.444 C 698.29 928.643 698.493 928.85 698.7 929.053 C 702.308 929.657 706.061 930.162 709.586 931.152 C 713.458 932.241 717.83 934.643 719.856 938.187 L 719.047 939.822 C 704.947 944.203 680.777 931.299 664.339 934.19 C 662.57 936.086 662.629 936.137 662.432 938.738 C 666.889 948.228 680.459 953.55 689.712 956.978 C 694.629 959.159 698.948 961.097 702.82 964.913 L 702.733 966.453 C 689.928 970.429 669.046 957.172 654.661 955.863 C 652.121 955.632 650.932 955.607 648.956 957.34 C 648.97 957.654 648.942 957.973 649 958.283 C 650.48 966.22 661.21 968.223 667.059 971.708 C 668.984 972.856 669.255 973.265 669.626 975.534 C 670.033 978.016 668.908 980.615 667.494 982.537 C 664.612 983.343 662.744 982.669 659.905 981.652 C 639.569 974.364 594.506 939.123 585.492 919.819 C 586.317 913.574 585.19 905.794 586.809 899.913 C 588.919 892.251 603.771 888.695 610.238 885.442 C 620.04 880.51 623.418 873.785 626.881 863.963 A 89.1763 89.1763 0 0 1 658.136 849.095 z"/>
<path transform="translate(0,0)" fill="rgb(254,254,254)" d="M 1527.33 650.927 L 1530.45 651.084 L 1531.62 652.61 C 1531.53 662.779 1527.56 749.468 1526.46 751.148 C 1526.13 751.645 1525.76 752.113 1525.41 752.596 C 1527.68 784.14 1523.51 816.854 1521.93 848.393 C 1520.89 869.008 1523.88 895.58 1518.01 915.376 C 1515.49 918.479 1511.98 919.852 1508.47 921.573 C 1504.96 916.733 1502 911.672 1498.17 907.032 C 1495.07 904.943 1493.44 902.785 1490.87 900.212 C 1484.77 894.127 1478.49 891.35 1470.65 888.241 C 1473.96 848.454 1479.21 808.74 1481.92 768.91 C 1482.65 758.233 1481.96 747.481 1482.52 736.79 C 1483.65 715.371 1486 694.418 1484.83 672.915 C 1498.37 664.005 1511.87 655.995 1527.33 650.927 z"/>
<path transform="translate(0,0)" fill="rgb(35,31,32)" d="M 1502.91 783.001 C 1504.37 783.503 1505.27 784.006 1506.55 784.828 C 1506.97 786.142 1507.39 787.431 1507.61 788.798 C 1508.48 794.424 1506.88 800.148 1503.7 804.745 A 55.9602 55.9602 0 0 0 1501.29 800.09 C 1501.01 799.609 1500.67 799.157 1500.43 798.66 C 1498.08 793.972 1501.3 787.564 1502.91 783.001 z"/>
<path transform="translate(0,0)" fill="rgb(35,31,32)" d="M 1501.35 808.372 L 1503.09 809.424 C 1506.48 815.073 1501.74 822.371 1502.36 828.259 C 1502.52 829.834 1502.16 830.968 1501.77 832.483 L 1498.64 832.496 C 1496.79 830.125 1496.69 828.621 1496.56 825.589 C 1496.32 819.664 1497.22 812.771 1501.35 808.372 z"/>
<path transform="translate(0,0)" fill="rgb(35,31,32)" d="M 1511.34 808.657 C 1511.9 809.064 1512.52 809.495 1513.01 809.968 C 1516.09 812.934 1515.88 816.978 1515.7 820.95 C 1515.43 827.385 1513.92 833.925 1509.09 838.218 C 1508.72 837.965 1508.32 837.757 1507.98 837.459 C 1505.53 835.268 1507.29 824.148 1507.52 820.847 C 1507.87 815.908 1508.95 813.034 1511.34 808.657 z"/>
<path transform="translate(0,0)" fill="rgb(35,31,32)" d="M 1515.17 775.653 C 1518.41 779.344 1519.05 787.786 1518.83 792.525 C 1518.58 798.179 1518.1 804.165 1513.66 808.042 C 1513.42 807.954 1513.16 807.899 1512.93 807.777 C 1511.2 806.866 1510.76 806.663 1510.16 804.761 C 1508.24 798.699 1508.96 787.88 1511.98 782.262 C 1513.14 780.11 1514.12 777.862 1515.17 775.653 z"/>
<path transform="translate(0,0)" fill="rgb(35,31,32)" d="M 1501.6 703.265 L 1505.44 704.321 C 1512.34 711.917 1507.23 733.62 1506.91 743.65 L 1504.36 743.58 C 1498.79 736.067 1500.54 712.417 1501.6 703.265 z"/>
<path transform="translate(0,0)" fill="rgb(35,31,32)" d="M 1517.46 700.424 C 1519.04 701.409 1519.73 701.883 1520.59 703.606 C 1525.61 713.556 1520.98 732.779 1516.87 742.615 C 1515.48 742.917 1514.7 742.892 1513.31 742.774 C 1512.82 741.764 1512.58 741.383 1512.35 740.151 C 1510.24 728.891 1510.67 709.801 1517.46 700.424 z"/>
<path transform="translate(0,0)" fill="rgb(254,254,254)" d="M 1645.42 722.13 C 1651.1 724.072 1655.64 727.895 1660.93 730.652 C 1669.57 735.156 1678.48 738.13 1686.5 743.9 C 1710.37 761.072 1711.03 784.486 1715.23 810.869 C 1707.45 821.162 1703.15 834.288 1697.82 845.97 C 1690.75 861.495 1679.58 879.383 1667.95 891.952 C 1646.44 915.173 1624.85 934.642 1596.38 948.97 C 1589.69 952.341 1582.62 954.864 1575.88 958.122 C 1568.26 961.801 1557.9 968.744 1549.54 969.077 C 1543.5 963.295 1530.38 941.983 1525.94 934.314 C 1536.95 925.888 1549.57 920.111 1561.39 912.921 C 1594.14 893.005 1613.98 875.675 1638.78 846.44 C 1649.18 834.539 1673.05 800.019 1673.58 784.603 C 1673.69 781.483 1672.96 778.692 1670.54 776.546 C 1668.71 774.921 1665.36 774.025 1663.01 774.397 C 1651.51 776.219 1645.73 800.466 1640.2 808.96 A 269.792 269.792 0 0 1 1558.87 890.03 C 1554.23 893.018 1547.83 898.492 1542.51 899.62 C 1542.17 899.08 1541.75 898.579 1541.47 898 C 1540.61 896.196 1548.89 732.464 1550.18 729.841 C 1551.33 727.492 1552.23 727.202 1554.5 726.553 C 1555.47 734.026 1556.24 741.207 1559.27 748.219 C 1563.27 757.478 1570.21 764.436 1579.75 767.889 C 1591.05 771.98 1603.92 770.206 1614.65 765.194 C 1633.66 756.316 1638.7 740.138 1645.42 722.13 z"/>
<path transform="translate(0,0)" fill="rgb(254,254,254)" d="M 1713.39 858.541 C 1713.91 859.201 1714.71 859.715 1714.94 860.522 C 1715.79 863.522 1715.22 868.76 1715.48 872.021 C 1716.37 883.448 1717.66 895 1718.87 906.404 C 1720.32 920.174 1722.75 933.855 1724.06 947.635 C 1727.05 979.118 1728.37 1010.95 1730.8 1042.49 C 1731.9 1056.7 1733.73 1070.88 1734.91 1085.09 C 1735.1 1087.35 1736.41 1096.47 1734.94 1097.88 C 1729.51 1103.12 1716.8 1104.13 1709.5 1105.36 C 1671.57 1111.72 1633.31 1112.76 1594.93 1111.3 C 1578.15 1110.66 1561.58 1108.86 1544.75 1108.78 C 1537.61 1110.14 1526.32 1106.06 1518.54 1105.66 C 1520.47 1088.53 1521.46 1010.56 1525.55 1002.34 C 1527.2 999.035 1533.04 994.251 1536.37 992.614 C 1539.35 991.144 1542.78 994.401 1546.08 993.258 C 1552.67 990.967 1558.41 986.036 1564.67 982.956 C 1575.3 977.727 1587.1 974.217 1598.03 969.513 C 1609.45 964.6 1621.03 958.829 1631.13 951.529 C 1656.12 933.469 1701.98 887.216 1713.39 858.541 z"/>
<path transform="translate(0,0)" fill="rgb(254,254,254)" d="M 516.521 644.737 C 532.455 646.03 546.282 652.425 561.329 657.125 C 572.522 660.621 584.065 663.353 594.874 667.942 C 594.98 683.582 593.644 698.211 591.2 713.63 C 590.415 712.172 589.608 710.44 588.557 709.164 C 587.096 707.39 584.51 707.021 582.34 706.739 C 579.345 706.349 576.47 706.973 574.202 709.068 C 570.293 712.679 570 718.555 570.927 723.453 C 573.114 735.014 582.282 743.073 586.951 753.457 A 18.4333 18.4333 0 0 1 588.607 761.106 C 588.572 769.577 587.055 778.491 586.379 786.97 C 585.423 798.958 585.096 810.797 584.571 822.786 C 584.323 828.472 584.486 847.514 580.739 850.941 C 560.812 852.43 480.664 809.475 459.401 796.946 C 446.624 789.417 432.946 780.043 421.289 770.827 C 411.711 763.253 402.371 753.769 394.194 744.686 C 388.161 737.984 382.03 725.879 374.222 721.322 C 373.377 720.829 370.604 720.199 369.636 720.195 C 366.848 720.182 366.398 720.762 364.723 722.679 C 363.823 726.446 364.289 729.355 365.526 733.019 C 368.642 742.249 374.412 748.6 380.439 755.967 C 387.76 764.918 394.886 773.913 403.606 781.57 C 427.06 802.167 475.22 828.054 503.72 842.527 C 510.849 845.902 517.685 849.952 524.918 853.1 C 536.664 858.212 548.983 862.341 560.907 867.089 C 566.409 869.279 571.84 872.667 577.605 873.823 C 577.902 873.882 578.202 873.932 578.5 873.987 C 579.733 875.644 579.788 874.851 578.749 876.352 C 570.748 887.916 563.199 898.894 564.416 913.806 C 564.531 915.218 564.69 916.65 564.833 918.062 L 565.015 919.767 C 564.449 920 563.906 920.304 563.315 920.466 C 554.986 922.743 504.565 903.161 495.479 898.851 A 399.582 399.582 0 0 1 449.857 873.719 C 411.989 848.989 343.419 792.279 328.71 749.763 C 319.841 724.128 326.021 714.855 337.172 691.884 C 342.75 688.676 349.283 687.01 355.037 683.85 C 366.085 677.784 376.516 670.637 387.546 664.544 C 399.227 658.091 411.818 652.821 423.956 647.259 C 425.959 657.398 429.163 665.896 437.019 673.008 C 447.708 682.684 463.786 686.521 477.989 685.549 A 45.3132 45.3132 0 0 0 510.124 669.328 C 516.518 661.574 517.447 654.341 516.521 644.737 z"/>
<path transform="translate(0,0)" fill="rgb(254,254,254)" d="M 455.748 1238.36 C 458.043 1237.97 460.255 1238.19 462.561 1238.34 C 463.233 1238.79 464.217 1238.97 464.577 1239.7 C 466.635 1243.85 464.715 1280.06 464.815 1287.51 C 465.081 1307.43 465.775 1327.58 466.393 1347.5 C 466.65 1355.78 467.705 1364.06 467.69 1372.35 C 467.56 1447.49 463.22 1523.57 455.89 1598.34 C 454.407 1613.47 453.375 1628.75 451.251 1643.8 C 446.647 1676.41 433.785 1726.69 443.73 1757.72 C 441.966 1759.36 440.314 1761.09 438.688 1762.87 C 424.404 1778.53 422.319 1797.97 423.341 1818.26 C 406.14 1811.07 388.399 1807.41 370.461 1802.67 C 360.967 1800.16 351.868 1796.69 342.251 1794.52 C 333.279 1791.9 293.188 1782.05 289.679 1777.03 C 290.734 1756.69 305.088 1717.1 311.236 1696.02 L 358.306 1536.03 C 364.523 1515.11 371.71 1494.54 377.494 1473.46 C 388.526 1433.26 397.246 1392.33 406.606 1351.71 C 410.31 1335.64 414.743 1319.76 418.499 1303.71 C 423.278 1283.28 427.187 1262.42 432.772 1242.21 C 438.263 1237.66 448.664 1239.42 455.748 1238.36 z"/>
<path transform="translate(0,0)" fill="rgb(254,254,254)" d="M 333.247 801.277 C 344.556 807.548 353.483 821.407 362.395 830.762 C 372.905 841.794 383.976 852.583 395.855 862.135 C 432.249 891.399 474.489 916.398 518.572 932.09 C 532.335 936.989 547.349 937.929 560.786 943.952 C 561.968 945.539 562.842 946.635 563.255 948.613 C 564.646 955.255 562.32 965.914 562.128 972.926 L 558.71 1065.21 C 558.298 1076.72 556.378 1088.71 557.254 1100.18 C 557.281 1100.53 557.319 1100.89 557.351 1101.25 C 557.079 1101.41 556.809 1101.58 556.535 1101.74 C 556.08 1102 555.617 1102.26 555.163 1102.53 C 544.884 1108.63 531.904 1108.57 520.238 1109.84 C 476.179 1114.83 402.53 1113.55 359.384 1102.18 C 338.463 1096.66 318.101 1087.14 298.538 1078.11 C 299.285 1043.61 303.983 1010.06 307.716 975.815 C 310.769 947.804 312.862 919.267 317.32 891.46 C 319.453 878.154 323.436 865.122 325.621 851.818 C 328.413 834.817 328.21 818.013 333.247 801.277 z"/>
<path transform="translate(0,0)" fill="rgb(254,254,254)" d="M 596.694 314.336 C 598.377 314.049 601.813 313.825 603.237 314.766 C 606.635 317.012 608.047 322.453 609.057 326.233 C 619.49 365.294 616.832 452.488 609.178 492.865 C 605.815 510.61 600.416 530.522 591.048 546.192 C 581.067 562.889 562.235 573.444 543.808 578.079 C 526.754 582.369 505.731 585.194 488.122 584.593 C 462.42 583.716 417.467 572.596 395.19 559.401 C 394.859 559.18 394.522 558.968 394.198 558.736 C 372.565 543.283 361.82 521.013 361.169 494.554 C 360.901 483.648 362.007 472.55 360.237 461.746 L 359.999 460.343 C 367.082 459.1 376.156 457.009 380.5 450.671 C 386.134 442.452 377.988 434.01 379.464 425.627 C 380.711 418.541 386.963 411.033 389.977 404.37 C 401.251 379.441 403.851 348.212 398.439 321.561 C 410.609 324.822 422.913 328.539 435.37 330.502 C 443.505 331.784 452.006 331.792 460.226 332.124 C 492.971 333.449 523.24 330.685 555.356 324.219 C 568.746 321.523 581.646 316.526 595.171 314.548 L 596.694 314.336 z"/>
<path transform="translate(0,0)" fill="rgb(35,31,32)" d="M 455.202 371.042 C 456.625 370.985 458.057 370.956 459.48 371.021 C 463.562 371.208 467.692 372.658 470.343 375.904 C 472.714 378.808 473.358 382.735 472.69 386.358 C 471.512 392.756 467.3 397.334 462.076 400.854 C 456.971 400.458 450.487 399.51 447.175 395.236 C 445.123 392.587 444.392 389.169 444.935 385.889 C 445.994 379.484 450.271 374.876 455.202 371.042 z"/>
<path transform="translate(0,0)" fill="rgb(35,31,32)" d="M 576.638 362.086 C 579.124 361.949 582.233 361.522 584.666 362.105 C 588.429 363.006 591.075 365.471 592.856 368.85 C 595.109 373.122 595.123 378.207 593.397 382.663 C 591.204 388.325 588.081 391.018 582.596 393.339 C 580.011 393.75 577.565 394.081 574.947 393.551 C 572.28 393.012 569.723 390.695 568.405 388.401 C 565.79 383.847 565.823 378.22 567.47 373.347 C 569.33 367.845 571.369 364.578 576.638 362.086 z"/>
<path transform="translate(0,0)" fill="rgb(35,31,32)" d="M 536.735 393.852 C 539.426 393.838 543.082 393.378 545.261 395.19 C 553.621 402.14 560.643 415.092 561.106 425.987 C 561.535 436.07 556.608 443.312 550.222 450.505 C 547.918 451.32 545.054 452.545 542.564 451.968 C 539.856 451.341 539.279 450.19 537.877 448.052 C 537.145 441.372 539.16 438.419 542.912 433.13 C 538.526 424.699 531.621 410.231 532.04 400.689 C 532.172 397.693 534.7 395.766 536.735 393.852 z"/>
<path transform="translate(0,0)" fill="rgb(35,31,32)" d="M 557.227 467.408 C 558.354 467.612 559.378 467.754 560.469 468.161 C 563.989 469.473 566.087 473.112 567.266 476.472 C 570.612 486.01 568.418 498.214 564.137 507.116 C 560.328 515.038 553.757 521.4 545.369 524.256 C 532.123 528.767 519.633 523.811 507.848 517.923 C 502.419 514.89 498.241 511.358 495.063 505.939 C 490.485 498.134 486.992 486.966 489.942 477.99 C 491.565 473.05 495.575 471.7 499.924 469.574 A 166.085 166.085 0 0 0 557.227 467.408 z"/>
<path transform="translate(0,0)" fill="rgb(254,254,254)" d="M 541.646 487.416 C 543.07 487.244 544.648 487.514 546.082 487.621 L 547.119 489.362 C 547.139 492.212 546.997 494.246 545.607 496.794 C 543.833 500.046 540.334 503.223 536.551 503.738 C 532.65 504.27 528.717 502.959 525.483 500.911 A 178.62 178.62 0 0 1 521.483 498.656 C 518.584 496.964 514.811 494.86 513.895 491.425 C 517.72 487.109 533.73 488.717 540.103 487.676 L 541.646 487.416 z"/>
<path transform="translate(0,0)" fill="rgb(254,254,254)" d="M 1612.63 384.865 C 1615.96 384.649 1623.75 394.184 1626.41 396.874 C 1642.83 413.458 1659.86 427.339 1679.51 439.985 C 1688.53 445.789 1698.5 450.561 1706.77 457.43 C 1720.66 468.966 1725.27 485.822 1719.7 503.01 C 1717.04 511.221 1711.96 520.375 1713.01 529.174 C 1713.94 537.051 1718.55 539.115 1724.19 543.719 C 1728.83 543.341 1733.37 542.502 1737.96 541.803 C 1748.1 540.261 1761.48 544.132 1769.53 550.384 C 1776.24 555.598 1780.85 563.188 1781.57 571.737 C 1782.21 579.38 1778.91 586.374 1773.94 592.005 C 1763.64 603.7 1751.13 605.352 1736.54 606.22 C 1731.95 603.623 1725.07 599.268 1719.6 600.234 C 1709.15 602.082 1714.03 630.114 1707.55 641.151 C 1695.63 661.45 1669.6 669.642 1648.45 675.263 C 1622.55 681.718 1584.04 685.46 1558.27 678.797 C 1543.7 675.029 1555.54 643.037 1547.87 632.05 C 1546.68 630.346 1545.89 629.409 1543.9 628.726 C 1537.56 626.553 1529.53 626.241 1522.91 625.129 C 1508.26 622.67 1493.38 620.001 1478.93 616.59 C 1467.21 558.717 1474.47 497.553 1495.96 442.773 C 1499.84 432.885 1512.1 401.966 1521 397.355 C 1526.57 394.47 1540.96 400.643 1547.77 400.475 C 1570.38 399.919 1592.01 393.798 1612.63 384.865 z"/>
<path transform="translate(0,0)" fill="rgb(35,31,32)" d="M 1645.89 479.967 C 1647.54 480.489 1649.58 480.992 1651.06 481.872 C 1653 483.025 1654.26 484.865 1654.91 487.004 C 1656.41 491.953 1655.19 497.721 1652.61 502.085 C 1650.57 505.556 1648.6 508.177 1644.73 509.207 C 1640.92 508.078 1636.11 507.164 1634.1 503.295 C 1631.8 498.871 1634.31 491.885 1635.31 487.289 C 1638.64 484.528 1642.26 482.29 1645.89 479.967 z"/>
<path transform="translate(0,0)" fill="rgb(35,31,32)" d="M 1752.9 557.23 C 1756.65 558.503 1760.29 560.531 1762.03 564.289 C 1763.43 567.291 1763.01 570.523 1761.74 573.459 C 1759.2 579.325 1754.32 582.634 1748.66 585.102 C 1746.89 584.572 1745.04 584.056 1743.35 583.281 C 1740.32 581.889 1738.02 578.805 1737.33 575.57 C 1736.55 571.886 1737.66 567.948 1739.82 564.932 C 1743.37 559.973 1746.98 558.114 1752.9 557.23 z"/>
<path transform="translate(0,0)" fill="rgb(35,31,32)" d="M 1529.89 449.175 C 1532.3 449.023 1535.82 448.494 1538.13 449.107 C 1541.16 449.912 1543.16 451.927 1544.43 454.743 C 1546.6 459.543 1545.85 464.465 1543.82 469.159 C 1541.44 474.66 1539.36 476.477 1533.83 478.756 C 1530.94 479.079 1527.84 477.621 1525.56 475.872 C 1523.43 474.24 1522.24 471.898 1521.99 469.243 C 1521.24 461.519 1525.5 455.102 1529.89 449.175 z"/>
<path transform="translate(0,0)" fill="rgb(35,31,32)" d="M 1576.22 467.677 C 1578.68 467.901 1581.64 468.128 1583.75 469.551 C 1585.57 470.78 1586.37 472.403 1586.71 474.49 C 1588.36 484.624 1568.63 511.073 1562.86 519.878 C 1565.47 522.351 1567.48 524.499 1568.69 527.95 C 1569.7 530.848 1570.27 533.999 1568.55 536.781 C 1566.17 540.617 1561.78 541.159 1557.74 541.993 C 1553.87 540.955 1550.39 539.591 1547 537.43 C 1542.42 534.517 1538.49 531.375 1537.16 525.952 C 1537.75 523.276 1539.03 520.996 1540.47 518.692 C 1545.66 510.386 1552.49 502.876 1558.08 494.793 C 1564.26 485.854 1568.94 475.799 1576.22 467.677 z"/>
<path transform="translate(0,0)" fill="rgb(35,31,32)" d="M 1562.04 557.755 C 1564.23 558.537 1563.35 558.345 1565.37 558.671 C 1571.69 559.697 1577.74 561.321 1583.2 564.847 C 1589.14 568.686 1593.63 574.35 1594.74 581.462 C 1595.84 588.447 1593.75 595.643 1589.61 601.307 C 1583.06 610.276 1573.96 613.301 1563.55 615.142 C 1555.02 614.409 1546.12 611.968 1539.51 606.348 C 1532.83 600.671 1529.93 592.994 1529.7 584.366 C 1529.49 576.698 1531.03 568.779 1536.59 563.143 C 1542.99 556.653 1553.59 558.001 1562.04 557.755 z"/>
<path transform="translate(0,0)" fill="rgb(254,254,254)" d="M 1548.58 577.234 C 1558.77 576.139 1567.15 580.439 1576.21 584.539 L 1570.12 592.234 C 1567.18 593.807 1564.56 594.718 1561.17 594.549 A 14.0466 14.0466 0 0 1 1550.78 589.172 C 1548.83 586.689 1547.87 580.231 1548.58 577.234 z"/>
<path transform="translate(0,0)" fill="rgb(254,254,254)" d="M 1517.68 1128.19 C 1522.7 1129.96 1552.99 1134.83 1557.32 1134.56 C 1559.9 1134.39 1561.45 1132.84 1564.24 1133.17 C 1575.73 1134.53 1587.07 1136.9 1598.65 1138.09 C 1618.96 1140.19 1647.36 1140.09 1667.7 1138.13 C 1688.74 1136.1 1709.34 1131.1 1730.4 1129.4 C 1729.29 1142.29 1730.32 1155.39 1729.45 1168.34 C 1727.34 1199.7 1723.53 1231 1722.34 1262.45 A 1065.09 1065.09 0 0 0 1723.81 1360.99 C 1724.19 1367.48 1725.23 1373.91 1725.55 1380.41 C 1726.58 1401.45 1725.23 1422.73 1726.37 1443.85 C 1727.11 1457.61 1729.75 1471.28 1731.16 1484.99 C 1733.79 1510.48 1736.03 1535.94 1740.08 1561.28 C 1743.46 1582.43 1751.2 1602.72 1755.16 1623.74 A 1776.32 1776.32 0 0 0 1777.66 1729.6 C 1780.08 1739.87 1781.71 1750.58 1784.55 1760.68 C 1775.93 1761.1 1767.47 1761.17 1758.85 1760.84 C 1755.26 1757.66 1749.96 1754.68 1747.14 1750.94 C 1741.67 1743.71 1727.59 1709.28 1722.56 1698.58 C 1713.62 1679.57 1706.57 1660.05 1698.71 1640.6 C 1695.64 1633 1691.72 1625.77 1688.69 1618.18 C 1685.2 1609.44 1682.96 1600.13 1679.87 1591.23 C 1673.55 1573.05 1666.63 1555.73 1662.42 1536.84 C 1657.91 1516.57 1654.08 1495.7 1651.32 1475.13 C 1649.49 1461.56 1648.51 1447.7 1646.15 1434.23 C 1643.5 1419.08 1637.17 1404.74 1634.9 1389.5 C 1633.63 1380.9 1633.61 1372.15 1632.54 1363.53 C 1631.36 1354.02 1629.26 1344.69 1628.41 1335.13 C 1627.45 1324.24 1627.41 1313.29 1625.65 1302.49 L 1625.39 1300.92 C 1624.5 1283.8 1622.27 1255.27 1616.26 1239.83 C 1601.87 1234.82 1559.71 1224.97 1545.61 1229.08 C 1541.76 1230.2 1538.41 1232.44 1536.54 1236.08 C 1535.4 1238.3 1534.97 1240.66 1536.04 1243.03 C 1537.93 1247.18 1542.48 1248.99 1546.3 1250.87 C 1537.87 1290.76 1528.49 1330.12 1522.8 1370.56 C 1517.62 1407.39 1515.76 1444.74 1513.6 1481.81 C 1512.21 1505.74 1509.98 1529.79 1510.7 1553.78 C 1511.21 1570.93 1514.04 1588.29 1515.67 1605.39 C 1517.45 1624 1518.26 1642.73 1520.2 1661.32 C 1523.58 1693.76 1532.54 1725.58 1535.73 1757.9 L 1535.91 1759.84 C 1525.55 1758.6 1515.05 1757.88 1504.66 1756.89 C 1503.58 1755.21 1502.58 1753.48 1501.61 1751.73 C 1489.35 1729.74 1482.71 1707.52 1475.82 1683.61 C 1466.86 1652.52 1458.86 1620.61 1453.65 1588.63 C 1449.5 1563.17 1447.17 1537.66 1444.46 1512.05 C 1443.39 1501.96 1441.62 1491.97 1440.64 1481.86 A 797.233 797.233 0 0 1 1437.83 1367.45 C 1438.59 1353.21 1438 1337.92 1441.91 1324.18 C 1455.71 1321.01 1467.72 1309.93 1480.09 1303.26 C 1490.61 1297.58 1502.26 1294.05 1511.87 1286.74 C 1513.9 1276.78 1511.94 1266.11 1512.31 1255.98 C 1512.83 1241.87 1513.87 1227.75 1514.11 1213.64 C 1514.27 1204.14 1513.56 1194.65 1513.91 1185.14 C 1514.26 1175.97 1515.7 1166.87 1516.24 1157.71 C 1516.82 1147.77 1516.41 1138.15 1517.68 1128.19 z"/>
<path transform="translate(0,0)" fill="rgb(254,254,254)" d="M 347.937 1120.25 A 476.032 476.032 0 0 0 534.63 1127.44 C 541.536 1126.35 548.097 1126.01 554.98 1124.39 C 552.451 1155.38 552.981 1187.31 553.201 1218.39 C 553.332 1236.94 552.376 1256.27 555.32 1274.61 C 567.075 1276 579.566 1279.22 591.281 1276.73 C 586.501 1293.61 586.28 1310.9 583.359 1328.09 C 575.183 1376.21 567.714 1424.75 558.39 1472.64 C 551.728 1506.86 543.993 1540.69 536.288 1574.67 C 532.557 1591.12 529.499 1607.67 525.378 1624.04 C 519.767 1646.33 514.451 1668.76 508.439 1690.94 C 505.265 1702.65 501.195 1714.1 497.954 1725.77 C 495.594 1734.27 494.255 1743.07 492.338 1751.67 C 492.016 1753.12 492.105 1753.06 490.765 1753.86 C 481.758 1753.22 476.543 1747.8 468.386 1745.8 C 467.282 1745.53 466.158 1745.33 465.068 1745 C 462.026 1744.1 461.316 1743.48 459.747 1740.76 C 458.635 1729.95 470.475 1723.4 475.659 1715.48 C 476.888 1713.6 476.982 1713.59 476.448 1711.34 C 471.721 1708.66 465.992 1710.12 460.93 1710.96 C 463.062 1702.78 465.288 1694.66 466.507 1686.28 C 472.945 1678.77 487.49 1669.66 490.418 1660.34 C 491.106 1658.15 490.78 1657.76 489.832 1655.82 C 488.032 1655.03 487.35 1654.45 485.328 1654.64 C 477.77 1655.36 470.554 1663.86 466.061 1669.4 C 468.324 1658.18 468.619 1631.6 474.184 1623.34 C 477.496 1618.43 484.242 1615.81 487.615 1610.78 C 489.249 1608.34 489.301 1606.88 488.938 1604.05 C 488.13 1602.91 488.008 1602.04 486.489 1601.85 C 481.99 1601.31 477.06 1605.16 473.441 1607.49 C 475.678 1597.14 476.106 1575.29 478.964 1567.71 C 482.099 1559.4 501.166 1554.06 503.318 1543.83 C 503.832 1541.4 502.968 1540.55 501.621 1538.76 C 493.719 1537.64 489.241 1546.69 481.976 1547.93 C 480.789 1546.43 480.745 1528.62 480.226 1524.41 C 488.452 1508.11 499.388 1510.25 506.809 1498.65 C 506.78 1495.95 506.766 1495.44 505.397 1493.14 C 495.867 1490.45 488.629 1503.31 482.804 1502.78 C 480.309 1492.47 484.681 1480.5 481.678 1468.18 C 489.933 1445.66 509.445 1439.71 514.85 1427.7 C 515.301 1426.7 514.917 1425.59 514.25 1424.73 C 513.37 1423.6 512.166 1422.81 510.746 1422.71 C 502.333 1422.09 489.826 1437.71 484.099 1443.35 C 485.871 1431.34 482.498 1410.98 486.371 1400.77 C 490.293 1390.43 514.271 1382.51 515.741 1373.27 C 514.142 1371.08 513.737 1370.69 511.29 1369.54 C 501.041 1369.4 491.78 1381.8 484.731 1388.33 C 484.466 1382.13 483.521 1374.98 484.481 1368.86 C 486.486 1356.08 508.78 1343.1 516.754 1331.96 C 518.536 1329.46 519.487 1327.61 518.979 1324.57 C 507.533 1318.01 493.896 1345.5 484.601 1347.11 C 483.954 1346.19 483.737 1346.02 483.415 1344.77 C 482.673 1341.88 483.398 1336.86 483.438 1333.81 C 483.695 1314.34 494.785 1313.47 505.314 1299.84 C 506.926 1297.76 507.637 1296.46 507.299 1293.86 L 505.227 1293.19 C 496.145 1294.83 488.397 1305.03 481.767 1311.16 C 479.574 1299.24 478.866 1283.21 481.508 1271.48 C 486.362 1266.05 492.616 1260.56 496.875 1254.76 C 498.711 1252.25 498.334 1251.43 497.955 1248.53 C 497.009 1247.41 496.682 1246.33 495.092 1246.26 C 490.261 1246.05 484.217 1252.36 480.649 1255.29 A 404.531 404.531 0 0 1 478.657 1237.25 C 486.923 1236.73 500.438 1235.35 507.519 1230.84 C 510.273 1229.09 510.978 1227.29 511.71 1224.23 C 511.084 1220.34 508.924 1217.83 506.639 1214.7 C 494.64 1212.05 433.142 1219.23 422.663 1224.29 C 416.734 1227.15 414.121 1246.97 412.93 1253.19 C 407.762 1280.16 399.398 1306.03 393.087 1332.65 L 375.161 1405.65 C 369.101 1430.37 363.917 1455.15 353.944 1478.68 C 353.931 1485.7 349.477 1494.43 347.367 1501.27 C 343.739 1513.01 340.957 1524.94 337.161 1536.67 C 333.038 1549.42 327.92 1561.91 324.046 1574.72 C 312.148 1614.05 302.597 1654.2 291.303 1693.74 C 287.371 1707.51 281.517 1720.46 277.649 1734.25 C 275.355 1742.42 273.582 1750.51 272.368 1758.91 C 271.611 1764.16 271.688 1771.53 269.923 1776.4 C 269.191 1778.42 267.195 1779.85 265.153 1780.39 C 259.417 1781.91 249.562 1775.68 244.468 1773.29 C 241.756 1759.57 239.64 1728 240.288 1713.92 C 247.644 1710.06 255.304 1707 258.004 1698.41 L 257.067 1696.7 C 249.884 1695.18 245.191 1698.82 239.14 1702.03 C 239.107 1693.57 236.735 1674.99 239.364 1667.83 C 242.999 1657.94 264.622 1651.46 270.352 1641.86 C 269.9 1639.46 270.257 1639.27 268.354 1637.53 C 261.494 1636.79 252.791 1644.39 246.997 1647.93 C 244.096 1649.7 242.22 1650.78 238.862 1649.95 C 238.439 1649.16 238.921 1629.54 237.466 1623.19 C 246.822 1606.5 263.048 1591.17 277.78 1579.19 L 276.625 1578.73 L 278.951 1578.23 L 279.503 1576.8 C 278.123 1574.41 278.042 1574.58 275.396 1573.69 C 263.933 1574.4 254.691 1591.58 245.155 1596.79 C 243.47 1597.71 244.328 1597.5 242.144 1596.86 C 239.436 1591.51 240.978 1583.94 241.456 1578.13 C 241.918 1572.52 241.077 1563.76 242.859 1558.73 C 247.487 1545.67 273.961 1534.17 275.605 1525.16 L 273.544 1524.47 C 263.013 1525.89 253.992 1531.74 244.949 1536.93 C 247.615 1524.81 245.101 1511.94 249.189 1500.02 C 251.404 1493.56 275.401 1473.19 282.15 1469.07 C 286.597 1466.35 294.574 1464.58 297.783 1460.56 C 299.474 1458.44 299.31 1457.59 298.936 1455.14 C 296.917 1453.53 296.353 1453.18 293.605 1453.26 C 282.583 1453.6 258.138 1475.44 250.265 1482.83 C 252.025 1469.17 252.303 1455.71 254.64 1442.02 C 262.516 1432.56 272.437 1422.43 281.697 1414.3 C 287.524 1409.18 293.995 1404.46 299.46 1398.97 C 301.093 1397.33 302.525 1396.06 303.084 1393.75 C 290.068 1388.17 267.748 1421.11 256.463 1422.64 C 256.103 1417.01 258.65 1394.59 261.769 1390.26 C 261.998 1389.94 262.25 1389.64 262.482 1389.33 C 271.64 1376.87 282.864 1367.7 295.208 1358.63 C 299.832 1355.23 306.273 1351.48 309.936 1347.11 C 311.613 1345.11 311.894 1343.89 311.775 1341.35 C 310.106 1339.84 309.698 1339.89 307.385 1340.13 C 294.764 1341.43 271.559 1363.62 263.084 1372.96 A 1438.53 1438.53 0 0 1 265.614 1336.93 C 279.102 1325.45 289.924 1311.45 303.019 1299.64 C 312.297 1291.28 354.562 1265.75 356.665 1256.67 L 355.239 1256.16 C 338.247 1259.6 302.868 1286.34 289.446 1298.55 C 284.881 1302.71 278.686 1311.63 273.45 1314.1 C 271.809 1314.88 272.589 1314.71 270.574 1314.04 C 269.965 1312.62 269.884 1312.6 269.534 1310.86 C 268.573 1306.11 273.7 1276.67 276.55 1272.94 C 276.827 1272.58 277.129 1272.24 277.414 1271.89 C 290.01 1256.22 304.164 1240.34 318.66 1226.44 C 322.284 1222.97 326.047 1219.54 330.069 1216.53 C 336.896 1211.41 346.19 1208.3 349.663 1199.98 L 348.96 1198.28 C 335.478 1197.68 292.393 1241.69 279.347 1251.06 L 278.194 1250.73 C 277.495 1246.29 280.223 1236.24 281.296 1231.44 C 282.749 1224.95 288.301 1218.68 292.353 1213.51 C 306.835 1195.01 322.061 1182.64 341.853 1170.25 C 347.367 1166.8 353.904 1163.77 359.02 1159.92 C 361.117 1158.34 361.786 1157.16 362.111 1154.63 L 360.895 1153.07 C 359.544 1152.78 359.418 1152.68 357.845 1152.71 C 347.426 1152.89 310.024 1178.48 301.376 1185.79 C 295.837 1190.48 291.882 1196.96 286.453 1201.95 L 285.37 1202.94 A 1335.95 1335.95 0 0 1 288.471 1180.1 C 289.198 1175.37 290.259 1167.08 293.227 1163.36 C 294.358 1161.95 327.124 1131.84 328.021 1131.25 C 334.087 1127.28 340.907 1125.55 346.863 1121.08 C 347.225 1120.8 347.579 1120.52 347.937 1120.25 z"/>
<path transform="translate(0,0)" fill="rgb(254,254,254)" d="M 827.626 645.537 C 831.798 644.971 838.706 646.453 843.229 646.564 A 6670.7 6670.7 0 0 0 912.999 648.293 C 941.698 648.838 970.369 650.253 999.052 650.722 C 1013.31 650.955 1027.7 650.087 1041.92 650.537 C 1050.7 650.815 1059.42 652.294 1068.22 652.577 A 3646.74 3646.74 0 0 0 1207.97 653.509 C 1215.44 653.345 1225.79 657.84 1232.41 655.6 C 1244.1 651.646 1261.28 653.69 1273.83 653.724 L 1274.16 654.613 L 1274.72 656.087 C 1276.77 661.62 1278.86 666.8 1283.25 670.993 C 1289.95 677.405 1295.91 671.733 1303.44 671.812 C 1307.94 673.81 1309.7 675.755 1312.08 680.05 C 1314.18 683.842 1315.2 686.387 1319.3 688.12 C 1326.35 687.516 1331.32 683.581 1336.78 679.505 C 1339.33 680.61 1341.66 682.122 1344.12 683.405 C 1348.04 685.455 1353.62 686.252 1357.79 684.388 C 1365.01 681.17 1368.54 666.012 1371.07 658.957 A 639.997 639.997 0 0 1 1465.81 669.701 C 1467.34 704.842 1464.81 739.971 1461.98 774.998 C 1459.4 806.919 1456.7 838.663 1453.45 870.505 C 1451.47 889.919 1451.19 909.474 1449.11 928.955 C 1435.15 929.968 1419.86 925.296 1406.44 927.667 C 1402.92 928.288 1400.26 929.531 1398.28 932.67 C 1398.07 932.988 1397.89 933.316 1397.69 933.636 C 1394.96 938.041 1395.68 940.568 1394.51 945.197 C 1392.25 946.258 1391.02 946.658 1388.5 946.515 C 1386.47 946.4 1384.81 946.467 1382.78 946.82 C 1377.5 950.156 1375.18 958.331 1372.91 963.918 L 1379.61 975.604 L 1379.88 975.306 C 1375.24 980.662 1371.06 989.188 1371.87 996.453 C 1373.01 1006.76 1388.36 1015 1396.14 1020.39 C 1396.8 1023.61 1397.36 1027.19 1399 1030.08 C 1406.66 1043.56 1427.55 1044.44 1440.98 1048.51 C 1441.26 1058.12 1440.15 1067.84 1439.63 1077.44 C 1437.95 1108.69 1434.25 1139.76 1432.26 1170.96 C 1431.48 1183.26 1431.47 1195.61 1430.6 1207.9 C 1429.55 1222.95 1427.69 1237.91 1426.87 1252.99 C 1426.08 1267.48 1427.4 1283.16 1424.76 1297.37 C 1407.36 1296.66 1390.22 1293.76 1372.93 1291.9 C 1358.35 1290.32 1343.64 1289.86 1329.02 1288.55 C 1315.89 1287.37 1302.85 1285.38 1289.71 1284.25 C 1278.05 1283.26 1266.45 1283.68 1254.78 1283.34 C 1246.67 1283.09 1238.59 1281.94 1230.48 1281.53 C 1223.31 1281.16 1216.12 1281.51 1208.94 1281.25 C 1173.05 1279.92 1137.18 1277.34 1101.24 1277.23 C 1070.01 1277.05 1038.85 1273.85 1007.62 1273.04 C 989.816 1272.58 971.724 1272.17 953.922 1272.15 C 943.53 1272.14 933.04 1272.81 922.664 1272.17 C 909.413 1271.34 896.251 1269.11 883.011 1268.08 C 862.658 1266.49 842.13 1266.63 821.737 1265.43 C 805.839 1264.49 790.145 1262.1 774.186 1261.4 C 755.061 1260.56 735.951 1261.78 716.852 1261.11 C 695.227 1260.36 673.693 1257.82 652.034 1257.59 L 603.491 1257.26 C 597.121 1257.17 590.352 1257.73 584.05 1256.99 C 581.046 1256.63 578.215 1255.56 575.467 1254.35 C 571.25 1249.2 573.1 1231.26 572.941 1224.2 A 2260.69 2260.69 0 0 1 576.34 1046.04 C 578.076 1013.07 581.044 980.16 582.082 947.151 C 601.152 968.663 637.316 992.698 665.466 999.998 C 670.12 997.599 674.741 995.19 679.273 992.563 C 680.23 990.82 681.199 988.783 682.446 987.237 C 686.548 982.154 703.977 984.894 710.626 983.845 C 731.207 980.598 721.179 966.47 724.696 959.61 C 725.819 957.42 735.76 949.958 739.279 944.889 C 738.88 939.012 737.939 934.238 736.078 928.689 C 730.985 923.448 724.192 920.763 718.174 916.711 C 726.973 911.513 731.935 908.496 737.121 899.62 L 735.312 889.114 C 713.57 868.892 705.877 876.113 680.667 872.51 C 678.16 872.151 675.064 871.704 673.405 869.628 C 676.612 862.763 688 861.514 691.465 851.455 C 692.541 848.334 692.336 845.107 690.67 842.235 C 688.088 837.783 682.344 834.469 677.462 833.302 C 663.963 830.074 632.178 841.008 621.493 849 C 617.634 851.888 615.151 856.393 611.083 858.978 C 608.756 857.848 607.142 856.957 604.474 857.077 C 602.62 857.16 602.423 857.298 600.861 856.333 C 600.792 855.931 600.695 855.533 600.653 855.127 C 599.857 847.493 602.262 837.716 602.636 829.877 A 1932.5 1932.5 0 0 1 612.13 703.941 C 613.044 695.418 613.549 652.502 616.324 648.776 C 630.164 644.017 674.405 648.429 692.207 648.502 C 722.763 648.626 753.181 647.329 783.712 646.479 C 797.808 646.087 812.23 647.098 826.234 645.685 L 827.626 645.537 z"/>
<path transform="translate(0,0)" fill="rgb(35,31,32)" d="M 999.383 1135.02 C 1001.07 1134.82 1003.36 1134.34 1005.02 1134.59 C 1007.84 1135.02 1008.49 1136.39 1010.14 1138.46 C 1010.91 1142.05 1011.04 1145.37 1010.74 1149.03 C 1010.12 1156.87 1003.43 1209.43 1001.53 1213.77 C 1000.22 1216.79 996.841 1217.93 994.022 1219.22 C 991.207 1219.19 989.244 1218.98 986.515 1218.11 C 984.034 1215.6 983.115 1214.2 983.06 1210.6 C 982.91 1200.79 990.377 1154.62 993.542 1145.22 C 994.907 1141.17 996.507 1138.18 999.383 1135.02 z"/>
<path transform="translate(0,0)" fill="rgb(35,31,32)" d="M 1032.29 685.047 C 1036.49 684.827 1040.02 684.477 1043.26 687.788 C 1046.09 690.675 1046.73 695.799 1046.65 699.651 C 1046.23 719.718 1037.83 739.127 1037.87 759.578 C 1037.89 766.05 1037.18 769.688 1032.43 774.188 C 1026.41 773.79 1023.63 771.781 1019.19 767.76 C 1018.42 750.66 1023.28 698.709 1032.29 685.047 z"/>
<path transform="translate(0,0)" fill="rgb(35,31,32)" d="M 1057.67 862.114 C 1063.87 864.253 1075.72 862.796 1082.61 863.093 C 1096.1 875.974 1107.32 892.26 1111.22 910.791 C 1117.54 940.801 1108.63 980.444 1091.89 1005.91 C 1079.53 1024.7 1063.03 1043.96 1040.23 1048.75 C 1039.76 1048.87 1039.3 1049 1038.83 1049.11 C 1038.21 1049.27 1037.57 1049.4 1036.95 1049.56 C 1029.06 1051.55 1017.54 1047.96 1010.41 1044.36 C 999.497 1038.85 992.677 1029.27 989.014 1017.79 C 977.616 982.083 993.487 937.756 1010.55 906.265 C 1021.58 885.89 1034.59 868.976 1057.67 862.114 z"/>
<path transform="translate(0,0)" fill="rgb(254,254,254)" d="M 1052.13 884.043 C 1055.48 883.642 1058.35 883.49 1061.55 884.747 C 1072.83 889.178 1082.08 902.475 1086.93 913.286 C 1094.66 930.521 1090.52 957.08 1083.97 974.199 C 1076.78 993.006 1059.53 1020.07 1040.69 1028.41 C 1033.99 1029.93 1028.48 1029.88 1021.96 1027.58 C 1015.16 1025.19 1010.16 1019.82 1007.2 1013.35 C 995.921 988.714 1009.49 950.313 1018.83 927.002 C 1025.35 910.723 1035.25 891.268 1052.13 884.043 z"/>
<path transform="translate(0,0)" fill="rgb(35,31,32)" d="M 1044.37 927.853 C 1048.59 928.643 1052.66 928.792 1056.94 928.923 C 1059.05 930.607 1061.31 932.318 1062.92 934.519 C 1068.01 941.512 1067.56 955.436 1066 963.518 C 1064.07 973.508 1059.43 980.441 1051 985.9 C 1049.34 986.375 1047.82 986.727 1046.1 986.865 C 1041.34 987.246 1036.77 986.694 1033.11 983.34 C 1029.21 979.766 1027.92 974.078 1027.78 968.994 C 1027.5 959.173 1032.04 941.614 1038.81 934.634 C 1040.41 932.979 1041.9 931.445 1043.22 929.546 C 1043.61 928.985 1043.98 928.417 1044.37 927.853 z"/>
<path transform="translate(0,0)" fill="rgb(35,31,32)" d="M 1205.43 868.518 C 1206.87 868.399 1206.07 868.378 1208 868.803 C 1220.29 871.502 1230.43 873.845 1240.66 881.724 C 1250.8 889.532 1253.95 903.602 1255.44 915.773 C 1258.9 944.04 1248.37 999.016 1230.53 1021.2 C 1216.71 1038.38 1196.23 1050.26 1174.25 1052.68 C 1163.1 1049.06 1153.1 1053.03 1142.9 1045.13 A 57.5026 57.5026 0 0 1 1120.61 1004.93 C 1117.41 973.539 1134.15 940.363 1148.47 913.467 C 1153.22 904.565 1157.74 894.982 1164.35 887.281 C 1175.22 874.613 1189.33 869.932 1205.43 868.518 z"/>
<path transform="translate(0,0)" fill="rgb(254,254,254)" d="M 1205.21 884.486 L 1206.43 884.261 C 1216.3 888.748 1219.24 895.115 1226.74 901.919 C 1226.96 902.121 1227.2 902.304 1227.43 902.496 C 1229.04 911.386 1230.23 920.856 1230.66 929.883 C 1231.94 956.127 1225.68 995.047 1207.2 1014.75 C 1197.3 1025.31 1183.5 1030.48 1169.25 1031.09 C 1165.38 1031.27 1161.64 1031.3 1157.89 1030.13 C 1147.46 1026.89 1143.08 1016.24 1138.37 1007.4 C 1140.3 996.624 1139.64 985.626 1141.78 974.829 C 1145.61 955.515 1165.55 913.623 1177.74 898.592 C 1186.44 887.857 1191.87 885.842 1205.21 884.486 z"/>
<path transform="translate(0,0)" fill="rgb(35,31,32)" d="M 1183.94 930.193 C 1205.54 930.168 1195.85 944.087 1203.41 950.893 C 1204.81 952.149 1204.97 952.361 1205.33 954.17 C 1202.96 965.953 1190.04 978.933 1181.25 986.715 C 1180.81 986.828 1180.37 986.963 1179.93 987.056 C 1172.59 988.587 1167.53 986.105 1161.32 982.414 C 1159.39 970.019 1159.73 950.883 1166.92 940.228 C 1171.36 933.644 1176.45 931.727 1183.94 930.193 z"/>
<path transform="translate(0,0)" fill="rgb(35,31,32)" d="M 918.94 819.74 C 922.786 820.953 926.576 823.403 930.42 824.865 C 940.297 828.62 950.446 831.398 960.194 835.554 C 963.998 837.176 974.715 841.201 975.989 845.343 C 980.115 858.757 941.277 923.946 934.027 940.582 C 945.107 942.017 961.536 946.194 969.385 954.503 C 971.505 956.748 972.854 959.179 972.66 962.344 C 972.224 969.461 969.2 976.974 967.429 983.913 C 964.345 996.002 954.072 1045.31 943.83 1051.35 C 939.257 1054.05 911.272 1056.99 906.122 1056 C 903.856 1055.56 902.397 1055.85 900.184 1056.47 C 899.901 1056.55 899.62 1056.64 899.339 1056.72 C 898.865 1056.83 898.391 1056.94 897.916 1057.04 C 891.581 1058.35 879.672 1059.87 874.382 1055.59 C 866.987 1049.61 869.849 1029.16 869.655 1020.07 C 863.659 1016.45 857.755 1012.98 851.304 1010.21 C 840.621 1005.63 810.81 997.299 803.487 989.82 C 801.581 987.874 801.67 985.638 801.969 983.074 C 803.177 972.7 840.973 916.087 849.47 904.212 C 860.523 888.764 872.522 873.875 884.24 858.917 C 891.512 849.635 898.486 839.79 906.319 830.979 C 910.042 826.791 914.602 823.267 918.94 819.74 z"/>
<path transform="translate(0,0)" fill="rgb(254,254,254)" d="M 942.569 882.778 C 943.488 884.164 943.594 883.701 943.207 885.211 C 941.745 890.932 918.337 935.106 914.642 939.694 C 913.664 940.909 912.674 941.486 911.37 942.297 L 910.178 940.97 C 910.166 935.597 937.299 890.937 942.569 882.778 z"/>
<path transform="translate(0,0)" fill="rgb(254,254,254)" d="M 918.003 843.765 C 924.314 845.256 930.386 848.809 936.056 851.855 C 928.89 859.534 924.57 871.58 919.55 880.805 L 894.258 926.921 C 890.385 934.047 885.606 940.648 882.227 948.03 C 882.425 949.93 882.311 950.304 883.413 952.014 C 890.714 963.336 915.895 963.384 928.037 966.119 C 920.546 987.214 919.668 1007.86 916.402 1029.67 C 915.97 1032.55 915.174 1034.43 912.494 1035.94 C 909.626 1037.56 892.086 1037.52 888.357 1036.51 L 886.997 1034.05 C 887.617 1031.53 888.213 1029.17 888.258 1026.55 C 888.432 1016.45 890.702 1005.6 889.267 995.655 C 887.147 992.702 883.875 991.233 880.546 989.985 C 877.11 988.698 840.359 980.755 837.36 980.717 C 834.372 980.679 836.421 981.312 834.411 980.71 C 831.31 979.782 828.199 979.153 825.237 977.806 C 829.098 966.349 839.353 954.14 846.087 943.995 C 853.63 932.63 860.563 920.867 868.23 909.594 A 911.026 911.026 0 0 1 918.003 843.765 z"/>
</svg>