<svg version="1.1" xmlns="http://www.w3.org/2000/svg" style="display: block;" viewBox="0 0 2048 2048" width="1024" height="1024">
<path transform="translate(0,0)" fill="rgb(255,255,255)" d="M 0 0 L 2048 0 L 2048 2048 L 0 2048 L 0 0 z"/>
<path transform="translate(0,0)" fill="rgb(0,0,0)" d="M 813.301 53.4396 A 94.3772 94.3772 0 0 1 817.502 53.4498 C 834.671 53.8337 850.504 56.3575 867.314 59.6679 C 892.026 64.5343 914.758 68.584 932.764 87.9047 C 945.123 101.166 946.398 114.204 945.758 131.424 C 952.87 130.347 962.168 129.21 968.521 125.794 C 976.622 121.439 983.213 114.578 992.069 111.553 C 995.118 110.512 998.61 109.891 1001.57 111.505 C 1003.53 112.573 1004.37 114.934 1004.8 116.996 C 1008.79 136.122 991.723 156.076 982.184 170.902 C 993.744 174.069 1017 178.549 1023.15 189.991 C 1024.48 192.473 1024.77 195.133 1023.91 197.823 C 1019.74 210.93 990.47 223.825 979.121 230.256 C 977.391 238.551 977.467 247.564 976.814 256.021 C 975.304 275.571 971.397 291.648 963.616 309.552 C 964.008 309.697 964.405 309.83 964.792 309.988 C 974.32 313.877 982.357 322.086 986.258 331.592 C 993.737 349.819 988.289 370.941 977.324 386.406 C 972.221 393.604 967.444 397.695 962.874 405.537 C 961.054 408.66 950.674 408.645 946.977 409.267 C 944.339 409.71 939.629 410.521 937.822 412.722 C 930.485 421.653 935.245 467.034 919.22 488.405 C 902.021 511.341 851.875 515.153 824.742 518.965 C 824.118 534.483 825.151 547.077 829.596 562.027 C 840.161 564.288 851.079 564.508 861.684 566.608 C 876.059 569.454 890.144 573.812 904.528 576.741 C 920.896 580.073 937.524 582.175 953.848 585.677 C 995.74 594.665 1038.22 608.954 1077.27 626.551 C 1116.74 644.34 1152.52 679.406 1172.84 717.698 C 1188.01 746.288 1197.91 777.224 1209.43 807.311 C 1247.42 802.07 1286 800.928 1324.22 798.314 C 1346.73 796.775 1369.29 794.155 1391.72 791.695 C 1392.51 788.059 1393.39 784.413 1394.54 780.874 C 1398.47 768.821 1408.41 758.331 1419.64 752.721 C 1436.12 744.492 1457.63 743.986 1474.81 749.676 C 1480.51 743.808 1487.16 740.418 1495.32 739.163 C 1507.91 737.227 1516.59 742.109 1526.48 749.01 C 1530.06 746.547 1534.04 744.525 1537.83 742.377 C 1547.72 742.774 1555.88 742.818 1563.63 749.805 C 1572.36 746.527 1580.74 744.189 1590 747.079 C 1602.84 751.089 1610.07 762.971 1616.17 774.053 C 1632.27 772.899 1647.92 768.028 1664.16 767.314 C 1676.08 766.789 1688.52 768.844 1700.43 769.903 C 1722.8 771.892 1745.92 772.556 1768.15 769.163 C 1772.3 768.53 1779.1 767.61 1782.8 770.139 C 1786.54 772.694 1788.48 781.207 1789.61 785.522 C 1792.91 798.168 1792.67 811.967 1794.94 824.883 C 1800.05 853.903 1805.81 881.723 1808.77 911.143 C 1813.06 953.76 1813.76 996.752 1818.58 1039.25 C 1820.53 1056.43 1825.3 1073.17 1827.3 1090.34 C 1829.37 1108.15 1827.97 1126.03 1829.7 1143.8 C 1832.65 1174.03 1837.26 1204.17 1840.86 1234.34 C 1843.56 1256.9 1845.24 1279.67 1847.37 1302.3 L 1853.46 1368.85 C 1854.57 1381.4 1856.39 1394.38 1856.22 1406.98 C 1856.13 1414.41 1852.83 1419.72 1849.19 1425.92 C 1841.49 1430.47 1832.23 1432.94 1823.91 1436.23 C 1812.04 1440.92 1800.19 1446.34 1788.78 1452.07 C 1774.76 1459.12 1763.66 1470.77 1748.21 1475.07 C 1727.43 1480.86 1705.93 1479.55 1684.67 1481.62 L 1570.92 1493.09 C 1541.61 1495.79 1512.65 1502.54 1483.36 1505.53 C 1472.07 1506.68 1460.63 1504.17 1449.29 1504.9 C 1436.22 1505.75 1423.07 1508.37 1410.07 1510.08 C 1392.76 1512.35 1375.18 1513.91 1357.76 1515.26 C 1343.98 1516.33 1330.31 1513.58 1316.61 1514.6 C 1272.4 1517.87 1228.35 1527.27 1184.2 1531.97 C 1146.59 1535.96 1088.8 1533.54 1054.51 1545.44 C 1052.14 1580.2 1053.38 1614.12 1053.89 1648.88 C 1054.22 1672.26 1053.46 1695.44 1055.04 1718.81 C 1056.11 1734.7 1058.21 1750.48 1059.61 1766.34 C 1061.01 1782.28 1061.16 1798.34 1062.12 1814.31 C 1063.24 1832.78 1065.04 1851.21 1065.16 1869.72 C 1084.31 1884.45 1107.15 1897.23 1127.95 1909.68 C 1143.37 1918.91 1163.22 1927.58 1174.63 1941.71 C 1177.56 1945.34 1179.78 1949.93 1179.03 1954.72 C 1178.39 1958.86 1175.66 1962 1172.39 1964.43 C 1146.49 1983.63 1033.47 1967.29 1000.17 1962.95 C 981.798 1960.61 963.109 1956.72 945.814 1949.98 C 940.566 1947.94 920.454 1935.78 918.485 1935.73 C 916.384 1935.67 916.931 1936.02 915.215 1935.09 C 908.857 1931.61 905.223 1905.06 902.992 1897.63 C 898.466 1882.55 891.226 1868.39 887.128 1853.11 C 878.662 1821.54 872.976 1788.82 867.498 1756.63 A 5063.06 5063.06 0 0 1 850.609 1655.33 C 845.753 1624.13 844.221 1592.12 837.668 1561.24 L 768.583 1565.96 C 753.261 1566.91 737.366 1566.94 722.219 1569.38 C 716.818 1588.03 714.397 1607.85 711.441 1627 C 702.693 1683.68 698.38 1739.46 695.849 1796.71 A 846.436 846.436 0 0 0 694.889 1830.91 C 694.88 1847.68 697.134 1866.18 691.758 1882.27 C 691.889 1882.4 692.021 1882.53 692.15 1882.66 C 718.607 1910.02 765.367 1932.26 798.109 1950.75 C 804.52 1954.37 817.39 1961.03 818.823 1968.84 C 819.398 1971.97 818.776 1974.86 816.931 1977.45 C 810.562 1986.38 794.146 1989.01 783.917 1990.32 C 728.54 1997.39 593.191 1982.48 549.842 1948.6 C 536.998 1938.56 531.804 1926.11 529.821 1910.32 C 525.474 1906.1 522.972 1902.58 520.925 1896.84 C 512.067 1872.03 510.408 1834.79 508.07 1807.96 C 506.604 1791.13 504.296 1774.35 503.051 1757.51 C 501.611 1738.01 501.332 1718.23 500.98 1698.68 C 500.53 1673.74 502.17 1648.6 500.973 1623.71 C 498.587 1574.11 490.921 1524.56 487.308 1475.03 C 484.917 1442.25 487.409 1409.06 483.752 1376.24 C 472.554 1365.33 458.071 1350.91 452.43 1336.07 C 449.204 1337.09 445.904 1338.19 442.57 1338.78 C 417.159 1343.24 361.477 1316.58 339.748 1304.38 C 324.854 1296.01 310.322 1286.06 296.646 1275.83 C 249.785 1240.76 223.687 1197.25 202.101 1143.65 C 195.275 1126.7 188.537 1109.45 185.995 1091.26 C 180.523 1052.1 184.104 999.48 196.293 961.852 C 201.395 946.102 208.717 930.847 214.555 915.314 C 222.302 894.701 229.814 872.06 240.955 853.018 C 251.121 835.641 263.507 820.795 275.445 804.717 C 286.426 789.929 296.679 774.608 307.82 759.917 C 319.162 744.961 331.077 729.089 344.522 715.985 C 357.185 703.643 373.051 693.907 387.387 683.611 C 413.319 664.988 438.663 647.988 467.575 634.155 C 532.426 603.125 643.59 579.498 714.667 569.675 C 718.773 550.66 719.047 530.801 720.091 511.419 C 708.239 509.712 694.835 506.576 684.215 500.893 C 678.531 497.851 673.793 493.803 670.203 488.421 C 661.176 474.885 651.711 437.838 646.577 420.946 C 628.213 424.94 613.105 423.29 596.636 413.761 C 582.807 405.76 573.796 393.787 569.769 378.374 C 565.756 363.016 567.488 344.97 575.89 331.351 C 582.86 320.052 592.982 313.276 605.735 310.307 C 599.515 287.846 593.755 265.837 592.871 242.389 C 591.29 200.44 603.959 164.577 632.651 133.685 C 645.532 119.816 659.465 106.647 675.355 96.2707 C 700.231 80.0267 750.084 61.8084 779.626 56.3764 C 790.79 54.3237 801.99 53.8929 813.301 53.4396 z"/>
<path transform="translate(0,0)" fill="rgb(255,255,255)" d="M 1577.85 762.992 C 1578.27 762.981 1578.68 762.959 1579.1 762.959 C 1584.15 762.966 1587.11 763.922 1590.59 767.688 C 1598.48 776.242 1600.63 791.381 1600 802.726 C 1599.03 820.11 1593.18 833.701 1580.17 845.331 C 1577.27 847.738 1574 849.659 1570.82 851.667 C 1579.05 832.577 1586.37 809.033 1582.5 787.969 C 1581.18 780.772 1576.21 770.065 1577.85 762.992 z"/>
<path transform="translate(0,0)" fill="rgb(255,255,255)" d="M 954.414 321.409 C 958.095 323.169 961.075 325.304 963.689 328.488 C 969.97 336.138 971.521 346.313 970.331 355.889 C 969.123 365.608 965.188 381.418 957.174 387.589 C 952.397 389.102 947.228 389.827 942.311 390.806 C 944.452 375.994 948.088 331.972 954.414 321.409 z"/>
<path transform="translate(0,0)" fill="rgb(255,255,255)" d="M 1541.07 758.438 C 1545.71 758.911 1547.8 760.632 1550.76 764.114 C 1560.35 775.389 1561.7 792.971 1560.36 807.104 C 1557.17 840.717 1551.33 846.368 1525.99 867.123 C 1521.97 869.668 1519.31 870.05 1514.73 869.649 C 1514.93 868.74 1514.68 869.211 1515.93 868.652 C 1529.31 862.674 1536.24 852.053 1539.67 837.991 C 1541.99 828.461 1543.44 818.387 1543.28 808.577 C 1543.06 795.124 1537.79 774.657 1538.56 764.584 C 1538.74 762.236 1539.89 760.415 1541.07 758.438 z"/>
<path transform="translate(0,0)" fill="rgb(255,255,255)" d="M 1495.04 757.03 C 1496.82 756.957 1498.69 756.842 1500.45 757.025 C 1505.31 757.531 1509.21 761.352 1512.14 764.978 C 1523.44 778.93 1527.2 801.247 1525.09 818.67 C 1523.9 828.513 1520.63 840.545 1512.56 846.889 C 1509.91 848.244 1506.63 850.14 1503.54 849.986 C 1501.07 849.862 1500.5 848.713 1499.16 846.958 C 1500.45 841.535 1502.3 836.441 1503.19 830.9 C 1505.83 814.459 1506.38 791.934 1499.5 776.439 C 1497.11 771.049 1492.88 766.033 1489.43 761.251 C 1490.12 758.952 1492.97 758.172 1495.04 757.03 z"/>
<path transform="translate(0,0)" fill="rgb(255,255,255)" d="M 833.452 588.814 C 840.046 589.219 846.514 590.548 853.003 591.728 C 850.399 603.759 845.465 613.5 836.155 621.806 C 816.729 639.139 784.044 643.947 758.996 642.7 C 734.708 641.491 716.078 632.794 699.703 614.934 C 697.591 611.778 695.009 608.27 693.451 604.82 C 692.313 602.299 692.628 601.047 693.437 598.501 C 695.935 596.022 699.231 595.872 702.548 595.266 C 704.422 598.677 706.292 602.115 708.351 605.419 C 717.831 620.632 735.831 629.547 752.748 633.441 C 771.915 637.853 793.738 635.763 810.443 624.775 C 823.461 616.212 830.324 603.685 833.452 588.814 z"/>
<path transform="translate(0,0)" fill="rgb(255,255,255)" d="M 616.637 332.132 C 620.118 331.87 623.896 331.878 626.932 333.831 C 634.047 338.407 635.761 352.221 637.761 360.026 C 635.014 358.697 631.743 356.745 628.792 356.065 C 626.188 355.466 624.939 356.12 622.92 357.618 C 621.21 361.977 622.345 368.398 624.222 372.616 C 625.248 374.921 626.399 375.376 628.661 376.134 C 632.523 375.59 635.756 373.062 638.998 371.024 C 640.353 371.744 640.439 372.636 640.855 374.046 C 642.581 379.889 641.127 389.36 638.443 394.647 C 635.844 396.369 633.653 396.914 630.577 397.049 C 618.095 397.595 605.343 392.206 596.09 384.091 C 595.748 383.238 595.402 382.387 595.09 381.523 C 591.243 370.864 592.006 357.593 597.16 347.458 C 601.674 338.581 607.45 335.025 616.637 332.132 z"/>
<path transform="translate(0,0)" fill="rgb(255,255,255)" d="M 1449.56 765.396 C 1451.29 765.156 1453.25 765.133 1454.97 765.399 C 1464.12 766.812 1472.48 774.24 1477.41 781.662 C 1486.17 794.839 1487.21 810.753 1483.89 825.83 C 1481.84 835.116 1477.63 847.072 1469.09 852.165 C 1465.32 854.414 1461.7 854.623 1457.54 853.551 C 1455.37 848.302 1460.39 838.777 1462.38 833.467 C 1464.08 827.311 1466 820.999 1466.19 814.572 C 1466.43 806.575 1464.14 798.747 1458.49 792.913 C 1441.35 775.205 1423.26 788.967 1407.55 788.412 L 1406.9 787.007 C 1407.56 785.437 1407.23 785.984 1408.5 784.332 C 1418.32 771.549 1434.33 767.083 1449.56 765.396 z"/>
<path transform="translate(0,0)" fill="rgb(255,255,255)" d="M 749.018 516.746 C 763.952 517.142 779.001 518.916 793.968 519.607 C 793.584 526.999 794.099 534.407 794.891 541.759 C 797.139 562.634 800.468 575.657 817.518 589.401 C 810.78 601.282 802.2 607.74 789.577 612.505 C 787.648 612.992 785.711 613.364 783.748 613.685 C 757.006 618.069 742.59 610.323 721.545 595.245 L 734.126 588.02 C 747.629 565.626 744.635 542.471 748.812 517.893 L 749.018 516.746 z"/>
<path transform="translate(0,0)" fill="rgb(255,255,255)" d="M 1034.36 1897.64 L 1047.59 1896.41 C 1060.15 1901.79 1117.29 1935.34 1126.58 1944.28 C 1092.71 1947.59 1058.05 1944.99 1024.24 1942.23 C 1009.44 1940.91 994.689 1940.18 980.223 1936.55 C 964.687 1932.65 950.158 1925.97 935.003 1920.9 C 932.208 1913.36 930.183 1905.65 928.118 1897.88 C 963.393 1898.51 999.135 1900.25 1034.36 1897.64 z"/>
<path transform="translate(0,0)" fill="rgb(255,255,255)" d="M 657.614 1900.59 L 669.815 1899.86 C 698.615 1926.31 734.722 1946.32 768.522 1965.66 C 735.075 1968.2 701.023 1963.11 668.042 1957.74 C 636.69 1952.07 588.609 1944.19 561.577 1927.73 C 557.94 1921.23 555.489 1913.94 552.783 1907.01 C 566.624 1907.19 580.864 1905.09 594.701 1904.19 C 615.678 1902.84 636.647 1902.3 657.614 1900.59 z"/>
<path transform="translate(0,0)" fill="rgb(255,255,255)" d="M 536.848 1188.92 C 538.795 1189.16 540.477 1189.67 542.367 1190.2 C 544.085 1192.07 545.628 1194.15 545.944 1196.76 C 548.193 1215.33 510.997 1225.45 505.341 1235.75 C 504.087 1238.04 504.136 1238.56 504.817 1240.88 C 512.885 1248.7 537.595 1246.12 548.673 1247.55 C 556.786 1248.6 565.071 1250.34 572.835 1252.92 C 585.122 1257.01 603.213 1265.19 609.328 1277.22 C 609.409 1280.21 609.477 1280.23 607.656 1282.58 C 596.641 1287.91 568.767 1286.39 556.377 1283.87 C 545.809 1281.71 534.706 1277.25 523.953 1276.76 C 520.739 1276.61 518.961 1276.98 516.613 1279.16 C 516.075 1281.85 515.732 1282.75 517.061 1285.31 C 519.255 1289.54 525.423 1291.75 529.563 1293.39 C 543.709 1299.01 559.183 1302.25 574.33 1303.48 C 582.977 1304.18 591.972 1304.25 600.487 1305.93 C 605.562 1306.94 610.745 1309.79 613.392 1314.43 C 614.631 1316.6 614.887 1317.88 614.159 1320.21 C 597.648 1330.1 549.847 1314.72 532.25 1307.69 C 524.013 1304.4 516.22 1299.06 507.863 1296.29 C 505.883 1295.64 503.373 1295.21 501.316 1295.71 C 499.377 1296.18 497.945 1297.42 497.442 1299.37 C 496.68 1302.32 498.004 1305.84 499.529 1308.34 C 506.116 1319.13 518.943 1323.21 530.5 1326.01 C 546.122 1329.94 562.501 1335 577.233 1341.58 C 587.268 1346.05 591.432 1350.4 595.237 1360.37 C 577.581 1359.69 557.742 1358.81 540.98 1352.92 C 527.882 1348.31 514.981 1331.63 500.955 1332.75 C 498.733 1334.15 497.767 1334.5 497.422 1337.38 C 494.894 1358.41 541.295 1369.78 555.056 1378.44 C 558.169 1380.4 560.528 1383.02 562.923 1385.77 L 563.862 1386.86 C 554.955 1387.13 546.2 1386.9 537.598 1384.29 C 521.597 1379.45 476.367 1342.43 469.286 1327.62 C 458.671 1305.43 464.212 1276.57 472.728 1254.81 C 483.547 1227.16 509.756 1200.82 536.848 1188.92 z"/>
<path transform="translate(0,0)" fill="rgb(255,255,255)" d="M 483.903 861.81 L 485.447 862.928 C 486.33 864.792 486.781 865.955 486.775 868.058 C 486.761 872.66 487.252 875.524 488.859 879.765 L 489.407 881.185 C 487.215 883.786 475.308 885.077 471.367 886.633 C 463.23 889.847 460.727 896.225 459.407 904.437 C 456.539 922.279 462.942 952.247 464.579 971.508 C 467.928 1010.92 469.761 1050.42 472.729 1089.85 C 474.725 1116.37 478.222 1142.84 479.318 1169.43 C 479.418 1171.85 479.603 1174.27 478.459 1176.49 C 477.777 1177.81 477.702 1177.45 476.104 1177.94 C 466.405 1169.9 457.388 1158.25 449.059 1148.63 C 443.164 1140.58 437.456 1132.34 432.705 1123.55 C 425.654 1110.51 420.579 1096.81 414.437 1083.37 C 409.702 1073.01 404.014 1063.24 400.117 1052.48 C 390.489 1025.92 392.125 992.555 400.302 965.828 C 412.912 924.609 445.35 882.148 483.903 861.81 z"/>
<path transform="translate(0,0)" fill="rgb(255,255,255)" d="M 644.435 1573.42 C 658.52 1572.31 673.135 1572.95 687.287 1572.83 C 686.312 1594.71 681.509 1616.56 678.919 1638.31 C 676.002 1662.8 674.212 1687.45 671.675 1711.99 C 665.963 1767.23 659.933 1822.24 667.42 1877.69 C 643.494 1883.16 599.809 1883.9 573.756 1885.32 C 565.303 1886.28 556.655 1886.23 548.153 1886.48 C 533.797 1821.07 532.395 1753.56 531.545 1686.82 C 531.116 1653.09 531.893 1620.09 527.915 1586.51 C 546.592 1586.24 564.129 1582.81 582.524 1580.28 C 603.016 1577.47 623.818 1575.08 644.435 1573.42 z"/>
<path transform="translate(0,0)" fill="rgb(255,255,255)" d="M 941.888 1546.36 C 955.889 1544.4 970.711 1546.88 984.774 1547.51 C 997.287 1548.08 1009.95 1547.49 1022.48 1547.36 C 1024.9 1565.82 1026.79 1585.85 1026.91 1604.46 C 1027.06 1630.89 1025.46 1657.3 1026.1 1683.76 C 1026.7 1708.23 1029.17 1732.72 1030.34 1757.19 A 5829.82 5829.82 0 0 1 1034.08 1874.62 C 1011.28 1876.63 987.501 1876.63 964.568 1877.02 A 887.175 887.175 0 0 0 923.406 1877.4 C 912.67 1850.41 907.286 1821.75 901.639 1793.39 C 896.878 1769.47 891.02 1745.76 887.494 1721.61 C 882.839 1689.72 880.857 1657.55 877.619 1625.51 C 875.343 1602.99 871.877 1580.52 868.83 1558.09 C 882.063 1557.79 895.436 1556.79 908.397 1553.99 C 919.607 1551.58 930.489 1547.87 941.888 1546.36 z"/>
<path transform="translate(0,0)" fill="rgb(255,255,255)" d="M 1694.78 791.586 C 1721.44 793.23 1743.93 800.028 1771.33 795.972 C 1777.26 820.211 1776.4 853.182 1778.62 878.591 L 1794.34 1049.31 A 7772.85 7772.85 0 0 1 1802 1140.72 C 1803.52 1159.76 1804.52 1179.03 1806.8 1197.99 C 1809.27 1218.41 1815.41 1237.83 1817.05 1258.53 C 1819.81 1293.31 1821.07 1328.31 1822.65 1363.16 C 1823.17 1374.4 1825.81 1392.67 1823.96 1403.22 C 1820.02 1408.71 1811.92 1409.98 1805.79 1411.84 C 1786.54 1417.57 1771.29 1424.68 1754.05 1434.76 L 1714.32 1023.99 C 1712.89 1009.21 1709.91 994.712 1708 980.008 C 1706.02 964.769 1705.53 949.272 1703.79 933.978 C 1701.58 914.639 1698.52 895.382 1696.74 875.997 C 1694.21 848.468 1693.63 819.207 1694.78 791.586 z"/>
<path transform="translate(0,0)" fill="rgb(255,255,255)" d="M 697.782 220.299 C 720.983 218.933 743.529 228.081 765.297 234.772 C 823.854 252.773 869.128 257.574 929.262 244.819 C 929.392 272.455 926.795 301.017 922.44 328.288 C 920.592 339.861 917.607 351.266 915.972 362.852 C 913.361 381.354 910.198 399.609 907.295 418.054 C 904.232 437.522 903.806 457.005 893.992 474.605 C 890.213 476.487 886.163 477.958 882.256 479.565 C 867.647 485.373 851.404 487.865 835.853 489.553 C 803.165 493.1 722.291 498.985 696.961 477.607 C 692.483 473.828 689.225 469.149 686.911 463.784 C 678.079 443.301 658.53 351.572 657.076 329.37 C 669.052 306.678 679.683 251.193 681.479 224.926 C 687.078 222.681 691.841 221.19 697.782 220.299 z"/>
<path transform="translate(0,0)" fill="rgb(0,0,0)" d="M 872.654 320.974 C 875.34 320.839 878.211 320.57 880.881 320.934 C 884.885 321.48 888.114 324.205 890.375 327.415 C 893.561 331.936 894.642 337.927 893.681 343.337 C 892.419 350.437 890.056 353.511 884.251 357.536 C 881.422 358.289 877.351 359.41 874.465 358.783 C 870.124 357.84 867.658 353.378 865.33 350.031 A 119.131 119.131 0 0 1 864.942 338.917 C 865.078 331.332 867.18 326.205 872.654 320.974 z"/>
<path transform="translate(0,0)" fill="rgb(0,0,0)" d="M 730.264 329.968 C 735.416 329.964 741.175 330.6 745.133 334.195 C 749.025 337.73 750.907 342.921 751.099 348.089 A 28.535 28.535 0 0 1 743.046 368.837 C 740.715 369.11 738.285 369.461 735.938 369.368 C 732.053 369.214 728.418 366.416 726.081 363.506 C 722.049 358.485 720.777 351.717 721.567 345.425 C 722.423 338.616 724.892 334.157 730.264 329.968 z"/>
<path transform="translate(0,0)" fill="rgb(0,0,0)" d="M 874.893 262.232 C 881.457 261.756 887.499 261.555 893.845 263.747 C 900.976 266.21 907.883 271.314 910.901 278.417 C 912.212 281.501 913.168 286.859 911.218 289.907 C 909.602 292.432 908.501 292.552 905.794 293.378 C 902.357 292.97 900.649 290.606 898.373 288.257 C 894.133 285.029 890.245 282.651 885.412 280.404 C 877.125 281.448 865.078 287.464 857.352 282.275 C 855.116 280.773 854.971 280.1 854.358 277.657 C 854.84 275.562 855.316 273.947 856.566 272.167 C 861.404 265.273 867.052 263.769 874.893 262.232 z"/>
<path transform="translate(0,0)" fill="rgb(0,0,0)" d="M 729.506 271.285 C 734.029 271.076 738.444 271.358 742.685 273.102 C 746.936 274.851 752.42 278.027 753.858 282.731 C 754.986 286.424 753.302 289.244 751.38 292.179 C 744.365 296.237 736.579 289.707 728.941 289.387 C 721.792 289.086 717.127 293.038 712.292 297.774 L 711.25 298.808 C 708.424 302.102 705.434 305.95 701.475 307.91 C 698.085 309.589 695.396 309.753 691.759 308.553 C 689.562 306.706 688.716 305.462 688.202 302.577 C 687.432 298.25 690.158 293.06 692.764 289.815 C 701.489 278.952 716.052 273.101 729.506 271.285 z"/>
<path transform="translate(0,0)" fill="rgb(0,0,0)" d="M 812.747 342.147 C 816.376 341.88 820.752 341.784 824.081 343.451 C 829.273 346.05 832.121 353.243 833.999 358.417 C 841.475 379.018 849.983 411.893 839.574 432.827 C 836.391 439.229 831.395 444.461 824.489 446.718 C 814.306 450.046 803.191 446.772 794.01 442.1 C 790.383 439.594 786.35 437.058 783.559 433.6 C 781.175 430.648 779.505 426.476 780.392 422.642 C 780.968 420.152 783.07 417.404 785.312 416.177 C 792.9 412.026 803.138 422.601 809.965 425.03 C 812.687 425.998 813.869 425.651 816.407 424.497 C 827.781 407.319 803.354 360.534 807.417 347.48 C 808.461 344.125 809.946 343.813 812.747 342.147 z"/>
<path transform="translate(0,0)" fill="rgb(255,255,255)" d="M 871.537 591.697 C 927.113 599.359 981.818 617.16 1034.26 636.56 C 1047.83 641.582 1061.9 645.984 1074.98 652.212 C 1135.4 680.993 1159.23 751.853 1180.03 810.469 C 1154.18 816.033 1127.28 816.778 1101.14 820.783 C 1070.36 825.496 1039.52 830.391 1008.58 834.016 C 978.754 837.511 948.633 839.703 918.728 842.798 L 684.353 864.736 C 628.812 869.436 573.314 880.724 517.369 879.189 C 516.517 866.856 513.527 852.873 508.637 841.501 C 506.525 836.591 504.336 832.47 499.193 830.383 C 479.272 831.028 445.536 856.341 431.788 869.443 C 390.572 908.72 364.289 957.941 363.247 1015.79 C 362.539 1055.13 377.685 1081.82 394.909 1115.5 C 412.347 1149.59 417.098 1162.47 444.797 1191.53 C 452.313 1199.17 460.825 1205.74 468.052 1213.68 C 463.208 1233.25 451.657 1250.34 441.416 1267.35 C 433.168 1281.05 436.181 1294.94 439.733 1309.47 C 429.057 1307.04 418.326 1305.33 407.762 1302.33 C 383.342 1295.4 357.21 1282.51 336.375 1268.13 C 271.214 1223.17 228.98 1161.6 215.093 1083.46 C 208.972 1049.03 216.187 1016.66 224.468 983.388 C 238.175 928.309 247.399 901.862 275.411 851.547 C 283.248 837.471 290.781 823.412 300.04 810.191 C 337.97 756.029 403.351 694.479 462.5 664.815 C 472.638 659.731 483.25 655.858 493.748 651.615 C 515.579 642.791 538.192 634.002 560.794 627.356 C 574.255 623.397 588.071 620.343 601.67 616.874 C 625.995 610.67 649.584 603.662 674.372 599.241 C 677.39 612.629 682.091 623.614 691.599 633.665 C 712.363 655.616 743.962 662.613 773.147 663.249 C 803.78 663.917 832.674 650.915 854.627 629.85 C 866.222 618.725 871.272 607.684 871.537 591.697 z"/>
<path transform="translate(0,0)" fill="rgb(0,0,0)" d="M 473.852 665.635 C 477.647 666.657 481.058 668.028 483.963 670.777 C 500.657 686.577 525.2 764.339 525.951 787.991 C 526.136 793.839 525.587 796.834 521.507 801.07 A 63.2291 63.2291 0 0 1 519.442 801.517 C 516.998 802.003 514.541 802.277 512.446 800.668 C 505.804 795.568 504.197 779.275 502.405 771.129 C 498.326 752.581 493.189 732.659 486.681 714.807 C 481.946 701.82 472.497 688.564 470.676 674.807 C 470.16 670.906 471.6 668.65 473.852 665.635 z"/>
<path transform="translate(0,0)" fill="rgb(0,0,0)" d="M 1055.89 657.071 C 1057.71 657.068 1059.63 657.092 1061.44 657.369 A 9.13381 9.13381 0 0 1 1067.86 661.55 C 1072.75 669.372 1073.43 682.561 1074.74 691.517 C 1079.78 725.992 1086.26 775.46 1077.67 809.439 C 1076.31 814.819 1074.05 817.637 1069.36 820.492 C 1068.86 820.598 1068.38 820.724 1067.88 820.811 C 1064.88 821.336 1061.91 821.105 1059.5 819.012 C 1056.76 816.636 1056.64 812.021 1056.77 808.684 C 1057.05 801.282 1059.27 793.601 1060.47 786.268 C 1061.89 777.541 1061.77 767.972 1061.29 759.161 C 1060.42 743.45 1059.43 727.418 1057.35 711.831 C 1055.42 697.317 1050.47 680.707 1051.58 666.12 C 1051.89 662.05 1052.79 659.731 1055.89 657.071 z"/>
<path transform="translate(0,0)" fill="rgb(255,255,255)" d="M 1656.03 787.41 C 1659.88 786.998 1663.9 787.119 1667.77 787.014 L 1705.44 1207.95 C 1707.55 1231.92 1709.39 1256.11 1710.81 1280.13 C 1711.72 1295.57 1712.07 1311.2 1713.59 1326.58 C 1715.74 1348.23 1720.57 1369.69 1722.87 1391.42 C 1724.74 1409.1 1724.89 1426.84 1727.36 1444.47 C 1712.37 1447.51 1697.06 1448.38 1681.88 1450.16 L 1576.64 1461.59 C 1559.13 1463.56 1541.87 1467.41 1524.37 1469.34 C 1506.35 1471.33 1488.11 1470.91 1470.05 1472.77 C 1435.85 1476.29 1401.7 1481.29 1367.48 1484.29 C 1337.73 1486.89 1307.84 1487.66 1278.07 1490.29 C 1250.38 1492.74 1222.76 1496.64 1195.03 1498.68 C 1177.31 1499.99 1159.36 1500.76 1141.6 1501.05 C 1130.78 1501.23 1119.81 1500.7 1109.03 1501.53 C 1089.62 1503.02 1070.29 1506.94 1050.78 1508.6 L 665.978 1542.12 C 622.076 1546.01 577.97 1552.89 533.998 1555.18 C 527.91 1519.58 527.645 1483.94 523.401 1448.19 C 522.039 1436.72 514.817 1407.65 515.943 1399.81 C 520.506 1394.46 543.129 1404.9 549.775 1406.33 C 560.382 1408.61 573.621 1409.49 583.917 1405.57 C 584.212 1405.46 584.504 1405.34 584.797 1405.22 C 586.172 1402.85 587.788 1400.34 588.246 1397.59 C 589.456 1390.34 584.357 1383.77 580.455 1378.17 L 601.561 1381.35 C 606.626 1379.44 612.294 1377.19 614.622 1371.89 C 617.865 1364.51 612.937 1354.45 610.544 1347.43 C 616.434 1346.61 623.04 1346.37 628.062 1342.92 C 632.608 1339.8 635.37 1335.49 636.09 1330 C 637.58 1318.62 631.295 1308.07 624.764 1299.35 C 629.35 1295.51 633.566 1292.08 635.321 1286.12 C 637 1280.42 635.841 1274.94 632.808 1269.92 C 617.602 1244.76 578.377 1232.96 551.665 1226.54 C 555.85 1221.56 558.981 1216.74 560.655 1210.38 C 563.374 1200.05 563.541 1186.85 557.688 1177.49 C 555.089 1173.33 551.221 1170.44 546.417 1169.36 C 532.731 1166.26 519.903 1176.69 509.037 1183.55 C 506.938 1141.82 500.035 1103.6 494.753 1062.55 C 490.615 1030.4 488.653 997.519 486.476 965.184 C 485.196 946.169 483.019 927.153 482.702 908.09 C 526.554 907.171 570.16 899.439 613.807 895.889 C 640.672 893.704 667.754 896.178 694.579 892.581 C 716.331 889.664 736.823 881.729 758.797 879.208 C 786.285 876.054 813.964 876.868 841.453 874.403 C 863.445 872.432 885.181 867.648 907.2 865.553 C 936.224 862.793 965.366 862.29 994.431 859.852 C 1019.46 857.752 1043.89 853.13 1068.77 850.243 C 1087.91 848.022 1107.29 847.896 1126.45 845.88 C 1145.54 843.872 1165.03 841.704 1183.96 838.602 C 1198.17 836.273 1212.18 833.202 1226.51 831.61 C 1271.98 826.557 1317.93 824.958 1363.5 820.556 C 1391.57 817.845 1419.45 813.148 1447.62 811.954 C 1445.72 822.376 1441.73 832.412 1438.66 842.535 C 1436.63 849.193 1433.71 858.823 1437.6 865.284 C 1439.44 868.338 1443.05 870.972 1446.03 872.805 C 1465.45 884.758 1476.77 865.769 1491.51 868.938 C 1494.39 871.383 1495.26 875.717 1496.88 879.063 C 1499.22 883.908 1502.86 887.508 1508.1 889.054 C 1522.74 893.369 1538.13 884.923 1550.7 878.441 C 1554 878.787 1557.42 879.25 1560.74 879.14 C 1575.08 878.662 1590.53 867.621 1600.16 857.538 C 1618.83 837.984 1621.41 818.219 1620.92 792.147 C 1632.62 790.261 1644.22 788.446 1656.03 787.41 z"/>
<path transform="translate(0,0)" fill="rgb(0,0,0)" d="M 870.771 978.409 C 873.132 978.069 875.522 977.955 877.903 977.834 C 882.317 977.611 887.482 977.105 890.886 980.502 C 900.024 989.622 903.012 1031.17 902.966 1044.17 C 901.822 1046.44 900.654 1048.72 899.147 1050.77 C 895.614 1055.56 888.907 1056.66 883.361 1057.85 C 859.849 1062.88 834.857 1062.59 810.987 1065.46 C 787.574 1068.29 763.971 1073.98 740.613 1077.73 C 745.708 1108.85 747.86 1142.12 747.277 1173.67 C 781.926 1168.48 811.972 1161.09 847.478 1168.79 C 874.516 1174.65 897.135 1193.24 911.88 1216.38 C 925.911 1238.41 928.697 1261.35 930.93 1286.72 C 932.17 1300.8 933.484 1312.97 930.228 1326.92 C 922.066 1361.88 899.696 1387.76 869.368 1406.18 C 847.102 1419.71 817.77 1430.57 791.646 1432.5 C 780.842 1433.3 769.958 1432.5 759.144 1433.26 C 744.027 1434.33 728.652 1436.93 713.697 1433.29 C 698.956 1422.84 690.129 1382.86 687.056 1365.83 C 688.196 1363.08 690.09 1359.45 692.466 1357.6 C 699.035 1352.48 725.974 1361.23 735.273 1362.08 C 767.433 1365.01 817.805 1348.57 842.083 1327.34 C 852.163 1318.53 856.494 1307.12 857.514 1294.08 C 858.886 1276.55 850.598 1262.12 839.575 1249.29 C 808.915 1213.6 763.511 1232.14 726.677 1246.78 C 720.802 1249.11 711.058 1254.41 704.907 1253.45 C 702.722 1253.11 700.818 1251.99 699.494 1250.21 C 696.53 1246.22 695.963 1238.2 695.49 1233.32 C 693.75 1215.39 694.917 1197.17 693.652 1179.19 C 692.563 1163.73 690.292 1148.35 689.215 1132.87 C 687.944 1114.62 687.802 1096.15 686.184 1077.95 C 684.323 1057.02 677.033 1020.23 680.956 1001.15 C 685.974 995.722 708.795 996.595 716.819 995.97 C 739.17 994.23 761.718 992.851 783.957 990.01 C 812.866 986.317 841.746 980.95 870.771 978.409 z"/>
<path transform="translate(0,0)" fill="rgb(0,0,0)" d="M 1341.53 922.417 C 1357.49 920.749 1392.48 920.819 1407.18 925.727 C 1410.5 926.835 1413.35 928.829 1416.08 930.977 C 1427.27 939.792 1437.3 951.328 1444 963.93 C 1465.18 1003.81 1468.43 1075.82 1473.64 1121.59 A 772.299 772.299 0 0 1 1478.96 1229.38 C 1478.6 1242.94 1476.86 1256.41 1476.37 1269.96 C 1475.82 1285.07 1477.64 1300.5 1474.21 1315.36 C 1471.19 1328.49 1465.11 1339.76 1456.7 1350.21 C 1437.52 1374.07 1408.6 1376.87 1380.12 1379.87 C 1348.12 1381.86 1316.47 1381.33 1291.15 1359.1 C 1283.04 1351.98 1275.78 1343.08 1272.05 1332.84 C 1266.74 1318.27 1268.59 1301.57 1265.94 1286.42 C 1262.36 1265.93 1255.99 1246.45 1253.24 1225.6 C 1250.63 1205.74 1250.26 1185.72 1249.33 1165.73 L 1245.83 1095.03 C 1245.3 1083.23 1243.05 1071.55 1242.28 1059.77 C 1240.12 1026.81 1251.19 973.993 1273.65 948.64 C 1291.79 928.16 1315.55 924.175 1341.53 922.417 z"/>
<path transform="translate(0,0)" fill="rgb(255,255,255)" d="M 1351.93 1001.16 C 1359.88 1000.88 1368.67 1000.56 1375.93 1004.33 C 1382.87 1007.94 1385.72 1014.37 1387.7 1021.6 C 1391.74 1036.38 1393.27 1052.21 1396.14 1067.28 C 1398.15 1077.84 1401.41 1088.23 1402.89 1098.89 C 1405.37 1116.7 1404.68 1134.86 1406.03 1152.77 C 1408.15 1180.79 1420.96 1256.34 1407.2 1278.83 C 1399.84 1290.88 1385.26 1296.52 1372.23 1300.01 C 1363.29 1300.75 1355.03 1299.83 1346.95 1295.6 C 1336.99 1290.39 1330.11 1281.75 1326.85 1271.06 C 1321.02 1251.96 1321.63 1230.77 1319.92 1210.99 C 1318.32 1192.42 1314.91 1174.01 1313.68 1155.42 C 1312.3 1134.72 1313.7 1113.98 1313.51 1093.27 C 1313.38 1077.91 1311.43 1062.13 1312.54 1046.82 C 1313.1 1039.1 1314.29 1029.07 1318.23 1022.29 C 1325.03 1010.58 1339.46 1004.57 1351.93 1001.16 z"/>
<path transform="translate(0,0)" fill="rgb(0,0,0)" d="M 1091.42 949.336 C 1091.79 949.281 1092.17 949.204 1092.54 949.17 C 1109.21 947.695 1135.95 949.419 1148.88 961.142 C 1163.69 974.581 1177.41 1008.83 1182.8 1027.79 C 1189.37 1050.94 1191.14 1074.82 1194.93 1098.47 C 1201.59 1140.02 1209.36 1180.6 1211.52 1222.82 C 1212.32 1238.37 1211.46 1254.01 1211.94 1269.58 C 1212.37 1283.69 1214 1298.27 1212.32 1312.33 C 1209.45 1336.41 1190.06 1361.69 1174.07 1379.2 C 1170.26 1383.38 1167.33 1385.48 1161.88 1387.15 C 1149.49 1390.94 1136.5 1389.28 1123.81 1391.02 C 1109.5 1392.99 1095.75 1397.04 1081.25 1397.71 C 1060.65 1398.45 1039.27 1392.4 1022.75 1379.92 C 989.418 1354.75 979.795 1310.85 972.939 1272.15 C 970.856 1260.38 968.246 1248.59 967.422 1236.66 C 965.813 1213.36 967.313 1189.95 966.073 1166.62 C 965.222 1150.6 962.56 1135.06 960.385 1119.21 C 958.435 1105 959.244 1090.89 959.622 1076.61 C 960.365 1048.54 959.242 1019.87 977.419 996.255 C 995.575 972.663 1025.85 965.113 1053.22 957.85 C 1065.77 954.521 1078.52 950.996 1091.42 949.336 z"/>
<path transform="translate(0,0)" fill="rgb(255,255,255)" d="M 1092.62 1029.25 C 1093.72 1029.14 1093.7 1029.1 1095 1029.22 C 1101.02 1029.75 1107.51 1034.03 1110.92 1038.92 C 1125.51 1059.87 1141.88 1249.48 1135.64 1280.17 C 1132.89 1293.74 1127.09 1311.63 1114.85 1319.36 C 1104.32 1326 1091.36 1323.07 1080.08 1320.41 C 1076.78 1319 1073.57 1317.53 1070.52 1315.63 C 1067.27 1313.59 1064.46 1311.31 1062.47 1307.98 C 1056.45 1297.88 1047.44 1261.03 1044.71 1248.2 C 1040.2 1226.99 1039.67 1204.76 1037.5 1183.21 C 1034.18 1150.16 1021.48 1082.16 1040.68 1054.19 C 1051.17 1038.92 1075.34 1032.36 1092.62 1029.25 z"/>
</svg>