<svg version="1.1" xmlns="http://www.w3.org/2000/svg" style="display: block;" viewBox="0 0 2048 2048" width="1024" height="1024">
<path transform="translate(0,0)" fill="rgb(254,254,254)" d="M 0 0 L 2048 0 L 2048 2048 L 0 2048 L 0 0 z"/>
<path transform="translate(0,0)" fill="rgb(35,31,32)" d="M 338.591 255.255 C 341.876 254.963 345.237 254.503 348.409 255.654 C 351.11 256.633 352.837 257.756 353.974 260.389 C 350.693 269.851 333.448 268.797 325.48 272.063 C 311.261 277.89 301.186 289.781 291.659 301.324 C 290.885 302.117 290.565 302.497 289.599 303.202 C 287.462 304.763 285.988 305.21 283.418 304.943 C 282.292 303.618 281.679 303.263 281.364 301.478 C 280.498 296.581 284.23 290.363 286.972 286.583 C 300.314 268.185 316.573 259.165 338.591 255.255 z"/>
<path transform="translate(0,0)" fill="rgb(35,31,32)" d="M 1245.77 1534.26 C 1247.58 1533.76 1249.67 1533.52 1251.48 1534.23 C 1253.99 1535.23 1254.46 1536.44 1255.41 1538.7 C 1254.98 1541.51 1253.17 1543.28 1251.02 1545 C 1246.82 1548.36 1241.26 1549.86 1237.37 1553.56 C 1221.42 1568.74 1226.97 1593.38 1216.75 1605.99 C 1214.92 1605.89 1213.56 1605.78 1211.94 1604.79 C 1209.07 1603.05 1207.77 1600.19 1207.15 1597.03 C 1204.48 1583.27 1212.35 1561.07 1220.26 1549.73 C 1227.02 1540.04 1234.55 1536.29 1245.77 1534.26 z"/>
<path transform="translate(0,0)" fill="rgb(35,31,32)" d="M 1929.02 503.13 C 1942.8 503.993 1955.27 507.388 1965.2 517.57 C 1979.59 532.311 1983.28 554.496 1983.07 574.304 C 1983 581.21 1982.71 590.984 1977.56 595.979 C 1976.25 595.507 1974.56 595.046 1973.4 594.294 C 1973.07 594.08 1971.42 592.807 1971.1 592.301 C 1968.58 588.281 1969.56 565.554 1968.44 558.866 C 1964.79 537.126 1958.92 524.055 1936.62 517.138 C 1933.19 516.073 1927.77 515.126 1925.04 512.875 C 1923.87 511.906 1924.13 510.967 1923.95 509.568 C 1925.34 506.807 1926.75 505.207 1929.02 503.13 z"/>
<path transform="translate(0,0)" fill="rgb(35,31,32)" d="M 310.057 211.384 C 314.826 211.157 319.167 211.303 323.529 213.492 C 326.293 214.88 327.686 216.091 328.642 219.029 C 328.299 220.104 328.275 220.372 327.606 221.434 C 326.807 222.702 324.703 224.495 323.253 224.877 C 317.993 226.261 309.354 223.524 298.14 226.942 C 273.624 234.417 256.729 254.71 244.974 276.479 C 243.316 279.09 242.515 280.073 239.639 281.512 C 236.73 281.594 236.116 281.609 233.567 280.266 C 232.63 278.702 231.976 278.023 231.825 276.15 C 231.129 267.464 242.657 253.284 247.987 246.955 C 264.393 227.475 284.221 213.522 310.057 211.384 z"/>
<path transform="translate(0,0)" fill="rgb(35,31,32)" d="M 1280.95 1580.7 C 1283.16 1580.8 1284.3 1581.26 1286.23 1582.33 C 1287.31 1584.78 1287.41 1585.82 1286.2 1588.43 C 1283.48 1594.26 1278.62 1599.62 1274.87 1604.84 C 1265.89 1617.33 1255.01 1635.66 1253.77 1651.25 C 1252.37 1668.94 1272.89 1660.04 1279.35 1667.83 C 1277.87 1672.4 1274.25 1674.28 1270.28 1676.6 C 1267.8 1677.2 1265.06 1677.75 1262.49 1677.64 C 1256.99 1677.41 1251.14 1675.13 1247.38 1671.03 C 1241.75 1664.87 1239.22 1655.83 1239.95 1647.62 C 1242.26 1621.66 1261.33 1596.49 1280.95 1580.7 z"/>
<path transform="translate(0,0)" fill="rgb(35,31,32)" d="M 1890.49 533.158 C 1899.84 532.513 1907.31 535.194 1915.24 539.96 C 1935.07 551.88 1947.28 573.277 1952.77 595.293 C 1955.99 608.204 1958.63 629.206 1951.49 640.988 C 1949.9 640.553 1948.36 639.996 1946.8 639.465 C 1941.31 632.291 1941.25 611.191 1938.87 601.469 A 98.7311 98.7311 0 0 0 1927.4 573.862 C 1919.22 560.582 1890.06 548.348 1887.24 539.031 C 1887.76 535.867 1888.41 535.468 1890.49 533.158 z"/>
<path transform="translate(0,0)" fill="rgb(35,31,32)" d="M 149.638 730.929 C 151.766 730.981 153.848 731.159 155.966 731.346 C 157.82 732.942 158.561 733.152 158.385 735.821 C 157.993 741.761 141.722 769.718 138.68 778.486 C 128.577 807.601 123.689 839.749 127.111 870.509 C 127.843 877.082 130.057 883.487 130.77 890.038 C 131.161 893.624 129.627 894.647 127.493 897.279 C 124.685 896.338 122.075 895.46 119.981 893.267 C 111.889 884.794 112.699 865.218 112.567 854.045 C 112.14 817.854 120.78 784.328 136.764 752.038 C 140.292 744.911 144.01 736.663 149.638 730.929 z"/>
<path transform="translate(0,0)" fill="rgb(35,31,32)" d="M 1676.1 1792.98 C 1677.89 1793.04 1679.95 1793.01 1681.64 1793.7 C 1687.28 1796.03 1692.72 1807.92 1695.75 1813.02 C 1698.53 1817.69 1701.27 1822.34 1705.05 1826.29 C 1712.55 1834.13 1735.23 1848.27 1737.85 1856.68 C 1737.35 1862.99 1730.31 1865.57 1726.44 1869.96 C 1726.2 1870.23 1725.97 1870.5 1725.74 1870.77 C 1723.1 1872.04 1722.11 1872.82 1719.11 1872.19 C 1707.27 1869.71 1674 1837.32 1668.88 1826.13 C 1665.65 1819.07 1663.97 1809.69 1667.1 1802.33 C 1669.18 1797.42 1671.14 1794.96 1676.1 1792.98 z"/>
<path transform="translate(0,0)" fill="rgb(35,31,32)" d="M 1526.55 185.448 C 1563.53 184.563 1599.17 185.657 1636.02 188.562 C 1657.26 190.236 1689.93 194.598 1710.36 193.904 C 1713.16 193.808 1716.08 192.042 1718.54 190.807 C 1726.87 198.063 1740.3 207.585 1745.11 217.717 C 1751.88 231.981 1752.41 250.997 1755.81 266.397 C 1779.54 373.752 1799.99 481.733 1810.39 591.289 C 1815.82 592.223 1821.27 593.196 1826.48 595.007 C 1854.76 604.835 1879.36 631.804 1891.75 658.42 C 1906.41 689.887 1913.99 734.137 1901.42 767.452 C 1891.72 793.162 1875.12 805.875 1850.7 816.703 C 1853.32 848.696 1855.33 880.541 1856.85 912.604 C 1857.4 924.032 1859.43 937.619 1857.64 948.937 C 1855.84 960.263 1844.21 971.513 1833.92 975.255 C 1828.68 977.162 1821.45 977.817 1817 981.103 C 1816.64 983.781 1816.59 984.285 1817.6 986.767 C 1819.78 987.875 1821.3 988.753 1823.08 990.479 C 1828.44 1006.25 1829.84 1040.4 1831.82 1058.26 C 1834.11 1078.95 1838.71 1099.3 1841.08 1119.95 C 1843.48 1140.98 1843.39 1162.53 1842.87 1183.66 C 1841.51 1238.87 1830.57 1307.97 1805.59 1357.48 C 1793.42 1381.6 1763.44 1419.73 1743.68 1438.6 C 1750.24 1492.04 1750.74 1545.74 1759.36 1599.02 C 1764.57 1631.23 1777.19 1658.18 1781.81 1689.91 C 1778.48 1691.27 1774.96 1692.24 1771.54 1693.33 C 1778.58 1710.34 1788.95 1725.62 1798.87 1741.04 C 1815.19 1766.41 1831.71 1791.6 1851.77 1814.24 C 1855.77 1818.75 1859.88 1823.27 1864.45 1827.22 C 1871.12 1832.97 1889.31 1842.49 1891.55 1850.36 C 1890.98 1853.79 1890.08 1856.39 1886.89 1858.24 C 1884.29 1859.74 1881.56 1859.78 1878.73 1859.12 C 1842.29 1850.62 1778.79 1742.25 1757.63 1710.74 C 1698.95 1710.17 1641.86 1716.89 1583.66 1723.26 C 1564.22 1725.39 1544.65 1726 1525.22 1728.51 C 1531.68 1759.16 1536.82 1790.25 1550.67 1818.68 C 1553.28 1824.04 1555.84 1829.94 1559.18 1834.85 C 1563.68 1841.46 1575.98 1851.88 1576.73 1859.87 C 1577.02 1862.96 1574.82 1867.47 1572.97 1869.87 C 1570.96 1872.48 1568.3 1873.85 1565.06 1874.11 C 1558.53 1874.63 1551.24 1871.09 1546.38 1866.96 C 1529.98 1853.04 1501.22 1789.63 1495.94 1768.28 C 1493.14 1756.97 1492.88 1744.51 1492.07 1732.91 C 1486.14 1733.29 1473.41 1735.42 1468.99 1730.39 C 1461.92 1722.36 1465.92 1698.78 1465.49 1688.55 C 1464.5 1664.99 1461.98 1641.54 1461.25 1617.93 A 1552.4 1552.4 0 0 1 1467.36 1425.44 C 1391.22 1353.3 1338.85 1265.23 1316.78 1162.45 C 1308.48 1123.79 1304.5 1084.43 1299.46 1045.25 C 1278.42 1042.66 1260.84 1039.96 1241.67 1030.64 C 1220.02 1034.82 1197.74 1037.27 1175.92 1040.61 L 1064.36 1058.55 C 1007.65 1067.82 951.187 1080 894.183 1087.2 C 882.209 1118.33 848.244 1124.13 822.148 1139.48 L 820.724 1140.33 C 823.433 1159.44 816.997 1157.38 814.492 1173.73 C 812.571 1186.26 812.135 1199.12 810.387 1211.73 C 804.76 1252.29 795.734 1292.25 781.04 1330.56 C 753.641 1400.26 713.31 1491.42 658.039 1542.32 C 687.907 1614.36 704.317 1704.12 705.019 1782.13 C 700.442 1790.78 694.381 1797.34 686.567 1803.17 C 684.482 1826.11 680.694 1844.14 664.247 1861.41 C 658.25 1867.71 643.276 1879.35 633.99 1878.38 C 631.513 1878.12 629.529 1876.54 628.209 1874.47 C 626.887 1872.41 626.216 1869.56 626.902 1867.17 C 628.665 1861.02 638.676 1858.78 643.852 1856.18 C 659.094 1848.52 665.622 1832.8 670.807 1817.62 C 642.691 1831.8 613.034 1833.6 582.156 1833.27 C 578.32 1845.96 571.858 1858 562.654 1867.63 C 556.362 1874.22 546.827 1881.02 537.288 1880.82 C 533.555 1880.75 528.322 1878.53 526.215 1875.33 C 524.776 1873.14 525.286 1871.96 525.87 1869.67 C 531.002 1863.48 537.179 1863.06 544.132 1860.17 C 555.689 1855.36 561.084 1843.57 565.344 1832.64 C 521.138 1836.52 497.71 1841.2 451.781 1834.69 C 443.558 1840.72 435.962 1847.12 428.773 1854.36 C 422.702 1860.47 416.518 1868.25 409.415 1873.11 C 400.982 1878.87 397.978 1870.46 390.453 1869.86 C 384.568 1869.38 382.385 1874.38 378.082 1877.4 C 373.835 1880.39 355.388 1878.82 350.384 1877.42 C 347.171 1876.53 345.404 1875.23 343.837 1872.21 C 343.472 1869.46 343.63 1867.53 344.594 1864.9 C 351.477 1846.1 372.384 1835.33 389.5 1827.95 C 393.862 1817.5 399.579 1810.77 407.371 1802.81 C 402.84 1800.43 393.653 1796.85 392.013 1791.46 C 391.541 1789.91 392.513 1789.09 393.24 1787.78 C 396.529 1785.5 399.037 1785.2 402.97 1784.78 C 410.499 1773.81 415.557 1761.94 418.53 1748.97 C 423.002 1729.46 423.856 1708.64 423.035 1688.71 C 421.788 1658.41 412.789 1600.83 396.909 1575.63 C 352.147 1552.55 291.477 1497.17 264.058 1454.65 C 206.755 1365.78 227.547 1221.51 248.701 1123.59 C 236.687 1116.45 224.136 1108.66 213.907 1099.07 C 207.831 1093.38 201.412 1084.95 201.44 1076.21 C 201.45 1072.95 202.766 1070.09 205.156 1067.9 C 214.551 1059.28 229.408 1060.74 241.199 1061.09 C 239.827 1057.8 238.507 1054.51 237.42 1051.12 C 231.558 1032.87 227.262 1004.92 236.298 987.229 C 226.362 982.208 216.299 977.193 207.376 970.472 C 181.07 950.658 159.784 899.014 155.486 866.975 C 151.55 837.629 157.694 807.239 175.856 783.496 C 194.5 759.123 220.364 751.295 249.63 747.248 C 245.317 718.531 238.13 689.488 232.481 660.943 A 5142.63 5142.63 0 0 1 218.031 587.135 C 216.363 578.116 215.432 568.869 213.627 559.914 C 211.815 550.926 204.116 542.436 203.412 533.839 C 202.834 526.774 221.384 503.602 226.078 496.168 C 244.701 466.674 259.651 434.406 277.33 404.219 C 283.73 393.293 289.838 382.134 297.832 372.269 C 296.21 369.554 295.183 367.527 294.63 364.399 C 295.117 361.957 295.788 360.559 297.497 358.8 C 304.476 351.617 319.782 345.199 329.33 342.642 C 337.724 340.396 347.022 339.955 355.619 338.488 C 369.78 336.072 383.906 332.658 397.864 329.246 A 2813.71 2813.71 0 0 1 627.573 280.955 C 685.214 271.125 743.178 263.733 801.005 255.114 A 6685.83 6685.83 0 0 1 1270.15 198.979 A 5100.38 5100.38 0 0 1 1526.55 185.448 z"/>
<path transform="translate(0,0)" fill="rgb(254,254,254)" d="M 462.834 1471.82 C 470.041 1473.49 475.484 1478.13 483.308 1479.06 C 485.854 1479.37 487.622 1479.59 489.936 1480.67 L 489.374 1481.68 L 484.073 1482.6 C 477.319 1482.91 467.566 1482.95 461.07 1480.98 C 458.834 1480.3 457.937 1479.91 456.877 1477.74 C 457.905 1474.76 460.361 1473.52 462.834 1471.82 z"/>
<path transform="translate(0,0)" fill="rgb(254,254,254)" d="M 1609.72 1356.44 C 1611.17 1356.14 1613.26 1356.09 1614.71 1356.38 C 1616.48 1356.73 1617.96 1357.66 1619.04 1359.06 C 1622.68 1363.75 1621.72 1372.28 1620.73 1377.69 C 1619.37 1385.13 1618.05 1389.83 1611.71 1394.14 C 1610.32 1393.82 1608.76 1393.5 1607.45 1392.95 C 1603.14 1391.14 1601.13 1385.34 1599.83 1381.23 C 1597.46 1373.76 1595.76 1365.46 1599.5 1358.22 C 1602.05 1356.36 1606.58 1356.64 1609.72 1356.44 z"/>
<path transform="translate(0,0)" fill="rgb(254,254,254)" d="M 533.014 1470.28 L 535.309 1470.46 C 540.249 1474.95 545.684 1481.8 547.062 1488.4 C 547.868 1492.27 547.38 1496.16 545.147 1499.48 C 540.117 1506.95 530.033 1509.19 521.734 1510.78 C 517.233 1510.11 511.095 1509.06 507.938 1505.57 C 508.323 1502.57 512.639 1498.97 514.591 1496.44 C 520.851 1488.33 520.208 1483.6 518.884 1473.95 C 523.62 1472.32 528.1 1471.21 533.014 1470.28 z"/>
<path transform="translate(0,0)" fill="rgb(254,254,254)" d="M 1356.32 966.59 C 1365.25 974.565 1353.16 996.359 1359.49 1006.15 C 1365.23 1015.02 1381.21 1009.54 1389.87 1011.71 C 1391.02 1013.79 1391.02 1015.13 1390.43 1017.41 C 1388.89 1023.35 1382.3 1027.86 1377.36 1030.77 C 1361.79 1039.93 1342.49 1045.87 1324.75 1041.43 C 1310 1035.69 1302.09 1028.78 1285.41 1026.48 C 1293.72 1024.17 1301.86 1018.92 1310.01 1017.31 C 1318.82 1015.57 1330.57 1018.43 1338.65 1015.03 C 1346.98 1011.52 1341.29 979.248 1356.32 966.59 z"/>
<path transform="translate(0,0)" fill="rgb(254,254,254)" d="M 801.623 1052.8 C 804.762 1056.85 801.48 1073.06 802.469 1079.37 C 803.262 1084.43 805.362 1088.97 809.721 1091.91 C 826.844 1103.43 859.442 1093.73 877.79 1089.72 C 858.565 1102.95 834.737 1111.29 813.939 1122.11 C 807.784 1125.53 804.304 1129.3 800.28 1134.93 C 790.277 1133.64 780.341 1132.26 770.412 1130.47 C 768.013 1112.48 764.774 1097.11 758.749 1079.99 C 762.665 1083.57 766.763 1087.83 771.341 1090.52 C 774.878 1092.59 779.937 1094.62 784.001 1092.96 C 792.826 1089.35 796.938 1062.78 801.026 1054.04 C 801.22 1053.63 801.424 1053.22 801.623 1052.8 z"/>
<path transform="translate(0,0)" fill="rgb(254,254,254)" d="M 262.742 1002.46 C 265.625 1002.87 268.524 1002.66 270.737 1004.61 L 270.444 1006.02 C 267.619 1020.17 265.706 1046.3 274.664 1058.54 C 276.423 1060.95 279.204 1062.83 282.271 1062.9 C 300.697 1063.35 285.866 1014.54 293.182 1005.85 L 294.848 1005.73 C 299.053 1011.35 300.447 1037.78 303.431 1047.59 C 304.916 1052.47 308.065 1060.57 313.25 1062.62 C 315.328 1063.44 317.476 1063.17 319.436 1062.18 C 326.202 1058.77 327.653 1052.15 329.723 1045.52 C 330.292 1056.82 330.015 1067.77 328.644 1079.01 C 326.598 1096.82 321.924 1112.09 309.641 1125.46 C 299.071 1124.84 288.595 1123.7 278.076 1122.53 L 279.025 1111.82 C 264.094 1100.1 246.777 1092.08 232.456 1079.28 C 240.266 1078.38 254.003 1079.61 259.986 1074.04 C 269.501 1065.17 263.362 1016.8 262.742 1002.46 z"/>
<path transform="translate(0,0)" fill="rgb(254,254,254)" d="M 1805.33 622.384 C 1811.62 621.816 1817.71 622.465 1823.58 624.823 C 1842.46 632.414 1854.34 652.215 1862.09 670.052 C 1873.81 697.028 1881.66 732.66 1869.87 761.01 A 32.2666 32.2666 0 0 1 1851.69 778.885 C 1833.05 786.332 1826.88 768.666 1812.45 762.776 C 1809.34 761.507 1805.72 760.945 1802.67 762.734 C 1795.4 767.004 1792.24 778.722 1790.42 786.428 L 1776.82 784.679 C 1777.15 778.965 1778.11 773.127 1779.51 767.576 C 1787.68 735.048 1800.89 752.167 1818.5 740.97 C 1822.21 738.608 1825.01 735.691 1826.05 731.346 C 1825.46 729.03 1824.86 727.969 1822.85 726.561 C 1814.42 720.651 1803.26 722.767 1794 724.566 C 1789.66 725.793 1785.59 727.135 1781.75 729.554 C 1763.64 740.949 1758.88 755.494 1753.86 775.074 C 1753.03 778.307 1752.12 780.058 1749.26 781.782 L 1747.03 780.869 C 1745.1 778.626 1744.14 776.645 1743.33 773.787 C 1736.9 751.248 1748.22 725.106 1767.86 712.893 C 1776.02 707.823 1789.53 707.615 1794.56 698.685 C 1794.54 695.912 1794.41 694.585 1792.49 692.451 C 1789.25 688.849 1784.39 686.95 1779.62 686.827 C 1759.28 686.302 1741.78 704.803 1728.53 717.908 C 1730.24 694.292 1736.87 669.077 1752.11 650.443 C 1766.06 633.395 1783.57 624.5 1805.33 622.384 z"/>
<path transform="translate(0,0)" fill="rgb(254,254,254)" d="M 255.448 776.37 C 274.022 774.527 291.813 775.668 308.477 784.844 C 325.858 794.414 333.848 808.788 339.138 827.083 A 107.768 107.768 0 0 0 270.276 800.49 C 265.846 800.447 260.982 801.084 257.917 804.626 C 256.405 806.372 256.173 807.915 256.539 810.066 C 259.831 812.451 265.659 811.033 269.496 810.875 C 282.711 810.334 296.62 815.382 307.934 821.869 C 328.087 833.426 340.931 849.12 347.05 871.464 C 343.83 874.973 340.267 878.216 336.846 881.53 C 333.059 878.723 329.265 875.9 325.364 873.252 C 313.137 864.952 286.956 852.399 272.018 856.164 C 269.571 856.781 268.667 857.47 267.38 859.57 C 268.438 862.396 270.037 863.821 272.674 865.296 C 278.283 868.432 285.196 869.59 291.283 871.606 C 305.419 876.289 316.152 883.406 327.858 892.369 C 330.829 901.947 334.145 906.962 341.331 913.929 C 341.492 914.315 341.702 914.685 341.815 915.088 C 343.123 919.755 342.59 926.118 339.618 930.082 C 339.564 930.153 338.045 932.03 337.569 932.12 C 335.236 932.559 298.469 904.362 280.791 906.883 C 277.729 907.32 274.921 908.455 273.09 911.014 C 274.045 920.121 293.012 924.973 300.162 929.521 A 60.6087 60.6087 0 0 1 314.227 942.141 C 318.683 947.526 323.192 954.063 322.284 961.41 C 321.344 969.007 316.155 972.43 310.583 976.807 C 282.828 977.81 254.85 973.616 232.196 956.356 C 206.055 936.439 188.067 901.9 183.771 869.618 C 180.704 846.566 183.515 822.63 198.129 803.787 C 212.401 785.385 233.145 779.026 255.448 776.37 z"/>
<path transform="translate(0,0)" fill="rgb(254,254,254)" d="M 481.182 1247.72 C 493.476 1250.05 508.148 1252.43 519.337 1257.88 C 516.279 1260.31 513.084 1262.7 510.21 1265.34 C 507.427 1267.9 505.072 1273.82 505.508 1277.65 C 505.813 1280.33 506.26 1280.78 508.173 1282.4 C 515.762 1283.1 525.497 1274.13 531.736 1270.02 C 547.789 1289.15 564.877 1303.27 588.675 1311.89 C 595.977 1314.53 604.883 1315.45 611.704 1319.01 C 614.045 1320.23 613.894 1321.08 614.639 1323.48 C 612.564 1339.18 584.679 1341.95 578.722 1356.09 C 574.772 1365.47 587.336 1394.78 572.202 1421.32 C 563.549 1436.5 550.219 1444.7 533.839 1449.51 C 518.827 1452.1 506.412 1452.08 491.849 1447.34 C 455.935 1435.64 429.742 1410.29 412.813 1377.13 A 1061.76 1061.76 0 0 0 421.592 1357.5 C 424.908 1349.69 430.418 1339.26 427.004 1330.82 C 420.847 1325.47 418.006 1330.62 412.071 1328.2 C 410.625 1310.91 438.083 1297.11 436.592 1284.69 C 436.024 1279.96 430.86 1276.79 427.395 1274.12 C 438.693 1268.54 450.12 1263.66 460.694 1256.74 C 466.283 1257.98 471.929 1259.38 477.608 1260.11 C 481.411 1260.61 484.234 1260.78 487.336 1258.38 L 487.479 1256.17 C 485.957 1252.59 483.89 1250.46 481.182 1247.72 z"/>
<path transform="translate(0,0)" fill="rgb(35,31,32)" d="M 526.999 1296.08 C 528.088 1295.94 529.177 1295.77 530.273 1295.69 C 533.261 1295.49 536.552 1296.27 538.596 1298.64 C 540.368 1300.69 539.993 1301.72 539.495 1304.08 C 537.237 1306.92 535.012 1307.24 531.672 1308.04 C 528.75 1307.77 523.751 1307.49 521.393 1305.78 C 519.952 1304.74 520.23 1304.43 519.87 1302.8 C 521.507 1299.46 523.964 1298.1 526.999 1296.08 z"/>
<path transform="translate(0,0)" fill="rgb(35,31,32)" d="M 544.847 1350.71 C 547.56 1350.77 550.566 1350.85 552.82 1352.56 C 555.013 1354.22 556.172 1356.84 556.481 1359.51 C 557.252 1366.19 553.794 1373.24 549.666 1378.22 C 547.788 1378.16 545.816 1378.19 544.127 1377.25 C 541.328 1375.69 539.66 1373.05 539.064 1369.94 C 537.688 1362.77 540.823 1356.36 544.847 1350.71 z"/>
<path transform="translate(0,0)" fill="rgb(254,254,254)" d="M 1612.08 1110.24 C 1636.99 1108.98 1660.74 1117.39 1682.08 1129.77 C 1711.77 1147 1721.16 1166.55 1729.5 1199.38 C 1733.26 1214.16 1736.44 1268.33 1728.54 1280.6 C 1726.5 1283.78 1722.59 1287.2 1718.73 1287.75 C 1716.64 1288.05 1716.46 1288.15 1714.77 1286.81 C 1715.06 1280.07 1722.53 1274.36 1722.36 1267.81 C 1722.28 1265.03 1721.76 1264.81 1719.78 1263.14 C 1716.34 1262.3 1713.35 1261.87 1710.08 1263.72 C 1697.73 1270.7 1680 1301.84 1663.36 1314.05 C 1653.61 1321.2 1642.99 1324.29 1631.42 1327.31 C 1625.84 1328.83 1619.91 1329.96 1614.13 1330.33 C 1593.86 1331.61 1570.89 1322.99 1555.83 1309.48 C 1541.44 1296.56 1530.85 1274.02 1530.58 1254.69 C 1530.46 1245.99 1532.46 1237.49 1531.96 1228.74 C 1530.11 1225.54 1503.82 1223.89 1496.99 1221.35 L 1495.82 1220.9 C 1509.78 1204.21 1523.69 1203.17 1535.43 1191.55 C 1541.87 1185.18 1535.94 1181.55 1537.82 1175.25 C 1540.95 1164.73 1554.67 1155.05 1557.68 1145.84 C 1558.39 1143.67 1558.06 1140.26 1558.01 1137.95 L 1557.96 1136.42 C 1564.4 1128.86 1580.54 1124.86 1589.85 1121.59 C 1593.82 1125.42 1598.95 1130.79 1605.02 1130.47 C 1607.5 1130.34 1607.73 1129.58 1609.16 1127.76 C 1610.11 1122.82 1608.81 1118.18 1606.73 1113.68 C 1606.59 1113.37 1606.44 1113.07 1606.29 1112.77 C 1607.28 1111.21 1610.3 1110.81 1612.08 1110.24 z"/>
<path transform="translate(0,0)" fill="rgb(35,31,32)" d="M 1573.34 1167.15 C 1575.63 1166.81 1578.21 1166.38 1580.51 1166.81 C 1583.7 1167.41 1587.39 1169.64 1588.83 1172.59 C 1590.68 1176.37 1589.68 1179.18 1588.11 1182.72 C 1585.31 1182.97 1582.52 1183.25 1579.85 1182.17 C 1576.44 1180.8 1573.47 1178.5 1572.27 1174.91 C 1571.2 1171.74 1572.02 1169.95 1573.34 1167.15 z"/>
<path transform="translate(0,0)" fill="rgb(35,31,32)" d="M 1565.38 1220.75 C 1566.49 1220.85 1567.53 1221.04 1568.6 1221.37 C 1571.57 1222.29 1574.21 1223.74 1575.42 1226.83 C 1576.28 1229.06 1575.97 1231.42 1575.06 1233.57 C 1572.97 1238.53 1569.45 1240.18 1564.65 1242 C 1560.68 1242.06 1558.45 1241.15 1555.52 1238.65 C 1554.37 1235.95 1553.82 1234.53 1554.6 1231.61 C 1556.12 1225.93 1560.52 1223.32 1565.38 1220.75 z"/>
<path transform="translate(0,0)" fill="rgb(254,254,254)" d="M 748.48 1117.22 L 749.601 1117.64 C 754.61 1126.85 750.907 1141.13 752.248 1151.33 C 753.351 1159.72 756.86 1165.84 756.075 1174.73 C 751.006 1232.12 700.637 1334.67 665.921 1380.55 A 273.279 273.279 0 0 1 622.829 1425.14 C 611.315 1434.65 568.874 1469.39 556.091 1467.06 C 554.573 1466.79 554.981 1466.62 554.178 1465.06 C 554.251 1463.76 554.026 1462.4 554.398 1461.15 C 555.323 1458.04 572.639 1449.5 576.165 1446.84 A 65.8746 65.8746 0 0 0 587.366 1436.08 C 601.173 1419.06 596.66 1381.26 594.734 1360.34 C 606.711 1354.32 619.006 1345.92 626.718 1334.73 C 629.642 1330.49 632.281 1325.11 630.952 1319.83 C 627.693 1306.87 606.05 1306.21 595.729 1302.06 C 588.512 1299.15 581.996 1294.69 576.146 1289.61 A 124.036 124.036 0 0 1 555.576 1266.29 C 547.8 1254.96 531.843 1222.87 523.456 1217.39 C 522.51 1217.54 520.821 1217.75 519.976 1218.13 C 518.497 1218.8 517.395 1219.98 516.852 1221.47 C 514.558 1227.77 519.841 1236.84 522.226 1242.74 C 513.986 1240.56 505.416 1238.94 497.594 1235.48 C 487.136 1230.85 478.449 1224.61 467.303 1221.5 C 457.483 1224.78 447.775 1229.38 438.208 1233.36 C 428.886 1237.24 419.153 1240.89 410.479 1246.09 C 390.538 1258.05 375.859 1281.38 366.669 1302.18 C 362.413 1311.81 361.077 1323.27 356.244 1332.46 C 354.37 1336.02 351.598 1339.42 349.419 1342.85 C 349.173 1345.12 348.609 1347.94 349.21 1350.16 C 349.808 1352.37 350.667 1352.56 352.509 1353.63 C 356.903 1353.9 360.862 1352.16 364.966 1350.77 C 364.803 1362.66 362.997 1376.44 367.213 1387.72 C 363.939 1393.13 357.593 1401.52 359.678 1408.15 C 361.499 1413.95 367.43 1416.66 372.306 1419.51 L 381.667 1416 C 389.549 1429.56 404.405 1453.56 416.558 1462.61 C 418.985 1464.42 420.003 1464.64 422.961 1464.3 C 426.608 1462.2 428.568 1458.93 430.963 1455.58 C 439.773 1463.24 446.864 1472.54 456.017 1479.92 C 427.279 1475.9 403.066 1466.38 382.142 1445.71 C 326.299 1390.53 314.892 1307.82 310.115 1233.18 A 1182.31 1182.31 0 0 1 307.033 1141.23 C 315.258 1142.97 323.35 1144.98 331.265 1147.83 C 353.015 1155.65 447.658 1197.89 461.747 1196.9 C 465.583 1196.63 477.186 1190.62 481.527 1189.04 C 519.964 1175.03 559.721 1164.08 598.995 1152.65 C 648.159 1138.33 698.422 1127.86 748.48 1117.22 z"/>
<path transform="translate(0,0)" fill="rgb(254,254,254)" d="M 1660.38 987.59 C 1677.15 985.543 1693.03 995.568 1709.81 997.753 C 1725.83 999.837 1742.33 999.059 1758.46 998.928 C 1760.8 1002.1 1762.44 1005.27 1763.46 1009.1 C 1767.39 1023.89 1767.96 1040.5 1770.48 1055.7 C 1782.5 1128.34 1785.97 1216.11 1761.74 1286.33 C 1754.51 1307.29 1743.76 1327.87 1732.98 1347.2 C 1705.24 1343.27 1677.92 1346.21 1650.15 1340.2 C 1676.37 1328.38 1683.15 1323.1 1702.62 1302.49 C 1707.11 1297.74 1714.17 1300.85 1720.2 1300.42 C 1727.38 1299.91 1733.73 1296.13 1738.31 1290.69 C 1741.97 1286.35 1743.94 1281.54 1745.06 1276.02 C 1746.84 1267.24 1745.69 1257.96 1746.05 1249.05 C 1746.55 1237 1749.04 1225.34 1748.13 1213.19 C 1745.82 1182.14 1731.33 1146.05 1707.37 1125.46 C 1676.3 1098.77 1640.79 1092.14 1601.13 1095.28 A 254.899 254.899 0 0 0 1594.51 1089.2 C 1591.23 1086.34 1586.9 1083.83 1582.38 1084.44 C 1580.63 1084.67 1580.51 1085.51 1579.51 1086.8 C 1579.06 1093.4 1583.3 1097.98 1586.9 1103.05 C 1561.32 1112.27 1539.83 1127.44 1517.88 1143.11 C 1515.66 1144.55 1513.45 1146.01 1511.41 1147.69 C 1508.1 1150.42 1504.91 1153.46 1504.55 1157.93 C 1505.53 1159.15 1505.65 1159.59 1507.18 1160.2 C 1515.16 1163.37 1525.03 1157.75 1532.04 1154.44 C 1525.76 1163.59 1521.21 1170.33 1519.63 1181.51 C 1513.8 1185.59 1507.62 1189.14 1501.85 1193.31 C 1493.89 1199.06 1475.11 1212.53 1474.31 1223.07 C 1474.09 1225.91 1474.73 1228.28 1476.56 1230.47 C 1482.59 1237.68 1497.69 1239.18 1506.5 1240.24 C 1512.98 1277.79 1524.64 1319.58 1563.92 1334.83 C 1567.45 1336.21 1575.88 1337.85 1577.65 1340.76 C 1570.48 1343.81 1478.63 1329.07 1464.71 1326.6 C 1451.49 1310.07 1432.31 1279.39 1422.97 1260.34 C 1400.35 1214.2 1360.86 1099.74 1364.09 1050.6 C 1372.96 1048.09 1381.02 1045.28 1388.75 1040.11 C 1400.88 1031.99 1407.63 1021.52 1410.34 1007.33 C 1493.58 999.498 1577.16 995.453 1660.38 987.59 z"/>
<path transform="translate(0,0)" fill="rgb(254,254,254)" d="M 1810.11 1022.01 C 1810.6 1022.64 1811.27 1023.17 1811.56 1023.91 C 1814.6 1031.59 1817.4 1074.74 1818.98 1086.22 C 1821.11 1101.71 1825.05 1116.68 1826.05 1132.35 A 472.633 472.633 0 0 1 1825.86 1191.13 C 1823.07 1235.67 1808.54 1312.97 1787.46 1352.68 C 1779.76 1367.17 1768.73 1379.79 1758.97 1392.93 C 1752.57 1401.54 1745.86 1413.64 1737.95 1420.63 C 1736.34 1420.9 1734.36 1421.07 1732.86 1421.67 C 1730.28 1422.68 1729.43 1423.68 1728.5 1426.27 C 1725.1 1435.7 1738.34 1591.35 1741.06 1605.88 C 1745.19 1627.93 1752.49 1649.11 1761.02 1669.8 C 1718.66 1676.64 1674.22 1675.95 1631.37 1679.18 C 1583.41 1682.79 1537.34 1691.84 1490.69 1703.35 C 1486.58 1685.18 1486.62 1664.67 1485.34 1646.01 C 1479.69 1563.18 1481.54 1482.48 1494.89 1400.45 C 1484.66 1389.7 1473.09 1380.15 1462.61 1369.61 A 523.323 523.323 0 0 1 1407.18 1303.19 C 1371.74 1251.74 1349.3 1193.24 1336.25 1132.41 C 1332.23 1113.66 1328.66 1094.61 1327.97 1075.41 C 1331.7 1073.5 1339.07 1069.53 1343.26 1070.14 C 1352.27 1071.45 1352.14 1093.99 1353.42 1101.09 C 1366.75 1175.43 1394.08 1249.63 1436.18 1312.4 C 1442.45 1321.75 1449.28 1333.09 1459.02 1339.15 C 1468.31 1344.93 1547.27 1353.93 1565.58 1357.52 C 1563.9 1362.63 1558.72 1373.19 1559.9 1378.05 C 1560.52 1380.59 1561.64 1382.47 1564.01 1383.71 C 1566.58 1385.04 1568.25 1384.76 1570.91 1384.05 C 1574.37 1381.13 1575.9 1376.64 1577.79 1372.62 C 1579.48 1385.13 1581.67 1398.05 1591.63 1406.94 C 1596.76 1411.51 1603.37 1413.8 1610.23 1413.19 C 1618.43 1412.46 1626.04 1408.1 1631.3 1401.84 C 1642.33 1388.73 1641.74 1371.79 1640.75 1355.78 C 1668.2 1359.71 1695.6 1359.95 1723.02 1363 C 1728.24 1363.58 1734.88 1367.26 1739.79 1366.81 C 1743.02 1366.51 1745.06 1364.11 1746.92 1361.66 C 1753.2 1353.35 1758.16 1343.16 1763.33 1334.06 C 1773.03 1316.99 1782.08 1299.47 1788.35 1280.81 C 1805.62 1229.33 1806.16 1162.4 1800.13 1108.73 C 1797.2 1082.61 1791.33 1056.93 1788.04 1030.86 C 1795.21 1027.53 1802.73 1024.86 1810.11 1022.01 z"/>
<path transform="translate(0,0)" fill="rgb(254,254,254)" d="M 269.327 1157.85 A 116.609 116.609 0 0 1 292.966 1160.55 C 292.874 1212.66 296.32 1266.52 305.949 1317.77 C 317.865 1381.18 341.296 1441.15 396.545 1478.56 C 422.532 1496.16 453.3 1505.34 484.508 1499.2 C 484.374 1502.37 484.938 1505.68 485.281 1508.84 C 490.655 1516.41 496.352 1520.18 505.573 1522.09 C 521.475 1525.38 541.823 1520.65 555.275 1511.71 C 564.895 1505.31 568.805 1498.44 571.154 1487.52 C 584.948 1480.33 598.872 1473.32 611.586 1464.29 C 638.075 1445.48 662.922 1420.72 682.578 1394.92 C 727.132 1336.42 769.516 1239.9 781.494 1167.44 C 787.238 1167.69 792.957 1168.21 798.685 1168.69 C 799.224 1187.31 796.196 1207.16 793.161 1225.5 C 779.869 1305.8 748.343 1378.82 706.658 1448.37 C 695.875 1466.91 672.786 1502.43 654.796 1513.66 C 650.479 1516.35 645.674 1517.1 640.924 1518.65 C 636.195 1520.2 632.85 1521.49 630.454 1526.07 C 630.006 1528.69 630.883 1530.31 632.022 1532.6 C 635.046 1538.67 639.36 1544.45 642.93 1550.24 A 133.659 133.659 0 0 1 657.005 1581.58 C 666.61 1612.31 698.802 1757.07 687.295 1777.11 C 678.675 1792.12 653.312 1797.42 637.898 1800.99 A 230.547 230.547 0 0 1 605.592 1806.34 C 583.087 1808.27 501.502 1810.52 482.361 1805.04 C 471.049 1801.8 459.915 1793.95 450.006 1787.76 C 460.343 1757.25 469.53 1729.34 470.692 1696.58 C 472.36 1649.54 458.693 1606.12 437.551 1564.67 C 433.191 1556.13 428.566 1545.35 421.747 1538.53 C 416.856 1533.63 414.035 1537.92 408.766 1537.26 C 403.602 1536.61 396.155 1531.25 391.512 1528.56 C 356.24 1508.07 324.429 1479.54 302.312 1445.03 C 290.943 1427.29 281.553 1407.24 275.404 1387.08 C 255.64 1322.29 254.904 1223.53 269.327 1157.85 z"/>
<path transform="translate(0,0)" fill="rgb(254,254,254)" d="M 1490.03 218.462 C 1564.63 216.318 1638.47 225.186 1712.83 228.447 A 2580.05 2580.05 0 0 1 1780.19 595.79 C 1767.27 601.636 1754.78 608.498 1743.92 617.696 C 1711.18 645.423 1700.38 678.631 1697.3 720.509 C 1695.47 745.438 1696.52 773.799 1713.83 793.6 C 1737.39 820.549 1786.25 816.942 1819.14 819.204 C 1826.01 859.631 1827.02 901.803 1827 942.735 L 1815.33 941.871 C 1815.29 929.345 1815.25 915.944 1811.97 903.762 C 1809.83 895.813 1806.45 889.128 1799.04 884.997 C 1794.67 882.561 1788.83 880.777 1783.92 882.628 C 1778.97 884.495 1774.69 889.328 1772.61 894.079 C 1766.93 907.007 1770.1 930.071 1775.49 942.738 C 1777.75 948.045 1780.74 953.475 1786.34 955.656 L 1788.6 954.626 C 1795.37 943.736 1789.81 913.983 1791.13 899.613 C 1795.14 916.991 1795.75 934.449 1796.15 952.197 L 1802.69 959.269 C 1803.37 970.567 1802.85 982.12 1802.73 993.44 C 1794.94 995.427 1785.04 998.808 1776.96 998.018 C 1773.3 997.66 1771.59 996.257 1769.38 993.455 L 1768.33 992.114 C 1766.2 989.417 1763.97 987.659 1760.67 986.588 C 1751.24 983.531 1722.16 984.737 1709.04 983.144 C 1720.25 981.966 1752.97 979.281 1759.9 969.248 C 1761.29 967.238 1761.69 965.871 1760.82 963.591 C 1758.33 956.987 1743.72 946.641 1738.9 939.25 C 1734.46 932.441 1732.85 925.922 1731.29 918.106 C 1742.87 928.23 1748.53 941.948 1759.16 952.346 C 1761.66 954.79 1764.61 956.911 1768.26 956.769 C 1770.47 956.683 1769.61 956.987 1771.17 955.267 C 1770.73 950.756 1761.52 912.051 1760.11 909.315 C 1759.03 907.226 1757.44 907.067 1755.39 906.321 C 1751.13 906.944 1748.63 909.449 1745.18 911.757 C 1740.19 907.752 1734.39 904.393 1727.78 904.816 C 1724.58 905.022 1721.26 906.042 1719.29 908.76 C 1715.8 913.557 1716.7 922.363 1717.78 927.844 C 1719.99 939.111 1727.25 949.196 1736.51 955.705 C 1691.57 956.14 1646.56 960.619 1601.73 963.783 A 5566.62 5566.62 0 0 0 1376 983.273 C 1376.07 974.455 1376.21 964.329 1373.04 956.021 C 1371.52 952.055 1368.87 947.98 1364.57 946.691 C 1360.44 945.448 1356.02 947.162 1352.5 949.268 C 1336.97 958.544 1331.14 974.363 1326.7 990.81 C 1291.17 993.832 1255.54 1001.16 1220.19 1006.1 A 10600 10600 0 0 0 903.899 1056.8 C 874.906 1061.74 846.09 1067.79 817.047 1072.41 C 818.249 1059.41 822.112 1041.94 818.936 1029.32 C 818.01 1025.64 816.165 1022.31 812.762 1020.39 C 810.314 1019.01 807.977 1018.86 805.312 1019.78 C 791.862 1024.41 783.636 1061.02 778.2 1073.64 L 777.685 1074.8 L 775.959 1074.07 C 765.978 1069.89 758.666 1060.14 748.506 1057.11 C 744.731 1055.99 738.768 1056.24 735.475 1058.64 C 726.136 1065.43 742.176 1077.39 739.516 1086.46 C 733.865 1091.94 686.389 1100.48 674.042 1103.31 C 638.306 1111.49 602.319 1120.43 567.125 1130.7 C 537.478 1139.35 508.221 1149.3 478.43 1157.45 L 476.281 1137.18 C 474.444 1111.56 471.026 1064.53 462.762 1041.65 C 461.394 1037.86 460.106 1034.81 456.293 1033.07 C 449.334 1032.79 444.848 1036.33 439.202 1039.89 C 437.815 1080.66 448.786 1121.58 449.611 1162.36 C 427.033 1156.02 406.396 1143.52 384.984 1134.12 C 370.305 1127.68 354.835 1123.34 340.195 1116.81 C 341.525 1109.16 343.787 1101.66 345.2 1094.01 C 348.359 1076.9 352.023 1032.36 340.516 1018.35 C 338.965 1016.46 337.204 1015.12 334.662 1015.07 C 328.079 1014.94 324.236 1019.95 320.163 1024.29 C 320.023 1017.77 319.42 1011.21 318.985 1004.7 C 327.685 1003.84 335.647 1003.09 342.217 996.576 C 350.712 988.146 350.42 975.396 350.571 964.322 A 224.266 224.266 0 0 0 354.54 962.773 C 363.768 959.065 373.612 953.427 377.392 943.667 C 383.564 927.731 371.596 909.122 365.191 894.972 C 369.824 888.599 374.269 882.567 376.723 874.967 C 382.925 855.761 371.412 841.895 363.27 825.931 C 358.783 817.132 355.092 807.919 350.512 799.172 C 336.742 772.875 313.582 762.466 286.366 754.045 C 279.951 728.071 275.799 701.381 269.833 675.262 L 250.68 589.641 C 246.794 572.363 242.345 555.235 239.295 537.777 C 250.856 522.851 259.725 505.995 268.826 489.517 L 300.415 432.285 C 308.364 417.979 316.546 402.866 326.961 390.206 C 335.2 408.809 334.353 431.572 336.032 451.665 C 337.653 471.066 339.149 490.607 342.481 509.802 C 346.634 533.737 354.174 556.98 360.454 580.41 C 370.36 617.368 379.784 655.044 386.596 692.707 C 390.362 713.531 393.008 734.726 395.357 755.755 C 396.654 767.369 397.067 779.81 399.578 791.172 C 400.285 794.368 401.357 796.687 403.193 799.372 C 405.672 800.803 405.592 800.909 408.379 800.368 C 409.173 799.696 410.171 799.208 410.761 798.351 C 414.144 793.438 408.688 763.151 407.716 755.589 A 1557 1557 0 0 0 378.769 593.664 C 372.498 566.317 363.84 539.781 358.797 512.115 C 352.714 478.741 351.026 445.389 347.505 411.745 C 346.557 402.683 341.328 387.458 342.747 379.144 C 349.161 373.201 373.533 369.628 382.915 367.132 C 507.514 333.981 634.305 313.533 761.798 295.304 A 7837.75 7837.75 0 0 1 949.419 269.242 C 1018.1 260.358 1086.05 248.206 1154.99 241.033 A 5021.41 5021.41 0 0 1 1490.03 218.462 z"/>
<path transform="translate(0,0)" fill="rgb(35,31,32)" d="M 1133.05 463.39 C 1139.18 463.007 1148.48 462.436 1154.29 464.337 C 1156.62 465.098 1159 467.177 1159.9 469.466 C 1160.9 472.035 1160.47 473.17 1159.58 475.554 C 1153.81 480.843 1141.36 479.768 1133.76 480.499 C 1126.4 481.667 1119.06 483.38 1111.64 481.835 C 1108.32 481.144 1106.54 479.988 1104.62 477.249 C 1104.94 474.795 1105.2 474.236 1106.9 472.4 C 1113.43 465.332 1124.07 464.143 1133.05 463.39 z"/>
<path transform="translate(0,0)" fill="rgb(35,31,32)" d="M 1631.61 262.402 C 1636.66 262.062 1641.84 261.561 1646.89 261.841 C 1650.17 262.022 1651.58 262.816 1653.75 265.193 C 1654.47 268.13 1654.37 268.343 1653.27 271.179 C 1647.99 276.343 1632.43 275.962 1625.02 276.881 C 1625.76 282.646 1625.95 288.368 1626.14 294.17 C 1626.11 295.189 1626.12 295.97 1625.9 297.001 C 1625.31 299.672 1624.43 300.997 1622.31 302.626 C 1620.7 302.747 1619.98 303.08 1618.49 302.232 C 1614.48 299.941 1612.3 294.461 1611.19 290.203 C 1609.55 283.953 1607.65 273.097 1611.64 267.493 C 1615.02 262.734 1626.26 262.923 1631.61 262.402 z"/>
<path transform="translate(0,0)" fill="rgb(35,31,32)" d="M 475.057 405.096 C 475.567 405.017 476.075 404.92 476.587 404.857 C 479.931 404.448 481.431 404.687 484.006 406.679 L 483.909 408.862 C 478.311 417.073 459.396 423.225 450.38 429.69 L 449.324 430.46 C 450.144 442.293 458.275 458.247 452.168 469.101 C 448.908 469.294 447.782 469.539 444.762 468.121 C 436.615 458.326 436.427 439.542 437.125 427.316 C 446.419 413.739 460.266 409.776 475.057 405.096 z"/>
<path transform="translate(0,0)" fill="rgb(35,31,32)" d="M 417.69 879.641 C 419.914 879.729 421.644 879.946 423.763 880.639 C 425.402 882.299 426.02 883.488 426.397 885.74 C 428.528 898.483 428.406 911.924 429.847 924.819 C 431.81 942.399 435.279 959.756 437.403 977.303 C 437.955 981.858 437.632 983.652 434.753 987.336 C 432.007 987.145 430.123 986.945 427.547 985.85 C 424.437 982.464 423.847 976.567 423.054 972.154 C 419.949 954.874 408.257 893.201 417.69 879.641 z"/>
<path transform="translate(0,0)" fill="rgb(35,31,32)" d="M 386.935 1038.59 C 394.887 1039.89 399.936 1040.68 404.873 1047.74 C 409.813 1054.81 411.914 1065.16 410.326 1073.62 C 408.924 1081.1 405.25 1085.42 399.068 1089.53 C 396.616 1090.2 394.237 1090.75 391.678 1090.76 C 387.653 1090.78 384.066 1089.02 381.388 1086.05 C 376.601 1080.73 375.647 1072.21 375.918 1065.37 C 376.315 1055.34 379.61 1045.61 386.935 1038.59 z"/>
<path transform="translate(0,0)" fill="rgb(35,31,32)" d="M 308.081 629.951 C 310.929 629.632 313.714 629.446 316.514 630.243 C 320.148 631.278 322.955 633.697 324.639 637.049 C 329.553 646.828 325.323 668.008 321.647 678.109 C 318.286 687.348 315.154 690.741 306.443 694.953 C 304.715 695.107 302.97 695.283 301.257 694.869 C 297.386 693.933 293.454 690.755 291.331 687.43 C 286.91 680.507 287.218 669.727 288.886 662.022 C 291.482 650.028 297.555 636.709 308.081 629.951 z"/>
<path transform="translate(0,0)" fill="rgb(35,31,32)" d="M 283.071 496.87 C 285.514 497.003 288.141 497.523 290.415 498.453 C 295.806 500.657 298.149 506.085 300.402 511.027 C 299.481 521.586 297.841 533.171 295.212 543.433 C 292.357 554.576 288.152 560.429 278.388 566.105 C 276.879 566.107 275.435 566.082 273.962 565.7 C 269.775 564.615 266.131 561.9 264.158 558.019 C 259.008 547.884 262.689 532.927 265.832 522.565 C 268.993 512.146 273.08 502.268 283.071 496.87 z"/>
<path transform="translate(0,0)" fill="rgb(35,31,32)" d="M 622.457 551.364 C 626.734 550.857 630.034 550.553 633.651 553.274 C 634.719 555.882 634.713 556.264 634.247 559.053 C 628.793 565.045 605.165 566.999 596.6 568.705 C 554.398 577.112 513.775 594.821 471.241 600.623 C 469.205 600.939 467.028 601.383 464.969 601.39 C 462.281 601.398 461.152 600.368 459.29 598.627 C 458.723 596.244 458.358 595.137 459.892 592.905 C 461.211 590.987 463.952 589.503 466.13 588.83 C 470.553 587.464 475.567 587.278 480.131 586.45 A 337.067 337.067 0 0 0 505.031 580.829 C 543.97 570.565 582.322 556.184 622.457 551.364 z"/>
<path transform="translate(0,0)" fill="rgb(35,31,32)" d="M 1538.19 530.023 C 1546.52 530.259 1553.5 533.54 1559.18 539.691 C 1566.83 547.971 1571.23 560.443 1570.48 571.687 C 1569.56 585.497 1562.75 597.72 1552.33 606.56 C 1549.74 607.412 1547.55 608.128 1544.81 607.735 C 1538.78 606.871 1533.65 602.728 1530.34 597.795 C 1521.72 584.916 1518.96 567.459 1522.4 552.428 C 1524.75 542.159 1529.21 535.452 1538.19 530.023 z"/>
<path transform="translate(0,0)" fill="rgb(35,31,32)" d="M 1603.56 399.4 C 1614.39 398.004 1628.53 398.575 1639.21 401.1 C 1643.05 402.007 1645.58 403.352 1647.75 406.713 C 1647.96 409.241 1648.15 410.178 1646.9 412.493 C 1644.3 417.313 1637.37 419.778 1632.4 421.02 C 1627.07 422.352 1618.92 423.23 1614.15 419.798 C 1611.72 418.049 1611.33 415.242 1610.75 412.517 C 1610.67 412.136 1610.6 411.753 1610.52 411.372 C 1567.08 416.443 1523.56 421.992 1480.23 427.944 C 1467.69 428.697 1446.66 435.248 1434.97 432.104 C 1432.27 431.377 1431.51 430.553 1430.02 428.268 C 1430.21 425.247 1430.27 424.83 1432.01 422.37 C 1434.61 420.802 1437.08 420.236 1440.03 419.696 C 1457.16 416.561 1475.23 415.646 1492.55 413.395 A 5415.87 5415.87 0 0 1 1603.56 399.4 z"/>
<path transform="translate(0,0)" fill="rgb(35,31,32)" d="M 562.11 698.144 C 566.49 697.761 571.357 697.581 575.542 699.105 C 581.912 701.425 586.651 706.855 589.347 712.928 C 595.572 726.95 594.811 749.17 588.848 763.197 C 585.472 771.138 581.213 775.647 573.32 778.991 C 570.541 779.425 567.781 779.899 564.987 779.335 C 558.493 778.024 553.463 773.705 550.161 768.086 C 542.378 754.838 541.38 735.01 545.412 720.392 C 548.265 710.046 552.687 703.283 562.11 698.144 z"/>
<path transform="translate(0,0)" fill="rgb(35,31,32)" d="M 1640.57 763.936 C 1641.79 763.94 1643.27 763.854 1644.48 764.188 C 1647.03 764.897 1648.38 766.088 1649.8 768.217 C 1649.45 769.908 1649.34 770.987 1649.39 772.759 C 1651.93 774.278 1654.02 775.522 1655.95 777.839 C 1656.54 780.92 1655.93 782.037 1654.67 784.764 L 1653.49 784.16 L 1653.59 785.131 C 1641.97 786.121 1629.93 784.965 1618.27 784.536 A 677.434 677.434 0 0 0 1573.21 784.075 A 3162.11 3162.11 0 0 0 1386.62 792.545 C 1309.26 797.957 1230.97 804.986 1154.19 815.853 C 1087.34 825.314 1020.98 838.132 954.588 850.307 L 848.742 868.749 C 757.945 884.727 667.74 898.552 579.06 924.613 C 555.608 931.504 531.375 938.094 509.244 948.572 C 505.928 950.231 502.79 951.553 499.066 950.671 C 496.816 948.927 495.943 948.222 495.016 945.403 C 495.424 943.069 496.103 941.775 497.86 940.133 C 513.71 925.325 663.821 888.763 693.347 882.593 C 763.705 867.889 835.204 858.136 906.037 845.862 C 989.762 831.354 1073.06 814.664 1157.25 802.85 C 1184.97 798.96 1213.03 796.56 1240.88 793.679 A 8189.25 8189.25 0 0 1 1332.89 784.043 A 2909.93 2909.93 0 0 1 1628.96 772.156 C 1632.59 769.046 1636.58 766.542 1640.57 763.936 z"/>
<path transform="translate(0,0)" fill="rgb(35,31,32)" d="M 790.553 459.467 A 62.7341 62.7341 0 0 1 828.609 470.151 C 850.486 484.674 864.038 510.62 869.033 535.878 C 876.031 571.266 870.28 601.847 850.312 631.677 C 872.865 662.129 898.61 694.174 895.667 734.449 C 893.497 764.148 872.801 792.529 850.722 811.273 C 830.028 828.841 804.192 839.782 776.754 837.511 C 752.415 836.002 733.906 823.307 716.228 807.524 C 698.708 791.882 683.196 774.843 682.011 750.218 C 680.735 723.693 689.829 702.099 697.83 677.446 C 702.477 663.126 702.858 651.507 713.441 639.99 A 150.896 150.896 0 0 1 706.219 633.972 C 685.59 615.431 677.978 595.869 676.671 568.426 C 675.879 551.801 678.145 531.073 686.711 516.464 C 690.548 509.921 695.785 504.109 699.844 497.666 C 705.385 488.874 710.157 479.308 717.357 471.703 C 721.249 467.591 725.728 464.32 731.143 462.548 C 745.142 457.966 775.012 459.833 790.553 459.467 z"/>
<path transform="translate(0,0)" fill="rgb(254,254,254)" d="M 755.699 793.813 C 763.58 795.508 774.366 795.269 781.556 798.448 C 783.512 799.313 782.808 798.725 783.625 800.954 L 782.35 803.413 C 777.965 804.923 773.409 806.105 768.962 807.431 C 765.218 801.682 761.609 797.416 755.699 793.813 z"/>
<path transform="translate(0,0)" fill="rgb(254,254,254)" d="M 766.008 528.066 C 774.658 529.681 782.569 532.994 789.404 538.641 C 795.21 543.437 799.945 550.009 800.266 557.771 C 800.612 566.134 796.363 571.931 790.853 577.698 C 784.803 578.376 778.579 578.216 772.49 578.308 A 286.96 286.96 0 0 1 769.394 578.31 C 760.955 578.255 750.186 577.756 744.068 571.009 C 741.732 568.433 740.564 565.183 740.741 561.71 C 741.33 550.151 757.736 535.13 766.008 528.066 z"/>
<path transform="translate(0,0)" fill="rgb(254,254,254)" d="M 771.309 676.493 C 789.727 684.19 808.387 693.128 820.52 709.742 C 825.866 717.062 828.082 725.011 826.356 733.994 C 823.415 749.296 811.654 760.755 799.281 769.185 C 795.475 771.514 791.336 773.73 787.032 774.964 C 772.783 779.047 761.106 771.49 749.245 764.796 C 747.811 726.328 750.004 709.333 771.309 676.493 z"/>
<path transform="translate(0,0)" fill="rgb(35,31,32)" d="M 1253.69 393.392 A 101.609 101.609 0 0 1 1306.74 401.262 C 1344.76 417.657 1378.94 453.369 1393.97 491.826 C 1413.38 541.461 1425.74 590.706 1422.29 644.399 C 1421.08 663.3 1418.39 681.265 1410.62 698.694 C 1400.27 721.934 1377.83 744.923 1352.52 751.363 C 1346.43 752.912 1339.68 751.686 1333.44 752.233 C 1324.25 753.037 1316.34 757.319 1307.84 760.465 C 1291.66 766.458 1266.53 757.661 1251.66 750.556 C 1223.83 737.255 1206.81 716.032 1189.32 691.449 C 1182.42 681.744 1175.44 672.141 1170.04 661.49 C 1164.16 649.896 1160.01 637.645 1155.7 625.41 C 1155.82 639.909 1159.06 654.433 1158.78 668.77 C 1158.58 679.601 1144.02 723.488 1138.95 734.08 C 1136.9 738.359 1134.72 741.793 1131.25 745.061 C 1123.37 752.479 1072.91 786.127 1063.38 789.55 C 1045.3 780.784 1035.02 783.89 1016.23 786.926 C 1002.77 788.199 995.065 785.182 983.898 777.519 C 970.217 768.13 955.679 758.642 943.704 747.139 C 927.194 731.279 905.926 698.004 897.604 676.438 C 893.618 666.11 891.42 655.558 889.419 644.716 L 897.1 637.49 C 897.464 622.184 898.163 606.805 898.081 591.499 C 898.02 580.208 896.913 568.901 897.341 557.61 C 898.607 524.256 911.217 493.748 928.123 465.466 C 937.434 449.89 950.63 423.488 969.63 419.333 C 986.373 415.672 1050.45 432.042 1065.65 441.585 C 1078.13 449.412 1081.65 463.885 1089.93 475.324 C 1098.85 487.652 1109.32 498.87 1118.76 510.794 C 1140.91 538.745 1147.89 568.43 1155.34 602.564 C 1155.55 597.383 1155.76 592.092 1156.8 587.001 C 1158.72 577.581 1163.26 566.568 1162.43 556.937 C 1161.87 550.49 1157.93 544.545 1157.24 538.06 C 1156.42 530.299 1159.15 522.063 1161.12 514.61 A 300.982 300.982 0 0 1 1214.43 406.928 C 1227.89 389.569 1234.63 395.9 1253.69 393.392 z"/>
<path transform="translate(0,0)" fill="rgb(254,254,254)" d="M 949.493 712.295 L 952.059 713.347 C 953.691 712.894 955.291 712.554 956.959 712.264 C 962.165 715.571 965.94 723.376 968.97 728.659 C 968.715 728.589 968.457 728.528 968.205 728.448 C 962.72 726.697 950.658 721.544 948.597 716.098 C 948.055 714.667 948.948 713.606 949.493 712.295 z"/>
<path transform="translate(0,0)" fill="rgb(254,254,254)" d="M 1217.25 671.881 C 1228.53 675.888 1242.47 697.376 1249.12 707.463 C 1245.37 705.223 1242.07 702.555 1238.71 699.759 C 1230.88 693.228 1218.23 682.678 1217.25 671.881 z"/>
<path transform="translate(0,0)" fill="rgb(254,254,254)" d="M 1277.16 472.189 C 1280.57 471.837 1284.08 471.587 1287.51 471.86 C 1302.29 473.043 1315.36 484.546 1324.73 495.198 C 1352.96 527.286 1368.67 573.268 1365.93 615.898 C 1364.46 638.885 1357.89 665.298 1339.51 680.736 C 1328.69 689.821 1316.15 693.395 1302.21 692.122 C 1302.11 692.083 1302 692.042 1301.9 692.004 C 1299.84 691.258 1297.78 690.497 1295.84 689.498 C 1281.23 682.002 1232.08 631.983 1221.84 617.95 C 1219.07 614.16 1217.51 609.687 1216.25 605.21 C 1211.28 587.542 1208.76 544.51 1211.1 525.847 C 1211.65 521.47 1213.09 517.553 1215.37 513.786 C 1227.45 493.814 1254.97 477.678 1277.16 472.189 z"/>
<path transform="translate(0,0)" fill="rgb(254,254,254)" d="M 1008.71 493.072 C 1020.56 492.525 1031.41 501.017 1040.67 507.545 C 1070.43 528.528 1090.99 559.551 1097 595.772 C 1101.71 624.126 1098.16 680.333 1081 703.931 A 66.4144 66.4144 0 0 1 1036.99 730.256 C 1025.11 719.227 1013.72 707.696 1001.92 696.589 C 986.692 682.263 969.405 668.951 958.352 650.902 C 943.846 627.212 943.739 599.988 944.597 573.141 C 944.906 563.473 944.943 553.338 947.443 543.936 C 954.191 518.564 987.602 504.99 1008.71 493.072 z"/>
</svg>